G04 #@! TF.FileFunction,Legend,Top*
%FSLAX46Y46*%
G04 Gerber Fmt 4.6, Leading zero omitted, Abs format (unit mm)*
G04 Created by KiCad (PCBNEW 4.0.5) date 03/27/17 13:57:13*
%MOMM*%
%LPD*%
G01*
G04 APERTURE LIST*
%ADD10C,0.100000*%
%ADD11C,0.200000*%
%ADD12C,0.300000*%
%ADD13C,0.150000*%
%ADD14C,0.120000*%
G04 APERTURE END LIST*
D10*
D11*
X52457143Y-110814286D02*
X53657143Y-110814286D01*
X53657143Y-111100001D01*
X53600000Y-111271429D01*
X53485714Y-111385715D01*
X53371429Y-111442858D01*
X53142857Y-111500001D01*
X52971429Y-111500001D01*
X52742857Y-111442858D01*
X52628571Y-111385715D01*
X52514286Y-111271429D01*
X52457143Y-111100001D01*
X52457143Y-110814286D01*
X53657143Y-111900001D02*
X53657143Y-112642858D01*
X53200000Y-112242858D01*
X53200000Y-112414286D01*
X53142857Y-112528572D01*
X53085714Y-112585715D01*
X52971429Y-112642858D01*
X52685714Y-112642858D01*
X52571429Y-112585715D01*
X52514286Y-112528572D01*
X52457143Y-112414286D01*
X52457143Y-112071429D01*
X52514286Y-111957143D01*
X52571429Y-111900001D01*
X52457143Y-102014286D02*
X53657143Y-102014286D01*
X53657143Y-102300001D01*
X53600000Y-102471429D01*
X53485714Y-102585715D01*
X53371429Y-102642858D01*
X53142857Y-102700001D01*
X52971429Y-102700001D01*
X52742857Y-102642858D01*
X52628571Y-102585715D01*
X52514286Y-102471429D01*
X52457143Y-102300001D01*
X52457143Y-102014286D01*
X53542857Y-103157143D02*
X53600000Y-103214286D01*
X53657143Y-103328572D01*
X53657143Y-103614286D01*
X53600000Y-103728572D01*
X53542857Y-103785715D01*
X53428571Y-103842858D01*
X53314286Y-103842858D01*
X53142857Y-103785715D01*
X52457143Y-103100001D01*
X52457143Y-103842858D01*
X52457143Y-93414286D02*
X53657143Y-93414286D01*
X53657143Y-93700001D01*
X53600000Y-93871429D01*
X53485714Y-93985715D01*
X53371429Y-94042858D01*
X53142857Y-94100001D01*
X52971429Y-94100001D01*
X52742857Y-94042858D01*
X52628571Y-93985715D01*
X52514286Y-93871429D01*
X52457143Y-93700001D01*
X52457143Y-93414286D01*
X52457143Y-95242858D02*
X52457143Y-94557143D01*
X52457143Y-94900001D02*
X53657143Y-94900001D01*
X53485714Y-94785715D01*
X53371429Y-94671429D01*
X53314286Y-94557143D01*
D12*
X51821429Y-120457144D02*
X50821429Y-120814287D01*
X51821429Y-121171429D01*
X52321429Y-122028572D02*
X52321429Y-122171429D01*
X52250000Y-122314286D01*
X52178571Y-122385715D01*
X52035714Y-122457144D01*
X51750000Y-122528572D01*
X51392857Y-122528572D01*
X51107143Y-122457144D01*
X50964286Y-122385715D01*
X50892857Y-122314286D01*
X50821429Y-122171429D01*
X50821429Y-122028572D01*
X50892857Y-121885715D01*
X50964286Y-121814286D01*
X51107143Y-121742858D01*
X51392857Y-121671429D01*
X51750000Y-121671429D01*
X52035714Y-121742858D01*
X52178571Y-121814286D01*
X52250000Y-121885715D01*
X52321429Y-122028572D01*
X50964286Y-123171429D02*
X50892857Y-123242857D01*
X50821429Y-123171429D01*
X50892857Y-123100000D01*
X50964286Y-123171429D01*
X50821429Y-123171429D01*
X52321429Y-123742858D02*
X52321429Y-124671429D01*
X51750000Y-124171429D01*
X51750000Y-124385715D01*
X51678571Y-124528572D01*
X51607143Y-124600001D01*
X51464286Y-124671429D01*
X51107143Y-124671429D01*
X50964286Y-124600001D01*
X50892857Y-124528572D01*
X50821429Y-124385715D01*
X50821429Y-123957143D01*
X50892857Y-123814286D01*
X50964286Y-123742858D01*
D11*
X104933905Y-75906381D02*
X105552953Y-75906381D01*
X105219619Y-76287333D01*
X105362477Y-76287333D01*
X105457715Y-76334952D01*
X105505334Y-76382571D01*
X105552953Y-76477810D01*
X105552953Y-76715905D01*
X105505334Y-76811143D01*
X105457715Y-76858762D01*
X105362477Y-76906381D01*
X105076762Y-76906381D01*
X104981524Y-76858762D01*
X104933905Y-76811143D01*
X105838667Y-75906381D02*
X106172000Y-76906381D01*
X106505334Y-75906381D01*
X106743429Y-75906381D02*
X107362477Y-75906381D01*
X107029143Y-76287333D01*
X107172001Y-76287333D01*
X107267239Y-76334952D01*
X107314858Y-76382571D01*
X107362477Y-76477810D01*
X107362477Y-76715905D01*
X107314858Y-76811143D01*
X107267239Y-76858762D01*
X107172001Y-76906381D01*
X106886286Y-76906381D01*
X106791048Y-76858762D01*
X106743429Y-76811143D01*
X105156096Y-81288000D02*
X105060858Y-81240381D01*
X104918001Y-81240381D01*
X104775143Y-81288000D01*
X104679905Y-81383238D01*
X104632286Y-81478476D01*
X104584667Y-81668952D01*
X104584667Y-81811810D01*
X104632286Y-82002286D01*
X104679905Y-82097524D01*
X104775143Y-82192762D01*
X104918001Y-82240381D01*
X105013239Y-82240381D01*
X105156096Y-82192762D01*
X105203715Y-82145143D01*
X105203715Y-81811810D01*
X105013239Y-81811810D01*
X105632286Y-82240381D02*
X105632286Y-81240381D01*
X106203715Y-82240381D01*
X106203715Y-81240381D01*
X106679905Y-82240381D02*
X106679905Y-81240381D01*
X106918000Y-81240381D01*
X107060858Y-81288000D01*
X107156096Y-81383238D01*
X107203715Y-81478476D01*
X107251334Y-81668952D01*
X107251334Y-81811810D01*
X107203715Y-82002286D01*
X107156096Y-82097524D01*
X107060858Y-82192762D01*
X106918000Y-82240381D01*
X106679905Y-82240381D01*
X104833333Y-79702381D02*
X104833333Y-78702381D01*
X105071428Y-78702381D01*
X105214286Y-78750000D01*
X105309524Y-78845238D01*
X105357143Y-78940476D01*
X105404762Y-79130952D01*
X105404762Y-79273810D01*
X105357143Y-79464286D01*
X105309524Y-79559524D01*
X105214286Y-79654762D01*
X105071428Y-79702381D01*
X104833333Y-79702381D01*
X105833333Y-79702381D02*
X105833333Y-78702381D01*
X105833333Y-79178571D02*
X106404762Y-79178571D01*
X106404762Y-79702381D02*
X106404762Y-78702381D01*
X106738095Y-78702381D02*
X107309524Y-78702381D01*
X107023809Y-79702381D02*
X107023809Y-78702381D01*
X104761905Y-57702381D02*
X105380953Y-57702381D01*
X105047619Y-58083333D01*
X105190477Y-58083333D01*
X105285715Y-58130952D01*
X105333334Y-58178571D01*
X105380953Y-58273810D01*
X105380953Y-58511905D01*
X105333334Y-58607143D01*
X105285715Y-58654762D01*
X105190477Y-58702381D01*
X104904762Y-58702381D01*
X104809524Y-58654762D01*
X104761905Y-58607143D01*
X105666667Y-57702381D02*
X106000000Y-58702381D01*
X106333334Y-57702381D01*
X106571429Y-57702381D02*
X107190477Y-57702381D01*
X106857143Y-58083333D01*
X107000001Y-58083333D01*
X107095239Y-58130952D01*
X107142858Y-58178571D01*
X107190477Y-58273810D01*
X107190477Y-58511905D01*
X107142858Y-58607143D01*
X107095239Y-58654762D01*
X107000001Y-58702381D01*
X106714286Y-58702381D01*
X106619048Y-58654762D01*
X106571429Y-58607143D01*
X105238096Y-60250000D02*
X105142858Y-60202381D01*
X105000001Y-60202381D01*
X104857143Y-60250000D01*
X104761905Y-60345238D01*
X104714286Y-60440476D01*
X104666667Y-60630952D01*
X104666667Y-60773810D01*
X104714286Y-60964286D01*
X104761905Y-61059524D01*
X104857143Y-61154762D01*
X105000001Y-61202381D01*
X105095239Y-61202381D01*
X105238096Y-61154762D01*
X105285715Y-61107143D01*
X105285715Y-60773810D01*
X105095239Y-60773810D01*
X105714286Y-61202381D02*
X105714286Y-60202381D01*
X106285715Y-61202381D01*
X106285715Y-60202381D01*
X106761905Y-61202381D02*
X106761905Y-60202381D01*
X107000000Y-60202381D01*
X107142858Y-60250000D01*
X107238096Y-60345238D01*
X107285715Y-60440476D01*
X107333334Y-60630952D01*
X107333334Y-60773810D01*
X107285715Y-60964286D01*
X107238096Y-61059524D01*
X107142858Y-61154762D01*
X107000000Y-61202381D01*
X106761905Y-61202381D01*
X104785714Y-68904762D02*
X104928571Y-68952381D01*
X105166667Y-68952381D01*
X105261905Y-68904762D01*
X105309524Y-68857143D01*
X105357143Y-68761905D01*
X105357143Y-68666667D01*
X105309524Y-68571429D01*
X105261905Y-68523810D01*
X105166667Y-68476190D01*
X104976190Y-68428571D01*
X104880952Y-68380952D01*
X104833333Y-68333333D01*
X104785714Y-68238095D01*
X104785714Y-68142857D01*
X104833333Y-68047619D01*
X104880952Y-68000000D01*
X104976190Y-67952381D01*
X105214286Y-67952381D01*
X105357143Y-68000000D01*
X105785714Y-68952381D02*
X105785714Y-67952381D01*
X106023809Y-67952381D01*
X106166667Y-68000000D01*
X106261905Y-68095238D01*
X106309524Y-68190476D01*
X106357143Y-68380952D01*
X106357143Y-68523810D01*
X106309524Y-68714286D01*
X106261905Y-68809524D01*
X106166667Y-68904762D01*
X106023809Y-68952381D01*
X105785714Y-68952381D01*
X106738095Y-68666667D02*
X107214286Y-68666667D01*
X106642857Y-68952381D02*
X106976190Y-67952381D01*
X107309524Y-68952381D01*
X104809524Y-66154762D02*
X104952381Y-66202381D01*
X105190477Y-66202381D01*
X105285715Y-66154762D01*
X105333334Y-66107143D01*
X105380953Y-66011905D01*
X105380953Y-65916667D01*
X105333334Y-65821429D01*
X105285715Y-65773810D01*
X105190477Y-65726190D01*
X105000000Y-65678571D01*
X104904762Y-65630952D01*
X104857143Y-65583333D01*
X104809524Y-65488095D01*
X104809524Y-65392857D01*
X104857143Y-65297619D01*
X104904762Y-65250000D01*
X105000000Y-65202381D01*
X105238096Y-65202381D01*
X105380953Y-65250000D01*
X106380953Y-66107143D02*
X106333334Y-66154762D01*
X106190477Y-66202381D01*
X106095239Y-66202381D01*
X105952381Y-66154762D01*
X105857143Y-66059524D01*
X105809524Y-65964286D01*
X105761905Y-65773810D01*
X105761905Y-65630952D01*
X105809524Y-65440476D01*
X105857143Y-65345238D01*
X105952381Y-65250000D01*
X106095239Y-65202381D01*
X106190477Y-65202381D01*
X106333334Y-65250000D01*
X106380953Y-65297619D01*
X107285715Y-66202381D02*
X106809524Y-66202381D01*
X106809524Y-65202381D01*
D12*
X70500000Y-146035714D02*
X70428571Y-146107143D01*
X70214285Y-146178571D01*
X70071428Y-146178571D01*
X69857143Y-146107143D01*
X69714285Y-145964286D01*
X69642857Y-145821429D01*
X69571428Y-145535714D01*
X69571428Y-145321429D01*
X69642857Y-145035714D01*
X69714285Y-144892857D01*
X69857143Y-144750000D01*
X70071428Y-144678571D01*
X70214285Y-144678571D01*
X70428571Y-144750000D01*
X70500000Y-144821429D01*
X71428571Y-144678571D02*
X71714285Y-144678571D01*
X71857143Y-144750000D01*
X72000000Y-144892857D01*
X72071428Y-145178571D01*
X72071428Y-145678571D01*
X72000000Y-145964286D01*
X71857143Y-146107143D01*
X71714285Y-146178571D01*
X71428571Y-146178571D01*
X71285714Y-146107143D01*
X71142857Y-145964286D01*
X71071428Y-145678571D01*
X71071428Y-145178571D01*
X71142857Y-144892857D01*
X71285714Y-144750000D01*
X71428571Y-144678571D01*
X73571429Y-146178571D02*
X73071429Y-145464286D01*
X72714286Y-146178571D02*
X72714286Y-144678571D01*
X73285714Y-144678571D01*
X73428572Y-144750000D01*
X73500000Y-144821429D01*
X73571429Y-144964286D01*
X73571429Y-145178571D01*
X73500000Y-145321429D01*
X73428572Y-145392857D01*
X73285714Y-145464286D01*
X72714286Y-145464286D01*
X74214286Y-145392857D02*
X74714286Y-145392857D01*
X74928572Y-146178571D02*
X74214286Y-146178571D01*
X74214286Y-144678571D01*
X74928572Y-144678571D01*
X94000000Y-144678571D02*
X94357143Y-146178571D01*
X94642857Y-145107143D01*
X94928571Y-146178571D01*
X95285714Y-144678571D01*
X95857143Y-145392857D02*
X96357143Y-145392857D01*
X96571429Y-146178571D02*
X95857143Y-146178571D01*
X95857143Y-144678571D01*
X96571429Y-144678571D01*
X97142857Y-145750000D02*
X97857143Y-145750000D01*
X97000000Y-146178571D02*
X97500000Y-144678571D01*
X98000000Y-146178571D01*
X98285714Y-144678571D02*
X99142857Y-144678571D01*
X98714286Y-146178571D02*
X98714286Y-144678571D01*
X99642857Y-146178571D02*
X99642857Y-144678571D01*
X99642857Y-145392857D02*
X100500000Y-145392857D01*
X100500000Y-146178571D02*
X100500000Y-144678571D01*
X101214286Y-145392857D02*
X101714286Y-145392857D01*
X101928572Y-146178571D02*
X101214286Y-146178571D01*
X101214286Y-144678571D01*
X101928572Y-144678571D01*
X103428572Y-146178571D02*
X102928572Y-145464286D01*
X102571429Y-146178571D02*
X102571429Y-144678571D01*
X103142857Y-144678571D01*
X103285715Y-144750000D01*
X103357143Y-144821429D01*
X103428572Y-144964286D01*
X103428572Y-145178571D01*
X103357143Y-145321429D01*
X103285715Y-145392857D01*
X103142857Y-145464286D01*
X102571429Y-145464286D01*
D13*
X83770000Y-147420000D02*
X83770000Y-96790000D01*
X61250000Y-96790000D02*
X61250000Y-147420000D01*
X83770000Y-96790000D02*
X61250000Y-96790000D01*
X61250000Y-147420000D02*
X68756667Y-147420000D01*
X68756667Y-147420000D02*
X68756667Y-146970000D01*
X68756667Y-146970000D02*
X76263333Y-146970000D01*
X76263333Y-146970000D02*
X76263333Y-147420000D01*
X76263333Y-147420000D02*
X83770000Y-147420000D01*
X70080000Y-86090000D02*
X70080000Y-78470000D01*
X77700000Y-86090000D02*
X70080000Y-86090000D01*
X77700000Y-78470000D02*
X77700000Y-86090000D01*
X70080000Y-78470000D02*
X77700000Y-78470000D01*
X87860000Y-78470000D02*
X95480000Y-78470000D01*
X87860000Y-86090000D02*
X87860000Y-78470000D01*
X95480000Y-86090000D02*
X87860000Y-86090000D01*
X95480000Y-78470000D02*
X95480000Y-86090000D01*
X87860000Y-64500000D02*
X95480000Y-64500000D01*
X87860000Y-46720000D02*
X87860000Y-64500000D01*
X95480000Y-46720000D02*
X87860000Y-46720000D01*
X95480000Y-64500000D02*
X95480000Y-46720000D01*
X103100000Y-82280000D02*
X62460000Y-82280000D01*
X103100000Y-50530000D02*
X103100000Y-82280000D01*
X62460000Y-50530000D02*
X103100000Y-50530000D01*
X62460000Y-82280000D02*
X62460000Y-50530000D01*
X110260000Y-147430000D02*
X110260000Y-96800000D01*
X87740000Y-96800000D02*
X87740000Y-147430000D01*
X110260000Y-96800000D02*
X87740000Y-96800000D01*
X87740000Y-147430000D02*
X95246667Y-147430000D01*
X95246667Y-147430000D02*
X95246667Y-146980000D01*
X95246667Y-146980000D02*
X102753333Y-146980000D01*
X102753333Y-146980000D02*
X102753333Y-147430000D01*
X102753333Y-147430000D02*
X110260000Y-147430000D01*
D14*
X107670000Y-59440000D02*
X107670000Y-69660000D01*
X107670000Y-69660000D02*
X110330000Y-69660000D01*
X110330000Y-69660000D02*
X110330000Y-59440000D01*
X110330000Y-59440000D02*
X107670000Y-59440000D01*
X107670000Y-58170000D02*
X107670000Y-56840000D01*
X107670000Y-56840000D02*
X109000000Y-56840000D01*
X84770000Y-136020000D02*
X84440000Y-136020000D01*
X84440000Y-136020000D02*
X84440000Y-129600000D01*
X84440000Y-129600000D02*
X84770000Y-129600000D01*
X86730000Y-136020000D02*
X87060000Y-136020000D01*
X87060000Y-136020000D02*
X87060000Y-129600000D01*
X87060000Y-129600000D02*
X86730000Y-129600000D01*
D13*
X104435000Y-125394000D02*
X103165000Y-125394000D01*
X104435000Y-93390000D02*
X103165000Y-93390000D01*
X104435000Y-98470000D02*
X103165000Y-98470000D01*
X104435000Y-107614000D02*
X103165000Y-107614000D01*
X56175000Y-113710000D02*
X54905000Y-113710000D01*
X56175000Y-111170000D02*
X54905000Y-111170000D01*
X56175000Y-108630000D02*
X54905000Y-108630000D01*
X56175000Y-93390000D02*
X54905000Y-93390000D01*
X103165000Y-125394000D02*
X102530000Y-126029000D01*
X102530000Y-126029000D02*
X102530000Y-127299000D01*
X102530000Y-127299000D02*
X103165000Y-127934000D01*
X103165000Y-127934000D02*
X102530000Y-128569000D01*
X102530000Y-128569000D02*
X102530000Y-129839000D01*
X102530000Y-129839000D02*
X103165000Y-130474000D01*
X104435000Y-130474000D02*
X103165000Y-130474000D01*
X104435000Y-125394000D02*
X105070000Y-126029000D01*
X105070000Y-126029000D02*
X105070000Y-127299000D01*
X105070000Y-127299000D02*
X104435000Y-127934000D01*
X104435000Y-127934000D02*
X105070000Y-128569000D01*
X105070000Y-128569000D02*
X105070000Y-129839000D01*
X105070000Y-129839000D02*
X104435000Y-130474000D01*
X105070000Y-106979000D02*
X105070000Y-105836000D01*
X102530000Y-105709000D02*
X102530000Y-106979000D01*
X103165000Y-105074000D02*
X104562000Y-105074000D01*
X103165000Y-105074000D02*
X102530000Y-105709000D01*
X102530000Y-106979000D02*
X103165000Y-107614000D01*
X105070000Y-106979000D02*
X104435000Y-107614000D01*
X104562000Y-105074000D02*
X105070000Y-105582000D01*
X105070000Y-105582000D02*
X105070000Y-105836000D01*
X102530000Y-86405000D02*
X102530000Y-87675000D01*
X102530000Y-87675000D02*
X103165000Y-88310000D01*
X103165000Y-88310000D02*
X102530000Y-88945000D01*
X102530000Y-88945000D02*
X102530000Y-90215000D01*
X102530000Y-90215000D02*
X103165000Y-90850000D01*
X103165000Y-90850000D02*
X102530000Y-91485000D01*
X102530000Y-91485000D02*
X102530000Y-92755000D01*
X102530000Y-92755000D02*
X103165000Y-93390000D01*
X103165000Y-98470000D02*
X102530000Y-99105000D01*
X102530000Y-99105000D02*
X102530000Y-100375000D01*
X102530000Y-100375000D02*
X103165000Y-101010000D01*
X103165000Y-101010000D02*
X102530000Y-101645000D01*
X102530000Y-101645000D02*
X102530000Y-102915000D01*
X102530000Y-102915000D02*
X103165000Y-103550000D01*
X103165000Y-103550000D02*
X104435000Y-103550000D01*
X104435000Y-103550000D02*
X105070000Y-102915000D01*
X105070000Y-102915000D02*
X105070000Y-101645000D01*
X105070000Y-101645000D02*
X104435000Y-101010000D01*
X104435000Y-101010000D02*
X105070000Y-100375000D01*
X105070000Y-100375000D02*
X105070000Y-99105000D01*
X105070000Y-99105000D02*
X104435000Y-98470000D01*
X104435000Y-93390000D02*
X105070000Y-92755000D01*
X105070000Y-92755000D02*
X105070000Y-91485000D01*
X105070000Y-91485000D02*
X104435000Y-90850000D01*
X104435000Y-90850000D02*
X105070000Y-90215000D01*
X105070000Y-90215000D02*
X105070000Y-88945000D01*
X105070000Y-88945000D02*
X104435000Y-88310000D01*
X104435000Y-88310000D02*
X105070000Y-87675000D01*
X105070000Y-87675000D02*
X105070000Y-86405000D01*
X105070000Y-86405000D02*
X104435000Y-85770000D01*
X104435000Y-85770000D02*
X105070000Y-85135000D01*
X105070000Y-85135000D02*
X105070000Y-83865000D01*
X105070000Y-83865000D02*
X104435000Y-83230000D01*
X102530000Y-86405000D02*
X103165000Y-85770000D01*
X103165000Y-85770000D02*
X102530000Y-86405000D01*
X102530000Y-85135000D02*
X102530000Y-83865000D01*
X104435000Y-83230000D02*
X103165000Y-83230000D01*
X103165000Y-83230000D02*
X102530000Y-83865000D01*
X102530000Y-85135000D02*
X103165000Y-85770000D01*
X56175000Y-93390000D02*
X56810000Y-94025000D01*
X56810000Y-94025000D02*
X56810000Y-95295000D01*
X56810000Y-95295000D02*
X56175000Y-95930000D01*
X56175000Y-95930000D02*
X56810000Y-96565000D01*
X56810000Y-96565000D02*
X56810000Y-97835000D01*
X56810000Y-97835000D02*
X56175000Y-98470000D01*
X54270000Y-95295000D02*
X54270000Y-94025000D01*
X54270000Y-94025000D02*
X54905000Y-93390000D01*
X56175000Y-98470000D02*
X54905000Y-98470000D01*
X54905000Y-98470000D02*
X54270000Y-97835000D01*
X54270000Y-97835000D02*
X54270000Y-96565000D01*
X54270000Y-96565000D02*
X54905000Y-95930000D01*
X54905000Y-95930000D02*
X54270000Y-95295000D01*
X54905000Y-111170000D02*
X54270000Y-111805000D01*
X54270000Y-111805000D02*
X54270000Y-113075000D01*
X54270000Y-113075000D02*
X54905000Y-113710000D01*
X56810000Y-106725000D02*
X56175000Y-106090000D01*
X56175000Y-106090000D02*
X56810000Y-105455000D01*
X56810000Y-105455000D02*
X56810000Y-104185000D01*
X56810000Y-104185000D02*
X56175000Y-103550000D01*
X56175000Y-103550000D02*
X56810000Y-102915000D01*
X56810000Y-102915000D02*
X56810000Y-101645000D01*
X56810000Y-101645000D02*
X56175000Y-101010000D01*
X56175000Y-101010000D02*
X54905000Y-101010000D01*
X54905000Y-101010000D02*
X54270000Y-101645000D01*
X54270000Y-101645000D02*
X54270000Y-102915000D01*
X54270000Y-102915000D02*
X54905000Y-103550000D01*
X54905000Y-103550000D02*
X54270000Y-104185000D01*
X54270000Y-104185000D02*
X54270000Y-105455000D01*
X54270000Y-105455000D02*
X54905000Y-106090000D01*
X54905000Y-106090000D02*
X54270000Y-106725000D01*
X54270000Y-106725000D02*
X54270000Y-107995000D01*
X54270000Y-107995000D02*
X54905000Y-108630000D01*
X56175000Y-113710000D02*
X56810000Y-113075000D01*
X56810000Y-113075000D02*
X56810000Y-111805000D01*
X56810000Y-111805000D02*
X56175000Y-111170000D01*
X56175000Y-108630000D02*
X56810000Y-107995000D01*
X56810000Y-107995000D02*
X56810000Y-106725000D01*
X103165000Y-103550000D02*
X104435000Y-103550000D01*
D14*
X110330000Y-80480000D02*
X110330000Y-75340000D01*
X110330000Y-75340000D02*
X107670000Y-75340000D01*
X107670000Y-75340000D02*
X107670000Y-80480000D01*
X107670000Y-80480000D02*
X110330000Y-80480000D01*
X110330000Y-81750000D02*
X110330000Y-83080000D01*
X110330000Y-83080000D02*
X109000000Y-83080000D01*
X50820000Y-94700000D02*
X50820000Y-93700000D01*
X52180000Y-93700000D02*
X52180000Y-94700000D01*
X50834580Y-103411994D02*
X50834580Y-102411994D01*
X52194580Y-102411994D02*
X52194580Y-103411994D01*
X50861598Y-112303572D02*
X50861598Y-111303572D01*
X52221598Y-111303572D02*
X52221598Y-112303572D01*
X52180000Y-98050000D02*
X52180000Y-99050000D01*
X50820000Y-99050000D02*
X50820000Y-98050000D01*
X52194580Y-106811994D02*
X52194580Y-107811994D01*
X50834580Y-107811994D02*
X50834580Y-106811994D01*
X52221598Y-115953572D02*
X52221598Y-116953572D01*
X50861598Y-116953572D02*
X50861598Y-115953572D01*
D13*
X50546000Y-50292000D02*
X61214000Y-50292000D01*
X50546000Y-75184000D02*
X50546000Y-50292000D01*
X61214000Y-75184000D02*
X50546000Y-75184000D01*
X61214000Y-50292000D02*
X61214000Y-75184000D01*
D14*
X54670000Y-145288000D02*
X54670000Y-137608000D01*
X54670000Y-137608000D02*
X52010000Y-137608000D01*
X52010000Y-137608000D02*
X52010000Y-145288000D01*
X52010000Y-145288000D02*
X54670000Y-145288000D01*
X54670000Y-146558000D02*
X54670000Y-147888000D01*
X54670000Y-147888000D02*
X53340000Y-147888000D01*
M02*
