G04 #@! TF.FileFunction,Copper,L1,Top,Signal*
%FSLAX46Y46*%
G04 Gerber Fmt 4.6, Leading zero omitted, Abs format (unit mm)*
G04 Created by KiCad (PCBNEW 4.0.5) date 03/14/17 11:21:07*
%MOMM*%
%LPD*%
G01*
G04 APERTURE LIST*
%ADD10C,0.100000*%
%ADD11O,2.032000X1.727200*%
%ADD12R,1.700000X1.200000*%
%ADD13O,1.700000X1.200000*%
%ADD14C,1.200000*%
%ADD15C,1.524000*%
%ADD16R,1.700000X1.700000*%
%ADD17O,1.700000X1.700000*%
%ADD18C,1.600000*%
%ADD19O,1.600000X1.600000*%
%ADD20R,0.900000X1.200000*%
%ADD21C,0.600000*%
%ADD22C,0.800000*%
%ADD23C,0.250000*%
%ADD24C,0.254000*%
G04 APERTURE END LIST*
D10*
D11*
X59620000Y-64920000D03*
X59620000Y-67460000D03*
X59620000Y-70000000D03*
X57080000Y-62380000D03*
X54540000Y-62380000D03*
X52000000Y-64920000D03*
X52000000Y-67460000D03*
X52000000Y-70000000D03*
D12*
X53000000Y-145500000D03*
D13*
X53000000Y-143500000D03*
X53000000Y-141500000D03*
X53000000Y-139500000D03*
D14*
X82670000Y-141240000D03*
X82670000Y-138700000D03*
X82670000Y-136160000D03*
X82670000Y-133620000D03*
X62350000Y-131080000D03*
X82670000Y-131080000D03*
X62350000Y-128540000D03*
X82670000Y-128540000D03*
X62350000Y-126000000D03*
X82670000Y-126000000D03*
X62350000Y-123460000D03*
X82670000Y-123460000D03*
X62350000Y-120920000D03*
X82670000Y-120920000D03*
X62350000Y-118380000D03*
X82670000Y-118380000D03*
X62350000Y-115840000D03*
X82670000Y-115840000D03*
X62350000Y-113300000D03*
X82670000Y-113300000D03*
X62350000Y-110760000D03*
X82670000Y-110760000D03*
X62350000Y-108220000D03*
X82670000Y-108220000D03*
X62350000Y-105680000D03*
X82670000Y-105680000D03*
X62350000Y-103140000D03*
X82670000Y-103140000D03*
D15*
X65000000Y-74660000D03*
X65000000Y-72120000D03*
X100560000Y-72120000D03*
X100560000Y-74660000D03*
D14*
X109160000Y-141250000D03*
X109160000Y-138710000D03*
X109160000Y-136170000D03*
X109160000Y-133630000D03*
X88840000Y-131090000D03*
X109160000Y-131090000D03*
X88840000Y-128550000D03*
X109160000Y-128550000D03*
X88840000Y-126010000D03*
X109160000Y-126010000D03*
X88840000Y-123470000D03*
X109160000Y-123470000D03*
X88840000Y-120930000D03*
X109160000Y-120930000D03*
X88840000Y-118390000D03*
X109160000Y-118390000D03*
X88840000Y-115850000D03*
X109160000Y-115850000D03*
X88840000Y-113310000D03*
X109160000Y-113310000D03*
X88840000Y-110770000D03*
X109160000Y-110770000D03*
X88840000Y-108230000D03*
X109160000Y-108230000D03*
X88840000Y-105690000D03*
X109160000Y-105690000D03*
X88840000Y-103150000D03*
X109160000Y-103150000D03*
D16*
X109000000Y-58170000D03*
D17*
X109000000Y-60710000D03*
X109000000Y-63250000D03*
X109000000Y-65790000D03*
X109000000Y-68330000D03*
D18*
X85750000Y-136620000D03*
D19*
X85750000Y-129000000D03*
D14*
X55500000Y-125250000D03*
X55500000Y-127790000D03*
X55500000Y-130330000D03*
X55500000Y-132870000D03*
D15*
X55540000Y-84500000D03*
X55540000Y-87040000D03*
X55540000Y-89580000D03*
X55540000Y-97200000D03*
X55540000Y-94660000D03*
X55540000Y-92120000D03*
X55540000Y-102280000D03*
X55540000Y-104820000D03*
X55540000Y-107360000D03*
X55540000Y-112440000D03*
X55540000Y-114980000D03*
X103800000Y-84500000D03*
X103800000Y-87040000D03*
X103800000Y-89580000D03*
X103800000Y-92120000D03*
X103800000Y-94660000D03*
X103800000Y-97200000D03*
X103800000Y-99740000D03*
X103800000Y-102280000D03*
X103800000Y-106344000D03*
X103800000Y-108884000D03*
X103800000Y-111424000D03*
X103800000Y-113964000D03*
X103800000Y-116504000D03*
X103800000Y-119044000D03*
X103800000Y-121584000D03*
X103800000Y-124124000D03*
X55540000Y-109900000D03*
X103800000Y-126664000D03*
X103800000Y-129204000D03*
X55540000Y-117520000D03*
X55540000Y-120060000D03*
D16*
X109000000Y-81750000D03*
D17*
X109000000Y-79210000D03*
X109000000Y-76670000D03*
D20*
X51500000Y-93100000D03*
X51500000Y-95300000D03*
X51514580Y-101811994D03*
X51514580Y-104011994D03*
X51541598Y-110703572D03*
X51541598Y-112903572D03*
X51500000Y-99650000D03*
X51500000Y-97450000D03*
X51514580Y-108411994D03*
X51514580Y-106211994D03*
X51541598Y-117553572D03*
X51541598Y-115353572D03*
D16*
X59750000Y-54500000D03*
D17*
X59750000Y-51960000D03*
D21*
X77910000Y-100750000D03*
X76500000Y-100750000D03*
X106000000Y-70000000D03*
X82323762Y-98500000D03*
X96699990Y-112392040D03*
X95600000Y-113800000D03*
X84250000Y-114500000D03*
D22*
X54540000Y-62380000D02*
X54540000Y-58060000D01*
X54540000Y-58060000D02*
X58100000Y-54500000D01*
X58100000Y-54500000D02*
X59750000Y-54500000D01*
X65000000Y-74660000D02*
X63537999Y-73197999D01*
X63537999Y-73197999D02*
X63537999Y-66474321D01*
X63537999Y-66474321D02*
X59443678Y-62380000D01*
X59443678Y-62380000D02*
X57080000Y-62380000D01*
X100560000Y-74660000D02*
X100560000Y-78100000D01*
X100560000Y-78100000D02*
X77910000Y-100750000D01*
X76500000Y-100750000D02*
X77910000Y-100750000D01*
X76500000Y-100750000D02*
X76500000Y-102250000D01*
X76500000Y-102250000D02*
X76500000Y-111850000D01*
X55500000Y-130330000D02*
X59830000Y-126000000D01*
X59830000Y-126000000D02*
X62350000Y-126000000D01*
X76500000Y-111850000D02*
X62350000Y-126000000D01*
D23*
X62350000Y-103140000D02*
X62350000Y-67497600D01*
X62350000Y-67497600D02*
X59772400Y-64920000D01*
X59772400Y-64920000D02*
X59620000Y-64920000D01*
X59620000Y-67460000D02*
X58354000Y-67460000D01*
X58354000Y-67460000D02*
X58178990Y-67635010D01*
X58178990Y-67635010D02*
X58178990Y-101508990D01*
X58178990Y-101508990D02*
X61750001Y-105080001D01*
X61750001Y-105080001D02*
X62350000Y-105680000D01*
X82670000Y-120920000D02*
X70720000Y-132870000D01*
X70720000Y-132870000D02*
X55500000Y-132870000D01*
X87514999Y-127224999D02*
X87514999Y-123224999D01*
X87514999Y-123224999D02*
X82670000Y-118380000D01*
X85750000Y-129000000D02*
X86549999Y-128200001D01*
X86549999Y-128200001D02*
X86549999Y-128189999D01*
X86549999Y-128189999D02*
X87514999Y-127224999D01*
X88840000Y-128550000D02*
X87514999Y-127224999D01*
X53000000Y-145500000D02*
X52750000Y-145500000D01*
X53000000Y-143500000D02*
X52750000Y-143500000D01*
D22*
X106000000Y-70000000D02*
X106000000Y-59520000D01*
X106000000Y-59520000D02*
X107350000Y-58170000D01*
X107350000Y-58170000D02*
X109000000Y-58170000D01*
X106000000Y-70000000D02*
X106000000Y-73500000D01*
X106000000Y-74823762D02*
X106000000Y-73924264D01*
X106000000Y-73924264D02*
X106000000Y-73500000D01*
X82323762Y-98500000D02*
X106000000Y-74823762D01*
D23*
X109759999Y-107630001D02*
X109160000Y-108230000D01*
X110185001Y-90885001D02*
X110185001Y-107204999D01*
X103800000Y-84500000D02*
X110185001Y-90885001D01*
X110185001Y-107204999D02*
X109759999Y-107630001D01*
X104561999Y-87801999D02*
X103800000Y-87040000D01*
X107834999Y-91074999D02*
X104561999Y-87801999D01*
X107834999Y-104364999D02*
X107834999Y-91074999D01*
X109160000Y-105690000D02*
X107834999Y-104364999D01*
X88840000Y-108230000D02*
X98400000Y-98670000D01*
X98400000Y-98670000D02*
X98400000Y-94980000D01*
X98400000Y-94980000D02*
X103800000Y-89580000D01*
X103800000Y-92120000D02*
X102312999Y-93607001D01*
X102312999Y-93607001D02*
X102312999Y-97297001D01*
X89439999Y-110170001D02*
X88840000Y-110770000D01*
X102312999Y-97297001D02*
X89439999Y-110170001D01*
X102410000Y-99740000D02*
X103800000Y-99740000D01*
X88840000Y-113310000D02*
X102410000Y-99740000D01*
X103800000Y-102280000D02*
X102220000Y-102280000D01*
X102220000Y-102280000D02*
X92750000Y-111750000D01*
X92750000Y-111750000D02*
X92750000Y-117020000D01*
X92750000Y-117020000D02*
X89439999Y-120330001D01*
X88840000Y-120930000D02*
X89439999Y-120330001D01*
X89439999Y-120330001D02*
X89439999Y-120310001D01*
X94250000Y-118908528D02*
X94250000Y-112980000D01*
X94250000Y-112980000D02*
X100886000Y-106344000D01*
X88840000Y-123470000D02*
X89688528Y-123470000D01*
X89688528Y-123470000D02*
X94250000Y-118908528D01*
X100886000Y-106344000D02*
X103800000Y-106344000D01*
X109000000Y-72990502D02*
X109000000Y-68330000D01*
X88840000Y-93150502D02*
X109000000Y-72990502D01*
X88840000Y-103150000D02*
X88840000Y-93150502D01*
X96699990Y-119563990D02*
X96699990Y-112816304D01*
X96699990Y-112816304D02*
X96699990Y-112392040D01*
X103800000Y-126664000D02*
X96699990Y-119563990D01*
X110575001Y-72193333D02*
X110575001Y-67365001D01*
X110575001Y-67365001D02*
X109000000Y-65790000D01*
X90165001Y-104364999D02*
X90165001Y-92603333D01*
X88840000Y-105690000D02*
X90165001Y-104364999D01*
X90165001Y-92603333D02*
X110575001Y-72193333D01*
X103800000Y-129204000D02*
X95600000Y-121004000D01*
X95600000Y-121004000D02*
X95600000Y-113800000D01*
X87640000Y-118390000D02*
X84250000Y-115000000D01*
X84250000Y-115000000D02*
X84250000Y-114500000D01*
X88840000Y-118390000D02*
X87640000Y-118390000D01*
X84250000Y-112500000D02*
X84250000Y-109800000D01*
X84250000Y-109800000D02*
X83269999Y-108819999D01*
X87600000Y-115850000D02*
X84250000Y-112500000D01*
X88840000Y-115850000D02*
X87600000Y-115850000D01*
X83269999Y-108819999D02*
X82670000Y-108220000D01*
X111250000Y-80257919D02*
X111250000Y-123920000D01*
X111250000Y-123920000D02*
X110735012Y-124434988D01*
X109000000Y-79210000D02*
X110202081Y-79210000D01*
X110202081Y-79210000D02*
X111250000Y-80257919D01*
X109160000Y-126010000D02*
X110735012Y-124434988D01*
X51500000Y-95300000D02*
X51500000Y-97450000D01*
X51514580Y-104011994D02*
X51514580Y-106211994D01*
X51541598Y-115353572D02*
X51541598Y-112903572D01*
X55542168Y-99650000D02*
X59000000Y-103107832D01*
X51500000Y-99650000D02*
X55542168Y-99650000D01*
X61750001Y-107620001D02*
X62350000Y-108220000D01*
X59000000Y-103107832D02*
X59000000Y-104870000D01*
X59000000Y-104870000D02*
X61750001Y-107620001D01*
X62350000Y-110760000D02*
X61501472Y-110760000D01*
X61501472Y-110760000D02*
X61174471Y-111087001D01*
X52214580Y-108411994D02*
X51514580Y-108411994D01*
X61174471Y-111087001D02*
X54889587Y-111087001D01*
X54889587Y-111087001D02*
X52214580Y-108411994D01*
X51541598Y-117553572D02*
X52241598Y-117553572D01*
X52241598Y-117553572D02*
X53628169Y-116167001D01*
X53628169Y-116167001D02*
X59482999Y-116167001D01*
X59482999Y-116167001D02*
X61750001Y-113899999D01*
X61750001Y-113899999D02*
X62350000Y-113300000D01*
D22*
X65000000Y-72120000D02*
X65000000Y-56007919D01*
X65000000Y-56007919D02*
X60952081Y-51960000D01*
X60952081Y-51960000D02*
X59750000Y-51960000D01*
D24*
G36*
X111594800Y-79822073D02*
X110592404Y-78819677D01*
X110413323Y-78700018D01*
X110202081Y-78658000D01*
X110162508Y-78658000D01*
X109927993Y-78307025D01*
X109513705Y-78030206D01*
X109060209Y-77940000D01*
X109513705Y-77849794D01*
X109927993Y-77572975D01*
X110204812Y-77158687D01*
X110302018Y-76670000D01*
X110204812Y-76181313D01*
X109927993Y-75767025D01*
X109513705Y-75490206D01*
X109025018Y-75393000D01*
X108974982Y-75393000D01*
X108486295Y-75490206D01*
X108072007Y-75767025D01*
X107795188Y-76181313D01*
X107697982Y-76670000D01*
X107795188Y-77158687D01*
X108072007Y-77572975D01*
X108486295Y-77849794D01*
X108939791Y-77940000D01*
X108486295Y-78030206D01*
X108072007Y-78307025D01*
X107795188Y-78721313D01*
X107697982Y-79210000D01*
X107795188Y-79698687D01*
X108072007Y-80112975D01*
X108299528Y-80265000D01*
X108023691Y-80265000D01*
X107790302Y-80361673D01*
X107611673Y-80540301D01*
X107515000Y-80773690D01*
X107515000Y-81464250D01*
X107673750Y-81623000D01*
X108873000Y-81623000D01*
X108873000Y-81603000D01*
X109127000Y-81603000D01*
X109127000Y-81623000D01*
X110326250Y-81623000D01*
X110485000Y-81464250D01*
X110485000Y-80773690D01*
X110388327Y-80540301D01*
X110209698Y-80361673D01*
X109976309Y-80265000D01*
X109700472Y-80265000D01*
X109927993Y-80112975D01*
X110086776Y-79875341D01*
X110698000Y-80486565D01*
X110698000Y-90688928D01*
X110694983Y-90673760D01*
X110694983Y-90673759D01*
X110575324Y-90494678D01*
X104938737Y-84858091D01*
X104988793Y-84737544D01*
X104989206Y-84264531D01*
X104808573Y-83827365D01*
X104474394Y-83492603D01*
X104037544Y-83311207D01*
X103564531Y-83310794D01*
X103127365Y-83491427D01*
X102792603Y-83825606D01*
X102611207Y-84262456D01*
X102610794Y-84735469D01*
X102791427Y-85172635D01*
X103125606Y-85507397D01*
X103562456Y-85688793D01*
X104035469Y-85689206D01*
X104157951Y-85638597D01*
X109633001Y-91113647D01*
X109633001Y-102234389D01*
X109365179Y-102123179D01*
X108956613Y-102122822D01*
X108579011Y-102278844D01*
X108386999Y-102470522D01*
X108386999Y-91074999D01*
X108358315Y-90930794D01*
X108344981Y-90863757D01*
X108225322Y-90684676D01*
X104938737Y-87398091D01*
X104988793Y-87277544D01*
X104989206Y-86804531D01*
X104808573Y-86367365D01*
X104474394Y-86032603D01*
X104037544Y-85851207D01*
X103564531Y-85850794D01*
X103127365Y-86031427D01*
X102792603Y-86365606D01*
X102611207Y-86802456D01*
X102610794Y-87275469D01*
X102791427Y-87712635D01*
X103125606Y-88047397D01*
X103562456Y-88228793D01*
X104035469Y-88229206D01*
X104157951Y-88178597D01*
X107282999Y-91303645D01*
X107282999Y-104364999D01*
X107325017Y-104576241D01*
X107444676Y-104755322D01*
X108145207Y-105455853D01*
X108133179Y-105484821D01*
X108132822Y-105893387D01*
X108288844Y-106270989D01*
X108577492Y-106560140D01*
X108954821Y-106716821D01*
X109363387Y-106717178D01*
X109633001Y-106605776D01*
X109633001Y-106976353D01*
X109394147Y-107215207D01*
X109365179Y-107203179D01*
X108956613Y-107202822D01*
X108579011Y-107358844D01*
X108289860Y-107647492D01*
X108133179Y-108024821D01*
X108132822Y-108433387D01*
X108288844Y-108810989D01*
X108577492Y-109100140D01*
X108954821Y-109256821D01*
X109363387Y-109257178D01*
X109740989Y-109101156D01*
X110030140Y-108812508D01*
X110186821Y-108435179D01*
X110187178Y-108026613D01*
X110174563Y-107996083D01*
X110575324Y-107595322D01*
X110694983Y-107416240D01*
X110698000Y-107401072D01*
X110698000Y-123691354D01*
X109394147Y-124995207D01*
X109365179Y-124983179D01*
X108956613Y-124982822D01*
X108579011Y-125138844D01*
X108289860Y-125427492D01*
X108133179Y-125804821D01*
X108132822Y-126213387D01*
X108288844Y-126590989D01*
X108577492Y-126880140D01*
X108954821Y-127036821D01*
X109363387Y-127037178D01*
X109740989Y-126881156D01*
X110030140Y-126592508D01*
X110186821Y-126215179D01*
X110187178Y-125806613D01*
X110174563Y-125776083D01*
X111594800Y-124355846D01*
X111594800Y-149594800D01*
X50405200Y-149594800D01*
X50405200Y-139817609D01*
X51556538Y-139817609D01*
X51571714Y-139909376D01*
X51818067Y-140329125D01*
X52206299Y-140622647D01*
X52219758Y-140626151D01*
X51998783Y-140773801D01*
X51776158Y-141106984D01*
X51697982Y-141500000D01*
X51776158Y-141893016D01*
X51998783Y-142226199D01*
X52331966Y-142448824D01*
X52589244Y-142500000D01*
X52331966Y-142551176D01*
X51998783Y-142773801D01*
X51776158Y-143106984D01*
X51697982Y-143500000D01*
X51776158Y-143893016D01*
X51998783Y-144226199D01*
X52331966Y-144448824D01*
X52411453Y-144464635D01*
X52150000Y-144464635D01*
X51991763Y-144494409D01*
X51846433Y-144587927D01*
X51748936Y-144730619D01*
X51714635Y-144900000D01*
X51714635Y-146100000D01*
X51744409Y-146258237D01*
X51837927Y-146403567D01*
X51980619Y-146501064D01*
X52150000Y-146535365D01*
X53850000Y-146535365D01*
X54008237Y-146505591D01*
X54153567Y-146412073D01*
X54251064Y-146269381D01*
X54285365Y-146100000D01*
X54285365Y-144900000D01*
X54255591Y-144741763D01*
X54162073Y-144596433D01*
X54019381Y-144498936D01*
X53850000Y-144464635D01*
X53588547Y-144464635D01*
X53668034Y-144448824D01*
X54001217Y-144226199D01*
X54223842Y-143893016D01*
X54302018Y-143500000D01*
X54223842Y-143106984D01*
X54001217Y-142773801D01*
X53668034Y-142551176D01*
X53410756Y-142500000D01*
X53668034Y-142448824D01*
X54001217Y-142226199D01*
X54223842Y-141893016D01*
X54302018Y-141500000D01*
X54290757Y-141443387D01*
X81642822Y-141443387D01*
X81798844Y-141820989D01*
X82087492Y-142110140D01*
X82464821Y-142266821D01*
X82873387Y-142267178D01*
X83250989Y-142111156D01*
X83540140Y-141822508D01*
X83693412Y-141453387D01*
X108132822Y-141453387D01*
X108288844Y-141830989D01*
X108577492Y-142120140D01*
X108954821Y-142276821D01*
X109363387Y-142277178D01*
X109740989Y-142121156D01*
X110030140Y-141832508D01*
X110186821Y-141455179D01*
X110187178Y-141046613D01*
X110031156Y-140669011D01*
X109742508Y-140379860D01*
X109365179Y-140223179D01*
X108956613Y-140222822D01*
X108579011Y-140378844D01*
X108289860Y-140667492D01*
X108133179Y-141044821D01*
X108132822Y-141453387D01*
X83693412Y-141453387D01*
X83696821Y-141445179D01*
X83697178Y-141036613D01*
X83541156Y-140659011D01*
X83252508Y-140369860D01*
X82875179Y-140213179D01*
X82466613Y-140212822D01*
X82089011Y-140368844D01*
X81799860Y-140657492D01*
X81643179Y-141034821D01*
X81642822Y-141443387D01*
X54290757Y-141443387D01*
X54223842Y-141106984D01*
X54001217Y-140773801D01*
X53780242Y-140626151D01*
X53793701Y-140622647D01*
X54181933Y-140329125D01*
X54428286Y-139909376D01*
X54443462Y-139817609D01*
X54318731Y-139627000D01*
X53127000Y-139627000D01*
X53127000Y-139647000D01*
X52873000Y-139647000D01*
X52873000Y-139627000D01*
X51681269Y-139627000D01*
X51556538Y-139817609D01*
X50405200Y-139817609D01*
X50405200Y-139182391D01*
X51556538Y-139182391D01*
X51681269Y-139373000D01*
X52873000Y-139373000D01*
X52873000Y-138417453D01*
X53127000Y-138417453D01*
X53127000Y-139373000D01*
X54318731Y-139373000D01*
X54443462Y-139182391D01*
X54428286Y-139090624D01*
X54318396Y-138903387D01*
X81642822Y-138903387D01*
X81798844Y-139280989D01*
X82087492Y-139570140D01*
X82464821Y-139726821D01*
X82873387Y-139727178D01*
X83250989Y-139571156D01*
X83540140Y-139282508D01*
X83693412Y-138913387D01*
X108132822Y-138913387D01*
X108288844Y-139290989D01*
X108577492Y-139580140D01*
X108954821Y-139736821D01*
X109363387Y-139737178D01*
X109740989Y-139581156D01*
X110030140Y-139292508D01*
X110186821Y-138915179D01*
X110187178Y-138506613D01*
X110031156Y-138129011D01*
X109742508Y-137839860D01*
X109365179Y-137683179D01*
X108956613Y-137682822D01*
X108579011Y-137838844D01*
X108289860Y-138127492D01*
X108133179Y-138504821D01*
X108132822Y-138913387D01*
X83693412Y-138913387D01*
X83696821Y-138905179D01*
X83697178Y-138496613D01*
X83541156Y-138119011D01*
X83252508Y-137829860D01*
X82875179Y-137673179D01*
X82466613Y-137672822D01*
X82089011Y-137828844D01*
X81799860Y-138117492D01*
X81643179Y-138494821D01*
X81642822Y-138903387D01*
X54318396Y-138903387D01*
X54181933Y-138670875D01*
X53793701Y-138377353D01*
X53322696Y-138254744D01*
X53127000Y-138417453D01*
X52873000Y-138417453D01*
X52677304Y-138254744D01*
X52206299Y-138377353D01*
X51818067Y-138670875D01*
X51571714Y-139090624D01*
X51556538Y-139182391D01*
X50405200Y-139182391D01*
X50405200Y-137627745D01*
X84921861Y-137627745D01*
X84995995Y-137873864D01*
X85533223Y-138066965D01*
X86103454Y-138039778D01*
X86504005Y-137873864D01*
X86578139Y-137627745D01*
X85750000Y-136799605D01*
X84921861Y-137627745D01*
X50405200Y-137627745D01*
X50405200Y-136363387D01*
X81642822Y-136363387D01*
X81798844Y-136740989D01*
X82087492Y-137030140D01*
X82464821Y-137186821D01*
X82873387Y-137187178D01*
X83250989Y-137031156D01*
X83540140Y-136742508D01*
X83681023Y-136403223D01*
X84303035Y-136403223D01*
X84330222Y-136973454D01*
X84496136Y-137374005D01*
X84742255Y-137448139D01*
X85570395Y-136620000D01*
X85929605Y-136620000D01*
X86757745Y-137448139D01*
X87003864Y-137374005D01*
X87196965Y-136836777D01*
X87174872Y-136373387D01*
X108132822Y-136373387D01*
X108288844Y-136750989D01*
X108577492Y-137040140D01*
X108954821Y-137196821D01*
X109363387Y-137197178D01*
X109740989Y-137041156D01*
X110030140Y-136752508D01*
X110186821Y-136375179D01*
X110187178Y-135966613D01*
X110031156Y-135589011D01*
X109742508Y-135299860D01*
X109365179Y-135143179D01*
X108956613Y-135142822D01*
X108579011Y-135298844D01*
X108289860Y-135587492D01*
X108133179Y-135964821D01*
X108132822Y-136373387D01*
X87174872Y-136373387D01*
X87169778Y-136266546D01*
X87003864Y-135865995D01*
X86757745Y-135791861D01*
X85929605Y-136620000D01*
X85570395Y-136620000D01*
X84742255Y-135791861D01*
X84496136Y-135865995D01*
X84303035Y-136403223D01*
X83681023Y-136403223D01*
X83696821Y-136365179D01*
X83697178Y-135956613D01*
X83554893Y-135612255D01*
X84921861Y-135612255D01*
X85750000Y-136440395D01*
X86578139Y-135612255D01*
X86504005Y-135366136D01*
X85966777Y-135173035D01*
X85396546Y-135200222D01*
X84995995Y-135366136D01*
X84921861Y-135612255D01*
X83554893Y-135612255D01*
X83541156Y-135579011D01*
X83252508Y-135289860D01*
X82875179Y-135133179D01*
X82466613Y-135132822D01*
X82089011Y-135288844D01*
X81799860Y-135577492D01*
X81643179Y-135954821D01*
X81642822Y-136363387D01*
X50405200Y-136363387D01*
X50405200Y-134482735D01*
X81986870Y-134482735D01*
X82036383Y-134708164D01*
X82501036Y-134867807D01*
X82991413Y-134837482D01*
X83303617Y-134708164D01*
X83350933Y-134492735D01*
X108476870Y-134492735D01*
X108526383Y-134718164D01*
X108991036Y-134877807D01*
X109481413Y-134847482D01*
X109793617Y-134718164D01*
X109843130Y-134492735D01*
X109160000Y-133809605D01*
X108476870Y-134492735D01*
X83350933Y-134492735D01*
X83353130Y-134482735D01*
X82670000Y-133799605D01*
X81986870Y-134482735D01*
X50405200Y-134482735D01*
X50405200Y-133073387D01*
X54472822Y-133073387D01*
X54628844Y-133450989D01*
X54917492Y-133740140D01*
X55294821Y-133896821D01*
X55703387Y-133897178D01*
X56080989Y-133741156D01*
X56370140Y-133452508D01*
X56370751Y-133451036D01*
X81422193Y-133451036D01*
X81452518Y-133941413D01*
X81581836Y-134253617D01*
X81807265Y-134303130D01*
X82490395Y-133620000D01*
X82849605Y-133620000D01*
X83532735Y-134303130D01*
X83758164Y-134253617D01*
X83917807Y-133788964D01*
X83897528Y-133461036D01*
X107912193Y-133461036D01*
X107942518Y-133951413D01*
X108071836Y-134263617D01*
X108297265Y-134313130D01*
X108980395Y-133630000D01*
X109339605Y-133630000D01*
X110022735Y-134313130D01*
X110248164Y-134263617D01*
X110407807Y-133798964D01*
X110377482Y-133308587D01*
X110248164Y-132996383D01*
X110022735Y-132946870D01*
X109339605Y-133630000D01*
X108980395Y-133630000D01*
X108297265Y-132946870D01*
X108071836Y-132996383D01*
X107912193Y-133461036D01*
X83897528Y-133461036D01*
X83887482Y-133298587D01*
X83758164Y-132986383D01*
X83532735Y-132936870D01*
X82849605Y-133620000D01*
X82490395Y-133620000D01*
X81807265Y-132936870D01*
X81581836Y-132986383D01*
X81422193Y-133451036D01*
X56370751Y-133451036D01*
X56382808Y-133422000D01*
X70720000Y-133422000D01*
X70931242Y-133379982D01*
X71110323Y-133260323D01*
X71613381Y-132757265D01*
X81986870Y-132757265D01*
X82670000Y-133440395D01*
X83343130Y-132767265D01*
X108476870Y-132767265D01*
X109160000Y-133450395D01*
X109843130Y-132767265D01*
X109793617Y-132541836D01*
X109328964Y-132382193D01*
X108838587Y-132412518D01*
X108526383Y-132541836D01*
X108476870Y-132767265D01*
X83343130Y-132767265D01*
X83353130Y-132757265D01*
X83303617Y-132531836D01*
X82838964Y-132372193D01*
X82348587Y-132402518D01*
X82036383Y-132531836D01*
X81986870Y-132757265D01*
X71613381Y-132757265D01*
X73087259Y-131283387D01*
X81642822Y-131283387D01*
X81798844Y-131660989D01*
X82087492Y-131950140D01*
X82464821Y-132106821D01*
X82873387Y-132107178D01*
X83250989Y-131951156D01*
X83540140Y-131662508D01*
X83693412Y-131293387D01*
X87812822Y-131293387D01*
X87968844Y-131670989D01*
X88257492Y-131960140D01*
X88634821Y-132116821D01*
X89043387Y-132117178D01*
X89420989Y-131961156D01*
X89710140Y-131672508D01*
X89866821Y-131295179D01*
X89866822Y-131293387D01*
X108132822Y-131293387D01*
X108288844Y-131670989D01*
X108577492Y-131960140D01*
X108954821Y-132116821D01*
X109363387Y-132117178D01*
X109740989Y-131961156D01*
X110030140Y-131672508D01*
X110186821Y-131295179D01*
X110187178Y-130886613D01*
X110031156Y-130509011D01*
X109742508Y-130219860D01*
X109365179Y-130063179D01*
X108956613Y-130062822D01*
X108579011Y-130218844D01*
X108289860Y-130507492D01*
X108133179Y-130884821D01*
X108132822Y-131293387D01*
X89866822Y-131293387D01*
X89867178Y-130886613D01*
X89711156Y-130509011D01*
X89422508Y-130219860D01*
X89045179Y-130063179D01*
X88636613Y-130062822D01*
X88259011Y-130218844D01*
X87969860Y-130507492D01*
X87813179Y-130884821D01*
X87812822Y-131293387D01*
X83693412Y-131293387D01*
X83696821Y-131285179D01*
X83697178Y-130876613D01*
X83541156Y-130499011D01*
X83252508Y-130209860D01*
X82875179Y-130053179D01*
X82466613Y-130052822D01*
X82089011Y-130208844D01*
X81799860Y-130497492D01*
X81643179Y-130874821D01*
X81642822Y-131283387D01*
X73087259Y-131283387D01*
X75627259Y-128743387D01*
X81642822Y-128743387D01*
X81798844Y-129120989D01*
X82087492Y-129410140D01*
X82464821Y-129566821D01*
X82873387Y-129567178D01*
X83250989Y-129411156D01*
X83540140Y-129122508D01*
X83696821Y-128745179D01*
X83697178Y-128336613D01*
X83541156Y-127959011D01*
X83252508Y-127669860D01*
X82875179Y-127513179D01*
X82466613Y-127512822D01*
X82089011Y-127668844D01*
X81799860Y-127957492D01*
X81643179Y-128334821D01*
X81642822Y-128743387D01*
X75627259Y-128743387D01*
X78167259Y-126203387D01*
X81642822Y-126203387D01*
X81798844Y-126580989D01*
X82087492Y-126870140D01*
X82464821Y-127026821D01*
X82873387Y-127027178D01*
X83250989Y-126871156D01*
X83540140Y-126582508D01*
X83696821Y-126205179D01*
X83697178Y-125796613D01*
X83541156Y-125419011D01*
X83252508Y-125129860D01*
X82875179Y-124973179D01*
X82466613Y-124972822D01*
X82089011Y-125128844D01*
X81799860Y-125417492D01*
X81643179Y-125794821D01*
X81642822Y-126203387D01*
X78167259Y-126203387D01*
X80707259Y-123663387D01*
X81642822Y-123663387D01*
X81798844Y-124040989D01*
X82087492Y-124330140D01*
X82464821Y-124486821D01*
X82873387Y-124487178D01*
X83250989Y-124331156D01*
X83540140Y-124042508D01*
X83696821Y-123665179D01*
X83697178Y-123256613D01*
X83541156Y-122879011D01*
X83252508Y-122589860D01*
X82875179Y-122433179D01*
X82466613Y-122432822D01*
X82089011Y-122588844D01*
X81799860Y-122877492D01*
X81643179Y-123254821D01*
X81642822Y-123663387D01*
X80707259Y-123663387D01*
X82435853Y-121934793D01*
X82464821Y-121946821D01*
X82873387Y-121947178D01*
X83250989Y-121791156D01*
X83540140Y-121502508D01*
X83696821Y-121125179D01*
X83697178Y-120716613D01*
X83541156Y-120339011D01*
X83252508Y-120049860D01*
X82875179Y-119893179D01*
X82466613Y-119892822D01*
X82089011Y-120048844D01*
X81799860Y-120337492D01*
X81643179Y-120714821D01*
X81642822Y-121123387D01*
X81655437Y-121153917D01*
X70491354Y-132318000D01*
X56383134Y-132318000D01*
X56371156Y-132289011D01*
X56082508Y-131999860D01*
X55705179Y-131843179D01*
X55296613Y-131842822D01*
X54919011Y-131998844D01*
X54629860Y-132287492D01*
X54473179Y-132664821D01*
X54472822Y-133073387D01*
X50405200Y-133073387D01*
X50405200Y-130533387D01*
X54472822Y-130533387D01*
X54628844Y-130910989D01*
X54917492Y-131200140D01*
X55294821Y-131356821D01*
X55703387Y-131357178D01*
X55881974Y-131283387D01*
X61322822Y-131283387D01*
X61478844Y-131660989D01*
X61767492Y-131950140D01*
X62144821Y-132106821D01*
X62553387Y-132107178D01*
X62930989Y-131951156D01*
X63220140Y-131662508D01*
X63376821Y-131285179D01*
X63377178Y-130876613D01*
X63221156Y-130499011D01*
X62932508Y-130209860D01*
X62555179Y-130053179D01*
X62146613Y-130052822D01*
X61769011Y-130208844D01*
X61479860Y-130497492D01*
X61323179Y-130874821D01*
X61322822Y-131283387D01*
X55881974Y-131283387D01*
X56080989Y-131201156D01*
X56370140Y-130912508D01*
X56526821Y-130535179D01*
X56526876Y-130472678D01*
X58256167Y-128743387D01*
X61322822Y-128743387D01*
X61478844Y-129120989D01*
X61767492Y-129410140D01*
X62144821Y-129566821D01*
X62553387Y-129567178D01*
X62930989Y-129411156D01*
X63220140Y-129122508D01*
X63376821Y-128745179D01*
X63377178Y-128336613D01*
X63221156Y-127959011D01*
X62932508Y-127669860D01*
X62555179Y-127513179D01*
X62146613Y-127512822D01*
X61769011Y-127668844D01*
X61479860Y-127957492D01*
X61323179Y-128334821D01*
X61322822Y-128743387D01*
X58256167Y-128743387D01*
X60172555Y-126827000D01*
X61724427Y-126827000D01*
X61767492Y-126870140D01*
X62144821Y-127026821D01*
X62553387Y-127027178D01*
X62930989Y-126871156D01*
X63220140Y-126582508D01*
X63376821Y-126205179D01*
X63376876Y-126142678D01*
X70936167Y-118583387D01*
X81642822Y-118583387D01*
X81798844Y-118960989D01*
X82087492Y-119250140D01*
X82464821Y-119406821D01*
X82873387Y-119407178D01*
X82903917Y-119394563D01*
X86962999Y-123453645D01*
X86962999Y-126996353D01*
X86159676Y-127799676D01*
X86141525Y-127826841D01*
X85750000Y-127748962D01*
X85280447Y-127842362D01*
X84882380Y-128108342D01*
X84616400Y-128506409D01*
X84523000Y-128975962D01*
X84523000Y-129024038D01*
X84616400Y-129493591D01*
X84882380Y-129891658D01*
X85280447Y-130157638D01*
X85750000Y-130251038D01*
X86219553Y-130157638D01*
X86617620Y-129891658D01*
X86883600Y-129493591D01*
X86977000Y-129024038D01*
X86977000Y-128975962D01*
X86906933Y-128623713D01*
X86940322Y-128590324D01*
X86960463Y-128560181D01*
X87514999Y-128005645D01*
X87825207Y-128315853D01*
X87813179Y-128344821D01*
X87812822Y-128753387D01*
X87968844Y-129130989D01*
X88257492Y-129420140D01*
X88634821Y-129576821D01*
X89043387Y-129577178D01*
X89420989Y-129421156D01*
X89710140Y-129132508D01*
X89866821Y-128755179D01*
X89867178Y-128346613D01*
X89711156Y-127969011D01*
X89422508Y-127679860D01*
X89045179Y-127523179D01*
X88636613Y-127522822D01*
X88606083Y-127535437D01*
X88066999Y-126996353D01*
X88066999Y-126689315D01*
X88257492Y-126880140D01*
X88634821Y-127036821D01*
X89043387Y-127037178D01*
X89420989Y-126881156D01*
X89710140Y-126592508D01*
X89866821Y-126215179D01*
X89867178Y-125806613D01*
X89711156Y-125429011D01*
X89422508Y-125139860D01*
X89045179Y-124983179D01*
X88636613Y-124982822D01*
X88259011Y-125138844D01*
X88066999Y-125330522D01*
X88066999Y-124149315D01*
X88257492Y-124340140D01*
X88634821Y-124496821D01*
X89043387Y-124497178D01*
X89420989Y-124341156D01*
X89710140Y-124052508D01*
X89725894Y-124014567D01*
X89899770Y-123979982D01*
X90078851Y-123860323D01*
X94640323Y-119298851D01*
X94759982Y-119119769D01*
X94802000Y-118908528D01*
X94802000Y-113943975D01*
X94872874Y-113943975D01*
X94983320Y-114211275D01*
X95048000Y-114276068D01*
X95048000Y-121004000D01*
X95090018Y-121215242D01*
X95209677Y-121394323D01*
X102661263Y-128845909D01*
X102611207Y-128966456D01*
X102610794Y-129439469D01*
X102791427Y-129876635D01*
X103125606Y-130211397D01*
X103562456Y-130392793D01*
X104035469Y-130393206D01*
X104472635Y-130212573D01*
X104807397Y-129878394D01*
X104988793Y-129441544D01*
X104989206Y-128968531D01*
X104900311Y-128753387D01*
X108132822Y-128753387D01*
X108288844Y-129130989D01*
X108577492Y-129420140D01*
X108954821Y-129576821D01*
X109363387Y-129577178D01*
X109740989Y-129421156D01*
X110030140Y-129132508D01*
X110186821Y-128755179D01*
X110187178Y-128346613D01*
X110031156Y-127969011D01*
X109742508Y-127679860D01*
X109365179Y-127523179D01*
X108956613Y-127522822D01*
X108579011Y-127678844D01*
X108289860Y-127967492D01*
X108133179Y-128344821D01*
X108132822Y-128753387D01*
X104900311Y-128753387D01*
X104808573Y-128531365D01*
X104474394Y-128196603D01*
X104037544Y-128015207D01*
X103564531Y-128014794D01*
X103442049Y-128065403D01*
X96152000Y-120775354D01*
X96152000Y-119584150D01*
X96190008Y-119775232D01*
X96309667Y-119954313D01*
X102661263Y-126305909D01*
X102611207Y-126426456D01*
X102610794Y-126899469D01*
X102791427Y-127336635D01*
X103125606Y-127671397D01*
X103562456Y-127852793D01*
X104035469Y-127853206D01*
X104472635Y-127672573D01*
X104807397Y-127338394D01*
X104988793Y-126901544D01*
X104989206Y-126428531D01*
X104808573Y-125991365D01*
X104474394Y-125656603D01*
X104037544Y-125475207D01*
X103564531Y-125474794D01*
X103442049Y-125525403D01*
X102276115Y-124359469D01*
X102610794Y-124359469D01*
X102791427Y-124796635D01*
X103125606Y-125131397D01*
X103562456Y-125312793D01*
X104035469Y-125313206D01*
X104472635Y-125132573D01*
X104807397Y-124798394D01*
X104988793Y-124361544D01*
X104989206Y-123888531D01*
X104900311Y-123673387D01*
X108132822Y-123673387D01*
X108288844Y-124050989D01*
X108577492Y-124340140D01*
X108954821Y-124496821D01*
X109363387Y-124497178D01*
X109740989Y-124341156D01*
X110030140Y-124052508D01*
X110186821Y-123675179D01*
X110187178Y-123266613D01*
X110031156Y-122889011D01*
X109742508Y-122599860D01*
X109365179Y-122443179D01*
X108956613Y-122442822D01*
X108579011Y-122598844D01*
X108289860Y-122887492D01*
X108133179Y-123264821D01*
X108132822Y-123673387D01*
X104900311Y-123673387D01*
X104808573Y-123451365D01*
X104474394Y-123116603D01*
X104037544Y-122935207D01*
X103564531Y-122934794D01*
X103127365Y-123115427D01*
X102792603Y-123449606D01*
X102611207Y-123886456D01*
X102610794Y-124359469D01*
X102276115Y-124359469D01*
X99736115Y-121819469D01*
X102610794Y-121819469D01*
X102791427Y-122256635D01*
X103125606Y-122591397D01*
X103562456Y-122772793D01*
X104035469Y-122773206D01*
X104472635Y-122592573D01*
X104807397Y-122258394D01*
X104988793Y-121821544D01*
X104989206Y-121348531D01*
X104900311Y-121133387D01*
X108132822Y-121133387D01*
X108288844Y-121510989D01*
X108577492Y-121800140D01*
X108954821Y-121956821D01*
X109363387Y-121957178D01*
X109740989Y-121801156D01*
X110030140Y-121512508D01*
X110186821Y-121135179D01*
X110187178Y-120726613D01*
X110031156Y-120349011D01*
X109742508Y-120059860D01*
X109365179Y-119903179D01*
X108956613Y-119902822D01*
X108579011Y-120058844D01*
X108289860Y-120347492D01*
X108133179Y-120724821D01*
X108132822Y-121133387D01*
X104900311Y-121133387D01*
X104808573Y-120911365D01*
X104474394Y-120576603D01*
X104037544Y-120395207D01*
X103564531Y-120394794D01*
X103127365Y-120575427D01*
X102792603Y-120909606D01*
X102611207Y-121346456D01*
X102610794Y-121819469D01*
X99736115Y-121819469D01*
X97251990Y-119335344D01*
X97251990Y-119279469D01*
X102610794Y-119279469D01*
X102791427Y-119716635D01*
X103125606Y-120051397D01*
X103562456Y-120232793D01*
X104035469Y-120233206D01*
X104472635Y-120052573D01*
X104807397Y-119718394D01*
X104988793Y-119281544D01*
X104989206Y-118808531D01*
X104900311Y-118593387D01*
X108132822Y-118593387D01*
X108288844Y-118970989D01*
X108577492Y-119260140D01*
X108954821Y-119416821D01*
X109363387Y-119417178D01*
X109740989Y-119261156D01*
X110030140Y-118972508D01*
X110186821Y-118595179D01*
X110187178Y-118186613D01*
X110031156Y-117809011D01*
X109742508Y-117519860D01*
X109365179Y-117363179D01*
X108956613Y-117362822D01*
X108579011Y-117518844D01*
X108289860Y-117807492D01*
X108133179Y-118184821D01*
X108132822Y-118593387D01*
X104900311Y-118593387D01*
X104808573Y-118371365D01*
X104474394Y-118036603D01*
X104037544Y-117855207D01*
X103564531Y-117854794D01*
X103127365Y-118035427D01*
X102792603Y-118369606D01*
X102611207Y-118806456D01*
X102610794Y-119279469D01*
X97251990Y-119279469D01*
X97251990Y-116739469D01*
X102610794Y-116739469D01*
X102791427Y-117176635D01*
X103125606Y-117511397D01*
X103562456Y-117692793D01*
X104035469Y-117693206D01*
X104472635Y-117512573D01*
X104807397Y-117178394D01*
X104988793Y-116741544D01*
X104989206Y-116268531D01*
X104900311Y-116053387D01*
X108132822Y-116053387D01*
X108288844Y-116430989D01*
X108577492Y-116720140D01*
X108954821Y-116876821D01*
X109363387Y-116877178D01*
X109740989Y-116721156D01*
X110030140Y-116432508D01*
X110186821Y-116055179D01*
X110187178Y-115646613D01*
X110031156Y-115269011D01*
X109742508Y-114979860D01*
X109365179Y-114823179D01*
X108956613Y-114822822D01*
X108579011Y-114978844D01*
X108289860Y-115267492D01*
X108133179Y-115644821D01*
X108132822Y-116053387D01*
X104900311Y-116053387D01*
X104808573Y-115831365D01*
X104474394Y-115496603D01*
X104037544Y-115315207D01*
X103564531Y-115314794D01*
X103127365Y-115495427D01*
X102792603Y-115829606D01*
X102611207Y-116266456D01*
X102610794Y-116739469D01*
X97251990Y-116739469D01*
X97251990Y-114199469D01*
X102610794Y-114199469D01*
X102791427Y-114636635D01*
X103125606Y-114971397D01*
X103562456Y-115152793D01*
X104035469Y-115153206D01*
X104472635Y-114972573D01*
X104807397Y-114638394D01*
X104988793Y-114201544D01*
X104989206Y-113728531D01*
X104900311Y-113513387D01*
X108132822Y-113513387D01*
X108288844Y-113890989D01*
X108577492Y-114180140D01*
X108954821Y-114336821D01*
X109363387Y-114337178D01*
X109740989Y-114181156D01*
X110030140Y-113892508D01*
X110186821Y-113515179D01*
X110187178Y-113106613D01*
X110031156Y-112729011D01*
X109742508Y-112439860D01*
X109365179Y-112283179D01*
X108956613Y-112282822D01*
X108579011Y-112438844D01*
X108289860Y-112727492D01*
X108133179Y-113104821D01*
X108132822Y-113513387D01*
X104900311Y-113513387D01*
X104808573Y-113291365D01*
X104474394Y-112956603D01*
X104037544Y-112775207D01*
X103564531Y-112774794D01*
X103127365Y-112955427D01*
X102792603Y-113289606D01*
X102611207Y-113726456D01*
X102610794Y-114199469D01*
X97251990Y-114199469D01*
X97251990Y-112868240D01*
X97315951Y-112804390D01*
X97426864Y-112537284D01*
X97427116Y-112248065D01*
X97316670Y-111980765D01*
X97112340Y-111776079D01*
X96845234Y-111665166D01*
X96556015Y-111664914D01*
X96288715Y-111775360D01*
X96084029Y-111979690D01*
X95973116Y-112246796D01*
X95972864Y-112536015D01*
X96083310Y-112803315D01*
X96147990Y-112868108D01*
X96147990Y-113319915D01*
X96012350Y-113184039D01*
X95745244Y-113073126D01*
X95456025Y-113072874D01*
X95188725Y-113183320D01*
X94984039Y-113387650D01*
X94873126Y-113654756D01*
X94872874Y-113943975D01*
X94802000Y-113943975D01*
X94802000Y-113208646D01*
X96351177Y-111659469D01*
X102610794Y-111659469D01*
X102791427Y-112096635D01*
X103125606Y-112431397D01*
X103562456Y-112612793D01*
X104035469Y-112613206D01*
X104472635Y-112432573D01*
X104807397Y-112098394D01*
X104988793Y-111661544D01*
X104989206Y-111188531D01*
X104900311Y-110973387D01*
X108132822Y-110973387D01*
X108288844Y-111350989D01*
X108577492Y-111640140D01*
X108954821Y-111796821D01*
X109363387Y-111797178D01*
X109740989Y-111641156D01*
X110030140Y-111352508D01*
X110186821Y-110975179D01*
X110187178Y-110566613D01*
X110031156Y-110189011D01*
X109742508Y-109899860D01*
X109365179Y-109743179D01*
X108956613Y-109742822D01*
X108579011Y-109898844D01*
X108289860Y-110187492D01*
X108133179Y-110564821D01*
X108132822Y-110973387D01*
X104900311Y-110973387D01*
X104808573Y-110751365D01*
X104474394Y-110416603D01*
X104037544Y-110235207D01*
X103564531Y-110234794D01*
X103127365Y-110415427D01*
X102792603Y-110749606D01*
X102611207Y-111186456D01*
X102610794Y-111659469D01*
X96351177Y-111659469D01*
X98891177Y-109119469D01*
X102610794Y-109119469D01*
X102791427Y-109556635D01*
X103125606Y-109891397D01*
X103562456Y-110072793D01*
X104035469Y-110073206D01*
X104472635Y-109892573D01*
X104807397Y-109558394D01*
X104988793Y-109121544D01*
X104989206Y-108648531D01*
X104808573Y-108211365D01*
X104474394Y-107876603D01*
X104037544Y-107695207D01*
X103564531Y-107694794D01*
X103127365Y-107875427D01*
X102792603Y-108209606D01*
X102611207Y-108646456D01*
X102610794Y-109119469D01*
X98891177Y-109119469D01*
X101114646Y-106896000D01*
X102741582Y-106896000D01*
X102791427Y-107016635D01*
X103125606Y-107351397D01*
X103562456Y-107532793D01*
X104035469Y-107533206D01*
X104472635Y-107352573D01*
X104807397Y-107018394D01*
X104988793Y-106581544D01*
X104989206Y-106108531D01*
X104808573Y-105671365D01*
X104474394Y-105336603D01*
X104037544Y-105155207D01*
X103564531Y-105154794D01*
X103127365Y-105335427D01*
X102792603Y-105669606D01*
X102741781Y-105792000D01*
X100886000Y-105792000D01*
X100674758Y-105834018D01*
X100495677Y-105953677D01*
X93859677Y-112589677D01*
X93740018Y-112768758D01*
X93730561Y-112816304D01*
X93698000Y-112980000D01*
X93698000Y-118679882D01*
X89600110Y-122777772D01*
X89422508Y-122599860D01*
X89045179Y-122443179D01*
X88636613Y-122442822D01*
X88259011Y-122598844D01*
X87969860Y-122887492D01*
X87958650Y-122914488D01*
X87905322Y-122834676D01*
X86204033Y-121133387D01*
X87812822Y-121133387D01*
X87968844Y-121510989D01*
X88257492Y-121800140D01*
X88634821Y-121956821D01*
X89043387Y-121957178D01*
X89420989Y-121801156D01*
X89710140Y-121512508D01*
X89866821Y-121135179D01*
X89867178Y-120726613D01*
X89854563Y-120696083D01*
X93140323Y-117410323D01*
X93185754Y-117342331D01*
X93259982Y-117231241D01*
X93302000Y-117020000D01*
X93302000Y-111978646D01*
X102448646Y-102832000D01*
X102741582Y-102832000D01*
X102791427Y-102952635D01*
X103125606Y-103287397D01*
X103562456Y-103468793D01*
X104035469Y-103469206D01*
X104472635Y-103288573D01*
X104807397Y-102954394D01*
X104988793Y-102517544D01*
X104989206Y-102044531D01*
X104808573Y-101607365D01*
X104474394Y-101272603D01*
X104037544Y-101091207D01*
X103564531Y-101090794D01*
X103127365Y-101271427D01*
X102792603Y-101605606D01*
X102741781Y-101728000D01*
X102220000Y-101728000D01*
X102008759Y-101770018D01*
X102008757Y-101770019D01*
X102008758Y-101770019D01*
X101829677Y-101889677D01*
X92359677Y-111359677D01*
X92240018Y-111538758D01*
X92215595Y-111661544D01*
X92198000Y-111750000D01*
X92198000Y-116791354D01*
X89109950Y-119879404D01*
X89063181Y-119910654D01*
X89045179Y-119903179D01*
X88636613Y-119902822D01*
X88259011Y-120058844D01*
X87969860Y-120347492D01*
X87813179Y-120724821D01*
X87812822Y-121133387D01*
X86204033Y-121133387D01*
X83684793Y-118614147D01*
X83696821Y-118585179D01*
X83697178Y-118176613D01*
X83541156Y-117799011D01*
X83252508Y-117509860D01*
X82875179Y-117353179D01*
X82466613Y-117352822D01*
X82089011Y-117508844D01*
X81799860Y-117797492D01*
X81643179Y-118174821D01*
X81642822Y-118583387D01*
X70936167Y-118583387D01*
X73476167Y-116043387D01*
X81642822Y-116043387D01*
X81798844Y-116420989D01*
X82087492Y-116710140D01*
X82464821Y-116866821D01*
X82873387Y-116867178D01*
X83250989Y-116711156D01*
X83540140Y-116422508D01*
X83696821Y-116045179D01*
X83697178Y-115636613D01*
X83541156Y-115259011D01*
X83252508Y-114969860D01*
X82875179Y-114813179D01*
X82466613Y-114812822D01*
X82089011Y-114968844D01*
X81799860Y-115257492D01*
X81643179Y-115634821D01*
X81642822Y-116043387D01*
X73476167Y-116043387D01*
X74875579Y-114643975D01*
X83522874Y-114643975D01*
X83633320Y-114911275D01*
X83698000Y-114976068D01*
X83698000Y-115000000D01*
X83740018Y-115211242D01*
X83859677Y-115390323D01*
X87249677Y-118780323D01*
X87428758Y-118899982D01*
X87640000Y-118942000D01*
X87956866Y-118942000D01*
X87968844Y-118970989D01*
X88257492Y-119260140D01*
X88634821Y-119416821D01*
X89043387Y-119417178D01*
X89420989Y-119261156D01*
X89710140Y-118972508D01*
X89866821Y-118595179D01*
X89867178Y-118186613D01*
X89711156Y-117809011D01*
X89422508Y-117519860D01*
X89045179Y-117363179D01*
X88636613Y-117362822D01*
X88259011Y-117518844D01*
X87969860Y-117807492D01*
X87957192Y-117838000D01*
X87868646Y-117838000D01*
X84888564Y-114857918D01*
X84976874Y-114645244D01*
X84977126Y-114356025D01*
X84866680Y-114088725D01*
X84662350Y-113884039D01*
X84395244Y-113773126D01*
X84106025Y-113772874D01*
X83838725Y-113883320D01*
X83634039Y-114087650D01*
X83523126Y-114354756D01*
X83522874Y-114643975D01*
X74875579Y-114643975D01*
X76016167Y-113503387D01*
X81642822Y-113503387D01*
X81798844Y-113880989D01*
X82087492Y-114170140D01*
X82464821Y-114326821D01*
X82873387Y-114327178D01*
X83250989Y-114171156D01*
X83540140Y-113882508D01*
X83696821Y-113505179D01*
X83697178Y-113096613D01*
X83541156Y-112719011D01*
X83252508Y-112429860D01*
X82875179Y-112273179D01*
X82466613Y-112272822D01*
X82089011Y-112428844D01*
X81799860Y-112717492D01*
X81643179Y-113094821D01*
X81642822Y-113503387D01*
X76016167Y-113503387D01*
X77084777Y-112434777D01*
X77264048Y-112166479D01*
X77327000Y-111850000D01*
X77327000Y-110963387D01*
X81642822Y-110963387D01*
X81798844Y-111340989D01*
X82087492Y-111630140D01*
X82464821Y-111786821D01*
X82873387Y-111787178D01*
X83250989Y-111631156D01*
X83540140Y-111342508D01*
X83696821Y-110965179D01*
X83697178Y-110556613D01*
X83541156Y-110179011D01*
X83252508Y-109889860D01*
X82875179Y-109733179D01*
X82466613Y-109732822D01*
X82089011Y-109888844D01*
X81799860Y-110177492D01*
X81643179Y-110554821D01*
X81642822Y-110963387D01*
X77327000Y-110963387D01*
X77327000Y-108423387D01*
X81642822Y-108423387D01*
X81798844Y-108800989D01*
X82087492Y-109090140D01*
X82464821Y-109246821D01*
X82873387Y-109247178D01*
X82903917Y-109234563D01*
X83698000Y-110028646D01*
X83698000Y-112500000D01*
X83740018Y-112711242D01*
X83859677Y-112890323D01*
X87209677Y-116240323D01*
X87388759Y-116359982D01*
X87600000Y-116402000D01*
X87956866Y-116402000D01*
X87968844Y-116430989D01*
X88257492Y-116720140D01*
X88634821Y-116876821D01*
X89043387Y-116877178D01*
X89420989Y-116721156D01*
X89710140Y-116432508D01*
X89866821Y-116055179D01*
X89867178Y-115646613D01*
X89711156Y-115269011D01*
X89422508Y-114979860D01*
X89045179Y-114823179D01*
X88636613Y-114822822D01*
X88259011Y-114978844D01*
X87969860Y-115267492D01*
X87957192Y-115298000D01*
X87828646Y-115298000D01*
X86044033Y-113513387D01*
X87812822Y-113513387D01*
X87968844Y-113890989D01*
X88257492Y-114180140D01*
X88634821Y-114336821D01*
X89043387Y-114337178D01*
X89420989Y-114181156D01*
X89710140Y-113892508D01*
X89866821Y-113515179D01*
X89867178Y-113106613D01*
X89854563Y-113076083D01*
X102638646Y-100292000D01*
X102741582Y-100292000D01*
X102791427Y-100412635D01*
X103125606Y-100747397D01*
X103562456Y-100928793D01*
X104035469Y-100929206D01*
X104472635Y-100748573D01*
X104807397Y-100414394D01*
X104988793Y-99977544D01*
X104989206Y-99504531D01*
X104808573Y-99067365D01*
X104474394Y-98732603D01*
X104037544Y-98551207D01*
X103564531Y-98550794D01*
X103127365Y-98731427D01*
X102792603Y-99065606D01*
X102741781Y-99188000D01*
X102410000Y-99188000D01*
X102198758Y-99230018D01*
X102019677Y-99349677D01*
X89074147Y-112295207D01*
X89045179Y-112283179D01*
X88636613Y-112282822D01*
X88259011Y-112438844D01*
X87969860Y-112727492D01*
X87813179Y-113104821D01*
X87812822Y-113513387D01*
X86044033Y-113513387D01*
X84802000Y-112271354D01*
X84802000Y-110973387D01*
X87812822Y-110973387D01*
X87968844Y-111350989D01*
X88257492Y-111640140D01*
X88634821Y-111796821D01*
X89043387Y-111797178D01*
X89420989Y-111641156D01*
X89710140Y-111352508D01*
X89866821Y-110975179D01*
X89867178Y-110566613D01*
X89854563Y-110536083D01*
X102703322Y-97687324D01*
X102710450Y-97676656D01*
X102791427Y-97872635D01*
X103125606Y-98207397D01*
X103562456Y-98388793D01*
X104035469Y-98389206D01*
X104472635Y-98208573D01*
X104807397Y-97874394D01*
X104988793Y-97437544D01*
X104989206Y-96964531D01*
X104808573Y-96527365D01*
X104474394Y-96192603D01*
X104037544Y-96011207D01*
X103564531Y-96010794D01*
X103127365Y-96191427D01*
X102864999Y-96453336D01*
X102864999Y-95406335D01*
X103125606Y-95667397D01*
X103562456Y-95848793D01*
X104035469Y-95849206D01*
X104472635Y-95668573D01*
X104807397Y-95334394D01*
X104988793Y-94897544D01*
X104989206Y-94424531D01*
X104808573Y-93987365D01*
X104474394Y-93652603D01*
X104037544Y-93471207D01*
X103564531Y-93470794D01*
X103127365Y-93651427D01*
X102864999Y-93913336D01*
X102864999Y-93835647D01*
X103441909Y-93258737D01*
X103562456Y-93308793D01*
X104035469Y-93309206D01*
X104472635Y-93128573D01*
X104807397Y-92794394D01*
X104988793Y-92357544D01*
X104989206Y-91884531D01*
X104808573Y-91447365D01*
X104474394Y-91112603D01*
X104037544Y-90931207D01*
X103564531Y-90930794D01*
X103127365Y-91111427D01*
X102792603Y-91445606D01*
X102611207Y-91882456D01*
X102610794Y-92355469D01*
X102661403Y-92477951D01*
X101922676Y-93216678D01*
X101803017Y-93395759D01*
X101803017Y-93395760D01*
X101760999Y-93607001D01*
X101760999Y-97068355D01*
X89074147Y-109755207D01*
X89045179Y-109743179D01*
X88636613Y-109742822D01*
X88259011Y-109898844D01*
X87969860Y-110187492D01*
X87813179Y-110564821D01*
X87812822Y-110973387D01*
X84802000Y-110973387D01*
X84802000Y-109800000D01*
X84759982Y-109588759D01*
X84759982Y-109588758D01*
X84640323Y-109409677D01*
X83684793Y-108454147D01*
X83693412Y-108433387D01*
X87812822Y-108433387D01*
X87968844Y-108810989D01*
X88257492Y-109100140D01*
X88634821Y-109256821D01*
X89043387Y-109257178D01*
X89420989Y-109101156D01*
X89710140Y-108812508D01*
X89866821Y-108435179D01*
X89867178Y-108026613D01*
X89854563Y-107996083D01*
X98790323Y-99060323D01*
X98909982Y-98881242D01*
X98952000Y-98670000D01*
X98952000Y-95208646D01*
X103441909Y-90718737D01*
X103562456Y-90768793D01*
X104035469Y-90769206D01*
X104472635Y-90588573D01*
X104807397Y-90254394D01*
X104988793Y-89817544D01*
X104989206Y-89344531D01*
X104808573Y-88907365D01*
X104474394Y-88572603D01*
X104037544Y-88391207D01*
X103564531Y-88390794D01*
X103127365Y-88571427D01*
X102792603Y-88905606D01*
X102611207Y-89342456D01*
X102610794Y-89815469D01*
X102661403Y-89937951D01*
X98009677Y-94589677D01*
X97890018Y-94768758D01*
X97890018Y-94768759D01*
X97848000Y-94980000D01*
X97848000Y-98441354D01*
X89074147Y-107215207D01*
X89045179Y-107203179D01*
X88636613Y-107202822D01*
X88259011Y-107358844D01*
X87969860Y-107647492D01*
X87813179Y-108024821D01*
X87812822Y-108433387D01*
X83693412Y-108433387D01*
X83696821Y-108425179D01*
X83697178Y-108016613D01*
X83541156Y-107639011D01*
X83252508Y-107349860D01*
X82875179Y-107193179D01*
X82466613Y-107192822D01*
X82089011Y-107348844D01*
X81799860Y-107637492D01*
X81643179Y-108014821D01*
X81642822Y-108423387D01*
X77327000Y-108423387D01*
X77327000Y-105883387D01*
X81642822Y-105883387D01*
X81798844Y-106260989D01*
X82087492Y-106550140D01*
X82464821Y-106706821D01*
X82873387Y-106707178D01*
X83250989Y-106551156D01*
X83540140Y-106262508D01*
X83696821Y-105885179D01*
X83697178Y-105476613D01*
X83541156Y-105099011D01*
X83252508Y-104809860D01*
X82875179Y-104653179D01*
X82466613Y-104652822D01*
X82089011Y-104808844D01*
X81799860Y-105097492D01*
X81643179Y-105474821D01*
X81642822Y-105883387D01*
X77327000Y-105883387D01*
X77327000Y-103343387D01*
X81642822Y-103343387D01*
X81798844Y-103720989D01*
X82087492Y-104010140D01*
X82464821Y-104166821D01*
X82873387Y-104167178D01*
X83250989Y-104011156D01*
X83540140Y-103722508D01*
X83696821Y-103345179D01*
X83697178Y-102936613D01*
X83541156Y-102559011D01*
X83252508Y-102269860D01*
X82875179Y-102113179D01*
X82466613Y-102112822D01*
X82089011Y-102268844D01*
X81799860Y-102557492D01*
X81643179Y-102934821D01*
X81642822Y-103343387D01*
X77327000Y-103343387D01*
X77327000Y-101577000D01*
X77910000Y-101577000D01*
X78226479Y-101514048D01*
X78494777Y-101334777D01*
X81538281Y-98291273D01*
X81496762Y-98500000D01*
X81559714Y-98816479D01*
X81738985Y-99084777D01*
X82007283Y-99264048D01*
X82323762Y-99327000D01*
X82640241Y-99264048D01*
X82908539Y-99084777D01*
X88288000Y-93705316D01*
X88288000Y-102266866D01*
X88259011Y-102278844D01*
X87969860Y-102567492D01*
X87813179Y-102944821D01*
X87812822Y-103353387D01*
X87968844Y-103730989D01*
X88257492Y-104020140D01*
X88634821Y-104176821D01*
X89043387Y-104177178D01*
X89420989Y-104021156D01*
X89613001Y-103829478D01*
X89613001Y-104136353D01*
X89074147Y-104675207D01*
X89045179Y-104663179D01*
X88636613Y-104662822D01*
X88259011Y-104818844D01*
X87969860Y-105107492D01*
X87813179Y-105484821D01*
X87812822Y-105893387D01*
X87968844Y-106270989D01*
X88257492Y-106560140D01*
X88634821Y-106716821D01*
X89043387Y-106717178D01*
X89420989Y-106561156D01*
X89710140Y-106272508D01*
X89866821Y-105895179D01*
X89867178Y-105486613D01*
X89854563Y-105456083D01*
X90555324Y-104755322D01*
X90616892Y-104663179D01*
X90674983Y-104576240D01*
X90717001Y-104364999D01*
X90717001Y-92831979D01*
X101513230Y-82035750D01*
X107515000Y-82035750D01*
X107515000Y-82726310D01*
X107611673Y-82959699D01*
X107790302Y-83138327D01*
X108023691Y-83235000D01*
X108714250Y-83235000D01*
X108873000Y-83076250D01*
X108873000Y-81877000D01*
X109127000Y-81877000D01*
X109127000Y-83076250D01*
X109285750Y-83235000D01*
X109976309Y-83235000D01*
X110209698Y-83138327D01*
X110388327Y-82959699D01*
X110485000Y-82726310D01*
X110485000Y-82035750D01*
X110326250Y-81877000D01*
X109127000Y-81877000D01*
X108873000Y-81877000D01*
X107673750Y-81877000D01*
X107515000Y-82035750D01*
X101513230Y-82035750D01*
X110965324Y-72583656D01*
X111084983Y-72404575D01*
X111127001Y-72193333D01*
X111127001Y-67365001D01*
X111084983Y-67153760D01*
X111084983Y-67153759D01*
X110965324Y-66974678D01*
X110215517Y-66224871D01*
X110302018Y-65790000D01*
X110204812Y-65301313D01*
X109927993Y-64887025D01*
X109513705Y-64610206D01*
X109060209Y-64520000D01*
X109513705Y-64429794D01*
X109927993Y-64152975D01*
X110204812Y-63738687D01*
X110302018Y-63250000D01*
X110204812Y-62761313D01*
X109927993Y-62347025D01*
X109520417Y-62074691D01*
X109881358Y-61905183D01*
X110271645Y-61476924D01*
X110441476Y-61066890D01*
X110320155Y-60837000D01*
X109127000Y-60837000D01*
X109127000Y-60857000D01*
X108873000Y-60857000D01*
X108873000Y-60837000D01*
X107679845Y-60837000D01*
X107558524Y-61066890D01*
X107728355Y-61476924D01*
X108118642Y-61905183D01*
X108479583Y-62074691D01*
X108072007Y-62347025D01*
X107795188Y-62761313D01*
X107697982Y-63250000D01*
X107795188Y-63738687D01*
X108072007Y-64152975D01*
X108486295Y-64429794D01*
X108939791Y-64520000D01*
X108486295Y-64610206D01*
X108072007Y-64887025D01*
X107795188Y-65301313D01*
X107697982Y-65790000D01*
X107795188Y-66278687D01*
X108072007Y-66692975D01*
X108486295Y-66969794D01*
X108939791Y-67060000D01*
X108486295Y-67150206D01*
X108072007Y-67427025D01*
X107795188Y-67841313D01*
X107697982Y-68330000D01*
X107795188Y-68818687D01*
X108072007Y-69232975D01*
X108448000Y-69484206D01*
X108448000Y-72761856D01*
X106827000Y-74382856D01*
X106827000Y-59862554D01*
X107692555Y-58997000D01*
X107714635Y-58997000D01*
X107714635Y-59020000D01*
X107744409Y-59178237D01*
X107837927Y-59323567D01*
X107980619Y-59421064D01*
X108150000Y-59455365D01*
X108245236Y-59455365D01*
X108118642Y-59514817D01*
X107728355Y-59943076D01*
X107558524Y-60353110D01*
X107679845Y-60583000D01*
X108873000Y-60583000D01*
X108873000Y-60563000D01*
X109127000Y-60563000D01*
X109127000Y-60583000D01*
X110320155Y-60583000D01*
X110441476Y-60353110D01*
X110271645Y-59943076D01*
X109881358Y-59514817D01*
X109754764Y-59455365D01*
X109850000Y-59455365D01*
X110008237Y-59425591D01*
X110153567Y-59332073D01*
X110251064Y-59189381D01*
X110285365Y-59020000D01*
X110285365Y-57320000D01*
X110255591Y-57161763D01*
X110162073Y-57016433D01*
X110019381Y-56918936D01*
X109850000Y-56884635D01*
X108150000Y-56884635D01*
X107991763Y-56914409D01*
X107846433Y-57007927D01*
X107748936Y-57150619D01*
X107714635Y-57320000D01*
X107714635Y-57343000D01*
X107350000Y-57343000D01*
X107033521Y-57405952D01*
X106765222Y-57585223D01*
X105415223Y-58935223D01*
X105235952Y-59203521D01*
X105173000Y-59520000D01*
X105173000Y-74481208D01*
X101345481Y-78308727D01*
X101345820Y-78307025D01*
X101387000Y-78100000D01*
X101387000Y-75514477D01*
X101567397Y-75334394D01*
X101748793Y-74897544D01*
X101749206Y-74424531D01*
X101568573Y-73987365D01*
X101234394Y-73652603D01*
X100874167Y-73503024D01*
X100907368Y-73501362D01*
X101291143Y-73342397D01*
X101360608Y-73100213D01*
X100560000Y-72299605D01*
X99759392Y-73100213D01*
X99828857Y-73342397D01*
X100261615Y-73496790D01*
X99887365Y-73651427D01*
X99552603Y-73985606D01*
X99371207Y-74422456D01*
X99370794Y-74895469D01*
X99551427Y-75332635D01*
X99733000Y-75514525D01*
X99733000Y-77757446D01*
X77567446Y-99923000D01*
X76500000Y-99923000D01*
X76183521Y-99985952D01*
X75915223Y-100165223D01*
X75735952Y-100433521D01*
X75673000Y-100750000D01*
X75673000Y-111507446D01*
X63278511Y-123901935D01*
X63376821Y-123665179D01*
X63377178Y-123256613D01*
X63221156Y-122879011D01*
X62932508Y-122589860D01*
X62555179Y-122433179D01*
X62146613Y-122432822D01*
X61769011Y-122588844D01*
X61479860Y-122877492D01*
X61323179Y-123254821D01*
X61322822Y-123663387D01*
X61478844Y-124040989D01*
X61767492Y-124330140D01*
X62144821Y-124486821D01*
X62553387Y-124487178D01*
X62791763Y-124388683D01*
X62207571Y-124972875D01*
X62146613Y-124972822D01*
X61769011Y-125128844D01*
X61724778Y-125173000D01*
X59830000Y-125173000D01*
X59513521Y-125235952D01*
X59245223Y-125415222D01*
X56745109Y-127915337D01*
X56717482Y-127468587D01*
X56588164Y-127156383D01*
X56362735Y-127106870D01*
X55679605Y-127790000D01*
X55693748Y-127804143D01*
X55514143Y-127983748D01*
X55500000Y-127969605D01*
X54816870Y-128652735D01*
X54866383Y-128878164D01*
X55331036Y-129037807D01*
X55641860Y-129018586D01*
X55357571Y-129302875D01*
X55296613Y-129302822D01*
X54919011Y-129458844D01*
X54629860Y-129747492D01*
X54473179Y-130124821D01*
X54472822Y-130533387D01*
X50405200Y-130533387D01*
X50405200Y-127621036D01*
X54252193Y-127621036D01*
X54282518Y-128111413D01*
X54411836Y-128423617D01*
X54637265Y-128473130D01*
X55320395Y-127790000D01*
X54637265Y-127106870D01*
X54411836Y-127156383D01*
X54252193Y-127621036D01*
X50405200Y-127621036D01*
X50405200Y-126927265D01*
X54816870Y-126927265D01*
X55500000Y-127610395D01*
X56183130Y-126927265D01*
X56133617Y-126701836D01*
X55668964Y-126542193D01*
X55178587Y-126572518D01*
X54866383Y-126701836D01*
X54816870Y-126927265D01*
X50405200Y-126927265D01*
X50405200Y-125453387D01*
X54472822Y-125453387D01*
X54628844Y-125830989D01*
X54917492Y-126120140D01*
X55294821Y-126276821D01*
X55703387Y-126277178D01*
X56080989Y-126121156D01*
X56370140Y-125832508D01*
X56526821Y-125455179D01*
X56527178Y-125046613D01*
X56371156Y-124669011D01*
X56082508Y-124379860D01*
X55705179Y-124223179D01*
X55296613Y-124222822D01*
X54919011Y-124378844D01*
X54629860Y-124667492D01*
X54473179Y-125044821D01*
X54472822Y-125453387D01*
X50405200Y-125453387D01*
X50405200Y-120295469D01*
X54350794Y-120295469D01*
X54531427Y-120732635D01*
X54865606Y-121067397D01*
X55302456Y-121248793D01*
X55775469Y-121249206D01*
X56079974Y-121123387D01*
X61322822Y-121123387D01*
X61478844Y-121500989D01*
X61767492Y-121790140D01*
X62144821Y-121946821D01*
X62553387Y-121947178D01*
X62930989Y-121791156D01*
X63220140Y-121502508D01*
X63376821Y-121125179D01*
X63377178Y-120716613D01*
X63221156Y-120339011D01*
X62932508Y-120049860D01*
X62555179Y-119893179D01*
X62146613Y-119892822D01*
X61769011Y-120048844D01*
X61479860Y-120337492D01*
X61323179Y-120714821D01*
X61322822Y-121123387D01*
X56079974Y-121123387D01*
X56212635Y-121068573D01*
X56547397Y-120734394D01*
X56728793Y-120297544D01*
X56729206Y-119824531D01*
X56548573Y-119387365D01*
X56214394Y-119052603D01*
X55777544Y-118871207D01*
X55304531Y-118870794D01*
X54867365Y-119051427D01*
X54532603Y-119385606D01*
X54351207Y-119822456D01*
X54350794Y-120295469D01*
X50405200Y-120295469D01*
X50405200Y-116953572D01*
X50656233Y-116953572D01*
X50656233Y-118153572D01*
X50686007Y-118311809D01*
X50779525Y-118457139D01*
X50922217Y-118554636D01*
X51091598Y-118588937D01*
X51991598Y-118588937D01*
X52149835Y-118559163D01*
X52295165Y-118465645D01*
X52392662Y-118322953D01*
X52426963Y-118153572D01*
X52426963Y-118068701D01*
X52452840Y-118063554D01*
X52631921Y-117943895D01*
X53856815Y-116719001D01*
X54659429Y-116719001D01*
X54532603Y-116845606D01*
X54351207Y-117282456D01*
X54350794Y-117755469D01*
X54531427Y-118192635D01*
X54865606Y-118527397D01*
X55302456Y-118708793D01*
X55775469Y-118709206D01*
X56079974Y-118583387D01*
X61322822Y-118583387D01*
X61478844Y-118960989D01*
X61767492Y-119250140D01*
X62144821Y-119406821D01*
X62553387Y-119407178D01*
X62930989Y-119251156D01*
X63220140Y-118962508D01*
X63376821Y-118585179D01*
X63377178Y-118176613D01*
X63221156Y-117799011D01*
X62932508Y-117509860D01*
X62555179Y-117353179D01*
X62146613Y-117352822D01*
X61769011Y-117508844D01*
X61479860Y-117797492D01*
X61323179Y-118174821D01*
X61322822Y-118583387D01*
X56079974Y-118583387D01*
X56212635Y-118528573D01*
X56547397Y-118194394D01*
X56728793Y-117757544D01*
X56729206Y-117284531D01*
X56548573Y-116847365D01*
X56420433Y-116719001D01*
X59482999Y-116719001D01*
X59694241Y-116676983D01*
X59873322Y-116557324D01*
X60387259Y-116043387D01*
X61322822Y-116043387D01*
X61478844Y-116420989D01*
X61767492Y-116710140D01*
X62144821Y-116866821D01*
X62553387Y-116867178D01*
X62930989Y-116711156D01*
X63220140Y-116422508D01*
X63376821Y-116045179D01*
X63377178Y-115636613D01*
X63221156Y-115259011D01*
X62932508Y-114969860D01*
X62555179Y-114813179D01*
X62146613Y-114812822D01*
X61769011Y-114968844D01*
X61479860Y-115257492D01*
X61323179Y-115634821D01*
X61322822Y-116043387D01*
X60387259Y-116043387D01*
X62115853Y-114314793D01*
X62144821Y-114326821D01*
X62553387Y-114327178D01*
X62930989Y-114171156D01*
X63220140Y-113882508D01*
X63376821Y-113505179D01*
X63377178Y-113096613D01*
X63221156Y-112719011D01*
X62932508Y-112429860D01*
X62555179Y-112273179D01*
X62146613Y-112272822D01*
X61769011Y-112428844D01*
X61479860Y-112717492D01*
X61323179Y-113094821D01*
X61322822Y-113503387D01*
X61335437Y-113533917D01*
X59254353Y-115615001D01*
X56563754Y-115615001D01*
X56728793Y-115217544D01*
X56729206Y-114744531D01*
X56548573Y-114307365D01*
X56214394Y-113972603D01*
X55777544Y-113791207D01*
X55304531Y-113790794D01*
X54867365Y-113971427D01*
X54532603Y-114305606D01*
X54351207Y-114742456D01*
X54350794Y-115215469D01*
X54515877Y-115615001D01*
X53628169Y-115615001D01*
X53416928Y-115657019D01*
X53237846Y-115776678D01*
X52327495Y-116687029D01*
X52303671Y-116650005D01*
X52160979Y-116552508D01*
X51991598Y-116518207D01*
X51091598Y-116518207D01*
X50933361Y-116547981D01*
X50788031Y-116641499D01*
X50690534Y-116784191D01*
X50656233Y-116953572D01*
X50405200Y-116953572D01*
X50405200Y-110989322D01*
X50456598Y-110989322D01*
X50456598Y-111429881D01*
X50553271Y-111663270D01*
X50731899Y-111841899D01*
X50907488Y-111914630D01*
X50788031Y-111991499D01*
X50690534Y-112134191D01*
X50656233Y-112303572D01*
X50656233Y-113503572D01*
X50686007Y-113661809D01*
X50779525Y-113807139D01*
X50922217Y-113904636D01*
X50989598Y-113918281D01*
X50989598Y-114337399D01*
X50933361Y-114347981D01*
X50788031Y-114441499D01*
X50690534Y-114584191D01*
X50656233Y-114753572D01*
X50656233Y-115953572D01*
X50686007Y-116111809D01*
X50779525Y-116257139D01*
X50922217Y-116354636D01*
X51091598Y-116388937D01*
X51991598Y-116388937D01*
X52149835Y-116359163D01*
X52295165Y-116265645D01*
X52392662Y-116122953D01*
X52426963Y-115953572D01*
X52426963Y-114753572D01*
X52397189Y-114595335D01*
X52303671Y-114450005D01*
X52160979Y-114352508D01*
X52093598Y-114338863D01*
X52093598Y-113919745D01*
X52149835Y-113909163D01*
X52295165Y-113815645D01*
X52392662Y-113672953D01*
X52426963Y-113503572D01*
X52426963Y-112303572D01*
X52397189Y-112145335D01*
X52303671Y-112000005D01*
X52177584Y-111913853D01*
X52351297Y-111841899D01*
X52529925Y-111663270D01*
X52626598Y-111429881D01*
X52626598Y-110989322D01*
X52467848Y-110830572D01*
X51668598Y-110830572D01*
X51668598Y-110850572D01*
X51414598Y-110850572D01*
X51414598Y-110830572D01*
X50615348Y-110830572D01*
X50456598Y-110989322D01*
X50405200Y-110989322D01*
X50405200Y-109977263D01*
X50456598Y-109977263D01*
X50456598Y-110417822D01*
X50615348Y-110576572D01*
X51414598Y-110576572D01*
X51414598Y-109627322D01*
X51668598Y-109627322D01*
X51668598Y-110576572D01*
X52467848Y-110576572D01*
X52626598Y-110417822D01*
X52626598Y-109977263D01*
X52529925Y-109743874D01*
X52351297Y-109565245D01*
X52117908Y-109468572D01*
X51827348Y-109468572D01*
X51668598Y-109627322D01*
X51414598Y-109627322D01*
X51255848Y-109468572D01*
X50965288Y-109468572D01*
X50731899Y-109565245D01*
X50553271Y-109743874D01*
X50456598Y-109977263D01*
X50405200Y-109977263D01*
X50405200Y-107811994D01*
X50629215Y-107811994D01*
X50629215Y-109011994D01*
X50658989Y-109170231D01*
X50752507Y-109315561D01*
X50895199Y-109413058D01*
X51064580Y-109447359D01*
X51964580Y-109447359D01*
X52122817Y-109417585D01*
X52268147Y-109324067D01*
X52299752Y-109277812D01*
X54499264Y-111477324D01*
X54678345Y-111596983D01*
X54697670Y-111600827D01*
X54532603Y-111765606D01*
X54351207Y-112202456D01*
X54350794Y-112675469D01*
X54531427Y-113112635D01*
X54865606Y-113447397D01*
X55302456Y-113628793D01*
X55775469Y-113629206D01*
X56212635Y-113448573D01*
X56547397Y-113114394D01*
X56728793Y-112677544D01*
X56729206Y-112204531D01*
X56548573Y-111767365D01*
X56420433Y-111639001D01*
X61174471Y-111639001D01*
X61385713Y-111596983D01*
X61564794Y-111477324D01*
X61589890Y-111452228D01*
X61767492Y-111630140D01*
X62144821Y-111786821D01*
X62553387Y-111787178D01*
X62930989Y-111631156D01*
X63220140Y-111342508D01*
X63376821Y-110965179D01*
X63377178Y-110556613D01*
X63221156Y-110179011D01*
X62932508Y-109889860D01*
X62555179Y-109733179D01*
X62146613Y-109732822D01*
X61769011Y-109888844D01*
X61479860Y-110177492D01*
X61464106Y-110215433D01*
X61290231Y-110250018D01*
X61111149Y-110369677D01*
X60945825Y-110535001D01*
X56563754Y-110535001D01*
X56728793Y-110137544D01*
X56729206Y-109664531D01*
X56548573Y-109227365D01*
X56214394Y-108892603D01*
X55854167Y-108743024D01*
X55887368Y-108741362D01*
X56271143Y-108582397D01*
X56340608Y-108340213D01*
X55540000Y-107539605D01*
X54739392Y-108340213D01*
X54808857Y-108582397D01*
X55241615Y-108736790D01*
X54867365Y-108891427D01*
X54532603Y-109225606D01*
X54351207Y-109662456D01*
X54351115Y-109767883D01*
X52604903Y-108021671D01*
X52425822Y-107902012D01*
X52399945Y-107896865D01*
X52399945Y-107811994D01*
X52370171Y-107653757D01*
X52276653Y-107508427D01*
X52133961Y-107410930D01*
X51964580Y-107376629D01*
X51064580Y-107376629D01*
X50906343Y-107406403D01*
X50761013Y-107499921D01*
X50663516Y-107642613D01*
X50629215Y-107811994D01*
X50405200Y-107811994D01*
X50405200Y-102097744D01*
X50429580Y-102097744D01*
X50429580Y-102538303D01*
X50526253Y-102771692D01*
X50704881Y-102950321D01*
X50880470Y-103023052D01*
X50761013Y-103099921D01*
X50663516Y-103242613D01*
X50629215Y-103411994D01*
X50629215Y-104611994D01*
X50658989Y-104770231D01*
X50752507Y-104915561D01*
X50895199Y-105013058D01*
X50962580Y-105026703D01*
X50962580Y-105195821D01*
X50906343Y-105206403D01*
X50761013Y-105299921D01*
X50663516Y-105442613D01*
X50629215Y-105611994D01*
X50629215Y-106811994D01*
X50658989Y-106970231D01*
X50752507Y-107115561D01*
X50895199Y-107213058D01*
X51064580Y-107247359D01*
X51964580Y-107247359D01*
X52122817Y-107217585D01*
X52224268Y-107152302D01*
X54130856Y-107152302D01*
X54158638Y-107707368D01*
X54317603Y-108091143D01*
X54559787Y-108160608D01*
X55360395Y-107360000D01*
X55719605Y-107360000D01*
X56520213Y-108160608D01*
X56762397Y-108091143D01*
X56949144Y-107567698D01*
X56921362Y-107012632D01*
X56762397Y-106628857D01*
X56520213Y-106559392D01*
X55719605Y-107360000D01*
X55360395Y-107360000D01*
X54559787Y-106559392D01*
X54317603Y-106628857D01*
X54130856Y-107152302D01*
X52224268Y-107152302D01*
X52268147Y-107124067D01*
X52365644Y-106981375D01*
X52399945Y-106811994D01*
X52399945Y-105800213D01*
X54739392Y-105800213D01*
X54808857Y-106042397D01*
X54932344Y-106086453D01*
X54808857Y-106137603D01*
X54739392Y-106379787D01*
X55540000Y-107180395D01*
X56340608Y-106379787D01*
X56271143Y-106137603D01*
X56147656Y-106093547D01*
X56271143Y-106042397D01*
X56340608Y-105800213D01*
X55540000Y-104999605D01*
X54739392Y-105800213D01*
X52399945Y-105800213D01*
X52399945Y-105611994D01*
X52370171Y-105453757D01*
X52276653Y-105308427D01*
X52133961Y-105210930D01*
X52066580Y-105197285D01*
X52066580Y-105028167D01*
X52122817Y-105017585D01*
X52268147Y-104924067D01*
X52365644Y-104781375D01*
X52399882Y-104612302D01*
X54130856Y-104612302D01*
X54158638Y-105167368D01*
X54317603Y-105551143D01*
X54559787Y-105620608D01*
X55360395Y-104820000D01*
X55719605Y-104820000D01*
X56520213Y-105620608D01*
X56762397Y-105551143D01*
X56949144Y-105027698D01*
X56921362Y-104472632D01*
X56762397Y-104088857D01*
X56520213Y-104019392D01*
X55719605Y-104820000D01*
X55360395Y-104820000D01*
X54559787Y-104019392D01*
X54317603Y-104088857D01*
X54130856Y-104612302D01*
X52399882Y-104612302D01*
X52399945Y-104611994D01*
X52399945Y-103411994D01*
X52370171Y-103253757D01*
X52276653Y-103108427D01*
X52150566Y-103022275D01*
X52324279Y-102950321D01*
X52502907Y-102771692D01*
X52599580Y-102538303D01*
X52599580Y-102515469D01*
X54350794Y-102515469D01*
X54531427Y-102952635D01*
X54865606Y-103287397D01*
X55225833Y-103436976D01*
X55192632Y-103438638D01*
X54808857Y-103597603D01*
X54739392Y-103839787D01*
X55540000Y-104640395D01*
X56340608Y-103839787D01*
X56271143Y-103597603D01*
X55838385Y-103443210D01*
X56212635Y-103288573D01*
X56547397Y-102954394D01*
X56728793Y-102517544D01*
X56729206Y-102044531D01*
X56548573Y-101607365D01*
X56214394Y-101272603D01*
X55777544Y-101091207D01*
X55304531Y-101090794D01*
X54867365Y-101271427D01*
X54532603Y-101605606D01*
X54351207Y-102042456D01*
X54350794Y-102515469D01*
X52599580Y-102515469D01*
X52599580Y-102097744D01*
X52440830Y-101938994D01*
X51641580Y-101938994D01*
X51641580Y-101958994D01*
X51387580Y-101958994D01*
X51387580Y-101938994D01*
X50588330Y-101938994D01*
X50429580Y-102097744D01*
X50405200Y-102097744D01*
X50405200Y-101085685D01*
X50429580Y-101085685D01*
X50429580Y-101526244D01*
X50588330Y-101684994D01*
X51387580Y-101684994D01*
X51387580Y-101664994D01*
X51641580Y-101664994D01*
X51641580Y-101684994D01*
X52440830Y-101684994D01*
X52599580Y-101526244D01*
X52599580Y-101085685D01*
X52502907Y-100852296D01*
X52324279Y-100673667D01*
X52175753Y-100612145D01*
X52253567Y-100562073D01*
X52351064Y-100419381D01*
X52385365Y-100250000D01*
X52385365Y-100202000D01*
X55313522Y-100202000D01*
X58448000Y-103336478D01*
X58448000Y-104870000D01*
X58490018Y-105081242D01*
X58609677Y-105260323D01*
X61335207Y-107985853D01*
X61323179Y-108014821D01*
X61322822Y-108423387D01*
X61478844Y-108800989D01*
X61767492Y-109090140D01*
X62144821Y-109246821D01*
X62553387Y-109247178D01*
X62930989Y-109091156D01*
X63220140Y-108802508D01*
X63376821Y-108425179D01*
X63377178Y-108016613D01*
X63221156Y-107639011D01*
X62932508Y-107349860D01*
X62555179Y-107193179D01*
X62146613Y-107192822D01*
X62116083Y-107205437D01*
X59552000Y-104641354D01*
X59552000Y-103662646D01*
X61335207Y-105445853D01*
X61323179Y-105474821D01*
X61322822Y-105883387D01*
X61478844Y-106260989D01*
X61767492Y-106550140D01*
X62144821Y-106706821D01*
X62553387Y-106707178D01*
X62930989Y-106551156D01*
X63220140Y-106262508D01*
X63376821Y-105885179D01*
X63377178Y-105476613D01*
X63221156Y-105099011D01*
X62932508Y-104809860D01*
X62555179Y-104653179D01*
X62146613Y-104652822D01*
X62116083Y-104665437D01*
X58730990Y-101280344D01*
X58730990Y-71049069D01*
X58945439Y-71192359D01*
X59439330Y-71290600D01*
X59800670Y-71290600D01*
X60294561Y-71192359D01*
X60713262Y-70912592D01*
X60993029Y-70493891D01*
X61091270Y-70000000D01*
X60993029Y-69506109D01*
X60713262Y-69087408D01*
X60294561Y-68807641D01*
X59904233Y-68730000D01*
X60294561Y-68652359D01*
X60713262Y-68372592D01*
X60993029Y-67953891D01*
X61091270Y-67460000D01*
X60993029Y-66966109D01*
X60902748Y-66830994D01*
X61798000Y-67726246D01*
X61798000Y-102256866D01*
X61769011Y-102268844D01*
X61479860Y-102557492D01*
X61323179Y-102934821D01*
X61322822Y-103343387D01*
X61478844Y-103720989D01*
X61767492Y-104010140D01*
X62144821Y-104166821D01*
X62553387Y-104167178D01*
X62930989Y-104011156D01*
X63220140Y-103722508D01*
X63376821Y-103345179D01*
X63377178Y-102936613D01*
X63221156Y-102559011D01*
X62932508Y-102269860D01*
X62902000Y-102257192D01*
X62902000Y-73706117D01*
X62953222Y-73782776D01*
X63811017Y-74640571D01*
X63810794Y-74895469D01*
X63991427Y-75332635D01*
X64325606Y-75667397D01*
X64762456Y-75848793D01*
X65235469Y-75849206D01*
X65672635Y-75668573D01*
X66007397Y-75334394D01*
X66188793Y-74897544D01*
X66189206Y-74424531D01*
X66008573Y-73987365D01*
X65674394Y-73652603D01*
X65237544Y-73471207D01*
X64980537Y-73470983D01*
X64818396Y-73308842D01*
X65235469Y-73309206D01*
X65672635Y-73128573D01*
X66007397Y-72794394D01*
X66188793Y-72357544D01*
X66189181Y-71912302D01*
X99150856Y-71912302D01*
X99178638Y-72467368D01*
X99337603Y-72851143D01*
X99579787Y-72920608D01*
X100380395Y-72120000D01*
X100739605Y-72120000D01*
X101540213Y-72920608D01*
X101782397Y-72851143D01*
X101969144Y-72327698D01*
X101941362Y-71772632D01*
X101782397Y-71388857D01*
X101540213Y-71319392D01*
X100739605Y-72120000D01*
X100380395Y-72120000D01*
X99579787Y-71319392D01*
X99337603Y-71388857D01*
X99150856Y-71912302D01*
X66189181Y-71912302D01*
X66189206Y-71884531D01*
X66008573Y-71447365D01*
X65827000Y-71265475D01*
X65827000Y-71139787D01*
X99759392Y-71139787D01*
X100560000Y-71940395D01*
X101360608Y-71139787D01*
X101291143Y-70897603D01*
X100767698Y-70710856D01*
X100212632Y-70738638D01*
X99828857Y-70897603D01*
X99759392Y-71139787D01*
X65827000Y-71139787D01*
X65827000Y-56007919D01*
X65764048Y-55691440D01*
X65584777Y-55423142D01*
X63763551Y-53601916D01*
X106972693Y-53601916D01*
X107242655Y-54255274D01*
X107742096Y-54755588D01*
X108394982Y-55026690D01*
X109101916Y-55027307D01*
X109755274Y-54757345D01*
X110255588Y-54257904D01*
X110526690Y-53605018D01*
X110527307Y-52898084D01*
X110257345Y-52244726D01*
X109757904Y-51744412D01*
X109105018Y-51473310D01*
X108398084Y-51472693D01*
X107744726Y-51742655D01*
X107244412Y-52242096D01*
X106973310Y-52894982D01*
X106972693Y-53601916D01*
X63763551Y-53601916D01*
X61536858Y-51375223D01*
X61268560Y-51195952D01*
X60952081Y-51133000D01*
X60728758Y-51133000D01*
X60677993Y-51057025D01*
X60263705Y-50780206D01*
X59775018Y-50683000D01*
X59724982Y-50683000D01*
X59236295Y-50780206D01*
X58822007Y-51057025D01*
X58545188Y-51471313D01*
X58447982Y-51960000D01*
X58545188Y-52448687D01*
X58822007Y-52862975D01*
X59236295Y-53139794D01*
X59612546Y-53214635D01*
X58900000Y-53214635D01*
X58741763Y-53244409D01*
X58596433Y-53337927D01*
X58498936Y-53480619D01*
X58464635Y-53650000D01*
X58464635Y-53673000D01*
X58100000Y-53673000D01*
X57783521Y-53735952D01*
X57515222Y-53915223D01*
X53955223Y-57475223D01*
X53775952Y-57743521D01*
X53713000Y-58060000D01*
X53713000Y-61289497D01*
X53446738Y-61467408D01*
X53166971Y-61886109D01*
X53068730Y-62380000D01*
X53166971Y-62873891D01*
X53446738Y-63292592D01*
X53865439Y-63572359D01*
X54359330Y-63670600D01*
X54720670Y-63670600D01*
X55214561Y-63572359D01*
X55633262Y-63292592D01*
X55810000Y-63028085D01*
X55986738Y-63292592D01*
X56405439Y-63572359D01*
X56899330Y-63670600D01*
X57260670Y-63670600D01*
X57754561Y-63572359D01*
X58173262Y-63292592D01*
X58230453Y-63207000D01*
X59101124Y-63207000D01*
X59523524Y-63629400D01*
X59439330Y-63629400D01*
X58945439Y-63727641D01*
X58526738Y-64007408D01*
X58246971Y-64426109D01*
X58148730Y-64920000D01*
X58246971Y-65413891D01*
X58526738Y-65832592D01*
X58945439Y-66112359D01*
X59335767Y-66190000D01*
X58945439Y-66267641D01*
X58526738Y-66547408D01*
X58275344Y-66923645D01*
X58142759Y-66950018D01*
X57963677Y-67069677D01*
X57788667Y-67244687D01*
X57669008Y-67423768D01*
X57669008Y-67423769D01*
X57626990Y-67635010D01*
X57626990Y-100954176D01*
X55932491Y-99259677D01*
X55753410Y-99140018D01*
X55542168Y-99098000D01*
X52385365Y-99098000D01*
X52385365Y-99050000D01*
X52355591Y-98891763D01*
X52262073Y-98746433D01*
X52119381Y-98648936D01*
X51950000Y-98614635D01*
X51050000Y-98614635D01*
X50891763Y-98644409D01*
X50746433Y-98737927D01*
X50648936Y-98880619D01*
X50614635Y-99050000D01*
X50614635Y-100250000D01*
X50644409Y-100408237D01*
X50737927Y-100553567D01*
X50834887Y-100619817D01*
X50704881Y-100673667D01*
X50526253Y-100852296D01*
X50429580Y-101085685D01*
X50405200Y-101085685D01*
X50405200Y-93385750D01*
X50415000Y-93385750D01*
X50415000Y-93826309D01*
X50511673Y-94059698D01*
X50690301Y-94238327D01*
X50865890Y-94311058D01*
X50746433Y-94387927D01*
X50648936Y-94530619D01*
X50614635Y-94700000D01*
X50614635Y-95900000D01*
X50644409Y-96058237D01*
X50737927Y-96203567D01*
X50880619Y-96301064D01*
X50948000Y-96314709D01*
X50948000Y-96433827D01*
X50891763Y-96444409D01*
X50746433Y-96537927D01*
X50648936Y-96680619D01*
X50614635Y-96850000D01*
X50614635Y-98050000D01*
X50644409Y-98208237D01*
X50737927Y-98353567D01*
X50880619Y-98451064D01*
X51050000Y-98485365D01*
X51950000Y-98485365D01*
X52108237Y-98455591D01*
X52253567Y-98362073D01*
X52351064Y-98219381D01*
X52385365Y-98050000D01*
X52385365Y-97435469D01*
X54350794Y-97435469D01*
X54531427Y-97872635D01*
X54865606Y-98207397D01*
X55302456Y-98388793D01*
X55775469Y-98389206D01*
X56212635Y-98208573D01*
X56547397Y-97874394D01*
X56728793Y-97437544D01*
X56729206Y-96964531D01*
X56548573Y-96527365D01*
X56214394Y-96192603D01*
X55777544Y-96011207D01*
X55304531Y-96010794D01*
X54867365Y-96191427D01*
X54532603Y-96525606D01*
X54351207Y-96962456D01*
X54350794Y-97435469D01*
X52385365Y-97435469D01*
X52385365Y-96850000D01*
X52355591Y-96691763D01*
X52262073Y-96546433D01*
X52119381Y-96448936D01*
X52052000Y-96435291D01*
X52052000Y-96316173D01*
X52108237Y-96305591D01*
X52253567Y-96212073D01*
X52351064Y-96069381D01*
X52385365Y-95900000D01*
X52385365Y-94895469D01*
X54350794Y-94895469D01*
X54531427Y-95332635D01*
X54865606Y-95667397D01*
X55302456Y-95848793D01*
X55775469Y-95849206D01*
X56212635Y-95668573D01*
X56547397Y-95334394D01*
X56728793Y-94897544D01*
X56729206Y-94424531D01*
X56548573Y-93987365D01*
X56214394Y-93652603D01*
X55777544Y-93471207D01*
X55304531Y-93470794D01*
X54867365Y-93651427D01*
X54532603Y-93985606D01*
X54351207Y-94422456D01*
X54350794Y-94895469D01*
X52385365Y-94895469D01*
X52385365Y-94700000D01*
X52355591Y-94541763D01*
X52262073Y-94396433D01*
X52135986Y-94310281D01*
X52309699Y-94238327D01*
X52488327Y-94059698D01*
X52585000Y-93826309D01*
X52585000Y-93385750D01*
X52426250Y-93227000D01*
X51627000Y-93227000D01*
X51627000Y-93247000D01*
X51373000Y-93247000D01*
X51373000Y-93227000D01*
X50573750Y-93227000D01*
X50415000Y-93385750D01*
X50405200Y-93385750D01*
X50405200Y-92373691D01*
X50415000Y-92373691D01*
X50415000Y-92814250D01*
X50573750Y-92973000D01*
X51373000Y-92973000D01*
X51373000Y-92023750D01*
X51627000Y-92023750D01*
X51627000Y-92973000D01*
X52426250Y-92973000D01*
X52585000Y-92814250D01*
X52585000Y-92373691D01*
X52577453Y-92355469D01*
X54350794Y-92355469D01*
X54531427Y-92792635D01*
X54865606Y-93127397D01*
X55302456Y-93308793D01*
X55775469Y-93309206D01*
X56212635Y-93128573D01*
X56547397Y-92794394D01*
X56728793Y-92357544D01*
X56729206Y-91884531D01*
X56548573Y-91447365D01*
X56214394Y-91112603D01*
X55777544Y-90931207D01*
X55304531Y-90930794D01*
X54867365Y-91111427D01*
X54532603Y-91445606D01*
X54351207Y-91882456D01*
X54350794Y-92355469D01*
X52577453Y-92355469D01*
X52488327Y-92140302D01*
X52309699Y-91961673D01*
X52076310Y-91865000D01*
X51785750Y-91865000D01*
X51627000Y-92023750D01*
X51373000Y-92023750D01*
X51214250Y-91865000D01*
X50923690Y-91865000D01*
X50690301Y-91961673D01*
X50511673Y-92140302D01*
X50415000Y-92373691D01*
X50405200Y-92373691D01*
X50405200Y-89815469D01*
X54350794Y-89815469D01*
X54531427Y-90252635D01*
X54865606Y-90587397D01*
X55302456Y-90768793D01*
X55775469Y-90769206D01*
X56212635Y-90588573D01*
X56547397Y-90254394D01*
X56728793Y-89817544D01*
X56729206Y-89344531D01*
X56548573Y-88907365D01*
X56214394Y-88572603D01*
X55777544Y-88391207D01*
X55304531Y-88390794D01*
X54867365Y-88571427D01*
X54532603Y-88905606D01*
X54351207Y-89342456D01*
X54350794Y-89815469D01*
X50405200Y-89815469D01*
X50405200Y-87275469D01*
X54350794Y-87275469D01*
X54531427Y-87712635D01*
X54865606Y-88047397D01*
X55302456Y-88228793D01*
X55775469Y-88229206D01*
X56212635Y-88048573D01*
X56547397Y-87714394D01*
X56728793Y-87277544D01*
X56729206Y-86804531D01*
X56548573Y-86367365D01*
X56214394Y-86032603D01*
X55777544Y-85851207D01*
X55304531Y-85850794D01*
X54867365Y-86031427D01*
X54532603Y-86365606D01*
X54351207Y-86802456D01*
X54350794Y-87275469D01*
X50405200Y-87275469D01*
X50405200Y-84735469D01*
X54350794Y-84735469D01*
X54531427Y-85172635D01*
X54865606Y-85507397D01*
X55302456Y-85688793D01*
X55775469Y-85689206D01*
X56212635Y-85508573D01*
X56547397Y-85174394D01*
X56728793Y-84737544D01*
X56729206Y-84264531D01*
X56548573Y-83827365D01*
X56214394Y-83492603D01*
X55777544Y-83311207D01*
X55304531Y-83310794D01*
X54867365Y-83491427D01*
X54532603Y-83825606D01*
X54351207Y-84262456D01*
X54350794Y-84735469D01*
X50405200Y-84735469D01*
X50405200Y-67855362D01*
X50649268Y-68362036D01*
X51085680Y-68751954D01*
X51297757Y-68826138D01*
X50906738Y-69087408D01*
X50626971Y-69506109D01*
X50528730Y-70000000D01*
X50626971Y-70493891D01*
X50906738Y-70912592D01*
X51325439Y-71192359D01*
X51819330Y-71290600D01*
X52180670Y-71290600D01*
X52674561Y-71192359D01*
X53093262Y-70912592D01*
X53373029Y-70493891D01*
X53471270Y-70000000D01*
X53373029Y-69506109D01*
X53093262Y-69087408D01*
X52702243Y-68826138D01*
X52914320Y-68751954D01*
X53350732Y-68362036D01*
X53604709Y-67834791D01*
X53607358Y-67819026D01*
X53486217Y-67587000D01*
X52127000Y-67587000D01*
X52127000Y-67607000D01*
X51873000Y-67607000D01*
X51873000Y-67587000D01*
X51853000Y-67587000D01*
X51853000Y-67333000D01*
X51873000Y-67333000D01*
X51873000Y-67313000D01*
X52127000Y-67313000D01*
X52127000Y-67333000D01*
X53486217Y-67333000D01*
X53607358Y-67100974D01*
X53604709Y-67085209D01*
X53350732Y-66557964D01*
X52914320Y-66168046D01*
X52702243Y-66093862D01*
X53093262Y-65832592D01*
X53373029Y-65413891D01*
X53471270Y-64920000D01*
X53373029Y-64426109D01*
X53093262Y-64007408D01*
X52674561Y-63727641D01*
X52180670Y-63629400D01*
X51819330Y-63629400D01*
X51325439Y-63727641D01*
X50906738Y-64007408D01*
X50626971Y-64426109D01*
X50528730Y-64920000D01*
X50626971Y-65413891D01*
X50906738Y-65832592D01*
X51297757Y-66093862D01*
X51085680Y-66168046D01*
X50649268Y-66557964D01*
X50405200Y-67064638D01*
X50405200Y-53601916D01*
X51472693Y-53601916D01*
X51742655Y-54255274D01*
X52242096Y-54755588D01*
X52894982Y-55026690D01*
X53601916Y-55027307D01*
X54255274Y-54757345D01*
X54755588Y-54257904D01*
X55026690Y-53605018D01*
X55027307Y-52898084D01*
X54757345Y-52244726D01*
X54257904Y-51744412D01*
X53605018Y-51473310D01*
X52898084Y-51472693D01*
X52244726Y-51742655D01*
X51744412Y-52242096D01*
X51473310Y-52894982D01*
X51472693Y-53601916D01*
X50405200Y-53601916D01*
X50405200Y-50405200D01*
X111594800Y-50405200D01*
X111594800Y-79822073D01*
X111594800Y-79822073D01*
G37*
X111594800Y-79822073D02*
X110592404Y-78819677D01*
X110413323Y-78700018D01*
X110202081Y-78658000D01*
X110162508Y-78658000D01*
X109927993Y-78307025D01*
X109513705Y-78030206D01*
X109060209Y-77940000D01*
X109513705Y-77849794D01*
X109927993Y-77572975D01*
X110204812Y-77158687D01*
X110302018Y-76670000D01*
X110204812Y-76181313D01*
X109927993Y-75767025D01*
X109513705Y-75490206D01*
X109025018Y-75393000D01*
X108974982Y-75393000D01*
X108486295Y-75490206D01*
X108072007Y-75767025D01*
X107795188Y-76181313D01*
X107697982Y-76670000D01*
X107795188Y-77158687D01*
X108072007Y-77572975D01*
X108486295Y-77849794D01*
X108939791Y-77940000D01*
X108486295Y-78030206D01*
X108072007Y-78307025D01*
X107795188Y-78721313D01*
X107697982Y-79210000D01*
X107795188Y-79698687D01*
X108072007Y-80112975D01*
X108299528Y-80265000D01*
X108023691Y-80265000D01*
X107790302Y-80361673D01*
X107611673Y-80540301D01*
X107515000Y-80773690D01*
X107515000Y-81464250D01*
X107673750Y-81623000D01*
X108873000Y-81623000D01*
X108873000Y-81603000D01*
X109127000Y-81603000D01*
X109127000Y-81623000D01*
X110326250Y-81623000D01*
X110485000Y-81464250D01*
X110485000Y-80773690D01*
X110388327Y-80540301D01*
X110209698Y-80361673D01*
X109976309Y-80265000D01*
X109700472Y-80265000D01*
X109927993Y-80112975D01*
X110086776Y-79875341D01*
X110698000Y-80486565D01*
X110698000Y-90688928D01*
X110694983Y-90673760D01*
X110694983Y-90673759D01*
X110575324Y-90494678D01*
X104938737Y-84858091D01*
X104988793Y-84737544D01*
X104989206Y-84264531D01*
X104808573Y-83827365D01*
X104474394Y-83492603D01*
X104037544Y-83311207D01*
X103564531Y-83310794D01*
X103127365Y-83491427D01*
X102792603Y-83825606D01*
X102611207Y-84262456D01*
X102610794Y-84735469D01*
X102791427Y-85172635D01*
X103125606Y-85507397D01*
X103562456Y-85688793D01*
X104035469Y-85689206D01*
X104157951Y-85638597D01*
X109633001Y-91113647D01*
X109633001Y-102234389D01*
X109365179Y-102123179D01*
X108956613Y-102122822D01*
X108579011Y-102278844D01*
X108386999Y-102470522D01*
X108386999Y-91074999D01*
X108358315Y-90930794D01*
X108344981Y-90863757D01*
X108225322Y-90684676D01*
X104938737Y-87398091D01*
X104988793Y-87277544D01*
X104989206Y-86804531D01*
X104808573Y-86367365D01*
X104474394Y-86032603D01*
X104037544Y-85851207D01*
X103564531Y-85850794D01*
X103127365Y-86031427D01*
X102792603Y-86365606D01*
X102611207Y-86802456D01*
X102610794Y-87275469D01*
X102791427Y-87712635D01*
X103125606Y-88047397D01*
X103562456Y-88228793D01*
X104035469Y-88229206D01*
X104157951Y-88178597D01*
X107282999Y-91303645D01*
X107282999Y-104364999D01*
X107325017Y-104576241D01*
X107444676Y-104755322D01*
X108145207Y-105455853D01*
X108133179Y-105484821D01*
X108132822Y-105893387D01*
X108288844Y-106270989D01*
X108577492Y-106560140D01*
X108954821Y-106716821D01*
X109363387Y-106717178D01*
X109633001Y-106605776D01*
X109633001Y-106976353D01*
X109394147Y-107215207D01*
X109365179Y-107203179D01*
X108956613Y-107202822D01*
X108579011Y-107358844D01*
X108289860Y-107647492D01*
X108133179Y-108024821D01*
X108132822Y-108433387D01*
X108288844Y-108810989D01*
X108577492Y-109100140D01*
X108954821Y-109256821D01*
X109363387Y-109257178D01*
X109740989Y-109101156D01*
X110030140Y-108812508D01*
X110186821Y-108435179D01*
X110187178Y-108026613D01*
X110174563Y-107996083D01*
X110575324Y-107595322D01*
X110694983Y-107416240D01*
X110698000Y-107401072D01*
X110698000Y-123691354D01*
X109394147Y-124995207D01*
X109365179Y-124983179D01*
X108956613Y-124982822D01*
X108579011Y-125138844D01*
X108289860Y-125427492D01*
X108133179Y-125804821D01*
X108132822Y-126213387D01*
X108288844Y-126590989D01*
X108577492Y-126880140D01*
X108954821Y-127036821D01*
X109363387Y-127037178D01*
X109740989Y-126881156D01*
X110030140Y-126592508D01*
X110186821Y-126215179D01*
X110187178Y-125806613D01*
X110174563Y-125776083D01*
X111594800Y-124355846D01*
X111594800Y-149594800D01*
X50405200Y-149594800D01*
X50405200Y-139817609D01*
X51556538Y-139817609D01*
X51571714Y-139909376D01*
X51818067Y-140329125D01*
X52206299Y-140622647D01*
X52219758Y-140626151D01*
X51998783Y-140773801D01*
X51776158Y-141106984D01*
X51697982Y-141500000D01*
X51776158Y-141893016D01*
X51998783Y-142226199D01*
X52331966Y-142448824D01*
X52589244Y-142500000D01*
X52331966Y-142551176D01*
X51998783Y-142773801D01*
X51776158Y-143106984D01*
X51697982Y-143500000D01*
X51776158Y-143893016D01*
X51998783Y-144226199D01*
X52331966Y-144448824D01*
X52411453Y-144464635D01*
X52150000Y-144464635D01*
X51991763Y-144494409D01*
X51846433Y-144587927D01*
X51748936Y-144730619D01*
X51714635Y-144900000D01*
X51714635Y-146100000D01*
X51744409Y-146258237D01*
X51837927Y-146403567D01*
X51980619Y-146501064D01*
X52150000Y-146535365D01*
X53850000Y-146535365D01*
X54008237Y-146505591D01*
X54153567Y-146412073D01*
X54251064Y-146269381D01*
X54285365Y-146100000D01*
X54285365Y-144900000D01*
X54255591Y-144741763D01*
X54162073Y-144596433D01*
X54019381Y-144498936D01*
X53850000Y-144464635D01*
X53588547Y-144464635D01*
X53668034Y-144448824D01*
X54001217Y-144226199D01*
X54223842Y-143893016D01*
X54302018Y-143500000D01*
X54223842Y-143106984D01*
X54001217Y-142773801D01*
X53668034Y-142551176D01*
X53410756Y-142500000D01*
X53668034Y-142448824D01*
X54001217Y-142226199D01*
X54223842Y-141893016D01*
X54302018Y-141500000D01*
X54290757Y-141443387D01*
X81642822Y-141443387D01*
X81798844Y-141820989D01*
X82087492Y-142110140D01*
X82464821Y-142266821D01*
X82873387Y-142267178D01*
X83250989Y-142111156D01*
X83540140Y-141822508D01*
X83693412Y-141453387D01*
X108132822Y-141453387D01*
X108288844Y-141830989D01*
X108577492Y-142120140D01*
X108954821Y-142276821D01*
X109363387Y-142277178D01*
X109740989Y-142121156D01*
X110030140Y-141832508D01*
X110186821Y-141455179D01*
X110187178Y-141046613D01*
X110031156Y-140669011D01*
X109742508Y-140379860D01*
X109365179Y-140223179D01*
X108956613Y-140222822D01*
X108579011Y-140378844D01*
X108289860Y-140667492D01*
X108133179Y-141044821D01*
X108132822Y-141453387D01*
X83693412Y-141453387D01*
X83696821Y-141445179D01*
X83697178Y-141036613D01*
X83541156Y-140659011D01*
X83252508Y-140369860D01*
X82875179Y-140213179D01*
X82466613Y-140212822D01*
X82089011Y-140368844D01*
X81799860Y-140657492D01*
X81643179Y-141034821D01*
X81642822Y-141443387D01*
X54290757Y-141443387D01*
X54223842Y-141106984D01*
X54001217Y-140773801D01*
X53780242Y-140626151D01*
X53793701Y-140622647D01*
X54181933Y-140329125D01*
X54428286Y-139909376D01*
X54443462Y-139817609D01*
X54318731Y-139627000D01*
X53127000Y-139627000D01*
X53127000Y-139647000D01*
X52873000Y-139647000D01*
X52873000Y-139627000D01*
X51681269Y-139627000D01*
X51556538Y-139817609D01*
X50405200Y-139817609D01*
X50405200Y-139182391D01*
X51556538Y-139182391D01*
X51681269Y-139373000D01*
X52873000Y-139373000D01*
X52873000Y-138417453D01*
X53127000Y-138417453D01*
X53127000Y-139373000D01*
X54318731Y-139373000D01*
X54443462Y-139182391D01*
X54428286Y-139090624D01*
X54318396Y-138903387D01*
X81642822Y-138903387D01*
X81798844Y-139280989D01*
X82087492Y-139570140D01*
X82464821Y-139726821D01*
X82873387Y-139727178D01*
X83250989Y-139571156D01*
X83540140Y-139282508D01*
X83693412Y-138913387D01*
X108132822Y-138913387D01*
X108288844Y-139290989D01*
X108577492Y-139580140D01*
X108954821Y-139736821D01*
X109363387Y-139737178D01*
X109740989Y-139581156D01*
X110030140Y-139292508D01*
X110186821Y-138915179D01*
X110187178Y-138506613D01*
X110031156Y-138129011D01*
X109742508Y-137839860D01*
X109365179Y-137683179D01*
X108956613Y-137682822D01*
X108579011Y-137838844D01*
X108289860Y-138127492D01*
X108133179Y-138504821D01*
X108132822Y-138913387D01*
X83693412Y-138913387D01*
X83696821Y-138905179D01*
X83697178Y-138496613D01*
X83541156Y-138119011D01*
X83252508Y-137829860D01*
X82875179Y-137673179D01*
X82466613Y-137672822D01*
X82089011Y-137828844D01*
X81799860Y-138117492D01*
X81643179Y-138494821D01*
X81642822Y-138903387D01*
X54318396Y-138903387D01*
X54181933Y-138670875D01*
X53793701Y-138377353D01*
X53322696Y-138254744D01*
X53127000Y-138417453D01*
X52873000Y-138417453D01*
X52677304Y-138254744D01*
X52206299Y-138377353D01*
X51818067Y-138670875D01*
X51571714Y-139090624D01*
X51556538Y-139182391D01*
X50405200Y-139182391D01*
X50405200Y-137627745D01*
X84921861Y-137627745D01*
X84995995Y-137873864D01*
X85533223Y-138066965D01*
X86103454Y-138039778D01*
X86504005Y-137873864D01*
X86578139Y-137627745D01*
X85750000Y-136799605D01*
X84921861Y-137627745D01*
X50405200Y-137627745D01*
X50405200Y-136363387D01*
X81642822Y-136363387D01*
X81798844Y-136740989D01*
X82087492Y-137030140D01*
X82464821Y-137186821D01*
X82873387Y-137187178D01*
X83250989Y-137031156D01*
X83540140Y-136742508D01*
X83681023Y-136403223D01*
X84303035Y-136403223D01*
X84330222Y-136973454D01*
X84496136Y-137374005D01*
X84742255Y-137448139D01*
X85570395Y-136620000D01*
X85929605Y-136620000D01*
X86757745Y-137448139D01*
X87003864Y-137374005D01*
X87196965Y-136836777D01*
X87174872Y-136373387D01*
X108132822Y-136373387D01*
X108288844Y-136750989D01*
X108577492Y-137040140D01*
X108954821Y-137196821D01*
X109363387Y-137197178D01*
X109740989Y-137041156D01*
X110030140Y-136752508D01*
X110186821Y-136375179D01*
X110187178Y-135966613D01*
X110031156Y-135589011D01*
X109742508Y-135299860D01*
X109365179Y-135143179D01*
X108956613Y-135142822D01*
X108579011Y-135298844D01*
X108289860Y-135587492D01*
X108133179Y-135964821D01*
X108132822Y-136373387D01*
X87174872Y-136373387D01*
X87169778Y-136266546D01*
X87003864Y-135865995D01*
X86757745Y-135791861D01*
X85929605Y-136620000D01*
X85570395Y-136620000D01*
X84742255Y-135791861D01*
X84496136Y-135865995D01*
X84303035Y-136403223D01*
X83681023Y-136403223D01*
X83696821Y-136365179D01*
X83697178Y-135956613D01*
X83554893Y-135612255D01*
X84921861Y-135612255D01*
X85750000Y-136440395D01*
X86578139Y-135612255D01*
X86504005Y-135366136D01*
X85966777Y-135173035D01*
X85396546Y-135200222D01*
X84995995Y-135366136D01*
X84921861Y-135612255D01*
X83554893Y-135612255D01*
X83541156Y-135579011D01*
X83252508Y-135289860D01*
X82875179Y-135133179D01*
X82466613Y-135132822D01*
X82089011Y-135288844D01*
X81799860Y-135577492D01*
X81643179Y-135954821D01*
X81642822Y-136363387D01*
X50405200Y-136363387D01*
X50405200Y-134482735D01*
X81986870Y-134482735D01*
X82036383Y-134708164D01*
X82501036Y-134867807D01*
X82991413Y-134837482D01*
X83303617Y-134708164D01*
X83350933Y-134492735D01*
X108476870Y-134492735D01*
X108526383Y-134718164D01*
X108991036Y-134877807D01*
X109481413Y-134847482D01*
X109793617Y-134718164D01*
X109843130Y-134492735D01*
X109160000Y-133809605D01*
X108476870Y-134492735D01*
X83350933Y-134492735D01*
X83353130Y-134482735D01*
X82670000Y-133799605D01*
X81986870Y-134482735D01*
X50405200Y-134482735D01*
X50405200Y-133073387D01*
X54472822Y-133073387D01*
X54628844Y-133450989D01*
X54917492Y-133740140D01*
X55294821Y-133896821D01*
X55703387Y-133897178D01*
X56080989Y-133741156D01*
X56370140Y-133452508D01*
X56370751Y-133451036D01*
X81422193Y-133451036D01*
X81452518Y-133941413D01*
X81581836Y-134253617D01*
X81807265Y-134303130D01*
X82490395Y-133620000D01*
X82849605Y-133620000D01*
X83532735Y-134303130D01*
X83758164Y-134253617D01*
X83917807Y-133788964D01*
X83897528Y-133461036D01*
X107912193Y-133461036D01*
X107942518Y-133951413D01*
X108071836Y-134263617D01*
X108297265Y-134313130D01*
X108980395Y-133630000D01*
X109339605Y-133630000D01*
X110022735Y-134313130D01*
X110248164Y-134263617D01*
X110407807Y-133798964D01*
X110377482Y-133308587D01*
X110248164Y-132996383D01*
X110022735Y-132946870D01*
X109339605Y-133630000D01*
X108980395Y-133630000D01*
X108297265Y-132946870D01*
X108071836Y-132996383D01*
X107912193Y-133461036D01*
X83897528Y-133461036D01*
X83887482Y-133298587D01*
X83758164Y-132986383D01*
X83532735Y-132936870D01*
X82849605Y-133620000D01*
X82490395Y-133620000D01*
X81807265Y-132936870D01*
X81581836Y-132986383D01*
X81422193Y-133451036D01*
X56370751Y-133451036D01*
X56382808Y-133422000D01*
X70720000Y-133422000D01*
X70931242Y-133379982D01*
X71110323Y-133260323D01*
X71613381Y-132757265D01*
X81986870Y-132757265D01*
X82670000Y-133440395D01*
X83343130Y-132767265D01*
X108476870Y-132767265D01*
X109160000Y-133450395D01*
X109843130Y-132767265D01*
X109793617Y-132541836D01*
X109328964Y-132382193D01*
X108838587Y-132412518D01*
X108526383Y-132541836D01*
X108476870Y-132767265D01*
X83343130Y-132767265D01*
X83353130Y-132757265D01*
X83303617Y-132531836D01*
X82838964Y-132372193D01*
X82348587Y-132402518D01*
X82036383Y-132531836D01*
X81986870Y-132757265D01*
X71613381Y-132757265D01*
X73087259Y-131283387D01*
X81642822Y-131283387D01*
X81798844Y-131660989D01*
X82087492Y-131950140D01*
X82464821Y-132106821D01*
X82873387Y-132107178D01*
X83250989Y-131951156D01*
X83540140Y-131662508D01*
X83693412Y-131293387D01*
X87812822Y-131293387D01*
X87968844Y-131670989D01*
X88257492Y-131960140D01*
X88634821Y-132116821D01*
X89043387Y-132117178D01*
X89420989Y-131961156D01*
X89710140Y-131672508D01*
X89866821Y-131295179D01*
X89866822Y-131293387D01*
X108132822Y-131293387D01*
X108288844Y-131670989D01*
X108577492Y-131960140D01*
X108954821Y-132116821D01*
X109363387Y-132117178D01*
X109740989Y-131961156D01*
X110030140Y-131672508D01*
X110186821Y-131295179D01*
X110187178Y-130886613D01*
X110031156Y-130509011D01*
X109742508Y-130219860D01*
X109365179Y-130063179D01*
X108956613Y-130062822D01*
X108579011Y-130218844D01*
X108289860Y-130507492D01*
X108133179Y-130884821D01*
X108132822Y-131293387D01*
X89866822Y-131293387D01*
X89867178Y-130886613D01*
X89711156Y-130509011D01*
X89422508Y-130219860D01*
X89045179Y-130063179D01*
X88636613Y-130062822D01*
X88259011Y-130218844D01*
X87969860Y-130507492D01*
X87813179Y-130884821D01*
X87812822Y-131293387D01*
X83693412Y-131293387D01*
X83696821Y-131285179D01*
X83697178Y-130876613D01*
X83541156Y-130499011D01*
X83252508Y-130209860D01*
X82875179Y-130053179D01*
X82466613Y-130052822D01*
X82089011Y-130208844D01*
X81799860Y-130497492D01*
X81643179Y-130874821D01*
X81642822Y-131283387D01*
X73087259Y-131283387D01*
X75627259Y-128743387D01*
X81642822Y-128743387D01*
X81798844Y-129120989D01*
X82087492Y-129410140D01*
X82464821Y-129566821D01*
X82873387Y-129567178D01*
X83250989Y-129411156D01*
X83540140Y-129122508D01*
X83696821Y-128745179D01*
X83697178Y-128336613D01*
X83541156Y-127959011D01*
X83252508Y-127669860D01*
X82875179Y-127513179D01*
X82466613Y-127512822D01*
X82089011Y-127668844D01*
X81799860Y-127957492D01*
X81643179Y-128334821D01*
X81642822Y-128743387D01*
X75627259Y-128743387D01*
X78167259Y-126203387D01*
X81642822Y-126203387D01*
X81798844Y-126580989D01*
X82087492Y-126870140D01*
X82464821Y-127026821D01*
X82873387Y-127027178D01*
X83250989Y-126871156D01*
X83540140Y-126582508D01*
X83696821Y-126205179D01*
X83697178Y-125796613D01*
X83541156Y-125419011D01*
X83252508Y-125129860D01*
X82875179Y-124973179D01*
X82466613Y-124972822D01*
X82089011Y-125128844D01*
X81799860Y-125417492D01*
X81643179Y-125794821D01*
X81642822Y-126203387D01*
X78167259Y-126203387D01*
X80707259Y-123663387D01*
X81642822Y-123663387D01*
X81798844Y-124040989D01*
X82087492Y-124330140D01*
X82464821Y-124486821D01*
X82873387Y-124487178D01*
X83250989Y-124331156D01*
X83540140Y-124042508D01*
X83696821Y-123665179D01*
X83697178Y-123256613D01*
X83541156Y-122879011D01*
X83252508Y-122589860D01*
X82875179Y-122433179D01*
X82466613Y-122432822D01*
X82089011Y-122588844D01*
X81799860Y-122877492D01*
X81643179Y-123254821D01*
X81642822Y-123663387D01*
X80707259Y-123663387D01*
X82435853Y-121934793D01*
X82464821Y-121946821D01*
X82873387Y-121947178D01*
X83250989Y-121791156D01*
X83540140Y-121502508D01*
X83696821Y-121125179D01*
X83697178Y-120716613D01*
X83541156Y-120339011D01*
X83252508Y-120049860D01*
X82875179Y-119893179D01*
X82466613Y-119892822D01*
X82089011Y-120048844D01*
X81799860Y-120337492D01*
X81643179Y-120714821D01*
X81642822Y-121123387D01*
X81655437Y-121153917D01*
X70491354Y-132318000D01*
X56383134Y-132318000D01*
X56371156Y-132289011D01*
X56082508Y-131999860D01*
X55705179Y-131843179D01*
X55296613Y-131842822D01*
X54919011Y-131998844D01*
X54629860Y-132287492D01*
X54473179Y-132664821D01*
X54472822Y-133073387D01*
X50405200Y-133073387D01*
X50405200Y-130533387D01*
X54472822Y-130533387D01*
X54628844Y-130910989D01*
X54917492Y-131200140D01*
X55294821Y-131356821D01*
X55703387Y-131357178D01*
X55881974Y-131283387D01*
X61322822Y-131283387D01*
X61478844Y-131660989D01*
X61767492Y-131950140D01*
X62144821Y-132106821D01*
X62553387Y-132107178D01*
X62930989Y-131951156D01*
X63220140Y-131662508D01*
X63376821Y-131285179D01*
X63377178Y-130876613D01*
X63221156Y-130499011D01*
X62932508Y-130209860D01*
X62555179Y-130053179D01*
X62146613Y-130052822D01*
X61769011Y-130208844D01*
X61479860Y-130497492D01*
X61323179Y-130874821D01*
X61322822Y-131283387D01*
X55881974Y-131283387D01*
X56080989Y-131201156D01*
X56370140Y-130912508D01*
X56526821Y-130535179D01*
X56526876Y-130472678D01*
X58256167Y-128743387D01*
X61322822Y-128743387D01*
X61478844Y-129120989D01*
X61767492Y-129410140D01*
X62144821Y-129566821D01*
X62553387Y-129567178D01*
X62930989Y-129411156D01*
X63220140Y-129122508D01*
X63376821Y-128745179D01*
X63377178Y-128336613D01*
X63221156Y-127959011D01*
X62932508Y-127669860D01*
X62555179Y-127513179D01*
X62146613Y-127512822D01*
X61769011Y-127668844D01*
X61479860Y-127957492D01*
X61323179Y-128334821D01*
X61322822Y-128743387D01*
X58256167Y-128743387D01*
X60172555Y-126827000D01*
X61724427Y-126827000D01*
X61767492Y-126870140D01*
X62144821Y-127026821D01*
X62553387Y-127027178D01*
X62930989Y-126871156D01*
X63220140Y-126582508D01*
X63376821Y-126205179D01*
X63376876Y-126142678D01*
X70936167Y-118583387D01*
X81642822Y-118583387D01*
X81798844Y-118960989D01*
X82087492Y-119250140D01*
X82464821Y-119406821D01*
X82873387Y-119407178D01*
X82903917Y-119394563D01*
X86962999Y-123453645D01*
X86962999Y-126996353D01*
X86159676Y-127799676D01*
X86141525Y-127826841D01*
X85750000Y-127748962D01*
X85280447Y-127842362D01*
X84882380Y-128108342D01*
X84616400Y-128506409D01*
X84523000Y-128975962D01*
X84523000Y-129024038D01*
X84616400Y-129493591D01*
X84882380Y-129891658D01*
X85280447Y-130157638D01*
X85750000Y-130251038D01*
X86219553Y-130157638D01*
X86617620Y-129891658D01*
X86883600Y-129493591D01*
X86977000Y-129024038D01*
X86977000Y-128975962D01*
X86906933Y-128623713D01*
X86940322Y-128590324D01*
X86960463Y-128560181D01*
X87514999Y-128005645D01*
X87825207Y-128315853D01*
X87813179Y-128344821D01*
X87812822Y-128753387D01*
X87968844Y-129130989D01*
X88257492Y-129420140D01*
X88634821Y-129576821D01*
X89043387Y-129577178D01*
X89420989Y-129421156D01*
X89710140Y-129132508D01*
X89866821Y-128755179D01*
X89867178Y-128346613D01*
X89711156Y-127969011D01*
X89422508Y-127679860D01*
X89045179Y-127523179D01*
X88636613Y-127522822D01*
X88606083Y-127535437D01*
X88066999Y-126996353D01*
X88066999Y-126689315D01*
X88257492Y-126880140D01*
X88634821Y-127036821D01*
X89043387Y-127037178D01*
X89420989Y-126881156D01*
X89710140Y-126592508D01*
X89866821Y-126215179D01*
X89867178Y-125806613D01*
X89711156Y-125429011D01*
X89422508Y-125139860D01*
X89045179Y-124983179D01*
X88636613Y-124982822D01*
X88259011Y-125138844D01*
X88066999Y-125330522D01*
X88066999Y-124149315D01*
X88257492Y-124340140D01*
X88634821Y-124496821D01*
X89043387Y-124497178D01*
X89420989Y-124341156D01*
X89710140Y-124052508D01*
X89725894Y-124014567D01*
X89899770Y-123979982D01*
X90078851Y-123860323D01*
X94640323Y-119298851D01*
X94759982Y-119119769D01*
X94802000Y-118908528D01*
X94802000Y-113943975D01*
X94872874Y-113943975D01*
X94983320Y-114211275D01*
X95048000Y-114276068D01*
X95048000Y-121004000D01*
X95090018Y-121215242D01*
X95209677Y-121394323D01*
X102661263Y-128845909D01*
X102611207Y-128966456D01*
X102610794Y-129439469D01*
X102791427Y-129876635D01*
X103125606Y-130211397D01*
X103562456Y-130392793D01*
X104035469Y-130393206D01*
X104472635Y-130212573D01*
X104807397Y-129878394D01*
X104988793Y-129441544D01*
X104989206Y-128968531D01*
X104900311Y-128753387D01*
X108132822Y-128753387D01*
X108288844Y-129130989D01*
X108577492Y-129420140D01*
X108954821Y-129576821D01*
X109363387Y-129577178D01*
X109740989Y-129421156D01*
X110030140Y-129132508D01*
X110186821Y-128755179D01*
X110187178Y-128346613D01*
X110031156Y-127969011D01*
X109742508Y-127679860D01*
X109365179Y-127523179D01*
X108956613Y-127522822D01*
X108579011Y-127678844D01*
X108289860Y-127967492D01*
X108133179Y-128344821D01*
X108132822Y-128753387D01*
X104900311Y-128753387D01*
X104808573Y-128531365D01*
X104474394Y-128196603D01*
X104037544Y-128015207D01*
X103564531Y-128014794D01*
X103442049Y-128065403D01*
X96152000Y-120775354D01*
X96152000Y-119584150D01*
X96190008Y-119775232D01*
X96309667Y-119954313D01*
X102661263Y-126305909D01*
X102611207Y-126426456D01*
X102610794Y-126899469D01*
X102791427Y-127336635D01*
X103125606Y-127671397D01*
X103562456Y-127852793D01*
X104035469Y-127853206D01*
X104472635Y-127672573D01*
X104807397Y-127338394D01*
X104988793Y-126901544D01*
X104989206Y-126428531D01*
X104808573Y-125991365D01*
X104474394Y-125656603D01*
X104037544Y-125475207D01*
X103564531Y-125474794D01*
X103442049Y-125525403D01*
X102276115Y-124359469D01*
X102610794Y-124359469D01*
X102791427Y-124796635D01*
X103125606Y-125131397D01*
X103562456Y-125312793D01*
X104035469Y-125313206D01*
X104472635Y-125132573D01*
X104807397Y-124798394D01*
X104988793Y-124361544D01*
X104989206Y-123888531D01*
X104900311Y-123673387D01*
X108132822Y-123673387D01*
X108288844Y-124050989D01*
X108577492Y-124340140D01*
X108954821Y-124496821D01*
X109363387Y-124497178D01*
X109740989Y-124341156D01*
X110030140Y-124052508D01*
X110186821Y-123675179D01*
X110187178Y-123266613D01*
X110031156Y-122889011D01*
X109742508Y-122599860D01*
X109365179Y-122443179D01*
X108956613Y-122442822D01*
X108579011Y-122598844D01*
X108289860Y-122887492D01*
X108133179Y-123264821D01*
X108132822Y-123673387D01*
X104900311Y-123673387D01*
X104808573Y-123451365D01*
X104474394Y-123116603D01*
X104037544Y-122935207D01*
X103564531Y-122934794D01*
X103127365Y-123115427D01*
X102792603Y-123449606D01*
X102611207Y-123886456D01*
X102610794Y-124359469D01*
X102276115Y-124359469D01*
X99736115Y-121819469D01*
X102610794Y-121819469D01*
X102791427Y-122256635D01*
X103125606Y-122591397D01*
X103562456Y-122772793D01*
X104035469Y-122773206D01*
X104472635Y-122592573D01*
X104807397Y-122258394D01*
X104988793Y-121821544D01*
X104989206Y-121348531D01*
X104900311Y-121133387D01*
X108132822Y-121133387D01*
X108288844Y-121510989D01*
X108577492Y-121800140D01*
X108954821Y-121956821D01*
X109363387Y-121957178D01*
X109740989Y-121801156D01*
X110030140Y-121512508D01*
X110186821Y-121135179D01*
X110187178Y-120726613D01*
X110031156Y-120349011D01*
X109742508Y-120059860D01*
X109365179Y-119903179D01*
X108956613Y-119902822D01*
X108579011Y-120058844D01*
X108289860Y-120347492D01*
X108133179Y-120724821D01*
X108132822Y-121133387D01*
X104900311Y-121133387D01*
X104808573Y-120911365D01*
X104474394Y-120576603D01*
X104037544Y-120395207D01*
X103564531Y-120394794D01*
X103127365Y-120575427D01*
X102792603Y-120909606D01*
X102611207Y-121346456D01*
X102610794Y-121819469D01*
X99736115Y-121819469D01*
X97251990Y-119335344D01*
X97251990Y-119279469D01*
X102610794Y-119279469D01*
X102791427Y-119716635D01*
X103125606Y-120051397D01*
X103562456Y-120232793D01*
X104035469Y-120233206D01*
X104472635Y-120052573D01*
X104807397Y-119718394D01*
X104988793Y-119281544D01*
X104989206Y-118808531D01*
X104900311Y-118593387D01*
X108132822Y-118593387D01*
X108288844Y-118970989D01*
X108577492Y-119260140D01*
X108954821Y-119416821D01*
X109363387Y-119417178D01*
X109740989Y-119261156D01*
X110030140Y-118972508D01*
X110186821Y-118595179D01*
X110187178Y-118186613D01*
X110031156Y-117809011D01*
X109742508Y-117519860D01*
X109365179Y-117363179D01*
X108956613Y-117362822D01*
X108579011Y-117518844D01*
X108289860Y-117807492D01*
X108133179Y-118184821D01*
X108132822Y-118593387D01*
X104900311Y-118593387D01*
X104808573Y-118371365D01*
X104474394Y-118036603D01*
X104037544Y-117855207D01*
X103564531Y-117854794D01*
X103127365Y-118035427D01*
X102792603Y-118369606D01*
X102611207Y-118806456D01*
X102610794Y-119279469D01*
X97251990Y-119279469D01*
X97251990Y-116739469D01*
X102610794Y-116739469D01*
X102791427Y-117176635D01*
X103125606Y-117511397D01*
X103562456Y-117692793D01*
X104035469Y-117693206D01*
X104472635Y-117512573D01*
X104807397Y-117178394D01*
X104988793Y-116741544D01*
X104989206Y-116268531D01*
X104900311Y-116053387D01*
X108132822Y-116053387D01*
X108288844Y-116430989D01*
X108577492Y-116720140D01*
X108954821Y-116876821D01*
X109363387Y-116877178D01*
X109740989Y-116721156D01*
X110030140Y-116432508D01*
X110186821Y-116055179D01*
X110187178Y-115646613D01*
X110031156Y-115269011D01*
X109742508Y-114979860D01*
X109365179Y-114823179D01*
X108956613Y-114822822D01*
X108579011Y-114978844D01*
X108289860Y-115267492D01*
X108133179Y-115644821D01*
X108132822Y-116053387D01*
X104900311Y-116053387D01*
X104808573Y-115831365D01*
X104474394Y-115496603D01*
X104037544Y-115315207D01*
X103564531Y-115314794D01*
X103127365Y-115495427D01*
X102792603Y-115829606D01*
X102611207Y-116266456D01*
X102610794Y-116739469D01*
X97251990Y-116739469D01*
X97251990Y-114199469D01*
X102610794Y-114199469D01*
X102791427Y-114636635D01*
X103125606Y-114971397D01*
X103562456Y-115152793D01*
X104035469Y-115153206D01*
X104472635Y-114972573D01*
X104807397Y-114638394D01*
X104988793Y-114201544D01*
X104989206Y-113728531D01*
X104900311Y-113513387D01*
X108132822Y-113513387D01*
X108288844Y-113890989D01*
X108577492Y-114180140D01*
X108954821Y-114336821D01*
X109363387Y-114337178D01*
X109740989Y-114181156D01*
X110030140Y-113892508D01*
X110186821Y-113515179D01*
X110187178Y-113106613D01*
X110031156Y-112729011D01*
X109742508Y-112439860D01*
X109365179Y-112283179D01*
X108956613Y-112282822D01*
X108579011Y-112438844D01*
X108289860Y-112727492D01*
X108133179Y-113104821D01*
X108132822Y-113513387D01*
X104900311Y-113513387D01*
X104808573Y-113291365D01*
X104474394Y-112956603D01*
X104037544Y-112775207D01*
X103564531Y-112774794D01*
X103127365Y-112955427D01*
X102792603Y-113289606D01*
X102611207Y-113726456D01*
X102610794Y-114199469D01*
X97251990Y-114199469D01*
X97251990Y-112868240D01*
X97315951Y-112804390D01*
X97426864Y-112537284D01*
X97427116Y-112248065D01*
X97316670Y-111980765D01*
X97112340Y-111776079D01*
X96845234Y-111665166D01*
X96556015Y-111664914D01*
X96288715Y-111775360D01*
X96084029Y-111979690D01*
X95973116Y-112246796D01*
X95972864Y-112536015D01*
X96083310Y-112803315D01*
X96147990Y-112868108D01*
X96147990Y-113319915D01*
X96012350Y-113184039D01*
X95745244Y-113073126D01*
X95456025Y-113072874D01*
X95188725Y-113183320D01*
X94984039Y-113387650D01*
X94873126Y-113654756D01*
X94872874Y-113943975D01*
X94802000Y-113943975D01*
X94802000Y-113208646D01*
X96351177Y-111659469D01*
X102610794Y-111659469D01*
X102791427Y-112096635D01*
X103125606Y-112431397D01*
X103562456Y-112612793D01*
X104035469Y-112613206D01*
X104472635Y-112432573D01*
X104807397Y-112098394D01*
X104988793Y-111661544D01*
X104989206Y-111188531D01*
X104900311Y-110973387D01*
X108132822Y-110973387D01*
X108288844Y-111350989D01*
X108577492Y-111640140D01*
X108954821Y-111796821D01*
X109363387Y-111797178D01*
X109740989Y-111641156D01*
X110030140Y-111352508D01*
X110186821Y-110975179D01*
X110187178Y-110566613D01*
X110031156Y-110189011D01*
X109742508Y-109899860D01*
X109365179Y-109743179D01*
X108956613Y-109742822D01*
X108579011Y-109898844D01*
X108289860Y-110187492D01*
X108133179Y-110564821D01*
X108132822Y-110973387D01*
X104900311Y-110973387D01*
X104808573Y-110751365D01*
X104474394Y-110416603D01*
X104037544Y-110235207D01*
X103564531Y-110234794D01*
X103127365Y-110415427D01*
X102792603Y-110749606D01*
X102611207Y-111186456D01*
X102610794Y-111659469D01*
X96351177Y-111659469D01*
X98891177Y-109119469D01*
X102610794Y-109119469D01*
X102791427Y-109556635D01*
X103125606Y-109891397D01*
X103562456Y-110072793D01*
X104035469Y-110073206D01*
X104472635Y-109892573D01*
X104807397Y-109558394D01*
X104988793Y-109121544D01*
X104989206Y-108648531D01*
X104808573Y-108211365D01*
X104474394Y-107876603D01*
X104037544Y-107695207D01*
X103564531Y-107694794D01*
X103127365Y-107875427D01*
X102792603Y-108209606D01*
X102611207Y-108646456D01*
X102610794Y-109119469D01*
X98891177Y-109119469D01*
X101114646Y-106896000D01*
X102741582Y-106896000D01*
X102791427Y-107016635D01*
X103125606Y-107351397D01*
X103562456Y-107532793D01*
X104035469Y-107533206D01*
X104472635Y-107352573D01*
X104807397Y-107018394D01*
X104988793Y-106581544D01*
X104989206Y-106108531D01*
X104808573Y-105671365D01*
X104474394Y-105336603D01*
X104037544Y-105155207D01*
X103564531Y-105154794D01*
X103127365Y-105335427D01*
X102792603Y-105669606D01*
X102741781Y-105792000D01*
X100886000Y-105792000D01*
X100674758Y-105834018D01*
X100495677Y-105953677D01*
X93859677Y-112589677D01*
X93740018Y-112768758D01*
X93730561Y-112816304D01*
X93698000Y-112980000D01*
X93698000Y-118679882D01*
X89600110Y-122777772D01*
X89422508Y-122599860D01*
X89045179Y-122443179D01*
X88636613Y-122442822D01*
X88259011Y-122598844D01*
X87969860Y-122887492D01*
X87958650Y-122914488D01*
X87905322Y-122834676D01*
X86204033Y-121133387D01*
X87812822Y-121133387D01*
X87968844Y-121510989D01*
X88257492Y-121800140D01*
X88634821Y-121956821D01*
X89043387Y-121957178D01*
X89420989Y-121801156D01*
X89710140Y-121512508D01*
X89866821Y-121135179D01*
X89867178Y-120726613D01*
X89854563Y-120696083D01*
X93140323Y-117410323D01*
X93185754Y-117342331D01*
X93259982Y-117231241D01*
X93302000Y-117020000D01*
X93302000Y-111978646D01*
X102448646Y-102832000D01*
X102741582Y-102832000D01*
X102791427Y-102952635D01*
X103125606Y-103287397D01*
X103562456Y-103468793D01*
X104035469Y-103469206D01*
X104472635Y-103288573D01*
X104807397Y-102954394D01*
X104988793Y-102517544D01*
X104989206Y-102044531D01*
X104808573Y-101607365D01*
X104474394Y-101272603D01*
X104037544Y-101091207D01*
X103564531Y-101090794D01*
X103127365Y-101271427D01*
X102792603Y-101605606D01*
X102741781Y-101728000D01*
X102220000Y-101728000D01*
X102008759Y-101770018D01*
X102008757Y-101770019D01*
X102008758Y-101770019D01*
X101829677Y-101889677D01*
X92359677Y-111359677D01*
X92240018Y-111538758D01*
X92215595Y-111661544D01*
X92198000Y-111750000D01*
X92198000Y-116791354D01*
X89109950Y-119879404D01*
X89063181Y-119910654D01*
X89045179Y-119903179D01*
X88636613Y-119902822D01*
X88259011Y-120058844D01*
X87969860Y-120347492D01*
X87813179Y-120724821D01*
X87812822Y-121133387D01*
X86204033Y-121133387D01*
X83684793Y-118614147D01*
X83696821Y-118585179D01*
X83697178Y-118176613D01*
X83541156Y-117799011D01*
X83252508Y-117509860D01*
X82875179Y-117353179D01*
X82466613Y-117352822D01*
X82089011Y-117508844D01*
X81799860Y-117797492D01*
X81643179Y-118174821D01*
X81642822Y-118583387D01*
X70936167Y-118583387D01*
X73476167Y-116043387D01*
X81642822Y-116043387D01*
X81798844Y-116420989D01*
X82087492Y-116710140D01*
X82464821Y-116866821D01*
X82873387Y-116867178D01*
X83250989Y-116711156D01*
X83540140Y-116422508D01*
X83696821Y-116045179D01*
X83697178Y-115636613D01*
X83541156Y-115259011D01*
X83252508Y-114969860D01*
X82875179Y-114813179D01*
X82466613Y-114812822D01*
X82089011Y-114968844D01*
X81799860Y-115257492D01*
X81643179Y-115634821D01*
X81642822Y-116043387D01*
X73476167Y-116043387D01*
X74875579Y-114643975D01*
X83522874Y-114643975D01*
X83633320Y-114911275D01*
X83698000Y-114976068D01*
X83698000Y-115000000D01*
X83740018Y-115211242D01*
X83859677Y-115390323D01*
X87249677Y-118780323D01*
X87428758Y-118899982D01*
X87640000Y-118942000D01*
X87956866Y-118942000D01*
X87968844Y-118970989D01*
X88257492Y-119260140D01*
X88634821Y-119416821D01*
X89043387Y-119417178D01*
X89420989Y-119261156D01*
X89710140Y-118972508D01*
X89866821Y-118595179D01*
X89867178Y-118186613D01*
X89711156Y-117809011D01*
X89422508Y-117519860D01*
X89045179Y-117363179D01*
X88636613Y-117362822D01*
X88259011Y-117518844D01*
X87969860Y-117807492D01*
X87957192Y-117838000D01*
X87868646Y-117838000D01*
X84888564Y-114857918D01*
X84976874Y-114645244D01*
X84977126Y-114356025D01*
X84866680Y-114088725D01*
X84662350Y-113884039D01*
X84395244Y-113773126D01*
X84106025Y-113772874D01*
X83838725Y-113883320D01*
X83634039Y-114087650D01*
X83523126Y-114354756D01*
X83522874Y-114643975D01*
X74875579Y-114643975D01*
X76016167Y-113503387D01*
X81642822Y-113503387D01*
X81798844Y-113880989D01*
X82087492Y-114170140D01*
X82464821Y-114326821D01*
X82873387Y-114327178D01*
X83250989Y-114171156D01*
X83540140Y-113882508D01*
X83696821Y-113505179D01*
X83697178Y-113096613D01*
X83541156Y-112719011D01*
X83252508Y-112429860D01*
X82875179Y-112273179D01*
X82466613Y-112272822D01*
X82089011Y-112428844D01*
X81799860Y-112717492D01*
X81643179Y-113094821D01*
X81642822Y-113503387D01*
X76016167Y-113503387D01*
X77084777Y-112434777D01*
X77264048Y-112166479D01*
X77327000Y-111850000D01*
X77327000Y-110963387D01*
X81642822Y-110963387D01*
X81798844Y-111340989D01*
X82087492Y-111630140D01*
X82464821Y-111786821D01*
X82873387Y-111787178D01*
X83250989Y-111631156D01*
X83540140Y-111342508D01*
X83696821Y-110965179D01*
X83697178Y-110556613D01*
X83541156Y-110179011D01*
X83252508Y-109889860D01*
X82875179Y-109733179D01*
X82466613Y-109732822D01*
X82089011Y-109888844D01*
X81799860Y-110177492D01*
X81643179Y-110554821D01*
X81642822Y-110963387D01*
X77327000Y-110963387D01*
X77327000Y-108423387D01*
X81642822Y-108423387D01*
X81798844Y-108800989D01*
X82087492Y-109090140D01*
X82464821Y-109246821D01*
X82873387Y-109247178D01*
X82903917Y-109234563D01*
X83698000Y-110028646D01*
X83698000Y-112500000D01*
X83740018Y-112711242D01*
X83859677Y-112890323D01*
X87209677Y-116240323D01*
X87388759Y-116359982D01*
X87600000Y-116402000D01*
X87956866Y-116402000D01*
X87968844Y-116430989D01*
X88257492Y-116720140D01*
X88634821Y-116876821D01*
X89043387Y-116877178D01*
X89420989Y-116721156D01*
X89710140Y-116432508D01*
X89866821Y-116055179D01*
X89867178Y-115646613D01*
X89711156Y-115269011D01*
X89422508Y-114979860D01*
X89045179Y-114823179D01*
X88636613Y-114822822D01*
X88259011Y-114978844D01*
X87969860Y-115267492D01*
X87957192Y-115298000D01*
X87828646Y-115298000D01*
X86044033Y-113513387D01*
X87812822Y-113513387D01*
X87968844Y-113890989D01*
X88257492Y-114180140D01*
X88634821Y-114336821D01*
X89043387Y-114337178D01*
X89420989Y-114181156D01*
X89710140Y-113892508D01*
X89866821Y-113515179D01*
X89867178Y-113106613D01*
X89854563Y-113076083D01*
X102638646Y-100292000D01*
X102741582Y-100292000D01*
X102791427Y-100412635D01*
X103125606Y-100747397D01*
X103562456Y-100928793D01*
X104035469Y-100929206D01*
X104472635Y-100748573D01*
X104807397Y-100414394D01*
X104988793Y-99977544D01*
X104989206Y-99504531D01*
X104808573Y-99067365D01*
X104474394Y-98732603D01*
X104037544Y-98551207D01*
X103564531Y-98550794D01*
X103127365Y-98731427D01*
X102792603Y-99065606D01*
X102741781Y-99188000D01*
X102410000Y-99188000D01*
X102198758Y-99230018D01*
X102019677Y-99349677D01*
X89074147Y-112295207D01*
X89045179Y-112283179D01*
X88636613Y-112282822D01*
X88259011Y-112438844D01*
X87969860Y-112727492D01*
X87813179Y-113104821D01*
X87812822Y-113513387D01*
X86044033Y-113513387D01*
X84802000Y-112271354D01*
X84802000Y-110973387D01*
X87812822Y-110973387D01*
X87968844Y-111350989D01*
X88257492Y-111640140D01*
X88634821Y-111796821D01*
X89043387Y-111797178D01*
X89420989Y-111641156D01*
X89710140Y-111352508D01*
X89866821Y-110975179D01*
X89867178Y-110566613D01*
X89854563Y-110536083D01*
X102703322Y-97687324D01*
X102710450Y-97676656D01*
X102791427Y-97872635D01*
X103125606Y-98207397D01*
X103562456Y-98388793D01*
X104035469Y-98389206D01*
X104472635Y-98208573D01*
X104807397Y-97874394D01*
X104988793Y-97437544D01*
X104989206Y-96964531D01*
X104808573Y-96527365D01*
X104474394Y-96192603D01*
X104037544Y-96011207D01*
X103564531Y-96010794D01*
X103127365Y-96191427D01*
X102864999Y-96453336D01*
X102864999Y-95406335D01*
X103125606Y-95667397D01*
X103562456Y-95848793D01*
X104035469Y-95849206D01*
X104472635Y-95668573D01*
X104807397Y-95334394D01*
X104988793Y-94897544D01*
X104989206Y-94424531D01*
X104808573Y-93987365D01*
X104474394Y-93652603D01*
X104037544Y-93471207D01*
X103564531Y-93470794D01*
X103127365Y-93651427D01*
X102864999Y-93913336D01*
X102864999Y-93835647D01*
X103441909Y-93258737D01*
X103562456Y-93308793D01*
X104035469Y-93309206D01*
X104472635Y-93128573D01*
X104807397Y-92794394D01*
X104988793Y-92357544D01*
X104989206Y-91884531D01*
X104808573Y-91447365D01*
X104474394Y-91112603D01*
X104037544Y-90931207D01*
X103564531Y-90930794D01*
X103127365Y-91111427D01*
X102792603Y-91445606D01*
X102611207Y-91882456D01*
X102610794Y-92355469D01*
X102661403Y-92477951D01*
X101922676Y-93216678D01*
X101803017Y-93395759D01*
X101803017Y-93395760D01*
X101760999Y-93607001D01*
X101760999Y-97068355D01*
X89074147Y-109755207D01*
X89045179Y-109743179D01*
X88636613Y-109742822D01*
X88259011Y-109898844D01*
X87969860Y-110187492D01*
X87813179Y-110564821D01*
X87812822Y-110973387D01*
X84802000Y-110973387D01*
X84802000Y-109800000D01*
X84759982Y-109588759D01*
X84759982Y-109588758D01*
X84640323Y-109409677D01*
X83684793Y-108454147D01*
X83693412Y-108433387D01*
X87812822Y-108433387D01*
X87968844Y-108810989D01*
X88257492Y-109100140D01*
X88634821Y-109256821D01*
X89043387Y-109257178D01*
X89420989Y-109101156D01*
X89710140Y-108812508D01*
X89866821Y-108435179D01*
X89867178Y-108026613D01*
X89854563Y-107996083D01*
X98790323Y-99060323D01*
X98909982Y-98881242D01*
X98952000Y-98670000D01*
X98952000Y-95208646D01*
X103441909Y-90718737D01*
X103562456Y-90768793D01*
X104035469Y-90769206D01*
X104472635Y-90588573D01*
X104807397Y-90254394D01*
X104988793Y-89817544D01*
X104989206Y-89344531D01*
X104808573Y-88907365D01*
X104474394Y-88572603D01*
X104037544Y-88391207D01*
X103564531Y-88390794D01*
X103127365Y-88571427D01*
X102792603Y-88905606D01*
X102611207Y-89342456D01*
X102610794Y-89815469D01*
X102661403Y-89937951D01*
X98009677Y-94589677D01*
X97890018Y-94768758D01*
X97890018Y-94768759D01*
X97848000Y-94980000D01*
X97848000Y-98441354D01*
X89074147Y-107215207D01*
X89045179Y-107203179D01*
X88636613Y-107202822D01*
X88259011Y-107358844D01*
X87969860Y-107647492D01*
X87813179Y-108024821D01*
X87812822Y-108433387D01*
X83693412Y-108433387D01*
X83696821Y-108425179D01*
X83697178Y-108016613D01*
X83541156Y-107639011D01*
X83252508Y-107349860D01*
X82875179Y-107193179D01*
X82466613Y-107192822D01*
X82089011Y-107348844D01*
X81799860Y-107637492D01*
X81643179Y-108014821D01*
X81642822Y-108423387D01*
X77327000Y-108423387D01*
X77327000Y-105883387D01*
X81642822Y-105883387D01*
X81798844Y-106260989D01*
X82087492Y-106550140D01*
X82464821Y-106706821D01*
X82873387Y-106707178D01*
X83250989Y-106551156D01*
X83540140Y-106262508D01*
X83696821Y-105885179D01*
X83697178Y-105476613D01*
X83541156Y-105099011D01*
X83252508Y-104809860D01*
X82875179Y-104653179D01*
X82466613Y-104652822D01*
X82089011Y-104808844D01*
X81799860Y-105097492D01*
X81643179Y-105474821D01*
X81642822Y-105883387D01*
X77327000Y-105883387D01*
X77327000Y-103343387D01*
X81642822Y-103343387D01*
X81798844Y-103720989D01*
X82087492Y-104010140D01*
X82464821Y-104166821D01*
X82873387Y-104167178D01*
X83250989Y-104011156D01*
X83540140Y-103722508D01*
X83696821Y-103345179D01*
X83697178Y-102936613D01*
X83541156Y-102559011D01*
X83252508Y-102269860D01*
X82875179Y-102113179D01*
X82466613Y-102112822D01*
X82089011Y-102268844D01*
X81799860Y-102557492D01*
X81643179Y-102934821D01*
X81642822Y-103343387D01*
X77327000Y-103343387D01*
X77327000Y-101577000D01*
X77910000Y-101577000D01*
X78226479Y-101514048D01*
X78494777Y-101334777D01*
X81538281Y-98291273D01*
X81496762Y-98500000D01*
X81559714Y-98816479D01*
X81738985Y-99084777D01*
X82007283Y-99264048D01*
X82323762Y-99327000D01*
X82640241Y-99264048D01*
X82908539Y-99084777D01*
X88288000Y-93705316D01*
X88288000Y-102266866D01*
X88259011Y-102278844D01*
X87969860Y-102567492D01*
X87813179Y-102944821D01*
X87812822Y-103353387D01*
X87968844Y-103730989D01*
X88257492Y-104020140D01*
X88634821Y-104176821D01*
X89043387Y-104177178D01*
X89420989Y-104021156D01*
X89613001Y-103829478D01*
X89613001Y-104136353D01*
X89074147Y-104675207D01*
X89045179Y-104663179D01*
X88636613Y-104662822D01*
X88259011Y-104818844D01*
X87969860Y-105107492D01*
X87813179Y-105484821D01*
X87812822Y-105893387D01*
X87968844Y-106270989D01*
X88257492Y-106560140D01*
X88634821Y-106716821D01*
X89043387Y-106717178D01*
X89420989Y-106561156D01*
X89710140Y-106272508D01*
X89866821Y-105895179D01*
X89867178Y-105486613D01*
X89854563Y-105456083D01*
X90555324Y-104755322D01*
X90616892Y-104663179D01*
X90674983Y-104576240D01*
X90717001Y-104364999D01*
X90717001Y-92831979D01*
X101513230Y-82035750D01*
X107515000Y-82035750D01*
X107515000Y-82726310D01*
X107611673Y-82959699D01*
X107790302Y-83138327D01*
X108023691Y-83235000D01*
X108714250Y-83235000D01*
X108873000Y-83076250D01*
X108873000Y-81877000D01*
X109127000Y-81877000D01*
X109127000Y-83076250D01*
X109285750Y-83235000D01*
X109976309Y-83235000D01*
X110209698Y-83138327D01*
X110388327Y-82959699D01*
X110485000Y-82726310D01*
X110485000Y-82035750D01*
X110326250Y-81877000D01*
X109127000Y-81877000D01*
X108873000Y-81877000D01*
X107673750Y-81877000D01*
X107515000Y-82035750D01*
X101513230Y-82035750D01*
X110965324Y-72583656D01*
X111084983Y-72404575D01*
X111127001Y-72193333D01*
X111127001Y-67365001D01*
X111084983Y-67153760D01*
X111084983Y-67153759D01*
X110965324Y-66974678D01*
X110215517Y-66224871D01*
X110302018Y-65790000D01*
X110204812Y-65301313D01*
X109927993Y-64887025D01*
X109513705Y-64610206D01*
X109060209Y-64520000D01*
X109513705Y-64429794D01*
X109927993Y-64152975D01*
X110204812Y-63738687D01*
X110302018Y-63250000D01*
X110204812Y-62761313D01*
X109927993Y-62347025D01*
X109520417Y-62074691D01*
X109881358Y-61905183D01*
X110271645Y-61476924D01*
X110441476Y-61066890D01*
X110320155Y-60837000D01*
X109127000Y-60837000D01*
X109127000Y-60857000D01*
X108873000Y-60857000D01*
X108873000Y-60837000D01*
X107679845Y-60837000D01*
X107558524Y-61066890D01*
X107728355Y-61476924D01*
X108118642Y-61905183D01*
X108479583Y-62074691D01*
X108072007Y-62347025D01*
X107795188Y-62761313D01*
X107697982Y-63250000D01*
X107795188Y-63738687D01*
X108072007Y-64152975D01*
X108486295Y-64429794D01*
X108939791Y-64520000D01*
X108486295Y-64610206D01*
X108072007Y-64887025D01*
X107795188Y-65301313D01*
X107697982Y-65790000D01*
X107795188Y-66278687D01*
X108072007Y-66692975D01*
X108486295Y-66969794D01*
X108939791Y-67060000D01*
X108486295Y-67150206D01*
X108072007Y-67427025D01*
X107795188Y-67841313D01*
X107697982Y-68330000D01*
X107795188Y-68818687D01*
X108072007Y-69232975D01*
X108448000Y-69484206D01*
X108448000Y-72761856D01*
X106827000Y-74382856D01*
X106827000Y-59862554D01*
X107692555Y-58997000D01*
X107714635Y-58997000D01*
X107714635Y-59020000D01*
X107744409Y-59178237D01*
X107837927Y-59323567D01*
X107980619Y-59421064D01*
X108150000Y-59455365D01*
X108245236Y-59455365D01*
X108118642Y-59514817D01*
X107728355Y-59943076D01*
X107558524Y-60353110D01*
X107679845Y-60583000D01*
X108873000Y-60583000D01*
X108873000Y-60563000D01*
X109127000Y-60563000D01*
X109127000Y-60583000D01*
X110320155Y-60583000D01*
X110441476Y-60353110D01*
X110271645Y-59943076D01*
X109881358Y-59514817D01*
X109754764Y-59455365D01*
X109850000Y-59455365D01*
X110008237Y-59425591D01*
X110153567Y-59332073D01*
X110251064Y-59189381D01*
X110285365Y-59020000D01*
X110285365Y-57320000D01*
X110255591Y-57161763D01*
X110162073Y-57016433D01*
X110019381Y-56918936D01*
X109850000Y-56884635D01*
X108150000Y-56884635D01*
X107991763Y-56914409D01*
X107846433Y-57007927D01*
X107748936Y-57150619D01*
X107714635Y-57320000D01*
X107714635Y-57343000D01*
X107350000Y-57343000D01*
X107033521Y-57405952D01*
X106765222Y-57585223D01*
X105415223Y-58935223D01*
X105235952Y-59203521D01*
X105173000Y-59520000D01*
X105173000Y-74481208D01*
X101345481Y-78308727D01*
X101345820Y-78307025D01*
X101387000Y-78100000D01*
X101387000Y-75514477D01*
X101567397Y-75334394D01*
X101748793Y-74897544D01*
X101749206Y-74424531D01*
X101568573Y-73987365D01*
X101234394Y-73652603D01*
X100874167Y-73503024D01*
X100907368Y-73501362D01*
X101291143Y-73342397D01*
X101360608Y-73100213D01*
X100560000Y-72299605D01*
X99759392Y-73100213D01*
X99828857Y-73342397D01*
X100261615Y-73496790D01*
X99887365Y-73651427D01*
X99552603Y-73985606D01*
X99371207Y-74422456D01*
X99370794Y-74895469D01*
X99551427Y-75332635D01*
X99733000Y-75514525D01*
X99733000Y-77757446D01*
X77567446Y-99923000D01*
X76500000Y-99923000D01*
X76183521Y-99985952D01*
X75915223Y-100165223D01*
X75735952Y-100433521D01*
X75673000Y-100750000D01*
X75673000Y-111507446D01*
X63278511Y-123901935D01*
X63376821Y-123665179D01*
X63377178Y-123256613D01*
X63221156Y-122879011D01*
X62932508Y-122589860D01*
X62555179Y-122433179D01*
X62146613Y-122432822D01*
X61769011Y-122588844D01*
X61479860Y-122877492D01*
X61323179Y-123254821D01*
X61322822Y-123663387D01*
X61478844Y-124040989D01*
X61767492Y-124330140D01*
X62144821Y-124486821D01*
X62553387Y-124487178D01*
X62791763Y-124388683D01*
X62207571Y-124972875D01*
X62146613Y-124972822D01*
X61769011Y-125128844D01*
X61724778Y-125173000D01*
X59830000Y-125173000D01*
X59513521Y-125235952D01*
X59245223Y-125415222D01*
X56745109Y-127915337D01*
X56717482Y-127468587D01*
X56588164Y-127156383D01*
X56362735Y-127106870D01*
X55679605Y-127790000D01*
X55693748Y-127804143D01*
X55514143Y-127983748D01*
X55500000Y-127969605D01*
X54816870Y-128652735D01*
X54866383Y-128878164D01*
X55331036Y-129037807D01*
X55641860Y-129018586D01*
X55357571Y-129302875D01*
X55296613Y-129302822D01*
X54919011Y-129458844D01*
X54629860Y-129747492D01*
X54473179Y-130124821D01*
X54472822Y-130533387D01*
X50405200Y-130533387D01*
X50405200Y-127621036D01*
X54252193Y-127621036D01*
X54282518Y-128111413D01*
X54411836Y-128423617D01*
X54637265Y-128473130D01*
X55320395Y-127790000D01*
X54637265Y-127106870D01*
X54411836Y-127156383D01*
X54252193Y-127621036D01*
X50405200Y-127621036D01*
X50405200Y-126927265D01*
X54816870Y-126927265D01*
X55500000Y-127610395D01*
X56183130Y-126927265D01*
X56133617Y-126701836D01*
X55668964Y-126542193D01*
X55178587Y-126572518D01*
X54866383Y-126701836D01*
X54816870Y-126927265D01*
X50405200Y-126927265D01*
X50405200Y-125453387D01*
X54472822Y-125453387D01*
X54628844Y-125830989D01*
X54917492Y-126120140D01*
X55294821Y-126276821D01*
X55703387Y-126277178D01*
X56080989Y-126121156D01*
X56370140Y-125832508D01*
X56526821Y-125455179D01*
X56527178Y-125046613D01*
X56371156Y-124669011D01*
X56082508Y-124379860D01*
X55705179Y-124223179D01*
X55296613Y-124222822D01*
X54919011Y-124378844D01*
X54629860Y-124667492D01*
X54473179Y-125044821D01*
X54472822Y-125453387D01*
X50405200Y-125453387D01*
X50405200Y-120295469D01*
X54350794Y-120295469D01*
X54531427Y-120732635D01*
X54865606Y-121067397D01*
X55302456Y-121248793D01*
X55775469Y-121249206D01*
X56079974Y-121123387D01*
X61322822Y-121123387D01*
X61478844Y-121500989D01*
X61767492Y-121790140D01*
X62144821Y-121946821D01*
X62553387Y-121947178D01*
X62930989Y-121791156D01*
X63220140Y-121502508D01*
X63376821Y-121125179D01*
X63377178Y-120716613D01*
X63221156Y-120339011D01*
X62932508Y-120049860D01*
X62555179Y-119893179D01*
X62146613Y-119892822D01*
X61769011Y-120048844D01*
X61479860Y-120337492D01*
X61323179Y-120714821D01*
X61322822Y-121123387D01*
X56079974Y-121123387D01*
X56212635Y-121068573D01*
X56547397Y-120734394D01*
X56728793Y-120297544D01*
X56729206Y-119824531D01*
X56548573Y-119387365D01*
X56214394Y-119052603D01*
X55777544Y-118871207D01*
X55304531Y-118870794D01*
X54867365Y-119051427D01*
X54532603Y-119385606D01*
X54351207Y-119822456D01*
X54350794Y-120295469D01*
X50405200Y-120295469D01*
X50405200Y-116953572D01*
X50656233Y-116953572D01*
X50656233Y-118153572D01*
X50686007Y-118311809D01*
X50779525Y-118457139D01*
X50922217Y-118554636D01*
X51091598Y-118588937D01*
X51991598Y-118588937D01*
X52149835Y-118559163D01*
X52295165Y-118465645D01*
X52392662Y-118322953D01*
X52426963Y-118153572D01*
X52426963Y-118068701D01*
X52452840Y-118063554D01*
X52631921Y-117943895D01*
X53856815Y-116719001D01*
X54659429Y-116719001D01*
X54532603Y-116845606D01*
X54351207Y-117282456D01*
X54350794Y-117755469D01*
X54531427Y-118192635D01*
X54865606Y-118527397D01*
X55302456Y-118708793D01*
X55775469Y-118709206D01*
X56079974Y-118583387D01*
X61322822Y-118583387D01*
X61478844Y-118960989D01*
X61767492Y-119250140D01*
X62144821Y-119406821D01*
X62553387Y-119407178D01*
X62930989Y-119251156D01*
X63220140Y-118962508D01*
X63376821Y-118585179D01*
X63377178Y-118176613D01*
X63221156Y-117799011D01*
X62932508Y-117509860D01*
X62555179Y-117353179D01*
X62146613Y-117352822D01*
X61769011Y-117508844D01*
X61479860Y-117797492D01*
X61323179Y-118174821D01*
X61322822Y-118583387D01*
X56079974Y-118583387D01*
X56212635Y-118528573D01*
X56547397Y-118194394D01*
X56728793Y-117757544D01*
X56729206Y-117284531D01*
X56548573Y-116847365D01*
X56420433Y-116719001D01*
X59482999Y-116719001D01*
X59694241Y-116676983D01*
X59873322Y-116557324D01*
X60387259Y-116043387D01*
X61322822Y-116043387D01*
X61478844Y-116420989D01*
X61767492Y-116710140D01*
X62144821Y-116866821D01*
X62553387Y-116867178D01*
X62930989Y-116711156D01*
X63220140Y-116422508D01*
X63376821Y-116045179D01*
X63377178Y-115636613D01*
X63221156Y-115259011D01*
X62932508Y-114969860D01*
X62555179Y-114813179D01*
X62146613Y-114812822D01*
X61769011Y-114968844D01*
X61479860Y-115257492D01*
X61323179Y-115634821D01*
X61322822Y-116043387D01*
X60387259Y-116043387D01*
X62115853Y-114314793D01*
X62144821Y-114326821D01*
X62553387Y-114327178D01*
X62930989Y-114171156D01*
X63220140Y-113882508D01*
X63376821Y-113505179D01*
X63377178Y-113096613D01*
X63221156Y-112719011D01*
X62932508Y-112429860D01*
X62555179Y-112273179D01*
X62146613Y-112272822D01*
X61769011Y-112428844D01*
X61479860Y-112717492D01*
X61323179Y-113094821D01*
X61322822Y-113503387D01*
X61335437Y-113533917D01*
X59254353Y-115615001D01*
X56563754Y-115615001D01*
X56728793Y-115217544D01*
X56729206Y-114744531D01*
X56548573Y-114307365D01*
X56214394Y-113972603D01*
X55777544Y-113791207D01*
X55304531Y-113790794D01*
X54867365Y-113971427D01*
X54532603Y-114305606D01*
X54351207Y-114742456D01*
X54350794Y-115215469D01*
X54515877Y-115615001D01*
X53628169Y-115615001D01*
X53416928Y-115657019D01*
X53237846Y-115776678D01*
X52327495Y-116687029D01*
X52303671Y-116650005D01*
X52160979Y-116552508D01*
X51991598Y-116518207D01*
X51091598Y-116518207D01*
X50933361Y-116547981D01*
X50788031Y-116641499D01*
X50690534Y-116784191D01*
X50656233Y-116953572D01*
X50405200Y-116953572D01*
X50405200Y-110989322D01*
X50456598Y-110989322D01*
X50456598Y-111429881D01*
X50553271Y-111663270D01*
X50731899Y-111841899D01*
X50907488Y-111914630D01*
X50788031Y-111991499D01*
X50690534Y-112134191D01*
X50656233Y-112303572D01*
X50656233Y-113503572D01*
X50686007Y-113661809D01*
X50779525Y-113807139D01*
X50922217Y-113904636D01*
X50989598Y-113918281D01*
X50989598Y-114337399D01*
X50933361Y-114347981D01*
X50788031Y-114441499D01*
X50690534Y-114584191D01*
X50656233Y-114753572D01*
X50656233Y-115953572D01*
X50686007Y-116111809D01*
X50779525Y-116257139D01*
X50922217Y-116354636D01*
X51091598Y-116388937D01*
X51991598Y-116388937D01*
X52149835Y-116359163D01*
X52295165Y-116265645D01*
X52392662Y-116122953D01*
X52426963Y-115953572D01*
X52426963Y-114753572D01*
X52397189Y-114595335D01*
X52303671Y-114450005D01*
X52160979Y-114352508D01*
X52093598Y-114338863D01*
X52093598Y-113919745D01*
X52149835Y-113909163D01*
X52295165Y-113815645D01*
X52392662Y-113672953D01*
X52426963Y-113503572D01*
X52426963Y-112303572D01*
X52397189Y-112145335D01*
X52303671Y-112000005D01*
X52177584Y-111913853D01*
X52351297Y-111841899D01*
X52529925Y-111663270D01*
X52626598Y-111429881D01*
X52626598Y-110989322D01*
X52467848Y-110830572D01*
X51668598Y-110830572D01*
X51668598Y-110850572D01*
X51414598Y-110850572D01*
X51414598Y-110830572D01*
X50615348Y-110830572D01*
X50456598Y-110989322D01*
X50405200Y-110989322D01*
X50405200Y-109977263D01*
X50456598Y-109977263D01*
X50456598Y-110417822D01*
X50615348Y-110576572D01*
X51414598Y-110576572D01*
X51414598Y-109627322D01*
X51668598Y-109627322D01*
X51668598Y-110576572D01*
X52467848Y-110576572D01*
X52626598Y-110417822D01*
X52626598Y-109977263D01*
X52529925Y-109743874D01*
X52351297Y-109565245D01*
X52117908Y-109468572D01*
X51827348Y-109468572D01*
X51668598Y-109627322D01*
X51414598Y-109627322D01*
X51255848Y-109468572D01*
X50965288Y-109468572D01*
X50731899Y-109565245D01*
X50553271Y-109743874D01*
X50456598Y-109977263D01*
X50405200Y-109977263D01*
X50405200Y-107811994D01*
X50629215Y-107811994D01*
X50629215Y-109011994D01*
X50658989Y-109170231D01*
X50752507Y-109315561D01*
X50895199Y-109413058D01*
X51064580Y-109447359D01*
X51964580Y-109447359D01*
X52122817Y-109417585D01*
X52268147Y-109324067D01*
X52299752Y-109277812D01*
X54499264Y-111477324D01*
X54678345Y-111596983D01*
X54697670Y-111600827D01*
X54532603Y-111765606D01*
X54351207Y-112202456D01*
X54350794Y-112675469D01*
X54531427Y-113112635D01*
X54865606Y-113447397D01*
X55302456Y-113628793D01*
X55775469Y-113629206D01*
X56212635Y-113448573D01*
X56547397Y-113114394D01*
X56728793Y-112677544D01*
X56729206Y-112204531D01*
X56548573Y-111767365D01*
X56420433Y-111639001D01*
X61174471Y-111639001D01*
X61385713Y-111596983D01*
X61564794Y-111477324D01*
X61589890Y-111452228D01*
X61767492Y-111630140D01*
X62144821Y-111786821D01*
X62553387Y-111787178D01*
X62930989Y-111631156D01*
X63220140Y-111342508D01*
X63376821Y-110965179D01*
X63377178Y-110556613D01*
X63221156Y-110179011D01*
X62932508Y-109889860D01*
X62555179Y-109733179D01*
X62146613Y-109732822D01*
X61769011Y-109888844D01*
X61479860Y-110177492D01*
X61464106Y-110215433D01*
X61290231Y-110250018D01*
X61111149Y-110369677D01*
X60945825Y-110535001D01*
X56563754Y-110535001D01*
X56728793Y-110137544D01*
X56729206Y-109664531D01*
X56548573Y-109227365D01*
X56214394Y-108892603D01*
X55854167Y-108743024D01*
X55887368Y-108741362D01*
X56271143Y-108582397D01*
X56340608Y-108340213D01*
X55540000Y-107539605D01*
X54739392Y-108340213D01*
X54808857Y-108582397D01*
X55241615Y-108736790D01*
X54867365Y-108891427D01*
X54532603Y-109225606D01*
X54351207Y-109662456D01*
X54351115Y-109767883D01*
X52604903Y-108021671D01*
X52425822Y-107902012D01*
X52399945Y-107896865D01*
X52399945Y-107811994D01*
X52370171Y-107653757D01*
X52276653Y-107508427D01*
X52133961Y-107410930D01*
X51964580Y-107376629D01*
X51064580Y-107376629D01*
X50906343Y-107406403D01*
X50761013Y-107499921D01*
X50663516Y-107642613D01*
X50629215Y-107811994D01*
X50405200Y-107811994D01*
X50405200Y-102097744D01*
X50429580Y-102097744D01*
X50429580Y-102538303D01*
X50526253Y-102771692D01*
X50704881Y-102950321D01*
X50880470Y-103023052D01*
X50761013Y-103099921D01*
X50663516Y-103242613D01*
X50629215Y-103411994D01*
X50629215Y-104611994D01*
X50658989Y-104770231D01*
X50752507Y-104915561D01*
X50895199Y-105013058D01*
X50962580Y-105026703D01*
X50962580Y-105195821D01*
X50906343Y-105206403D01*
X50761013Y-105299921D01*
X50663516Y-105442613D01*
X50629215Y-105611994D01*
X50629215Y-106811994D01*
X50658989Y-106970231D01*
X50752507Y-107115561D01*
X50895199Y-107213058D01*
X51064580Y-107247359D01*
X51964580Y-107247359D01*
X52122817Y-107217585D01*
X52224268Y-107152302D01*
X54130856Y-107152302D01*
X54158638Y-107707368D01*
X54317603Y-108091143D01*
X54559787Y-108160608D01*
X55360395Y-107360000D01*
X55719605Y-107360000D01*
X56520213Y-108160608D01*
X56762397Y-108091143D01*
X56949144Y-107567698D01*
X56921362Y-107012632D01*
X56762397Y-106628857D01*
X56520213Y-106559392D01*
X55719605Y-107360000D01*
X55360395Y-107360000D01*
X54559787Y-106559392D01*
X54317603Y-106628857D01*
X54130856Y-107152302D01*
X52224268Y-107152302D01*
X52268147Y-107124067D01*
X52365644Y-106981375D01*
X52399945Y-106811994D01*
X52399945Y-105800213D01*
X54739392Y-105800213D01*
X54808857Y-106042397D01*
X54932344Y-106086453D01*
X54808857Y-106137603D01*
X54739392Y-106379787D01*
X55540000Y-107180395D01*
X56340608Y-106379787D01*
X56271143Y-106137603D01*
X56147656Y-106093547D01*
X56271143Y-106042397D01*
X56340608Y-105800213D01*
X55540000Y-104999605D01*
X54739392Y-105800213D01*
X52399945Y-105800213D01*
X52399945Y-105611994D01*
X52370171Y-105453757D01*
X52276653Y-105308427D01*
X52133961Y-105210930D01*
X52066580Y-105197285D01*
X52066580Y-105028167D01*
X52122817Y-105017585D01*
X52268147Y-104924067D01*
X52365644Y-104781375D01*
X52399882Y-104612302D01*
X54130856Y-104612302D01*
X54158638Y-105167368D01*
X54317603Y-105551143D01*
X54559787Y-105620608D01*
X55360395Y-104820000D01*
X55719605Y-104820000D01*
X56520213Y-105620608D01*
X56762397Y-105551143D01*
X56949144Y-105027698D01*
X56921362Y-104472632D01*
X56762397Y-104088857D01*
X56520213Y-104019392D01*
X55719605Y-104820000D01*
X55360395Y-104820000D01*
X54559787Y-104019392D01*
X54317603Y-104088857D01*
X54130856Y-104612302D01*
X52399882Y-104612302D01*
X52399945Y-104611994D01*
X52399945Y-103411994D01*
X52370171Y-103253757D01*
X52276653Y-103108427D01*
X52150566Y-103022275D01*
X52324279Y-102950321D01*
X52502907Y-102771692D01*
X52599580Y-102538303D01*
X52599580Y-102515469D01*
X54350794Y-102515469D01*
X54531427Y-102952635D01*
X54865606Y-103287397D01*
X55225833Y-103436976D01*
X55192632Y-103438638D01*
X54808857Y-103597603D01*
X54739392Y-103839787D01*
X55540000Y-104640395D01*
X56340608Y-103839787D01*
X56271143Y-103597603D01*
X55838385Y-103443210D01*
X56212635Y-103288573D01*
X56547397Y-102954394D01*
X56728793Y-102517544D01*
X56729206Y-102044531D01*
X56548573Y-101607365D01*
X56214394Y-101272603D01*
X55777544Y-101091207D01*
X55304531Y-101090794D01*
X54867365Y-101271427D01*
X54532603Y-101605606D01*
X54351207Y-102042456D01*
X54350794Y-102515469D01*
X52599580Y-102515469D01*
X52599580Y-102097744D01*
X52440830Y-101938994D01*
X51641580Y-101938994D01*
X51641580Y-101958994D01*
X51387580Y-101958994D01*
X51387580Y-101938994D01*
X50588330Y-101938994D01*
X50429580Y-102097744D01*
X50405200Y-102097744D01*
X50405200Y-101085685D01*
X50429580Y-101085685D01*
X50429580Y-101526244D01*
X50588330Y-101684994D01*
X51387580Y-101684994D01*
X51387580Y-101664994D01*
X51641580Y-101664994D01*
X51641580Y-101684994D01*
X52440830Y-101684994D01*
X52599580Y-101526244D01*
X52599580Y-101085685D01*
X52502907Y-100852296D01*
X52324279Y-100673667D01*
X52175753Y-100612145D01*
X52253567Y-100562073D01*
X52351064Y-100419381D01*
X52385365Y-100250000D01*
X52385365Y-100202000D01*
X55313522Y-100202000D01*
X58448000Y-103336478D01*
X58448000Y-104870000D01*
X58490018Y-105081242D01*
X58609677Y-105260323D01*
X61335207Y-107985853D01*
X61323179Y-108014821D01*
X61322822Y-108423387D01*
X61478844Y-108800989D01*
X61767492Y-109090140D01*
X62144821Y-109246821D01*
X62553387Y-109247178D01*
X62930989Y-109091156D01*
X63220140Y-108802508D01*
X63376821Y-108425179D01*
X63377178Y-108016613D01*
X63221156Y-107639011D01*
X62932508Y-107349860D01*
X62555179Y-107193179D01*
X62146613Y-107192822D01*
X62116083Y-107205437D01*
X59552000Y-104641354D01*
X59552000Y-103662646D01*
X61335207Y-105445853D01*
X61323179Y-105474821D01*
X61322822Y-105883387D01*
X61478844Y-106260989D01*
X61767492Y-106550140D01*
X62144821Y-106706821D01*
X62553387Y-106707178D01*
X62930989Y-106551156D01*
X63220140Y-106262508D01*
X63376821Y-105885179D01*
X63377178Y-105476613D01*
X63221156Y-105099011D01*
X62932508Y-104809860D01*
X62555179Y-104653179D01*
X62146613Y-104652822D01*
X62116083Y-104665437D01*
X58730990Y-101280344D01*
X58730990Y-71049069D01*
X58945439Y-71192359D01*
X59439330Y-71290600D01*
X59800670Y-71290600D01*
X60294561Y-71192359D01*
X60713262Y-70912592D01*
X60993029Y-70493891D01*
X61091270Y-70000000D01*
X60993029Y-69506109D01*
X60713262Y-69087408D01*
X60294561Y-68807641D01*
X59904233Y-68730000D01*
X60294561Y-68652359D01*
X60713262Y-68372592D01*
X60993029Y-67953891D01*
X61091270Y-67460000D01*
X60993029Y-66966109D01*
X60902748Y-66830994D01*
X61798000Y-67726246D01*
X61798000Y-102256866D01*
X61769011Y-102268844D01*
X61479860Y-102557492D01*
X61323179Y-102934821D01*
X61322822Y-103343387D01*
X61478844Y-103720989D01*
X61767492Y-104010140D01*
X62144821Y-104166821D01*
X62553387Y-104167178D01*
X62930989Y-104011156D01*
X63220140Y-103722508D01*
X63376821Y-103345179D01*
X63377178Y-102936613D01*
X63221156Y-102559011D01*
X62932508Y-102269860D01*
X62902000Y-102257192D01*
X62902000Y-73706117D01*
X62953222Y-73782776D01*
X63811017Y-74640571D01*
X63810794Y-74895469D01*
X63991427Y-75332635D01*
X64325606Y-75667397D01*
X64762456Y-75848793D01*
X65235469Y-75849206D01*
X65672635Y-75668573D01*
X66007397Y-75334394D01*
X66188793Y-74897544D01*
X66189206Y-74424531D01*
X66008573Y-73987365D01*
X65674394Y-73652603D01*
X65237544Y-73471207D01*
X64980537Y-73470983D01*
X64818396Y-73308842D01*
X65235469Y-73309206D01*
X65672635Y-73128573D01*
X66007397Y-72794394D01*
X66188793Y-72357544D01*
X66189181Y-71912302D01*
X99150856Y-71912302D01*
X99178638Y-72467368D01*
X99337603Y-72851143D01*
X99579787Y-72920608D01*
X100380395Y-72120000D01*
X100739605Y-72120000D01*
X101540213Y-72920608D01*
X101782397Y-72851143D01*
X101969144Y-72327698D01*
X101941362Y-71772632D01*
X101782397Y-71388857D01*
X101540213Y-71319392D01*
X100739605Y-72120000D01*
X100380395Y-72120000D01*
X99579787Y-71319392D01*
X99337603Y-71388857D01*
X99150856Y-71912302D01*
X66189181Y-71912302D01*
X66189206Y-71884531D01*
X66008573Y-71447365D01*
X65827000Y-71265475D01*
X65827000Y-71139787D01*
X99759392Y-71139787D01*
X100560000Y-71940395D01*
X101360608Y-71139787D01*
X101291143Y-70897603D01*
X100767698Y-70710856D01*
X100212632Y-70738638D01*
X99828857Y-70897603D01*
X99759392Y-71139787D01*
X65827000Y-71139787D01*
X65827000Y-56007919D01*
X65764048Y-55691440D01*
X65584777Y-55423142D01*
X63763551Y-53601916D01*
X106972693Y-53601916D01*
X107242655Y-54255274D01*
X107742096Y-54755588D01*
X108394982Y-55026690D01*
X109101916Y-55027307D01*
X109755274Y-54757345D01*
X110255588Y-54257904D01*
X110526690Y-53605018D01*
X110527307Y-52898084D01*
X110257345Y-52244726D01*
X109757904Y-51744412D01*
X109105018Y-51473310D01*
X108398084Y-51472693D01*
X107744726Y-51742655D01*
X107244412Y-52242096D01*
X106973310Y-52894982D01*
X106972693Y-53601916D01*
X63763551Y-53601916D01*
X61536858Y-51375223D01*
X61268560Y-51195952D01*
X60952081Y-51133000D01*
X60728758Y-51133000D01*
X60677993Y-51057025D01*
X60263705Y-50780206D01*
X59775018Y-50683000D01*
X59724982Y-50683000D01*
X59236295Y-50780206D01*
X58822007Y-51057025D01*
X58545188Y-51471313D01*
X58447982Y-51960000D01*
X58545188Y-52448687D01*
X58822007Y-52862975D01*
X59236295Y-53139794D01*
X59612546Y-53214635D01*
X58900000Y-53214635D01*
X58741763Y-53244409D01*
X58596433Y-53337927D01*
X58498936Y-53480619D01*
X58464635Y-53650000D01*
X58464635Y-53673000D01*
X58100000Y-53673000D01*
X57783521Y-53735952D01*
X57515222Y-53915223D01*
X53955223Y-57475223D01*
X53775952Y-57743521D01*
X53713000Y-58060000D01*
X53713000Y-61289497D01*
X53446738Y-61467408D01*
X53166971Y-61886109D01*
X53068730Y-62380000D01*
X53166971Y-62873891D01*
X53446738Y-63292592D01*
X53865439Y-63572359D01*
X54359330Y-63670600D01*
X54720670Y-63670600D01*
X55214561Y-63572359D01*
X55633262Y-63292592D01*
X55810000Y-63028085D01*
X55986738Y-63292592D01*
X56405439Y-63572359D01*
X56899330Y-63670600D01*
X57260670Y-63670600D01*
X57754561Y-63572359D01*
X58173262Y-63292592D01*
X58230453Y-63207000D01*
X59101124Y-63207000D01*
X59523524Y-63629400D01*
X59439330Y-63629400D01*
X58945439Y-63727641D01*
X58526738Y-64007408D01*
X58246971Y-64426109D01*
X58148730Y-64920000D01*
X58246971Y-65413891D01*
X58526738Y-65832592D01*
X58945439Y-66112359D01*
X59335767Y-66190000D01*
X58945439Y-66267641D01*
X58526738Y-66547408D01*
X58275344Y-66923645D01*
X58142759Y-66950018D01*
X57963677Y-67069677D01*
X57788667Y-67244687D01*
X57669008Y-67423768D01*
X57669008Y-67423769D01*
X57626990Y-67635010D01*
X57626990Y-100954176D01*
X55932491Y-99259677D01*
X55753410Y-99140018D01*
X55542168Y-99098000D01*
X52385365Y-99098000D01*
X52385365Y-99050000D01*
X52355591Y-98891763D01*
X52262073Y-98746433D01*
X52119381Y-98648936D01*
X51950000Y-98614635D01*
X51050000Y-98614635D01*
X50891763Y-98644409D01*
X50746433Y-98737927D01*
X50648936Y-98880619D01*
X50614635Y-99050000D01*
X50614635Y-100250000D01*
X50644409Y-100408237D01*
X50737927Y-100553567D01*
X50834887Y-100619817D01*
X50704881Y-100673667D01*
X50526253Y-100852296D01*
X50429580Y-101085685D01*
X50405200Y-101085685D01*
X50405200Y-93385750D01*
X50415000Y-93385750D01*
X50415000Y-93826309D01*
X50511673Y-94059698D01*
X50690301Y-94238327D01*
X50865890Y-94311058D01*
X50746433Y-94387927D01*
X50648936Y-94530619D01*
X50614635Y-94700000D01*
X50614635Y-95900000D01*
X50644409Y-96058237D01*
X50737927Y-96203567D01*
X50880619Y-96301064D01*
X50948000Y-96314709D01*
X50948000Y-96433827D01*
X50891763Y-96444409D01*
X50746433Y-96537927D01*
X50648936Y-96680619D01*
X50614635Y-96850000D01*
X50614635Y-98050000D01*
X50644409Y-98208237D01*
X50737927Y-98353567D01*
X50880619Y-98451064D01*
X51050000Y-98485365D01*
X51950000Y-98485365D01*
X52108237Y-98455591D01*
X52253567Y-98362073D01*
X52351064Y-98219381D01*
X52385365Y-98050000D01*
X52385365Y-97435469D01*
X54350794Y-97435469D01*
X54531427Y-97872635D01*
X54865606Y-98207397D01*
X55302456Y-98388793D01*
X55775469Y-98389206D01*
X56212635Y-98208573D01*
X56547397Y-97874394D01*
X56728793Y-97437544D01*
X56729206Y-96964531D01*
X56548573Y-96527365D01*
X56214394Y-96192603D01*
X55777544Y-96011207D01*
X55304531Y-96010794D01*
X54867365Y-96191427D01*
X54532603Y-96525606D01*
X54351207Y-96962456D01*
X54350794Y-97435469D01*
X52385365Y-97435469D01*
X52385365Y-96850000D01*
X52355591Y-96691763D01*
X52262073Y-96546433D01*
X52119381Y-96448936D01*
X52052000Y-96435291D01*
X52052000Y-96316173D01*
X52108237Y-96305591D01*
X52253567Y-96212073D01*
X52351064Y-96069381D01*
X52385365Y-95900000D01*
X52385365Y-94895469D01*
X54350794Y-94895469D01*
X54531427Y-95332635D01*
X54865606Y-95667397D01*
X55302456Y-95848793D01*
X55775469Y-95849206D01*
X56212635Y-95668573D01*
X56547397Y-95334394D01*
X56728793Y-94897544D01*
X56729206Y-94424531D01*
X56548573Y-93987365D01*
X56214394Y-93652603D01*
X55777544Y-93471207D01*
X55304531Y-93470794D01*
X54867365Y-93651427D01*
X54532603Y-93985606D01*
X54351207Y-94422456D01*
X54350794Y-94895469D01*
X52385365Y-94895469D01*
X52385365Y-94700000D01*
X52355591Y-94541763D01*
X52262073Y-94396433D01*
X52135986Y-94310281D01*
X52309699Y-94238327D01*
X52488327Y-94059698D01*
X52585000Y-93826309D01*
X52585000Y-93385750D01*
X52426250Y-93227000D01*
X51627000Y-93227000D01*
X51627000Y-93247000D01*
X51373000Y-93247000D01*
X51373000Y-93227000D01*
X50573750Y-93227000D01*
X50415000Y-93385750D01*
X50405200Y-93385750D01*
X50405200Y-92373691D01*
X50415000Y-92373691D01*
X50415000Y-92814250D01*
X50573750Y-92973000D01*
X51373000Y-92973000D01*
X51373000Y-92023750D01*
X51627000Y-92023750D01*
X51627000Y-92973000D01*
X52426250Y-92973000D01*
X52585000Y-92814250D01*
X52585000Y-92373691D01*
X52577453Y-92355469D01*
X54350794Y-92355469D01*
X54531427Y-92792635D01*
X54865606Y-93127397D01*
X55302456Y-93308793D01*
X55775469Y-93309206D01*
X56212635Y-93128573D01*
X56547397Y-92794394D01*
X56728793Y-92357544D01*
X56729206Y-91884531D01*
X56548573Y-91447365D01*
X56214394Y-91112603D01*
X55777544Y-90931207D01*
X55304531Y-90930794D01*
X54867365Y-91111427D01*
X54532603Y-91445606D01*
X54351207Y-91882456D01*
X54350794Y-92355469D01*
X52577453Y-92355469D01*
X52488327Y-92140302D01*
X52309699Y-91961673D01*
X52076310Y-91865000D01*
X51785750Y-91865000D01*
X51627000Y-92023750D01*
X51373000Y-92023750D01*
X51214250Y-91865000D01*
X50923690Y-91865000D01*
X50690301Y-91961673D01*
X50511673Y-92140302D01*
X50415000Y-92373691D01*
X50405200Y-92373691D01*
X50405200Y-89815469D01*
X54350794Y-89815469D01*
X54531427Y-90252635D01*
X54865606Y-90587397D01*
X55302456Y-90768793D01*
X55775469Y-90769206D01*
X56212635Y-90588573D01*
X56547397Y-90254394D01*
X56728793Y-89817544D01*
X56729206Y-89344531D01*
X56548573Y-88907365D01*
X56214394Y-88572603D01*
X55777544Y-88391207D01*
X55304531Y-88390794D01*
X54867365Y-88571427D01*
X54532603Y-88905606D01*
X54351207Y-89342456D01*
X54350794Y-89815469D01*
X50405200Y-89815469D01*
X50405200Y-87275469D01*
X54350794Y-87275469D01*
X54531427Y-87712635D01*
X54865606Y-88047397D01*
X55302456Y-88228793D01*
X55775469Y-88229206D01*
X56212635Y-88048573D01*
X56547397Y-87714394D01*
X56728793Y-87277544D01*
X56729206Y-86804531D01*
X56548573Y-86367365D01*
X56214394Y-86032603D01*
X55777544Y-85851207D01*
X55304531Y-85850794D01*
X54867365Y-86031427D01*
X54532603Y-86365606D01*
X54351207Y-86802456D01*
X54350794Y-87275469D01*
X50405200Y-87275469D01*
X50405200Y-84735469D01*
X54350794Y-84735469D01*
X54531427Y-85172635D01*
X54865606Y-85507397D01*
X55302456Y-85688793D01*
X55775469Y-85689206D01*
X56212635Y-85508573D01*
X56547397Y-85174394D01*
X56728793Y-84737544D01*
X56729206Y-84264531D01*
X56548573Y-83827365D01*
X56214394Y-83492603D01*
X55777544Y-83311207D01*
X55304531Y-83310794D01*
X54867365Y-83491427D01*
X54532603Y-83825606D01*
X54351207Y-84262456D01*
X54350794Y-84735469D01*
X50405200Y-84735469D01*
X50405200Y-67855362D01*
X50649268Y-68362036D01*
X51085680Y-68751954D01*
X51297757Y-68826138D01*
X50906738Y-69087408D01*
X50626971Y-69506109D01*
X50528730Y-70000000D01*
X50626971Y-70493891D01*
X50906738Y-70912592D01*
X51325439Y-71192359D01*
X51819330Y-71290600D01*
X52180670Y-71290600D01*
X52674561Y-71192359D01*
X53093262Y-70912592D01*
X53373029Y-70493891D01*
X53471270Y-70000000D01*
X53373029Y-69506109D01*
X53093262Y-69087408D01*
X52702243Y-68826138D01*
X52914320Y-68751954D01*
X53350732Y-68362036D01*
X53604709Y-67834791D01*
X53607358Y-67819026D01*
X53486217Y-67587000D01*
X52127000Y-67587000D01*
X52127000Y-67607000D01*
X51873000Y-67607000D01*
X51873000Y-67587000D01*
X51853000Y-67587000D01*
X51853000Y-67333000D01*
X51873000Y-67333000D01*
X51873000Y-67313000D01*
X52127000Y-67313000D01*
X52127000Y-67333000D01*
X53486217Y-67333000D01*
X53607358Y-67100974D01*
X53604709Y-67085209D01*
X53350732Y-66557964D01*
X52914320Y-66168046D01*
X52702243Y-66093862D01*
X53093262Y-65832592D01*
X53373029Y-65413891D01*
X53471270Y-64920000D01*
X53373029Y-64426109D01*
X53093262Y-64007408D01*
X52674561Y-63727641D01*
X52180670Y-63629400D01*
X51819330Y-63629400D01*
X51325439Y-63727641D01*
X50906738Y-64007408D01*
X50626971Y-64426109D01*
X50528730Y-64920000D01*
X50626971Y-65413891D01*
X50906738Y-65832592D01*
X51297757Y-66093862D01*
X51085680Y-66168046D01*
X50649268Y-66557964D01*
X50405200Y-67064638D01*
X50405200Y-53601916D01*
X51472693Y-53601916D01*
X51742655Y-54255274D01*
X52242096Y-54755588D01*
X52894982Y-55026690D01*
X53601916Y-55027307D01*
X54255274Y-54757345D01*
X54755588Y-54257904D01*
X55026690Y-53605018D01*
X55027307Y-52898084D01*
X54757345Y-52244726D01*
X54257904Y-51744412D01*
X53605018Y-51473310D01*
X52898084Y-51472693D01*
X52244726Y-51742655D01*
X51744412Y-52242096D01*
X51473310Y-52894982D01*
X51472693Y-53601916D01*
X50405200Y-53601916D01*
X50405200Y-50405200D01*
X111594800Y-50405200D01*
X111594800Y-79822073D01*
M02*
