M48
;DRILL file {KiCad 4.0.5} date 03/27/17 13:57:15
;FORMAT={-:-/ absolute / inch / decimal}
FMAT,2
INCH,TZ
T1C0.016
T2C0.030
T3C0.031
T4C0.039
T5C0.040
%
G90
G05
M72
T1
X2.06Y-4.99
X3.0118Y-3.9665
X3.0673Y-3.9665
X3.2411Y-3.878
X3.3169Y-4.5079
X3.7638Y-4.4803
X3.8071Y-4.4249
X4.1732Y-2.7559
T2
X2.5591Y-2.8394
X2.5591Y-2.9394
X3.9591Y-2.8394
X3.9591Y-2.9394
T3
X2.185Y-4.9311
X2.185Y-5.0311
X2.185Y-5.1311
X2.185Y-5.2311
X2.4547Y-4.0606
X2.4547Y-4.1606
X2.4547Y-4.2606
X2.4547Y-4.3606
X2.4547Y-4.4606
X2.4547Y-4.5606
X2.4547Y-4.6606
X2.4547Y-4.7606
X2.4547Y-4.8606
X2.4547Y-4.9606
X2.4547Y-5.0606
X2.4547Y-5.1606
X3.2547Y-4.0606
X3.2547Y-4.1606
X3.2547Y-4.2606
X3.2547Y-4.3606
X3.2547Y-4.4606
X3.2547Y-4.5606
X3.2547Y-4.6606
X3.2547Y-4.7606
X3.2547Y-4.8606
X3.2547Y-4.9606
X3.2547Y-5.0606
X3.2547Y-5.1606
X3.2547Y-5.2606
X3.2547Y-5.3606
X3.2547Y-5.4606
X3.2547Y-5.5606
X3.376Y-5.0787
X3.376Y-5.3787
X3.4976Y-4.061
X3.4976Y-4.161
X3.4976Y-4.261
X3.4976Y-4.361
X3.4976Y-4.461
X3.4976Y-4.561
X3.4976Y-4.661
X3.4976Y-4.761
X3.4976Y-4.861
X3.4976Y-4.961
X3.4976Y-5.061
X3.4976Y-5.161
X4.2976Y-4.061
X4.2976Y-4.161
X4.2976Y-4.261
X4.2976Y-4.361
X4.2976Y-4.461
X4.2976Y-4.561
X4.2976Y-4.661
X4.2976Y-4.761
X4.2976Y-4.861
X4.2976Y-4.961
X4.2976Y-5.061
X4.2976Y-5.161
X4.2976Y-5.261
X4.2976Y-5.361
X4.2976Y-5.461
X4.2976Y-5.561
T4
X2.1Y-5.47
X2.1Y-5.57
X2.1Y-5.67
X2.1Y-5.77
X2.3524Y-2.0457
X2.3524Y-2.1457
X4.2913Y-2.2902
X4.2913Y-2.3902
X4.2913Y-2.4902
X4.2913Y-2.5902
X4.2913Y-2.6902
X4.2913Y-3.0185
X4.2913Y-3.1185
X4.2913Y-3.2185
T5
X2.05Y-2.56
X2.05Y-2.66
X2.05Y-2.76
X2.15Y-2.46
X2.1866Y-3.3268
X2.1866Y-3.4268
X2.1866Y-3.5268
X2.1866Y-3.6268
X2.1866Y-3.7268
X2.1866Y-3.8268
X2.1866Y-4.0268
X2.1866Y-4.1268
X2.1866Y-4.2268
X2.1866Y-4.3268
X2.1866Y-4.4268
X2.1866Y-4.5268
X2.1866Y-4.6268
X2.1866Y-4.7268
X2.25Y-2.46
X2.35Y-2.56
X2.35Y-2.66
X2.35Y-2.76
X4.0866Y-3.3268
X4.0866Y-3.4268
X4.0866Y-3.5268
X4.0866Y-3.6268
X4.0866Y-3.7268
X4.0866Y-3.8268
X4.0866Y-3.9268
X4.0866Y-4.0268
X4.0866Y-4.1868
X4.0866Y-4.2868
X4.0866Y-4.3868
X4.0866Y-4.4868
X4.0866Y-4.5868
X4.0866Y-4.6868
X4.0866Y-4.7868
X4.0866Y-4.8868
X4.0866Y-4.9868
X4.0866Y-5.0868
T0
M30
