G04 #@! TF.FileFunction,Copper,L2,Bot,Signal*
%FSLAX46Y46*%
G04 Gerber Fmt 4.6, Leading zero omitted, Abs format (unit mm)*
G04 Created by KiCad (PCBNEW 4.0.6) date 05/30/17 18:11:38*
%MOMM*%
%LPD*%
G01*
G04 APERTURE LIST*
%ADD10C,0.100000*%
%ADD11C,1.524000*%
%ADD12C,1.200000*%
%ADD13R,1.700000X1.700000*%
%ADD14O,1.700000X1.700000*%
%ADD15O,1.727200X2.032000*%
%ADD16C,0.600000*%
%ADD17C,0.381000*%
%ADD18C,0.250000*%
%ADD19C,0.587000*%
%ADD20C,0.254000*%
G04 APERTURE END LIST*
D10*
D11*
X200406000Y-147955000D03*
X202946000Y-147955000D03*
X205486000Y-147955000D03*
X208026000Y-147955000D03*
X210566000Y-147955000D03*
X213106000Y-147955000D03*
X215646000Y-147955000D03*
X218186000Y-147955000D03*
X220726000Y-147955000D03*
X223266000Y-147955000D03*
X225806000Y-147955000D03*
X225806000Y-127635000D03*
X223266000Y-127635000D03*
X220726000Y-127635000D03*
X218186000Y-127635000D03*
X215646000Y-127635000D03*
X213106000Y-127635000D03*
X200406000Y-127635000D03*
X202946000Y-127635000D03*
X205486000Y-127635000D03*
X208026000Y-127635000D03*
X210566000Y-127635000D03*
X228346000Y-147955000D03*
X228346000Y-127635000D03*
X184620000Y-91380000D03*
X184620000Y-93920000D03*
X184620000Y-96460000D03*
X166840000Y-91380000D03*
X166840000Y-93920000D03*
X166840000Y-96460000D03*
X190627000Y-87757000D03*
X190627000Y-90297000D03*
X190627000Y-92837000D03*
X190627000Y-82677000D03*
X190627000Y-80137000D03*
X190627000Y-77597000D03*
X172847000Y-92837000D03*
X172847000Y-90297000D03*
X172847000Y-87757000D03*
X172847000Y-82677000D03*
X172847000Y-80137000D03*
X172847000Y-77597000D03*
D12*
X247015000Y-130175000D03*
X244475000Y-130175000D03*
X241935000Y-130175000D03*
X239395000Y-130175000D03*
X236855000Y-150495000D03*
X236855000Y-130175000D03*
X234315000Y-150495000D03*
X234315000Y-130175000D03*
X231775000Y-150495000D03*
X231775000Y-130175000D03*
X229235000Y-150495000D03*
X229235000Y-130175000D03*
X226695000Y-150495000D03*
X226695000Y-130175000D03*
X224155000Y-150495000D03*
X224155000Y-130175000D03*
X221615000Y-150495000D03*
X221615000Y-130175000D03*
X219075000Y-150495000D03*
X219075000Y-130175000D03*
X216535000Y-150495000D03*
X216535000Y-130175000D03*
X213995000Y-150495000D03*
X213995000Y-130175000D03*
X211455000Y-150495000D03*
X211455000Y-130175000D03*
X208915000Y-150495000D03*
X208915000Y-130175000D03*
D11*
X229108000Y-87884000D03*
X231648000Y-87884000D03*
X231648000Y-123444000D03*
X229108000Y-123444000D03*
D13*
X205994000Y-78486000D03*
D14*
X208534000Y-78486000D03*
X211074000Y-78486000D03*
X213614000Y-78486000D03*
X216154000Y-78486000D03*
D13*
X205935915Y-74177492D03*
D14*
X208475915Y-74177492D03*
X211015915Y-74177492D03*
X213555915Y-74177492D03*
X216095915Y-74177492D03*
D13*
X205994000Y-87122000D03*
D14*
X208534000Y-87122000D03*
X211074000Y-87122000D03*
D15*
X238506000Y-81026000D03*
X235966000Y-81026000D03*
X233426000Y-81026000D03*
X241046000Y-78486000D03*
X241046000Y-75946000D03*
X238506000Y-73406000D03*
X235966000Y-73406000D03*
X233426000Y-73406000D03*
D13*
X162500000Y-113000000D03*
D14*
X162500000Y-110460000D03*
X162500000Y-107920000D03*
D13*
X162246000Y-129570000D03*
D14*
X162246000Y-127030000D03*
X162246000Y-124490000D03*
D13*
X162246000Y-146050000D03*
D14*
X162246000Y-143510000D03*
X162246000Y-140970000D03*
D13*
X162500000Y-96460000D03*
D14*
X162500000Y-93920000D03*
X162500000Y-91380000D03*
D11*
X190500000Y-116840000D03*
X190500000Y-119380000D03*
X190500000Y-121920000D03*
X190500000Y-111760000D03*
X190500000Y-109220000D03*
X190500000Y-106680000D03*
X172720000Y-121920000D03*
X172720000Y-119380000D03*
X172720000Y-116840000D03*
X172720000Y-111760000D03*
X172720000Y-109220000D03*
X172720000Y-106680000D03*
X190500000Y-142240000D03*
X190500000Y-144780000D03*
X190500000Y-147320000D03*
X190500000Y-137160000D03*
X190500000Y-134620000D03*
X190500000Y-132080000D03*
X172720000Y-147320000D03*
X172720000Y-144780000D03*
X172720000Y-142240000D03*
X172720000Y-137160000D03*
X172720000Y-134620000D03*
X172720000Y-132080000D03*
X214630000Y-116840000D03*
X214630000Y-119380000D03*
X214630000Y-121920000D03*
X214630000Y-111760000D03*
X214630000Y-109220000D03*
X214630000Y-106680000D03*
X196850000Y-121920000D03*
X196850000Y-119380000D03*
X196850000Y-116840000D03*
X196850000Y-111760000D03*
X196850000Y-109220000D03*
X196850000Y-106680000D03*
X184620000Y-107920000D03*
X184620000Y-110460000D03*
X184620000Y-113000000D03*
X166840000Y-107920000D03*
X166840000Y-110460000D03*
X166840000Y-113000000D03*
X184658000Y-124460000D03*
X184658000Y-127000000D03*
X184658000Y-129540000D03*
X166878000Y-124460000D03*
X166878000Y-127000000D03*
X166878000Y-129540000D03*
X184658000Y-140970000D03*
X184658000Y-143510000D03*
X184658000Y-146050000D03*
X166878000Y-140970000D03*
X166878000Y-143510000D03*
X166878000Y-146050000D03*
D16*
X211169393Y-95119189D03*
X206597393Y-95119189D03*
X206629000Y-142748000D03*
X246253000Y-88646000D03*
X247269000Y-88519000D03*
X199644000Y-122936000D03*
X176022000Y-93472000D03*
X193548000Y-97282000D03*
X195072000Y-106045000D03*
X190119000Y-103251000D03*
D17*
X162500000Y-110460000D02*
X163702081Y-110460000D01*
X163702081Y-110460000D02*
X166840000Y-110460000D01*
X167000000Y-110620000D02*
X166840000Y-110460000D01*
X166878000Y-127000000D02*
X162276000Y-127000000D01*
X162276000Y-127000000D02*
X162246000Y-127030000D01*
X166878000Y-143510000D02*
X165800370Y-143510000D01*
X165800370Y-143510000D02*
X162246000Y-143510000D01*
D18*
X162500000Y-93920000D02*
X163702081Y-93920000D01*
X163702081Y-93920000D02*
X166840000Y-93920000D01*
X213995000Y-130175000D02*
X213995000Y-135382000D01*
X213995000Y-135382000D02*
X206629000Y-142748000D01*
X211455000Y-131023528D02*
X211455000Y-130175000D01*
X211455000Y-136996996D02*
X211455000Y-131023528D01*
X205486000Y-142965996D02*
X211455000Y-136996996D01*
X205486000Y-147955000D02*
X205486000Y-142965996D01*
D17*
X220696000Y-105547472D02*
X220696000Y-105694000D01*
X220696000Y-105694000D02*
X214630000Y-111760000D01*
D19*
X244475000Y-130175000D02*
X244475000Y-129326472D01*
X220696000Y-105410000D02*
X220696000Y-95504000D01*
X244475000Y-129326472D02*
X220696000Y-105547472D01*
X220696000Y-105547472D02*
X220696000Y-105410000D01*
D18*
X238506000Y-73406000D02*
X238506000Y-73558400D01*
X238506000Y-73558400D02*
X233387900Y-78676500D01*
X233387900Y-78676500D02*
X222885000Y-78676500D01*
X222885000Y-78676500D02*
X220696000Y-80865500D01*
X220696000Y-80865500D02*
X220696000Y-95466081D01*
X220696000Y-95466081D02*
X220658081Y-95504000D01*
D19*
X212276081Y-87122000D02*
X220658081Y-95504000D01*
X211074000Y-87122000D02*
X212276081Y-87122000D01*
X220658081Y-95504000D02*
X220696000Y-95504000D01*
D18*
X246253000Y-88646000D02*
X245953001Y-88346001D01*
X245953001Y-88346001D02*
X245953001Y-88219001D01*
X245953001Y-88219001D02*
X241046000Y-83312000D01*
X241046000Y-83312000D02*
X236986000Y-83312000D01*
X236986000Y-83312000D02*
X235966000Y-82292000D01*
X235966000Y-82292000D02*
X235966000Y-81026000D01*
X247269000Y-88519000D02*
X246969001Y-88219001D01*
X246969001Y-88219001D02*
X246812601Y-88219001D01*
X246812601Y-88219001D02*
X239619600Y-81026000D01*
X239619600Y-81026000D02*
X238506000Y-81026000D01*
X224353001Y-124277001D02*
X208534000Y-108458000D01*
X208534000Y-108458000D02*
X208534000Y-87122000D01*
X225298000Y-131064000D02*
X225298000Y-128735762D01*
X225298000Y-128735762D02*
X224353001Y-127790763D01*
X224353001Y-127790763D02*
X224353001Y-124277001D01*
X227076000Y-132842000D02*
X225298000Y-131064000D01*
X227076000Y-149265472D02*
X227076000Y-132842000D01*
X226695000Y-150495000D02*
X226695000Y-149646472D01*
X226695000Y-149646472D02*
X227076000Y-149265472D01*
D17*
X191704630Y-90297000D02*
X190627000Y-90297000D01*
X200406000Y-98998370D02*
X191704630Y-90297000D01*
X200406000Y-127635000D02*
X200406000Y-98998370D01*
X193167000Y-92837000D02*
X199644000Y-99314000D01*
X199644000Y-99314000D02*
X199644000Y-122936000D01*
X190627000Y-92837000D02*
X193167000Y-92837000D01*
D18*
X176022000Y-93472000D02*
X176022000Y-90932000D01*
X176022000Y-90932000D02*
X172847000Y-87757000D01*
X190500000Y-147320000D02*
X194184410Y-147320000D01*
X194184410Y-147320000D02*
X210439000Y-131065410D01*
X210439000Y-131065410D02*
X210439000Y-129540000D01*
X210439000Y-129540000D02*
X211201000Y-128778000D01*
X211201000Y-128778000D02*
X211963000Y-128778000D01*
X211963000Y-128778000D02*
X212344001Y-128396999D01*
X212344001Y-128396999D02*
X213106000Y-127635000D01*
X197866000Y-129794000D02*
X203327000Y-129794000D01*
X203327000Y-129794000D02*
X205486000Y-127635000D01*
X191897000Y-123825000D02*
X197866000Y-129794000D01*
X191897000Y-120777000D02*
X191897000Y-123825000D01*
X190500000Y-119380000D02*
X191897000Y-120777000D01*
X190500000Y-122997630D02*
X190500000Y-121920000D01*
X190500000Y-123064410D02*
X190500000Y-122997630D01*
X197679600Y-130244011D02*
X190500000Y-123064410D01*
X205416989Y-130244011D02*
X197679600Y-130244011D01*
X208026000Y-127635000D02*
X205416989Y-130244011D01*
X191577630Y-144780000D02*
X190500000Y-144780000D01*
X196088000Y-144780000D02*
X191577630Y-144780000D01*
X209988989Y-130879011D02*
X196088000Y-144780000D01*
X210566000Y-128712630D02*
X209988989Y-129289641D01*
X209988989Y-129289641D02*
X209988989Y-130879011D01*
X210566000Y-127635000D02*
X210566000Y-128712630D01*
X184658000Y-129540000D02*
X172720000Y-117602000D01*
X172720000Y-117602000D02*
X172720000Y-116840000D01*
D17*
X168529000Y-127889000D02*
X168529000Y-115951000D01*
X168529000Y-115951000D02*
X172720000Y-111760000D01*
X166878000Y-129540000D02*
X168529000Y-127889000D01*
D18*
X172720000Y-142240000D02*
X176530000Y-146050000D01*
X176530000Y-146050000D02*
X184658000Y-146050000D01*
D17*
X193548000Y-97282000D02*
X193248001Y-96982001D01*
X193248001Y-96982001D02*
X190222001Y-96982001D01*
X190222001Y-96982001D02*
X185381999Y-92141999D01*
X185381999Y-92141999D02*
X184620000Y-91380000D01*
D18*
X184620000Y-93920000D02*
X195072000Y-104372000D01*
X195072000Y-104372000D02*
X195072000Y-106045000D01*
X196850000Y-116840000D02*
X192532000Y-112522000D01*
X192532000Y-112522000D02*
X192532000Y-105664000D01*
X192532000Y-105664000D02*
X190119000Y-103251000D01*
D17*
X195697499Y-107807555D02*
X188545442Y-100655498D01*
X195697499Y-110607499D02*
X195697499Y-107807555D01*
X196850000Y-111760000D02*
X195697499Y-110607499D01*
X167601999Y-97221999D02*
X166840000Y-96460000D01*
X171035498Y-100655498D02*
X167601999Y-97221999D01*
X188545442Y-100655498D02*
X171035498Y-100655498D01*
D20*
G36*
X253290000Y-151690000D02*
X237196904Y-151690000D01*
X237553657Y-151542592D01*
X237901371Y-151195485D01*
X238089785Y-150741734D01*
X238090214Y-150250421D01*
X237902592Y-149796343D01*
X237555485Y-149448629D01*
X237101734Y-149260215D01*
X236610421Y-149259786D01*
X236156343Y-149447408D01*
X235808629Y-149794515D01*
X235620215Y-150248266D01*
X235619786Y-150739579D01*
X235807408Y-151193657D01*
X236154515Y-151541371D01*
X236512453Y-151690000D01*
X234656904Y-151690000D01*
X235013657Y-151542592D01*
X235361371Y-151195485D01*
X235549785Y-150741734D01*
X235550214Y-150250421D01*
X235362592Y-149796343D01*
X235015485Y-149448629D01*
X234561734Y-149260215D01*
X234070421Y-149259786D01*
X233616343Y-149447408D01*
X233268629Y-149794515D01*
X233080215Y-150248266D01*
X233079786Y-150739579D01*
X233267408Y-151193657D01*
X233614515Y-151541371D01*
X233972453Y-151690000D01*
X232116904Y-151690000D01*
X232473657Y-151542592D01*
X232821371Y-151195485D01*
X233009785Y-150741734D01*
X233010214Y-150250421D01*
X232822592Y-149796343D01*
X232475485Y-149448629D01*
X232021734Y-149260215D01*
X231530421Y-149259786D01*
X231076343Y-149447408D01*
X230728629Y-149794515D01*
X230540215Y-150248266D01*
X230539786Y-150739579D01*
X230727408Y-151193657D01*
X231074515Y-151541371D01*
X231432453Y-151690000D01*
X229576904Y-151690000D01*
X229933657Y-151542592D01*
X230281371Y-151195485D01*
X230469785Y-150741734D01*
X230470214Y-150250421D01*
X230282592Y-149796343D01*
X229935485Y-149448629D01*
X229481734Y-149260215D01*
X228990421Y-149259786D01*
X228536343Y-149447408D01*
X228188629Y-149794515D01*
X228000215Y-150248266D01*
X227999786Y-150739579D01*
X228187408Y-151193657D01*
X228534515Y-151541371D01*
X228892453Y-151690000D01*
X227036904Y-151690000D01*
X227393657Y-151542592D01*
X227741371Y-151195485D01*
X227929785Y-150741734D01*
X227930214Y-150250421D01*
X227742592Y-149796343D01*
X227667816Y-149721436D01*
X227778148Y-149556312D01*
X227836000Y-149265472D01*
X227836000Y-149255879D01*
X228066900Y-149351757D01*
X228622661Y-149352242D01*
X229136303Y-149140010D01*
X229529629Y-148747370D01*
X229742757Y-148234100D01*
X229743242Y-147678339D01*
X229531010Y-147164697D01*
X229138370Y-146771371D01*
X228625100Y-146558243D01*
X228069339Y-146557758D01*
X227836000Y-146654171D01*
X227836000Y-132842000D01*
X227778148Y-132551161D01*
X227613401Y-132304599D01*
X226718823Y-131410021D01*
X226939579Y-131410214D01*
X227393657Y-131222592D01*
X227741371Y-130875485D01*
X227929785Y-130421734D01*
X227929786Y-130419579D01*
X227999786Y-130419579D01*
X228187408Y-130873657D01*
X228534515Y-131221371D01*
X228988266Y-131409785D01*
X229479579Y-131410214D01*
X229933657Y-131222592D01*
X230281371Y-130875485D01*
X230469785Y-130421734D01*
X230469786Y-130419579D01*
X230539786Y-130419579D01*
X230727408Y-130873657D01*
X231074515Y-131221371D01*
X231528266Y-131409785D01*
X232019579Y-131410214D01*
X232473657Y-131222592D01*
X232821371Y-130875485D01*
X233009785Y-130421734D01*
X233009786Y-130419579D01*
X233079786Y-130419579D01*
X233267408Y-130873657D01*
X233614515Y-131221371D01*
X234068266Y-131409785D01*
X234559579Y-131410214D01*
X235013657Y-131222592D01*
X235361371Y-130875485D01*
X235549785Y-130421734D01*
X235549786Y-130419579D01*
X235619786Y-130419579D01*
X235807408Y-130873657D01*
X236154515Y-131221371D01*
X236608266Y-131409785D01*
X237099579Y-131410214D01*
X237553657Y-131222592D01*
X237738837Y-131037735D01*
X238711870Y-131037735D01*
X238761383Y-131263164D01*
X239226036Y-131422807D01*
X239716413Y-131392482D01*
X240028617Y-131263164D01*
X240078130Y-131037735D01*
X239395000Y-130354605D01*
X238711870Y-131037735D01*
X237738837Y-131037735D01*
X237901371Y-130875485D01*
X238089785Y-130421734D01*
X238090147Y-130006036D01*
X238147193Y-130006036D01*
X238177518Y-130496413D01*
X238306836Y-130808617D01*
X238532265Y-130858130D01*
X239215395Y-130175000D01*
X239574605Y-130175000D01*
X240257735Y-130858130D01*
X240483164Y-130808617D01*
X240616827Y-130419579D01*
X240699786Y-130419579D01*
X240887408Y-130873657D01*
X241234515Y-131221371D01*
X241688266Y-131409785D01*
X242179579Y-131410214D01*
X242633657Y-131222592D01*
X242981371Y-130875485D01*
X243169785Y-130421734D01*
X243170214Y-129930421D01*
X242982592Y-129476343D01*
X242635485Y-129128629D01*
X242181734Y-128940215D01*
X241690421Y-128939786D01*
X241236343Y-129127408D01*
X240888629Y-129474515D01*
X240700215Y-129928266D01*
X240699786Y-130419579D01*
X240616827Y-130419579D01*
X240642807Y-130343964D01*
X240612482Y-129853587D01*
X240483164Y-129541383D01*
X240257735Y-129491870D01*
X239574605Y-130175000D01*
X239215395Y-130175000D01*
X238532265Y-129491870D01*
X238306836Y-129541383D01*
X238147193Y-130006036D01*
X238090147Y-130006036D01*
X238090214Y-129930421D01*
X237902592Y-129476343D01*
X237738801Y-129312265D01*
X238711870Y-129312265D01*
X239395000Y-129995395D01*
X240078130Y-129312265D01*
X240028617Y-129086836D01*
X239563964Y-128927193D01*
X239073587Y-128957518D01*
X238761383Y-129086836D01*
X238711870Y-129312265D01*
X237738801Y-129312265D01*
X237555485Y-129128629D01*
X237101734Y-128940215D01*
X236610421Y-128939786D01*
X236156343Y-129127408D01*
X235808629Y-129474515D01*
X235620215Y-129928266D01*
X235619786Y-130419579D01*
X235549786Y-130419579D01*
X235550214Y-129930421D01*
X235362592Y-129476343D01*
X235015485Y-129128629D01*
X234561734Y-128940215D01*
X234070421Y-128939786D01*
X233616343Y-129127408D01*
X233268629Y-129474515D01*
X233080215Y-129928266D01*
X233079786Y-130419579D01*
X233009786Y-130419579D01*
X233010214Y-129930421D01*
X232822592Y-129476343D01*
X232475485Y-129128629D01*
X232021734Y-128940215D01*
X231530421Y-128939786D01*
X231076343Y-129127408D01*
X230728629Y-129474515D01*
X230540215Y-129928266D01*
X230539786Y-130419579D01*
X230469786Y-130419579D01*
X230470214Y-129930421D01*
X230282592Y-129476343D01*
X229935485Y-129128629D01*
X229481734Y-128940215D01*
X228990421Y-128939786D01*
X228536343Y-129127408D01*
X228188629Y-129474515D01*
X228000215Y-129928266D01*
X227999786Y-130419579D01*
X227929786Y-130419579D01*
X227930214Y-129930421D01*
X227742592Y-129476343D01*
X227395485Y-129128629D01*
X226941734Y-128940215D01*
X226450421Y-128939786D01*
X226058000Y-129101932D01*
X226058000Y-129032220D01*
X226082661Y-129032242D01*
X226596303Y-128820010D01*
X226989629Y-128427370D01*
X227075949Y-128219488D01*
X227160990Y-128425303D01*
X227553630Y-128818629D01*
X228066900Y-129031757D01*
X228622661Y-129032242D01*
X229136303Y-128820010D01*
X229529629Y-128427370D01*
X229742757Y-127914100D01*
X229743242Y-127358339D01*
X229531010Y-126844697D01*
X229138370Y-126451371D01*
X228625100Y-126238243D01*
X228069339Y-126237758D01*
X227555697Y-126449990D01*
X227162371Y-126842630D01*
X227076051Y-127050512D01*
X226991010Y-126844697D01*
X226598370Y-126451371D01*
X226085100Y-126238243D01*
X225529339Y-126237758D01*
X225113001Y-126409785D01*
X225113001Y-124277001D01*
X225055149Y-123986162D01*
X224890402Y-123739600D01*
X224871463Y-123720661D01*
X227710758Y-123720661D01*
X227922990Y-124234303D01*
X228315630Y-124627629D01*
X228828900Y-124840757D01*
X229384661Y-124841242D01*
X229898303Y-124629010D01*
X230103457Y-124424213D01*
X230847392Y-124424213D01*
X230916857Y-124666397D01*
X231440302Y-124853144D01*
X231995368Y-124825362D01*
X232379143Y-124666397D01*
X232448608Y-124424213D01*
X231648000Y-123623605D01*
X230847392Y-124424213D01*
X230103457Y-124424213D01*
X230291629Y-124236370D01*
X230371395Y-124044273D01*
X230425603Y-124175143D01*
X230667787Y-124244608D01*
X231468395Y-123444000D01*
X231827605Y-123444000D01*
X232628213Y-124244608D01*
X232870397Y-124175143D01*
X233057144Y-123651698D01*
X233029362Y-123096632D01*
X232870397Y-122712857D01*
X232628213Y-122643392D01*
X231827605Y-123444000D01*
X231468395Y-123444000D01*
X230667787Y-122643392D01*
X230425603Y-122712857D01*
X230375491Y-122853318D01*
X230293010Y-122653697D01*
X230103432Y-122463787D01*
X230847392Y-122463787D01*
X231648000Y-123264395D01*
X232448608Y-122463787D01*
X232379143Y-122221603D01*
X231855698Y-122034856D01*
X231300632Y-122062638D01*
X230916857Y-122221603D01*
X230847392Y-122463787D01*
X230103432Y-122463787D01*
X229900370Y-122260371D01*
X229387100Y-122047243D01*
X228831339Y-122046758D01*
X228317697Y-122258990D01*
X227924371Y-122651630D01*
X227711243Y-123164900D01*
X227710758Y-123720661D01*
X224871463Y-123720661D01*
X214276783Y-113125981D01*
X214350900Y-113156757D01*
X214906661Y-113157242D01*
X215420303Y-112945010D01*
X215813629Y-112552370D01*
X216026757Y-112039100D01*
X216027201Y-111530233D01*
X220696432Y-106861002D01*
X243393807Y-129558376D01*
X243240215Y-129928266D01*
X243239786Y-130419579D01*
X243427408Y-130873657D01*
X243774515Y-131221371D01*
X244228266Y-131409785D01*
X244719579Y-131410214D01*
X245173657Y-131222592D01*
X245521371Y-130875485D01*
X245709785Y-130421734D01*
X245709786Y-130419579D01*
X245779786Y-130419579D01*
X245967408Y-130873657D01*
X246314515Y-131221371D01*
X246768266Y-131409785D01*
X247259579Y-131410214D01*
X247713657Y-131222592D01*
X248061371Y-130875485D01*
X248249785Y-130421734D01*
X248250214Y-129930421D01*
X248062592Y-129476343D01*
X247715485Y-129128629D01*
X247261734Y-128940215D01*
X246770421Y-128939786D01*
X246316343Y-129127408D01*
X245968629Y-129474515D01*
X245780215Y-129928266D01*
X245779786Y-130419579D01*
X245709786Y-130419579D01*
X245710214Y-129930421D01*
X245522592Y-129476343D01*
X245403500Y-129357043D01*
X245403500Y-129326472D01*
X245332822Y-128971150D01*
X245131549Y-128669923D01*
X245131546Y-128669921D01*
X221624500Y-105162874D01*
X221624500Y-95504000D01*
X221553822Y-95148678D01*
X221456000Y-95002277D01*
X221456000Y-88160661D01*
X227710758Y-88160661D01*
X227922990Y-88674303D01*
X228315630Y-89067629D01*
X228828900Y-89280757D01*
X229384661Y-89281242D01*
X229898303Y-89069010D01*
X230291629Y-88676370D01*
X230377949Y-88468488D01*
X230462990Y-88674303D01*
X230855630Y-89067629D01*
X231368900Y-89280757D01*
X231924661Y-89281242D01*
X232438303Y-89069010D01*
X232831629Y-88676370D01*
X233044757Y-88163100D01*
X233045242Y-87607339D01*
X232833010Y-87093697D01*
X232440370Y-86700371D01*
X231927100Y-86487243D01*
X231371339Y-86486758D01*
X230857697Y-86698990D01*
X230464371Y-87091630D01*
X230378051Y-87299512D01*
X230293010Y-87093697D01*
X229900370Y-86700371D01*
X229387100Y-86487243D01*
X228831339Y-86486758D01*
X228317697Y-86698990D01*
X227924371Y-87091630D01*
X227711243Y-87604900D01*
X227710758Y-88160661D01*
X221456000Y-88160661D01*
X221456000Y-81180302D01*
X223199802Y-79436500D01*
X232954209Y-79436500D01*
X232852511Y-79456729D01*
X232366330Y-79781585D01*
X232041474Y-80267766D01*
X231927400Y-80841255D01*
X231927400Y-81210745D01*
X232041474Y-81784234D01*
X232366330Y-82270415D01*
X232852511Y-82595271D01*
X233426000Y-82709345D01*
X233999489Y-82595271D01*
X234485670Y-82270415D01*
X234696000Y-81955634D01*
X234906330Y-82270415D01*
X235246983Y-82498032D01*
X235263852Y-82582839D01*
X235428599Y-82829401D01*
X236448599Y-83849401D01*
X236695161Y-84014148D01*
X236986000Y-84072000D01*
X240731198Y-84072000D01*
X245239633Y-88580435D01*
X245250853Y-88636840D01*
X245317920Y-88737213D01*
X245317838Y-88831167D01*
X245459883Y-89174943D01*
X245722673Y-89438192D01*
X246066201Y-89580838D01*
X246438167Y-89581162D01*
X246781943Y-89439117D01*
X246859734Y-89361461D01*
X247082201Y-89453838D01*
X247454167Y-89454162D01*
X247797943Y-89312117D01*
X248061192Y-89049327D01*
X248203838Y-88705799D01*
X248204162Y-88333833D01*
X248062117Y-87990057D01*
X247799327Y-87726808D01*
X247455799Y-87584162D01*
X247360451Y-87584079D01*
X247259840Y-87516853D01*
X247166735Y-87498333D01*
X240157001Y-80488599D01*
X239910439Y-80323852D01*
X239901321Y-80322038D01*
X239890526Y-80267766D01*
X239565670Y-79781585D01*
X239079489Y-79456729D01*
X238506000Y-79342655D01*
X237932511Y-79456729D01*
X237446330Y-79781585D01*
X237236000Y-80096366D01*
X237025670Y-79781585D01*
X236539489Y-79456729D01*
X235966000Y-79342655D01*
X235392511Y-79456729D01*
X234906330Y-79781585D01*
X234696000Y-80096366D01*
X234485670Y-79781585D01*
X233999489Y-79456729D01*
X233642844Y-79385788D01*
X233678739Y-79378648D01*
X233925301Y-79213901D01*
X237377947Y-75761255D01*
X239547400Y-75761255D01*
X239547400Y-76130745D01*
X239661474Y-76704234D01*
X239986330Y-77190415D01*
X240024621Y-77216000D01*
X239986330Y-77241585D01*
X239661474Y-77727766D01*
X239547400Y-78301255D01*
X239547400Y-78670745D01*
X239661474Y-79244234D01*
X239986330Y-79730415D01*
X240472511Y-80055271D01*
X241046000Y-80169345D01*
X241619489Y-80055271D01*
X242105670Y-79730415D01*
X242430526Y-79244234D01*
X242544600Y-78670745D01*
X242544600Y-78301255D01*
X242430526Y-77727766D01*
X242105670Y-77241585D01*
X242067379Y-77216000D01*
X242105670Y-77190415D01*
X242430526Y-76704234D01*
X242544600Y-76130745D01*
X242544600Y-75761255D01*
X242430526Y-75187766D01*
X242105670Y-74701585D01*
X241619489Y-74376729D01*
X241046000Y-74262655D01*
X240472511Y-74376729D01*
X239986330Y-74701585D01*
X239661474Y-75187766D01*
X239547400Y-75761255D01*
X237377947Y-75761255D01*
X238125536Y-75013666D01*
X238506000Y-75089345D01*
X239079489Y-74975271D01*
X239565670Y-74650415D01*
X239890526Y-74164234D01*
X240004600Y-73590745D01*
X240004600Y-73221255D01*
X239890526Y-72647766D01*
X239565670Y-72161585D01*
X239079489Y-71836729D01*
X239045660Y-71830000D01*
X253290000Y-71830000D01*
X253290000Y-151690000D01*
X253290000Y-151690000D01*
G37*
X253290000Y-151690000D02*
X237196904Y-151690000D01*
X237553657Y-151542592D01*
X237901371Y-151195485D01*
X238089785Y-150741734D01*
X238090214Y-150250421D01*
X237902592Y-149796343D01*
X237555485Y-149448629D01*
X237101734Y-149260215D01*
X236610421Y-149259786D01*
X236156343Y-149447408D01*
X235808629Y-149794515D01*
X235620215Y-150248266D01*
X235619786Y-150739579D01*
X235807408Y-151193657D01*
X236154515Y-151541371D01*
X236512453Y-151690000D01*
X234656904Y-151690000D01*
X235013657Y-151542592D01*
X235361371Y-151195485D01*
X235549785Y-150741734D01*
X235550214Y-150250421D01*
X235362592Y-149796343D01*
X235015485Y-149448629D01*
X234561734Y-149260215D01*
X234070421Y-149259786D01*
X233616343Y-149447408D01*
X233268629Y-149794515D01*
X233080215Y-150248266D01*
X233079786Y-150739579D01*
X233267408Y-151193657D01*
X233614515Y-151541371D01*
X233972453Y-151690000D01*
X232116904Y-151690000D01*
X232473657Y-151542592D01*
X232821371Y-151195485D01*
X233009785Y-150741734D01*
X233010214Y-150250421D01*
X232822592Y-149796343D01*
X232475485Y-149448629D01*
X232021734Y-149260215D01*
X231530421Y-149259786D01*
X231076343Y-149447408D01*
X230728629Y-149794515D01*
X230540215Y-150248266D01*
X230539786Y-150739579D01*
X230727408Y-151193657D01*
X231074515Y-151541371D01*
X231432453Y-151690000D01*
X229576904Y-151690000D01*
X229933657Y-151542592D01*
X230281371Y-151195485D01*
X230469785Y-150741734D01*
X230470214Y-150250421D01*
X230282592Y-149796343D01*
X229935485Y-149448629D01*
X229481734Y-149260215D01*
X228990421Y-149259786D01*
X228536343Y-149447408D01*
X228188629Y-149794515D01*
X228000215Y-150248266D01*
X227999786Y-150739579D01*
X228187408Y-151193657D01*
X228534515Y-151541371D01*
X228892453Y-151690000D01*
X227036904Y-151690000D01*
X227393657Y-151542592D01*
X227741371Y-151195485D01*
X227929785Y-150741734D01*
X227930214Y-150250421D01*
X227742592Y-149796343D01*
X227667816Y-149721436D01*
X227778148Y-149556312D01*
X227836000Y-149265472D01*
X227836000Y-149255879D01*
X228066900Y-149351757D01*
X228622661Y-149352242D01*
X229136303Y-149140010D01*
X229529629Y-148747370D01*
X229742757Y-148234100D01*
X229743242Y-147678339D01*
X229531010Y-147164697D01*
X229138370Y-146771371D01*
X228625100Y-146558243D01*
X228069339Y-146557758D01*
X227836000Y-146654171D01*
X227836000Y-132842000D01*
X227778148Y-132551161D01*
X227613401Y-132304599D01*
X226718823Y-131410021D01*
X226939579Y-131410214D01*
X227393657Y-131222592D01*
X227741371Y-130875485D01*
X227929785Y-130421734D01*
X227929786Y-130419579D01*
X227999786Y-130419579D01*
X228187408Y-130873657D01*
X228534515Y-131221371D01*
X228988266Y-131409785D01*
X229479579Y-131410214D01*
X229933657Y-131222592D01*
X230281371Y-130875485D01*
X230469785Y-130421734D01*
X230469786Y-130419579D01*
X230539786Y-130419579D01*
X230727408Y-130873657D01*
X231074515Y-131221371D01*
X231528266Y-131409785D01*
X232019579Y-131410214D01*
X232473657Y-131222592D01*
X232821371Y-130875485D01*
X233009785Y-130421734D01*
X233009786Y-130419579D01*
X233079786Y-130419579D01*
X233267408Y-130873657D01*
X233614515Y-131221371D01*
X234068266Y-131409785D01*
X234559579Y-131410214D01*
X235013657Y-131222592D01*
X235361371Y-130875485D01*
X235549785Y-130421734D01*
X235549786Y-130419579D01*
X235619786Y-130419579D01*
X235807408Y-130873657D01*
X236154515Y-131221371D01*
X236608266Y-131409785D01*
X237099579Y-131410214D01*
X237553657Y-131222592D01*
X237738837Y-131037735D01*
X238711870Y-131037735D01*
X238761383Y-131263164D01*
X239226036Y-131422807D01*
X239716413Y-131392482D01*
X240028617Y-131263164D01*
X240078130Y-131037735D01*
X239395000Y-130354605D01*
X238711870Y-131037735D01*
X237738837Y-131037735D01*
X237901371Y-130875485D01*
X238089785Y-130421734D01*
X238090147Y-130006036D01*
X238147193Y-130006036D01*
X238177518Y-130496413D01*
X238306836Y-130808617D01*
X238532265Y-130858130D01*
X239215395Y-130175000D01*
X239574605Y-130175000D01*
X240257735Y-130858130D01*
X240483164Y-130808617D01*
X240616827Y-130419579D01*
X240699786Y-130419579D01*
X240887408Y-130873657D01*
X241234515Y-131221371D01*
X241688266Y-131409785D01*
X242179579Y-131410214D01*
X242633657Y-131222592D01*
X242981371Y-130875485D01*
X243169785Y-130421734D01*
X243170214Y-129930421D01*
X242982592Y-129476343D01*
X242635485Y-129128629D01*
X242181734Y-128940215D01*
X241690421Y-128939786D01*
X241236343Y-129127408D01*
X240888629Y-129474515D01*
X240700215Y-129928266D01*
X240699786Y-130419579D01*
X240616827Y-130419579D01*
X240642807Y-130343964D01*
X240612482Y-129853587D01*
X240483164Y-129541383D01*
X240257735Y-129491870D01*
X239574605Y-130175000D01*
X239215395Y-130175000D01*
X238532265Y-129491870D01*
X238306836Y-129541383D01*
X238147193Y-130006036D01*
X238090147Y-130006036D01*
X238090214Y-129930421D01*
X237902592Y-129476343D01*
X237738801Y-129312265D01*
X238711870Y-129312265D01*
X239395000Y-129995395D01*
X240078130Y-129312265D01*
X240028617Y-129086836D01*
X239563964Y-128927193D01*
X239073587Y-128957518D01*
X238761383Y-129086836D01*
X238711870Y-129312265D01*
X237738801Y-129312265D01*
X237555485Y-129128629D01*
X237101734Y-128940215D01*
X236610421Y-128939786D01*
X236156343Y-129127408D01*
X235808629Y-129474515D01*
X235620215Y-129928266D01*
X235619786Y-130419579D01*
X235549786Y-130419579D01*
X235550214Y-129930421D01*
X235362592Y-129476343D01*
X235015485Y-129128629D01*
X234561734Y-128940215D01*
X234070421Y-128939786D01*
X233616343Y-129127408D01*
X233268629Y-129474515D01*
X233080215Y-129928266D01*
X233079786Y-130419579D01*
X233009786Y-130419579D01*
X233010214Y-129930421D01*
X232822592Y-129476343D01*
X232475485Y-129128629D01*
X232021734Y-128940215D01*
X231530421Y-128939786D01*
X231076343Y-129127408D01*
X230728629Y-129474515D01*
X230540215Y-129928266D01*
X230539786Y-130419579D01*
X230469786Y-130419579D01*
X230470214Y-129930421D01*
X230282592Y-129476343D01*
X229935485Y-129128629D01*
X229481734Y-128940215D01*
X228990421Y-128939786D01*
X228536343Y-129127408D01*
X228188629Y-129474515D01*
X228000215Y-129928266D01*
X227999786Y-130419579D01*
X227929786Y-130419579D01*
X227930214Y-129930421D01*
X227742592Y-129476343D01*
X227395485Y-129128629D01*
X226941734Y-128940215D01*
X226450421Y-128939786D01*
X226058000Y-129101932D01*
X226058000Y-129032220D01*
X226082661Y-129032242D01*
X226596303Y-128820010D01*
X226989629Y-128427370D01*
X227075949Y-128219488D01*
X227160990Y-128425303D01*
X227553630Y-128818629D01*
X228066900Y-129031757D01*
X228622661Y-129032242D01*
X229136303Y-128820010D01*
X229529629Y-128427370D01*
X229742757Y-127914100D01*
X229743242Y-127358339D01*
X229531010Y-126844697D01*
X229138370Y-126451371D01*
X228625100Y-126238243D01*
X228069339Y-126237758D01*
X227555697Y-126449990D01*
X227162371Y-126842630D01*
X227076051Y-127050512D01*
X226991010Y-126844697D01*
X226598370Y-126451371D01*
X226085100Y-126238243D01*
X225529339Y-126237758D01*
X225113001Y-126409785D01*
X225113001Y-124277001D01*
X225055149Y-123986162D01*
X224890402Y-123739600D01*
X224871463Y-123720661D01*
X227710758Y-123720661D01*
X227922990Y-124234303D01*
X228315630Y-124627629D01*
X228828900Y-124840757D01*
X229384661Y-124841242D01*
X229898303Y-124629010D01*
X230103457Y-124424213D01*
X230847392Y-124424213D01*
X230916857Y-124666397D01*
X231440302Y-124853144D01*
X231995368Y-124825362D01*
X232379143Y-124666397D01*
X232448608Y-124424213D01*
X231648000Y-123623605D01*
X230847392Y-124424213D01*
X230103457Y-124424213D01*
X230291629Y-124236370D01*
X230371395Y-124044273D01*
X230425603Y-124175143D01*
X230667787Y-124244608D01*
X231468395Y-123444000D01*
X231827605Y-123444000D01*
X232628213Y-124244608D01*
X232870397Y-124175143D01*
X233057144Y-123651698D01*
X233029362Y-123096632D01*
X232870397Y-122712857D01*
X232628213Y-122643392D01*
X231827605Y-123444000D01*
X231468395Y-123444000D01*
X230667787Y-122643392D01*
X230425603Y-122712857D01*
X230375491Y-122853318D01*
X230293010Y-122653697D01*
X230103432Y-122463787D01*
X230847392Y-122463787D01*
X231648000Y-123264395D01*
X232448608Y-122463787D01*
X232379143Y-122221603D01*
X231855698Y-122034856D01*
X231300632Y-122062638D01*
X230916857Y-122221603D01*
X230847392Y-122463787D01*
X230103432Y-122463787D01*
X229900370Y-122260371D01*
X229387100Y-122047243D01*
X228831339Y-122046758D01*
X228317697Y-122258990D01*
X227924371Y-122651630D01*
X227711243Y-123164900D01*
X227710758Y-123720661D01*
X224871463Y-123720661D01*
X214276783Y-113125981D01*
X214350900Y-113156757D01*
X214906661Y-113157242D01*
X215420303Y-112945010D01*
X215813629Y-112552370D01*
X216026757Y-112039100D01*
X216027201Y-111530233D01*
X220696432Y-106861002D01*
X243393807Y-129558376D01*
X243240215Y-129928266D01*
X243239786Y-130419579D01*
X243427408Y-130873657D01*
X243774515Y-131221371D01*
X244228266Y-131409785D01*
X244719579Y-131410214D01*
X245173657Y-131222592D01*
X245521371Y-130875485D01*
X245709785Y-130421734D01*
X245709786Y-130419579D01*
X245779786Y-130419579D01*
X245967408Y-130873657D01*
X246314515Y-131221371D01*
X246768266Y-131409785D01*
X247259579Y-131410214D01*
X247713657Y-131222592D01*
X248061371Y-130875485D01*
X248249785Y-130421734D01*
X248250214Y-129930421D01*
X248062592Y-129476343D01*
X247715485Y-129128629D01*
X247261734Y-128940215D01*
X246770421Y-128939786D01*
X246316343Y-129127408D01*
X245968629Y-129474515D01*
X245780215Y-129928266D01*
X245779786Y-130419579D01*
X245709786Y-130419579D01*
X245710214Y-129930421D01*
X245522592Y-129476343D01*
X245403500Y-129357043D01*
X245403500Y-129326472D01*
X245332822Y-128971150D01*
X245131549Y-128669923D01*
X245131546Y-128669921D01*
X221624500Y-105162874D01*
X221624500Y-95504000D01*
X221553822Y-95148678D01*
X221456000Y-95002277D01*
X221456000Y-88160661D01*
X227710758Y-88160661D01*
X227922990Y-88674303D01*
X228315630Y-89067629D01*
X228828900Y-89280757D01*
X229384661Y-89281242D01*
X229898303Y-89069010D01*
X230291629Y-88676370D01*
X230377949Y-88468488D01*
X230462990Y-88674303D01*
X230855630Y-89067629D01*
X231368900Y-89280757D01*
X231924661Y-89281242D01*
X232438303Y-89069010D01*
X232831629Y-88676370D01*
X233044757Y-88163100D01*
X233045242Y-87607339D01*
X232833010Y-87093697D01*
X232440370Y-86700371D01*
X231927100Y-86487243D01*
X231371339Y-86486758D01*
X230857697Y-86698990D01*
X230464371Y-87091630D01*
X230378051Y-87299512D01*
X230293010Y-87093697D01*
X229900370Y-86700371D01*
X229387100Y-86487243D01*
X228831339Y-86486758D01*
X228317697Y-86698990D01*
X227924371Y-87091630D01*
X227711243Y-87604900D01*
X227710758Y-88160661D01*
X221456000Y-88160661D01*
X221456000Y-81180302D01*
X223199802Y-79436500D01*
X232954209Y-79436500D01*
X232852511Y-79456729D01*
X232366330Y-79781585D01*
X232041474Y-80267766D01*
X231927400Y-80841255D01*
X231927400Y-81210745D01*
X232041474Y-81784234D01*
X232366330Y-82270415D01*
X232852511Y-82595271D01*
X233426000Y-82709345D01*
X233999489Y-82595271D01*
X234485670Y-82270415D01*
X234696000Y-81955634D01*
X234906330Y-82270415D01*
X235246983Y-82498032D01*
X235263852Y-82582839D01*
X235428599Y-82829401D01*
X236448599Y-83849401D01*
X236695161Y-84014148D01*
X236986000Y-84072000D01*
X240731198Y-84072000D01*
X245239633Y-88580435D01*
X245250853Y-88636840D01*
X245317920Y-88737213D01*
X245317838Y-88831167D01*
X245459883Y-89174943D01*
X245722673Y-89438192D01*
X246066201Y-89580838D01*
X246438167Y-89581162D01*
X246781943Y-89439117D01*
X246859734Y-89361461D01*
X247082201Y-89453838D01*
X247454167Y-89454162D01*
X247797943Y-89312117D01*
X248061192Y-89049327D01*
X248203838Y-88705799D01*
X248204162Y-88333833D01*
X248062117Y-87990057D01*
X247799327Y-87726808D01*
X247455799Y-87584162D01*
X247360451Y-87584079D01*
X247259840Y-87516853D01*
X247166735Y-87498333D01*
X240157001Y-80488599D01*
X239910439Y-80323852D01*
X239901321Y-80322038D01*
X239890526Y-80267766D01*
X239565670Y-79781585D01*
X239079489Y-79456729D01*
X238506000Y-79342655D01*
X237932511Y-79456729D01*
X237446330Y-79781585D01*
X237236000Y-80096366D01*
X237025670Y-79781585D01*
X236539489Y-79456729D01*
X235966000Y-79342655D01*
X235392511Y-79456729D01*
X234906330Y-79781585D01*
X234696000Y-80096366D01*
X234485670Y-79781585D01*
X233999489Y-79456729D01*
X233642844Y-79385788D01*
X233678739Y-79378648D01*
X233925301Y-79213901D01*
X237377947Y-75761255D01*
X239547400Y-75761255D01*
X239547400Y-76130745D01*
X239661474Y-76704234D01*
X239986330Y-77190415D01*
X240024621Y-77216000D01*
X239986330Y-77241585D01*
X239661474Y-77727766D01*
X239547400Y-78301255D01*
X239547400Y-78670745D01*
X239661474Y-79244234D01*
X239986330Y-79730415D01*
X240472511Y-80055271D01*
X241046000Y-80169345D01*
X241619489Y-80055271D01*
X242105670Y-79730415D01*
X242430526Y-79244234D01*
X242544600Y-78670745D01*
X242544600Y-78301255D01*
X242430526Y-77727766D01*
X242105670Y-77241585D01*
X242067379Y-77216000D01*
X242105670Y-77190415D01*
X242430526Y-76704234D01*
X242544600Y-76130745D01*
X242544600Y-75761255D01*
X242430526Y-75187766D01*
X242105670Y-74701585D01*
X241619489Y-74376729D01*
X241046000Y-74262655D01*
X240472511Y-74376729D01*
X239986330Y-74701585D01*
X239661474Y-75187766D01*
X239547400Y-75761255D01*
X237377947Y-75761255D01*
X238125536Y-75013666D01*
X238506000Y-75089345D01*
X239079489Y-74975271D01*
X239565670Y-74650415D01*
X239890526Y-74164234D01*
X240004600Y-73590745D01*
X240004600Y-73221255D01*
X239890526Y-72647766D01*
X239565670Y-72161585D01*
X239079489Y-71836729D01*
X239045660Y-71830000D01*
X253290000Y-71830000D01*
X253290000Y-151690000D01*
G36*
X232852511Y-71836729D02*
X232366330Y-72161585D01*
X232041474Y-72647766D01*
X231927400Y-73221255D01*
X231927400Y-73590745D01*
X232041474Y-74164234D01*
X232366330Y-74650415D01*
X232852511Y-74975271D01*
X233426000Y-75089345D01*
X233999489Y-74975271D01*
X234485670Y-74650415D01*
X234692461Y-74340931D01*
X235063964Y-74756732D01*
X235591209Y-75010709D01*
X235606974Y-75013358D01*
X235838998Y-74892218D01*
X235838998Y-75057000D01*
X235932598Y-75057000D01*
X233073098Y-77916500D01*
X222885000Y-77916500D01*
X222594161Y-77974352D01*
X222594159Y-77974353D01*
X222594160Y-77974353D01*
X222347599Y-78139099D01*
X220158599Y-80328099D01*
X219993852Y-80574661D01*
X219936000Y-80865500D01*
X219936000Y-93468821D01*
X212932630Y-86465451D01*
X212777804Y-86362000D01*
X212631403Y-86264178D01*
X212572450Y-86252452D01*
X212276081Y-86193499D01*
X212276076Y-86193500D01*
X212224713Y-86193500D01*
X212124054Y-86042853D01*
X211642285Y-85720946D01*
X211074000Y-85607907D01*
X210505715Y-85720946D01*
X210023946Y-86042853D01*
X209804000Y-86372026D01*
X209584054Y-86042853D01*
X209102285Y-85720946D01*
X208534000Y-85607907D01*
X207965715Y-85720946D01*
X207483946Y-86042853D01*
X207454597Y-86086777D01*
X207382327Y-85912302D01*
X207203699Y-85733673D01*
X206970310Y-85637000D01*
X206279750Y-85637000D01*
X206121000Y-85795750D01*
X206121000Y-86995000D01*
X206141000Y-86995000D01*
X206141000Y-87249000D01*
X206121000Y-87249000D01*
X206121000Y-88448250D01*
X206279750Y-88607000D01*
X206970310Y-88607000D01*
X207203699Y-88510327D01*
X207382327Y-88331698D01*
X207454597Y-88157223D01*
X207483946Y-88201147D01*
X207774000Y-88394954D01*
X207774000Y-108458000D01*
X207831852Y-108748839D01*
X207996599Y-108995401D01*
X214451389Y-115450191D01*
X214282632Y-115458638D01*
X213898857Y-115617603D01*
X213829392Y-115859787D01*
X214630000Y-116660395D01*
X214644143Y-116646253D01*
X214823748Y-116825858D01*
X214809605Y-116840000D01*
X215610213Y-117640608D01*
X215852397Y-117571143D01*
X216039144Y-117047698D01*
X216038630Y-117037432D01*
X223593001Y-124591803D01*
X223593001Y-126258133D01*
X223545100Y-126238243D01*
X222989339Y-126237758D01*
X222475697Y-126449990D01*
X222082371Y-126842630D01*
X221996051Y-127050512D01*
X221911010Y-126844697D01*
X221518370Y-126451371D01*
X221005100Y-126238243D01*
X220449339Y-126237758D01*
X219935697Y-126449990D01*
X219542371Y-126842630D01*
X219456051Y-127050512D01*
X219371010Y-126844697D01*
X218978370Y-126451371D01*
X218465100Y-126238243D01*
X217909339Y-126237758D01*
X217395697Y-126449990D01*
X217002371Y-126842630D01*
X216916051Y-127050512D01*
X216831010Y-126844697D01*
X216438370Y-126451371D01*
X215925100Y-126238243D01*
X215369339Y-126237758D01*
X214855697Y-126449990D01*
X214462371Y-126842630D01*
X214376051Y-127050512D01*
X214291010Y-126844697D01*
X213898370Y-126451371D01*
X213385100Y-126238243D01*
X212829339Y-126237758D01*
X212315697Y-126449990D01*
X211922371Y-126842630D01*
X211836051Y-127050512D01*
X211751010Y-126844697D01*
X211358370Y-126451371D01*
X210845100Y-126238243D01*
X210289339Y-126237758D01*
X209775697Y-126449990D01*
X209382371Y-126842630D01*
X209296051Y-127050512D01*
X209211010Y-126844697D01*
X208818370Y-126451371D01*
X208305100Y-126238243D01*
X207749339Y-126237758D01*
X207235697Y-126449990D01*
X206842371Y-126842630D01*
X206756051Y-127050512D01*
X206671010Y-126844697D01*
X206278370Y-126451371D01*
X205765100Y-126238243D01*
X205209339Y-126237758D01*
X204695697Y-126449990D01*
X204302371Y-126842630D01*
X204216051Y-127050512D01*
X204131010Y-126844697D01*
X203738370Y-126451371D01*
X203225100Y-126238243D01*
X202669339Y-126237758D01*
X202155697Y-126449990D01*
X201762371Y-126842630D01*
X201676051Y-127050512D01*
X201591010Y-126844697D01*
X201231500Y-126484559D01*
X201231500Y-119656661D01*
X213232758Y-119656661D01*
X213444990Y-120170303D01*
X213837630Y-120563629D01*
X214045512Y-120649949D01*
X213839697Y-120734990D01*
X213446371Y-121127630D01*
X213233243Y-121640900D01*
X213232758Y-122196661D01*
X213444990Y-122710303D01*
X213837630Y-123103629D01*
X214350900Y-123316757D01*
X214906661Y-123317242D01*
X215420303Y-123105010D01*
X215813629Y-122712370D01*
X216026757Y-122199100D01*
X216027242Y-121643339D01*
X215815010Y-121129697D01*
X215422370Y-120736371D01*
X215214488Y-120650051D01*
X215420303Y-120565010D01*
X215813629Y-120172370D01*
X216026757Y-119659100D01*
X216027242Y-119103339D01*
X215815010Y-118589697D01*
X215422370Y-118196371D01*
X215230273Y-118116605D01*
X215361143Y-118062397D01*
X215430608Y-117820213D01*
X214630000Y-117019605D01*
X213829392Y-117820213D01*
X213898857Y-118062397D01*
X214039318Y-118112509D01*
X213839697Y-118194990D01*
X213446371Y-118587630D01*
X213233243Y-119100900D01*
X213232758Y-119656661D01*
X201231500Y-119656661D01*
X201231500Y-116632302D01*
X213220856Y-116632302D01*
X213248638Y-117187368D01*
X213407603Y-117571143D01*
X213649787Y-117640608D01*
X214450395Y-116840000D01*
X213649787Y-116039392D01*
X213407603Y-116108857D01*
X213220856Y-116632302D01*
X201231500Y-116632302D01*
X201231500Y-98998370D01*
X201168663Y-98682465D01*
X200989717Y-98414653D01*
X200989714Y-98414651D01*
X192288347Y-89713283D01*
X192020536Y-89534337D01*
X191794774Y-89489431D01*
X191419370Y-89113371D01*
X191227273Y-89033605D01*
X191358143Y-88979397D01*
X191427608Y-88737213D01*
X190627000Y-87936605D01*
X189826392Y-88737213D01*
X189895857Y-88979397D01*
X190036318Y-89029509D01*
X189836697Y-89111990D01*
X189443371Y-89504630D01*
X189230243Y-90017900D01*
X189229758Y-90573661D01*
X189441990Y-91087303D01*
X189834630Y-91480629D01*
X190042512Y-91566949D01*
X189836697Y-91651990D01*
X189443371Y-92044630D01*
X189230243Y-92557900D01*
X189229758Y-93113661D01*
X189441990Y-93627303D01*
X189834630Y-94020629D01*
X190347900Y-94233757D01*
X190903661Y-94234242D01*
X191417303Y-94022010D01*
X191777441Y-93662500D01*
X192825066Y-93662500D01*
X198818500Y-99655933D01*
X198818500Y-122485887D01*
X198709162Y-122749201D01*
X198708838Y-123121167D01*
X198850883Y-123464943D01*
X199113673Y-123728192D01*
X199457201Y-123870838D01*
X199580500Y-123870945D01*
X199580500Y-126485126D01*
X199222371Y-126842630D01*
X199009243Y-127355900D01*
X199008758Y-127911661D01*
X199220990Y-128425303D01*
X199613630Y-128818629D01*
X200126900Y-129031757D01*
X200682661Y-129032242D01*
X201196303Y-128820010D01*
X201589629Y-128427370D01*
X201675949Y-128219488D01*
X201760990Y-128425303D01*
X202153630Y-128818629D01*
X202666900Y-129031757D01*
X203014138Y-129032060D01*
X203012198Y-129034000D01*
X198180802Y-129034000D01*
X192657000Y-123510198D01*
X192657000Y-120777000D01*
X192614832Y-120565010D01*
X192599148Y-120486160D01*
X192434401Y-120239599D01*
X191884183Y-119689381D01*
X191896757Y-119659100D01*
X191897242Y-119103339D01*
X191685010Y-118589697D01*
X191292370Y-118196371D01*
X191100273Y-118116605D01*
X191231143Y-118062397D01*
X191300608Y-117820213D01*
X190500000Y-117019605D01*
X189699392Y-117820213D01*
X189768857Y-118062397D01*
X189909318Y-118112509D01*
X189709697Y-118194990D01*
X189316371Y-118587630D01*
X189103243Y-119100900D01*
X189102758Y-119656661D01*
X189314990Y-120170303D01*
X189707630Y-120563629D01*
X189915512Y-120649949D01*
X189709697Y-120734990D01*
X189316371Y-121127630D01*
X189103243Y-121640900D01*
X189102758Y-122196661D01*
X189314990Y-122710303D01*
X189707630Y-123103629D01*
X189751418Y-123121811D01*
X189797852Y-123355249D01*
X189962599Y-123601811D01*
X197142199Y-130781412D01*
X197388760Y-130946159D01*
X197679600Y-131004011D01*
X205416989Y-131004011D01*
X205707828Y-130946159D01*
X205954390Y-130781412D01*
X207716619Y-129019183D01*
X207746900Y-129031757D01*
X208302661Y-129032242D01*
X208816303Y-128820010D01*
X209209629Y-128427370D01*
X209295949Y-128219488D01*
X209380990Y-128425303D01*
X209579584Y-128624244D01*
X209451588Y-128752240D01*
X209290313Y-128993606D01*
X209161734Y-128940215D01*
X208670421Y-128939786D01*
X208216343Y-129127408D01*
X207868629Y-129474515D01*
X207680215Y-129928266D01*
X207679786Y-130419579D01*
X207867408Y-130873657D01*
X208214515Y-131221371D01*
X208466990Y-131326208D01*
X195773198Y-144020000D01*
X191697531Y-144020000D01*
X191685010Y-143989697D01*
X191292370Y-143596371D01*
X191100273Y-143516605D01*
X191231143Y-143462397D01*
X191300608Y-143220213D01*
X190500000Y-142419605D01*
X189699392Y-143220213D01*
X189768857Y-143462397D01*
X189909318Y-143512509D01*
X189709697Y-143594990D01*
X189316371Y-143987630D01*
X189103243Y-144500900D01*
X189102758Y-145056661D01*
X189314990Y-145570303D01*
X189707630Y-145963629D01*
X189915512Y-146049949D01*
X189709697Y-146134990D01*
X189316371Y-146527630D01*
X189103243Y-147040900D01*
X189102758Y-147596661D01*
X189314990Y-148110303D01*
X189707630Y-148503629D01*
X190220900Y-148716757D01*
X190776661Y-148717242D01*
X191290303Y-148505010D01*
X191683629Y-148112370D01*
X191697070Y-148080000D01*
X194184410Y-148080000D01*
X194475249Y-148022148D01*
X194721811Y-147857401D01*
X210695000Y-131884212D01*
X210695000Y-136682194D01*
X204948599Y-142428595D01*
X204783852Y-142675157D01*
X204726000Y-142965996D01*
X204726000Y-146757469D01*
X204695697Y-146769990D01*
X204302371Y-147162630D01*
X204216051Y-147370512D01*
X204131010Y-147164697D01*
X203738370Y-146771371D01*
X203225100Y-146558243D01*
X202669339Y-146557758D01*
X202155697Y-146769990D01*
X201762371Y-147162630D01*
X201676051Y-147370512D01*
X201591010Y-147164697D01*
X201198370Y-146771371D01*
X200685100Y-146558243D01*
X200129339Y-146557758D01*
X199615697Y-146769990D01*
X199222371Y-147162630D01*
X199009243Y-147675900D01*
X199008758Y-148231661D01*
X199220990Y-148745303D01*
X199613630Y-149138629D01*
X200126900Y-149351757D01*
X200682661Y-149352242D01*
X201196303Y-149140010D01*
X201589629Y-148747370D01*
X201675949Y-148539488D01*
X201760990Y-148745303D01*
X202153630Y-149138629D01*
X202666900Y-149351757D01*
X203222661Y-149352242D01*
X203736303Y-149140010D01*
X204129629Y-148747370D01*
X204215949Y-148539488D01*
X204300990Y-148745303D01*
X204693630Y-149138629D01*
X205206900Y-149351757D01*
X205762661Y-149352242D01*
X206276303Y-149140010D01*
X206669629Y-148747370D01*
X206755949Y-148539488D01*
X206840990Y-148745303D01*
X207233630Y-149138629D01*
X207746900Y-149351757D01*
X208302661Y-149352242D01*
X208816303Y-149140010D01*
X209209629Y-148747370D01*
X209295949Y-148539488D01*
X209380990Y-148745303D01*
X209773630Y-149138629D01*
X210286900Y-149351757D01*
X210842661Y-149352242D01*
X211356303Y-149140010D01*
X211561457Y-148935213D01*
X212305392Y-148935213D01*
X212374857Y-149177397D01*
X212898302Y-149364144D01*
X213453368Y-149336362D01*
X213837143Y-149177397D01*
X213906608Y-148935213D01*
X213106000Y-148134605D01*
X212305392Y-148935213D01*
X211561457Y-148935213D01*
X211749629Y-148747370D01*
X211829395Y-148555273D01*
X211883603Y-148686143D01*
X212125787Y-148755608D01*
X212926395Y-147955000D01*
X213285605Y-147955000D01*
X214086213Y-148755608D01*
X214328397Y-148686143D01*
X214378509Y-148545682D01*
X214460990Y-148745303D01*
X214853630Y-149138629D01*
X215366900Y-149351757D01*
X215922661Y-149352242D01*
X216436303Y-149140010D01*
X216641457Y-148935213D01*
X217385392Y-148935213D01*
X217454857Y-149177397D01*
X217978302Y-149364144D01*
X218533368Y-149336362D01*
X218917143Y-149177397D01*
X218986608Y-148935213D01*
X218186000Y-148134605D01*
X217385392Y-148935213D01*
X216641457Y-148935213D01*
X216829629Y-148747370D01*
X216909395Y-148555273D01*
X216963603Y-148686143D01*
X217205787Y-148755608D01*
X218006395Y-147955000D01*
X217205787Y-147154392D01*
X216963603Y-147223857D01*
X216913491Y-147364318D01*
X216831010Y-147164697D01*
X216641432Y-146974787D01*
X217385392Y-146974787D01*
X218186000Y-147775395D01*
X218986608Y-146974787D01*
X218917143Y-146732603D01*
X218393698Y-146545856D01*
X217838632Y-146573638D01*
X217454857Y-146732603D01*
X217385392Y-146974787D01*
X216641432Y-146974787D01*
X216438370Y-146771371D01*
X215925100Y-146558243D01*
X215369339Y-146557758D01*
X214855697Y-146769990D01*
X214462371Y-147162630D01*
X214382605Y-147354727D01*
X214328397Y-147223857D01*
X214086213Y-147154392D01*
X213285605Y-147955000D01*
X212926395Y-147955000D01*
X212125787Y-147154392D01*
X211883603Y-147223857D01*
X211833491Y-147364318D01*
X211751010Y-147164697D01*
X211561432Y-146974787D01*
X212305392Y-146974787D01*
X213106000Y-147775395D01*
X213906608Y-146974787D01*
X213837143Y-146732603D01*
X213313698Y-146545856D01*
X212758632Y-146573638D01*
X212374857Y-146732603D01*
X212305392Y-146974787D01*
X211561432Y-146974787D01*
X211358370Y-146771371D01*
X210845100Y-146558243D01*
X210289339Y-146557758D01*
X209775697Y-146769990D01*
X209382371Y-147162630D01*
X209296051Y-147370512D01*
X209211010Y-147164697D01*
X208818370Y-146771371D01*
X208305100Y-146558243D01*
X207749339Y-146557758D01*
X207235697Y-146769990D01*
X206842371Y-147162630D01*
X206756051Y-147370512D01*
X206671010Y-147164697D01*
X206278370Y-146771371D01*
X206246000Y-146757930D01*
X206246000Y-143601368D01*
X206442201Y-143682838D01*
X206814167Y-143683162D01*
X207157943Y-143541117D01*
X207421192Y-143278327D01*
X207563838Y-142934799D01*
X207563879Y-142887923D01*
X214532401Y-135919401D01*
X214697148Y-135672839D01*
X214755000Y-135382000D01*
X214755000Y-131161356D01*
X215041371Y-130875485D01*
X215229785Y-130421734D01*
X215229786Y-130419579D01*
X215299786Y-130419579D01*
X215487408Y-130873657D01*
X215834515Y-131221371D01*
X216288266Y-131409785D01*
X216779579Y-131410214D01*
X217233657Y-131222592D01*
X217581371Y-130875485D01*
X217769785Y-130421734D01*
X217769786Y-130419579D01*
X217839786Y-130419579D01*
X218027408Y-130873657D01*
X218374515Y-131221371D01*
X218828266Y-131409785D01*
X219319579Y-131410214D01*
X219773657Y-131222592D01*
X220121371Y-130875485D01*
X220309785Y-130421734D01*
X220309786Y-130419579D01*
X220379786Y-130419579D01*
X220567408Y-130873657D01*
X220914515Y-131221371D01*
X221368266Y-131409785D01*
X221859579Y-131410214D01*
X222313657Y-131222592D01*
X222661371Y-130875485D01*
X222849785Y-130421734D01*
X222850214Y-129930421D01*
X222662592Y-129476343D01*
X222315485Y-129128629D01*
X221861734Y-128940215D01*
X221370421Y-128939786D01*
X220916343Y-129127408D01*
X220568629Y-129474515D01*
X220380215Y-129928266D01*
X220379786Y-130419579D01*
X220309786Y-130419579D01*
X220310214Y-129930421D01*
X220122592Y-129476343D01*
X219775485Y-129128629D01*
X219321734Y-128940215D01*
X218830421Y-128939786D01*
X218376343Y-129127408D01*
X218028629Y-129474515D01*
X217840215Y-129928266D01*
X217839786Y-130419579D01*
X217769786Y-130419579D01*
X217770214Y-129930421D01*
X217582592Y-129476343D01*
X217235485Y-129128629D01*
X216781734Y-128940215D01*
X216290421Y-128939786D01*
X215836343Y-129127408D01*
X215488629Y-129474515D01*
X215300215Y-129928266D01*
X215299786Y-130419579D01*
X215229786Y-130419579D01*
X215230214Y-129930421D01*
X215042592Y-129476343D01*
X214695485Y-129128629D01*
X214241734Y-128940215D01*
X213750421Y-128939786D01*
X213296343Y-129127408D01*
X212948629Y-129474515D01*
X212760215Y-129928266D01*
X212759786Y-130419579D01*
X212947408Y-130873657D01*
X213235000Y-131161752D01*
X213235000Y-135067198D01*
X212215000Y-136087198D01*
X212215000Y-131161356D01*
X212501371Y-130875485D01*
X212689785Y-130421734D01*
X212690214Y-129930421D01*
X212502592Y-129476343D01*
X212405339Y-129378920D01*
X212500401Y-129315401D01*
X212796619Y-129019183D01*
X212826900Y-129031757D01*
X213382661Y-129032242D01*
X213896303Y-128820010D01*
X214289629Y-128427370D01*
X214375949Y-128219488D01*
X214460990Y-128425303D01*
X214853630Y-128818629D01*
X215366900Y-129031757D01*
X215922661Y-129032242D01*
X216436303Y-128820010D01*
X216829629Y-128427370D01*
X216915949Y-128219488D01*
X217000990Y-128425303D01*
X217393630Y-128818629D01*
X217906900Y-129031757D01*
X218462661Y-129032242D01*
X218976303Y-128820010D01*
X219369629Y-128427370D01*
X219455949Y-128219488D01*
X219540990Y-128425303D01*
X219933630Y-128818629D01*
X220446900Y-129031757D01*
X221002661Y-129032242D01*
X221516303Y-128820010D01*
X221909629Y-128427370D01*
X221995949Y-128219488D01*
X222080990Y-128425303D01*
X222473630Y-128818629D01*
X222986900Y-129031757D01*
X223542661Y-129032242D01*
X224056303Y-128820010D01*
X224181984Y-128694548D01*
X224446054Y-128958618D01*
X224401734Y-128940215D01*
X223910421Y-128939786D01*
X223456343Y-129127408D01*
X223108629Y-129474515D01*
X222920215Y-129928266D01*
X222919786Y-130419579D01*
X223107408Y-130873657D01*
X223454515Y-131221371D01*
X223908266Y-131409785D01*
X224399579Y-131410214D01*
X224591124Y-131331069D01*
X224595852Y-131354839D01*
X224760599Y-131601401D01*
X226316000Y-133156802D01*
X226316000Y-146654121D01*
X226085100Y-146558243D01*
X225529339Y-146557758D01*
X225015697Y-146769990D01*
X224622371Y-147162630D01*
X224536051Y-147370512D01*
X224451010Y-147164697D01*
X224058370Y-146771371D01*
X223545100Y-146558243D01*
X222989339Y-146557758D01*
X222475697Y-146769990D01*
X222082371Y-147162630D01*
X221996051Y-147370512D01*
X221911010Y-147164697D01*
X221518370Y-146771371D01*
X221005100Y-146558243D01*
X220449339Y-146557758D01*
X219935697Y-146769990D01*
X219542371Y-147162630D01*
X219462605Y-147354727D01*
X219408397Y-147223857D01*
X219166213Y-147154392D01*
X218365605Y-147955000D01*
X219166213Y-148755608D01*
X219408397Y-148686143D01*
X219458509Y-148545682D01*
X219540990Y-148745303D01*
X219933630Y-149138629D01*
X220446900Y-149351757D01*
X221002661Y-149352242D01*
X221516303Y-149140010D01*
X221909629Y-148747370D01*
X221995949Y-148539488D01*
X222080990Y-148745303D01*
X222473630Y-149138629D01*
X222986900Y-149351757D01*
X223542661Y-149352242D01*
X224056303Y-149140010D01*
X224449629Y-148747370D01*
X224535949Y-148539488D01*
X224620990Y-148745303D01*
X225013630Y-149138629D01*
X225526900Y-149351757D01*
X225995169Y-149352166D01*
X225992852Y-149355633D01*
X225969209Y-149474495D01*
X225648629Y-149794515D01*
X225460215Y-150248266D01*
X225459786Y-150739579D01*
X225647408Y-151193657D01*
X225994515Y-151541371D01*
X226352453Y-151690000D01*
X224496904Y-151690000D01*
X224853657Y-151542592D01*
X225201371Y-151195485D01*
X225389785Y-150741734D01*
X225390214Y-150250421D01*
X225202592Y-149796343D01*
X224855485Y-149448629D01*
X224401734Y-149260215D01*
X223910421Y-149259786D01*
X223456343Y-149447408D01*
X223108629Y-149794515D01*
X222920215Y-150248266D01*
X222919786Y-150739579D01*
X223107408Y-151193657D01*
X223454515Y-151541371D01*
X223812453Y-151690000D01*
X221956904Y-151690000D01*
X222313657Y-151542592D01*
X222661371Y-151195485D01*
X222849785Y-150741734D01*
X222850214Y-150250421D01*
X222662592Y-149796343D01*
X222315485Y-149448629D01*
X221861734Y-149260215D01*
X221370421Y-149259786D01*
X220916343Y-149447408D01*
X220568629Y-149794515D01*
X220380215Y-150248266D01*
X220379786Y-150739579D01*
X220567408Y-151193657D01*
X220914515Y-151541371D01*
X221272453Y-151690000D01*
X219416904Y-151690000D01*
X219773657Y-151542592D01*
X220121371Y-151195485D01*
X220309785Y-150741734D01*
X220310214Y-150250421D01*
X220122592Y-149796343D01*
X219775485Y-149448629D01*
X219321734Y-149260215D01*
X218830421Y-149259786D01*
X218376343Y-149447408D01*
X218028629Y-149794515D01*
X217840215Y-150248266D01*
X217839786Y-150739579D01*
X218027408Y-151193657D01*
X218374515Y-151541371D01*
X218732453Y-151690000D01*
X216876904Y-151690000D01*
X217233657Y-151542592D01*
X217581371Y-151195485D01*
X217769785Y-150741734D01*
X217770214Y-150250421D01*
X217582592Y-149796343D01*
X217235485Y-149448629D01*
X216781734Y-149260215D01*
X216290421Y-149259786D01*
X215836343Y-149447408D01*
X215488629Y-149794515D01*
X215300215Y-150248266D01*
X215299786Y-150739579D01*
X215487408Y-151193657D01*
X215834515Y-151541371D01*
X216192453Y-151690000D01*
X214336904Y-151690000D01*
X214693657Y-151542592D01*
X215041371Y-151195485D01*
X215229785Y-150741734D01*
X215230214Y-150250421D01*
X215042592Y-149796343D01*
X214695485Y-149448629D01*
X214241734Y-149260215D01*
X213750421Y-149259786D01*
X213296343Y-149447408D01*
X212948629Y-149794515D01*
X212760215Y-150248266D01*
X212759786Y-150739579D01*
X212947408Y-151193657D01*
X213294515Y-151541371D01*
X213652453Y-151690000D01*
X211796904Y-151690000D01*
X212153657Y-151542592D01*
X212501371Y-151195485D01*
X212689785Y-150741734D01*
X212690214Y-150250421D01*
X212502592Y-149796343D01*
X212155485Y-149448629D01*
X211701734Y-149260215D01*
X211210421Y-149259786D01*
X210756343Y-149447408D01*
X210408629Y-149794515D01*
X210220215Y-150248266D01*
X210219786Y-150739579D01*
X210407408Y-151193657D01*
X210754515Y-151541371D01*
X211112453Y-151690000D01*
X209256904Y-151690000D01*
X209613657Y-151542592D01*
X209961371Y-151195485D01*
X210149785Y-150741734D01*
X210150214Y-150250421D01*
X209962592Y-149796343D01*
X209615485Y-149448629D01*
X209161734Y-149260215D01*
X208670421Y-149259786D01*
X208216343Y-149447408D01*
X207868629Y-149794515D01*
X207680215Y-150248266D01*
X207679786Y-150739579D01*
X207867408Y-151193657D01*
X208214515Y-151541371D01*
X208572453Y-151690000D01*
X158190000Y-151690000D01*
X158190000Y-140970000D01*
X160731907Y-140970000D01*
X160844946Y-141538285D01*
X161166853Y-142020054D01*
X161496026Y-142240000D01*
X161166853Y-142459946D01*
X160844946Y-142941715D01*
X160731907Y-143510000D01*
X160844946Y-144078285D01*
X161166853Y-144560054D01*
X161208452Y-144587850D01*
X161160683Y-144596838D01*
X160944559Y-144735910D01*
X160799569Y-144948110D01*
X160748560Y-145200000D01*
X160748560Y-146900000D01*
X160792838Y-147135317D01*
X160931910Y-147351441D01*
X161144110Y-147496431D01*
X161396000Y-147547440D01*
X163096000Y-147547440D01*
X163331317Y-147503162D01*
X163547441Y-147364090D01*
X163692431Y-147151890D01*
X163743440Y-146900000D01*
X163743440Y-145200000D01*
X163699162Y-144964683D01*
X163560090Y-144748559D01*
X163347890Y-144603569D01*
X163280459Y-144589914D01*
X163325147Y-144560054D01*
X163475189Y-144335500D01*
X165728126Y-144335500D01*
X166085630Y-144693629D01*
X166293512Y-144779949D01*
X166087697Y-144864990D01*
X165694371Y-145257630D01*
X165481243Y-145770900D01*
X165480758Y-146326661D01*
X165692990Y-146840303D01*
X166085630Y-147233629D01*
X166598900Y-147446757D01*
X167154661Y-147447242D01*
X167668303Y-147235010D01*
X168061629Y-146842370D01*
X168274757Y-146329100D01*
X168275242Y-145773339D01*
X168063010Y-145259697D01*
X167670370Y-144866371D01*
X167462488Y-144780051D01*
X167668303Y-144695010D01*
X168061629Y-144302370D01*
X168274757Y-143789100D01*
X168275242Y-143233339D01*
X168063010Y-142719697D01*
X167860329Y-142516661D01*
X171322758Y-142516661D01*
X171534990Y-143030303D01*
X171927630Y-143423629D01*
X172135512Y-143509949D01*
X171929697Y-143594990D01*
X171536371Y-143987630D01*
X171323243Y-144500900D01*
X171322758Y-145056661D01*
X171534990Y-145570303D01*
X171927630Y-145963629D01*
X172135512Y-146049949D01*
X171929697Y-146134990D01*
X171536371Y-146527630D01*
X171323243Y-147040900D01*
X171322758Y-147596661D01*
X171534990Y-148110303D01*
X171927630Y-148503629D01*
X172440900Y-148716757D01*
X172996661Y-148717242D01*
X173510303Y-148505010D01*
X173903629Y-148112370D01*
X174116757Y-147599100D01*
X174117242Y-147043339D01*
X173905010Y-146529697D01*
X173512370Y-146136371D01*
X173304488Y-146050051D01*
X173510303Y-145965010D01*
X173903629Y-145572370D01*
X174116757Y-145059100D01*
X174117060Y-144711862D01*
X175992599Y-146587401D01*
X176239161Y-146752148D01*
X176530000Y-146810000D01*
X183460469Y-146810000D01*
X183472990Y-146840303D01*
X183865630Y-147233629D01*
X184378900Y-147446757D01*
X184934661Y-147447242D01*
X185448303Y-147235010D01*
X185841629Y-146842370D01*
X186054757Y-146329100D01*
X186055242Y-145773339D01*
X185843010Y-145259697D01*
X185450370Y-144866371D01*
X185242488Y-144780051D01*
X185448303Y-144695010D01*
X185841629Y-144302370D01*
X186054757Y-143789100D01*
X186055242Y-143233339D01*
X185843010Y-142719697D01*
X185450370Y-142326371D01*
X185242488Y-142240051D01*
X185448303Y-142155010D01*
X185571225Y-142032302D01*
X189090856Y-142032302D01*
X189118638Y-142587368D01*
X189277603Y-142971143D01*
X189519787Y-143040608D01*
X190320395Y-142240000D01*
X190679605Y-142240000D01*
X191480213Y-143040608D01*
X191722397Y-142971143D01*
X191909144Y-142447698D01*
X191881362Y-141892632D01*
X191722397Y-141508857D01*
X191480213Y-141439392D01*
X190679605Y-142240000D01*
X190320395Y-142240000D01*
X189519787Y-141439392D01*
X189277603Y-141508857D01*
X189090856Y-142032302D01*
X185571225Y-142032302D01*
X185841629Y-141762370D01*
X186050319Y-141259787D01*
X189699392Y-141259787D01*
X190500000Y-142060395D01*
X191300608Y-141259787D01*
X191231143Y-141017603D01*
X190707698Y-140830856D01*
X190152632Y-140858638D01*
X189768857Y-141017603D01*
X189699392Y-141259787D01*
X186050319Y-141259787D01*
X186054757Y-141249100D01*
X186055242Y-140693339D01*
X185843010Y-140179697D01*
X185450370Y-139786371D01*
X184937100Y-139573243D01*
X184381339Y-139572758D01*
X183867697Y-139784990D01*
X183474371Y-140177630D01*
X183261243Y-140690900D01*
X183260758Y-141246661D01*
X183472990Y-141760303D01*
X183865630Y-142153629D01*
X184073512Y-142239949D01*
X183867697Y-142324990D01*
X183474371Y-142717630D01*
X183261243Y-143230900D01*
X183260758Y-143786661D01*
X183472990Y-144300303D01*
X183865630Y-144693629D01*
X184073512Y-144779949D01*
X183867697Y-144864990D01*
X183474371Y-145257630D01*
X183460930Y-145290000D01*
X176844802Y-145290000D01*
X174104183Y-142549381D01*
X174116757Y-142519100D01*
X174117242Y-141963339D01*
X173905010Y-141449697D01*
X173512370Y-141056371D01*
X172999100Y-140843243D01*
X172443339Y-140842758D01*
X171929697Y-141054990D01*
X171536371Y-141447630D01*
X171323243Y-141960900D01*
X171322758Y-142516661D01*
X167860329Y-142516661D01*
X167670370Y-142326371D01*
X167462488Y-142240051D01*
X167668303Y-142155010D01*
X168061629Y-141762370D01*
X168274757Y-141249100D01*
X168275242Y-140693339D01*
X168063010Y-140179697D01*
X167670370Y-139786371D01*
X167157100Y-139573243D01*
X166601339Y-139572758D01*
X166087697Y-139784990D01*
X165694371Y-140177630D01*
X165481243Y-140690900D01*
X165480758Y-141246661D01*
X165692990Y-141760303D01*
X166085630Y-142153629D01*
X166293512Y-142239949D01*
X166087697Y-142324990D01*
X165727559Y-142684500D01*
X163475189Y-142684500D01*
X163325147Y-142459946D01*
X162995974Y-142240000D01*
X163325147Y-142020054D01*
X163647054Y-141538285D01*
X163760093Y-140970000D01*
X163647054Y-140401715D01*
X163325147Y-139919946D01*
X162843378Y-139598039D01*
X162275093Y-139485000D01*
X162216907Y-139485000D01*
X161648622Y-139598039D01*
X161166853Y-139919946D01*
X160844946Y-140401715D01*
X160731907Y-140970000D01*
X158190000Y-140970000D01*
X158190000Y-132356661D01*
X171322758Y-132356661D01*
X171534990Y-132870303D01*
X171927630Y-133263629D01*
X172135512Y-133349949D01*
X171929697Y-133434990D01*
X171536371Y-133827630D01*
X171323243Y-134340900D01*
X171322758Y-134896661D01*
X171534990Y-135410303D01*
X171927630Y-135803629D01*
X172135512Y-135889949D01*
X171929697Y-135974990D01*
X171536371Y-136367630D01*
X171323243Y-136880900D01*
X171322758Y-137436661D01*
X171534990Y-137950303D01*
X171927630Y-138343629D01*
X172440900Y-138556757D01*
X172996661Y-138557242D01*
X173510303Y-138345010D01*
X173903629Y-137952370D01*
X174116757Y-137439100D01*
X174117242Y-136883339D01*
X173905010Y-136369697D01*
X173512370Y-135976371D01*
X173304488Y-135890051D01*
X173510303Y-135805010D01*
X173903629Y-135412370D01*
X174116757Y-134899100D01*
X174117242Y-134343339D01*
X173905010Y-133829697D01*
X173512370Y-133436371D01*
X173304488Y-133350051D01*
X173510303Y-133265010D01*
X173903629Y-132872370D01*
X174116757Y-132359100D01*
X174116759Y-132356661D01*
X189102758Y-132356661D01*
X189314990Y-132870303D01*
X189707630Y-133263629D01*
X189915512Y-133349949D01*
X189709697Y-133434990D01*
X189316371Y-133827630D01*
X189103243Y-134340900D01*
X189102758Y-134896661D01*
X189314990Y-135410303D01*
X189707630Y-135803629D01*
X189915512Y-135889949D01*
X189709697Y-135974990D01*
X189316371Y-136367630D01*
X189103243Y-136880900D01*
X189102758Y-137436661D01*
X189314990Y-137950303D01*
X189707630Y-138343629D01*
X190220900Y-138556757D01*
X190776661Y-138557242D01*
X191290303Y-138345010D01*
X191683629Y-137952370D01*
X191896757Y-137439100D01*
X191897242Y-136883339D01*
X191685010Y-136369697D01*
X191292370Y-135976371D01*
X191084488Y-135890051D01*
X191290303Y-135805010D01*
X191683629Y-135412370D01*
X191896757Y-134899100D01*
X191897242Y-134343339D01*
X191685010Y-133829697D01*
X191292370Y-133436371D01*
X191084488Y-133350051D01*
X191290303Y-133265010D01*
X191683629Y-132872370D01*
X191896757Y-132359100D01*
X191897242Y-131803339D01*
X191685010Y-131289697D01*
X191292370Y-130896371D01*
X190779100Y-130683243D01*
X190223339Y-130682758D01*
X189709697Y-130894990D01*
X189316371Y-131287630D01*
X189103243Y-131800900D01*
X189102758Y-132356661D01*
X174116759Y-132356661D01*
X174117242Y-131803339D01*
X173905010Y-131289697D01*
X173512370Y-130896371D01*
X172999100Y-130683243D01*
X172443339Y-130682758D01*
X171929697Y-130894990D01*
X171536371Y-131287630D01*
X171323243Y-131800900D01*
X171322758Y-132356661D01*
X158190000Y-132356661D01*
X158190000Y-124490000D01*
X160731907Y-124490000D01*
X160844946Y-125058285D01*
X161166853Y-125540054D01*
X161496026Y-125760000D01*
X161166853Y-125979946D01*
X160844946Y-126461715D01*
X160731907Y-127030000D01*
X160844946Y-127598285D01*
X161166853Y-128080054D01*
X161208452Y-128107850D01*
X161160683Y-128116838D01*
X160944559Y-128255910D01*
X160799569Y-128468110D01*
X160748560Y-128720000D01*
X160748560Y-130420000D01*
X160792838Y-130655317D01*
X160931910Y-130871441D01*
X161144110Y-131016431D01*
X161396000Y-131067440D01*
X163096000Y-131067440D01*
X163331317Y-131023162D01*
X163547441Y-130884090D01*
X163692431Y-130671890D01*
X163743440Y-130420000D01*
X163743440Y-128720000D01*
X163699162Y-128484683D01*
X163560090Y-128268559D01*
X163347890Y-128123569D01*
X163280459Y-128109914D01*
X163325147Y-128080054D01*
X163495234Y-127825500D01*
X165728126Y-127825500D01*
X166085630Y-128183629D01*
X166293512Y-128269949D01*
X166087697Y-128354990D01*
X165694371Y-128747630D01*
X165481243Y-129260900D01*
X165480758Y-129816661D01*
X165692990Y-130330303D01*
X166085630Y-130723629D01*
X166598900Y-130936757D01*
X167154661Y-130937242D01*
X167668303Y-130725010D01*
X168061629Y-130332370D01*
X168274757Y-129819100D01*
X168275201Y-129310232D01*
X169112714Y-128472719D01*
X169112717Y-128472717D01*
X169291663Y-128204905D01*
X169297566Y-128175229D01*
X169354501Y-127889000D01*
X169354500Y-127888995D01*
X169354500Y-117116661D01*
X171322758Y-117116661D01*
X171534990Y-117630303D01*
X171927630Y-118023629D01*
X172135512Y-118109949D01*
X171929697Y-118194990D01*
X171536371Y-118587630D01*
X171323243Y-119100900D01*
X171322758Y-119656661D01*
X171534990Y-120170303D01*
X171927630Y-120563629D01*
X172135512Y-120649949D01*
X171929697Y-120734990D01*
X171536371Y-121127630D01*
X171323243Y-121640900D01*
X171322758Y-122196661D01*
X171534990Y-122710303D01*
X171927630Y-123103629D01*
X172440900Y-123316757D01*
X172996661Y-123317242D01*
X173510303Y-123105010D01*
X173903629Y-122712370D01*
X174116757Y-122199100D01*
X174117242Y-121643339D01*
X173905010Y-121129697D01*
X173512370Y-120736371D01*
X173304488Y-120650051D01*
X173510303Y-120565010D01*
X173903629Y-120172370D01*
X173995153Y-119951955D01*
X183273817Y-129230619D01*
X183261243Y-129260900D01*
X183260758Y-129816661D01*
X183472990Y-130330303D01*
X183865630Y-130723629D01*
X184378900Y-130936757D01*
X184934661Y-130937242D01*
X185448303Y-130725010D01*
X185841629Y-130332370D01*
X186054757Y-129819100D01*
X186055242Y-129263339D01*
X185843010Y-128749697D01*
X185450370Y-128356371D01*
X185242488Y-128270051D01*
X185448303Y-128185010D01*
X185841629Y-127792370D01*
X186054757Y-127279100D01*
X186055242Y-126723339D01*
X185843010Y-126209697D01*
X185450370Y-125816371D01*
X185242488Y-125730051D01*
X185448303Y-125645010D01*
X185841629Y-125252370D01*
X186054757Y-124739100D01*
X186055242Y-124183339D01*
X185843010Y-123669697D01*
X185450370Y-123276371D01*
X184937100Y-123063243D01*
X184381339Y-123062758D01*
X183867697Y-123274990D01*
X183474371Y-123667630D01*
X183261243Y-124180900D01*
X183260758Y-124736661D01*
X183472990Y-125250303D01*
X183865630Y-125643629D01*
X184073512Y-125729949D01*
X183867697Y-125814990D01*
X183474371Y-126207630D01*
X183261243Y-126720900D01*
X183260940Y-127068137D01*
X173864366Y-117671564D01*
X173903629Y-117632370D01*
X174116757Y-117119100D01*
X174117181Y-116632302D01*
X189090856Y-116632302D01*
X189118638Y-117187368D01*
X189277603Y-117571143D01*
X189519787Y-117640608D01*
X190320395Y-116840000D01*
X190679605Y-116840000D01*
X191480213Y-117640608D01*
X191722397Y-117571143D01*
X191909144Y-117047698D01*
X191881362Y-116492632D01*
X191722397Y-116108857D01*
X191480213Y-116039392D01*
X190679605Y-116840000D01*
X190320395Y-116840000D01*
X189519787Y-116039392D01*
X189277603Y-116108857D01*
X189090856Y-116632302D01*
X174117181Y-116632302D01*
X174117242Y-116563339D01*
X173905010Y-116049697D01*
X173715432Y-115859787D01*
X189699392Y-115859787D01*
X190500000Y-116660395D01*
X191300608Y-115859787D01*
X191231143Y-115617603D01*
X190707698Y-115430856D01*
X190152632Y-115458638D01*
X189768857Y-115617603D01*
X189699392Y-115859787D01*
X173715432Y-115859787D01*
X173512370Y-115656371D01*
X172999100Y-115443243D01*
X172443339Y-115442758D01*
X171929697Y-115654990D01*
X171536371Y-116047630D01*
X171323243Y-116560900D01*
X171322758Y-117116661D01*
X169354500Y-117116661D01*
X169354500Y-116292934D01*
X172490634Y-113156800D01*
X172996661Y-113157242D01*
X173510303Y-112945010D01*
X173903629Y-112552370D01*
X174116757Y-112039100D01*
X174117242Y-111483339D01*
X173905010Y-110969697D01*
X173512370Y-110576371D01*
X173304488Y-110490051D01*
X173510303Y-110405010D01*
X173903629Y-110012370D01*
X174116757Y-109499100D01*
X174117242Y-108943339D01*
X173905010Y-108429697D01*
X173672381Y-108196661D01*
X183222758Y-108196661D01*
X183434990Y-108710303D01*
X183827630Y-109103629D01*
X184035512Y-109189949D01*
X183829697Y-109274990D01*
X183436371Y-109667630D01*
X183223243Y-110180900D01*
X183222758Y-110736661D01*
X183434990Y-111250303D01*
X183827630Y-111643629D01*
X184035512Y-111729949D01*
X183829697Y-111814990D01*
X183436371Y-112207630D01*
X183223243Y-112720900D01*
X183222758Y-113276661D01*
X183434990Y-113790303D01*
X183827630Y-114183629D01*
X184340900Y-114396757D01*
X184896661Y-114397242D01*
X185410303Y-114185010D01*
X185803629Y-113792370D01*
X186016757Y-113279100D01*
X186017242Y-112723339D01*
X185805010Y-112209697D01*
X185412370Y-111816371D01*
X185204488Y-111730051D01*
X185410303Y-111645010D01*
X185803629Y-111252370D01*
X186016757Y-110739100D01*
X186017242Y-110183339D01*
X185805010Y-109669697D01*
X185412370Y-109276371D01*
X185204488Y-109190051D01*
X185410303Y-109105010D01*
X185803629Y-108712370D01*
X186016757Y-108199100D01*
X186017242Y-107643339D01*
X185805010Y-107129697D01*
X185412370Y-106736371D01*
X184899100Y-106523243D01*
X184343339Y-106522758D01*
X183829697Y-106734990D01*
X183436371Y-107127630D01*
X183223243Y-107640900D01*
X183222758Y-108196661D01*
X173672381Y-108196661D01*
X173512370Y-108036371D01*
X173304488Y-107950051D01*
X173510303Y-107865010D01*
X173903629Y-107472370D01*
X174116757Y-106959100D01*
X174117242Y-106403339D01*
X173905010Y-105889697D01*
X173512370Y-105496371D01*
X172999100Y-105283243D01*
X172443339Y-105282758D01*
X171929697Y-105494990D01*
X171536371Y-105887630D01*
X171323243Y-106400900D01*
X171322758Y-106956661D01*
X171534990Y-107470303D01*
X171927630Y-107863629D01*
X172135512Y-107949949D01*
X171929697Y-108034990D01*
X171536371Y-108427630D01*
X171323243Y-108940900D01*
X171322758Y-109496661D01*
X171534990Y-110010303D01*
X171927630Y-110403629D01*
X172135512Y-110489949D01*
X171929697Y-110574990D01*
X171536371Y-110967630D01*
X171323243Y-111480900D01*
X171322799Y-111989767D01*
X167945283Y-115367283D01*
X167766337Y-115635094D01*
X167762105Y-115656371D01*
X167703500Y-115951000D01*
X167703500Y-123309559D01*
X167670370Y-123276371D01*
X167157100Y-123063243D01*
X166601339Y-123062758D01*
X166087697Y-123274990D01*
X165694371Y-123667630D01*
X165481243Y-124180900D01*
X165480758Y-124736661D01*
X165692990Y-125250303D01*
X166085630Y-125643629D01*
X166293512Y-125729949D01*
X166087697Y-125814990D01*
X165727559Y-126174500D01*
X163455144Y-126174500D01*
X163325147Y-125979946D01*
X162995974Y-125760000D01*
X163325147Y-125540054D01*
X163647054Y-125058285D01*
X163760093Y-124490000D01*
X163647054Y-123921715D01*
X163325147Y-123439946D01*
X162843378Y-123118039D01*
X162275093Y-123005000D01*
X162216907Y-123005000D01*
X161648622Y-123118039D01*
X161166853Y-123439946D01*
X160844946Y-123921715D01*
X160731907Y-124490000D01*
X158190000Y-124490000D01*
X158190000Y-107920000D01*
X160985907Y-107920000D01*
X161098946Y-108488285D01*
X161420853Y-108970054D01*
X161750026Y-109190000D01*
X161420853Y-109409946D01*
X161098946Y-109891715D01*
X160985907Y-110460000D01*
X161098946Y-111028285D01*
X161420853Y-111510054D01*
X161462452Y-111537850D01*
X161414683Y-111546838D01*
X161198559Y-111685910D01*
X161053569Y-111898110D01*
X161002560Y-112150000D01*
X161002560Y-113850000D01*
X161046838Y-114085317D01*
X161185910Y-114301441D01*
X161398110Y-114446431D01*
X161650000Y-114497440D01*
X163350000Y-114497440D01*
X163585317Y-114453162D01*
X163801441Y-114314090D01*
X163946431Y-114101890D01*
X163997440Y-113850000D01*
X163997440Y-112150000D01*
X163953162Y-111914683D01*
X163814090Y-111698559D01*
X163601890Y-111553569D01*
X163534459Y-111539914D01*
X163579147Y-111510054D01*
X163729189Y-111285500D01*
X165690126Y-111285500D01*
X166047630Y-111643629D01*
X166255512Y-111729949D01*
X166049697Y-111814990D01*
X165656371Y-112207630D01*
X165443243Y-112720900D01*
X165442758Y-113276661D01*
X165654990Y-113790303D01*
X166047630Y-114183629D01*
X166560900Y-114396757D01*
X167116661Y-114397242D01*
X167630303Y-114185010D01*
X168023629Y-113792370D01*
X168236757Y-113279100D01*
X168237242Y-112723339D01*
X168025010Y-112209697D01*
X167632370Y-111816371D01*
X167424488Y-111730051D01*
X167630303Y-111645010D01*
X168023629Y-111252370D01*
X168236757Y-110739100D01*
X168237242Y-110183339D01*
X168025010Y-109669697D01*
X167632370Y-109276371D01*
X167424488Y-109190051D01*
X167630303Y-109105010D01*
X168023629Y-108712370D01*
X168236757Y-108199100D01*
X168237242Y-107643339D01*
X168025010Y-107129697D01*
X167632370Y-106736371D01*
X167119100Y-106523243D01*
X166563339Y-106522758D01*
X166049697Y-106734990D01*
X165656371Y-107127630D01*
X165443243Y-107640900D01*
X165442758Y-108196661D01*
X165654990Y-108710303D01*
X166047630Y-109103629D01*
X166255512Y-109189949D01*
X166049697Y-109274990D01*
X165689559Y-109634500D01*
X163729189Y-109634500D01*
X163579147Y-109409946D01*
X163249974Y-109190000D01*
X163579147Y-108970054D01*
X163901054Y-108488285D01*
X164014093Y-107920000D01*
X163901054Y-107351715D01*
X163579147Y-106869946D01*
X163097378Y-106548039D01*
X162529093Y-106435000D01*
X162470907Y-106435000D01*
X161902622Y-106548039D01*
X161420853Y-106869946D01*
X161098946Y-107351715D01*
X160985907Y-107920000D01*
X158190000Y-107920000D01*
X158190000Y-91380000D01*
X160985907Y-91380000D01*
X161098946Y-91948285D01*
X161420853Y-92430054D01*
X161750026Y-92650000D01*
X161420853Y-92869946D01*
X161098946Y-93351715D01*
X160985907Y-93920000D01*
X161098946Y-94488285D01*
X161420853Y-94970054D01*
X161462452Y-94997850D01*
X161414683Y-95006838D01*
X161198559Y-95145910D01*
X161053569Y-95358110D01*
X161002560Y-95610000D01*
X161002560Y-97310000D01*
X161046838Y-97545317D01*
X161185910Y-97761441D01*
X161398110Y-97906431D01*
X161650000Y-97957440D01*
X163350000Y-97957440D01*
X163585317Y-97913162D01*
X163801441Y-97774090D01*
X163946431Y-97561890D01*
X163997440Y-97310000D01*
X163997440Y-95610000D01*
X163953162Y-95374683D01*
X163814090Y-95158559D01*
X163601890Y-95013569D01*
X163534459Y-94999914D01*
X163579147Y-94970054D01*
X163772954Y-94680000D01*
X165642469Y-94680000D01*
X165654990Y-94710303D01*
X166047630Y-95103629D01*
X166255512Y-95189949D01*
X166049697Y-95274990D01*
X165656371Y-95667630D01*
X165443243Y-96180900D01*
X165442758Y-96736661D01*
X165654990Y-97250303D01*
X166047630Y-97643629D01*
X166560900Y-97856757D01*
X167069767Y-97857201D01*
X170451781Y-101239215D01*
X170719592Y-101418161D01*
X171035498Y-101480999D01*
X171035503Y-101480998D01*
X188203508Y-101480998D01*
X189385046Y-102662536D01*
X189326808Y-102720673D01*
X189184162Y-103064201D01*
X189183838Y-103436167D01*
X189325883Y-103779943D01*
X189588673Y-104043192D01*
X189932201Y-104185838D01*
X189979077Y-104185879D01*
X191287580Y-105494382D01*
X190779100Y-105283243D01*
X190223339Y-105282758D01*
X189709697Y-105494990D01*
X189316371Y-105887630D01*
X189103243Y-106400900D01*
X189102758Y-106956661D01*
X189314990Y-107470303D01*
X189707630Y-107863629D01*
X189915512Y-107949949D01*
X189709697Y-108034990D01*
X189316371Y-108427630D01*
X189103243Y-108940900D01*
X189102758Y-109496661D01*
X189314990Y-110010303D01*
X189707630Y-110403629D01*
X189915512Y-110489949D01*
X189709697Y-110574990D01*
X189316371Y-110967630D01*
X189103243Y-111480900D01*
X189102758Y-112036661D01*
X189314990Y-112550303D01*
X189707630Y-112943629D01*
X190220900Y-113156757D01*
X190776661Y-113157242D01*
X191290303Y-112945010D01*
X191683629Y-112552370D01*
X191772000Y-112339549D01*
X191772000Y-112522000D01*
X191829852Y-112812839D01*
X191994599Y-113059401D01*
X195465817Y-116530619D01*
X195453243Y-116560900D01*
X195452758Y-117116661D01*
X195664990Y-117630303D01*
X196057630Y-118023629D01*
X196265512Y-118109949D01*
X196059697Y-118194990D01*
X195666371Y-118587630D01*
X195453243Y-119100900D01*
X195452758Y-119656661D01*
X195664990Y-120170303D01*
X196057630Y-120563629D01*
X196265512Y-120649949D01*
X196059697Y-120734990D01*
X195666371Y-121127630D01*
X195453243Y-121640900D01*
X195452758Y-122196661D01*
X195664990Y-122710303D01*
X196057630Y-123103629D01*
X196570900Y-123316757D01*
X197126661Y-123317242D01*
X197640303Y-123105010D01*
X198033629Y-122712370D01*
X198246757Y-122199100D01*
X198247242Y-121643339D01*
X198035010Y-121129697D01*
X197642370Y-120736371D01*
X197434488Y-120650051D01*
X197640303Y-120565010D01*
X198033629Y-120172370D01*
X198246757Y-119659100D01*
X198247242Y-119103339D01*
X198035010Y-118589697D01*
X197642370Y-118196371D01*
X197434488Y-118110051D01*
X197640303Y-118025010D01*
X198033629Y-117632370D01*
X198246757Y-117119100D01*
X198247242Y-116563339D01*
X198035010Y-116049697D01*
X197642370Y-115656371D01*
X197129100Y-115443243D01*
X196573339Y-115442758D01*
X196540945Y-115456143D01*
X193292000Y-112207198D01*
X193292000Y-106569490D01*
X194871999Y-108149489D01*
X194871999Y-110607499D01*
X194934836Y-110923405D01*
X195113782Y-111191216D01*
X195453200Y-111530633D01*
X195452758Y-112036661D01*
X195664990Y-112550303D01*
X196057630Y-112943629D01*
X196570900Y-113156757D01*
X197126661Y-113157242D01*
X197640303Y-112945010D01*
X198033629Y-112552370D01*
X198246757Y-112039100D01*
X198247242Y-111483339D01*
X198035010Y-110969697D01*
X197642370Y-110576371D01*
X197434488Y-110490051D01*
X197640303Y-110405010D01*
X198033629Y-110012370D01*
X198246757Y-109499100D01*
X198247242Y-108943339D01*
X198035010Y-108429697D01*
X197642370Y-108036371D01*
X197434488Y-107950051D01*
X197640303Y-107865010D01*
X198033629Y-107472370D01*
X198246757Y-106959100D01*
X198247242Y-106403339D01*
X198035010Y-105889697D01*
X197642370Y-105496371D01*
X197129100Y-105283243D01*
X196573339Y-105282758D01*
X196059697Y-105494990D01*
X195915776Y-105638660D01*
X195865117Y-105516057D01*
X195832000Y-105482882D01*
X195832000Y-104372000D01*
X195774148Y-104081161D01*
X195609401Y-103834599D01*
X186004183Y-94229381D01*
X186016757Y-94199100D01*
X186016979Y-93944413D01*
X189638282Y-97565715D01*
X189638284Y-97565718D01*
X189906096Y-97744664D01*
X190222001Y-97807501D01*
X192753461Y-97807501D01*
X192754883Y-97810943D01*
X193017673Y-98074192D01*
X193361201Y-98216838D01*
X193733167Y-98217162D01*
X194076943Y-98075117D01*
X194340192Y-97812327D01*
X194482838Y-97468799D01*
X194483162Y-97096833D01*
X194341117Y-96753057D01*
X194078327Y-96489808D01*
X193788714Y-96369550D01*
X193563907Y-96219338D01*
X193248001Y-96156501D01*
X190563934Y-96156501D01*
X186016800Y-91609366D01*
X186017242Y-91103339D01*
X185805010Y-90589697D01*
X185412370Y-90196371D01*
X184899100Y-89983243D01*
X184343339Y-89982758D01*
X183829697Y-90194990D01*
X183436371Y-90587630D01*
X183223243Y-91100900D01*
X183222758Y-91656661D01*
X183434990Y-92170303D01*
X183827630Y-92563629D01*
X184035512Y-92649949D01*
X183829697Y-92734990D01*
X183436371Y-93127630D01*
X183223243Y-93640900D01*
X183222758Y-94196661D01*
X183434990Y-94710303D01*
X183827630Y-95103629D01*
X184035512Y-95189949D01*
X183829697Y-95274990D01*
X183436371Y-95667630D01*
X183223243Y-96180900D01*
X183222758Y-96736661D01*
X183434990Y-97250303D01*
X183827630Y-97643629D01*
X184340900Y-97856757D01*
X184896661Y-97857242D01*
X185410303Y-97645010D01*
X185803629Y-97252370D01*
X186016757Y-96739100D01*
X186017060Y-96391862D01*
X194312000Y-104686802D01*
X194312000Y-105254622D01*
X189129159Y-100071781D01*
X188861348Y-99892835D01*
X188545442Y-99829998D01*
X171377432Y-99829998D01*
X168236800Y-96689366D01*
X168237242Y-96183339D01*
X168025010Y-95669697D01*
X167632370Y-95276371D01*
X167424488Y-95190051D01*
X167630303Y-95105010D01*
X168023629Y-94712370D01*
X168236757Y-94199100D01*
X168237242Y-93643339D01*
X168025010Y-93129697D01*
X167632370Y-92736371D01*
X167424488Y-92650051D01*
X167630303Y-92565010D01*
X168023629Y-92172370D01*
X168236757Y-91659100D01*
X168237242Y-91103339D01*
X168025010Y-90589697D01*
X167632370Y-90196371D01*
X167119100Y-89983243D01*
X166563339Y-89982758D01*
X166049697Y-90194990D01*
X165656371Y-90587630D01*
X165443243Y-91100900D01*
X165442758Y-91656661D01*
X165654990Y-92170303D01*
X166047630Y-92563629D01*
X166255512Y-92649949D01*
X166049697Y-92734990D01*
X165656371Y-93127630D01*
X165642930Y-93160000D01*
X163772954Y-93160000D01*
X163579147Y-92869946D01*
X163249974Y-92650000D01*
X163579147Y-92430054D01*
X163901054Y-91948285D01*
X164014093Y-91380000D01*
X163901054Y-90811715D01*
X163579147Y-90329946D01*
X163097378Y-90008039D01*
X162529093Y-89895000D01*
X162470907Y-89895000D01*
X161902622Y-90008039D01*
X161420853Y-90329946D01*
X161098946Y-90811715D01*
X160985907Y-91380000D01*
X158190000Y-91380000D01*
X158190000Y-88033661D01*
X171449758Y-88033661D01*
X171661990Y-88547303D01*
X172054630Y-88940629D01*
X172262512Y-89026949D01*
X172056697Y-89111990D01*
X171663371Y-89504630D01*
X171450243Y-90017900D01*
X171449758Y-90573661D01*
X171661990Y-91087303D01*
X172054630Y-91480629D01*
X172262512Y-91566949D01*
X172056697Y-91651990D01*
X171663371Y-92044630D01*
X171450243Y-92557900D01*
X171449758Y-93113661D01*
X171661990Y-93627303D01*
X172054630Y-94020629D01*
X172567900Y-94233757D01*
X173123661Y-94234242D01*
X173637303Y-94022010D01*
X174030629Y-93629370D01*
X174243757Y-93116100D01*
X174244242Y-92560339D01*
X174032010Y-92046697D01*
X173639370Y-91653371D01*
X173431488Y-91567051D01*
X173637303Y-91482010D01*
X174030629Y-91089370D01*
X174243757Y-90576100D01*
X174244060Y-90228862D01*
X175262000Y-91246802D01*
X175262000Y-92909537D01*
X175229808Y-92941673D01*
X175087162Y-93285201D01*
X175086838Y-93657167D01*
X175228883Y-94000943D01*
X175491673Y-94264192D01*
X175835201Y-94406838D01*
X176207167Y-94407162D01*
X176550943Y-94265117D01*
X176814192Y-94002327D01*
X176956838Y-93658799D01*
X176957162Y-93286833D01*
X176815117Y-92943057D01*
X176782000Y-92909882D01*
X176782000Y-90932000D01*
X176724148Y-90641161D01*
X176559401Y-90394599D01*
X174231183Y-88066381D01*
X174243757Y-88036100D01*
X174244181Y-87549302D01*
X189217856Y-87549302D01*
X189245638Y-88104368D01*
X189404603Y-88488143D01*
X189646787Y-88557608D01*
X190447395Y-87757000D01*
X190806605Y-87757000D01*
X191607213Y-88557608D01*
X191849397Y-88488143D01*
X192036144Y-87964698D01*
X192008362Y-87409632D01*
X192007583Y-87407750D01*
X204509000Y-87407750D01*
X204509000Y-88098309D01*
X204605673Y-88331698D01*
X204784301Y-88510327D01*
X205017690Y-88607000D01*
X205708250Y-88607000D01*
X205867000Y-88448250D01*
X205867000Y-87249000D01*
X204667750Y-87249000D01*
X204509000Y-87407750D01*
X192007583Y-87407750D01*
X191849397Y-87025857D01*
X191607213Y-86956392D01*
X190806605Y-87757000D01*
X190447395Y-87757000D01*
X189646787Y-86956392D01*
X189404603Y-87025857D01*
X189217856Y-87549302D01*
X174244181Y-87549302D01*
X174244242Y-87480339D01*
X174032010Y-86966697D01*
X173842432Y-86776787D01*
X189826392Y-86776787D01*
X190627000Y-87577395D01*
X191427608Y-86776787D01*
X191358143Y-86534603D01*
X190834698Y-86347856D01*
X190279632Y-86375638D01*
X189895857Y-86534603D01*
X189826392Y-86776787D01*
X173842432Y-86776787D01*
X173639370Y-86573371D01*
X173126100Y-86360243D01*
X172570339Y-86359758D01*
X172056697Y-86571990D01*
X171663371Y-86964630D01*
X171450243Y-87477900D01*
X171449758Y-88033661D01*
X158190000Y-88033661D01*
X158190000Y-86145691D01*
X204509000Y-86145691D01*
X204509000Y-86836250D01*
X204667750Y-86995000D01*
X205867000Y-86995000D01*
X205867000Y-85795750D01*
X205708250Y-85637000D01*
X205017690Y-85637000D01*
X204784301Y-85733673D01*
X204605673Y-85912302D01*
X204509000Y-86145691D01*
X158190000Y-86145691D01*
X158190000Y-77873661D01*
X171449758Y-77873661D01*
X171661990Y-78387303D01*
X172054630Y-78780629D01*
X172262512Y-78866949D01*
X172056697Y-78951990D01*
X171663371Y-79344630D01*
X171450243Y-79857900D01*
X171449758Y-80413661D01*
X171661990Y-80927303D01*
X172054630Y-81320629D01*
X172262512Y-81406949D01*
X172056697Y-81491990D01*
X171663371Y-81884630D01*
X171450243Y-82397900D01*
X171449758Y-82953661D01*
X171661990Y-83467303D01*
X172054630Y-83860629D01*
X172567900Y-84073757D01*
X173123661Y-84074242D01*
X173637303Y-83862010D01*
X174030629Y-83469370D01*
X174243757Y-82956100D01*
X174244242Y-82400339D01*
X174032010Y-81886697D01*
X173639370Y-81493371D01*
X173431488Y-81407051D01*
X173637303Y-81322010D01*
X174030629Y-80929370D01*
X174243757Y-80416100D01*
X174244242Y-79860339D01*
X174032010Y-79346697D01*
X173639370Y-78953371D01*
X173431488Y-78867051D01*
X173637303Y-78782010D01*
X174030629Y-78389370D01*
X174243757Y-77876100D01*
X174243759Y-77873661D01*
X189229758Y-77873661D01*
X189441990Y-78387303D01*
X189834630Y-78780629D01*
X190042512Y-78866949D01*
X189836697Y-78951990D01*
X189443371Y-79344630D01*
X189230243Y-79857900D01*
X189229758Y-80413661D01*
X189441990Y-80927303D01*
X189834630Y-81320629D01*
X190042512Y-81406949D01*
X189836697Y-81491990D01*
X189443371Y-81884630D01*
X189230243Y-82397900D01*
X189229758Y-82953661D01*
X189441990Y-83467303D01*
X189834630Y-83860629D01*
X190347900Y-84073757D01*
X190903661Y-84074242D01*
X191417303Y-83862010D01*
X191810629Y-83469370D01*
X192023757Y-82956100D01*
X192024242Y-82400339D01*
X191812010Y-81886697D01*
X191419370Y-81493371D01*
X191211488Y-81407051D01*
X191417303Y-81322010D01*
X191810629Y-80929370D01*
X192023757Y-80416100D01*
X192024242Y-79860339D01*
X191812010Y-79346697D01*
X191419370Y-78953371D01*
X191211488Y-78867051D01*
X191417303Y-78782010D01*
X191427580Y-78771750D01*
X204509000Y-78771750D01*
X204509000Y-79462309D01*
X204605673Y-79695698D01*
X204784301Y-79874327D01*
X205017690Y-79971000D01*
X205708250Y-79971000D01*
X205867000Y-79812250D01*
X205867000Y-78613000D01*
X204667750Y-78613000D01*
X204509000Y-78771750D01*
X191427580Y-78771750D01*
X191810629Y-78389370D01*
X192023757Y-77876100D01*
X192024076Y-77509691D01*
X204509000Y-77509691D01*
X204509000Y-78200250D01*
X204667750Y-78359000D01*
X205867000Y-78359000D01*
X205867000Y-77159750D01*
X206121000Y-77159750D01*
X206121000Y-78359000D01*
X206141000Y-78359000D01*
X206141000Y-78613000D01*
X206121000Y-78613000D01*
X206121000Y-79812250D01*
X206279750Y-79971000D01*
X206970310Y-79971000D01*
X207203699Y-79874327D01*
X207382327Y-79695698D01*
X207454597Y-79521223D01*
X207483946Y-79565147D01*
X207965715Y-79887054D01*
X208534000Y-80000093D01*
X209102285Y-79887054D01*
X209584054Y-79565147D01*
X209804000Y-79235974D01*
X210023946Y-79565147D01*
X210505715Y-79887054D01*
X211074000Y-80000093D01*
X211642285Y-79887054D01*
X212124054Y-79565147D01*
X212344000Y-79235974D01*
X212563946Y-79565147D01*
X213045715Y-79887054D01*
X213614000Y-80000093D01*
X214182285Y-79887054D01*
X214664054Y-79565147D01*
X214884000Y-79235974D01*
X215103946Y-79565147D01*
X215585715Y-79887054D01*
X216154000Y-80000093D01*
X216722285Y-79887054D01*
X217204054Y-79565147D01*
X217525961Y-79083378D01*
X217639000Y-78515093D01*
X217639000Y-78456907D01*
X217525961Y-77888622D01*
X217204054Y-77406853D01*
X216722285Y-77084946D01*
X216154000Y-76971907D01*
X215585715Y-77084946D01*
X215103946Y-77406853D01*
X214884000Y-77736026D01*
X214664054Y-77406853D01*
X214182285Y-77084946D01*
X213614000Y-76971907D01*
X213045715Y-77084946D01*
X212563946Y-77406853D01*
X212344000Y-77736026D01*
X212124054Y-77406853D01*
X211642285Y-77084946D01*
X211074000Y-76971907D01*
X210505715Y-77084946D01*
X210023946Y-77406853D01*
X209804000Y-77736026D01*
X209584054Y-77406853D01*
X209102285Y-77084946D01*
X208534000Y-76971907D01*
X207965715Y-77084946D01*
X207483946Y-77406853D01*
X207454597Y-77450777D01*
X207382327Y-77276302D01*
X207203699Y-77097673D01*
X206970310Y-77001000D01*
X206279750Y-77001000D01*
X206121000Y-77159750D01*
X205867000Y-77159750D01*
X205708250Y-77001000D01*
X205017690Y-77001000D01*
X204784301Y-77097673D01*
X204605673Y-77276302D01*
X204509000Y-77509691D01*
X192024076Y-77509691D01*
X192024242Y-77320339D01*
X191812010Y-76806697D01*
X191419370Y-76413371D01*
X190906100Y-76200243D01*
X190350339Y-76199758D01*
X189836697Y-76411990D01*
X189443371Y-76804630D01*
X189230243Y-77317900D01*
X189229758Y-77873661D01*
X174243759Y-77873661D01*
X174244242Y-77320339D01*
X174032010Y-76806697D01*
X173639370Y-76413371D01*
X173126100Y-76200243D01*
X172570339Y-76199758D01*
X172056697Y-76411990D01*
X171663371Y-76804630D01*
X171450243Y-77317900D01*
X171449758Y-77873661D01*
X158190000Y-77873661D01*
X158190000Y-74463242D01*
X204450915Y-74463242D01*
X204450915Y-75153801D01*
X204547588Y-75387190D01*
X204726216Y-75565819D01*
X204959605Y-75662492D01*
X205650165Y-75662492D01*
X205808915Y-75503742D01*
X205808915Y-74304492D01*
X204609665Y-74304492D01*
X204450915Y-74463242D01*
X158190000Y-74463242D01*
X158190000Y-73201183D01*
X204450915Y-73201183D01*
X204450915Y-73891742D01*
X204609665Y-74050492D01*
X205808915Y-74050492D01*
X205808915Y-72851242D01*
X206062915Y-72851242D01*
X206062915Y-74050492D01*
X206082915Y-74050492D01*
X206082915Y-74304492D01*
X206062915Y-74304492D01*
X206062915Y-75503742D01*
X206221665Y-75662492D01*
X206912225Y-75662492D01*
X207145614Y-75565819D01*
X207324242Y-75387190D01*
X207396512Y-75212715D01*
X207425861Y-75256639D01*
X207907630Y-75578546D01*
X208475915Y-75691585D01*
X209044200Y-75578546D01*
X209525969Y-75256639D01*
X209745915Y-74927466D01*
X209965861Y-75256639D01*
X210447630Y-75578546D01*
X211015915Y-75691585D01*
X211584200Y-75578546D01*
X212065969Y-75256639D01*
X212285915Y-74927466D01*
X212505861Y-75256639D01*
X212987630Y-75578546D01*
X213555915Y-75691585D01*
X214124200Y-75578546D01*
X214605969Y-75256639D01*
X214825915Y-74927466D01*
X215045861Y-75256639D01*
X215527630Y-75578546D01*
X216095915Y-75691585D01*
X216664200Y-75578546D01*
X217145969Y-75256639D01*
X217467876Y-74774870D01*
X217580915Y-74206585D01*
X217580915Y-74148399D01*
X217467876Y-73580114D01*
X217145969Y-73098345D01*
X216664200Y-72776438D01*
X216095915Y-72663399D01*
X215527630Y-72776438D01*
X215045861Y-73098345D01*
X214825915Y-73427518D01*
X214605969Y-73098345D01*
X214124200Y-72776438D01*
X213555915Y-72663399D01*
X212987630Y-72776438D01*
X212505861Y-73098345D01*
X212285915Y-73427518D01*
X212065969Y-73098345D01*
X211584200Y-72776438D01*
X211015915Y-72663399D01*
X210447630Y-72776438D01*
X209965861Y-73098345D01*
X209745915Y-73427518D01*
X209525969Y-73098345D01*
X209044200Y-72776438D01*
X208475915Y-72663399D01*
X207907630Y-72776438D01*
X207425861Y-73098345D01*
X207396512Y-73142269D01*
X207324242Y-72967794D01*
X207145614Y-72789165D01*
X206912225Y-72692492D01*
X206221665Y-72692492D01*
X206062915Y-72851242D01*
X205808915Y-72851242D01*
X205650165Y-72692492D01*
X204959605Y-72692492D01*
X204726216Y-72789165D01*
X204547588Y-72967794D01*
X204450915Y-73201183D01*
X158190000Y-73201183D01*
X158190000Y-71830000D01*
X232886340Y-71830000D01*
X232852511Y-71836729D01*
X232852511Y-71836729D01*
G37*
X232852511Y-71836729D02*
X232366330Y-72161585D01*
X232041474Y-72647766D01*
X231927400Y-73221255D01*
X231927400Y-73590745D01*
X232041474Y-74164234D01*
X232366330Y-74650415D01*
X232852511Y-74975271D01*
X233426000Y-75089345D01*
X233999489Y-74975271D01*
X234485670Y-74650415D01*
X234692461Y-74340931D01*
X235063964Y-74756732D01*
X235591209Y-75010709D01*
X235606974Y-75013358D01*
X235838998Y-74892218D01*
X235838998Y-75057000D01*
X235932598Y-75057000D01*
X233073098Y-77916500D01*
X222885000Y-77916500D01*
X222594161Y-77974352D01*
X222594159Y-77974353D01*
X222594160Y-77974353D01*
X222347599Y-78139099D01*
X220158599Y-80328099D01*
X219993852Y-80574661D01*
X219936000Y-80865500D01*
X219936000Y-93468821D01*
X212932630Y-86465451D01*
X212777804Y-86362000D01*
X212631403Y-86264178D01*
X212572450Y-86252452D01*
X212276081Y-86193499D01*
X212276076Y-86193500D01*
X212224713Y-86193500D01*
X212124054Y-86042853D01*
X211642285Y-85720946D01*
X211074000Y-85607907D01*
X210505715Y-85720946D01*
X210023946Y-86042853D01*
X209804000Y-86372026D01*
X209584054Y-86042853D01*
X209102285Y-85720946D01*
X208534000Y-85607907D01*
X207965715Y-85720946D01*
X207483946Y-86042853D01*
X207454597Y-86086777D01*
X207382327Y-85912302D01*
X207203699Y-85733673D01*
X206970310Y-85637000D01*
X206279750Y-85637000D01*
X206121000Y-85795750D01*
X206121000Y-86995000D01*
X206141000Y-86995000D01*
X206141000Y-87249000D01*
X206121000Y-87249000D01*
X206121000Y-88448250D01*
X206279750Y-88607000D01*
X206970310Y-88607000D01*
X207203699Y-88510327D01*
X207382327Y-88331698D01*
X207454597Y-88157223D01*
X207483946Y-88201147D01*
X207774000Y-88394954D01*
X207774000Y-108458000D01*
X207831852Y-108748839D01*
X207996599Y-108995401D01*
X214451389Y-115450191D01*
X214282632Y-115458638D01*
X213898857Y-115617603D01*
X213829392Y-115859787D01*
X214630000Y-116660395D01*
X214644143Y-116646253D01*
X214823748Y-116825858D01*
X214809605Y-116840000D01*
X215610213Y-117640608D01*
X215852397Y-117571143D01*
X216039144Y-117047698D01*
X216038630Y-117037432D01*
X223593001Y-124591803D01*
X223593001Y-126258133D01*
X223545100Y-126238243D01*
X222989339Y-126237758D01*
X222475697Y-126449990D01*
X222082371Y-126842630D01*
X221996051Y-127050512D01*
X221911010Y-126844697D01*
X221518370Y-126451371D01*
X221005100Y-126238243D01*
X220449339Y-126237758D01*
X219935697Y-126449990D01*
X219542371Y-126842630D01*
X219456051Y-127050512D01*
X219371010Y-126844697D01*
X218978370Y-126451371D01*
X218465100Y-126238243D01*
X217909339Y-126237758D01*
X217395697Y-126449990D01*
X217002371Y-126842630D01*
X216916051Y-127050512D01*
X216831010Y-126844697D01*
X216438370Y-126451371D01*
X215925100Y-126238243D01*
X215369339Y-126237758D01*
X214855697Y-126449990D01*
X214462371Y-126842630D01*
X214376051Y-127050512D01*
X214291010Y-126844697D01*
X213898370Y-126451371D01*
X213385100Y-126238243D01*
X212829339Y-126237758D01*
X212315697Y-126449990D01*
X211922371Y-126842630D01*
X211836051Y-127050512D01*
X211751010Y-126844697D01*
X211358370Y-126451371D01*
X210845100Y-126238243D01*
X210289339Y-126237758D01*
X209775697Y-126449990D01*
X209382371Y-126842630D01*
X209296051Y-127050512D01*
X209211010Y-126844697D01*
X208818370Y-126451371D01*
X208305100Y-126238243D01*
X207749339Y-126237758D01*
X207235697Y-126449990D01*
X206842371Y-126842630D01*
X206756051Y-127050512D01*
X206671010Y-126844697D01*
X206278370Y-126451371D01*
X205765100Y-126238243D01*
X205209339Y-126237758D01*
X204695697Y-126449990D01*
X204302371Y-126842630D01*
X204216051Y-127050512D01*
X204131010Y-126844697D01*
X203738370Y-126451371D01*
X203225100Y-126238243D01*
X202669339Y-126237758D01*
X202155697Y-126449990D01*
X201762371Y-126842630D01*
X201676051Y-127050512D01*
X201591010Y-126844697D01*
X201231500Y-126484559D01*
X201231500Y-119656661D01*
X213232758Y-119656661D01*
X213444990Y-120170303D01*
X213837630Y-120563629D01*
X214045512Y-120649949D01*
X213839697Y-120734990D01*
X213446371Y-121127630D01*
X213233243Y-121640900D01*
X213232758Y-122196661D01*
X213444990Y-122710303D01*
X213837630Y-123103629D01*
X214350900Y-123316757D01*
X214906661Y-123317242D01*
X215420303Y-123105010D01*
X215813629Y-122712370D01*
X216026757Y-122199100D01*
X216027242Y-121643339D01*
X215815010Y-121129697D01*
X215422370Y-120736371D01*
X215214488Y-120650051D01*
X215420303Y-120565010D01*
X215813629Y-120172370D01*
X216026757Y-119659100D01*
X216027242Y-119103339D01*
X215815010Y-118589697D01*
X215422370Y-118196371D01*
X215230273Y-118116605D01*
X215361143Y-118062397D01*
X215430608Y-117820213D01*
X214630000Y-117019605D01*
X213829392Y-117820213D01*
X213898857Y-118062397D01*
X214039318Y-118112509D01*
X213839697Y-118194990D01*
X213446371Y-118587630D01*
X213233243Y-119100900D01*
X213232758Y-119656661D01*
X201231500Y-119656661D01*
X201231500Y-116632302D01*
X213220856Y-116632302D01*
X213248638Y-117187368D01*
X213407603Y-117571143D01*
X213649787Y-117640608D01*
X214450395Y-116840000D01*
X213649787Y-116039392D01*
X213407603Y-116108857D01*
X213220856Y-116632302D01*
X201231500Y-116632302D01*
X201231500Y-98998370D01*
X201168663Y-98682465D01*
X200989717Y-98414653D01*
X200989714Y-98414651D01*
X192288347Y-89713283D01*
X192020536Y-89534337D01*
X191794774Y-89489431D01*
X191419370Y-89113371D01*
X191227273Y-89033605D01*
X191358143Y-88979397D01*
X191427608Y-88737213D01*
X190627000Y-87936605D01*
X189826392Y-88737213D01*
X189895857Y-88979397D01*
X190036318Y-89029509D01*
X189836697Y-89111990D01*
X189443371Y-89504630D01*
X189230243Y-90017900D01*
X189229758Y-90573661D01*
X189441990Y-91087303D01*
X189834630Y-91480629D01*
X190042512Y-91566949D01*
X189836697Y-91651990D01*
X189443371Y-92044630D01*
X189230243Y-92557900D01*
X189229758Y-93113661D01*
X189441990Y-93627303D01*
X189834630Y-94020629D01*
X190347900Y-94233757D01*
X190903661Y-94234242D01*
X191417303Y-94022010D01*
X191777441Y-93662500D01*
X192825066Y-93662500D01*
X198818500Y-99655933D01*
X198818500Y-122485887D01*
X198709162Y-122749201D01*
X198708838Y-123121167D01*
X198850883Y-123464943D01*
X199113673Y-123728192D01*
X199457201Y-123870838D01*
X199580500Y-123870945D01*
X199580500Y-126485126D01*
X199222371Y-126842630D01*
X199009243Y-127355900D01*
X199008758Y-127911661D01*
X199220990Y-128425303D01*
X199613630Y-128818629D01*
X200126900Y-129031757D01*
X200682661Y-129032242D01*
X201196303Y-128820010D01*
X201589629Y-128427370D01*
X201675949Y-128219488D01*
X201760990Y-128425303D01*
X202153630Y-128818629D01*
X202666900Y-129031757D01*
X203014138Y-129032060D01*
X203012198Y-129034000D01*
X198180802Y-129034000D01*
X192657000Y-123510198D01*
X192657000Y-120777000D01*
X192614832Y-120565010D01*
X192599148Y-120486160D01*
X192434401Y-120239599D01*
X191884183Y-119689381D01*
X191896757Y-119659100D01*
X191897242Y-119103339D01*
X191685010Y-118589697D01*
X191292370Y-118196371D01*
X191100273Y-118116605D01*
X191231143Y-118062397D01*
X191300608Y-117820213D01*
X190500000Y-117019605D01*
X189699392Y-117820213D01*
X189768857Y-118062397D01*
X189909318Y-118112509D01*
X189709697Y-118194990D01*
X189316371Y-118587630D01*
X189103243Y-119100900D01*
X189102758Y-119656661D01*
X189314990Y-120170303D01*
X189707630Y-120563629D01*
X189915512Y-120649949D01*
X189709697Y-120734990D01*
X189316371Y-121127630D01*
X189103243Y-121640900D01*
X189102758Y-122196661D01*
X189314990Y-122710303D01*
X189707630Y-123103629D01*
X189751418Y-123121811D01*
X189797852Y-123355249D01*
X189962599Y-123601811D01*
X197142199Y-130781412D01*
X197388760Y-130946159D01*
X197679600Y-131004011D01*
X205416989Y-131004011D01*
X205707828Y-130946159D01*
X205954390Y-130781412D01*
X207716619Y-129019183D01*
X207746900Y-129031757D01*
X208302661Y-129032242D01*
X208816303Y-128820010D01*
X209209629Y-128427370D01*
X209295949Y-128219488D01*
X209380990Y-128425303D01*
X209579584Y-128624244D01*
X209451588Y-128752240D01*
X209290313Y-128993606D01*
X209161734Y-128940215D01*
X208670421Y-128939786D01*
X208216343Y-129127408D01*
X207868629Y-129474515D01*
X207680215Y-129928266D01*
X207679786Y-130419579D01*
X207867408Y-130873657D01*
X208214515Y-131221371D01*
X208466990Y-131326208D01*
X195773198Y-144020000D01*
X191697531Y-144020000D01*
X191685010Y-143989697D01*
X191292370Y-143596371D01*
X191100273Y-143516605D01*
X191231143Y-143462397D01*
X191300608Y-143220213D01*
X190500000Y-142419605D01*
X189699392Y-143220213D01*
X189768857Y-143462397D01*
X189909318Y-143512509D01*
X189709697Y-143594990D01*
X189316371Y-143987630D01*
X189103243Y-144500900D01*
X189102758Y-145056661D01*
X189314990Y-145570303D01*
X189707630Y-145963629D01*
X189915512Y-146049949D01*
X189709697Y-146134990D01*
X189316371Y-146527630D01*
X189103243Y-147040900D01*
X189102758Y-147596661D01*
X189314990Y-148110303D01*
X189707630Y-148503629D01*
X190220900Y-148716757D01*
X190776661Y-148717242D01*
X191290303Y-148505010D01*
X191683629Y-148112370D01*
X191697070Y-148080000D01*
X194184410Y-148080000D01*
X194475249Y-148022148D01*
X194721811Y-147857401D01*
X210695000Y-131884212D01*
X210695000Y-136682194D01*
X204948599Y-142428595D01*
X204783852Y-142675157D01*
X204726000Y-142965996D01*
X204726000Y-146757469D01*
X204695697Y-146769990D01*
X204302371Y-147162630D01*
X204216051Y-147370512D01*
X204131010Y-147164697D01*
X203738370Y-146771371D01*
X203225100Y-146558243D01*
X202669339Y-146557758D01*
X202155697Y-146769990D01*
X201762371Y-147162630D01*
X201676051Y-147370512D01*
X201591010Y-147164697D01*
X201198370Y-146771371D01*
X200685100Y-146558243D01*
X200129339Y-146557758D01*
X199615697Y-146769990D01*
X199222371Y-147162630D01*
X199009243Y-147675900D01*
X199008758Y-148231661D01*
X199220990Y-148745303D01*
X199613630Y-149138629D01*
X200126900Y-149351757D01*
X200682661Y-149352242D01*
X201196303Y-149140010D01*
X201589629Y-148747370D01*
X201675949Y-148539488D01*
X201760990Y-148745303D01*
X202153630Y-149138629D01*
X202666900Y-149351757D01*
X203222661Y-149352242D01*
X203736303Y-149140010D01*
X204129629Y-148747370D01*
X204215949Y-148539488D01*
X204300990Y-148745303D01*
X204693630Y-149138629D01*
X205206900Y-149351757D01*
X205762661Y-149352242D01*
X206276303Y-149140010D01*
X206669629Y-148747370D01*
X206755949Y-148539488D01*
X206840990Y-148745303D01*
X207233630Y-149138629D01*
X207746900Y-149351757D01*
X208302661Y-149352242D01*
X208816303Y-149140010D01*
X209209629Y-148747370D01*
X209295949Y-148539488D01*
X209380990Y-148745303D01*
X209773630Y-149138629D01*
X210286900Y-149351757D01*
X210842661Y-149352242D01*
X211356303Y-149140010D01*
X211561457Y-148935213D01*
X212305392Y-148935213D01*
X212374857Y-149177397D01*
X212898302Y-149364144D01*
X213453368Y-149336362D01*
X213837143Y-149177397D01*
X213906608Y-148935213D01*
X213106000Y-148134605D01*
X212305392Y-148935213D01*
X211561457Y-148935213D01*
X211749629Y-148747370D01*
X211829395Y-148555273D01*
X211883603Y-148686143D01*
X212125787Y-148755608D01*
X212926395Y-147955000D01*
X213285605Y-147955000D01*
X214086213Y-148755608D01*
X214328397Y-148686143D01*
X214378509Y-148545682D01*
X214460990Y-148745303D01*
X214853630Y-149138629D01*
X215366900Y-149351757D01*
X215922661Y-149352242D01*
X216436303Y-149140010D01*
X216641457Y-148935213D01*
X217385392Y-148935213D01*
X217454857Y-149177397D01*
X217978302Y-149364144D01*
X218533368Y-149336362D01*
X218917143Y-149177397D01*
X218986608Y-148935213D01*
X218186000Y-148134605D01*
X217385392Y-148935213D01*
X216641457Y-148935213D01*
X216829629Y-148747370D01*
X216909395Y-148555273D01*
X216963603Y-148686143D01*
X217205787Y-148755608D01*
X218006395Y-147955000D01*
X217205787Y-147154392D01*
X216963603Y-147223857D01*
X216913491Y-147364318D01*
X216831010Y-147164697D01*
X216641432Y-146974787D01*
X217385392Y-146974787D01*
X218186000Y-147775395D01*
X218986608Y-146974787D01*
X218917143Y-146732603D01*
X218393698Y-146545856D01*
X217838632Y-146573638D01*
X217454857Y-146732603D01*
X217385392Y-146974787D01*
X216641432Y-146974787D01*
X216438370Y-146771371D01*
X215925100Y-146558243D01*
X215369339Y-146557758D01*
X214855697Y-146769990D01*
X214462371Y-147162630D01*
X214382605Y-147354727D01*
X214328397Y-147223857D01*
X214086213Y-147154392D01*
X213285605Y-147955000D01*
X212926395Y-147955000D01*
X212125787Y-147154392D01*
X211883603Y-147223857D01*
X211833491Y-147364318D01*
X211751010Y-147164697D01*
X211561432Y-146974787D01*
X212305392Y-146974787D01*
X213106000Y-147775395D01*
X213906608Y-146974787D01*
X213837143Y-146732603D01*
X213313698Y-146545856D01*
X212758632Y-146573638D01*
X212374857Y-146732603D01*
X212305392Y-146974787D01*
X211561432Y-146974787D01*
X211358370Y-146771371D01*
X210845100Y-146558243D01*
X210289339Y-146557758D01*
X209775697Y-146769990D01*
X209382371Y-147162630D01*
X209296051Y-147370512D01*
X209211010Y-147164697D01*
X208818370Y-146771371D01*
X208305100Y-146558243D01*
X207749339Y-146557758D01*
X207235697Y-146769990D01*
X206842371Y-147162630D01*
X206756051Y-147370512D01*
X206671010Y-147164697D01*
X206278370Y-146771371D01*
X206246000Y-146757930D01*
X206246000Y-143601368D01*
X206442201Y-143682838D01*
X206814167Y-143683162D01*
X207157943Y-143541117D01*
X207421192Y-143278327D01*
X207563838Y-142934799D01*
X207563879Y-142887923D01*
X214532401Y-135919401D01*
X214697148Y-135672839D01*
X214755000Y-135382000D01*
X214755000Y-131161356D01*
X215041371Y-130875485D01*
X215229785Y-130421734D01*
X215229786Y-130419579D01*
X215299786Y-130419579D01*
X215487408Y-130873657D01*
X215834515Y-131221371D01*
X216288266Y-131409785D01*
X216779579Y-131410214D01*
X217233657Y-131222592D01*
X217581371Y-130875485D01*
X217769785Y-130421734D01*
X217769786Y-130419579D01*
X217839786Y-130419579D01*
X218027408Y-130873657D01*
X218374515Y-131221371D01*
X218828266Y-131409785D01*
X219319579Y-131410214D01*
X219773657Y-131222592D01*
X220121371Y-130875485D01*
X220309785Y-130421734D01*
X220309786Y-130419579D01*
X220379786Y-130419579D01*
X220567408Y-130873657D01*
X220914515Y-131221371D01*
X221368266Y-131409785D01*
X221859579Y-131410214D01*
X222313657Y-131222592D01*
X222661371Y-130875485D01*
X222849785Y-130421734D01*
X222850214Y-129930421D01*
X222662592Y-129476343D01*
X222315485Y-129128629D01*
X221861734Y-128940215D01*
X221370421Y-128939786D01*
X220916343Y-129127408D01*
X220568629Y-129474515D01*
X220380215Y-129928266D01*
X220379786Y-130419579D01*
X220309786Y-130419579D01*
X220310214Y-129930421D01*
X220122592Y-129476343D01*
X219775485Y-129128629D01*
X219321734Y-128940215D01*
X218830421Y-128939786D01*
X218376343Y-129127408D01*
X218028629Y-129474515D01*
X217840215Y-129928266D01*
X217839786Y-130419579D01*
X217769786Y-130419579D01*
X217770214Y-129930421D01*
X217582592Y-129476343D01*
X217235485Y-129128629D01*
X216781734Y-128940215D01*
X216290421Y-128939786D01*
X215836343Y-129127408D01*
X215488629Y-129474515D01*
X215300215Y-129928266D01*
X215299786Y-130419579D01*
X215229786Y-130419579D01*
X215230214Y-129930421D01*
X215042592Y-129476343D01*
X214695485Y-129128629D01*
X214241734Y-128940215D01*
X213750421Y-128939786D01*
X213296343Y-129127408D01*
X212948629Y-129474515D01*
X212760215Y-129928266D01*
X212759786Y-130419579D01*
X212947408Y-130873657D01*
X213235000Y-131161752D01*
X213235000Y-135067198D01*
X212215000Y-136087198D01*
X212215000Y-131161356D01*
X212501371Y-130875485D01*
X212689785Y-130421734D01*
X212690214Y-129930421D01*
X212502592Y-129476343D01*
X212405339Y-129378920D01*
X212500401Y-129315401D01*
X212796619Y-129019183D01*
X212826900Y-129031757D01*
X213382661Y-129032242D01*
X213896303Y-128820010D01*
X214289629Y-128427370D01*
X214375949Y-128219488D01*
X214460990Y-128425303D01*
X214853630Y-128818629D01*
X215366900Y-129031757D01*
X215922661Y-129032242D01*
X216436303Y-128820010D01*
X216829629Y-128427370D01*
X216915949Y-128219488D01*
X217000990Y-128425303D01*
X217393630Y-128818629D01*
X217906900Y-129031757D01*
X218462661Y-129032242D01*
X218976303Y-128820010D01*
X219369629Y-128427370D01*
X219455949Y-128219488D01*
X219540990Y-128425303D01*
X219933630Y-128818629D01*
X220446900Y-129031757D01*
X221002661Y-129032242D01*
X221516303Y-128820010D01*
X221909629Y-128427370D01*
X221995949Y-128219488D01*
X222080990Y-128425303D01*
X222473630Y-128818629D01*
X222986900Y-129031757D01*
X223542661Y-129032242D01*
X224056303Y-128820010D01*
X224181984Y-128694548D01*
X224446054Y-128958618D01*
X224401734Y-128940215D01*
X223910421Y-128939786D01*
X223456343Y-129127408D01*
X223108629Y-129474515D01*
X222920215Y-129928266D01*
X222919786Y-130419579D01*
X223107408Y-130873657D01*
X223454515Y-131221371D01*
X223908266Y-131409785D01*
X224399579Y-131410214D01*
X224591124Y-131331069D01*
X224595852Y-131354839D01*
X224760599Y-131601401D01*
X226316000Y-133156802D01*
X226316000Y-146654121D01*
X226085100Y-146558243D01*
X225529339Y-146557758D01*
X225015697Y-146769990D01*
X224622371Y-147162630D01*
X224536051Y-147370512D01*
X224451010Y-147164697D01*
X224058370Y-146771371D01*
X223545100Y-146558243D01*
X222989339Y-146557758D01*
X222475697Y-146769990D01*
X222082371Y-147162630D01*
X221996051Y-147370512D01*
X221911010Y-147164697D01*
X221518370Y-146771371D01*
X221005100Y-146558243D01*
X220449339Y-146557758D01*
X219935697Y-146769990D01*
X219542371Y-147162630D01*
X219462605Y-147354727D01*
X219408397Y-147223857D01*
X219166213Y-147154392D01*
X218365605Y-147955000D01*
X219166213Y-148755608D01*
X219408397Y-148686143D01*
X219458509Y-148545682D01*
X219540990Y-148745303D01*
X219933630Y-149138629D01*
X220446900Y-149351757D01*
X221002661Y-149352242D01*
X221516303Y-149140010D01*
X221909629Y-148747370D01*
X221995949Y-148539488D01*
X222080990Y-148745303D01*
X222473630Y-149138629D01*
X222986900Y-149351757D01*
X223542661Y-149352242D01*
X224056303Y-149140010D01*
X224449629Y-148747370D01*
X224535949Y-148539488D01*
X224620990Y-148745303D01*
X225013630Y-149138629D01*
X225526900Y-149351757D01*
X225995169Y-149352166D01*
X225992852Y-149355633D01*
X225969209Y-149474495D01*
X225648629Y-149794515D01*
X225460215Y-150248266D01*
X225459786Y-150739579D01*
X225647408Y-151193657D01*
X225994515Y-151541371D01*
X226352453Y-151690000D01*
X224496904Y-151690000D01*
X224853657Y-151542592D01*
X225201371Y-151195485D01*
X225389785Y-150741734D01*
X225390214Y-150250421D01*
X225202592Y-149796343D01*
X224855485Y-149448629D01*
X224401734Y-149260215D01*
X223910421Y-149259786D01*
X223456343Y-149447408D01*
X223108629Y-149794515D01*
X222920215Y-150248266D01*
X222919786Y-150739579D01*
X223107408Y-151193657D01*
X223454515Y-151541371D01*
X223812453Y-151690000D01*
X221956904Y-151690000D01*
X222313657Y-151542592D01*
X222661371Y-151195485D01*
X222849785Y-150741734D01*
X222850214Y-150250421D01*
X222662592Y-149796343D01*
X222315485Y-149448629D01*
X221861734Y-149260215D01*
X221370421Y-149259786D01*
X220916343Y-149447408D01*
X220568629Y-149794515D01*
X220380215Y-150248266D01*
X220379786Y-150739579D01*
X220567408Y-151193657D01*
X220914515Y-151541371D01*
X221272453Y-151690000D01*
X219416904Y-151690000D01*
X219773657Y-151542592D01*
X220121371Y-151195485D01*
X220309785Y-150741734D01*
X220310214Y-150250421D01*
X220122592Y-149796343D01*
X219775485Y-149448629D01*
X219321734Y-149260215D01*
X218830421Y-149259786D01*
X218376343Y-149447408D01*
X218028629Y-149794515D01*
X217840215Y-150248266D01*
X217839786Y-150739579D01*
X218027408Y-151193657D01*
X218374515Y-151541371D01*
X218732453Y-151690000D01*
X216876904Y-151690000D01*
X217233657Y-151542592D01*
X217581371Y-151195485D01*
X217769785Y-150741734D01*
X217770214Y-150250421D01*
X217582592Y-149796343D01*
X217235485Y-149448629D01*
X216781734Y-149260215D01*
X216290421Y-149259786D01*
X215836343Y-149447408D01*
X215488629Y-149794515D01*
X215300215Y-150248266D01*
X215299786Y-150739579D01*
X215487408Y-151193657D01*
X215834515Y-151541371D01*
X216192453Y-151690000D01*
X214336904Y-151690000D01*
X214693657Y-151542592D01*
X215041371Y-151195485D01*
X215229785Y-150741734D01*
X215230214Y-150250421D01*
X215042592Y-149796343D01*
X214695485Y-149448629D01*
X214241734Y-149260215D01*
X213750421Y-149259786D01*
X213296343Y-149447408D01*
X212948629Y-149794515D01*
X212760215Y-150248266D01*
X212759786Y-150739579D01*
X212947408Y-151193657D01*
X213294515Y-151541371D01*
X213652453Y-151690000D01*
X211796904Y-151690000D01*
X212153657Y-151542592D01*
X212501371Y-151195485D01*
X212689785Y-150741734D01*
X212690214Y-150250421D01*
X212502592Y-149796343D01*
X212155485Y-149448629D01*
X211701734Y-149260215D01*
X211210421Y-149259786D01*
X210756343Y-149447408D01*
X210408629Y-149794515D01*
X210220215Y-150248266D01*
X210219786Y-150739579D01*
X210407408Y-151193657D01*
X210754515Y-151541371D01*
X211112453Y-151690000D01*
X209256904Y-151690000D01*
X209613657Y-151542592D01*
X209961371Y-151195485D01*
X210149785Y-150741734D01*
X210150214Y-150250421D01*
X209962592Y-149796343D01*
X209615485Y-149448629D01*
X209161734Y-149260215D01*
X208670421Y-149259786D01*
X208216343Y-149447408D01*
X207868629Y-149794515D01*
X207680215Y-150248266D01*
X207679786Y-150739579D01*
X207867408Y-151193657D01*
X208214515Y-151541371D01*
X208572453Y-151690000D01*
X158190000Y-151690000D01*
X158190000Y-140970000D01*
X160731907Y-140970000D01*
X160844946Y-141538285D01*
X161166853Y-142020054D01*
X161496026Y-142240000D01*
X161166853Y-142459946D01*
X160844946Y-142941715D01*
X160731907Y-143510000D01*
X160844946Y-144078285D01*
X161166853Y-144560054D01*
X161208452Y-144587850D01*
X161160683Y-144596838D01*
X160944559Y-144735910D01*
X160799569Y-144948110D01*
X160748560Y-145200000D01*
X160748560Y-146900000D01*
X160792838Y-147135317D01*
X160931910Y-147351441D01*
X161144110Y-147496431D01*
X161396000Y-147547440D01*
X163096000Y-147547440D01*
X163331317Y-147503162D01*
X163547441Y-147364090D01*
X163692431Y-147151890D01*
X163743440Y-146900000D01*
X163743440Y-145200000D01*
X163699162Y-144964683D01*
X163560090Y-144748559D01*
X163347890Y-144603569D01*
X163280459Y-144589914D01*
X163325147Y-144560054D01*
X163475189Y-144335500D01*
X165728126Y-144335500D01*
X166085630Y-144693629D01*
X166293512Y-144779949D01*
X166087697Y-144864990D01*
X165694371Y-145257630D01*
X165481243Y-145770900D01*
X165480758Y-146326661D01*
X165692990Y-146840303D01*
X166085630Y-147233629D01*
X166598900Y-147446757D01*
X167154661Y-147447242D01*
X167668303Y-147235010D01*
X168061629Y-146842370D01*
X168274757Y-146329100D01*
X168275242Y-145773339D01*
X168063010Y-145259697D01*
X167670370Y-144866371D01*
X167462488Y-144780051D01*
X167668303Y-144695010D01*
X168061629Y-144302370D01*
X168274757Y-143789100D01*
X168275242Y-143233339D01*
X168063010Y-142719697D01*
X167860329Y-142516661D01*
X171322758Y-142516661D01*
X171534990Y-143030303D01*
X171927630Y-143423629D01*
X172135512Y-143509949D01*
X171929697Y-143594990D01*
X171536371Y-143987630D01*
X171323243Y-144500900D01*
X171322758Y-145056661D01*
X171534990Y-145570303D01*
X171927630Y-145963629D01*
X172135512Y-146049949D01*
X171929697Y-146134990D01*
X171536371Y-146527630D01*
X171323243Y-147040900D01*
X171322758Y-147596661D01*
X171534990Y-148110303D01*
X171927630Y-148503629D01*
X172440900Y-148716757D01*
X172996661Y-148717242D01*
X173510303Y-148505010D01*
X173903629Y-148112370D01*
X174116757Y-147599100D01*
X174117242Y-147043339D01*
X173905010Y-146529697D01*
X173512370Y-146136371D01*
X173304488Y-146050051D01*
X173510303Y-145965010D01*
X173903629Y-145572370D01*
X174116757Y-145059100D01*
X174117060Y-144711862D01*
X175992599Y-146587401D01*
X176239161Y-146752148D01*
X176530000Y-146810000D01*
X183460469Y-146810000D01*
X183472990Y-146840303D01*
X183865630Y-147233629D01*
X184378900Y-147446757D01*
X184934661Y-147447242D01*
X185448303Y-147235010D01*
X185841629Y-146842370D01*
X186054757Y-146329100D01*
X186055242Y-145773339D01*
X185843010Y-145259697D01*
X185450370Y-144866371D01*
X185242488Y-144780051D01*
X185448303Y-144695010D01*
X185841629Y-144302370D01*
X186054757Y-143789100D01*
X186055242Y-143233339D01*
X185843010Y-142719697D01*
X185450370Y-142326371D01*
X185242488Y-142240051D01*
X185448303Y-142155010D01*
X185571225Y-142032302D01*
X189090856Y-142032302D01*
X189118638Y-142587368D01*
X189277603Y-142971143D01*
X189519787Y-143040608D01*
X190320395Y-142240000D01*
X190679605Y-142240000D01*
X191480213Y-143040608D01*
X191722397Y-142971143D01*
X191909144Y-142447698D01*
X191881362Y-141892632D01*
X191722397Y-141508857D01*
X191480213Y-141439392D01*
X190679605Y-142240000D01*
X190320395Y-142240000D01*
X189519787Y-141439392D01*
X189277603Y-141508857D01*
X189090856Y-142032302D01*
X185571225Y-142032302D01*
X185841629Y-141762370D01*
X186050319Y-141259787D01*
X189699392Y-141259787D01*
X190500000Y-142060395D01*
X191300608Y-141259787D01*
X191231143Y-141017603D01*
X190707698Y-140830856D01*
X190152632Y-140858638D01*
X189768857Y-141017603D01*
X189699392Y-141259787D01*
X186050319Y-141259787D01*
X186054757Y-141249100D01*
X186055242Y-140693339D01*
X185843010Y-140179697D01*
X185450370Y-139786371D01*
X184937100Y-139573243D01*
X184381339Y-139572758D01*
X183867697Y-139784990D01*
X183474371Y-140177630D01*
X183261243Y-140690900D01*
X183260758Y-141246661D01*
X183472990Y-141760303D01*
X183865630Y-142153629D01*
X184073512Y-142239949D01*
X183867697Y-142324990D01*
X183474371Y-142717630D01*
X183261243Y-143230900D01*
X183260758Y-143786661D01*
X183472990Y-144300303D01*
X183865630Y-144693629D01*
X184073512Y-144779949D01*
X183867697Y-144864990D01*
X183474371Y-145257630D01*
X183460930Y-145290000D01*
X176844802Y-145290000D01*
X174104183Y-142549381D01*
X174116757Y-142519100D01*
X174117242Y-141963339D01*
X173905010Y-141449697D01*
X173512370Y-141056371D01*
X172999100Y-140843243D01*
X172443339Y-140842758D01*
X171929697Y-141054990D01*
X171536371Y-141447630D01*
X171323243Y-141960900D01*
X171322758Y-142516661D01*
X167860329Y-142516661D01*
X167670370Y-142326371D01*
X167462488Y-142240051D01*
X167668303Y-142155010D01*
X168061629Y-141762370D01*
X168274757Y-141249100D01*
X168275242Y-140693339D01*
X168063010Y-140179697D01*
X167670370Y-139786371D01*
X167157100Y-139573243D01*
X166601339Y-139572758D01*
X166087697Y-139784990D01*
X165694371Y-140177630D01*
X165481243Y-140690900D01*
X165480758Y-141246661D01*
X165692990Y-141760303D01*
X166085630Y-142153629D01*
X166293512Y-142239949D01*
X166087697Y-142324990D01*
X165727559Y-142684500D01*
X163475189Y-142684500D01*
X163325147Y-142459946D01*
X162995974Y-142240000D01*
X163325147Y-142020054D01*
X163647054Y-141538285D01*
X163760093Y-140970000D01*
X163647054Y-140401715D01*
X163325147Y-139919946D01*
X162843378Y-139598039D01*
X162275093Y-139485000D01*
X162216907Y-139485000D01*
X161648622Y-139598039D01*
X161166853Y-139919946D01*
X160844946Y-140401715D01*
X160731907Y-140970000D01*
X158190000Y-140970000D01*
X158190000Y-132356661D01*
X171322758Y-132356661D01*
X171534990Y-132870303D01*
X171927630Y-133263629D01*
X172135512Y-133349949D01*
X171929697Y-133434990D01*
X171536371Y-133827630D01*
X171323243Y-134340900D01*
X171322758Y-134896661D01*
X171534990Y-135410303D01*
X171927630Y-135803629D01*
X172135512Y-135889949D01*
X171929697Y-135974990D01*
X171536371Y-136367630D01*
X171323243Y-136880900D01*
X171322758Y-137436661D01*
X171534990Y-137950303D01*
X171927630Y-138343629D01*
X172440900Y-138556757D01*
X172996661Y-138557242D01*
X173510303Y-138345010D01*
X173903629Y-137952370D01*
X174116757Y-137439100D01*
X174117242Y-136883339D01*
X173905010Y-136369697D01*
X173512370Y-135976371D01*
X173304488Y-135890051D01*
X173510303Y-135805010D01*
X173903629Y-135412370D01*
X174116757Y-134899100D01*
X174117242Y-134343339D01*
X173905010Y-133829697D01*
X173512370Y-133436371D01*
X173304488Y-133350051D01*
X173510303Y-133265010D01*
X173903629Y-132872370D01*
X174116757Y-132359100D01*
X174116759Y-132356661D01*
X189102758Y-132356661D01*
X189314990Y-132870303D01*
X189707630Y-133263629D01*
X189915512Y-133349949D01*
X189709697Y-133434990D01*
X189316371Y-133827630D01*
X189103243Y-134340900D01*
X189102758Y-134896661D01*
X189314990Y-135410303D01*
X189707630Y-135803629D01*
X189915512Y-135889949D01*
X189709697Y-135974990D01*
X189316371Y-136367630D01*
X189103243Y-136880900D01*
X189102758Y-137436661D01*
X189314990Y-137950303D01*
X189707630Y-138343629D01*
X190220900Y-138556757D01*
X190776661Y-138557242D01*
X191290303Y-138345010D01*
X191683629Y-137952370D01*
X191896757Y-137439100D01*
X191897242Y-136883339D01*
X191685010Y-136369697D01*
X191292370Y-135976371D01*
X191084488Y-135890051D01*
X191290303Y-135805010D01*
X191683629Y-135412370D01*
X191896757Y-134899100D01*
X191897242Y-134343339D01*
X191685010Y-133829697D01*
X191292370Y-133436371D01*
X191084488Y-133350051D01*
X191290303Y-133265010D01*
X191683629Y-132872370D01*
X191896757Y-132359100D01*
X191897242Y-131803339D01*
X191685010Y-131289697D01*
X191292370Y-130896371D01*
X190779100Y-130683243D01*
X190223339Y-130682758D01*
X189709697Y-130894990D01*
X189316371Y-131287630D01*
X189103243Y-131800900D01*
X189102758Y-132356661D01*
X174116759Y-132356661D01*
X174117242Y-131803339D01*
X173905010Y-131289697D01*
X173512370Y-130896371D01*
X172999100Y-130683243D01*
X172443339Y-130682758D01*
X171929697Y-130894990D01*
X171536371Y-131287630D01*
X171323243Y-131800900D01*
X171322758Y-132356661D01*
X158190000Y-132356661D01*
X158190000Y-124490000D01*
X160731907Y-124490000D01*
X160844946Y-125058285D01*
X161166853Y-125540054D01*
X161496026Y-125760000D01*
X161166853Y-125979946D01*
X160844946Y-126461715D01*
X160731907Y-127030000D01*
X160844946Y-127598285D01*
X161166853Y-128080054D01*
X161208452Y-128107850D01*
X161160683Y-128116838D01*
X160944559Y-128255910D01*
X160799569Y-128468110D01*
X160748560Y-128720000D01*
X160748560Y-130420000D01*
X160792838Y-130655317D01*
X160931910Y-130871441D01*
X161144110Y-131016431D01*
X161396000Y-131067440D01*
X163096000Y-131067440D01*
X163331317Y-131023162D01*
X163547441Y-130884090D01*
X163692431Y-130671890D01*
X163743440Y-130420000D01*
X163743440Y-128720000D01*
X163699162Y-128484683D01*
X163560090Y-128268559D01*
X163347890Y-128123569D01*
X163280459Y-128109914D01*
X163325147Y-128080054D01*
X163495234Y-127825500D01*
X165728126Y-127825500D01*
X166085630Y-128183629D01*
X166293512Y-128269949D01*
X166087697Y-128354990D01*
X165694371Y-128747630D01*
X165481243Y-129260900D01*
X165480758Y-129816661D01*
X165692990Y-130330303D01*
X166085630Y-130723629D01*
X166598900Y-130936757D01*
X167154661Y-130937242D01*
X167668303Y-130725010D01*
X168061629Y-130332370D01*
X168274757Y-129819100D01*
X168275201Y-129310232D01*
X169112714Y-128472719D01*
X169112717Y-128472717D01*
X169291663Y-128204905D01*
X169297566Y-128175229D01*
X169354501Y-127889000D01*
X169354500Y-127888995D01*
X169354500Y-117116661D01*
X171322758Y-117116661D01*
X171534990Y-117630303D01*
X171927630Y-118023629D01*
X172135512Y-118109949D01*
X171929697Y-118194990D01*
X171536371Y-118587630D01*
X171323243Y-119100900D01*
X171322758Y-119656661D01*
X171534990Y-120170303D01*
X171927630Y-120563629D01*
X172135512Y-120649949D01*
X171929697Y-120734990D01*
X171536371Y-121127630D01*
X171323243Y-121640900D01*
X171322758Y-122196661D01*
X171534990Y-122710303D01*
X171927630Y-123103629D01*
X172440900Y-123316757D01*
X172996661Y-123317242D01*
X173510303Y-123105010D01*
X173903629Y-122712370D01*
X174116757Y-122199100D01*
X174117242Y-121643339D01*
X173905010Y-121129697D01*
X173512370Y-120736371D01*
X173304488Y-120650051D01*
X173510303Y-120565010D01*
X173903629Y-120172370D01*
X173995153Y-119951955D01*
X183273817Y-129230619D01*
X183261243Y-129260900D01*
X183260758Y-129816661D01*
X183472990Y-130330303D01*
X183865630Y-130723629D01*
X184378900Y-130936757D01*
X184934661Y-130937242D01*
X185448303Y-130725010D01*
X185841629Y-130332370D01*
X186054757Y-129819100D01*
X186055242Y-129263339D01*
X185843010Y-128749697D01*
X185450370Y-128356371D01*
X185242488Y-128270051D01*
X185448303Y-128185010D01*
X185841629Y-127792370D01*
X186054757Y-127279100D01*
X186055242Y-126723339D01*
X185843010Y-126209697D01*
X185450370Y-125816371D01*
X185242488Y-125730051D01*
X185448303Y-125645010D01*
X185841629Y-125252370D01*
X186054757Y-124739100D01*
X186055242Y-124183339D01*
X185843010Y-123669697D01*
X185450370Y-123276371D01*
X184937100Y-123063243D01*
X184381339Y-123062758D01*
X183867697Y-123274990D01*
X183474371Y-123667630D01*
X183261243Y-124180900D01*
X183260758Y-124736661D01*
X183472990Y-125250303D01*
X183865630Y-125643629D01*
X184073512Y-125729949D01*
X183867697Y-125814990D01*
X183474371Y-126207630D01*
X183261243Y-126720900D01*
X183260940Y-127068137D01*
X173864366Y-117671564D01*
X173903629Y-117632370D01*
X174116757Y-117119100D01*
X174117181Y-116632302D01*
X189090856Y-116632302D01*
X189118638Y-117187368D01*
X189277603Y-117571143D01*
X189519787Y-117640608D01*
X190320395Y-116840000D01*
X190679605Y-116840000D01*
X191480213Y-117640608D01*
X191722397Y-117571143D01*
X191909144Y-117047698D01*
X191881362Y-116492632D01*
X191722397Y-116108857D01*
X191480213Y-116039392D01*
X190679605Y-116840000D01*
X190320395Y-116840000D01*
X189519787Y-116039392D01*
X189277603Y-116108857D01*
X189090856Y-116632302D01*
X174117181Y-116632302D01*
X174117242Y-116563339D01*
X173905010Y-116049697D01*
X173715432Y-115859787D01*
X189699392Y-115859787D01*
X190500000Y-116660395D01*
X191300608Y-115859787D01*
X191231143Y-115617603D01*
X190707698Y-115430856D01*
X190152632Y-115458638D01*
X189768857Y-115617603D01*
X189699392Y-115859787D01*
X173715432Y-115859787D01*
X173512370Y-115656371D01*
X172999100Y-115443243D01*
X172443339Y-115442758D01*
X171929697Y-115654990D01*
X171536371Y-116047630D01*
X171323243Y-116560900D01*
X171322758Y-117116661D01*
X169354500Y-117116661D01*
X169354500Y-116292934D01*
X172490634Y-113156800D01*
X172996661Y-113157242D01*
X173510303Y-112945010D01*
X173903629Y-112552370D01*
X174116757Y-112039100D01*
X174117242Y-111483339D01*
X173905010Y-110969697D01*
X173512370Y-110576371D01*
X173304488Y-110490051D01*
X173510303Y-110405010D01*
X173903629Y-110012370D01*
X174116757Y-109499100D01*
X174117242Y-108943339D01*
X173905010Y-108429697D01*
X173672381Y-108196661D01*
X183222758Y-108196661D01*
X183434990Y-108710303D01*
X183827630Y-109103629D01*
X184035512Y-109189949D01*
X183829697Y-109274990D01*
X183436371Y-109667630D01*
X183223243Y-110180900D01*
X183222758Y-110736661D01*
X183434990Y-111250303D01*
X183827630Y-111643629D01*
X184035512Y-111729949D01*
X183829697Y-111814990D01*
X183436371Y-112207630D01*
X183223243Y-112720900D01*
X183222758Y-113276661D01*
X183434990Y-113790303D01*
X183827630Y-114183629D01*
X184340900Y-114396757D01*
X184896661Y-114397242D01*
X185410303Y-114185010D01*
X185803629Y-113792370D01*
X186016757Y-113279100D01*
X186017242Y-112723339D01*
X185805010Y-112209697D01*
X185412370Y-111816371D01*
X185204488Y-111730051D01*
X185410303Y-111645010D01*
X185803629Y-111252370D01*
X186016757Y-110739100D01*
X186017242Y-110183339D01*
X185805010Y-109669697D01*
X185412370Y-109276371D01*
X185204488Y-109190051D01*
X185410303Y-109105010D01*
X185803629Y-108712370D01*
X186016757Y-108199100D01*
X186017242Y-107643339D01*
X185805010Y-107129697D01*
X185412370Y-106736371D01*
X184899100Y-106523243D01*
X184343339Y-106522758D01*
X183829697Y-106734990D01*
X183436371Y-107127630D01*
X183223243Y-107640900D01*
X183222758Y-108196661D01*
X173672381Y-108196661D01*
X173512370Y-108036371D01*
X173304488Y-107950051D01*
X173510303Y-107865010D01*
X173903629Y-107472370D01*
X174116757Y-106959100D01*
X174117242Y-106403339D01*
X173905010Y-105889697D01*
X173512370Y-105496371D01*
X172999100Y-105283243D01*
X172443339Y-105282758D01*
X171929697Y-105494990D01*
X171536371Y-105887630D01*
X171323243Y-106400900D01*
X171322758Y-106956661D01*
X171534990Y-107470303D01*
X171927630Y-107863629D01*
X172135512Y-107949949D01*
X171929697Y-108034990D01*
X171536371Y-108427630D01*
X171323243Y-108940900D01*
X171322758Y-109496661D01*
X171534990Y-110010303D01*
X171927630Y-110403629D01*
X172135512Y-110489949D01*
X171929697Y-110574990D01*
X171536371Y-110967630D01*
X171323243Y-111480900D01*
X171322799Y-111989767D01*
X167945283Y-115367283D01*
X167766337Y-115635094D01*
X167762105Y-115656371D01*
X167703500Y-115951000D01*
X167703500Y-123309559D01*
X167670370Y-123276371D01*
X167157100Y-123063243D01*
X166601339Y-123062758D01*
X166087697Y-123274990D01*
X165694371Y-123667630D01*
X165481243Y-124180900D01*
X165480758Y-124736661D01*
X165692990Y-125250303D01*
X166085630Y-125643629D01*
X166293512Y-125729949D01*
X166087697Y-125814990D01*
X165727559Y-126174500D01*
X163455144Y-126174500D01*
X163325147Y-125979946D01*
X162995974Y-125760000D01*
X163325147Y-125540054D01*
X163647054Y-125058285D01*
X163760093Y-124490000D01*
X163647054Y-123921715D01*
X163325147Y-123439946D01*
X162843378Y-123118039D01*
X162275093Y-123005000D01*
X162216907Y-123005000D01*
X161648622Y-123118039D01*
X161166853Y-123439946D01*
X160844946Y-123921715D01*
X160731907Y-124490000D01*
X158190000Y-124490000D01*
X158190000Y-107920000D01*
X160985907Y-107920000D01*
X161098946Y-108488285D01*
X161420853Y-108970054D01*
X161750026Y-109190000D01*
X161420853Y-109409946D01*
X161098946Y-109891715D01*
X160985907Y-110460000D01*
X161098946Y-111028285D01*
X161420853Y-111510054D01*
X161462452Y-111537850D01*
X161414683Y-111546838D01*
X161198559Y-111685910D01*
X161053569Y-111898110D01*
X161002560Y-112150000D01*
X161002560Y-113850000D01*
X161046838Y-114085317D01*
X161185910Y-114301441D01*
X161398110Y-114446431D01*
X161650000Y-114497440D01*
X163350000Y-114497440D01*
X163585317Y-114453162D01*
X163801441Y-114314090D01*
X163946431Y-114101890D01*
X163997440Y-113850000D01*
X163997440Y-112150000D01*
X163953162Y-111914683D01*
X163814090Y-111698559D01*
X163601890Y-111553569D01*
X163534459Y-111539914D01*
X163579147Y-111510054D01*
X163729189Y-111285500D01*
X165690126Y-111285500D01*
X166047630Y-111643629D01*
X166255512Y-111729949D01*
X166049697Y-111814990D01*
X165656371Y-112207630D01*
X165443243Y-112720900D01*
X165442758Y-113276661D01*
X165654990Y-113790303D01*
X166047630Y-114183629D01*
X166560900Y-114396757D01*
X167116661Y-114397242D01*
X167630303Y-114185010D01*
X168023629Y-113792370D01*
X168236757Y-113279100D01*
X168237242Y-112723339D01*
X168025010Y-112209697D01*
X167632370Y-111816371D01*
X167424488Y-111730051D01*
X167630303Y-111645010D01*
X168023629Y-111252370D01*
X168236757Y-110739100D01*
X168237242Y-110183339D01*
X168025010Y-109669697D01*
X167632370Y-109276371D01*
X167424488Y-109190051D01*
X167630303Y-109105010D01*
X168023629Y-108712370D01*
X168236757Y-108199100D01*
X168237242Y-107643339D01*
X168025010Y-107129697D01*
X167632370Y-106736371D01*
X167119100Y-106523243D01*
X166563339Y-106522758D01*
X166049697Y-106734990D01*
X165656371Y-107127630D01*
X165443243Y-107640900D01*
X165442758Y-108196661D01*
X165654990Y-108710303D01*
X166047630Y-109103629D01*
X166255512Y-109189949D01*
X166049697Y-109274990D01*
X165689559Y-109634500D01*
X163729189Y-109634500D01*
X163579147Y-109409946D01*
X163249974Y-109190000D01*
X163579147Y-108970054D01*
X163901054Y-108488285D01*
X164014093Y-107920000D01*
X163901054Y-107351715D01*
X163579147Y-106869946D01*
X163097378Y-106548039D01*
X162529093Y-106435000D01*
X162470907Y-106435000D01*
X161902622Y-106548039D01*
X161420853Y-106869946D01*
X161098946Y-107351715D01*
X160985907Y-107920000D01*
X158190000Y-107920000D01*
X158190000Y-91380000D01*
X160985907Y-91380000D01*
X161098946Y-91948285D01*
X161420853Y-92430054D01*
X161750026Y-92650000D01*
X161420853Y-92869946D01*
X161098946Y-93351715D01*
X160985907Y-93920000D01*
X161098946Y-94488285D01*
X161420853Y-94970054D01*
X161462452Y-94997850D01*
X161414683Y-95006838D01*
X161198559Y-95145910D01*
X161053569Y-95358110D01*
X161002560Y-95610000D01*
X161002560Y-97310000D01*
X161046838Y-97545317D01*
X161185910Y-97761441D01*
X161398110Y-97906431D01*
X161650000Y-97957440D01*
X163350000Y-97957440D01*
X163585317Y-97913162D01*
X163801441Y-97774090D01*
X163946431Y-97561890D01*
X163997440Y-97310000D01*
X163997440Y-95610000D01*
X163953162Y-95374683D01*
X163814090Y-95158559D01*
X163601890Y-95013569D01*
X163534459Y-94999914D01*
X163579147Y-94970054D01*
X163772954Y-94680000D01*
X165642469Y-94680000D01*
X165654990Y-94710303D01*
X166047630Y-95103629D01*
X166255512Y-95189949D01*
X166049697Y-95274990D01*
X165656371Y-95667630D01*
X165443243Y-96180900D01*
X165442758Y-96736661D01*
X165654990Y-97250303D01*
X166047630Y-97643629D01*
X166560900Y-97856757D01*
X167069767Y-97857201D01*
X170451781Y-101239215D01*
X170719592Y-101418161D01*
X171035498Y-101480999D01*
X171035503Y-101480998D01*
X188203508Y-101480998D01*
X189385046Y-102662536D01*
X189326808Y-102720673D01*
X189184162Y-103064201D01*
X189183838Y-103436167D01*
X189325883Y-103779943D01*
X189588673Y-104043192D01*
X189932201Y-104185838D01*
X189979077Y-104185879D01*
X191287580Y-105494382D01*
X190779100Y-105283243D01*
X190223339Y-105282758D01*
X189709697Y-105494990D01*
X189316371Y-105887630D01*
X189103243Y-106400900D01*
X189102758Y-106956661D01*
X189314990Y-107470303D01*
X189707630Y-107863629D01*
X189915512Y-107949949D01*
X189709697Y-108034990D01*
X189316371Y-108427630D01*
X189103243Y-108940900D01*
X189102758Y-109496661D01*
X189314990Y-110010303D01*
X189707630Y-110403629D01*
X189915512Y-110489949D01*
X189709697Y-110574990D01*
X189316371Y-110967630D01*
X189103243Y-111480900D01*
X189102758Y-112036661D01*
X189314990Y-112550303D01*
X189707630Y-112943629D01*
X190220900Y-113156757D01*
X190776661Y-113157242D01*
X191290303Y-112945010D01*
X191683629Y-112552370D01*
X191772000Y-112339549D01*
X191772000Y-112522000D01*
X191829852Y-112812839D01*
X191994599Y-113059401D01*
X195465817Y-116530619D01*
X195453243Y-116560900D01*
X195452758Y-117116661D01*
X195664990Y-117630303D01*
X196057630Y-118023629D01*
X196265512Y-118109949D01*
X196059697Y-118194990D01*
X195666371Y-118587630D01*
X195453243Y-119100900D01*
X195452758Y-119656661D01*
X195664990Y-120170303D01*
X196057630Y-120563629D01*
X196265512Y-120649949D01*
X196059697Y-120734990D01*
X195666371Y-121127630D01*
X195453243Y-121640900D01*
X195452758Y-122196661D01*
X195664990Y-122710303D01*
X196057630Y-123103629D01*
X196570900Y-123316757D01*
X197126661Y-123317242D01*
X197640303Y-123105010D01*
X198033629Y-122712370D01*
X198246757Y-122199100D01*
X198247242Y-121643339D01*
X198035010Y-121129697D01*
X197642370Y-120736371D01*
X197434488Y-120650051D01*
X197640303Y-120565010D01*
X198033629Y-120172370D01*
X198246757Y-119659100D01*
X198247242Y-119103339D01*
X198035010Y-118589697D01*
X197642370Y-118196371D01*
X197434488Y-118110051D01*
X197640303Y-118025010D01*
X198033629Y-117632370D01*
X198246757Y-117119100D01*
X198247242Y-116563339D01*
X198035010Y-116049697D01*
X197642370Y-115656371D01*
X197129100Y-115443243D01*
X196573339Y-115442758D01*
X196540945Y-115456143D01*
X193292000Y-112207198D01*
X193292000Y-106569490D01*
X194871999Y-108149489D01*
X194871999Y-110607499D01*
X194934836Y-110923405D01*
X195113782Y-111191216D01*
X195453200Y-111530633D01*
X195452758Y-112036661D01*
X195664990Y-112550303D01*
X196057630Y-112943629D01*
X196570900Y-113156757D01*
X197126661Y-113157242D01*
X197640303Y-112945010D01*
X198033629Y-112552370D01*
X198246757Y-112039100D01*
X198247242Y-111483339D01*
X198035010Y-110969697D01*
X197642370Y-110576371D01*
X197434488Y-110490051D01*
X197640303Y-110405010D01*
X198033629Y-110012370D01*
X198246757Y-109499100D01*
X198247242Y-108943339D01*
X198035010Y-108429697D01*
X197642370Y-108036371D01*
X197434488Y-107950051D01*
X197640303Y-107865010D01*
X198033629Y-107472370D01*
X198246757Y-106959100D01*
X198247242Y-106403339D01*
X198035010Y-105889697D01*
X197642370Y-105496371D01*
X197129100Y-105283243D01*
X196573339Y-105282758D01*
X196059697Y-105494990D01*
X195915776Y-105638660D01*
X195865117Y-105516057D01*
X195832000Y-105482882D01*
X195832000Y-104372000D01*
X195774148Y-104081161D01*
X195609401Y-103834599D01*
X186004183Y-94229381D01*
X186016757Y-94199100D01*
X186016979Y-93944413D01*
X189638282Y-97565715D01*
X189638284Y-97565718D01*
X189906096Y-97744664D01*
X190222001Y-97807501D01*
X192753461Y-97807501D01*
X192754883Y-97810943D01*
X193017673Y-98074192D01*
X193361201Y-98216838D01*
X193733167Y-98217162D01*
X194076943Y-98075117D01*
X194340192Y-97812327D01*
X194482838Y-97468799D01*
X194483162Y-97096833D01*
X194341117Y-96753057D01*
X194078327Y-96489808D01*
X193788714Y-96369550D01*
X193563907Y-96219338D01*
X193248001Y-96156501D01*
X190563934Y-96156501D01*
X186016800Y-91609366D01*
X186017242Y-91103339D01*
X185805010Y-90589697D01*
X185412370Y-90196371D01*
X184899100Y-89983243D01*
X184343339Y-89982758D01*
X183829697Y-90194990D01*
X183436371Y-90587630D01*
X183223243Y-91100900D01*
X183222758Y-91656661D01*
X183434990Y-92170303D01*
X183827630Y-92563629D01*
X184035512Y-92649949D01*
X183829697Y-92734990D01*
X183436371Y-93127630D01*
X183223243Y-93640900D01*
X183222758Y-94196661D01*
X183434990Y-94710303D01*
X183827630Y-95103629D01*
X184035512Y-95189949D01*
X183829697Y-95274990D01*
X183436371Y-95667630D01*
X183223243Y-96180900D01*
X183222758Y-96736661D01*
X183434990Y-97250303D01*
X183827630Y-97643629D01*
X184340900Y-97856757D01*
X184896661Y-97857242D01*
X185410303Y-97645010D01*
X185803629Y-97252370D01*
X186016757Y-96739100D01*
X186017060Y-96391862D01*
X194312000Y-104686802D01*
X194312000Y-105254622D01*
X189129159Y-100071781D01*
X188861348Y-99892835D01*
X188545442Y-99829998D01*
X171377432Y-99829998D01*
X168236800Y-96689366D01*
X168237242Y-96183339D01*
X168025010Y-95669697D01*
X167632370Y-95276371D01*
X167424488Y-95190051D01*
X167630303Y-95105010D01*
X168023629Y-94712370D01*
X168236757Y-94199100D01*
X168237242Y-93643339D01*
X168025010Y-93129697D01*
X167632370Y-92736371D01*
X167424488Y-92650051D01*
X167630303Y-92565010D01*
X168023629Y-92172370D01*
X168236757Y-91659100D01*
X168237242Y-91103339D01*
X168025010Y-90589697D01*
X167632370Y-90196371D01*
X167119100Y-89983243D01*
X166563339Y-89982758D01*
X166049697Y-90194990D01*
X165656371Y-90587630D01*
X165443243Y-91100900D01*
X165442758Y-91656661D01*
X165654990Y-92170303D01*
X166047630Y-92563629D01*
X166255512Y-92649949D01*
X166049697Y-92734990D01*
X165656371Y-93127630D01*
X165642930Y-93160000D01*
X163772954Y-93160000D01*
X163579147Y-92869946D01*
X163249974Y-92650000D01*
X163579147Y-92430054D01*
X163901054Y-91948285D01*
X164014093Y-91380000D01*
X163901054Y-90811715D01*
X163579147Y-90329946D01*
X163097378Y-90008039D01*
X162529093Y-89895000D01*
X162470907Y-89895000D01*
X161902622Y-90008039D01*
X161420853Y-90329946D01*
X161098946Y-90811715D01*
X160985907Y-91380000D01*
X158190000Y-91380000D01*
X158190000Y-88033661D01*
X171449758Y-88033661D01*
X171661990Y-88547303D01*
X172054630Y-88940629D01*
X172262512Y-89026949D01*
X172056697Y-89111990D01*
X171663371Y-89504630D01*
X171450243Y-90017900D01*
X171449758Y-90573661D01*
X171661990Y-91087303D01*
X172054630Y-91480629D01*
X172262512Y-91566949D01*
X172056697Y-91651990D01*
X171663371Y-92044630D01*
X171450243Y-92557900D01*
X171449758Y-93113661D01*
X171661990Y-93627303D01*
X172054630Y-94020629D01*
X172567900Y-94233757D01*
X173123661Y-94234242D01*
X173637303Y-94022010D01*
X174030629Y-93629370D01*
X174243757Y-93116100D01*
X174244242Y-92560339D01*
X174032010Y-92046697D01*
X173639370Y-91653371D01*
X173431488Y-91567051D01*
X173637303Y-91482010D01*
X174030629Y-91089370D01*
X174243757Y-90576100D01*
X174244060Y-90228862D01*
X175262000Y-91246802D01*
X175262000Y-92909537D01*
X175229808Y-92941673D01*
X175087162Y-93285201D01*
X175086838Y-93657167D01*
X175228883Y-94000943D01*
X175491673Y-94264192D01*
X175835201Y-94406838D01*
X176207167Y-94407162D01*
X176550943Y-94265117D01*
X176814192Y-94002327D01*
X176956838Y-93658799D01*
X176957162Y-93286833D01*
X176815117Y-92943057D01*
X176782000Y-92909882D01*
X176782000Y-90932000D01*
X176724148Y-90641161D01*
X176559401Y-90394599D01*
X174231183Y-88066381D01*
X174243757Y-88036100D01*
X174244181Y-87549302D01*
X189217856Y-87549302D01*
X189245638Y-88104368D01*
X189404603Y-88488143D01*
X189646787Y-88557608D01*
X190447395Y-87757000D01*
X190806605Y-87757000D01*
X191607213Y-88557608D01*
X191849397Y-88488143D01*
X192036144Y-87964698D01*
X192008362Y-87409632D01*
X192007583Y-87407750D01*
X204509000Y-87407750D01*
X204509000Y-88098309D01*
X204605673Y-88331698D01*
X204784301Y-88510327D01*
X205017690Y-88607000D01*
X205708250Y-88607000D01*
X205867000Y-88448250D01*
X205867000Y-87249000D01*
X204667750Y-87249000D01*
X204509000Y-87407750D01*
X192007583Y-87407750D01*
X191849397Y-87025857D01*
X191607213Y-86956392D01*
X190806605Y-87757000D01*
X190447395Y-87757000D01*
X189646787Y-86956392D01*
X189404603Y-87025857D01*
X189217856Y-87549302D01*
X174244181Y-87549302D01*
X174244242Y-87480339D01*
X174032010Y-86966697D01*
X173842432Y-86776787D01*
X189826392Y-86776787D01*
X190627000Y-87577395D01*
X191427608Y-86776787D01*
X191358143Y-86534603D01*
X190834698Y-86347856D01*
X190279632Y-86375638D01*
X189895857Y-86534603D01*
X189826392Y-86776787D01*
X173842432Y-86776787D01*
X173639370Y-86573371D01*
X173126100Y-86360243D01*
X172570339Y-86359758D01*
X172056697Y-86571990D01*
X171663371Y-86964630D01*
X171450243Y-87477900D01*
X171449758Y-88033661D01*
X158190000Y-88033661D01*
X158190000Y-86145691D01*
X204509000Y-86145691D01*
X204509000Y-86836250D01*
X204667750Y-86995000D01*
X205867000Y-86995000D01*
X205867000Y-85795750D01*
X205708250Y-85637000D01*
X205017690Y-85637000D01*
X204784301Y-85733673D01*
X204605673Y-85912302D01*
X204509000Y-86145691D01*
X158190000Y-86145691D01*
X158190000Y-77873661D01*
X171449758Y-77873661D01*
X171661990Y-78387303D01*
X172054630Y-78780629D01*
X172262512Y-78866949D01*
X172056697Y-78951990D01*
X171663371Y-79344630D01*
X171450243Y-79857900D01*
X171449758Y-80413661D01*
X171661990Y-80927303D01*
X172054630Y-81320629D01*
X172262512Y-81406949D01*
X172056697Y-81491990D01*
X171663371Y-81884630D01*
X171450243Y-82397900D01*
X171449758Y-82953661D01*
X171661990Y-83467303D01*
X172054630Y-83860629D01*
X172567900Y-84073757D01*
X173123661Y-84074242D01*
X173637303Y-83862010D01*
X174030629Y-83469370D01*
X174243757Y-82956100D01*
X174244242Y-82400339D01*
X174032010Y-81886697D01*
X173639370Y-81493371D01*
X173431488Y-81407051D01*
X173637303Y-81322010D01*
X174030629Y-80929370D01*
X174243757Y-80416100D01*
X174244242Y-79860339D01*
X174032010Y-79346697D01*
X173639370Y-78953371D01*
X173431488Y-78867051D01*
X173637303Y-78782010D01*
X174030629Y-78389370D01*
X174243757Y-77876100D01*
X174243759Y-77873661D01*
X189229758Y-77873661D01*
X189441990Y-78387303D01*
X189834630Y-78780629D01*
X190042512Y-78866949D01*
X189836697Y-78951990D01*
X189443371Y-79344630D01*
X189230243Y-79857900D01*
X189229758Y-80413661D01*
X189441990Y-80927303D01*
X189834630Y-81320629D01*
X190042512Y-81406949D01*
X189836697Y-81491990D01*
X189443371Y-81884630D01*
X189230243Y-82397900D01*
X189229758Y-82953661D01*
X189441990Y-83467303D01*
X189834630Y-83860629D01*
X190347900Y-84073757D01*
X190903661Y-84074242D01*
X191417303Y-83862010D01*
X191810629Y-83469370D01*
X192023757Y-82956100D01*
X192024242Y-82400339D01*
X191812010Y-81886697D01*
X191419370Y-81493371D01*
X191211488Y-81407051D01*
X191417303Y-81322010D01*
X191810629Y-80929370D01*
X192023757Y-80416100D01*
X192024242Y-79860339D01*
X191812010Y-79346697D01*
X191419370Y-78953371D01*
X191211488Y-78867051D01*
X191417303Y-78782010D01*
X191427580Y-78771750D01*
X204509000Y-78771750D01*
X204509000Y-79462309D01*
X204605673Y-79695698D01*
X204784301Y-79874327D01*
X205017690Y-79971000D01*
X205708250Y-79971000D01*
X205867000Y-79812250D01*
X205867000Y-78613000D01*
X204667750Y-78613000D01*
X204509000Y-78771750D01*
X191427580Y-78771750D01*
X191810629Y-78389370D01*
X192023757Y-77876100D01*
X192024076Y-77509691D01*
X204509000Y-77509691D01*
X204509000Y-78200250D01*
X204667750Y-78359000D01*
X205867000Y-78359000D01*
X205867000Y-77159750D01*
X206121000Y-77159750D01*
X206121000Y-78359000D01*
X206141000Y-78359000D01*
X206141000Y-78613000D01*
X206121000Y-78613000D01*
X206121000Y-79812250D01*
X206279750Y-79971000D01*
X206970310Y-79971000D01*
X207203699Y-79874327D01*
X207382327Y-79695698D01*
X207454597Y-79521223D01*
X207483946Y-79565147D01*
X207965715Y-79887054D01*
X208534000Y-80000093D01*
X209102285Y-79887054D01*
X209584054Y-79565147D01*
X209804000Y-79235974D01*
X210023946Y-79565147D01*
X210505715Y-79887054D01*
X211074000Y-80000093D01*
X211642285Y-79887054D01*
X212124054Y-79565147D01*
X212344000Y-79235974D01*
X212563946Y-79565147D01*
X213045715Y-79887054D01*
X213614000Y-80000093D01*
X214182285Y-79887054D01*
X214664054Y-79565147D01*
X214884000Y-79235974D01*
X215103946Y-79565147D01*
X215585715Y-79887054D01*
X216154000Y-80000093D01*
X216722285Y-79887054D01*
X217204054Y-79565147D01*
X217525961Y-79083378D01*
X217639000Y-78515093D01*
X217639000Y-78456907D01*
X217525961Y-77888622D01*
X217204054Y-77406853D01*
X216722285Y-77084946D01*
X216154000Y-76971907D01*
X215585715Y-77084946D01*
X215103946Y-77406853D01*
X214884000Y-77736026D01*
X214664054Y-77406853D01*
X214182285Y-77084946D01*
X213614000Y-76971907D01*
X213045715Y-77084946D01*
X212563946Y-77406853D01*
X212344000Y-77736026D01*
X212124054Y-77406853D01*
X211642285Y-77084946D01*
X211074000Y-76971907D01*
X210505715Y-77084946D01*
X210023946Y-77406853D01*
X209804000Y-77736026D01*
X209584054Y-77406853D01*
X209102285Y-77084946D01*
X208534000Y-76971907D01*
X207965715Y-77084946D01*
X207483946Y-77406853D01*
X207454597Y-77450777D01*
X207382327Y-77276302D01*
X207203699Y-77097673D01*
X206970310Y-77001000D01*
X206279750Y-77001000D01*
X206121000Y-77159750D01*
X205867000Y-77159750D01*
X205708250Y-77001000D01*
X205017690Y-77001000D01*
X204784301Y-77097673D01*
X204605673Y-77276302D01*
X204509000Y-77509691D01*
X192024076Y-77509691D01*
X192024242Y-77320339D01*
X191812010Y-76806697D01*
X191419370Y-76413371D01*
X190906100Y-76200243D01*
X190350339Y-76199758D01*
X189836697Y-76411990D01*
X189443371Y-76804630D01*
X189230243Y-77317900D01*
X189229758Y-77873661D01*
X174243759Y-77873661D01*
X174244242Y-77320339D01*
X174032010Y-76806697D01*
X173639370Y-76413371D01*
X173126100Y-76200243D01*
X172570339Y-76199758D01*
X172056697Y-76411990D01*
X171663371Y-76804630D01*
X171450243Y-77317900D01*
X171449758Y-77873661D01*
X158190000Y-77873661D01*
X158190000Y-74463242D01*
X204450915Y-74463242D01*
X204450915Y-75153801D01*
X204547588Y-75387190D01*
X204726216Y-75565819D01*
X204959605Y-75662492D01*
X205650165Y-75662492D01*
X205808915Y-75503742D01*
X205808915Y-74304492D01*
X204609665Y-74304492D01*
X204450915Y-74463242D01*
X158190000Y-74463242D01*
X158190000Y-73201183D01*
X204450915Y-73201183D01*
X204450915Y-73891742D01*
X204609665Y-74050492D01*
X205808915Y-74050492D01*
X205808915Y-72851242D01*
X206062915Y-72851242D01*
X206062915Y-74050492D01*
X206082915Y-74050492D01*
X206082915Y-74304492D01*
X206062915Y-74304492D01*
X206062915Y-75503742D01*
X206221665Y-75662492D01*
X206912225Y-75662492D01*
X207145614Y-75565819D01*
X207324242Y-75387190D01*
X207396512Y-75212715D01*
X207425861Y-75256639D01*
X207907630Y-75578546D01*
X208475915Y-75691585D01*
X209044200Y-75578546D01*
X209525969Y-75256639D01*
X209745915Y-74927466D01*
X209965861Y-75256639D01*
X210447630Y-75578546D01*
X211015915Y-75691585D01*
X211584200Y-75578546D01*
X212065969Y-75256639D01*
X212285915Y-74927466D01*
X212505861Y-75256639D01*
X212987630Y-75578546D01*
X213555915Y-75691585D01*
X214124200Y-75578546D01*
X214605969Y-75256639D01*
X214825915Y-74927466D01*
X215045861Y-75256639D01*
X215527630Y-75578546D01*
X216095915Y-75691585D01*
X216664200Y-75578546D01*
X217145969Y-75256639D01*
X217467876Y-74774870D01*
X217580915Y-74206585D01*
X217580915Y-74148399D01*
X217467876Y-73580114D01*
X217145969Y-73098345D01*
X216664200Y-72776438D01*
X216095915Y-72663399D01*
X215527630Y-72776438D01*
X215045861Y-73098345D01*
X214825915Y-73427518D01*
X214605969Y-73098345D01*
X214124200Y-72776438D01*
X213555915Y-72663399D01*
X212987630Y-72776438D01*
X212505861Y-73098345D01*
X212285915Y-73427518D01*
X212065969Y-73098345D01*
X211584200Y-72776438D01*
X211015915Y-72663399D01*
X210447630Y-72776438D01*
X209965861Y-73098345D01*
X209745915Y-73427518D01*
X209525969Y-73098345D01*
X209044200Y-72776438D01*
X208475915Y-72663399D01*
X207907630Y-72776438D01*
X207425861Y-73098345D01*
X207396512Y-73142269D01*
X207324242Y-72967794D01*
X207145614Y-72789165D01*
X206912225Y-72692492D01*
X206221665Y-72692492D01*
X206062915Y-72851242D01*
X205808915Y-72851242D01*
X205650165Y-72692492D01*
X204959605Y-72692492D01*
X204726216Y-72789165D01*
X204547588Y-72967794D01*
X204450915Y-73201183D01*
X158190000Y-73201183D01*
X158190000Y-71830000D01*
X232886340Y-71830000D01*
X232852511Y-71836729D01*
G36*
X210023946Y-88201147D02*
X210505715Y-88523054D01*
X211074000Y-88636093D01*
X211642285Y-88523054D01*
X212074944Y-88233961D01*
X219767500Y-95926517D01*
X219767500Y-105455067D01*
X216027022Y-109195544D01*
X216027242Y-108943339D01*
X215815010Y-108429697D01*
X215422370Y-108036371D01*
X215214488Y-107950051D01*
X215420303Y-107865010D01*
X215813629Y-107472370D01*
X216026757Y-106959100D01*
X216027242Y-106403339D01*
X215815010Y-105889697D01*
X215422370Y-105496371D01*
X214909100Y-105283243D01*
X214353339Y-105282758D01*
X213839697Y-105494990D01*
X213446371Y-105887630D01*
X213233243Y-106400900D01*
X213232758Y-106956661D01*
X213444990Y-107470303D01*
X213837630Y-107863629D01*
X214045512Y-107949949D01*
X213839697Y-108034990D01*
X213446371Y-108427630D01*
X213233243Y-108940900D01*
X213232758Y-109496661D01*
X213444990Y-110010303D01*
X213837630Y-110403629D01*
X214045512Y-110489949D01*
X213839697Y-110574990D01*
X213446371Y-110967630D01*
X213233243Y-111480900D01*
X213232758Y-112036661D01*
X213264652Y-112113850D01*
X209294000Y-108143198D01*
X209294000Y-88394954D01*
X209584054Y-88201147D01*
X209804000Y-87871974D01*
X210023946Y-88201147D01*
X210023946Y-88201147D01*
G37*
X210023946Y-88201147D02*
X210505715Y-88523054D01*
X211074000Y-88636093D01*
X211642285Y-88523054D01*
X212074944Y-88233961D01*
X219767500Y-95926517D01*
X219767500Y-105455067D01*
X216027022Y-109195544D01*
X216027242Y-108943339D01*
X215815010Y-108429697D01*
X215422370Y-108036371D01*
X215214488Y-107950051D01*
X215420303Y-107865010D01*
X215813629Y-107472370D01*
X216026757Y-106959100D01*
X216027242Y-106403339D01*
X215815010Y-105889697D01*
X215422370Y-105496371D01*
X214909100Y-105283243D01*
X214353339Y-105282758D01*
X213839697Y-105494990D01*
X213446371Y-105887630D01*
X213233243Y-106400900D01*
X213232758Y-106956661D01*
X213444990Y-107470303D01*
X213837630Y-107863629D01*
X214045512Y-107949949D01*
X213839697Y-108034990D01*
X213446371Y-108427630D01*
X213233243Y-108940900D01*
X213232758Y-109496661D01*
X213444990Y-110010303D01*
X213837630Y-110403629D01*
X214045512Y-110489949D01*
X213839697Y-110574990D01*
X213446371Y-110967630D01*
X213233243Y-111480900D01*
X213232758Y-112036661D01*
X213264652Y-112113850D01*
X209294000Y-108143198D01*
X209294000Y-88394954D01*
X209584054Y-88201147D01*
X209804000Y-87871974D01*
X210023946Y-88201147D01*
G36*
X236093000Y-73279000D02*
X236113000Y-73279000D01*
X236113000Y-73533000D01*
X236093000Y-73533000D01*
X236093000Y-73553000D01*
X235839000Y-73553000D01*
X235839000Y-73533000D01*
X235819000Y-73533000D01*
X235819000Y-73279000D01*
X235839000Y-73279000D01*
X235839000Y-73259000D01*
X236093000Y-73259000D01*
X236093000Y-73279000D01*
X236093000Y-73279000D01*
G37*
X236093000Y-73279000D02*
X236113000Y-73279000D01*
X236113000Y-73533000D01*
X236093000Y-73533000D01*
X236093000Y-73553000D01*
X235839000Y-73553000D01*
X235839000Y-73533000D01*
X235819000Y-73533000D01*
X235819000Y-73279000D01*
X235839000Y-73279000D01*
X235839000Y-73259000D01*
X236093000Y-73259000D01*
X236093000Y-73279000D01*
M02*
