M48
;DRILL file {KiCad 4.0.6} date 05/30/17 18:11:41
;FORMAT={-:-/ absolute / inch / decimal}
FMAT,2
INCH,TZ
T1C0.016
T2C0.030
T3C0.031
T4C0.039
T5C0.040
%
G90
G05
M72
T1
X6.93Y-3.68
X7.485Y-4.065
X7.62Y-3.83
X7.68Y-4.175
X7.86Y-4.84
X8.1338Y-3.7448
X8.135Y-5.62
X8.3138Y-3.7448
X9.695Y-3.49
X9.735Y-3.485
T2
X6.5685Y-3.5976
X6.5685Y-3.6976
X6.5685Y-3.7976
X6.5685Y-4.2488
X6.5685Y-4.3488
X6.5685Y-4.4488
X6.57Y-4.9
X6.57Y-5.
X6.57Y-5.1
X6.57Y-5.55
X6.57Y-5.65
X6.57Y-5.75
X6.8Y-4.2
X6.8Y-4.3
X6.8Y-4.4
X6.8Y-4.6
X6.8Y-4.7
X6.8Y-4.8
X6.8Y-5.2
X6.8Y-5.3
X6.8Y-5.4
X6.8Y-5.6
X6.8Y-5.7
X6.8Y-5.8
X6.805Y-3.055
X6.805Y-3.155
X6.805Y-3.255
X6.805Y-3.455
X6.805Y-3.555
X6.805Y-3.655
X7.2685Y-3.5976
X7.2685Y-3.6976
X7.2685Y-3.7976
X7.2685Y-4.2488
X7.2685Y-4.3488
X7.2685Y-4.4488
X7.27Y-4.9
X7.27Y-5.
X7.27Y-5.1
X7.27Y-5.55
X7.27Y-5.65
X7.27Y-5.75
X7.5Y-4.2
X7.5Y-4.3
X7.5Y-4.4
X7.5Y-4.6
X7.5Y-4.7
X7.5Y-4.8
X7.5Y-5.2
X7.5Y-5.3
X7.5Y-5.4
X7.5Y-5.6
X7.5Y-5.7
X7.5Y-5.8
X7.505Y-3.055
X7.505Y-3.155
X7.505Y-3.255
X7.505Y-3.455
X7.505Y-3.555
X7.505Y-3.655
X7.75Y-4.2
X7.75Y-4.3
X7.75Y-4.4
X7.75Y-4.6
X7.75Y-4.7
X7.75Y-4.8
X7.89Y-5.025
X7.89Y-5.825
X7.99Y-5.025
X7.99Y-5.825
X8.09Y-5.025
X8.09Y-5.825
X8.19Y-5.025
X8.19Y-5.825
X8.29Y-5.025
X8.29Y-5.825
X8.39Y-5.025
X8.39Y-5.825
X8.45Y-4.2
X8.45Y-4.3
X8.45Y-4.4
X8.45Y-4.6
X8.45Y-4.7
X8.45Y-4.8
X8.49Y-5.025
X8.49Y-5.825
X8.59Y-5.025
X8.59Y-5.825
X8.69Y-5.025
X8.69Y-5.825
X8.79Y-5.025
X8.79Y-5.825
X8.89Y-5.025
X8.89Y-5.825
X8.99Y-5.025
X8.99Y-5.825
X9.02Y-3.46
X9.02Y-4.86
X9.12Y-3.46
X9.12Y-4.86
T3
X8.225Y-5.125
X8.225Y-5.925
X8.325Y-5.125
X8.325Y-5.925
X8.425Y-5.125
X8.425Y-5.925
X8.525Y-5.125
X8.525Y-5.925
X8.625Y-5.125
X8.625Y-5.925
X8.725Y-5.125
X8.725Y-5.925
X8.825Y-5.125
X8.825Y-5.925
X8.925Y-5.125
X8.925Y-5.925
X9.025Y-5.125
X9.025Y-5.925
X9.125Y-5.125
X9.125Y-5.925
X9.225Y-5.125
X9.225Y-5.925
X9.325Y-5.125
X9.325Y-5.925
X9.425Y-5.125
X9.525Y-5.125
X9.625Y-5.125
X9.725Y-5.125
T4
X6.3876Y-4.9012
X6.3876Y-5.0012
X6.3876Y-5.1012
X6.3876Y-5.55
X6.3876Y-5.65
X6.3876Y-5.75
X6.3976Y-3.5976
X6.3976Y-3.6976
X6.3976Y-3.7976
X6.3976Y-4.2488
X6.3976Y-4.3488
X6.3976Y-4.4488
X8.1077Y-2.9204
X8.11Y-3.09
X8.11Y-3.43
X8.2077Y-2.9204
X8.21Y-3.09
X8.21Y-3.43
X8.3077Y-2.9204
X8.31Y-3.09
X8.31Y-3.43
X8.4077Y-2.9204
X8.41Y-3.09
X8.5077Y-2.9204
X8.51Y-3.09
T5
X9.19Y-2.89
X9.19Y-3.19
X9.29Y-2.89
X9.29Y-3.19
X9.39Y-2.89
X9.39Y-3.19
X9.49Y-2.99
X9.49Y-3.09
T0
M30
