G04 #@! TF.FileFunction,Copper,L1,Top,Signal*
%FSLAX46Y46*%
G04 Gerber Fmt 4.6, Leading zero omitted, Abs format (unit mm)*
G04 Created by KiCad (PCBNEW 4.0.6) date 05/30/17 18:11:38*
%MOMM*%
%LPD*%
G01*
G04 APERTURE LIST*
%ADD10C,0.100000*%
%ADD11C,1.524000*%
%ADD12C,1.200000*%
%ADD13R,0.900000X1.200000*%
%ADD14R,1.700000X1.700000*%
%ADD15O,1.700000X1.700000*%
%ADD16O,1.727200X2.032000*%
%ADD17C,0.600000*%
%ADD18C,0.381000*%
%ADD19C,0.587000*%
%ADD20C,0.250000*%
%ADD21C,0.254000*%
G04 APERTURE END LIST*
D10*
D11*
X200406000Y-147955000D03*
X202946000Y-147955000D03*
X205486000Y-147955000D03*
X208026000Y-147955000D03*
X210566000Y-147955000D03*
X213106000Y-147955000D03*
X215646000Y-147955000D03*
X218186000Y-147955000D03*
X220726000Y-147955000D03*
X223266000Y-147955000D03*
X225806000Y-147955000D03*
X225806000Y-127635000D03*
X223266000Y-127635000D03*
X220726000Y-127635000D03*
X218186000Y-127635000D03*
X215646000Y-127635000D03*
X213106000Y-127635000D03*
X200406000Y-127635000D03*
X202946000Y-127635000D03*
X205486000Y-127635000D03*
X208026000Y-127635000D03*
X210566000Y-127635000D03*
X228346000Y-147955000D03*
X228346000Y-127635000D03*
X184620000Y-91380000D03*
X184620000Y-93920000D03*
X184620000Y-96460000D03*
X166840000Y-91380000D03*
X166840000Y-93920000D03*
X166840000Y-96460000D03*
X190627000Y-87757000D03*
X190627000Y-90297000D03*
X190627000Y-92837000D03*
X190627000Y-82677000D03*
X190627000Y-80137000D03*
X190627000Y-77597000D03*
X172847000Y-92837000D03*
X172847000Y-90297000D03*
X172847000Y-87757000D03*
X172847000Y-82677000D03*
X172847000Y-80137000D03*
X172847000Y-77597000D03*
D12*
X247015000Y-130175000D03*
X244475000Y-130175000D03*
X241935000Y-130175000D03*
X239395000Y-130175000D03*
X236855000Y-150495000D03*
X236855000Y-130175000D03*
X234315000Y-150495000D03*
X234315000Y-130175000D03*
X231775000Y-150495000D03*
X231775000Y-130175000D03*
X229235000Y-150495000D03*
X229235000Y-130175000D03*
X226695000Y-150495000D03*
X226695000Y-130175000D03*
X224155000Y-150495000D03*
X224155000Y-130175000D03*
X221615000Y-150495000D03*
X221615000Y-130175000D03*
X219075000Y-150495000D03*
X219075000Y-130175000D03*
X216535000Y-150495000D03*
X216535000Y-130175000D03*
X213995000Y-150495000D03*
X213995000Y-130175000D03*
X211455000Y-150495000D03*
X211455000Y-130175000D03*
X208915000Y-150495000D03*
X208915000Y-130175000D03*
D13*
X213455393Y-95204579D03*
X213455393Y-97404579D03*
X208883393Y-95204579D03*
X208883393Y-97404579D03*
X204311393Y-95205189D03*
X204311393Y-97405189D03*
X213455393Y-102104579D03*
X213455393Y-99904579D03*
X208883393Y-102104579D03*
X208883393Y-99904579D03*
X204311393Y-102104189D03*
X204311393Y-99904189D03*
D11*
X229108000Y-87884000D03*
X231648000Y-87884000D03*
X231648000Y-123444000D03*
X229108000Y-123444000D03*
D14*
X205994000Y-78486000D03*
D15*
X208534000Y-78486000D03*
X211074000Y-78486000D03*
X213614000Y-78486000D03*
X216154000Y-78486000D03*
D14*
X205935915Y-74177492D03*
D15*
X208475915Y-74177492D03*
X211015915Y-74177492D03*
X213555915Y-74177492D03*
X216095915Y-74177492D03*
D14*
X205994000Y-87122000D03*
D15*
X208534000Y-87122000D03*
X211074000Y-87122000D03*
D16*
X238506000Y-81026000D03*
X235966000Y-81026000D03*
X233426000Y-81026000D03*
X241046000Y-78486000D03*
X241046000Y-75946000D03*
X238506000Y-73406000D03*
X235966000Y-73406000D03*
X233426000Y-73406000D03*
D14*
X162500000Y-113000000D03*
D15*
X162500000Y-110460000D03*
X162500000Y-107920000D03*
D14*
X162246000Y-129570000D03*
D15*
X162246000Y-127030000D03*
X162246000Y-124490000D03*
D14*
X162246000Y-146050000D03*
D15*
X162246000Y-143510000D03*
X162246000Y-140970000D03*
D14*
X162500000Y-96460000D03*
D15*
X162500000Y-93920000D03*
X162500000Y-91380000D03*
D11*
X190500000Y-116840000D03*
X190500000Y-119380000D03*
X190500000Y-121920000D03*
X190500000Y-111760000D03*
X190500000Y-109220000D03*
X190500000Y-106680000D03*
X172720000Y-121920000D03*
X172720000Y-119380000D03*
X172720000Y-116840000D03*
X172720000Y-111760000D03*
X172720000Y-109220000D03*
X172720000Y-106680000D03*
X190500000Y-142240000D03*
X190500000Y-144780000D03*
X190500000Y-147320000D03*
X190500000Y-137160000D03*
X190500000Y-134620000D03*
X190500000Y-132080000D03*
X172720000Y-147320000D03*
X172720000Y-144780000D03*
X172720000Y-142240000D03*
X172720000Y-137160000D03*
X172720000Y-134620000D03*
X172720000Y-132080000D03*
X214630000Y-116840000D03*
X214630000Y-119380000D03*
X214630000Y-121920000D03*
X214630000Y-111760000D03*
X214630000Y-109220000D03*
X214630000Y-106680000D03*
X196850000Y-121920000D03*
X196850000Y-119380000D03*
X196850000Y-116840000D03*
X196850000Y-111760000D03*
X196850000Y-109220000D03*
X196850000Y-106680000D03*
X184620000Y-107920000D03*
X184620000Y-110460000D03*
X184620000Y-113000000D03*
X166840000Y-107920000D03*
X166840000Y-110460000D03*
X166840000Y-113000000D03*
X184658000Y-124460000D03*
X184658000Y-127000000D03*
X184658000Y-129540000D03*
X166878000Y-124460000D03*
X166878000Y-127000000D03*
X166878000Y-129540000D03*
X184658000Y-140970000D03*
X184658000Y-143510000D03*
X184658000Y-146050000D03*
X166878000Y-140970000D03*
X166878000Y-143510000D03*
X166878000Y-146050000D03*
D17*
X211169393Y-95119189D03*
X206597393Y-95119189D03*
X206629000Y-142748000D03*
X246253000Y-88646000D03*
X247269000Y-88519000D03*
X199644000Y-122936000D03*
X176022000Y-93472000D03*
X193548000Y-97282000D03*
X195072000Y-106045000D03*
X190119000Y-103251000D03*
D18*
X162500000Y-113000000D02*
X162500000Y-112260000D01*
X162500000Y-112260000D02*
X166840000Y-107920000D01*
X162500000Y-96460000D02*
X162500000Y-95720000D01*
X162500000Y-95720000D02*
X166840000Y-91380000D01*
X166878000Y-124460000D02*
X162246000Y-129092000D01*
X162246000Y-129092000D02*
X162246000Y-129570000D01*
X166878000Y-140970000D02*
X162246000Y-145602000D01*
X162246000Y-145602000D02*
X162246000Y-146050000D01*
X160274000Y-112005000D02*
X160274000Y-125349000D01*
X160274000Y-125349000D02*
X160274000Y-145309000D01*
X162246000Y-129570000D02*
X161015000Y-129570000D01*
X161015000Y-129570000D02*
X160274000Y-128829000D01*
X160274000Y-128829000D02*
X160274000Y-125349000D01*
X160274000Y-145309000D02*
X161015000Y-146050000D01*
X161015000Y-146050000D02*
X162246000Y-146050000D01*
X160274000Y-99917000D02*
X160274000Y-112005000D01*
X160274000Y-112005000D02*
X161269000Y-113000000D01*
X161269000Y-113000000D02*
X162500000Y-113000000D01*
X162500000Y-96460000D02*
X162500000Y-97691000D01*
X162500000Y-97691000D02*
X160274000Y-99917000D01*
D19*
X162276000Y-129540000D02*
X162246000Y-129570000D01*
D18*
X162276000Y-127000000D02*
X162246000Y-127030000D01*
D19*
X166848000Y-127030000D02*
X166878000Y-127000000D01*
D20*
X208883393Y-95204579D02*
X206682783Y-95204579D01*
X206682783Y-95204579D02*
X206597393Y-95119189D01*
X213455393Y-95204579D02*
X211254783Y-95204579D01*
X211254783Y-95204579D02*
X211169393Y-95119189D01*
X208883393Y-95204579D02*
X211084003Y-95204579D01*
X211084003Y-95204579D02*
X211169393Y-95119189D01*
X204311393Y-95205189D02*
X206511393Y-95205189D01*
X206511393Y-95205189D02*
X206597393Y-95119189D01*
X206629000Y-142748000D02*
X202946000Y-146431000D01*
X202946000Y-146431000D02*
X202946000Y-147955000D01*
X212004881Y-148716999D02*
X211327999Y-148716999D01*
X211327999Y-148716999D02*
X210566000Y-147955000D01*
X212570871Y-149282989D02*
X212004881Y-148716999D01*
X216535000Y-150495000D02*
X215322989Y-149282989D01*
X215322989Y-149282989D02*
X212570871Y-149282989D01*
X211876472Y-149225000D02*
X209296000Y-149225000D01*
X209296000Y-149225000D02*
X208026000Y-147955000D01*
X213995000Y-150495000D02*
X213146472Y-150495000D01*
X213146472Y-150495000D02*
X211876472Y-149225000D01*
X181425011Y-107265011D02*
X183858001Y-109698001D01*
X183858001Y-109698001D02*
X184620000Y-110460000D01*
X181425011Y-97950007D02*
X181425011Y-107265011D01*
X176312004Y-92837000D02*
X181425011Y-97950007D01*
X172847000Y-92837000D02*
X176312004Y-92837000D01*
X173924630Y-90297000D02*
X172847000Y-90297000D01*
X174408415Y-90297000D02*
X173924630Y-90297000D01*
X184620000Y-100508585D02*
X174408415Y-90297000D01*
X184620000Y-107920000D02*
X184620000Y-100508585D01*
D18*
X200406000Y-147955000D02*
X193929000Y-141478000D01*
X193929000Y-141478000D02*
X190500000Y-138049000D01*
X193929000Y-133731000D02*
X193929000Y-141478000D01*
X191261999Y-110998001D02*
X190500000Y-111760000D01*
X193929000Y-108331000D02*
X191261999Y-110998001D01*
X192857498Y-97613442D02*
X193929000Y-98684944D01*
X193929000Y-98684944D02*
X193929000Y-108331000D01*
X192857498Y-84907498D02*
X192857498Y-97613442D01*
X190627000Y-82677000D02*
X192857498Y-84907498D01*
X190500000Y-138049000D02*
X190500000Y-137160000D01*
X193929000Y-133731000D02*
X193929000Y-115189000D01*
X193929000Y-115189000D02*
X190500000Y-111760000D01*
X190627000Y-82677000D02*
X206629000Y-82677000D01*
X206629000Y-82677000D02*
X211074000Y-87122000D01*
D19*
X211074000Y-87122000D02*
X211074000Y-82804000D01*
X211074000Y-82804000D02*
X208534000Y-80264000D01*
X208534000Y-80264000D02*
X208534000Y-78486000D01*
X208475915Y-74177492D02*
X208475915Y-78427915D01*
X208475915Y-78427915D02*
X208534000Y-78486000D01*
D20*
X248285000Y-90678000D02*
X246253000Y-88646000D01*
X248285000Y-146558000D02*
X248285000Y-90678000D01*
X243205000Y-151638000D02*
X248285000Y-146558000D01*
X211749472Y-151638000D02*
X243205000Y-151638000D01*
X211455000Y-150495000D02*
X211455000Y-151343528D01*
X211455000Y-151343528D02*
X211749472Y-151638000D01*
X235966000Y-81026000D02*
X235966000Y-81178400D01*
X235966000Y-81178400D02*
X233832400Y-83312000D01*
X233832400Y-83312000D02*
X217170000Y-83312000D01*
X217170000Y-83312000D02*
X213614000Y-79756000D01*
X213614000Y-79756000D02*
X213614000Y-78486000D01*
X213614000Y-78486000D02*
X213614000Y-74235577D01*
X213614000Y-74235577D02*
X213555915Y-74177492D01*
X248735011Y-89985011D02*
X247568999Y-88818999D01*
X248735011Y-146744400D02*
X248735011Y-89985011D01*
X208915000Y-150495000D02*
X210508011Y-152088011D01*
X247568999Y-88818999D02*
X247269000Y-88519000D01*
X243391400Y-152088011D02*
X248735011Y-146744400D01*
X210508011Y-152088011D02*
X243391400Y-152088011D01*
X216095915Y-74177492D02*
X216095915Y-78427915D01*
X216095915Y-78427915D02*
X216154000Y-78486000D01*
X238506000Y-81026000D02*
X238506000Y-79760000D01*
X238506000Y-79760000D02*
X237232000Y-78486000D01*
X237232000Y-78486000D02*
X217356081Y-78486000D01*
X217356081Y-78486000D02*
X216154000Y-78486000D01*
X213455393Y-97404579D02*
X213455393Y-99904579D01*
X208883393Y-97404579D02*
X208883393Y-98254579D01*
X208883393Y-98254579D02*
X208883393Y-99904579D01*
X204311393Y-97405189D02*
X204311393Y-99904189D01*
X236855000Y-129326472D02*
X236855000Y-130175000D01*
X236855000Y-124804186D02*
X236855000Y-129326472D01*
X216604011Y-103699600D02*
X216604011Y-104553197D01*
X215008990Y-102104579D02*
X216604011Y-103699600D01*
X213455393Y-102104579D02*
X215008990Y-102104579D01*
X216604011Y-104553197D02*
X236855000Y-124804186D01*
X234315000Y-122936000D02*
X234315000Y-129326472D01*
X214941989Y-103562989D02*
X234315000Y-122936000D01*
X209583393Y-102104579D02*
X211041803Y-103562989D01*
X208883393Y-102104579D02*
X209583393Y-102104579D01*
X211041803Y-103562989D02*
X214941989Y-103562989D01*
X234315000Y-129326472D02*
X234315000Y-130175000D01*
X208883393Y-102104579D02*
X208883393Y-102254579D01*
X231775000Y-130175000D02*
X233680000Y-128270000D01*
X233680000Y-128270000D02*
X233680000Y-123867238D01*
X233680000Y-123867238D02*
X213825762Y-104013000D01*
X213825762Y-104013000D02*
X206920204Y-104013000D01*
X206920204Y-104013000D02*
X205011393Y-102104189D01*
X205011393Y-102104189D02*
X204311393Y-102104189D01*
D19*
X229108000Y-123444000D02*
X230328501Y-124664501D01*
X230328501Y-124664501D02*
X230328501Y-149048501D01*
X230328501Y-149048501D02*
X231175001Y-149895001D01*
X231175001Y-149895001D02*
X231775000Y-150495000D01*
X235966000Y-85637643D02*
X241046000Y-80557643D01*
X229108000Y-87884000D02*
X231354357Y-85637643D01*
X231354357Y-85637643D02*
X235966000Y-85637643D01*
X241046000Y-80557643D02*
X241046000Y-80089000D01*
X241046000Y-80089000D02*
X241046000Y-78486000D01*
X234832644Y-87884000D02*
X231648000Y-87884000D01*
X234832644Y-87884000D02*
X242496600Y-80220044D01*
X242496600Y-80220044D02*
X242496600Y-77549000D01*
X242496600Y-77549000D02*
X241046000Y-76098400D01*
X241046000Y-76098400D02*
X241046000Y-75946000D01*
D18*
X199644000Y-122936000D02*
X199644000Y-124333000D01*
X199644000Y-124333000D02*
X202946000Y-127635000D01*
D20*
X180975000Y-98425000D02*
X176022000Y-93472000D01*
X180975000Y-109355000D02*
X180975000Y-98425000D01*
X184620000Y-113000000D02*
X180975000Y-109355000D01*
D18*
X166840000Y-113000000D02*
X167992501Y-111847499D01*
X167992501Y-111847499D02*
X167992501Y-87531499D01*
X167992501Y-87531499D02*
X172085001Y-83438999D01*
X172085001Y-83438999D02*
X172847000Y-82677000D01*
X218186000Y-127635000D02*
X218186000Y-125476000D01*
X218186000Y-125476000D02*
X214630000Y-121920000D01*
X215646000Y-127635000D02*
X215646000Y-124641702D01*
X215646000Y-124641702D02*
X213477499Y-122473201D01*
X213477499Y-122473201D02*
X213477499Y-120532501D01*
X213477499Y-120532501D02*
X213868001Y-120141999D01*
X213868001Y-120141999D02*
X214630000Y-119380000D01*
D20*
X172720000Y-119380000D02*
X179578000Y-119380000D01*
X179578000Y-119380000D02*
X184658000Y-124460000D01*
X172720000Y-121920000D02*
X179578000Y-121920000D01*
X179578000Y-121920000D02*
X184658000Y-127000000D01*
X172720000Y-144780000D02*
X173797630Y-144780000D01*
X173797630Y-144780000D02*
X177607630Y-140970000D01*
X177607630Y-140970000D02*
X183580370Y-140970000D01*
X183580370Y-140970000D02*
X184658000Y-140970000D01*
X184658000Y-143510000D02*
X176530000Y-143510000D01*
X176530000Y-143510000D02*
X172720000Y-147320000D01*
D18*
X172720000Y-137160000D02*
X172720000Y-140208000D01*
X172720000Y-140208000D02*
X166878000Y-146050000D01*
X196850000Y-119380000D02*
X198002501Y-118227499D01*
X198002501Y-118227499D02*
X198002501Y-101736501D01*
X198002501Y-101736501D02*
X193548000Y-97282000D01*
D20*
X195072000Y-106045000D02*
X194772001Y-106344999D01*
X194772001Y-106344999D02*
X194772001Y-119842001D01*
X194772001Y-119842001D02*
X196088001Y-121158001D01*
X196088001Y-121158001D02*
X196850000Y-121920000D01*
X190119000Y-103251000D02*
X184620000Y-97752000D01*
X184620000Y-97752000D02*
X184620000Y-96460000D01*
D21*
G36*
X232852511Y-71836729D02*
X232366330Y-72161585D01*
X232041474Y-72647766D01*
X231927400Y-73221255D01*
X231927400Y-73590745D01*
X232041474Y-74164234D01*
X232366330Y-74650415D01*
X232852511Y-74975271D01*
X233426000Y-75089345D01*
X233999489Y-74975271D01*
X234485670Y-74650415D01*
X234692461Y-74340931D01*
X235063964Y-74756732D01*
X235591209Y-75010709D01*
X235606974Y-75013358D01*
X235839000Y-74892217D01*
X235839000Y-73533000D01*
X235819000Y-73533000D01*
X235819000Y-73279000D01*
X235839000Y-73279000D01*
X235839000Y-73259000D01*
X236093000Y-73259000D01*
X236093000Y-73279000D01*
X236113000Y-73279000D01*
X236113000Y-73533000D01*
X236093000Y-73533000D01*
X236093000Y-74892217D01*
X236325026Y-75013358D01*
X236340791Y-75010709D01*
X236868036Y-74756732D01*
X237239539Y-74340931D01*
X237446330Y-74650415D01*
X237932511Y-74975271D01*
X238506000Y-75089345D01*
X239079489Y-74975271D01*
X239565670Y-74650415D01*
X239890526Y-74164234D01*
X240004600Y-73590745D01*
X240004600Y-73221255D01*
X239890526Y-72647766D01*
X239565670Y-72161585D01*
X239079489Y-71836729D01*
X239045660Y-71830000D01*
X253290000Y-71830000D01*
X253290000Y-151690000D01*
X244864213Y-151690000D01*
X249272412Y-147281801D01*
X249437159Y-147035239D01*
X249495011Y-146744400D01*
X249495011Y-89985011D01*
X249437159Y-89694172D01*
X249272412Y-89447610D01*
X248204122Y-88379320D01*
X248204162Y-88333833D01*
X248062117Y-87990057D01*
X247799327Y-87726808D01*
X247455799Y-87584162D01*
X247083833Y-87583838D01*
X246740057Y-87725883D01*
X246662266Y-87803539D01*
X246439799Y-87711162D01*
X246067833Y-87710838D01*
X245724057Y-87852883D01*
X245460808Y-88115673D01*
X245318162Y-88459201D01*
X245317838Y-88831167D01*
X245459883Y-89174943D01*
X245722673Y-89438192D01*
X246066201Y-89580838D01*
X246113077Y-89580879D01*
X247525000Y-90992802D01*
X247525000Y-129049533D01*
X247261734Y-128940215D01*
X246770421Y-128939786D01*
X246316343Y-129127408D01*
X245968629Y-129474515D01*
X245780215Y-129928266D01*
X245779786Y-130419579D01*
X245967408Y-130873657D01*
X246314515Y-131221371D01*
X246768266Y-131409785D01*
X247259579Y-131410214D01*
X247525000Y-131300544D01*
X247525000Y-146243198D01*
X242890198Y-150878000D01*
X238033202Y-150878000D01*
X238089785Y-150741734D01*
X238090214Y-150250421D01*
X237902592Y-149796343D01*
X237555485Y-149448629D01*
X237101734Y-149260215D01*
X236610421Y-149259786D01*
X236156343Y-149447408D01*
X235808629Y-149794515D01*
X235620215Y-150248266D01*
X235619786Y-150739579D01*
X235676981Y-150878000D01*
X235493202Y-150878000D01*
X235549785Y-150741734D01*
X235550214Y-150250421D01*
X235362592Y-149796343D01*
X235015485Y-149448629D01*
X234561734Y-149260215D01*
X234070421Y-149259786D01*
X233616343Y-149447408D01*
X233268629Y-149794515D01*
X233080215Y-150248266D01*
X233079786Y-150739579D01*
X233136981Y-150878000D01*
X232953202Y-150878000D01*
X233009785Y-150741734D01*
X233010214Y-150250421D01*
X232822592Y-149796343D01*
X232475485Y-149448629D01*
X232021734Y-149260215D01*
X231853166Y-149260068D01*
X231831550Y-149238452D01*
X231831547Y-149238450D01*
X231257001Y-148663903D01*
X231257001Y-131297146D01*
X231528266Y-131409785D01*
X232019579Y-131410214D01*
X232473657Y-131222592D01*
X232821371Y-130875485D01*
X233009785Y-130421734D01*
X233010140Y-130014662D01*
X233080201Y-129944601D01*
X233079786Y-130419579D01*
X233267408Y-130873657D01*
X233614515Y-131221371D01*
X234068266Y-131409785D01*
X234559579Y-131410214D01*
X235013657Y-131222592D01*
X235361371Y-130875485D01*
X235549785Y-130421734D01*
X235550214Y-129930421D01*
X235362592Y-129476343D01*
X235075000Y-129188248D01*
X235075000Y-124098988D01*
X236095000Y-125118988D01*
X236095000Y-129188644D01*
X235808629Y-129474515D01*
X235620215Y-129928266D01*
X235619786Y-130419579D01*
X235807408Y-130873657D01*
X236154515Y-131221371D01*
X236608266Y-131409785D01*
X237099579Y-131410214D01*
X237553657Y-131222592D01*
X237738837Y-131037735D01*
X238711870Y-131037735D01*
X238761383Y-131263164D01*
X239226036Y-131422807D01*
X239716413Y-131392482D01*
X240028617Y-131263164D01*
X240078130Y-131037735D01*
X239395000Y-130354605D01*
X238711870Y-131037735D01*
X237738837Y-131037735D01*
X237901371Y-130875485D01*
X238089785Y-130421734D01*
X238090147Y-130006036D01*
X238147193Y-130006036D01*
X238177518Y-130496413D01*
X238306836Y-130808617D01*
X238532265Y-130858130D01*
X239215395Y-130175000D01*
X239574605Y-130175000D01*
X240257735Y-130858130D01*
X240483164Y-130808617D01*
X240616827Y-130419579D01*
X240699786Y-130419579D01*
X240887408Y-130873657D01*
X241234515Y-131221371D01*
X241688266Y-131409785D01*
X242179579Y-131410214D01*
X242633657Y-131222592D01*
X242981371Y-130875485D01*
X243169785Y-130421734D01*
X243169786Y-130419579D01*
X243239786Y-130419579D01*
X243427408Y-130873657D01*
X243774515Y-131221371D01*
X244228266Y-131409785D01*
X244719579Y-131410214D01*
X245173657Y-131222592D01*
X245521371Y-130875485D01*
X245709785Y-130421734D01*
X245710214Y-129930421D01*
X245522592Y-129476343D01*
X245175485Y-129128629D01*
X244721734Y-128940215D01*
X244230421Y-128939786D01*
X243776343Y-129127408D01*
X243428629Y-129474515D01*
X243240215Y-129928266D01*
X243239786Y-130419579D01*
X243169786Y-130419579D01*
X243170214Y-129930421D01*
X242982592Y-129476343D01*
X242635485Y-129128629D01*
X242181734Y-128940215D01*
X241690421Y-128939786D01*
X241236343Y-129127408D01*
X240888629Y-129474515D01*
X240700215Y-129928266D01*
X240699786Y-130419579D01*
X240616827Y-130419579D01*
X240642807Y-130343964D01*
X240612482Y-129853587D01*
X240483164Y-129541383D01*
X240257735Y-129491870D01*
X239574605Y-130175000D01*
X239215395Y-130175000D01*
X238532265Y-129491870D01*
X238306836Y-129541383D01*
X238147193Y-130006036D01*
X238090147Y-130006036D01*
X238090214Y-129930421D01*
X237902592Y-129476343D01*
X237738801Y-129312265D01*
X238711870Y-129312265D01*
X239395000Y-129995395D01*
X240078130Y-129312265D01*
X240028617Y-129086836D01*
X239563964Y-128927193D01*
X239073587Y-128957518D01*
X238761383Y-129086836D01*
X238711870Y-129312265D01*
X237738801Y-129312265D01*
X237615000Y-129188248D01*
X237615000Y-124804186D01*
X237604389Y-124750839D01*
X237557148Y-124513346D01*
X237392401Y-124266785D01*
X217364011Y-104238395D01*
X217364011Y-103699600D01*
X217311935Y-103437799D01*
X217306159Y-103408760D01*
X217141412Y-103162199D01*
X215546391Y-101567178D01*
X215299829Y-101402431D01*
X215008990Y-101344579D01*
X214522727Y-101344579D01*
X214508555Y-101269262D01*
X214369483Y-101053138D01*
X214299682Y-101005445D01*
X214356834Y-100968669D01*
X214501824Y-100756469D01*
X214552833Y-100504579D01*
X214552833Y-99304579D01*
X214508555Y-99069262D01*
X214369483Y-98853138D01*
X214215393Y-98747853D01*
X214215393Y-98559684D01*
X214356834Y-98468669D01*
X214501824Y-98256469D01*
X214552833Y-98004579D01*
X214552833Y-96804579D01*
X214508555Y-96569262D01*
X214369483Y-96353138D01*
X214301387Y-96306610D01*
X214443720Y-96164277D01*
X214540393Y-95930888D01*
X214540393Y-95490329D01*
X214381643Y-95331579D01*
X213582393Y-95331579D01*
X213582393Y-95351579D01*
X213328393Y-95351579D01*
X213328393Y-95331579D01*
X212529143Y-95331579D01*
X212370393Y-95490329D01*
X212370393Y-95930888D01*
X212467066Y-96164277D01*
X212608303Y-96305515D01*
X212553952Y-96340489D01*
X212408962Y-96552689D01*
X212357953Y-96804579D01*
X212357953Y-98004579D01*
X212402231Y-98239896D01*
X212541303Y-98456020D01*
X212695393Y-98561305D01*
X212695393Y-98749474D01*
X212553952Y-98840489D01*
X212408962Y-99052689D01*
X212357953Y-99304579D01*
X212357953Y-100504579D01*
X212402231Y-100739896D01*
X212541303Y-100956020D01*
X212611104Y-101003713D01*
X212553952Y-101040489D01*
X212408962Y-101252689D01*
X212357953Y-101504579D01*
X212357953Y-102704579D01*
X212376470Y-102802989D01*
X211356605Y-102802989D01*
X210120794Y-101567178D01*
X209974178Y-101469213D01*
X209936555Y-101269262D01*
X209797483Y-101053138D01*
X209727682Y-101005445D01*
X209784834Y-100968669D01*
X209929824Y-100756469D01*
X209980833Y-100504579D01*
X209980833Y-99304579D01*
X209936555Y-99069262D01*
X209797483Y-98853138D01*
X209643393Y-98747853D01*
X209643393Y-98559684D01*
X209784834Y-98468669D01*
X209929824Y-98256469D01*
X209980833Y-98004579D01*
X209980833Y-96804579D01*
X209936555Y-96569262D01*
X209797483Y-96353138D01*
X209729387Y-96306610D01*
X209871720Y-96164277D01*
X209968393Y-95930888D01*
X209968393Y-95490329D01*
X209809643Y-95331579D01*
X209010393Y-95331579D01*
X209010393Y-95351579D01*
X208756393Y-95351579D01*
X208756393Y-95331579D01*
X207957143Y-95331579D01*
X207798393Y-95490329D01*
X207798393Y-95930888D01*
X207895066Y-96164277D01*
X208036303Y-96305515D01*
X207981952Y-96340489D01*
X207836962Y-96552689D01*
X207785953Y-96804579D01*
X207785953Y-98004579D01*
X207830231Y-98239896D01*
X207969303Y-98456020D01*
X208123393Y-98561305D01*
X208123393Y-98749474D01*
X207981952Y-98840489D01*
X207836962Y-99052689D01*
X207785953Y-99304579D01*
X207785953Y-100504579D01*
X207830231Y-100739896D01*
X207969303Y-100956020D01*
X208039104Y-101003713D01*
X207981952Y-101040489D01*
X207836962Y-101252689D01*
X207785953Y-101504579D01*
X207785953Y-102704579D01*
X207830231Y-102939896D01*
X207969303Y-103156020D01*
X208111238Y-103253000D01*
X207235006Y-103253000D01*
X205548794Y-101566788D01*
X205402178Y-101468823D01*
X205364555Y-101268872D01*
X205225483Y-101052748D01*
X205155682Y-101005055D01*
X205212834Y-100968279D01*
X205357824Y-100756079D01*
X205408833Y-100504189D01*
X205408833Y-99304189D01*
X205364555Y-99068872D01*
X205225483Y-98852748D01*
X205071393Y-98747463D01*
X205071393Y-98560294D01*
X205212834Y-98469279D01*
X205357824Y-98257079D01*
X205408833Y-98005189D01*
X205408833Y-96805189D01*
X205364555Y-96569872D01*
X205225483Y-96353748D01*
X205157387Y-96307220D01*
X205299720Y-96164887D01*
X205396393Y-95931498D01*
X205396393Y-95490939D01*
X205237643Y-95332189D01*
X204438393Y-95332189D01*
X204438393Y-95352189D01*
X204184393Y-95352189D01*
X204184393Y-95332189D01*
X203385143Y-95332189D01*
X203226393Y-95490939D01*
X203226393Y-95931498D01*
X203323066Y-96164887D01*
X203464303Y-96306125D01*
X203409952Y-96341099D01*
X203264962Y-96553299D01*
X203213953Y-96805189D01*
X203213953Y-98005189D01*
X203258231Y-98240506D01*
X203397303Y-98456630D01*
X203551393Y-98561915D01*
X203551393Y-98749084D01*
X203409952Y-98840099D01*
X203264962Y-99052299D01*
X203213953Y-99304189D01*
X203213953Y-100504189D01*
X203258231Y-100739506D01*
X203397303Y-100955630D01*
X203467104Y-101003323D01*
X203409952Y-101040099D01*
X203264962Y-101252299D01*
X203213953Y-101504189D01*
X203213953Y-102704189D01*
X203258231Y-102939506D01*
X203397303Y-103155630D01*
X203609503Y-103300620D01*
X203861393Y-103351629D01*
X204761393Y-103351629D01*
X204996710Y-103307351D01*
X205083747Y-103251345D01*
X206382803Y-104550401D01*
X206629364Y-104715148D01*
X206677618Y-104724746D01*
X206920204Y-104773000D01*
X213510960Y-104773000D01*
X214117970Y-105380010D01*
X213839697Y-105494990D01*
X213446371Y-105887630D01*
X213233243Y-106400900D01*
X213232758Y-106956661D01*
X213444990Y-107470303D01*
X213837630Y-107863629D01*
X214045512Y-107949949D01*
X213839697Y-108034990D01*
X213446371Y-108427630D01*
X213233243Y-108940900D01*
X213232758Y-109496661D01*
X213444990Y-110010303D01*
X213837630Y-110403629D01*
X214045512Y-110489949D01*
X213839697Y-110574990D01*
X213446371Y-110967630D01*
X213233243Y-111480900D01*
X213232758Y-112036661D01*
X213444990Y-112550303D01*
X213837630Y-112943629D01*
X214350900Y-113156757D01*
X214906661Y-113157242D01*
X215420303Y-112945010D01*
X215813629Y-112552370D01*
X216026757Y-112039100D01*
X216027242Y-111483339D01*
X215815010Y-110969697D01*
X215422370Y-110576371D01*
X215214488Y-110490051D01*
X215420303Y-110405010D01*
X215813629Y-110012370D01*
X216026757Y-109499100D01*
X216027242Y-108943339D01*
X215815010Y-108429697D01*
X215422370Y-108036371D01*
X215214488Y-107950051D01*
X215420303Y-107865010D01*
X215813629Y-107472370D01*
X215930023Y-107192063D01*
X230947055Y-122209095D01*
X230916857Y-122221603D01*
X230847392Y-122463787D01*
X231648000Y-123264395D01*
X231662143Y-123250253D01*
X231841748Y-123429858D01*
X231827605Y-123444000D01*
X232628213Y-124244608D01*
X232870397Y-124175143D01*
X232881627Y-124143667D01*
X232920000Y-124182040D01*
X232920000Y-127955198D01*
X231935059Y-128940139D01*
X231530421Y-128939786D01*
X231257001Y-129052761D01*
X231257001Y-124787749D01*
X231440302Y-124853144D01*
X231995368Y-124825362D01*
X232379143Y-124666397D01*
X232448608Y-124424213D01*
X231648000Y-123623605D01*
X231633858Y-123637748D01*
X231454253Y-123458143D01*
X231468395Y-123444000D01*
X230667787Y-122643392D01*
X230425603Y-122712857D01*
X230375491Y-122853318D01*
X230293010Y-122653697D01*
X229900370Y-122260371D01*
X229387100Y-122047243D01*
X228831339Y-122046758D01*
X228317697Y-122258990D01*
X227924371Y-122651630D01*
X227711243Y-123164900D01*
X227710758Y-123720661D01*
X227922990Y-124234303D01*
X228315630Y-124627629D01*
X228828900Y-124840757D01*
X229191976Y-124841074D01*
X229400001Y-125049099D01*
X229400001Y-126713459D01*
X229138370Y-126451371D01*
X228625100Y-126238243D01*
X228069339Y-126237758D01*
X227555697Y-126449990D01*
X227162371Y-126842630D01*
X227076051Y-127050512D01*
X226991010Y-126844697D01*
X226598370Y-126451371D01*
X226085100Y-126238243D01*
X225529339Y-126237758D01*
X225015697Y-126449990D01*
X224622371Y-126842630D01*
X224536051Y-127050512D01*
X224451010Y-126844697D01*
X224058370Y-126451371D01*
X223545100Y-126238243D01*
X222989339Y-126237758D01*
X222475697Y-126449990D01*
X222082371Y-126842630D01*
X221996051Y-127050512D01*
X221911010Y-126844697D01*
X221518370Y-126451371D01*
X221005100Y-126238243D01*
X220449339Y-126237758D01*
X219935697Y-126449990D01*
X219542371Y-126842630D01*
X219456051Y-127050512D01*
X219371010Y-126844697D01*
X219011500Y-126484559D01*
X219011500Y-125476000D01*
X218948663Y-125160095D01*
X218769717Y-124892283D01*
X218769714Y-124892281D01*
X216026800Y-122149367D01*
X216027242Y-121643339D01*
X215815010Y-121129697D01*
X215422370Y-120736371D01*
X215214488Y-120650051D01*
X215420303Y-120565010D01*
X215813629Y-120172370D01*
X216026757Y-119659100D01*
X216027242Y-119103339D01*
X215815010Y-118589697D01*
X215422370Y-118196371D01*
X215230273Y-118116605D01*
X215361143Y-118062397D01*
X215430608Y-117820213D01*
X214630000Y-117019605D01*
X213829392Y-117820213D01*
X213898857Y-118062397D01*
X214039318Y-118112509D01*
X213839697Y-118194990D01*
X213446371Y-118587630D01*
X213233243Y-119100900D01*
X213232799Y-119609768D01*
X212893782Y-119948784D01*
X212714836Y-120216595D01*
X212667245Y-120455853D01*
X212651999Y-120532501D01*
X212651999Y-122473201D01*
X212714836Y-122789107D01*
X212893782Y-123056918D01*
X214820500Y-124983635D01*
X214820500Y-126485126D01*
X214462371Y-126842630D01*
X214376051Y-127050512D01*
X214291010Y-126844697D01*
X213898370Y-126451371D01*
X213385100Y-126238243D01*
X212829339Y-126237758D01*
X212315697Y-126449990D01*
X211922371Y-126842630D01*
X211836051Y-127050512D01*
X211751010Y-126844697D01*
X211358370Y-126451371D01*
X210845100Y-126238243D01*
X210289339Y-126237758D01*
X209775697Y-126449990D01*
X209382371Y-126842630D01*
X209296051Y-127050512D01*
X209211010Y-126844697D01*
X208818370Y-126451371D01*
X208305100Y-126238243D01*
X207749339Y-126237758D01*
X207235697Y-126449990D01*
X206842371Y-126842630D01*
X206756051Y-127050512D01*
X206671010Y-126844697D01*
X206278370Y-126451371D01*
X205765100Y-126238243D01*
X205209339Y-126237758D01*
X204695697Y-126449990D01*
X204302371Y-126842630D01*
X204216051Y-127050512D01*
X204131010Y-126844697D01*
X203738370Y-126451371D01*
X203225100Y-126238243D01*
X202716233Y-126237799D01*
X200469500Y-123991066D01*
X200469500Y-123386113D01*
X200578838Y-123122799D01*
X200579162Y-122750833D01*
X200437117Y-122407057D01*
X200174327Y-122143808D01*
X199830799Y-122001162D01*
X199458833Y-122000838D01*
X199115057Y-122142883D01*
X198851808Y-122405673D01*
X198709162Y-122749201D01*
X198708838Y-123121167D01*
X198818500Y-123386570D01*
X198818500Y-124333000D01*
X198881337Y-124648906D01*
X199060283Y-124916717D01*
X200381544Y-126237978D01*
X200129339Y-126237758D01*
X199615697Y-126449990D01*
X199222371Y-126842630D01*
X199009243Y-127355900D01*
X199008758Y-127911661D01*
X199220990Y-128425303D01*
X199613630Y-128818629D01*
X200126900Y-129031757D01*
X200682661Y-129032242D01*
X201196303Y-128820010D01*
X201589629Y-128427370D01*
X201675949Y-128219488D01*
X201760990Y-128425303D01*
X202153630Y-128818629D01*
X202666900Y-129031757D01*
X203222661Y-129032242D01*
X203736303Y-128820010D01*
X204129629Y-128427370D01*
X204215949Y-128219488D01*
X204300990Y-128425303D01*
X204693630Y-128818629D01*
X205206900Y-129031757D01*
X205762661Y-129032242D01*
X206276303Y-128820010D01*
X206669629Y-128427370D01*
X206755949Y-128219488D01*
X206840990Y-128425303D01*
X207233630Y-128818629D01*
X207746900Y-129031757D01*
X208302661Y-129032242D01*
X208816303Y-128820010D01*
X209209629Y-128427370D01*
X209295949Y-128219488D01*
X209380990Y-128425303D01*
X209773630Y-128818629D01*
X210286900Y-129031757D01*
X210842661Y-129032242D01*
X211356303Y-128820010D01*
X211749629Y-128427370D01*
X211835949Y-128219488D01*
X211920990Y-128425303D01*
X212313630Y-128818629D01*
X212826900Y-129031757D01*
X213382661Y-129032242D01*
X213896303Y-128820010D01*
X214289629Y-128427370D01*
X214375949Y-128219488D01*
X214460990Y-128425303D01*
X214853630Y-128818629D01*
X215366900Y-129031757D01*
X215922661Y-129032242D01*
X216436303Y-128820010D01*
X216829629Y-128427370D01*
X216915949Y-128219488D01*
X217000990Y-128425303D01*
X217393630Y-128818629D01*
X217906900Y-129031757D01*
X218462661Y-129032242D01*
X218976303Y-128820010D01*
X219369629Y-128427370D01*
X219455949Y-128219488D01*
X219540990Y-128425303D01*
X219933630Y-128818629D01*
X220446900Y-129031757D01*
X221002661Y-129032242D01*
X221516303Y-128820010D01*
X221909629Y-128427370D01*
X221995949Y-128219488D01*
X222080990Y-128425303D01*
X222473630Y-128818629D01*
X222986900Y-129031757D01*
X223542661Y-129032242D01*
X224056303Y-128820010D01*
X224449629Y-128427370D01*
X224535949Y-128219488D01*
X224620990Y-128425303D01*
X225013630Y-128818629D01*
X225526900Y-129031757D01*
X226082661Y-129032242D01*
X226596303Y-128820010D01*
X226989629Y-128427370D01*
X227075949Y-128219488D01*
X227160990Y-128425303D01*
X227553630Y-128818629D01*
X228066900Y-129031757D01*
X228622661Y-129032242D01*
X229136303Y-128820010D01*
X229400001Y-128556772D01*
X229400001Y-128940144D01*
X228990421Y-128939786D01*
X228536343Y-129127408D01*
X228188629Y-129474515D01*
X228000215Y-129928266D01*
X227999786Y-130419579D01*
X228187408Y-130873657D01*
X228534515Y-131221371D01*
X228988266Y-131409785D01*
X229400001Y-131410145D01*
X229400001Y-147033459D01*
X229138370Y-146771371D01*
X228625100Y-146558243D01*
X228069339Y-146557758D01*
X227555697Y-146769990D01*
X227162371Y-147162630D01*
X227076051Y-147370512D01*
X226991010Y-147164697D01*
X226598370Y-146771371D01*
X226085100Y-146558243D01*
X225529339Y-146557758D01*
X225015697Y-146769990D01*
X224622371Y-147162630D01*
X224536051Y-147370512D01*
X224451010Y-147164697D01*
X224058370Y-146771371D01*
X223545100Y-146558243D01*
X222989339Y-146557758D01*
X222475697Y-146769990D01*
X222082371Y-147162630D01*
X221996051Y-147370512D01*
X221911010Y-147164697D01*
X221518370Y-146771371D01*
X221005100Y-146558243D01*
X220449339Y-146557758D01*
X219935697Y-146769990D01*
X219542371Y-147162630D01*
X219462605Y-147354727D01*
X219408397Y-147223857D01*
X219166213Y-147154392D01*
X218365605Y-147955000D01*
X219166213Y-148755608D01*
X219408397Y-148686143D01*
X219458509Y-148545682D01*
X219540990Y-148745303D01*
X219933630Y-149138629D01*
X220446900Y-149351757D01*
X221002661Y-149352242D01*
X221516303Y-149140010D01*
X221909629Y-148747370D01*
X221995949Y-148539488D01*
X222080990Y-148745303D01*
X222473630Y-149138629D01*
X222986900Y-149351757D01*
X223542661Y-149352242D01*
X224056303Y-149140010D01*
X224449629Y-148747370D01*
X224535949Y-148539488D01*
X224620990Y-148745303D01*
X225013630Y-149138629D01*
X225526900Y-149351757D01*
X226082661Y-149352242D01*
X226596303Y-149140010D01*
X226989629Y-148747370D01*
X227075949Y-148539488D01*
X227160990Y-148745303D01*
X227553630Y-149138629D01*
X228066900Y-149351757D01*
X228622661Y-149352242D01*
X229136303Y-149140010D01*
X229400001Y-148876772D01*
X229400001Y-149048496D01*
X229400000Y-149048501D01*
X229442106Y-149260180D01*
X228990421Y-149259786D01*
X228536343Y-149447408D01*
X228188629Y-149794515D01*
X228000215Y-150248266D01*
X227999786Y-150739579D01*
X228056981Y-150878000D01*
X227873202Y-150878000D01*
X227929785Y-150741734D01*
X227930214Y-150250421D01*
X227742592Y-149796343D01*
X227395485Y-149448629D01*
X226941734Y-149260215D01*
X226450421Y-149259786D01*
X225996343Y-149447408D01*
X225648629Y-149794515D01*
X225460215Y-150248266D01*
X225459786Y-150739579D01*
X225516981Y-150878000D01*
X225333202Y-150878000D01*
X225389785Y-150741734D01*
X225390214Y-150250421D01*
X225202592Y-149796343D01*
X224855485Y-149448629D01*
X224401734Y-149260215D01*
X223910421Y-149259786D01*
X223456343Y-149447408D01*
X223108629Y-149794515D01*
X222920215Y-150248266D01*
X222919786Y-150739579D01*
X222976981Y-150878000D01*
X222793202Y-150878000D01*
X222849785Y-150741734D01*
X222850214Y-150250421D01*
X222662592Y-149796343D01*
X222315485Y-149448629D01*
X221861734Y-149260215D01*
X221370421Y-149259786D01*
X220916343Y-149447408D01*
X220568629Y-149794515D01*
X220380215Y-150248266D01*
X220379786Y-150739579D01*
X220436981Y-150878000D01*
X220253202Y-150878000D01*
X220309785Y-150741734D01*
X220310214Y-150250421D01*
X220122592Y-149796343D01*
X219775485Y-149448629D01*
X219321734Y-149260215D01*
X218830421Y-149259786D01*
X218376343Y-149447408D01*
X218028629Y-149794515D01*
X217840215Y-150248266D01*
X217839786Y-150739579D01*
X217896981Y-150878000D01*
X217713202Y-150878000D01*
X217769785Y-150741734D01*
X217770214Y-150250421D01*
X217582592Y-149796343D01*
X217235485Y-149448629D01*
X216781734Y-149260215D01*
X216374662Y-149259860D01*
X216307877Y-149193075D01*
X216436303Y-149140010D01*
X216641457Y-148935213D01*
X217385392Y-148935213D01*
X217454857Y-149177397D01*
X217978302Y-149364144D01*
X218533368Y-149336362D01*
X218917143Y-149177397D01*
X218986608Y-148935213D01*
X218186000Y-148134605D01*
X217385392Y-148935213D01*
X216641457Y-148935213D01*
X216829629Y-148747370D01*
X216909395Y-148555273D01*
X216963603Y-148686143D01*
X217205787Y-148755608D01*
X218006395Y-147955000D01*
X217205787Y-147154392D01*
X216963603Y-147223857D01*
X216913491Y-147364318D01*
X216831010Y-147164697D01*
X216641432Y-146974787D01*
X217385392Y-146974787D01*
X218186000Y-147775395D01*
X218986608Y-146974787D01*
X218917143Y-146732603D01*
X218393698Y-146545856D01*
X217838632Y-146573638D01*
X217454857Y-146732603D01*
X217385392Y-146974787D01*
X216641432Y-146974787D01*
X216438370Y-146771371D01*
X215925100Y-146558243D01*
X215369339Y-146557758D01*
X214855697Y-146769990D01*
X214462371Y-147162630D01*
X214382605Y-147354727D01*
X214328397Y-147223857D01*
X214086213Y-147154392D01*
X213285605Y-147955000D01*
X213299748Y-147969143D01*
X213120143Y-148148748D01*
X213106000Y-148134605D01*
X213091858Y-148148748D01*
X212912253Y-147969143D01*
X212926395Y-147955000D01*
X212125787Y-147154392D01*
X211883603Y-147223857D01*
X211833491Y-147364318D01*
X211751010Y-147164697D01*
X211561432Y-146974787D01*
X212305392Y-146974787D01*
X213106000Y-147775395D01*
X213906608Y-146974787D01*
X213837143Y-146732603D01*
X213313698Y-146545856D01*
X212758632Y-146573638D01*
X212374857Y-146732603D01*
X212305392Y-146974787D01*
X211561432Y-146974787D01*
X211358370Y-146771371D01*
X210845100Y-146558243D01*
X210289339Y-146557758D01*
X209775697Y-146769990D01*
X209382371Y-147162630D01*
X209296051Y-147370512D01*
X209211010Y-147164697D01*
X208818370Y-146771371D01*
X208305100Y-146558243D01*
X207749339Y-146557758D01*
X207235697Y-146769990D01*
X206842371Y-147162630D01*
X206756051Y-147370512D01*
X206671010Y-147164697D01*
X206278370Y-146771371D01*
X205765100Y-146558243D01*
X205209339Y-146557758D01*
X204695697Y-146769990D01*
X204302371Y-147162630D01*
X204216051Y-147370512D01*
X204131010Y-147164697D01*
X203738370Y-146771371D01*
X203706000Y-146757930D01*
X203706000Y-146745802D01*
X206768680Y-143683122D01*
X206814167Y-143683162D01*
X207157943Y-143541117D01*
X207421192Y-143278327D01*
X207563838Y-142934799D01*
X207564162Y-142562833D01*
X207422117Y-142219057D01*
X207159327Y-141955808D01*
X206815799Y-141813162D01*
X206443833Y-141812838D01*
X206100057Y-141954883D01*
X205836808Y-142217673D01*
X205694162Y-142561201D01*
X205694121Y-142608077D01*
X202408599Y-145893599D01*
X202243852Y-146140161D01*
X202186000Y-146431000D01*
X202186000Y-146757469D01*
X202155697Y-146769990D01*
X201762371Y-147162630D01*
X201676051Y-147370512D01*
X201591010Y-147164697D01*
X201198370Y-146771371D01*
X200685100Y-146558243D01*
X200176232Y-146557799D01*
X194754500Y-141136066D01*
X194754500Y-130419579D01*
X207679786Y-130419579D01*
X207867408Y-130873657D01*
X208214515Y-131221371D01*
X208668266Y-131409785D01*
X209159579Y-131410214D01*
X209613657Y-131222592D01*
X209961371Y-130875485D01*
X210149785Y-130421734D01*
X210149786Y-130419579D01*
X210219786Y-130419579D01*
X210407408Y-130873657D01*
X210754515Y-131221371D01*
X211208266Y-131409785D01*
X211699579Y-131410214D01*
X212153657Y-131222592D01*
X212501371Y-130875485D01*
X212689785Y-130421734D01*
X212689786Y-130419579D01*
X212759786Y-130419579D01*
X212947408Y-130873657D01*
X213294515Y-131221371D01*
X213748266Y-131409785D01*
X214239579Y-131410214D01*
X214693657Y-131222592D01*
X215041371Y-130875485D01*
X215229785Y-130421734D01*
X215229786Y-130419579D01*
X215299786Y-130419579D01*
X215487408Y-130873657D01*
X215834515Y-131221371D01*
X216288266Y-131409785D01*
X216779579Y-131410214D01*
X217233657Y-131222592D01*
X217581371Y-130875485D01*
X217769785Y-130421734D01*
X217769786Y-130419579D01*
X217839786Y-130419579D01*
X218027408Y-130873657D01*
X218374515Y-131221371D01*
X218828266Y-131409785D01*
X219319579Y-131410214D01*
X219773657Y-131222592D01*
X220121371Y-130875485D01*
X220309785Y-130421734D01*
X220309786Y-130419579D01*
X220379786Y-130419579D01*
X220567408Y-130873657D01*
X220914515Y-131221371D01*
X221368266Y-131409785D01*
X221859579Y-131410214D01*
X222313657Y-131222592D01*
X222661371Y-130875485D01*
X222849785Y-130421734D01*
X222849786Y-130419579D01*
X222919786Y-130419579D01*
X223107408Y-130873657D01*
X223454515Y-131221371D01*
X223908266Y-131409785D01*
X224399579Y-131410214D01*
X224853657Y-131222592D01*
X225201371Y-130875485D01*
X225389785Y-130421734D01*
X225389786Y-130419579D01*
X225459786Y-130419579D01*
X225647408Y-130873657D01*
X225994515Y-131221371D01*
X226448266Y-131409785D01*
X226939579Y-131410214D01*
X227393657Y-131222592D01*
X227741371Y-130875485D01*
X227929785Y-130421734D01*
X227930214Y-129930421D01*
X227742592Y-129476343D01*
X227395485Y-129128629D01*
X226941734Y-128940215D01*
X226450421Y-128939786D01*
X225996343Y-129127408D01*
X225648629Y-129474515D01*
X225460215Y-129928266D01*
X225459786Y-130419579D01*
X225389786Y-130419579D01*
X225390214Y-129930421D01*
X225202592Y-129476343D01*
X224855485Y-129128629D01*
X224401734Y-128940215D01*
X223910421Y-128939786D01*
X223456343Y-129127408D01*
X223108629Y-129474515D01*
X222920215Y-129928266D01*
X222919786Y-130419579D01*
X222849786Y-130419579D01*
X222850214Y-129930421D01*
X222662592Y-129476343D01*
X222315485Y-129128629D01*
X221861734Y-128940215D01*
X221370421Y-128939786D01*
X220916343Y-129127408D01*
X220568629Y-129474515D01*
X220380215Y-129928266D01*
X220379786Y-130419579D01*
X220309786Y-130419579D01*
X220310214Y-129930421D01*
X220122592Y-129476343D01*
X219775485Y-129128629D01*
X219321734Y-128940215D01*
X218830421Y-128939786D01*
X218376343Y-129127408D01*
X218028629Y-129474515D01*
X217840215Y-129928266D01*
X217839786Y-130419579D01*
X217769786Y-130419579D01*
X217770214Y-129930421D01*
X217582592Y-129476343D01*
X217235485Y-129128629D01*
X216781734Y-128940215D01*
X216290421Y-128939786D01*
X215836343Y-129127408D01*
X215488629Y-129474515D01*
X215300215Y-129928266D01*
X215299786Y-130419579D01*
X215229786Y-130419579D01*
X215230214Y-129930421D01*
X215042592Y-129476343D01*
X214695485Y-129128629D01*
X214241734Y-128940215D01*
X213750421Y-128939786D01*
X213296343Y-129127408D01*
X212948629Y-129474515D01*
X212760215Y-129928266D01*
X212759786Y-130419579D01*
X212689786Y-130419579D01*
X212690214Y-129930421D01*
X212502592Y-129476343D01*
X212155485Y-129128629D01*
X211701734Y-128940215D01*
X211210421Y-128939786D01*
X210756343Y-129127408D01*
X210408629Y-129474515D01*
X210220215Y-129928266D01*
X210219786Y-130419579D01*
X210149786Y-130419579D01*
X210150214Y-129930421D01*
X209962592Y-129476343D01*
X209615485Y-129128629D01*
X209161734Y-128940215D01*
X208670421Y-128939786D01*
X208216343Y-129127408D01*
X207868629Y-129474515D01*
X207680215Y-129928266D01*
X207679786Y-130419579D01*
X194754500Y-130419579D01*
X194754500Y-120899302D01*
X195465817Y-121610619D01*
X195453243Y-121640900D01*
X195452758Y-122196661D01*
X195664990Y-122710303D01*
X196057630Y-123103629D01*
X196570900Y-123316757D01*
X197126661Y-123317242D01*
X197640303Y-123105010D01*
X198033629Y-122712370D01*
X198246757Y-122199100D01*
X198247242Y-121643339D01*
X198035010Y-121129697D01*
X197642370Y-120736371D01*
X197434488Y-120650051D01*
X197640303Y-120565010D01*
X198033629Y-120172370D01*
X198246757Y-119659100D01*
X198247201Y-119150232D01*
X198586215Y-118811218D01*
X198586218Y-118811216D01*
X198765164Y-118543404D01*
X198828002Y-118227499D01*
X198828001Y-118227494D01*
X198828001Y-116632302D01*
X213220856Y-116632302D01*
X213248638Y-117187368D01*
X213407603Y-117571143D01*
X213649787Y-117640608D01*
X214450395Y-116840000D01*
X214809605Y-116840000D01*
X215610213Y-117640608D01*
X215852397Y-117571143D01*
X216039144Y-117047698D01*
X216011362Y-116492632D01*
X215852397Y-116108857D01*
X215610213Y-116039392D01*
X214809605Y-116840000D01*
X214450395Y-116840000D01*
X213649787Y-116039392D01*
X213407603Y-116108857D01*
X213220856Y-116632302D01*
X198828001Y-116632302D01*
X198828001Y-115859787D01*
X213829392Y-115859787D01*
X214630000Y-116660395D01*
X215430608Y-115859787D01*
X215361143Y-115617603D01*
X214837698Y-115430856D01*
X214282632Y-115458638D01*
X213898857Y-115617603D01*
X213829392Y-115859787D01*
X198828001Y-115859787D01*
X198828001Y-101736506D01*
X198828002Y-101736501D01*
X198765164Y-101420596D01*
X198714371Y-101344579D01*
X198586218Y-101152784D01*
X198586215Y-101152782D01*
X194449994Y-97016560D01*
X194341117Y-96753057D01*
X194078327Y-96489808D01*
X193734799Y-96347162D01*
X193682998Y-96347117D01*
X193682998Y-94478880D01*
X203226393Y-94478880D01*
X203226393Y-94919439D01*
X203385143Y-95078189D01*
X204184393Y-95078189D01*
X204184393Y-94128939D01*
X204438393Y-94128939D01*
X204438393Y-95078189D01*
X205237643Y-95078189D01*
X205396393Y-94919439D01*
X205396393Y-94478880D01*
X205396141Y-94478270D01*
X207798393Y-94478270D01*
X207798393Y-94918829D01*
X207957143Y-95077579D01*
X208756393Y-95077579D01*
X208756393Y-94128329D01*
X209010393Y-94128329D01*
X209010393Y-95077579D01*
X209809643Y-95077579D01*
X209968393Y-94918829D01*
X209968393Y-94478270D01*
X212370393Y-94478270D01*
X212370393Y-94918829D01*
X212529143Y-95077579D01*
X213328393Y-95077579D01*
X213328393Y-94128329D01*
X213582393Y-94128329D01*
X213582393Y-95077579D01*
X214381643Y-95077579D01*
X214540393Y-94918829D01*
X214540393Y-94478270D01*
X214443720Y-94244881D01*
X214265092Y-94066252D01*
X214031703Y-93969579D01*
X213741143Y-93969579D01*
X213582393Y-94128329D01*
X213328393Y-94128329D01*
X213169643Y-93969579D01*
X212879083Y-93969579D01*
X212645694Y-94066252D01*
X212467066Y-94244881D01*
X212370393Y-94478270D01*
X209968393Y-94478270D01*
X209871720Y-94244881D01*
X209693092Y-94066252D01*
X209459703Y-93969579D01*
X209169143Y-93969579D01*
X209010393Y-94128329D01*
X208756393Y-94128329D01*
X208597643Y-93969579D01*
X208307083Y-93969579D01*
X208073694Y-94066252D01*
X207895066Y-94244881D01*
X207798393Y-94478270D01*
X205396141Y-94478270D01*
X205299720Y-94245491D01*
X205121092Y-94066862D01*
X204887703Y-93970189D01*
X204597143Y-93970189D01*
X204438393Y-94128939D01*
X204184393Y-94128939D01*
X204025643Y-93970189D01*
X203735083Y-93970189D01*
X203501694Y-94066862D01*
X203323066Y-94245491D01*
X203226393Y-94478880D01*
X193682998Y-94478880D01*
X193682998Y-87407750D01*
X204509000Y-87407750D01*
X204509000Y-88098309D01*
X204605673Y-88331698D01*
X204784301Y-88510327D01*
X205017690Y-88607000D01*
X205708250Y-88607000D01*
X205867000Y-88448250D01*
X205867000Y-87249000D01*
X204667750Y-87249000D01*
X204509000Y-87407750D01*
X193682998Y-87407750D01*
X193682998Y-86145691D01*
X204509000Y-86145691D01*
X204509000Y-86836250D01*
X204667750Y-86995000D01*
X205867000Y-86995000D01*
X205867000Y-85795750D01*
X205708250Y-85637000D01*
X205017690Y-85637000D01*
X204784301Y-85733673D01*
X204605673Y-85912302D01*
X204509000Y-86145691D01*
X193682998Y-86145691D01*
X193682998Y-84907503D01*
X193682999Y-84907498D01*
X193620161Y-84591593D01*
X193441215Y-84323781D01*
X193441212Y-84323779D01*
X192619933Y-83502500D01*
X206287066Y-83502500D01*
X208415954Y-85631388D01*
X207965715Y-85720946D01*
X207483946Y-86042853D01*
X207454597Y-86086777D01*
X207382327Y-85912302D01*
X207203699Y-85733673D01*
X206970310Y-85637000D01*
X206279750Y-85637000D01*
X206121000Y-85795750D01*
X206121000Y-86995000D01*
X206141000Y-86995000D01*
X206141000Y-87249000D01*
X206121000Y-87249000D01*
X206121000Y-88448250D01*
X206279750Y-88607000D01*
X206970310Y-88607000D01*
X207203699Y-88510327D01*
X207382327Y-88331698D01*
X207454597Y-88157223D01*
X207483946Y-88201147D01*
X207965715Y-88523054D01*
X208534000Y-88636093D01*
X209102285Y-88523054D01*
X209584054Y-88201147D01*
X209804000Y-87871974D01*
X210023946Y-88201147D01*
X210505715Y-88523054D01*
X211074000Y-88636093D01*
X211642285Y-88523054D01*
X212124054Y-88201147D01*
X212445961Y-87719378D01*
X212559000Y-87151093D01*
X212559000Y-87092907D01*
X212445961Y-86524622D01*
X212124054Y-86042853D01*
X212002500Y-85961633D01*
X212002500Y-82804000D01*
X211931822Y-82448678D01*
X211730549Y-82147451D01*
X211730546Y-82147449D01*
X209462500Y-79879402D01*
X209462500Y-79646367D01*
X209584054Y-79565147D01*
X209804000Y-79235974D01*
X210023946Y-79565147D01*
X210505715Y-79887054D01*
X211074000Y-80000093D01*
X211642285Y-79887054D01*
X212124054Y-79565147D01*
X212344000Y-79235974D01*
X212563946Y-79565147D01*
X212854678Y-79759407D01*
X212911852Y-80046839D01*
X213076599Y-80293401D01*
X216632599Y-83849401D01*
X216879160Y-84014148D01*
X216922235Y-84022716D01*
X217170000Y-84072000D01*
X233832400Y-84072000D01*
X234123239Y-84014148D01*
X234369801Y-83849401D01*
X235585536Y-82633666D01*
X235966000Y-82709345D01*
X236539489Y-82595271D01*
X237025670Y-82270415D01*
X237236000Y-81955634D01*
X237446330Y-82270415D01*
X237790298Y-82500247D01*
X235581402Y-84709143D01*
X231354362Y-84709143D01*
X231354357Y-84709142D01*
X230999036Y-84779820D01*
X230999034Y-84779821D01*
X230999035Y-84779821D01*
X230697808Y-84981094D01*
X230697806Y-84981097D01*
X229191830Y-86487073D01*
X228831339Y-86486758D01*
X228317697Y-86698990D01*
X227924371Y-87091630D01*
X227711243Y-87604900D01*
X227710758Y-88160661D01*
X227922990Y-88674303D01*
X228315630Y-89067629D01*
X228828900Y-89280757D01*
X229384661Y-89281242D01*
X229898303Y-89069010D01*
X230291629Y-88676370D01*
X230377949Y-88468488D01*
X230462990Y-88674303D01*
X230855630Y-89067629D01*
X231368900Y-89280757D01*
X231924661Y-89281242D01*
X232438303Y-89069010D01*
X232695261Y-88812500D01*
X234832639Y-88812500D01*
X234832644Y-88812501D01*
X235129013Y-88753548D01*
X235187966Y-88741822D01*
X235489193Y-88540549D01*
X243153146Y-80876595D01*
X243153149Y-80876593D01*
X243354422Y-80575366D01*
X243354423Y-80575365D01*
X243425101Y-80220044D01*
X243425100Y-80220039D01*
X243425100Y-77549000D01*
X243354422Y-77193678D01*
X243153149Y-76892451D01*
X242519190Y-76258492D01*
X242544600Y-76130745D01*
X242544600Y-75761255D01*
X242430526Y-75187766D01*
X242105670Y-74701585D01*
X241619489Y-74376729D01*
X241046000Y-74262655D01*
X240472511Y-74376729D01*
X239986330Y-74701585D01*
X239661474Y-75187766D01*
X239547400Y-75761255D01*
X239547400Y-76130745D01*
X239661474Y-76704234D01*
X239986330Y-77190415D01*
X240024621Y-77216000D01*
X239986330Y-77241585D01*
X239661474Y-77727766D01*
X239547400Y-78301255D01*
X239547400Y-78670745D01*
X239661474Y-79244234D01*
X239986330Y-79730415D01*
X240117500Y-79818060D01*
X240117500Y-80173045D01*
X239912468Y-80378077D01*
X239890526Y-80267766D01*
X239565670Y-79781585D01*
X239225017Y-79553968D01*
X239208148Y-79469161D01*
X239043401Y-79222599D01*
X237769401Y-77948599D01*
X237522839Y-77783852D01*
X237232000Y-77726000D01*
X217417301Y-77726000D01*
X217204054Y-77406853D01*
X216855915Y-77174235D01*
X216855915Y-75450446D01*
X217145969Y-75256639D01*
X217467876Y-74774870D01*
X217580915Y-74206585D01*
X217580915Y-74148399D01*
X217467876Y-73580114D01*
X217145969Y-73098345D01*
X216664200Y-72776438D01*
X216095915Y-72663399D01*
X215527630Y-72776438D01*
X215045861Y-73098345D01*
X214825915Y-73427518D01*
X214605969Y-73098345D01*
X214124200Y-72776438D01*
X213555915Y-72663399D01*
X212987630Y-72776438D01*
X212505861Y-73098345D01*
X212285915Y-73427518D01*
X212065969Y-73098345D01*
X211584200Y-72776438D01*
X211015915Y-72663399D01*
X210447630Y-72776438D01*
X209965861Y-73098345D01*
X209745915Y-73427518D01*
X209525969Y-73098345D01*
X209044200Y-72776438D01*
X208475915Y-72663399D01*
X207907630Y-72776438D01*
X207425861Y-73098345D01*
X207396512Y-73142269D01*
X207324242Y-72967794D01*
X207145614Y-72789165D01*
X206912225Y-72692492D01*
X206221665Y-72692492D01*
X206062915Y-72851242D01*
X206062915Y-74050492D01*
X206082915Y-74050492D01*
X206082915Y-74304492D01*
X206062915Y-74304492D01*
X206062915Y-75503742D01*
X206221665Y-75662492D01*
X206912225Y-75662492D01*
X207145614Y-75565819D01*
X207324242Y-75387190D01*
X207396512Y-75212715D01*
X207425861Y-75256639D01*
X207547415Y-75337859D01*
X207547415Y-77364444D01*
X207483946Y-77406853D01*
X207454597Y-77450777D01*
X207382327Y-77276302D01*
X207203699Y-77097673D01*
X206970310Y-77001000D01*
X206279750Y-77001000D01*
X206121000Y-77159750D01*
X206121000Y-78359000D01*
X206141000Y-78359000D01*
X206141000Y-78613000D01*
X206121000Y-78613000D01*
X206121000Y-79812250D01*
X206279750Y-79971000D01*
X206970310Y-79971000D01*
X207203699Y-79874327D01*
X207382327Y-79695698D01*
X207454597Y-79521223D01*
X207483946Y-79565147D01*
X207605500Y-79646367D01*
X207605500Y-80263995D01*
X207605499Y-80264000D01*
X207663909Y-80557643D01*
X207676178Y-80619322D01*
X207753579Y-80735161D01*
X207877451Y-80920549D01*
X210145500Y-83188597D01*
X210145500Y-85026067D01*
X207212717Y-82093283D01*
X206944906Y-81914337D01*
X206629000Y-81851500D01*
X191776874Y-81851500D01*
X191419370Y-81493371D01*
X191211488Y-81407051D01*
X191417303Y-81322010D01*
X191810629Y-80929370D01*
X192023757Y-80416100D01*
X192024242Y-79860339D01*
X191812010Y-79346697D01*
X191419370Y-78953371D01*
X191211488Y-78867051D01*
X191417303Y-78782010D01*
X191427580Y-78771750D01*
X204509000Y-78771750D01*
X204509000Y-79462309D01*
X204605673Y-79695698D01*
X204784301Y-79874327D01*
X205017690Y-79971000D01*
X205708250Y-79971000D01*
X205867000Y-79812250D01*
X205867000Y-78613000D01*
X204667750Y-78613000D01*
X204509000Y-78771750D01*
X191427580Y-78771750D01*
X191810629Y-78389370D01*
X192023757Y-77876100D01*
X192024076Y-77509691D01*
X204509000Y-77509691D01*
X204509000Y-78200250D01*
X204667750Y-78359000D01*
X205867000Y-78359000D01*
X205867000Y-77159750D01*
X205708250Y-77001000D01*
X205017690Y-77001000D01*
X204784301Y-77097673D01*
X204605673Y-77276302D01*
X204509000Y-77509691D01*
X192024076Y-77509691D01*
X192024242Y-77320339D01*
X191812010Y-76806697D01*
X191419370Y-76413371D01*
X190906100Y-76200243D01*
X190350339Y-76199758D01*
X189836697Y-76411990D01*
X189443371Y-76804630D01*
X189230243Y-77317900D01*
X189229758Y-77873661D01*
X189441990Y-78387303D01*
X189834630Y-78780629D01*
X190042512Y-78866949D01*
X189836697Y-78951990D01*
X189443371Y-79344630D01*
X189230243Y-79857900D01*
X189229758Y-80413661D01*
X189441990Y-80927303D01*
X189834630Y-81320629D01*
X190042512Y-81406949D01*
X189836697Y-81491990D01*
X189443371Y-81884630D01*
X189230243Y-82397900D01*
X189229758Y-82953661D01*
X189441990Y-83467303D01*
X189834630Y-83860629D01*
X190347900Y-84073757D01*
X190856767Y-84074201D01*
X192031998Y-85249431D01*
X192031998Y-87881864D01*
X192008362Y-87409632D01*
X191849397Y-87025857D01*
X191607213Y-86956392D01*
X190806605Y-87757000D01*
X191607213Y-88557608D01*
X191849397Y-88488143D01*
X192031998Y-87976319D01*
X192031998Y-97613442D01*
X192094835Y-97929348D01*
X192273781Y-98197159D01*
X193103500Y-99026877D01*
X193103500Y-107989066D01*
X191897022Y-109195544D01*
X191897242Y-108943339D01*
X191685010Y-108429697D01*
X191292370Y-108036371D01*
X191084488Y-107950051D01*
X191290303Y-107865010D01*
X191683629Y-107472370D01*
X191896757Y-106959100D01*
X191897242Y-106403339D01*
X191685010Y-105889697D01*
X191292370Y-105496371D01*
X190779100Y-105283243D01*
X190223339Y-105282758D01*
X189709697Y-105494990D01*
X189316371Y-105887630D01*
X189103243Y-106400900D01*
X189102758Y-106956661D01*
X189314990Y-107470303D01*
X189707630Y-107863629D01*
X189915512Y-107949949D01*
X189709697Y-108034990D01*
X189316371Y-108427630D01*
X189103243Y-108940900D01*
X189102758Y-109496661D01*
X189314990Y-110010303D01*
X189707630Y-110403629D01*
X189915512Y-110489949D01*
X189709697Y-110574990D01*
X189316371Y-110967630D01*
X189103243Y-111480900D01*
X189102758Y-112036661D01*
X189314990Y-112550303D01*
X189707630Y-112943629D01*
X190220900Y-113156757D01*
X190729767Y-113157201D01*
X193103500Y-115530933D01*
X193103500Y-139485067D01*
X191627167Y-138008733D01*
X191683629Y-137952370D01*
X191896757Y-137439100D01*
X191897242Y-136883339D01*
X191685010Y-136369697D01*
X191292370Y-135976371D01*
X191084488Y-135890051D01*
X191290303Y-135805010D01*
X191683629Y-135412370D01*
X191896757Y-134899100D01*
X191897242Y-134343339D01*
X191685010Y-133829697D01*
X191292370Y-133436371D01*
X191084488Y-133350051D01*
X191290303Y-133265010D01*
X191683629Y-132872370D01*
X191896757Y-132359100D01*
X191897242Y-131803339D01*
X191685010Y-131289697D01*
X191292370Y-130896371D01*
X190779100Y-130683243D01*
X190223339Y-130682758D01*
X189709697Y-130894990D01*
X189316371Y-131287630D01*
X189103243Y-131800900D01*
X189102758Y-132356661D01*
X189314990Y-132870303D01*
X189707630Y-133263629D01*
X189915512Y-133349949D01*
X189709697Y-133434990D01*
X189316371Y-133827630D01*
X189103243Y-134340900D01*
X189102758Y-134896661D01*
X189314990Y-135410303D01*
X189707630Y-135803629D01*
X189915512Y-135889949D01*
X189709697Y-135974990D01*
X189316371Y-136367630D01*
X189103243Y-136880900D01*
X189102758Y-137436661D01*
X189314990Y-137950303D01*
X189707630Y-138343629D01*
X189735398Y-138355159D01*
X189737337Y-138364906D01*
X189916283Y-138632717D01*
X193345281Y-142061714D01*
X193345283Y-142061717D01*
X199009200Y-147725633D01*
X199008758Y-148231661D01*
X199220990Y-148745303D01*
X199613630Y-149138629D01*
X200126900Y-149351757D01*
X200682661Y-149352242D01*
X201196303Y-149140010D01*
X201589629Y-148747370D01*
X201675949Y-148539488D01*
X201760990Y-148745303D01*
X202153630Y-149138629D01*
X202666900Y-149351757D01*
X203222661Y-149352242D01*
X203736303Y-149140010D01*
X204129629Y-148747370D01*
X204215949Y-148539488D01*
X204300990Y-148745303D01*
X204693630Y-149138629D01*
X205206900Y-149351757D01*
X205762661Y-149352242D01*
X206276303Y-149140010D01*
X206669629Y-148747370D01*
X206755949Y-148539488D01*
X206840990Y-148745303D01*
X207233630Y-149138629D01*
X207746900Y-149351757D01*
X208302661Y-149352242D01*
X208335055Y-149338857D01*
X208377158Y-149380960D01*
X208216343Y-149447408D01*
X207868629Y-149794515D01*
X207680215Y-150248266D01*
X207679786Y-150739579D01*
X207867408Y-151193657D01*
X208214515Y-151541371D01*
X208572453Y-151690000D01*
X158190000Y-151690000D01*
X158190000Y-99917000D01*
X159448500Y-99917000D01*
X159448500Y-145309000D01*
X159511337Y-145624906D01*
X159690283Y-145892717D01*
X160431281Y-146633714D01*
X160431283Y-146633717D01*
X160563167Y-146721839D01*
X160699094Y-146812663D01*
X160748560Y-146822502D01*
X160748560Y-146900000D01*
X160792838Y-147135317D01*
X160931910Y-147351441D01*
X161144110Y-147496431D01*
X161396000Y-147547440D01*
X163096000Y-147547440D01*
X163331317Y-147503162D01*
X163547441Y-147364090D01*
X163692431Y-147151890D01*
X163743440Y-146900000D01*
X163743440Y-145271994D01*
X165480978Y-143534455D01*
X165480758Y-143786661D01*
X165692990Y-144300303D01*
X166085630Y-144693629D01*
X166293512Y-144779949D01*
X166087697Y-144864990D01*
X165694371Y-145257630D01*
X165481243Y-145770900D01*
X165480758Y-146326661D01*
X165692990Y-146840303D01*
X166085630Y-147233629D01*
X166598900Y-147446757D01*
X167154661Y-147447242D01*
X167668303Y-147235010D01*
X168061629Y-146842370D01*
X168274757Y-146329100D01*
X168275201Y-145820233D01*
X171397612Y-142697822D01*
X171534990Y-143030303D01*
X171927630Y-143423629D01*
X172135512Y-143509949D01*
X171929697Y-143594990D01*
X171536371Y-143987630D01*
X171323243Y-144500900D01*
X171322758Y-145056661D01*
X171534990Y-145570303D01*
X171927630Y-145963629D01*
X172135512Y-146049949D01*
X171929697Y-146134990D01*
X171536371Y-146527630D01*
X171323243Y-147040900D01*
X171322758Y-147596661D01*
X171534990Y-148110303D01*
X171927630Y-148503629D01*
X172440900Y-148716757D01*
X172996661Y-148717242D01*
X173510303Y-148505010D01*
X173903629Y-148112370D01*
X174116757Y-147599100D01*
X174117242Y-147043339D01*
X174103857Y-147010945D01*
X176844802Y-144270000D01*
X183460469Y-144270000D01*
X183472990Y-144300303D01*
X183865630Y-144693629D01*
X184073512Y-144779949D01*
X183867697Y-144864990D01*
X183474371Y-145257630D01*
X183261243Y-145770900D01*
X183260758Y-146326661D01*
X183472990Y-146840303D01*
X183865630Y-147233629D01*
X184378900Y-147446757D01*
X184934661Y-147447242D01*
X185448303Y-147235010D01*
X185841629Y-146842370D01*
X186054757Y-146329100D01*
X186055242Y-145773339D01*
X185843010Y-145259697D01*
X185640329Y-145056661D01*
X189102758Y-145056661D01*
X189314990Y-145570303D01*
X189707630Y-145963629D01*
X189915512Y-146049949D01*
X189709697Y-146134990D01*
X189316371Y-146527630D01*
X189103243Y-147040900D01*
X189102758Y-147596661D01*
X189314990Y-148110303D01*
X189707630Y-148503629D01*
X190220900Y-148716757D01*
X190776661Y-148717242D01*
X191290303Y-148505010D01*
X191683629Y-148112370D01*
X191896757Y-147599100D01*
X191897242Y-147043339D01*
X191685010Y-146529697D01*
X191292370Y-146136371D01*
X191084488Y-146050051D01*
X191290303Y-145965010D01*
X191683629Y-145572370D01*
X191896757Y-145059100D01*
X191897242Y-144503339D01*
X191685010Y-143989697D01*
X191292370Y-143596371D01*
X191100273Y-143516605D01*
X191231143Y-143462397D01*
X191300608Y-143220213D01*
X190500000Y-142419605D01*
X189699392Y-143220213D01*
X189768857Y-143462397D01*
X189909318Y-143512509D01*
X189709697Y-143594990D01*
X189316371Y-143987630D01*
X189103243Y-144500900D01*
X189102758Y-145056661D01*
X185640329Y-145056661D01*
X185450370Y-144866371D01*
X185242488Y-144780051D01*
X185448303Y-144695010D01*
X185841629Y-144302370D01*
X186054757Y-143789100D01*
X186055242Y-143233339D01*
X185843010Y-142719697D01*
X185450370Y-142326371D01*
X185242488Y-142240051D01*
X185448303Y-142155010D01*
X185571225Y-142032302D01*
X189090856Y-142032302D01*
X189118638Y-142587368D01*
X189277603Y-142971143D01*
X189519787Y-143040608D01*
X190320395Y-142240000D01*
X190679605Y-142240000D01*
X191480213Y-143040608D01*
X191722397Y-142971143D01*
X191909144Y-142447698D01*
X191881362Y-141892632D01*
X191722397Y-141508857D01*
X191480213Y-141439392D01*
X190679605Y-142240000D01*
X190320395Y-142240000D01*
X189519787Y-141439392D01*
X189277603Y-141508857D01*
X189090856Y-142032302D01*
X185571225Y-142032302D01*
X185841629Y-141762370D01*
X186050319Y-141259787D01*
X189699392Y-141259787D01*
X190500000Y-142060395D01*
X191300608Y-141259787D01*
X191231143Y-141017603D01*
X190707698Y-140830856D01*
X190152632Y-140858638D01*
X189768857Y-141017603D01*
X189699392Y-141259787D01*
X186050319Y-141259787D01*
X186054757Y-141249100D01*
X186055242Y-140693339D01*
X185843010Y-140179697D01*
X185450370Y-139786371D01*
X184937100Y-139573243D01*
X184381339Y-139572758D01*
X183867697Y-139784990D01*
X183474371Y-140177630D01*
X183460930Y-140210000D01*
X177607630Y-140210000D01*
X177316791Y-140267852D01*
X177070229Y-140432599D01*
X173709242Y-143793586D01*
X173512370Y-143596371D01*
X173304488Y-143510051D01*
X173510303Y-143425010D01*
X173903629Y-143032370D01*
X174116757Y-142519100D01*
X174117242Y-141963339D01*
X173905010Y-141449697D01*
X173512370Y-141056371D01*
X173177932Y-140917501D01*
X173303714Y-140791719D01*
X173303717Y-140791717D01*
X173482663Y-140523905D01*
X173506968Y-140401715D01*
X173545501Y-140208000D01*
X173545500Y-140207995D01*
X173545500Y-138309874D01*
X173903629Y-137952370D01*
X174116757Y-137439100D01*
X174117242Y-136883339D01*
X173905010Y-136369697D01*
X173512370Y-135976371D01*
X173304488Y-135890051D01*
X173510303Y-135805010D01*
X173903629Y-135412370D01*
X174116757Y-134899100D01*
X174117242Y-134343339D01*
X173905010Y-133829697D01*
X173512370Y-133436371D01*
X173304488Y-133350051D01*
X173510303Y-133265010D01*
X173903629Y-132872370D01*
X174116757Y-132359100D01*
X174117242Y-131803339D01*
X173905010Y-131289697D01*
X173512370Y-130896371D01*
X172999100Y-130683243D01*
X172443339Y-130682758D01*
X171929697Y-130894990D01*
X171536371Y-131287630D01*
X171323243Y-131800900D01*
X171322758Y-132356661D01*
X171534990Y-132870303D01*
X171927630Y-133263629D01*
X172135512Y-133349949D01*
X171929697Y-133434990D01*
X171536371Y-133827630D01*
X171323243Y-134340900D01*
X171322758Y-134896661D01*
X171534990Y-135410303D01*
X171927630Y-135803629D01*
X172135512Y-135889949D01*
X171929697Y-135974990D01*
X171536371Y-136367630D01*
X171323243Y-136880900D01*
X171322758Y-137436661D01*
X171534990Y-137950303D01*
X171894500Y-138310441D01*
X171894500Y-139866067D01*
X168275022Y-143485544D01*
X168275242Y-143233339D01*
X168063010Y-142719697D01*
X167670370Y-142326371D01*
X167462488Y-142240051D01*
X167668303Y-142155010D01*
X168061629Y-141762370D01*
X168274757Y-141249100D01*
X168275242Y-140693339D01*
X168063010Y-140179697D01*
X167670370Y-139786371D01*
X167157100Y-139573243D01*
X166601339Y-139572758D01*
X166087697Y-139784990D01*
X165694371Y-140177630D01*
X165481243Y-140690900D01*
X165480799Y-141199768D01*
X163662284Y-143018282D01*
X163647054Y-142941715D01*
X163325147Y-142459946D01*
X162995974Y-142240000D01*
X163325147Y-142020054D01*
X163647054Y-141538285D01*
X163760093Y-140970000D01*
X163647054Y-140401715D01*
X163325147Y-139919946D01*
X162843378Y-139598039D01*
X162275093Y-139485000D01*
X162216907Y-139485000D01*
X161648622Y-139598039D01*
X161166853Y-139919946D01*
X161099500Y-140020747D01*
X161099500Y-130985950D01*
X161144110Y-131016431D01*
X161396000Y-131067440D01*
X163096000Y-131067440D01*
X163331317Y-131023162D01*
X163547441Y-130884090D01*
X163692431Y-130671890D01*
X163743440Y-130420000D01*
X163743440Y-128761994D01*
X165480978Y-127024455D01*
X165480758Y-127276661D01*
X165692990Y-127790303D01*
X166085630Y-128183629D01*
X166293512Y-128269949D01*
X166087697Y-128354990D01*
X165694371Y-128747630D01*
X165481243Y-129260900D01*
X165480758Y-129816661D01*
X165692990Y-130330303D01*
X166085630Y-130723629D01*
X166598900Y-130936757D01*
X167154661Y-130937242D01*
X167668303Y-130725010D01*
X168061629Y-130332370D01*
X168274757Y-129819100D01*
X168275242Y-129263339D01*
X168063010Y-128749697D01*
X167670370Y-128356371D01*
X167462488Y-128270051D01*
X167668303Y-128185010D01*
X168061629Y-127792370D01*
X168274757Y-127279100D01*
X168275242Y-126723339D01*
X168063010Y-126209697D01*
X167670370Y-125816371D01*
X167462488Y-125730051D01*
X167668303Y-125645010D01*
X168061629Y-125252370D01*
X168274757Y-124739100D01*
X168275242Y-124183339D01*
X168063010Y-123669697D01*
X167670370Y-123276371D01*
X167157100Y-123063243D01*
X166601339Y-123062758D01*
X166087697Y-123274990D01*
X165694371Y-123667630D01*
X165481243Y-124180900D01*
X165480799Y-124689768D01*
X163657307Y-126513260D01*
X163647054Y-126461715D01*
X163325147Y-125979946D01*
X162995974Y-125760000D01*
X163325147Y-125540054D01*
X163647054Y-125058285D01*
X163760093Y-124490000D01*
X163647054Y-123921715D01*
X163325147Y-123439946D01*
X162843378Y-123118039D01*
X162275093Y-123005000D01*
X162216907Y-123005000D01*
X161648622Y-123118039D01*
X161166853Y-123439946D01*
X161099500Y-123540747D01*
X161099500Y-117116661D01*
X171322758Y-117116661D01*
X171534990Y-117630303D01*
X171927630Y-118023629D01*
X172135512Y-118109949D01*
X171929697Y-118194990D01*
X171536371Y-118587630D01*
X171323243Y-119100900D01*
X171322758Y-119656661D01*
X171534990Y-120170303D01*
X171927630Y-120563629D01*
X172135512Y-120649949D01*
X171929697Y-120734990D01*
X171536371Y-121127630D01*
X171323243Y-121640900D01*
X171322758Y-122196661D01*
X171534990Y-122710303D01*
X171927630Y-123103629D01*
X172440900Y-123316757D01*
X172996661Y-123317242D01*
X173510303Y-123105010D01*
X173903629Y-122712370D01*
X173917070Y-122680000D01*
X179263198Y-122680000D01*
X183273817Y-126690619D01*
X183261243Y-126720900D01*
X183260758Y-127276661D01*
X183472990Y-127790303D01*
X183865630Y-128183629D01*
X184073512Y-128269949D01*
X183867697Y-128354990D01*
X183474371Y-128747630D01*
X183261243Y-129260900D01*
X183260758Y-129816661D01*
X183472990Y-130330303D01*
X183865630Y-130723629D01*
X184378900Y-130936757D01*
X184934661Y-130937242D01*
X185448303Y-130725010D01*
X185841629Y-130332370D01*
X186054757Y-129819100D01*
X186055242Y-129263339D01*
X185843010Y-128749697D01*
X185450370Y-128356371D01*
X185242488Y-128270051D01*
X185448303Y-128185010D01*
X185841629Y-127792370D01*
X186054757Y-127279100D01*
X186055242Y-126723339D01*
X185843010Y-126209697D01*
X185450370Y-125816371D01*
X185242488Y-125730051D01*
X185448303Y-125645010D01*
X185841629Y-125252370D01*
X186054757Y-124739100D01*
X186055242Y-124183339D01*
X185843010Y-123669697D01*
X185450370Y-123276371D01*
X184937100Y-123063243D01*
X184381339Y-123062758D01*
X184348945Y-123076143D01*
X180929463Y-119656661D01*
X189102758Y-119656661D01*
X189314990Y-120170303D01*
X189707630Y-120563629D01*
X189915512Y-120649949D01*
X189709697Y-120734990D01*
X189316371Y-121127630D01*
X189103243Y-121640900D01*
X189102758Y-122196661D01*
X189314990Y-122710303D01*
X189707630Y-123103629D01*
X190220900Y-123316757D01*
X190776661Y-123317242D01*
X191290303Y-123105010D01*
X191683629Y-122712370D01*
X191896757Y-122199100D01*
X191897242Y-121643339D01*
X191685010Y-121129697D01*
X191292370Y-120736371D01*
X191084488Y-120650051D01*
X191290303Y-120565010D01*
X191683629Y-120172370D01*
X191896757Y-119659100D01*
X191897242Y-119103339D01*
X191685010Y-118589697D01*
X191292370Y-118196371D01*
X191100273Y-118116605D01*
X191231143Y-118062397D01*
X191300608Y-117820213D01*
X190500000Y-117019605D01*
X189699392Y-117820213D01*
X189768857Y-118062397D01*
X189909318Y-118112509D01*
X189709697Y-118194990D01*
X189316371Y-118587630D01*
X189103243Y-119100900D01*
X189102758Y-119656661D01*
X180929463Y-119656661D01*
X180115401Y-118842599D01*
X179868839Y-118677852D01*
X179578000Y-118620000D01*
X173917531Y-118620000D01*
X173905010Y-118589697D01*
X173512370Y-118196371D01*
X173304488Y-118110051D01*
X173510303Y-118025010D01*
X173903629Y-117632370D01*
X174116757Y-117119100D01*
X174117181Y-116632302D01*
X189090856Y-116632302D01*
X189118638Y-117187368D01*
X189277603Y-117571143D01*
X189519787Y-117640608D01*
X190320395Y-116840000D01*
X190679605Y-116840000D01*
X191480213Y-117640608D01*
X191722397Y-117571143D01*
X191909144Y-117047698D01*
X191881362Y-116492632D01*
X191722397Y-116108857D01*
X191480213Y-116039392D01*
X190679605Y-116840000D01*
X190320395Y-116840000D01*
X189519787Y-116039392D01*
X189277603Y-116108857D01*
X189090856Y-116632302D01*
X174117181Y-116632302D01*
X174117242Y-116563339D01*
X173905010Y-116049697D01*
X173715432Y-115859787D01*
X189699392Y-115859787D01*
X190500000Y-116660395D01*
X191300608Y-115859787D01*
X191231143Y-115617603D01*
X190707698Y-115430856D01*
X190152632Y-115458638D01*
X189768857Y-115617603D01*
X189699392Y-115859787D01*
X173715432Y-115859787D01*
X173512370Y-115656371D01*
X172999100Y-115443243D01*
X172443339Y-115442758D01*
X171929697Y-115654990D01*
X171536371Y-116047630D01*
X171323243Y-116560900D01*
X171322758Y-117116661D01*
X161099500Y-117116661D01*
X161099500Y-114167156D01*
X161185910Y-114301441D01*
X161398110Y-114446431D01*
X161650000Y-114497440D01*
X163350000Y-114497440D01*
X163585317Y-114453162D01*
X163801441Y-114314090D01*
X163946431Y-114101890D01*
X163997440Y-113850000D01*
X163997440Y-112150000D01*
X163962599Y-111964835D01*
X165442978Y-110484456D01*
X165442758Y-110736661D01*
X165654990Y-111250303D01*
X166047630Y-111643629D01*
X166255512Y-111729949D01*
X166049697Y-111814990D01*
X165656371Y-112207630D01*
X165443243Y-112720900D01*
X165442758Y-113276661D01*
X165654990Y-113790303D01*
X166047630Y-114183629D01*
X166560900Y-114396757D01*
X167116661Y-114397242D01*
X167630303Y-114185010D01*
X168023629Y-113792370D01*
X168236757Y-113279100D01*
X168237201Y-112770232D01*
X168576215Y-112431218D01*
X168576218Y-112431216D01*
X168755164Y-112163404D01*
X168757830Y-112150000D01*
X168818002Y-111847499D01*
X168818001Y-111847494D01*
X168818001Y-106956661D01*
X171322758Y-106956661D01*
X171534990Y-107470303D01*
X171927630Y-107863629D01*
X172135512Y-107949949D01*
X171929697Y-108034990D01*
X171536371Y-108427630D01*
X171323243Y-108940900D01*
X171322758Y-109496661D01*
X171534990Y-110010303D01*
X171927630Y-110403629D01*
X172135512Y-110489949D01*
X171929697Y-110574990D01*
X171536371Y-110967630D01*
X171323243Y-111480900D01*
X171322758Y-112036661D01*
X171534990Y-112550303D01*
X171927630Y-112943629D01*
X172440900Y-113156757D01*
X172996661Y-113157242D01*
X173510303Y-112945010D01*
X173903629Y-112552370D01*
X174116757Y-112039100D01*
X174117242Y-111483339D01*
X173905010Y-110969697D01*
X173512370Y-110576371D01*
X173304488Y-110490051D01*
X173510303Y-110405010D01*
X173903629Y-110012370D01*
X174116757Y-109499100D01*
X174117242Y-108943339D01*
X173905010Y-108429697D01*
X173512370Y-108036371D01*
X173304488Y-107950051D01*
X173510303Y-107865010D01*
X173903629Y-107472370D01*
X174116757Y-106959100D01*
X174117242Y-106403339D01*
X173905010Y-105889697D01*
X173512370Y-105496371D01*
X172999100Y-105283243D01*
X172443339Y-105282758D01*
X171929697Y-105494990D01*
X171536371Y-105887630D01*
X171323243Y-106400900D01*
X171322758Y-106956661D01*
X168818001Y-106956661D01*
X168818001Y-88033661D01*
X171449758Y-88033661D01*
X171661990Y-88547303D01*
X172054630Y-88940629D01*
X172262512Y-89026949D01*
X172056697Y-89111990D01*
X171663371Y-89504630D01*
X171450243Y-90017900D01*
X171449758Y-90573661D01*
X171661990Y-91087303D01*
X172054630Y-91480629D01*
X172262512Y-91566949D01*
X172056697Y-91651990D01*
X171663371Y-92044630D01*
X171450243Y-92557900D01*
X171449758Y-93113661D01*
X171661990Y-93627303D01*
X172054630Y-94020629D01*
X172567900Y-94233757D01*
X173123661Y-94234242D01*
X173637303Y-94022010D01*
X174030629Y-93629370D01*
X174044070Y-93597000D01*
X175086890Y-93597000D01*
X175086838Y-93657167D01*
X175228883Y-94000943D01*
X175491673Y-94264192D01*
X175835201Y-94406838D01*
X175882077Y-94406879D01*
X180215000Y-98739802D01*
X180215000Y-109355000D01*
X180272852Y-109645839D01*
X180437599Y-109892401D01*
X183235817Y-112690619D01*
X183223243Y-112720900D01*
X183222758Y-113276661D01*
X183434990Y-113790303D01*
X183827630Y-114183629D01*
X184340900Y-114396757D01*
X184896661Y-114397242D01*
X185410303Y-114185010D01*
X185803629Y-113792370D01*
X186016757Y-113279100D01*
X186017242Y-112723339D01*
X185805010Y-112209697D01*
X185412370Y-111816371D01*
X185204488Y-111730051D01*
X185410303Y-111645010D01*
X185803629Y-111252370D01*
X186016757Y-110739100D01*
X186017242Y-110183339D01*
X185805010Y-109669697D01*
X185412370Y-109276371D01*
X185204488Y-109190051D01*
X185410303Y-109105010D01*
X185803629Y-108712370D01*
X186016757Y-108199100D01*
X186017242Y-107643339D01*
X185805010Y-107129697D01*
X185412370Y-106736371D01*
X185380000Y-106722930D01*
X185380000Y-100508585D01*
X185322148Y-100217746D01*
X185157401Y-99971184D01*
X176842878Y-91656661D01*
X183222758Y-91656661D01*
X183434990Y-92170303D01*
X183827630Y-92563629D01*
X184035512Y-92649949D01*
X183829697Y-92734990D01*
X183436371Y-93127630D01*
X183223243Y-93640900D01*
X183222758Y-94196661D01*
X183434990Y-94710303D01*
X183827630Y-95103629D01*
X184035512Y-95189949D01*
X183829697Y-95274990D01*
X183436371Y-95667630D01*
X183223243Y-96180900D01*
X183222758Y-96736661D01*
X183434990Y-97250303D01*
X183827630Y-97643629D01*
X183860000Y-97657070D01*
X183860000Y-97752000D01*
X183917852Y-98042839D01*
X184082599Y-98289401D01*
X189183878Y-103390680D01*
X189183838Y-103436167D01*
X189325883Y-103779943D01*
X189588673Y-104043192D01*
X189932201Y-104185838D01*
X190304167Y-104186162D01*
X190647943Y-104044117D01*
X190911192Y-103781327D01*
X191053838Y-103437799D01*
X191054162Y-103065833D01*
X190912117Y-102722057D01*
X190649327Y-102458808D01*
X190305799Y-102316162D01*
X190258923Y-102316121D01*
X185499135Y-97556333D01*
X185803629Y-97252370D01*
X186016757Y-96739100D01*
X186017242Y-96183339D01*
X185805010Y-95669697D01*
X185412370Y-95276371D01*
X185204488Y-95190051D01*
X185410303Y-95105010D01*
X185803629Y-94712370D01*
X186016757Y-94199100D01*
X186017242Y-93643339D01*
X185805010Y-93129697D01*
X185412370Y-92736371D01*
X185204488Y-92650051D01*
X185410303Y-92565010D01*
X185803629Y-92172370D01*
X186016757Y-91659100D01*
X186017242Y-91103339D01*
X185805010Y-90589697D01*
X185789002Y-90573661D01*
X189229758Y-90573661D01*
X189441990Y-91087303D01*
X189834630Y-91480629D01*
X190042512Y-91566949D01*
X189836697Y-91651990D01*
X189443371Y-92044630D01*
X189230243Y-92557900D01*
X189229758Y-93113661D01*
X189441990Y-93627303D01*
X189834630Y-94020629D01*
X190347900Y-94233757D01*
X190903661Y-94234242D01*
X191417303Y-94022010D01*
X191810629Y-93629370D01*
X192023757Y-93116100D01*
X192024242Y-92560339D01*
X191812010Y-92046697D01*
X191419370Y-91653371D01*
X191211488Y-91567051D01*
X191417303Y-91482010D01*
X191810629Y-91089370D01*
X192023757Y-90576100D01*
X192024242Y-90020339D01*
X191812010Y-89506697D01*
X191419370Y-89113371D01*
X191227273Y-89033605D01*
X191358143Y-88979397D01*
X191427608Y-88737213D01*
X190627000Y-87936605D01*
X189826392Y-88737213D01*
X189895857Y-88979397D01*
X190036318Y-89029509D01*
X189836697Y-89111990D01*
X189443371Y-89504630D01*
X189230243Y-90017900D01*
X189229758Y-90573661D01*
X185789002Y-90573661D01*
X185412370Y-90196371D01*
X184899100Y-89983243D01*
X184343339Y-89982758D01*
X183829697Y-90194990D01*
X183436371Y-90587630D01*
X183223243Y-91100900D01*
X183222758Y-91656661D01*
X176842878Y-91656661D01*
X174945816Y-89759599D01*
X174699254Y-89594852D01*
X174408415Y-89537000D01*
X174044531Y-89537000D01*
X174032010Y-89506697D01*
X173639370Y-89113371D01*
X173431488Y-89027051D01*
X173637303Y-88942010D01*
X174030629Y-88549370D01*
X174243757Y-88036100D01*
X174244181Y-87549302D01*
X189217856Y-87549302D01*
X189245638Y-88104368D01*
X189404603Y-88488143D01*
X189646787Y-88557608D01*
X190447395Y-87757000D01*
X189646787Y-86956392D01*
X189404603Y-87025857D01*
X189217856Y-87549302D01*
X174244181Y-87549302D01*
X174244242Y-87480339D01*
X174032010Y-86966697D01*
X173842432Y-86776787D01*
X189826392Y-86776787D01*
X190627000Y-87577395D01*
X191427608Y-86776787D01*
X191358143Y-86534603D01*
X190834698Y-86347856D01*
X190279632Y-86375638D01*
X189895857Y-86534603D01*
X189826392Y-86776787D01*
X173842432Y-86776787D01*
X173639370Y-86573371D01*
X173126100Y-86360243D01*
X172570339Y-86359758D01*
X172056697Y-86571990D01*
X171663371Y-86964630D01*
X171450243Y-87477900D01*
X171449758Y-88033661D01*
X168818001Y-88033661D01*
X168818001Y-87873433D01*
X172617634Y-84073800D01*
X173123661Y-84074242D01*
X173637303Y-83862010D01*
X174030629Y-83469370D01*
X174243757Y-82956100D01*
X174244242Y-82400339D01*
X174032010Y-81886697D01*
X173639370Y-81493371D01*
X173431488Y-81407051D01*
X173637303Y-81322010D01*
X174030629Y-80929370D01*
X174243757Y-80416100D01*
X174244242Y-79860339D01*
X174032010Y-79346697D01*
X173639370Y-78953371D01*
X173431488Y-78867051D01*
X173637303Y-78782010D01*
X174030629Y-78389370D01*
X174243757Y-77876100D01*
X174244242Y-77320339D01*
X174032010Y-76806697D01*
X173639370Y-76413371D01*
X173126100Y-76200243D01*
X172570339Y-76199758D01*
X172056697Y-76411990D01*
X171663371Y-76804630D01*
X171450243Y-77317900D01*
X171449758Y-77873661D01*
X171661990Y-78387303D01*
X172054630Y-78780629D01*
X172262512Y-78866949D01*
X172056697Y-78951990D01*
X171663371Y-79344630D01*
X171450243Y-79857900D01*
X171449758Y-80413661D01*
X171661990Y-80927303D01*
X172054630Y-81320629D01*
X172262512Y-81406949D01*
X172056697Y-81491990D01*
X171663371Y-81884630D01*
X171450243Y-82397900D01*
X171449799Y-82906767D01*
X167408784Y-86947782D01*
X167229838Y-87215593D01*
X167223193Y-87249000D01*
X167167001Y-87531499D01*
X167167001Y-90003133D01*
X167119100Y-89983243D01*
X166563339Y-89982758D01*
X166049697Y-90194990D01*
X165656371Y-90587630D01*
X165443243Y-91100900D01*
X165442799Y-91609767D01*
X163820864Y-93231702D01*
X163579147Y-92869946D01*
X163249974Y-92650000D01*
X163579147Y-92430054D01*
X163901054Y-91948285D01*
X164014093Y-91380000D01*
X163901054Y-90811715D01*
X163579147Y-90329946D01*
X163097378Y-90008039D01*
X162529093Y-89895000D01*
X162470907Y-89895000D01*
X161902622Y-90008039D01*
X161420853Y-90329946D01*
X161098946Y-90811715D01*
X160985907Y-91380000D01*
X161098946Y-91948285D01*
X161420853Y-92430054D01*
X161750026Y-92650000D01*
X161420853Y-92869946D01*
X161098946Y-93351715D01*
X160985907Y-93920000D01*
X161098946Y-94488285D01*
X161420853Y-94970054D01*
X161462452Y-94997850D01*
X161414683Y-95006838D01*
X161198559Y-95145910D01*
X161053569Y-95358110D01*
X161002560Y-95610000D01*
X161002560Y-97310000D01*
X161046838Y-97545317D01*
X161185910Y-97761441D01*
X161231188Y-97792378D01*
X159690283Y-99333283D01*
X159511337Y-99601094D01*
X159511337Y-99601095D01*
X159448500Y-99917000D01*
X158190000Y-99917000D01*
X158190000Y-74463242D01*
X204450915Y-74463242D01*
X204450915Y-75153801D01*
X204547588Y-75387190D01*
X204726216Y-75565819D01*
X204959605Y-75662492D01*
X205650165Y-75662492D01*
X205808915Y-75503742D01*
X205808915Y-74304492D01*
X204609665Y-74304492D01*
X204450915Y-74463242D01*
X158190000Y-74463242D01*
X158190000Y-73201183D01*
X204450915Y-73201183D01*
X204450915Y-73891742D01*
X204609665Y-74050492D01*
X205808915Y-74050492D01*
X205808915Y-72851242D01*
X205650165Y-72692492D01*
X204959605Y-72692492D01*
X204726216Y-72789165D01*
X204547588Y-72967794D01*
X204450915Y-73201183D01*
X158190000Y-73201183D01*
X158190000Y-71830000D01*
X232886340Y-71830000D01*
X232852511Y-71836729D01*
X232852511Y-71836729D01*
G37*
X232852511Y-71836729D02*
X232366330Y-72161585D01*
X232041474Y-72647766D01*
X231927400Y-73221255D01*
X231927400Y-73590745D01*
X232041474Y-74164234D01*
X232366330Y-74650415D01*
X232852511Y-74975271D01*
X233426000Y-75089345D01*
X233999489Y-74975271D01*
X234485670Y-74650415D01*
X234692461Y-74340931D01*
X235063964Y-74756732D01*
X235591209Y-75010709D01*
X235606974Y-75013358D01*
X235839000Y-74892217D01*
X235839000Y-73533000D01*
X235819000Y-73533000D01*
X235819000Y-73279000D01*
X235839000Y-73279000D01*
X235839000Y-73259000D01*
X236093000Y-73259000D01*
X236093000Y-73279000D01*
X236113000Y-73279000D01*
X236113000Y-73533000D01*
X236093000Y-73533000D01*
X236093000Y-74892217D01*
X236325026Y-75013358D01*
X236340791Y-75010709D01*
X236868036Y-74756732D01*
X237239539Y-74340931D01*
X237446330Y-74650415D01*
X237932511Y-74975271D01*
X238506000Y-75089345D01*
X239079489Y-74975271D01*
X239565670Y-74650415D01*
X239890526Y-74164234D01*
X240004600Y-73590745D01*
X240004600Y-73221255D01*
X239890526Y-72647766D01*
X239565670Y-72161585D01*
X239079489Y-71836729D01*
X239045660Y-71830000D01*
X253290000Y-71830000D01*
X253290000Y-151690000D01*
X244864213Y-151690000D01*
X249272412Y-147281801D01*
X249437159Y-147035239D01*
X249495011Y-146744400D01*
X249495011Y-89985011D01*
X249437159Y-89694172D01*
X249272412Y-89447610D01*
X248204122Y-88379320D01*
X248204162Y-88333833D01*
X248062117Y-87990057D01*
X247799327Y-87726808D01*
X247455799Y-87584162D01*
X247083833Y-87583838D01*
X246740057Y-87725883D01*
X246662266Y-87803539D01*
X246439799Y-87711162D01*
X246067833Y-87710838D01*
X245724057Y-87852883D01*
X245460808Y-88115673D01*
X245318162Y-88459201D01*
X245317838Y-88831167D01*
X245459883Y-89174943D01*
X245722673Y-89438192D01*
X246066201Y-89580838D01*
X246113077Y-89580879D01*
X247525000Y-90992802D01*
X247525000Y-129049533D01*
X247261734Y-128940215D01*
X246770421Y-128939786D01*
X246316343Y-129127408D01*
X245968629Y-129474515D01*
X245780215Y-129928266D01*
X245779786Y-130419579D01*
X245967408Y-130873657D01*
X246314515Y-131221371D01*
X246768266Y-131409785D01*
X247259579Y-131410214D01*
X247525000Y-131300544D01*
X247525000Y-146243198D01*
X242890198Y-150878000D01*
X238033202Y-150878000D01*
X238089785Y-150741734D01*
X238090214Y-150250421D01*
X237902592Y-149796343D01*
X237555485Y-149448629D01*
X237101734Y-149260215D01*
X236610421Y-149259786D01*
X236156343Y-149447408D01*
X235808629Y-149794515D01*
X235620215Y-150248266D01*
X235619786Y-150739579D01*
X235676981Y-150878000D01*
X235493202Y-150878000D01*
X235549785Y-150741734D01*
X235550214Y-150250421D01*
X235362592Y-149796343D01*
X235015485Y-149448629D01*
X234561734Y-149260215D01*
X234070421Y-149259786D01*
X233616343Y-149447408D01*
X233268629Y-149794515D01*
X233080215Y-150248266D01*
X233079786Y-150739579D01*
X233136981Y-150878000D01*
X232953202Y-150878000D01*
X233009785Y-150741734D01*
X233010214Y-150250421D01*
X232822592Y-149796343D01*
X232475485Y-149448629D01*
X232021734Y-149260215D01*
X231853166Y-149260068D01*
X231831550Y-149238452D01*
X231831547Y-149238450D01*
X231257001Y-148663903D01*
X231257001Y-131297146D01*
X231528266Y-131409785D01*
X232019579Y-131410214D01*
X232473657Y-131222592D01*
X232821371Y-130875485D01*
X233009785Y-130421734D01*
X233010140Y-130014662D01*
X233080201Y-129944601D01*
X233079786Y-130419579D01*
X233267408Y-130873657D01*
X233614515Y-131221371D01*
X234068266Y-131409785D01*
X234559579Y-131410214D01*
X235013657Y-131222592D01*
X235361371Y-130875485D01*
X235549785Y-130421734D01*
X235550214Y-129930421D01*
X235362592Y-129476343D01*
X235075000Y-129188248D01*
X235075000Y-124098988D01*
X236095000Y-125118988D01*
X236095000Y-129188644D01*
X235808629Y-129474515D01*
X235620215Y-129928266D01*
X235619786Y-130419579D01*
X235807408Y-130873657D01*
X236154515Y-131221371D01*
X236608266Y-131409785D01*
X237099579Y-131410214D01*
X237553657Y-131222592D01*
X237738837Y-131037735D01*
X238711870Y-131037735D01*
X238761383Y-131263164D01*
X239226036Y-131422807D01*
X239716413Y-131392482D01*
X240028617Y-131263164D01*
X240078130Y-131037735D01*
X239395000Y-130354605D01*
X238711870Y-131037735D01*
X237738837Y-131037735D01*
X237901371Y-130875485D01*
X238089785Y-130421734D01*
X238090147Y-130006036D01*
X238147193Y-130006036D01*
X238177518Y-130496413D01*
X238306836Y-130808617D01*
X238532265Y-130858130D01*
X239215395Y-130175000D01*
X239574605Y-130175000D01*
X240257735Y-130858130D01*
X240483164Y-130808617D01*
X240616827Y-130419579D01*
X240699786Y-130419579D01*
X240887408Y-130873657D01*
X241234515Y-131221371D01*
X241688266Y-131409785D01*
X242179579Y-131410214D01*
X242633657Y-131222592D01*
X242981371Y-130875485D01*
X243169785Y-130421734D01*
X243169786Y-130419579D01*
X243239786Y-130419579D01*
X243427408Y-130873657D01*
X243774515Y-131221371D01*
X244228266Y-131409785D01*
X244719579Y-131410214D01*
X245173657Y-131222592D01*
X245521371Y-130875485D01*
X245709785Y-130421734D01*
X245710214Y-129930421D01*
X245522592Y-129476343D01*
X245175485Y-129128629D01*
X244721734Y-128940215D01*
X244230421Y-128939786D01*
X243776343Y-129127408D01*
X243428629Y-129474515D01*
X243240215Y-129928266D01*
X243239786Y-130419579D01*
X243169786Y-130419579D01*
X243170214Y-129930421D01*
X242982592Y-129476343D01*
X242635485Y-129128629D01*
X242181734Y-128940215D01*
X241690421Y-128939786D01*
X241236343Y-129127408D01*
X240888629Y-129474515D01*
X240700215Y-129928266D01*
X240699786Y-130419579D01*
X240616827Y-130419579D01*
X240642807Y-130343964D01*
X240612482Y-129853587D01*
X240483164Y-129541383D01*
X240257735Y-129491870D01*
X239574605Y-130175000D01*
X239215395Y-130175000D01*
X238532265Y-129491870D01*
X238306836Y-129541383D01*
X238147193Y-130006036D01*
X238090147Y-130006036D01*
X238090214Y-129930421D01*
X237902592Y-129476343D01*
X237738801Y-129312265D01*
X238711870Y-129312265D01*
X239395000Y-129995395D01*
X240078130Y-129312265D01*
X240028617Y-129086836D01*
X239563964Y-128927193D01*
X239073587Y-128957518D01*
X238761383Y-129086836D01*
X238711870Y-129312265D01*
X237738801Y-129312265D01*
X237615000Y-129188248D01*
X237615000Y-124804186D01*
X237604389Y-124750839D01*
X237557148Y-124513346D01*
X237392401Y-124266785D01*
X217364011Y-104238395D01*
X217364011Y-103699600D01*
X217311935Y-103437799D01*
X217306159Y-103408760D01*
X217141412Y-103162199D01*
X215546391Y-101567178D01*
X215299829Y-101402431D01*
X215008990Y-101344579D01*
X214522727Y-101344579D01*
X214508555Y-101269262D01*
X214369483Y-101053138D01*
X214299682Y-101005445D01*
X214356834Y-100968669D01*
X214501824Y-100756469D01*
X214552833Y-100504579D01*
X214552833Y-99304579D01*
X214508555Y-99069262D01*
X214369483Y-98853138D01*
X214215393Y-98747853D01*
X214215393Y-98559684D01*
X214356834Y-98468669D01*
X214501824Y-98256469D01*
X214552833Y-98004579D01*
X214552833Y-96804579D01*
X214508555Y-96569262D01*
X214369483Y-96353138D01*
X214301387Y-96306610D01*
X214443720Y-96164277D01*
X214540393Y-95930888D01*
X214540393Y-95490329D01*
X214381643Y-95331579D01*
X213582393Y-95331579D01*
X213582393Y-95351579D01*
X213328393Y-95351579D01*
X213328393Y-95331579D01*
X212529143Y-95331579D01*
X212370393Y-95490329D01*
X212370393Y-95930888D01*
X212467066Y-96164277D01*
X212608303Y-96305515D01*
X212553952Y-96340489D01*
X212408962Y-96552689D01*
X212357953Y-96804579D01*
X212357953Y-98004579D01*
X212402231Y-98239896D01*
X212541303Y-98456020D01*
X212695393Y-98561305D01*
X212695393Y-98749474D01*
X212553952Y-98840489D01*
X212408962Y-99052689D01*
X212357953Y-99304579D01*
X212357953Y-100504579D01*
X212402231Y-100739896D01*
X212541303Y-100956020D01*
X212611104Y-101003713D01*
X212553952Y-101040489D01*
X212408962Y-101252689D01*
X212357953Y-101504579D01*
X212357953Y-102704579D01*
X212376470Y-102802989D01*
X211356605Y-102802989D01*
X210120794Y-101567178D01*
X209974178Y-101469213D01*
X209936555Y-101269262D01*
X209797483Y-101053138D01*
X209727682Y-101005445D01*
X209784834Y-100968669D01*
X209929824Y-100756469D01*
X209980833Y-100504579D01*
X209980833Y-99304579D01*
X209936555Y-99069262D01*
X209797483Y-98853138D01*
X209643393Y-98747853D01*
X209643393Y-98559684D01*
X209784834Y-98468669D01*
X209929824Y-98256469D01*
X209980833Y-98004579D01*
X209980833Y-96804579D01*
X209936555Y-96569262D01*
X209797483Y-96353138D01*
X209729387Y-96306610D01*
X209871720Y-96164277D01*
X209968393Y-95930888D01*
X209968393Y-95490329D01*
X209809643Y-95331579D01*
X209010393Y-95331579D01*
X209010393Y-95351579D01*
X208756393Y-95351579D01*
X208756393Y-95331579D01*
X207957143Y-95331579D01*
X207798393Y-95490329D01*
X207798393Y-95930888D01*
X207895066Y-96164277D01*
X208036303Y-96305515D01*
X207981952Y-96340489D01*
X207836962Y-96552689D01*
X207785953Y-96804579D01*
X207785953Y-98004579D01*
X207830231Y-98239896D01*
X207969303Y-98456020D01*
X208123393Y-98561305D01*
X208123393Y-98749474D01*
X207981952Y-98840489D01*
X207836962Y-99052689D01*
X207785953Y-99304579D01*
X207785953Y-100504579D01*
X207830231Y-100739896D01*
X207969303Y-100956020D01*
X208039104Y-101003713D01*
X207981952Y-101040489D01*
X207836962Y-101252689D01*
X207785953Y-101504579D01*
X207785953Y-102704579D01*
X207830231Y-102939896D01*
X207969303Y-103156020D01*
X208111238Y-103253000D01*
X207235006Y-103253000D01*
X205548794Y-101566788D01*
X205402178Y-101468823D01*
X205364555Y-101268872D01*
X205225483Y-101052748D01*
X205155682Y-101005055D01*
X205212834Y-100968279D01*
X205357824Y-100756079D01*
X205408833Y-100504189D01*
X205408833Y-99304189D01*
X205364555Y-99068872D01*
X205225483Y-98852748D01*
X205071393Y-98747463D01*
X205071393Y-98560294D01*
X205212834Y-98469279D01*
X205357824Y-98257079D01*
X205408833Y-98005189D01*
X205408833Y-96805189D01*
X205364555Y-96569872D01*
X205225483Y-96353748D01*
X205157387Y-96307220D01*
X205299720Y-96164887D01*
X205396393Y-95931498D01*
X205396393Y-95490939D01*
X205237643Y-95332189D01*
X204438393Y-95332189D01*
X204438393Y-95352189D01*
X204184393Y-95352189D01*
X204184393Y-95332189D01*
X203385143Y-95332189D01*
X203226393Y-95490939D01*
X203226393Y-95931498D01*
X203323066Y-96164887D01*
X203464303Y-96306125D01*
X203409952Y-96341099D01*
X203264962Y-96553299D01*
X203213953Y-96805189D01*
X203213953Y-98005189D01*
X203258231Y-98240506D01*
X203397303Y-98456630D01*
X203551393Y-98561915D01*
X203551393Y-98749084D01*
X203409952Y-98840099D01*
X203264962Y-99052299D01*
X203213953Y-99304189D01*
X203213953Y-100504189D01*
X203258231Y-100739506D01*
X203397303Y-100955630D01*
X203467104Y-101003323D01*
X203409952Y-101040099D01*
X203264962Y-101252299D01*
X203213953Y-101504189D01*
X203213953Y-102704189D01*
X203258231Y-102939506D01*
X203397303Y-103155630D01*
X203609503Y-103300620D01*
X203861393Y-103351629D01*
X204761393Y-103351629D01*
X204996710Y-103307351D01*
X205083747Y-103251345D01*
X206382803Y-104550401D01*
X206629364Y-104715148D01*
X206677618Y-104724746D01*
X206920204Y-104773000D01*
X213510960Y-104773000D01*
X214117970Y-105380010D01*
X213839697Y-105494990D01*
X213446371Y-105887630D01*
X213233243Y-106400900D01*
X213232758Y-106956661D01*
X213444990Y-107470303D01*
X213837630Y-107863629D01*
X214045512Y-107949949D01*
X213839697Y-108034990D01*
X213446371Y-108427630D01*
X213233243Y-108940900D01*
X213232758Y-109496661D01*
X213444990Y-110010303D01*
X213837630Y-110403629D01*
X214045512Y-110489949D01*
X213839697Y-110574990D01*
X213446371Y-110967630D01*
X213233243Y-111480900D01*
X213232758Y-112036661D01*
X213444990Y-112550303D01*
X213837630Y-112943629D01*
X214350900Y-113156757D01*
X214906661Y-113157242D01*
X215420303Y-112945010D01*
X215813629Y-112552370D01*
X216026757Y-112039100D01*
X216027242Y-111483339D01*
X215815010Y-110969697D01*
X215422370Y-110576371D01*
X215214488Y-110490051D01*
X215420303Y-110405010D01*
X215813629Y-110012370D01*
X216026757Y-109499100D01*
X216027242Y-108943339D01*
X215815010Y-108429697D01*
X215422370Y-108036371D01*
X215214488Y-107950051D01*
X215420303Y-107865010D01*
X215813629Y-107472370D01*
X215930023Y-107192063D01*
X230947055Y-122209095D01*
X230916857Y-122221603D01*
X230847392Y-122463787D01*
X231648000Y-123264395D01*
X231662143Y-123250253D01*
X231841748Y-123429858D01*
X231827605Y-123444000D01*
X232628213Y-124244608D01*
X232870397Y-124175143D01*
X232881627Y-124143667D01*
X232920000Y-124182040D01*
X232920000Y-127955198D01*
X231935059Y-128940139D01*
X231530421Y-128939786D01*
X231257001Y-129052761D01*
X231257001Y-124787749D01*
X231440302Y-124853144D01*
X231995368Y-124825362D01*
X232379143Y-124666397D01*
X232448608Y-124424213D01*
X231648000Y-123623605D01*
X231633858Y-123637748D01*
X231454253Y-123458143D01*
X231468395Y-123444000D01*
X230667787Y-122643392D01*
X230425603Y-122712857D01*
X230375491Y-122853318D01*
X230293010Y-122653697D01*
X229900370Y-122260371D01*
X229387100Y-122047243D01*
X228831339Y-122046758D01*
X228317697Y-122258990D01*
X227924371Y-122651630D01*
X227711243Y-123164900D01*
X227710758Y-123720661D01*
X227922990Y-124234303D01*
X228315630Y-124627629D01*
X228828900Y-124840757D01*
X229191976Y-124841074D01*
X229400001Y-125049099D01*
X229400001Y-126713459D01*
X229138370Y-126451371D01*
X228625100Y-126238243D01*
X228069339Y-126237758D01*
X227555697Y-126449990D01*
X227162371Y-126842630D01*
X227076051Y-127050512D01*
X226991010Y-126844697D01*
X226598370Y-126451371D01*
X226085100Y-126238243D01*
X225529339Y-126237758D01*
X225015697Y-126449990D01*
X224622371Y-126842630D01*
X224536051Y-127050512D01*
X224451010Y-126844697D01*
X224058370Y-126451371D01*
X223545100Y-126238243D01*
X222989339Y-126237758D01*
X222475697Y-126449990D01*
X222082371Y-126842630D01*
X221996051Y-127050512D01*
X221911010Y-126844697D01*
X221518370Y-126451371D01*
X221005100Y-126238243D01*
X220449339Y-126237758D01*
X219935697Y-126449990D01*
X219542371Y-126842630D01*
X219456051Y-127050512D01*
X219371010Y-126844697D01*
X219011500Y-126484559D01*
X219011500Y-125476000D01*
X218948663Y-125160095D01*
X218769717Y-124892283D01*
X218769714Y-124892281D01*
X216026800Y-122149367D01*
X216027242Y-121643339D01*
X215815010Y-121129697D01*
X215422370Y-120736371D01*
X215214488Y-120650051D01*
X215420303Y-120565010D01*
X215813629Y-120172370D01*
X216026757Y-119659100D01*
X216027242Y-119103339D01*
X215815010Y-118589697D01*
X215422370Y-118196371D01*
X215230273Y-118116605D01*
X215361143Y-118062397D01*
X215430608Y-117820213D01*
X214630000Y-117019605D01*
X213829392Y-117820213D01*
X213898857Y-118062397D01*
X214039318Y-118112509D01*
X213839697Y-118194990D01*
X213446371Y-118587630D01*
X213233243Y-119100900D01*
X213232799Y-119609768D01*
X212893782Y-119948784D01*
X212714836Y-120216595D01*
X212667245Y-120455853D01*
X212651999Y-120532501D01*
X212651999Y-122473201D01*
X212714836Y-122789107D01*
X212893782Y-123056918D01*
X214820500Y-124983635D01*
X214820500Y-126485126D01*
X214462371Y-126842630D01*
X214376051Y-127050512D01*
X214291010Y-126844697D01*
X213898370Y-126451371D01*
X213385100Y-126238243D01*
X212829339Y-126237758D01*
X212315697Y-126449990D01*
X211922371Y-126842630D01*
X211836051Y-127050512D01*
X211751010Y-126844697D01*
X211358370Y-126451371D01*
X210845100Y-126238243D01*
X210289339Y-126237758D01*
X209775697Y-126449990D01*
X209382371Y-126842630D01*
X209296051Y-127050512D01*
X209211010Y-126844697D01*
X208818370Y-126451371D01*
X208305100Y-126238243D01*
X207749339Y-126237758D01*
X207235697Y-126449990D01*
X206842371Y-126842630D01*
X206756051Y-127050512D01*
X206671010Y-126844697D01*
X206278370Y-126451371D01*
X205765100Y-126238243D01*
X205209339Y-126237758D01*
X204695697Y-126449990D01*
X204302371Y-126842630D01*
X204216051Y-127050512D01*
X204131010Y-126844697D01*
X203738370Y-126451371D01*
X203225100Y-126238243D01*
X202716233Y-126237799D01*
X200469500Y-123991066D01*
X200469500Y-123386113D01*
X200578838Y-123122799D01*
X200579162Y-122750833D01*
X200437117Y-122407057D01*
X200174327Y-122143808D01*
X199830799Y-122001162D01*
X199458833Y-122000838D01*
X199115057Y-122142883D01*
X198851808Y-122405673D01*
X198709162Y-122749201D01*
X198708838Y-123121167D01*
X198818500Y-123386570D01*
X198818500Y-124333000D01*
X198881337Y-124648906D01*
X199060283Y-124916717D01*
X200381544Y-126237978D01*
X200129339Y-126237758D01*
X199615697Y-126449990D01*
X199222371Y-126842630D01*
X199009243Y-127355900D01*
X199008758Y-127911661D01*
X199220990Y-128425303D01*
X199613630Y-128818629D01*
X200126900Y-129031757D01*
X200682661Y-129032242D01*
X201196303Y-128820010D01*
X201589629Y-128427370D01*
X201675949Y-128219488D01*
X201760990Y-128425303D01*
X202153630Y-128818629D01*
X202666900Y-129031757D01*
X203222661Y-129032242D01*
X203736303Y-128820010D01*
X204129629Y-128427370D01*
X204215949Y-128219488D01*
X204300990Y-128425303D01*
X204693630Y-128818629D01*
X205206900Y-129031757D01*
X205762661Y-129032242D01*
X206276303Y-128820010D01*
X206669629Y-128427370D01*
X206755949Y-128219488D01*
X206840990Y-128425303D01*
X207233630Y-128818629D01*
X207746900Y-129031757D01*
X208302661Y-129032242D01*
X208816303Y-128820010D01*
X209209629Y-128427370D01*
X209295949Y-128219488D01*
X209380990Y-128425303D01*
X209773630Y-128818629D01*
X210286900Y-129031757D01*
X210842661Y-129032242D01*
X211356303Y-128820010D01*
X211749629Y-128427370D01*
X211835949Y-128219488D01*
X211920990Y-128425303D01*
X212313630Y-128818629D01*
X212826900Y-129031757D01*
X213382661Y-129032242D01*
X213896303Y-128820010D01*
X214289629Y-128427370D01*
X214375949Y-128219488D01*
X214460990Y-128425303D01*
X214853630Y-128818629D01*
X215366900Y-129031757D01*
X215922661Y-129032242D01*
X216436303Y-128820010D01*
X216829629Y-128427370D01*
X216915949Y-128219488D01*
X217000990Y-128425303D01*
X217393630Y-128818629D01*
X217906900Y-129031757D01*
X218462661Y-129032242D01*
X218976303Y-128820010D01*
X219369629Y-128427370D01*
X219455949Y-128219488D01*
X219540990Y-128425303D01*
X219933630Y-128818629D01*
X220446900Y-129031757D01*
X221002661Y-129032242D01*
X221516303Y-128820010D01*
X221909629Y-128427370D01*
X221995949Y-128219488D01*
X222080990Y-128425303D01*
X222473630Y-128818629D01*
X222986900Y-129031757D01*
X223542661Y-129032242D01*
X224056303Y-128820010D01*
X224449629Y-128427370D01*
X224535949Y-128219488D01*
X224620990Y-128425303D01*
X225013630Y-128818629D01*
X225526900Y-129031757D01*
X226082661Y-129032242D01*
X226596303Y-128820010D01*
X226989629Y-128427370D01*
X227075949Y-128219488D01*
X227160990Y-128425303D01*
X227553630Y-128818629D01*
X228066900Y-129031757D01*
X228622661Y-129032242D01*
X229136303Y-128820010D01*
X229400001Y-128556772D01*
X229400001Y-128940144D01*
X228990421Y-128939786D01*
X228536343Y-129127408D01*
X228188629Y-129474515D01*
X228000215Y-129928266D01*
X227999786Y-130419579D01*
X228187408Y-130873657D01*
X228534515Y-131221371D01*
X228988266Y-131409785D01*
X229400001Y-131410145D01*
X229400001Y-147033459D01*
X229138370Y-146771371D01*
X228625100Y-146558243D01*
X228069339Y-146557758D01*
X227555697Y-146769990D01*
X227162371Y-147162630D01*
X227076051Y-147370512D01*
X226991010Y-147164697D01*
X226598370Y-146771371D01*
X226085100Y-146558243D01*
X225529339Y-146557758D01*
X225015697Y-146769990D01*
X224622371Y-147162630D01*
X224536051Y-147370512D01*
X224451010Y-147164697D01*
X224058370Y-146771371D01*
X223545100Y-146558243D01*
X222989339Y-146557758D01*
X222475697Y-146769990D01*
X222082371Y-147162630D01*
X221996051Y-147370512D01*
X221911010Y-147164697D01*
X221518370Y-146771371D01*
X221005100Y-146558243D01*
X220449339Y-146557758D01*
X219935697Y-146769990D01*
X219542371Y-147162630D01*
X219462605Y-147354727D01*
X219408397Y-147223857D01*
X219166213Y-147154392D01*
X218365605Y-147955000D01*
X219166213Y-148755608D01*
X219408397Y-148686143D01*
X219458509Y-148545682D01*
X219540990Y-148745303D01*
X219933630Y-149138629D01*
X220446900Y-149351757D01*
X221002661Y-149352242D01*
X221516303Y-149140010D01*
X221909629Y-148747370D01*
X221995949Y-148539488D01*
X222080990Y-148745303D01*
X222473630Y-149138629D01*
X222986900Y-149351757D01*
X223542661Y-149352242D01*
X224056303Y-149140010D01*
X224449629Y-148747370D01*
X224535949Y-148539488D01*
X224620990Y-148745303D01*
X225013630Y-149138629D01*
X225526900Y-149351757D01*
X226082661Y-149352242D01*
X226596303Y-149140010D01*
X226989629Y-148747370D01*
X227075949Y-148539488D01*
X227160990Y-148745303D01*
X227553630Y-149138629D01*
X228066900Y-149351757D01*
X228622661Y-149352242D01*
X229136303Y-149140010D01*
X229400001Y-148876772D01*
X229400001Y-149048496D01*
X229400000Y-149048501D01*
X229442106Y-149260180D01*
X228990421Y-149259786D01*
X228536343Y-149447408D01*
X228188629Y-149794515D01*
X228000215Y-150248266D01*
X227999786Y-150739579D01*
X228056981Y-150878000D01*
X227873202Y-150878000D01*
X227929785Y-150741734D01*
X227930214Y-150250421D01*
X227742592Y-149796343D01*
X227395485Y-149448629D01*
X226941734Y-149260215D01*
X226450421Y-149259786D01*
X225996343Y-149447408D01*
X225648629Y-149794515D01*
X225460215Y-150248266D01*
X225459786Y-150739579D01*
X225516981Y-150878000D01*
X225333202Y-150878000D01*
X225389785Y-150741734D01*
X225390214Y-150250421D01*
X225202592Y-149796343D01*
X224855485Y-149448629D01*
X224401734Y-149260215D01*
X223910421Y-149259786D01*
X223456343Y-149447408D01*
X223108629Y-149794515D01*
X222920215Y-150248266D01*
X222919786Y-150739579D01*
X222976981Y-150878000D01*
X222793202Y-150878000D01*
X222849785Y-150741734D01*
X222850214Y-150250421D01*
X222662592Y-149796343D01*
X222315485Y-149448629D01*
X221861734Y-149260215D01*
X221370421Y-149259786D01*
X220916343Y-149447408D01*
X220568629Y-149794515D01*
X220380215Y-150248266D01*
X220379786Y-150739579D01*
X220436981Y-150878000D01*
X220253202Y-150878000D01*
X220309785Y-150741734D01*
X220310214Y-150250421D01*
X220122592Y-149796343D01*
X219775485Y-149448629D01*
X219321734Y-149260215D01*
X218830421Y-149259786D01*
X218376343Y-149447408D01*
X218028629Y-149794515D01*
X217840215Y-150248266D01*
X217839786Y-150739579D01*
X217896981Y-150878000D01*
X217713202Y-150878000D01*
X217769785Y-150741734D01*
X217770214Y-150250421D01*
X217582592Y-149796343D01*
X217235485Y-149448629D01*
X216781734Y-149260215D01*
X216374662Y-149259860D01*
X216307877Y-149193075D01*
X216436303Y-149140010D01*
X216641457Y-148935213D01*
X217385392Y-148935213D01*
X217454857Y-149177397D01*
X217978302Y-149364144D01*
X218533368Y-149336362D01*
X218917143Y-149177397D01*
X218986608Y-148935213D01*
X218186000Y-148134605D01*
X217385392Y-148935213D01*
X216641457Y-148935213D01*
X216829629Y-148747370D01*
X216909395Y-148555273D01*
X216963603Y-148686143D01*
X217205787Y-148755608D01*
X218006395Y-147955000D01*
X217205787Y-147154392D01*
X216963603Y-147223857D01*
X216913491Y-147364318D01*
X216831010Y-147164697D01*
X216641432Y-146974787D01*
X217385392Y-146974787D01*
X218186000Y-147775395D01*
X218986608Y-146974787D01*
X218917143Y-146732603D01*
X218393698Y-146545856D01*
X217838632Y-146573638D01*
X217454857Y-146732603D01*
X217385392Y-146974787D01*
X216641432Y-146974787D01*
X216438370Y-146771371D01*
X215925100Y-146558243D01*
X215369339Y-146557758D01*
X214855697Y-146769990D01*
X214462371Y-147162630D01*
X214382605Y-147354727D01*
X214328397Y-147223857D01*
X214086213Y-147154392D01*
X213285605Y-147955000D01*
X213299748Y-147969143D01*
X213120143Y-148148748D01*
X213106000Y-148134605D01*
X213091858Y-148148748D01*
X212912253Y-147969143D01*
X212926395Y-147955000D01*
X212125787Y-147154392D01*
X211883603Y-147223857D01*
X211833491Y-147364318D01*
X211751010Y-147164697D01*
X211561432Y-146974787D01*
X212305392Y-146974787D01*
X213106000Y-147775395D01*
X213906608Y-146974787D01*
X213837143Y-146732603D01*
X213313698Y-146545856D01*
X212758632Y-146573638D01*
X212374857Y-146732603D01*
X212305392Y-146974787D01*
X211561432Y-146974787D01*
X211358370Y-146771371D01*
X210845100Y-146558243D01*
X210289339Y-146557758D01*
X209775697Y-146769990D01*
X209382371Y-147162630D01*
X209296051Y-147370512D01*
X209211010Y-147164697D01*
X208818370Y-146771371D01*
X208305100Y-146558243D01*
X207749339Y-146557758D01*
X207235697Y-146769990D01*
X206842371Y-147162630D01*
X206756051Y-147370512D01*
X206671010Y-147164697D01*
X206278370Y-146771371D01*
X205765100Y-146558243D01*
X205209339Y-146557758D01*
X204695697Y-146769990D01*
X204302371Y-147162630D01*
X204216051Y-147370512D01*
X204131010Y-147164697D01*
X203738370Y-146771371D01*
X203706000Y-146757930D01*
X203706000Y-146745802D01*
X206768680Y-143683122D01*
X206814167Y-143683162D01*
X207157943Y-143541117D01*
X207421192Y-143278327D01*
X207563838Y-142934799D01*
X207564162Y-142562833D01*
X207422117Y-142219057D01*
X207159327Y-141955808D01*
X206815799Y-141813162D01*
X206443833Y-141812838D01*
X206100057Y-141954883D01*
X205836808Y-142217673D01*
X205694162Y-142561201D01*
X205694121Y-142608077D01*
X202408599Y-145893599D01*
X202243852Y-146140161D01*
X202186000Y-146431000D01*
X202186000Y-146757469D01*
X202155697Y-146769990D01*
X201762371Y-147162630D01*
X201676051Y-147370512D01*
X201591010Y-147164697D01*
X201198370Y-146771371D01*
X200685100Y-146558243D01*
X200176232Y-146557799D01*
X194754500Y-141136066D01*
X194754500Y-130419579D01*
X207679786Y-130419579D01*
X207867408Y-130873657D01*
X208214515Y-131221371D01*
X208668266Y-131409785D01*
X209159579Y-131410214D01*
X209613657Y-131222592D01*
X209961371Y-130875485D01*
X210149785Y-130421734D01*
X210149786Y-130419579D01*
X210219786Y-130419579D01*
X210407408Y-130873657D01*
X210754515Y-131221371D01*
X211208266Y-131409785D01*
X211699579Y-131410214D01*
X212153657Y-131222592D01*
X212501371Y-130875485D01*
X212689785Y-130421734D01*
X212689786Y-130419579D01*
X212759786Y-130419579D01*
X212947408Y-130873657D01*
X213294515Y-131221371D01*
X213748266Y-131409785D01*
X214239579Y-131410214D01*
X214693657Y-131222592D01*
X215041371Y-130875485D01*
X215229785Y-130421734D01*
X215229786Y-130419579D01*
X215299786Y-130419579D01*
X215487408Y-130873657D01*
X215834515Y-131221371D01*
X216288266Y-131409785D01*
X216779579Y-131410214D01*
X217233657Y-131222592D01*
X217581371Y-130875485D01*
X217769785Y-130421734D01*
X217769786Y-130419579D01*
X217839786Y-130419579D01*
X218027408Y-130873657D01*
X218374515Y-131221371D01*
X218828266Y-131409785D01*
X219319579Y-131410214D01*
X219773657Y-131222592D01*
X220121371Y-130875485D01*
X220309785Y-130421734D01*
X220309786Y-130419579D01*
X220379786Y-130419579D01*
X220567408Y-130873657D01*
X220914515Y-131221371D01*
X221368266Y-131409785D01*
X221859579Y-131410214D01*
X222313657Y-131222592D01*
X222661371Y-130875485D01*
X222849785Y-130421734D01*
X222849786Y-130419579D01*
X222919786Y-130419579D01*
X223107408Y-130873657D01*
X223454515Y-131221371D01*
X223908266Y-131409785D01*
X224399579Y-131410214D01*
X224853657Y-131222592D01*
X225201371Y-130875485D01*
X225389785Y-130421734D01*
X225389786Y-130419579D01*
X225459786Y-130419579D01*
X225647408Y-130873657D01*
X225994515Y-131221371D01*
X226448266Y-131409785D01*
X226939579Y-131410214D01*
X227393657Y-131222592D01*
X227741371Y-130875485D01*
X227929785Y-130421734D01*
X227930214Y-129930421D01*
X227742592Y-129476343D01*
X227395485Y-129128629D01*
X226941734Y-128940215D01*
X226450421Y-128939786D01*
X225996343Y-129127408D01*
X225648629Y-129474515D01*
X225460215Y-129928266D01*
X225459786Y-130419579D01*
X225389786Y-130419579D01*
X225390214Y-129930421D01*
X225202592Y-129476343D01*
X224855485Y-129128629D01*
X224401734Y-128940215D01*
X223910421Y-128939786D01*
X223456343Y-129127408D01*
X223108629Y-129474515D01*
X222920215Y-129928266D01*
X222919786Y-130419579D01*
X222849786Y-130419579D01*
X222850214Y-129930421D01*
X222662592Y-129476343D01*
X222315485Y-129128629D01*
X221861734Y-128940215D01*
X221370421Y-128939786D01*
X220916343Y-129127408D01*
X220568629Y-129474515D01*
X220380215Y-129928266D01*
X220379786Y-130419579D01*
X220309786Y-130419579D01*
X220310214Y-129930421D01*
X220122592Y-129476343D01*
X219775485Y-129128629D01*
X219321734Y-128940215D01*
X218830421Y-128939786D01*
X218376343Y-129127408D01*
X218028629Y-129474515D01*
X217840215Y-129928266D01*
X217839786Y-130419579D01*
X217769786Y-130419579D01*
X217770214Y-129930421D01*
X217582592Y-129476343D01*
X217235485Y-129128629D01*
X216781734Y-128940215D01*
X216290421Y-128939786D01*
X215836343Y-129127408D01*
X215488629Y-129474515D01*
X215300215Y-129928266D01*
X215299786Y-130419579D01*
X215229786Y-130419579D01*
X215230214Y-129930421D01*
X215042592Y-129476343D01*
X214695485Y-129128629D01*
X214241734Y-128940215D01*
X213750421Y-128939786D01*
X213296343Y-129127408D01*
X212948629Y-129474515D01*
X212760215Y-129928266D01*
X212759786Y-130419579D01*
X212689786Y-130419579D01*
X212690214Y-129930421D01*
X212502592Y-129476343D01*
X212155485Y-129128629D01*
X211701734Y-128940215D01*
X211210421Y-128939786D01*
X210756343Y-129127408D01*
X210408629Y-129474515D01*
X210220215Y-129928266D01*
X210219786Y-130419579D01*
X210149786Y-130419579D01*
X210150214Y-129930421D01*
X209962592Y-129476343D01*
X209615485Y-129128629D01*
X209161734Y-128940215D01*
X208670421Y-128939786D01*
X208216343Y-129127408D01*
X207868629Y-129474515D01*
X207680215Y-129928266D01*
X207679786Y-130419579D01*
X194754500Y-130419579D01*
X194754500Y-120899302D01*
X195465817Y-121610619D01*
X195453243Y-121640900D01*
X195452758Y-122196661D01*
X195664990Y-122710303D01*
X196057630Y-123103629D01*
X196570900Y-123316757D01*
X197126661Y-123317242D01*
X197640303Y-123105010D01*
X198033629Y-122712370D01*
X198246757Y-122199100D01*
X198247242Y-121643339D01*
X198035010Y-121129697D01*
X197642370Y-120736371D01*
X197434488Y-120650051D01*
X197640303Y-120565010D01*
X198033629Y-120172370D01*
X198246757Y-119659100D01*
X198247201Y-119150232D01*
X198586215Y-118811218D01*
X198586218Y-118811216D01*
X198765164Y-118543404D01*
X198828002Y-118227499D01*
X198828001Y-118227494D01*
X198828001Y-116632302D01*
X213220856Y-116632302D01*
X213248638Y-117187368D01*
X213407603Y-117571143D01*
X213649787Y-117640608D01*
X214450395Y-116840000D01*
X214809605Y-116840000D01*
X215610213Y-117640608D01*
X215852397Y-117571143D01*
X216039144Y-117047698D01*
X216011362Y-116492632D01*
X215852397Y-116108857D01*
X215610213Y-116039392D01*
X214809605Y-116840000D01*
X214450395Y-116840000D01*
X213649787Y-116039392D01*
X213407603Y-116108857D01*
X213220856Y-116632302D01*
X198828001Y-116632302D01*
X198828001Y-115859787D01*
X213829392Y-115859787D01*
X214630000Y-116660395D01*
X215430608Y-115859787D01*
X215361143Y-115617603D01*
X214837698Y-115430856D01*
X214282632Y-115458638D01*
X213898857Y-115617603D01*
X213829392Y-115859787D01*
X198828001Y-115859787D01*
X198828001Y-101736506D01*
X198828002Y-101736501D01*
X198765164Y-101420596D01*
X198714371Y-101344579D01*
X198586218Y-101152784D01*
X198586215Y-101152782D01*
X194449994Y-97016560D01*
X194341117Y-96753057D01*
X194078327Y-96489808D01*
X193734799Y-96347162D01*
X193682998Y-96347117D01*
X193682998Y-94478880D01*
X203226393Y-94478880D01*
X203226393Y-94919439D01*
X203385143Y-95078189D01*
X204184393Y-95078189D01*
X204184393Y-94128939D01*
X204438393Y-94128939D01*
X204438393Y-95078189D01*
X205237643Y-95078189D01*
X205396393Y-94919439D01*
X205396393Y-94478880D01*
X205396141Y-94478270D01*
X207798393Y-94478270D01*
X207798393Y-94918829D01*
X207957143Y-95077579D01*
X208756393Y-95077579D01*
X208756393Y-94128329D01*
X209010393Y-94128329D01*
X209010393Y-95077579D01*
X209809643Y-95077579D01*
X209968393Y-94918829D01*
X209968393Y-94478270D01*
X212370393Y-94478270D01*
X212370393Y-94918829D01*
X212529143Y-95077579D01*
X213328393Y-95077579D01*
X213328393Y-94128329D01*
X213582393Y-94128329D01*
X213582393Y-95077579D01*
X214381643Y-95077579D01*
X214540393Y-94918829D01*
X214540393Y-94478270D01*
X214443720Y-94244881D01*
X214265092Y-94066252D01*
X214031703Y-93969579D01*
X213741143Y-93969579D01*
X213582393Y-94128329D01*
X213328393Y-94128329D01*
X213169643Y-93969579D01*
X212879083Y-93969579D01*
X212645694Y-94066252D01*
X212467066Y-94244881D01*
X212370393Y-94478270D01*
X209968393Y-94478270D01*
X209871720Y-94244881D01*
X209693092Y-94066252D01*
X209459703Y-93969579D01*
X209169143Y-93969579D01*
X209010393Y-94128329D01*
X208756393Y-94128329D01*
X208597643Y-93969579D01*
X208307083Y-93969579D01*
X208073694Y-94066252D01*
X207895066Y-94244881D01*
X207798393Y-94478270D01*
X205396141Y-94478270D01*
X205299720Y-94245491D01*
X205121092Y-94066862D01*
X204887703Y-93970189D01*
X204597143Y-93970189D01*
X204438393Y-94128939D01*
X204184393Y-94128939D01*
X204025643Y-93970189D01*
X203735083Y-93970189D01*
X203501694Y-94066862D01*
X203323066Y-94245491D01*
X203226393Y-94478880D01*
X193682998Y-94478880D01*
X193682998Y-87407750D01*
X204509000Y-87407750D01*
X204509000Y-88098309D01*
X204605673Y-88331698D01*
X204784301Y-88510327D01*
X205017690Y-88607000D01*
X205708250Y-88607000D01*
X205867000Y-88448250D01*
X205867000Y-87249000D01*
X204667750Y-87249000D01*
X204509000Y-87407750D01*
X193682998Y-87407750D01*
X193682998Y-86145691D01*
X204509000Y-86145691D01*
X204509000Y-86836250D01*
X204667750Y-86995000D01*
X205867000Y-86995000D01*
X205867000Y-85795750D01*
X205708250Y-85637000D01*
X205017690Y-85637000D01*
X204784301Y-85733673D01*
X204605673Y-85912302D01*
X204509000Y-86145691D01*
X193682998Y-86145691D01*
X193682998Y-84907503D01*
X193682999Y-84907498D01*
X193620161Y-84591593D01*
X193441215Y-84323781D01*
X193441212Y-84323779D01*
X192619933Y-83502500D01*
X206287066Y-83502500D01*
X208415954Y-85631388D01*
X207965715Y-85720946D01*
X207483946Y-86042853D01*
X207454597Y-86086777D01*
X207382327Y-85912302D01*
X207203699Y-85733673D01*
X206970310Y-85637000D01*
X206279750Y-85637000D01*
X206121000Y-85795750D01*
X206121000Y-86995000D01*
X206141000Y-86995000D01*
X206141000Y-87249000D01*
X206121000Y-87249000D01*
X206121000Y-88448250D01*
X206279750Y-88607000D01*
X206970310Y-88607000D01*
X207203699Y-88510327D01*
X207382327Y-88331698D01*
X207454597Y-88157223D01*
X207483946Y-88201147D01*
X207965715Y-88523054D01*
X208534000Y-88636093D01*
X209102285Y-88523054D01*
X209584054Y-88201147D01*
X209804000Y-87871974D01*
X210023946Y-88201147D01*
X210505715Y-88523054D01*
X211074000Y-88636093D01*
X211642285Y-88523054D01*
X212124054Y-88201147D01*
X212445961Y-87719378D01*
X212559000Y-87151093D01*
X212559000Y-87092907D01*
X212445961Y-86524622D01*
X212124054Y-86042853D01*
X212002500Y-85961633D01*
X212002500Y-82804000D01*
X211931822Y-82448678D01*
X211730549Y-82147451D01*
X211730546Y-82147449D01*
X209462500Y-79879402D01*
X209462500Y-79646367D01*
X209584054Y-79565147D01*
X209804000Y-79235974D01*
X210023946Y-79565147D01*
X210505715Y-79887054D01*
X211074000Y-80000093D01*
X211642285Y-79887054D01*
X212124054Y-79565147D01*
X212344000Y-79235974D01*
X212563946Y-79565147D01*
X212854678Y-79759407D01*
X212911852Y-80046839D01*
X213076599Y-80293401D01*
X216632599Y-83849401D01*
X216879160Y-84014148D01*
X216922235Y-84022716D01*
X217170000Y-84072000D01*
X233832400Y-84072000D01*
X234123239Y-84014148D01*
X234369801Y-83849401D01*
X235585536Y-82633666D01*
X235966000Y-82709345D01*
X236539489Y-82595271D01*
X237025670Y-82270415D01*
X237236000Y-81955634D01*
X237446330Y-82270415D01*
X237790298Y-82500247D01*
X235581402Y-84709143D01*
X231354362Y-84709143D01*
X231354357Y-84709142D01*
X230999036Y-84779820D01*
X230999034Y-84779821D01*
X230999035Y-84779821D01*
X230697808Y-84981094D01*
X230697806Y-84981097D01*
X229191830Y-86487073D01*
X228831339Y-86486758D01*
X228317697Y-86698990D01*
X227924371Y-87091630D01*
X227711243Y-87604900D01*
X227710758Y-88160661D01*
X227922990Y-88674303D01*
X228315630Y-89067629D01*
X228828900Y-89280757D01*
X229384661Y-89281242D01*
X229898303Y-89069010D01*
X230291629Y-88676370D01*
X230377949Y-88468488D01*
X230462990Y-88674303D01*
X230855630Y-89067629D01*
X231368900Y-89280757D01*
X231924661Y-89281242D01*
X232438303Y-89069010D01*
X232695261Y-88812500D01*
X234832639Y-88812500D01*
X234832644Y-88812501D01*
X235129013Y-88753548D01*
X235187966Y-88741822D01*
X235489193Y-88540549D01*
X243153146Y-80876595D01*
X243153149Y-80876593D01*
X243354422Y-80575366D01*
X243354423Y-80575365D01*
X243425101Y-80220044D01*
X243425100Y-80220039D01*
X243425100Y-77549000D01*
X243354422Y-77193678D01*
X243153149Y-76892451D01*
X242519190Y-76258492D01*
X242544600Y-76130745D01*
X242544600Y-75761255D01*
X242430526Y-75187766D01*
X242105670Y-74701585D01*
X241619489Y-74376729D01*
X241046000Y-74262655D01*
X240472511Y-74376729D01*
X239986330Y-74701585D01*
X239661474Y-75187766D01*
X239547400Y-75761255D01*
X239547400Y-76130745D01*
X239661474Y-76704234D01*
X239986330Y-77190415D01*
X240024621Y-77216000D01*
X239986330Y-77241585D01*
X239661474Y-77727766D01*
X239547400Y-78301255D01*
X239547400Y-78670745D01*
X239661474Y-79244234D01*
X239986330Y-79730415D01*
X240117500Y-79818060D01*
X240117500Y-80173045D01*
X239912468Y-80378077D01*
X239890526Y-80267766D01*
X239565670Y-79781585D01*
X239225017Y-79553968D01*
X239208148Y-79469161D01*
X239043401Y-79222599D01*
X237769401Y-77948599D01*
X237522839Y-77783852D01*
X237232000Y-77726000D01*
X217417301Y-77726000D01*
X217204054Y-77406853D01*
X216855915Y-77174235D01*
X216855915Y-75450446D01*
X217145969Y-75256639D01*
X217467876Y-74774870D01*
X217580915Y-74206585D01*
X217580915Y-74148399D01*
X217467876Y-73580114D01*
X217145969Y-73098345D01*
X216664200Y-72776438D01*
X216095915Y-72663399D01*
X215527630Y-72776438D01*
X215045861Y-73098345D01*
X214825915Y-73427518D01*
X214605969Y-73098345D01*
X214124200Y-72776438D01*
X213555915Y-72663399D01*
X212987630Y-72776438D01*
X212505861Y-73098345D01*
X212285915Y-73427518D01*
X212065969Y-73098345D01*
X211584200Y-72776438D01*
X211015915Y-72663399D01*
X210447630Y-72776438D01*
X209965861Y-73098345D01*
X209745915Y-73427518D01*
X209525969Y-73098345D01*
X209044200Y-72776438D01*
X208475915Y-72663399D01*
X207907630Y-72776438D01*
X207425861Y-73098345D01*
X207396512Y-73142269D01*
X207324242Y-72967794D01*
X207145614Y-72789165D01*
X206912225Y-72692492D01*
X206221665Y-72692492D01*
X206062915Y-72851242D01*
X206062915Y-74050492D01*
X206082915Y-74050492D01*
X206082915Y-74304492D01*
X206062915Y-74304492D01*
X206062915Y-75503742D01*
X206221665Y-75662492D01*
X206912225Y-75662492D01*
X207145614Y-75565819D01*
X207324242Y-75387190D01*
X207396512Y-75212715D01*
X207425861Y-75256639D01*
X207547415Y-75337859D01*
X207547415Y-77364444D01*
X207483946Y-77406853D01*
X207454597Y-77450777D01*
X207382327Y-77276302D01*
X207203699Y-77097673D01*
X206970310Y-77001000D01*
X206279750Y-77001000D01*
X206121000Y-77159750D01*
X206121000Y-78359000D01*
X206141000Y-78359000D01*
X206141000Y-78613000D01*
X206121000Y-78613000D01*
X206121000Y-79812250D01*
X206279750Y-79971000D01*
X206970310Y-79971000D01*
X207203699Y-79874327D01*
X207382327Y-79695698D01*
X207454597Y-79521223D01*
X207483946Y-79565147D01*
X207605500Y-79646367D01*
X207605500Y-80263995D01*
X207605499Y-80264000D01*
X207663909Y-80557643D01*
X207676178Y-80619322D01*
X207753579Y-80735161D01*
X207877451Y-80920549D01*
X210145500Y-83188597D01*
X210145500Y-85026067D01*
X207212717Y-82093283D01*
X206944906Y-81914337D01*
X206629000Y-81851500D01*
X191776874Y-81851500D01*
X191419370Y-81493371D01*
X191211488Y-81407051D01*
X191417303Y-81322010D01*
X191810629Y-80929370D01*
X192023757Y-80416100D01*
X192024242Y-79860339D01*
X191812010Y-79346697D01*
X191419370Y-78953371D01*
X191211488Y-78867051D01*
X191417303Y-78782010D01*
X191427580Y-78771750D01*
X204509000Y-78771750D01*
X204509000Y-79462309D01*
X204605673Y-79695698D01*
X204784301Y-79874327D01*
X205017690Y-79971000D01*
X205708250Y-79971000D01*
X205867000Y-79812250D01*
X205867000Y-78613000D01*
X204667750Y-78613000D01*
X204509000Y-78771750D01*
X191427580Y-78771750D01*
X191810629Y-78389370D01*
X192023757Y-77876100D01*
X192024076Y-77509691D01*
X204509000Y-77509691D01*
X204509000Y-78200250D01*
X204667750Y-78359000D01*
X205867000Y-78359000D01*
X205867000Y-77159750D01*
X205708250Y-77001000D01*
X205017690Y-77001000D01*
X204784301Y-77097673D01*
X204605673Y-77276302D01*
X204509000Y-77509691D01*
X192024076Y-77509691D01*
X192024242Y-77320339D01*
X191812010Y-76806697D01*
X191419370Y-76413371D01*
X190906100Y-76200243D01*
X190350339Y-76199758D01*
X189836697Y-76411990D01*
X189443371Y-76804630D01*
X189230243Y-77317900D01*
X189229758Y-77873661D01*
X189441990Y-78387303D01*
X189834630Y-78780629D01*
X190042512Y-78866949D01*
X189836697Y-78951990D01*
X189443371Y-79344630D01*
X189230243Y-79857900D01*
X189229758Y-80413661D01*
X189441990Y-80927303D01*
X189834630Y-81320629D01*
X190042512Y-81406949D01*
X189836697Y-81491990D01*
X189443371Y-81884630D01*
X189230243Y-82397900D01*
X189229758Y-82953661D01*
X189441990Y-83467303D01*
X189834630Y-83860629D01*
X190347900Y-84073757D01*
X190856767Y-84074201D01*
X192031998Y-85249431D01*
X192031998Y-87881864D01*
X192008362Y-87409632D01*
X191849397Y-87025857D01*
X191607213Y-86956392D01*
X190806605Y-87757000D01*
X191607213Y-88557608D01*
X191849397Y-88488143D01*
X192031998Y-87976319D01*
X192031998Y-97613442D01*
X192094835Y-97929348D01*
X192273781Y-98197159D01*
X193103500Y-99026877D01*
X193103500Y-107989066D01*
X191897022Y-109195544D01*
X191897242Y-108943339D01*
X191685010Y-108429697D01*
X191292370Y-108036371D01*
X191084488Y-107950051D01*
X191290303Y-107865010D01*
X191683629Y-107472370D01*
X191896757Y-106959100D01*
X191897242Y-106403339D01*
X191685010Y-105889697D01*
X191292370Y-105496371D01*
X190779100Y-105283243D01*
X190223339Y-105282758D01*
X189709697Y-105494990D01*
X189316371Y-105887630D01*
X189103243Y-106400900D01*
X189102758Y-106956661D01*
X189314990Y-107470303D01*
X189707630Y-107863629D01*
X189915512Y-107949949D01*
X189709697Y-108034990D01*
X189316371Y-108427630D01*
X189103243Y-108940900D01*
X189102758Y-109496661D01*
X189314990Y-110010303D01*
X189707630Y-110403629D01*
X189915512Y-110489949D01*
X189709697Y-110574990D01*
X189316371Y-110967630D01*
X189103243Y-111480900D01*
X189102758Y-112036661D01*
X189314990Y-112550303D01*
X189707630Y-112943629D01*
X190220900Y-113156757D01*
X190729767Y-113157201D01*
X193103500Y-115530933D01*
X193103500Y-139485067D01*
X191627167Y-138008733D01*
X191683629Y-137952370D01*
X191896757Y-137439100D01*
X191897242Y-136883339D01*
X191685010Y-136369697D01*
X191292370Y-135976371D01*
X191084488Y-135890051D01*
X191290303Y-135805010D01*
X191683629Y-135412370D01*
X191896757Y-134899100D01*
X191897242Y-134343339D01*
X191685010Y-133829697D01*
X191292370Y-133436371D01*
X191084488Y-133350051D01*
X191290303Y-133265010D01*
X191683629Y-132872370D01*
X191896757Y-132359100D01*
X191897242Y-131803339D01*
X191685010Y-131289697D01*
X191292370Y-130896371D01*
X190779100Y-130683243D01*
X190223339Y-130682758D01*
X189709697Y-130894990D01*
X189316371Y-131287630D01*
X189103243Y-131800900D01*
X189102758Y-132356661D01*
X189314990Y-132870303D01*
X189707630Y-133263629D01*
X189915512Y-133349949D01*
X189709697Y-133434990D01*
X189316371Y-133827630D01*
X189103243Y-134340900D01*
X189102758Y-134896661D01*
X189314990Y-135410303D01*
X189707630Y-135803629D01*
X189915512Y-135889949D01*
X189709697Y-135974990D01*
X189316371Y-136367630D01*
X189103243Y-136880900D01*
X189102758Y-137436661D01*
X189314990Y-137950303D01*
X189707630Y-138343629D01*
X189735398Y-138355159D01*
X189737337Y-138364906D01*
X189916283Y-138632717D01*
X193345281Y-142061714D01*
X193345283Y-142061717D01*
X199009200Y-147725633D01*
X199008758Y-148231661D01*
X199220990Y-148745303D01*
X199613630Y-149138629D01*
X200126900Y-149351757D01*
X200682661Y-149352242D01*
X201196303Y-149140010D01*
X201589629Y-148747370D01*
X201675949Y-148539488D01*
X201760990Y-148745303D01*
X202153630Y-149138629D01*
X202666900Y-149351757D01*
X203222661Y-149352242D01*
X203736303Y-149140010D01*
X204129629Y-148747370D01*
X204215949Y-148539488D01*
X204300990Y-148745303D01*
X204693630Y-149138629D01*
X205206900Y-149351757D01*
X205762661Y-149352242D01*
X206276303Y-149140010D01*
X206669629Y-148747370D01*
X206755949Y-148539488D01*
X206840990Y-148745303D01*
X207233630Y-149138629D01*
X207746900Y-149351757D01*
X208302661Y-149352242D01*
X208335055Y-149338857D01*
X208377158Y-149380960D01*
X208216343Y-149447408D01*
X207868629Y-149794515D01*
X207680215Y-150248266D01*
X207679786Y-150739579D01*
X207867408Y-151193657D01*
X208214515Y-151541371D01*
X208572453Y-151690000D01*
X158190000Y-151690000D01*
X158190000Y-99917000D01*
X159448500Y-99917000D01*
X159448500Y-145309000D01*
X159511337Y-145624906D01*
X159690283Y-145892717D01*
X160431281Y-146633714D01*
X160431283Y-146633717D01*
X160563167Y-146721839D01*
X160699094Y-146812663D01*
X160748560Y-146822502D01*
X160748560Y-146900000D01*
X160792838Y-147135317D01*
X160931910Y-147351441D01*
X161144110Y-147496431D01*
X161396000Y-147547440D01*
X163096000Y-147547440D01*
X163331317Y-147503162D01*
X163547441Y-147364090D01*
X163692431Y-147151890D01*
X163743440Y-146900000D01*
X163743440Y-145271994D01*
X165480978Y-143534455D01*
X165480758Y-143786661D01*
X165692990Y-144300303D01*
X166085630Y-144693629D01*
X166293512Y-144779949D01*
X166087697Y-144864990D01*
X165694371Y-145257630D01*
X165481243Y-145770900D01*
X165480758Y-146326661D01*
X165692990Y-146840303D01*
X166085630Y-147233629D01*
X166598900Y-147446757D01*
X167154661Y-147447242D01*
X167668303Y-147235010D01*
X168061629Y-146842370D01*
X168274757Y-146329100D01*
X168275201Y-145820233D01*
X171397612Y-142697822D01*
X171534990Y-143030303D01*
X171927630Y-143423629D01*
X172135512Y-143509949D01*
X171929697Y-143594990D01*
X171536371Y-143987630D01*
X171323243Y-144500900D01*
X171322758Y-145056661D01*
X171534990Y-145570303D01*
X171927630Y-145963629D01*
X172135512Y-146049949D01*
X171929697Y-146134990D01*
X171536371Y-146527630D01*
X171323243Y-147040900D01*
X171322758Y-147596661D01*
X171534990Y-148110303D01*
X171927630Y-148503629D01*
X172440900Y-148716757D01*
X172996661Y-148717242D01*
X173510303Y-148505010D01*
X173903629Y-148112370D01*
X174116757Y-147599100D01*
X174117242Y-147043339D01*
X174103857Y-147010945D01*
X176844802Y-144270000D01*
X183460469Y-144270000D01*
X183472990Y-144300303D01*
X183865630Y-144693629D01*
X184073512Y-144779949D01*
X183867697Y-144864990D01*
X183474371Y-145257630D01*
X183261243Y-145770900D01*
X183260758Y-146326661D01*
X183472990Y-146840303D01*
X183865630Y-147233629D01*
X184378900Y-147446757D01*
X184934661Y-147447242D01*
X185448303Y-147235010D01*
X185841629Y-146842370D01*
X186054757Y-146329100D01*
X186055242Y-145773339D01*
X185843010Y-145259697D01*
X185640329Y-145056661D01*
X189102758Y-145056661D01*
X189314990Y-145570303D01*
X189707630Y-145963629D01*
X189915512Y-146049949D01*
X189709697Y-146134990D01*
X189316371Y-146527630D01*
X189103243Y-147040900D01*
X189102758Y-147596661D01*
X189314990Y-148110303D01*
X189707630Y-148503629D01*
X190220900Y-148716757D01*
X190776661Y-148717242D01*
X191290303Y-148505010D01*
X191683629Y-148112370D01*
X191896757Y-147599100D01*
X191897242Y-147043339D01*
X191685010Y-146529697D01*
X191292370Y-146136371D01*
X191084488Y-146050051D01*
X191290303Y-145965010D01*
X191683629Y-145572370D01*
X191896757Y-145059100D01*
X191897242Y-144503339D01*
X191685010Y-143989697D01*
X191292370Y-143596371D01*
X191100273Y-143516605D01*
X191231143Y-143462397D01*
X191300608Y-143220213D01*
X190500000Y-142419605D01*
X189699392Y-143220213D01*
X189768857Y-143462397D01*
X189909318Y-143512509D01*
X189709697Y-143594990D01*
X189316371Y-143987630D01*
X189103243Y-144500900D01*
X189102758Y-145056661D01*
X185640329Y-145056661D01*
X185450370Y-144866371D01*
X185242488Y-144780051D01*
X185448303Y-144695010D01*
X185841629Y-144302370D01*
X186054757Y-143789100D01*
X186055242Y-143233339D01*
X185843010Y-142719697D01*
X185450370Y-142326371D01*
X185242488Y-142240051D01*
X185448303Y-142155010D01*
X185571225Y-142032302D01*
X189090856Y-142032302D01*
X189118638Y-142587368D01*
X189277603Y-142971143D01*
X189519787Y-143040608D01*
X190320395Y-142240000D01*
X190679605Y-142240000D01*
X191480213Y-143040608D01*
X191722397Y-142971143D01*
X191909144Y-142447698D01*
X191881362Y-141892632D01*
X191722397Y-141508857D01*
X191480213Y-141439392D01*
X190679605Y-142240000D01*
X190320395Y-142240000D01*
X189519787Y-141439392D01*
X189277603Y-141508857D01*
X189090856Y-142032302D01*
X185571225Y-142032302D01*
X185841629Y-141762370D01*
X186050319Y-141259787D01*
X189699392Y-141259787D01*
X190500000Y-142060395D01*
X191300608Y-141259787D01*
X191231143Y-141017603D01*
X190707698Y-140830856D01*
X190152632Y-140858638D01*
X189768857Y-141017603D01*
X189699392Y-141259787D01*
X186050319Y-141259787D01*
X186054757Y-141249100D01*
X186055242Y-140693339D01*
X185843010Y-140179697D01*
X185450370Y-139786371D01*
X184937100Y-139573243D01*
X184381339Y-139572758D01*
X183867697Y-139784990D01*
X183474371Y-140177630D01*
X183460930Y-140210000D01*
X177607630Y-140210000D01*
X177316791Y-140267852D01*
X177070229Y-140432599D01*
X173709242Y-143793586D01*
X173512370Y-143596371D01*
X173304488Y-143510051D01*
X173510303Y-143425010D01*
X173903629Y-143032370D01*
X174116757Y-142519100D01*
X174117242Y-141963339D01*
X173905010Y-141449697D01*
X173512370Y-141056371D01*
X173177932Y-140917501D01*
X173303714Y-140791719D01*
X173303717Y-140791717D01*
X173482663Y-140523905D01*
X173506968Y-140401715D01*
X173545501Y-140208000D01*
X173545500Y-140207995D01*
X173545500Y-138309874D01*
X173903629Y-137952370D01*
X174116757Y-137439100D01*
X174117242Y-136883339D01*
X173905010Y-136369697D01*
X173512370Y-135976371D01*
X173304488Y-135890051D01*
X173510303Y-135805010D01*
X173903629Y-135412370D01*
X174116757Y-134899100D01*
X174117242Y-134343339D01*
X173905010Y-133829697D01*
X173512370Y-133436371D01*
X173304488Y-133350051D01*
X173510303Y-133265010D01*
X173903629Y-132872370D01*
X174116757Y-132359100D01*
X174117242Y-131803339D01*
X173905010Y-131289697D01*
X173512370Y-130896371D01*
X172999100Y-130683243D01*
X172443339Y-130682758D01*
X171929697Y-130894990D01*
X171536371Y-131287630D01*
X171323243Y-131800900D01*
X171322758Y-132356661D01*
X171534990Y-132870303D01*
X171927630Y-133263629D01*
X172135512Y-133349949D01*
X171929697Y-133434990D01*
X171536371Y-133827630D01*
X171323243Y-134340900D01*
X171322758Y-134896661D01*
X171534990Y-135410303D01*
X171927630Y-135803629D01*
X172135512Y-135889949D01*
X171929697Y-135974990D01*
X171536371Y-136367630D01*
X171323243Y-136880900D01*
X171322758Y-137436661D01*
X171534990Y-137950303D01*
X171894500Y-138310441D01*
X171894500Y-139866067D01*
X168275022Y-143485544D01*
X168275242Y-143233339D01*
X168063010Y-142719697D01*
X167670370Y-142326371D01*
X167462488Y-142240051D01*
X167668303Y-142155010D01*
X168061629Y-141762370D01*
X168274757Y-141249100D01*
X168275242Y-140693339D01*
X168063010Y-140179697D01*
X167670370Y-139786371D01*
X167157100Y-139573243D01*
X166601339Y-139572758D01*
X166087697Y-139784990D01*
X165694371Y-140177630D01*
X165481243Y-140690900D01*
X165480799Y-141199768D01*
X163662284Y-143018282D01*
X163647054Y-142941715D01*
X163325147Y-142459946D01*
X162995974Y-142240000D01*
X163325147Y-142020054D01*
X163647054Y-141538285D01*
X163760093Y-140970000D01*
X163647054Y-140401715D01*
X163325147Y-139919946D01*
X162843378Y-139598039D01*
X162275093Y-139485000D01*
X162216907Y-139485000D01*
X161648622Y-139598039D01*
X161166853Y-139919946D01*
X161099500Y-140020747D01*
X161099500Y-130985950D01*
X161144110Y-131016431D01*
X161396000Y-131067440D01*
X163096000Y-131067440D01*
X163331317Y-131023162D01*
X163547441Y-130884090D01*
X163692431Y-130671890D01*
X163743440Y-130420000D01*
X163743440Y-128761994D01*
X165480978Y-127024455D01*
X165480758Y-127276661D01*
X165692990Y-127790303D01*
X166085630Y-128183629D01*
X166293512Y-128269949D01*
X166087697Y-128354990D01*
X165694371Y-128747630D01*
X165481243Y-129260900D01*
X165480758Y-129816661D01*
X165692990Y-130330303D01*
X166085630Y-130723629D01*
X166598900Y-130936757D01*
X167154661Y-130937242D01*
X167668303Y-130725010D01*
X168061629Y-130332370D01*
X168274757Y-129819100D01*
X168275242Y-129263339D01*
X168063010Y-128749697D01*
X167670370Y-128356371D01*
X167462488Y-128270051D01*
X167668303Y-128185010D01*
X168061629Y-127792370D01*
X168274757Y-127279100D01*
X168275242Y-126723339D01*
X168063010Y-126209697D01*
X167670370Y-125816371D01*
X167462488Y-125730051D01*
X167668303Y-125645010D01*
X168061629Y-125252370D01*
X168274757Y-124739100D01*
X168275242Y-124183339D01*
X168063010Y-123669697D01*
X167670370Y-123276371D01*
X167157100Y-123063243D01*
X166601339Y-123062758D01*
X166087697Y-123274990D01*
X165694371Y-123667630D01*
X165481243Y-124180900D01*
X165480799Y-124689768D01*
X163657307Y-126513260D01*
X163647054Y-126461715D01*
X163325147Y-125979946D01*
X162995974Y-125760000D01*
X163325147Y-125540054D01*
X163647054Y-125058285D01*
X163760093Y-124490000D01*
X163647054Y-123921715D01*
X163325147Y-123439946D01*
X162843378Y-123118039D01*
X162275093Y-123005000D01*
X162216907Y-123005000D01*
X161648622Y-123118039D01*
X161166853Y-123439946D01*
X161099500Y-123540747D01*
X161099500Y-117116661D01*
X171322758Y-117116661D01*
X171534990Y-117630303D01*
X171927630Y-118023629D01*
X172135512Y-118109949D01*
X171929697Y-118194990D01*
X171536371Y-118587630D01*
X171323243Y-119100900D01*
X171322758Y-119656661D01*
X171534990Y-120170303D01*
X171927630Y-120563629D01*
X172135512Y-120649949D01*
X171929697Y-120734990D01*
X171536371Y-121127630D01*
X171323243Y-121640900D01*
X171322758Y-122196661D01*
X171534990Y-122710303D01*
X171927630Y-123103629D01*
X172440900Y-123316757D01*
X172996661Y-123317242D01*
X173510303Y-123105010D01*
X173903629Y-122712370D01*
X173917070Y-122680000D01*
X179263198Y-122680000D01*
X183273817Y-126690619D01*
X183261243Y-126720900D01*
X183260758Y-127276661D01*
X183472990Y-127790303D01*
X183865630Y-128183629D01*
X184073512Y-128269949D01*
X183867697Y-128354990D01*
X183474371Y-128747630D01*
X183261243Y-129260900D01*
X183260758Y-129816661D01*
X183472990Y-130330303D01*
X183865630Y-130723629D01*
X184378900Y-130936757D01*
X184934661Y-130937242D01*
X185448303Y-130725010D01*
X185841629Y-130332370D01*
X186054757Y-129819100D01*
X186055242Y-129263339D01*
X185843010Y-128749697D01*
X185450370Y-128356371D01*
X185242488Y-128270051D01*
X185448303Y-128185010D01*
X185841629Y-127792370D01*
X186054757Y-127279100D01*
X186055242Y-126723339D01*
X185843010Y-126209697D01*
X185450370Y-125816371D01*
X185242488Y-125730051D01*
X185448303Y-125645010D01*
X185841629Y-125252370D01*
X186054757Y-124739100D01*
X186055242Y-124183339D01*
X185843010Y-123669697D01*
X185450370Y-123276371D01*
X184937100Y-123063243D01*
X184381339Y-123062758D01*
X184348945Y-123076143D01*
X180929463Y-119656661D01*
X189102758Y-119656661D01*
X189314990Y-120170303D01*
X189707630Y-120563629D01*
X189915512Y-120649949D01*
X189709697Y-120734990D01*
X189316371Y-121127630D01*
X189103243Y-121640900D01*
X189102758Y-122196661D01*
X189314990Y-122710303D01*
X189707630Y-123103629D01*
X190220900Y-123316757D01*
X190776661Y-123317242D01*
X191290303Y-123105010D01*
X191683629Y-122712370D01*
X191896757Y-122199100D01*
X191897242Y-121643339D01*
X191685010Y-121129697D01*
X191292370Y-120736371D01*
X191084488Y-120650051D01*
X191290303Y-120565010D01*
X191683629Y-120172370D01*
X191896757Y-119659100D01*
X191897242Y-119103339D01*
X191685010Y-118589697D01*
X191292370Y-118196371D01*
X191100273Y-118116605D01*
X191231143Y-118062397D01*
X191300608Y-117820213D01*
X190500000Y-117019605D01*
X189699392Y-117820213D01*
X189768857Y-118062397D01*
X189909318Y-118112509D01*
X189709697Y-118194990D01*
X189316371Y-118587630D01*
X189103243Y-119100900D01*
X189102758Y-119656661D01*
X180929463Y-119656661D01*
X180115401Y-118842599D01*
X179868839Y-118677852D01*
X179578000Y-118620000D01*
X173917531Y-118620000D01*
X173905010Y-118589697D01*
X173512370Y-118196371D01*
X173304488Y-118110051D01*
X173510303Y-118025010D01*
X173903629Y-117632370D01*
X174116757Y-117119100D01*
X174117181Y-116632302D01*
X189090856Y-116632302D01*
X189118638Y-117187368D01*
X189277603Y-117571143D01*
X189519787Y-117640608D01*
X190320395Y-116840000D01*
X190679605Y-116840000D01*
X191480213Y-117640608D01*
X191722397Y-117571143D01*
X191909144Y-117047698D01*
X191881362Y-116492632D01*
X191722397Y-116108857D01*
X191480213Y-116039392D01*
X190679605Y-116840000D01*
X190320395Y-116840000D01*
X189519787Y-116039392D01*
X189277603Y-116108857D01*
X189090856Y-116632302D01*
X174117181Y-116632302D01*
X174117242Y-116563339D01*
X173905010Y-116049697D01*
X173715432Y-115859787D01*
X189699392Y-115859787D01*
X190500000Y-116660395D01*
X191300608Y-115859787D01*
X191231143Y-115617603D01*
X190707698Y-115430856D01*
X190152632Y-115458638D01*
X189768857Y-115617603D01*
X189699392Y-115859787D01*
X173715432Y-115859787D01*
X173512370Y-115656371D01*
X172999100Y-115443243D01*
X172443339Y-115442758D01*
X171929697Y-115654990D01*
X171536371Y-116047630D01*
X171323243Y-116560900D01*
X171322758Y-117116661D01*
X161099500Y-117116661D01*
X161099500Y-114167156D01*
X161185910Y-114301441D01*
X161398110Y-114446431D01*
X161650000Y-114497440D01*
X163350000Y-114497440D01*
X163585317Y-114453162D01*
X163801441Y-114314090D01*
X163946431Y-114101890D01*
X163997440Y-113850000D01*
X163997440Y-112150000D01*
X163962599Y-111964835D01*
X165442978Y-110484456D01*
X165442758Y-110736661D01*
X165654990Y-111250303D01*
X166047630Y-111643629D01*
X166255512Y-111729949D01*
X166049697Y-111814990D01*
X165656371Y-112207630D01*
X165443243Y-112720900D01*
X165442758Y-113276661D01*
X165654990Y-113790303D01*
X166047630Y-114183629D01*
X166560900Y-114396757D01*
X167116661Y-114397242D01*
X167630303Y-114185010D01*
X168023629Y-113792370D01*
X168236757Y-113279100D01*
X168237201Y-112770232D01*
X168576215Y-112431218D01*
X168576218Y-112431216D01*
X168755164Y-112163404D01*
X168757830Y-112150000D01*
X168818002Y-111847499D01*
X168818001Y-111847494D01*
X168818001Y-106956661D01*
X171322758Y-106956661D01*
X171534990Y-107470303D01*
X171927630Y-107863629D01*
X172135512Y-107949949D01*
X171929697Y-108034990D01*
X171536371Y-108427630D01*
X171323243Y-108940900D01*
X171322758Y-109496661D01*
X171534990Y-110010303D01*
X171927630Y-110403629D01*
X172135512Y-110489949D01*
X171929697Y-110574990D01*
X171536371Y-110967630D01*
X171323243Y-111480900D01*
X171322758Y-112036661D01*
X171534990Y-112550303D01*
X171927630Y-112943629D01*
X172440900Y-113156757D01*
X172996661Y-113157242D01*
X173510303Y-112945010D01*
X173903629Y-112552370D01*
X174116757Y-112039100D01*
X174117242Y-111483339D01*
X173905010Y-110969697D01*
X173512370Y-110576371D01*
X173304488Y-110490051D01*
X173510303Y-110405010D01*
X173903629Y-110012370D01*
X174116757Y-109499100D01*
X174117242Y-108943339D01*
X173905010Y-108429697D01*
X173512370Y-108036371D01*
X173304488Y-107950051D01*
X173510303Y-107865010D01*
X173903629Y-107472370D01*
X174116757Y-106959100D01*
X174117242Y-106403339D01*
X173905010Y-105889697D01*
X173512370Y-105496371D01*
X172999100Y-105283243D01*
X172443339Y-105282758D01*
X171929697Y-105494990D01*
X171536371Y-105887630D01*
X171323243Y-106400900D01*
X171322758Y-106956661D01*
X168818001Y-106956661D01*
X168818001Y-88033661D01*
X171449758Y-88033661D01*
X171661990Y-88547303D01*
X172054630Y-88940629D01*
X172262512Y-89026949D01*
X172056697Y-89111990D01*
X171663371Y-89504630D01*
X171450243Y-90017900D01*
X171449758Y-90573661D01*
X171661990Y-91087303D01*
X172054630Y-91480629D01*
X172262512Y-91566949D01*
X172056697Y-91651990D01*
X171663371Y-92044630D01*
X171450243Y-92557900D01*
X171449758Y-93113661D01*
X171661990Y-93627303D01*
X172054630Y-94020629D01*
X172567900Y-94233757D01*
X173123661Y-94234242D01*
X173637303Y-94022010D01*
X174030629Y-93629370D01*
X174044070Y-93597000D01*
X175086890Y-93597000D01*
X175086838Y-93657167D01*
X175228883Y-94000943D01*
X175491673Y-94264192D01*
X175835201Y-94406838D01*
X175882077Y-94406879D01*
X180215000Y-98739802D01*
X180215000Y-109355000D01*
X180272852Y-109645839D01*
X180437599Y-109892401D01*
X183235817Y-112690619D01*
X183223243Y-112720900D01*
X183222758Y-113276661D01*
X183434990Y-113790303D01*
X183827630Y-114183629D01*
X184340900Y-114396757D01*
X184896661Y-114397242D01*
X185410303Y-114185010D01*
X185803629Y-113792370D01*
X186016757Y-113279100D01*
X186017242Y-112723339D01*
X185805010Y-112209697D01*
X185412370Y-111816371D01*
X185204488Y-111730051D01*
X185410303Y-111645010D01*
X185803629Y-111252370D01*
X186016757Y-110739100D01*
X186017242Y-110183339D01*
X185805010Y-109669697D01*
X185412370Y-109276371D01*
X185204488Y-109190051D01*
X185410303Y-109105010D01*
X185803629Y-108712370D01*
X186016757Y-108199100D01*
X186017242Y-107643339D01*
X185805010Y-107129697D01*
X185412370Y-106736371D01*
X185380000Y-106722930D01*
X185380000Y-100508585D01*
X185322148Y-100217746D01*
X185157401Y-99971184D01*
X176842878Y-91656661D01*
X183222758Y-91656661D01*
X183434990Y-92170303D01*
X183827630Y-92563629D01*
X184035512Y-92649949D01*
X183829697Y-92734990D01*
X183436371Y-93127630D01*
X183223243Y-93640900D01*
X183222758Y-94196661D01*
X183434990Y-94710303D01*
X183827630Y-95103629D01*
X184035512Y-95189949D01*
X183829697Y-95274990D01*
X183436371Y-95667630D01*
X183223243Y-96180900D01*
X183222758Y-96736661D01*
X183434990Y-97250303D01*
X183827630Y-97643629D01*
X183860000Y-97657070D01*
X183860000Y-97752000D01*
X183917852Y-98042839D01*
X184082599Y-98289401D01*
X189183878Y-103390680D01*
X189183838Y-103436167D01*
X189325883Y-103779943D01*
X189588673Y-104043192D01*
X189932201Y-104185838D01*
X190304167Y-104186162D01*
X190647943Y-104044117D01*
X190911192Y-103781327D01*
X191053838Y-103437799D01*
X191054162Y-103065833D01*
X190912117Y-102722057D01*
X190649327Y-102458808D01*
X190305799Y-102316162D01*
X190258923Y-102316121D01*
X185499135Y-97556333D01*
X185803629Y-97252370D01*
X186016757Y-96739100D01*
X186017242Y-96183339D01*
X185805010Y-95669697D01*
X185412370Y-95276371D01*
X185204488Y-95190051D01*
X185410303Y-95105010D01*
X185803629Y-94712370D01*
X186016757Y-94199100D01*
X186017242Y-93643339D01*
X185805010Y-93129697D01*
X185412370Y-92736371D01*
X185204488Y-92650051D01*
X185410303Y-92565010D01*
X185803629Y-92172370D01*
X186016757Y-91659100D01*
X186017242Y-91103339D01*
X185805010Y-90589697D01*
X185789002Y-90573661D01*
X189229758Y-90573661D01*
X189441990Y-91087303D01*
X189834630Y-91480629D01*
X190042512Y-91566949D01*
X189836697Y-91651990D01*
X189443371Y-92044630D01*
X189230243Y-92557900D01*
X189229758Y-93113661D01*
X189441990Y-93627303D01*
X189834630Y-94020629D01*
X190347900Y-94233757D01*
X190903661Y-94234242D01*
X191417303Y-94022010D01*
X191810629Y-93629370D01*
X192023757Y-93116100D01*
X192024242Y-92560339D01*
X191812010Y-92046697D01*
X191419370Y-91653371D01*
X191211488Y-91567051D01*
X191417303Y-91482010D01*
X191810629Y-91089370D01*
X192023757Y-90576100D01*
X192024242Y-90020339D01*
X191812010Y-89506697D01*
X191419370Y-89113371D01*
X191227273Y-89033605D01*
X191358143Y-88979397D01*
X191427608Y-88737213D01*
X190627000Y-87936605D01*
X189826392Y-88737213D01*
X189895857Y-88979397D01*
X190036318Y-89029509D01*
X189836697Y-89111990D01*
X189443371Y-89504630D01*
X189230243Y-90017900D01*
X189229758Y-90573661D01*
X185789002Y-90573661D01*
X185412370Y-90196371D01*
X184899100Y-89983243D01*
X184343339Y-89982758D01*
X183829697Y-90194990D01*
X183436371Y-90587630D01*
X183223243Y-91100900D01*
X183222758Y-91656661D01*
X176842878Y-91656661D01*
X174945816Y-89759599D01*
X174699254Y-89594852D01*
X174408415Y-89537000D01*
X174044531Y-89537000D01*
X174032010Y-89506697D01*
X173639370Y-89113371D01*
X173431488Y-89027051D01*
X173637303Y-88942010D01*
X174030629Y-88549370D01*
X174243757Y-88036100D01*
X174244181Y-87549302D01*
X189217856Y-87549302D01*
X189245638Y-88104368D01*
X189404603Y-88488143D01*
X189646787Y-88557608D01*
X190447395Y-87757000D01*
X189646787Y-86956392D01*
X189404603Y-87025857D01*
X189217856Y-87549302D01*
X174244181Y-87549302D01*
X174244242Y-87480339D01*
X174032010Y-86966697D01*
X173842432Y-86776787D01*
X189826392Y-86776787D01*
X190627000Y-87577395D01*
X191427608Y-86776787D01*
X191358143Y-86534603D01*
X190834698Y-86347856D01*
X190279632Y-86375638D01*
X189895857Y-86534603D01*
X189826392Y-86776787D01*
X173842432Y-86776787D01*
X173639370Y-86573371D01*
X173126100Y-86360243D01*
X172570339Y-86359758D01*
X172056697Y-86571990D01*
X171663371Y-86964630D01*
X171450243Y-87477900D01*
X171449758Y-88033661D01*
X168818001Y-88033661D01*
X168818001Y-87873433D01*
X172617634Y-84073800D01*
X173123661Y-84074242D01*
X173637303Y-83862010D01*
X174030629Y-83469370D01*
X174243757Y-82956100D01*
X174244242Y-82400339D01*
X174032010Y-81886697D01*
X173639370Y-81493371D01*
X173431488Y-81407051D01*
X173637303Y-81322010D01*
X174030629Y-80929370D01*
X174243757Y-80416100D01*
X174244242Y-79860339D01*
X174032010Y-79346697D01*
X173639370Y-78953371D01*
X173431488Y-78867051D01*
X173637303Y-78782010D01*
X174030629Y-78389370D01*
X174243757Y-77876100D01*
X174244242Y-77320339D01*
X174032010Y-76806697D01*
X173639370Y-76413371D01*
X173126100Y-76200243D01*
X172570339Y-76199758D01*
X172056697Y-76411990D01*
X171663371Y-76804630D01*
X171450243Y-77317900D01*
X171449758Y-77873661D01*
X171661990Y-78387303D01*
X172054630Y-78780629D01*
X172262512Y-78866949D01*
X172056697Y-78951990D01*
X171663371Y-79344630D01*
X171450243Y-79857900D01*
X171449758Y-80413661D01*
X171661990Y-80927303D01*
X172054630Y-81320629D01*
X172262512Y-81406949D01*
X172056697Y-81491990D01*
X171663371Y-81884630D01*
X171450243Y-82397900D01*
X171449799Y-82906767D01*
X167408784Y-86947782D01*
X167229838Y-87215593D01*
X167223193Y-87249000D01*
X167167001Y-87531499D01*
X167167001Y-90003133D01*
X167119100Y-89983243D01*
X166563339Y-89982758D01*
X166049697Y-90194990D01*
X165656371Y-90587630D01*
X165443243Y-91100900D01*
X165442799Y-91609767D01*
X163820864Y-93231702D01*
X163579147Y-92869946D01*
X163249974Y-92650000D01*
X163579147Y-92430054D01*
X163901054Y-91948285D01*
X164014093Y-91380000D01*
X163901054Y-90811715D01*
X163579147Y-90329946D01*
X163097378Y-90008039D01*
X162529093Y-89895000D01*
X162470907Y-89895000D01*
X161902622Y-90008039D01*
X161420853Y-90329946D01*
X161098946Y-90811715D01*
X160985907Y-91380000D01*
X161098946Y-91948285D01*
X161420853Y-92430054D01*
X161750026Y-92650000D01*
X161420853Y-92869946D01*
X161098946Y-93351715D01*
X160985907Y-93920000D01*
X161098946Y-94488285D01*
X161420853Y-94970054D01*
X161462452Y-94997850D01*
X161414683Y-95006838D01*
X161198559Y-95145910D01*
X161053569Y-95358110D01*
X161002560Y-95610000D01*
X161002560Y-97310000D01*
X161046838Y-97545317D01*
X161185910Y-97761441D01*
X161231188Y-97792378D01*
X159690283Y-99333283D01*
X159511337Y-99601094D01*
X159511337Y-99601095D01*
X159448500Y-99917000D01*
X158190000Y-99917000D01*
X158190000Y-74463242D01*
X204450915Y-74463242D01*
X204450915Y-75153801D01*
X204547588Y-75387190D01*
X204726216Y-75565819D01*
X204959605Y-75662492D01*
X205650165Y-75662492D01*
X205808915Y-75503742D01*
X205808915Y-74304492D01*
X204609665Y-74304492D01*
X204450915Y-74463242D01*
X158190000Y-74463242D01*
X158190000Y-73201183D01*
X204450915Y-73201183D01*
X204450915Y-73891742D01*
X204609665Y-74050492D01*
X205808915Y-74050492D01*
X205808915Y-72851242D01*
X205650165Y-72692492D01*
X204959605Y-72692492D01*
X204726216Y-72789165D01*
X204547588Y-72967794D01*
X204450915Y-73201183D01*
X158190000Y-73201183D01*
X158190000Y-71830000D01*
X232886340Y-71830000D01*
X232852511Y-71836729D01*
M02*
