G04 #@! TF.FileFunction,Legend,Bot*
%FSLAX46Y46*%
G04 Gerber Fmt 4.6, Leading zero omitted, Abs format (unit mm)*
G04 Created by KiCad (PCBNEW 4.0.6) date 05/30/17 18:11:38*
%MOMM*%
%LPD*%
G01*
G04 APERTURE LIST*
%ADD10C,0.100000*%
%ADD11C,0.150000*%
G04 APERTURE END LIST*
D10*
D11*
X199136000Y-126365000D02*
X199136000Y-149225000D01*
X229616000Y-126365000D02*
X199136000Y-126365000D01*
X229616000Y-149225000D02*
X229616000Y-126365000D01*
X199136000Y-149225000D02*
X229616000Y-149225000D01*
X185890000Y-100270000D02*
X185890000Y-87570000D01*
X165570000Y-100270000D02*
X185890000Y-100270000D01*
X165570000Y-87570000D02*
X165570000Y-100270000D01*
X185890000Y-87570000D02*
X165570000Y-87570000D01*
X185890000Y-116810000D02*
X185890000Y-104110000D01*
X165570000Y-116810000D02*
X185890000Y-116810000D01*
X165570000Y-104110000D02*
X165570000Y-116810000D01*
X185890000Y-104110000D02*
X165570000Y-104110000D01*
X185928000Y-133350000D02*
X185928000Y-120650000D01*
X165608000Y-133350000D02*
X185928000Y-133350000D01*
X165608000Y-120650000D02*
X165608000Y-133350000D01*
X185928000Y-120650000D02*
X165608000Y-120650000D01*
X185928000Y-149860000D02*
X185928000Y-137160000D01*
X165608000Y-149860000D02*
X185928000Y-149860000D01*
X165608000Y-137160000D02*
X165608000Y-149860000D01*
X185928000Y-137160000D02*
X165608000Y-137160000D01*
M02*
