G04 #@! TF.FileFunction,Copper,L1,Top,Signal*
%FSLAX46Y46*%
G04 Gerber Fmt 4.6, Leading zero omitted, Abs format (unit mm)*
G04 Created by KiCad (PCBNEW 4.0.5) date 03/23/17 16:30:41*
%MOMM*%
%LPD*%
G01*
G04 APERTURE LIST*
%ADD10C,0.100000*%
%ADD11C,1.524000*%
%ADD12C,1.200000*%
%ADD13R,1.200000X0.900000*%
%ADD14R,1.700000X1.700000*%
%ADD15O,1.700000X1.700000*%
%ADD16O,1.727200X2.032000*%
%ADD17C,0.600000*%
%ADD18C,0.587000*%
%ADD19C,0.250000*%
%ADD20C,0.254000*%
G04 APERTURE END LIST*
D10*
D11*
X189000000Y-105380000D03*
X189000000Y-102840000D03*
X189000000Y-100300000D03*
X189000000Y-110460000D03*
X189000000Y-113000000D03*
X189000000Y-115540000D03*
X171220000Y-100300000D03*
X171220000Y-102840000D03*
X171220000Y-105380000D03*
X171220000Y-110460000D03*
X171220000Y-113000000D03*
X171220000Y-115540000D03*
X184620000Y-113000000D03*
X184620000Y-110460000D03*
X184620000Y-107920000D03*
X166840000Y-113000000D03*
X166840000Y-110460000D03*
X166840000Y-107920000D03*
X184658000Y-129540000D03*
X184658000Y-127000000D03*
X184658000Y-124460000D03*
X166878000Y-129540000D03*
X166878000Y-127000000D03*
X166878000Y-124460000D03*
X184658000Y-146050000D03*
X184658000Y-143510000D03*
X184658000Y-140970000D03*
X166878000Y-146050000D03*
X166878000Y-143510000D03*
X166878000Y-140970000D03*
X184620000Y-96460000D03*
X184620000Y-93920000D03*
X184620000Y-91380000D03*
X166840000Y-96460000D03*
X166840000Y-93920000D03*
X166840000Y-91380000D03*
D12*
X242824000Y-130048000D03*
X240284000Y-130048000D03*
X237744000Y-130048000D03*
X235204000Y-130048000D03*
X232664000Y-150368000D03*
X232664000Y-130048000D03*
X230124000Y-150368000D03*
X230124000Y-130048000D03*
X227584000Y-150368000D03*
X227584000Y-130048000D03*
X225044000Y-150368000D03*
X225044000Y-130048000D03*
X222504000Y-150368000D03*
X222504000Y-130048000D03*
X219964000Y-150368000D03*
X219964000Y-130048000D03*
X217424000Y-150368000D03*
X217424000Y-130048000D03*
X214884000Y-150368000D03*
X214884000Y-130048000D03*
X212344000Y-150368000D03*
X212344000Y-130048000D03*
X209804000Y-150368000D03*
X209804000Y-130048000D03*
X207264000Y-150368000D03*
X207264000Y-130048000D03*
X204724000Y-150368000D03*
X204724000Y-130048000D03*
D13*
X160105390Y-73660000D03*
X162305390Y-73660000D03*
X160105390Y-78232000D03*
X162305390Y-78232000D03*
X160106000Y-82804000D03*
X162306000Y-82804000D03*
X167005390Y-73660000D03*
X164805390Y-73660000D03*
X167005390Y-78232000D03*
X164805390Y-78232000D03*
X167005000Y-82804000D03*
X164805000Y-82804000D03*
D11*
X229108000Y-87884000D03*
X231648000Y-87884000D03*
X231648000Y-123444000D03*
X229108000Y-123444000D03*
D14*
X205994000Y-78486000D03*
D15*
X208534000Y-78486000D03*
X211074000Y-78486000D03*
X213614000Y-78486000D03*
X216154000Y-78486000D03*
D14*
X205935915Y-74177492D03*
D15*
X208475915Y-74177492D03*
X211015915Y-74177492D03*
X213555915Y-74177492D03*
X216095915Y-74177492D03*
D14*
X205994000Y-87122000D03*
D15*
X208534000Y-87122000D03*
X211074000Y-87122000D03*
D16*
X238506000Y-81026000D03*
X235966000Y-81026000D03*
X233426000Y-81026000D03*
X241046000Y-78486000D03*
X241046000Y-75946000D03*
X238506000Y-73406000D03*
X235966000Y-73406000D03*
X233426000Y-73406000D03*
D14*
X162500000Y-113000000D03*
D15*
X162500000Y-110460000D03*
X162500000Y-107920000D03*
D14*
X162246000Y-129570000D03*
D15*
X162246000Y-127030000D03*
X162246000Y-124490000D03*
D14*
X162246000Y-146050000D03*
D15*
X162246000Y-143510000D03*
X162246000Y-140970000D03*
D14*
X162500000Y-96460000D03*
D15*
X162500000Y-93920000D03*
X162500000Y-91380000D03*
D11*
X173228000Y-122682000D03*
X173228000Y-125222000D03*
X173228000Y-127762000D03*
X173228000Y-130302000D03*
X173228000Y-132842000D03*
X173228000Y-135382000D03*
X173228000Y-137922000D03*
X173228000Y-140462000D03*
X173228000Y-143002000D03*
X173228000Y-145542000D03*
X173228000Y-148082000D03*
X193548000Y-148082000D03*
X193548000Y-145542000D03*
X193548000Y-143002000D03*
X193548000Y-140462000D03*
X193548000Y-137922000D03*
X193548000Y-135382000D03*
X193548000Y-122682000D03*
X193548000Y-125222000D03*
X193548000Y-127762000D03*
X193548000Y-130302000D03*
X193548000Y-132842000D03*
X173228000Y-150622000D03*
X193548000Y-150622000D03*
D17*
X160020000Y-75946000D03*
X160020000Y-80518000D03*
X207264000Y-125730000D03*
X205867000Y-148145500D03*
X208534000Y-101600000D03*
D18*
X162500000Y-113000000D02*
X166840000Y-113000000D01*
X162500000Y-110460000D02*
X166840000Y-110460000D01*
X166878000Y-129540000D02*
X162276000Y-129540000D01*
X162276000Y-129540000D02*
X162246000Y-129570000D01*
X162246000Y-127030000D02*
X166848000Y-127030000D01*
X166848000Y-127030000D02*
X166878000Y-127000000D01*
X166878000Y-146050000D02*
X162246000Y-146050000D01*
X162246000Y-143510000D02*
X166878000Y-143510000D01*
X166840000Y-96460000D02*
X162500000Y-96460000D01*
X162500000Y-93920000D02*
X166840000Y-93920000D01*
D19*
X160105390Y-78232000D02*
X160105390Y-80432610D01*
X160105390Y-80432610D02*
X160020000Y-80518000D01*
X160105390Y-73660000D02*
X160105390Y-75860610D01*
X160105390Y-75860610D02*
X160020000Y-75946000D01*
X160105390Y-78232000D02*
X160105390Y-76031390D01*
X160105390Y-76031390D02*
X160020000Y-75946000D01*
X160106000Y-82804000D02*
X160106000Y-80604000D01*
X160106000Y-80604000D02*
X160020000Y-80518000D01*
X199898000Y-117856000D02*
X199898000Y-120142000D01*
X209204001Y-129448001D02*
X209804000Y-130048000D01*
X190557989Y-108515989D02*
X199898000Y-117856000D01*
X199898000Y-120142000D02*
X209204001Y-129448001D01*
X190557989Y-104397989D02*
X190557989Y-108515989D01*
X189000000Y-102840000D02*
X190557989Y-104397989D01*
X191008000Y-108204000D02*
X191008000Y-102308000D01*
X191008000Y-102308000D02*
X189000000Y-100300000D01*
X200406000Y-117602000D02*
X191008000Y-108204000D01*
X200406000Y-118447736D02*
X200406000Y-117602000D01*
X207264000Y-125730000D02*
X207264000Y-125305736D01*
X207264000Y-125305736D02*
X200406000Y-118447736D01*
X198120000Y-136144000D02*
X198120000Y-122110500D01*
X189000000Y-113000000D02*
X189761999Y-113761999D01*
X189761999Y-113761999D02*
X189771499Y-113761999D01*
X189771499Y-113761999D02*
X198120000Y-122110500D01*
X212344000Y-150368000D02*
X198120000Y-136144000D01*
X209804000Y-150368000D02*
X197612000Y-138176000D01*
X197612000Y-138176000D02*
X197612000Y-124152000D01*
X197612000Y-124152000D02*
X189000000Y-115540000D01*
X175710009Y-125279991D02*
X175710009Y-104790009D01*
X171981999Y-101061999D02*
X171220000Y-100300000D01*
X175710009Y-104790009D02*
X171981999Y-101061999D01*
X173228000Y-127762000D02*
X175710009Y-125279991D01*
X174498000Y-123952000D02*
X174498000Y-106118000D01*
X174498000Y-106118000D02*
X171220000Y-102840000D01*
X173228000Y-125222000D02*
X174498000Y-123952000D01*
X173228000Y-132842000D02*
X172150370Y-132842000D01*
X172150370Y-132842000D02*
X169592999Y-130284629D01*
X169592999Y-130284629D02*
X169592999Y-114627001D01*
X169592999Y-114627001D02*
X170132999Y-114087001D01*
X170132999Y-114087001D02*
X171220000Y-113000000D01*
X171220000Y-129371630D02*
X171220000Y-116617630D01*
X171220000Y-116617630D02*
X171220000Y-115540000D01*
X173228000Y-130302000D02*
X172150370Y-130302000D01*
X172150370Y-130302000D02*
X171220000Y-129371630D01*
X182372000Y-117602000D02*
X187452000Y-122682000D01*
X187452000Y-122682000D02*
X193548000Y-122682000D01*
X182372000Y-114170370D02*
X182372000Y-117602000D01*
X184620000Y-113000000D02*
X183542370Y-113000000D01*
X183542370Y-113000000D02*
X182372000Y-114170370D01*
X183858001Y-111221999D02*
X184620000Y-110460000D01*
X181864000Y-117730411D02*
X181864000Y-113216000D01*
X189355589Y-125222000D02*
X181864000Y-117730411D01*
X193548000Y-125222000D02*
X189355589Y-125222000D01*
X181864000Y-113216000D02*
X183858001Y-111221999D01*
X184658000Y-127000000D02*
X190246000Y-127000000D01*
X190246000Y-127000000D02*
X193548000Y-130302000D01*
X190500000Y-141285630D02*
X190500000Y-135890000D01*
X190500000Y-135890000D02*
X193548000Y-132842000D01*
X184658000Y-146050000D02*
X185735630Y-146050000D01*
X185735630Y-146050000D02*
X190500000Y-141285630D01*
X217424000Y-150368000D02*
X217424000Y-149519472D01*
X217424000Y-149519472D02*
X216812028Y-148907500D01*
X216812028Y-148907500D02*
X212026500Y-148907500D01*
X212026500Y-148907500D02*
X198691500Y-135572500D01*
X198691500Y-117957501D02*
X185381999Y-104648000D01*
X198691500Y-135572500D02*
X198691500Y-117957501D01*
X185381999Y-104648000D02*
X185381999Y-97221999D01*
X185381999Y-97221999D02*
X184620000Y-96460000D01*
X219964000Y-150368000D02*
X217868500Y-148272500D01*
X217868500Y-148272500D02*
X212661500Y-148272500D01*
X212661500Y-148272500D02*
X199263000Y-134874000D01*
X186309000Y-104938591D02*
X186309000Y-95609000D01*
X199263000Y-134874000D02*
X199263000Y-117892591D01*
X186309000Y-95609000D02*
X184620000Y-93920000D01*
X199263000Y-117892591D02*
X186309000Y-104938591D01*
D18*
X211074000Y-87122000D02*
X211074000Y-82804000D01*
X211074000Y-82804000D02*
X208534000Y-80264000D01*
X208534000Y-80264000D02*
X208534000Y-78486000D01*
X208475915Y-74177492D02*
X208475915Y-78427915D01*
X208475915Y-78427915D02*
X208534000Y-78486000D01*
D19*
X235966000Y-81026000D02*
X235966000Y-81178400D01*
X235966000Y-81178400D02*
X233832400Y-83312000D01*
X233832400Y-83312000D02*
X217170000Y-83312000D01*
X217170000Y-83312000D02*
X213614000Y-79756000D01*
X213614000Y-79756000D02*
X213614000Y-78486000D01*
X213614000Y-78486000D02*
X213614000Y-74235577D01*
X213614000Y-74235577D02*
X213555915Y-74177492D01*
X205867000Y-148145500D02*
X207264000Y-149542500D01*
X207264000Y-149542500D02*
X207264000Y-150368000D01*
X216095915Y-74177492D02*
X216095915Y-78427915D01*
X216095915Y-78427915D02*
X216154000Y-78486000D01*
X238506000Y-81026000D02*
X238506000Y-79760000D01*
X238506000Y-79760000D02*
X237232000Y-78486000D01*
X237232000Y-78486000D02*
X217356081Y-78486000D01*
X217356081Y-78486000D02*
X216154000Y-78486000D01*
X162305390Y-73660000D02*
X164805390Y-73660000D01*
X162305390Y-78232000D02*
X163155390Y-78232000D01*
X163155390Y-78232000D02*
X164805390Y-78232000D01*
X162306000Y-82804000D02*
X164805000Y-82804000D01*
X233263999Y-129448001D02*
X232664000Y-130048000D01*
X178750966Y-88834966D02*
X215352787Y-88834966D01*
X167005390Y-73660000D02*
X167005390Y-74360000D01*
X169164000Y-76518610D02*
X169164000Y-79248000D01*
X215352787Y-88834966D02*
X234442000Y-107924179D01*
X169164000Y-79248000D02*
X178750966Y-88834966D01*
X167005390Y-74360000D02*
X169164000Y-76518610D01*
X234442000Y-107924179D02*
X234442000Y-128270000D01*
X234442000Y-128270000D02*
X233263999Y-129448001D01*
X168148000Y-78994000D02*
X167917390Y-78994000D01*
X167917390Y-78994000D02*
X167155390Y-78232000D01*
X171450000Y-82296000D02*
X168148000Y-78994000D01*
X167005390Y-78232000D02*
X167155390Y-78232000D01*
X215166388Y-89284977D02*
X233934000Y-108052589D01*
X230723999Y-129448001D02*
X230124000Y-130048000D01*
X233934000Y-126238000D02*
X230723999Y-129448001D01*
X171450000Y-82296000D02*
X178438977Y-89284977D01*
X233934000Y-108052589D02*
X233934000Y-126238000D01*
X178438977Y-89284977D02*
X215166388Y-89284977D01*
X228183999Y-129448001D02*
X227584000Y-130048000D01*
X233426000Y-124206000D02*
X228183999Y-129448001D01*
X233426000Y-108204000D02*
X233426000Y-124206000D01*
X214956988Y-89734988D02*
X233426000Y-108204000D01*
X178077767Y-89734988D02*
X214956988Y-89734988D01*
X167005000Y-82804000D02*
X171146779Y-82804000D01*
X171146779Y-82804000D02*
X178077767Y-89734988D01*
X213614000Y-140629472D02*
X213614000Y-106680000D01*
X213614000Y-106680000D02*
X208534000Y-101600000D01*
X222504000Y-150368000D02*
X222504000Y-149519472D01*
X222504000Y-149519472D02*
X213614000Y-140629472D01*
D18*
X226314000Y-126238000D02*
X226314000Y-149098000D01*
X226314000Y-149098000D02*
X227584000Y-150368000D01*
X229108000Y-123444000D02*
X226314000Y-126238000D01*
X235966000Y-85637643D02*
X241046000Y-80557643D01*
X229108000Y-87884000D02*
X231354357Y-85637643D01*
X231354357Y-85637643D02*
X235966000Y-85637643D01*
X241046000Y-80557643D02*
X241046000Y-80089000D01*
X241046000Y-80089000D02*
X241046000Y-78486000D01*
X234832644Y-87884000D02*
X231648000Y-87884000D01*
X234832644Y-87884000D02*
X242496600Y-80220044D01*
X242496600Y-80220044D02*
X242496600Y-77549000D01*
X242496600Y-77549000D02*
X241046000Y-76098400D01*
X241046000Y-76098400D02*
X241046000Y-75946000D01*
D20*
G36*
X170560930Y-99060766D02*
X170429697Y-99114990D01*
X170036371Y-99507630D01*
X169823243Y-100020900D01*
X169822758Y-100576661D01*
X170034990Y-101090303D01*
X170427630Y-101483629D01*
X170635512Y-101569949D01*
X170429697Y-101654990D01*
X170036371Y-102047630D01*
X169823243Y-102560900D01*
X169822758Y-103116661D01*
X170034990Y-103630303D01*
X170427630Y-104023629D01*
X170619727Y-104103395D01*
X170488857Y-104157603D01*
X170419392Y-104399787D01*
X171220000Y-105200395D01*
X171234143Y-105186253D01*
X171413748Y-105365858D01*
X171399605Y-105380000D01*
X172200213Y-106180608D01*
X172442397Y-106111143D01*
X172629144Y-105587698D01*
X172615247Y-105310049D01*
X173738000Y-106432802D01*
X173738000Y-121381121D01*
X173507100Y-121285243D01*
X172951339Y-121284758D01*
X172437697Y-121496990D01*
X172044371Y-121889630D01*
X171980000Y-122044653D01*
X171980000Y-116737531D01*
X172010303Y-116725010D01*
X172403629Y-116332370D01*
X172616757Y-115819100D01*
X172617242Y-115263339D01*
X172405010Y-114749697D01*
X172012370Y-114356371D01*
X171804488Y-114270051D01*
X172010303Y-114185010D01*
X172403629Y-113792370D01*
X172616757Y-113279100D01*
X172617242Y-112723339D01*
X172405010Y-112209697D01*
X172012370Y-111816371D01*
X171804488Y-111730051D01*
X172010303Y-111645010D01*
X172403629Y-111252370D01*
X172616757Y-110739100D01*
X172617242Y-110183339D01*
X172405010Y-109669697D01*
X172012370Y-109276371D01*
X171499100Y-109063243D01*
X170943339Y-109062758D01*
X170429697Y-109274990D01*
X170036371Y-109667630D01*
X169823243Y-110180900D01*
X169822758Y-110736661D01*
X170034990Y-111250303D01*
X170427630Y-111643629D01*
X170635512Y-111729949D01*
X170429697Y-111814990D01*
X170036371Y-112207630D01*
X169823243Y-112720900D01*
X169822758Y-113276661D01*
X169836143Y-113309055D01*
X169055598Y-114089600D01*
X168890851Y-114336162D01*
X168832999Y-114627001D01*
X168832999Y-130284629D01*
X168890851Y-130575468D01*
X169055598Y-130822030D01*
X171612969Y-133379401D01*
X171859531Y-133544148D01*
X172019732Y-133576014D01*
X172042990Y-133632303D01*
X172435630Y-134025629D01*
X172627727Y-134105395D01*
X172496857Y-134159603D01*
X172427392Y-134401787D01*
X173228000Y-135202395D01*
X174028608Y-134401787D01*
X173959143Y-134159603D01*
X173818682Y-134109491D01*
X174018303Y-134027010D01*
X174411629Y-133634370D01*
X174624757Y-133121100D01*
X174625242Y-132565339D01*
X174413010Y-132051697D01*
X174020370Y-131658371D01*
X173812488Y-131572051D01*
X174018303Y-131487010D01*
X174411629Y-131094370D01*
X174624757Y-130581100D01*
X174625242Y-130025339D01*
X174413010Y-129511697D01*
X174020370Y-129118371D01*
X173812488Y-129032051D01*
X174018303Y-128947010D01*
X174411629Y-128554370D01*
X174624757Y-128041100D01*
X174625242Y-127485339D01*
X174611857Y-127452945D01*
X176247410Y-125817392D01*
X176412157Y-125570830D01*
X176470009Y-125279991D01*
X176470009Y-124252302D01*
X183248856Y-124252302D01*
X183276638Y-124807368D01*
X183435603Y-125191143D01*
X183677787Y-125260608D01*
X184478395Y-124460000D01*
X184837605Y-124460000D01*
X185638213Y-125260608D01*
X185880397Y-125191143D01*
X186067144Y-124667698D01*
X186039362Y-124112632D01*
X185880397Y-123728857D01*
X185638213Y-123659392D01*
X184837605Y-124460000D01*
X184478395Y-124460000D01*
X183677787Y-123659392D01*
X183435603Y-123728857D01*
X183248856Y-124252302D01*
X176470009Y-124252302D01*
X176470009Y-123479787D01*
X183857392Y-123479787D01*
X184658000Y-124280395D01*
X185458608Y-123479787D01*
X185389143Y-123237603D01*
X184865698Y-123050856D01*
X184310632Y-123078638D01*
X183926857Y-123237603D01*
X183857392Y-123479787D01*
X176470009Y-123479787D01*
X176470009Y-107712302D01*
X183210856Y-107712302D01*
X183238638Y-108267368D01*
X183397603Y-108651143D01*
X183639787Y-108720608D01*
X184440395Y-107920000D01*
X184799605Y-107920000D01*
X185600213Y-108720608D01*
X185842397Y-108651143D01*
X186029144Y-108127698D01*
X186001362Y-107572632D01*
X185842397Y-107188857D01*
X185600213Y-107119392D01*
X184799605Y-107920000D01*
X184440395Y-107920000D01*
X183639787Y-107119392D01*
X183397603Y-107188857D01*
X183210856Y-107712302D01*
X176470009Y-107712302D01*
X176470009Y-106939787D01*
X183819392Y-106939787D01*
X184620000Y-107740395D01*
X185420608Y-106939787D01*
X185351143Y-106697603D01*
X184827698Y-106510856D01*
X184272632Y-106538638D01*
X183888857Y-106697603D01*
X183819392Y-106939787D01*
X176470009Y-106939787D01*
X176470009Y-104790009D01*
X176412157Y-104499170D01*
X176412157Y-104499169D01*
X176247410Y-104252608D01*
X172604183Y-100609381D01*
X172616757Y-100579100D01*
X172617242Y-100023339D01*
X172405010Y-99509697D01*
X172012370Y-99116371D01*
X171889083Y-99065178D01*
X184621999Y-99107475D01*
X184621999Y-104648000D01*
X184679851Y-104938839D01*
X184844598Y-105185401D01*
X188722360Y-109063163D01*
X188209697Y-109274990D01*
X187816371Y-109667630D01*
X187603243Y-110180900D01*
X187602758Y-110736661D01*
X187814990Y-111250303D01*
X188207630Y-111643629D01*
X188415512Y-111729949D01*
X188209697Y-111814990D01*
X187816371Y-112207630D01*
X187603243Y-112720900D01*
X187602758Y-113276661D01*
X187814990Y-113790303D01*
X188207630Y-114183629D01*
X188415512Y-114269949D01*
X188209697Y-114354990D01*
X187816371Y-114747630D01*
X187603243Y-115260900D01*
X187602758Y-115816661D01*
X187814990Y-116330303D01*
X188207630Y-116723629D01*
X188720900Y-116936757D01*
X189276661Y-116937242D01*
X189309055Y-116923857D01*
X190373000Y-117987802D01*
X190373000Y-121922000D01*
X187766802Y-121922000D01*
X183132000Y-117287198D01*
X183132000Y-114485172D01*
X183630758Y-113986414D01*
X183827630Y-114183629D01*
X184340900Y-114396757D01*
X184896661Y-114397242D01*
X185410303Y-114185010D01*
X185803629Y-113792370D01*
X186016757Y-113279100D01*
X186017242Y-112723339D01*
X185805010Y-112209697D01*
X185412370Y-111816371D01*
X185204488Y-111730051D01*
X185410303Y-111645010D01*
X185803629Y-111252370D01*
X186016757Y-110739100D01*
X186017242Y-110183339D01*
X185805010Y-109669697D01*
X185412370Y-109276371D01*
X185220273Y-109196605D01*
X185351143Y-109142397D01*
X185420608Y-108900213D01*
X184620000Y-108099605D01*
X183819392Y-108900213D01*
X183888857Y-109142397D01*
X184029318Y-109192509D01*
X183829697Y-109274990D01*
X183436371Y-109667630D01*
X183223243Y-110180900D01*
X183222758Y-110736661D01*
X183236143Y-110769055D01*
X181326599Y-112678599D01*
X181161852Y-112925161D01*
X181104000Y-113216000D01*
X181104000Y-117730411D01*
X181161852Y-118021250D01*
X181326599Y-118267812D01*
X188818188Y-125759401D01*
X189064750Y-125924148D01*
X189355589Y-125982000D01*
X190373000Y-125982000D01*
X190373000Y-126265262D01*
X190246000Y-126240000D01*
X185855531Y-126240000D01*
X185843010Y-126209697D01*
X185450370Y-125816371D01*
X185258273Y-125736605D01*
X185389143Y-125682397D01*
X185458608Y-125440213D01*
X184658000Y-124639605D01*
X183857392Y-125440213D01*
X183926857Y-125682397D01*
X184067318Y-125732509D01*
X183867697Y-125814990D01*
X183474371Y-126207630D01*
X183261243Y-126720900D01*
X183260758Y-127276661D01*
X183472990Y-127790303D01*
X183865630Y-128183629D01*
X184073512Y-128269949D01*
X183867697Y-128354990D01*
X183474371Y-128747630D01*
X183261243Y-129260900D01*
X183260758Y-129816661D01*
X183472990Y-130330303D01*
X183865630Y-130723629D01*
X184378900Y-130936757D01*
X184934661Y-130937242D01*
X185448303Y-130725010D01*
X185841629Y-130332370D01*
X186054757Y-129819100D01*
X186055242Y-129263339D01*
X185843010Y-128749697D01*
X185450370Y-128356371D01*
X185242488Y-128270051D01*
X185448303Y-128185010D01*
X185841629Y-127792370D01*
X185855070Y-127760000D01*
X189931198Y-127760000D01*
X190373000Y-128201802D01*
X190373000Y-134942198D01*
X189962599Y-135352599D01*
X189797852Y-135599161D01*
X189740000Y-135890000D01*
X189740000Y-140970828D01*
X185647242Y-145063586D01*
X185450370Y-144866371D01*
X185242488Y-144780051D01*
X185448303Y-144695010D01*
X185841629Y-144302370D01*
X186054757Y-143789100D01*
X186055242Y-143233339D01*
X185843010Y-142719697D01*
X185450370Y-142326371D01*
X185258273Y-142246605D01*
X185389143Y-142192397D01*
X185458608Y-141950213D01*
X184658000Y-141149605D01*
X183857392Y-141950213D01*
X183926857Y-142192397D01*
X184067318Y-142242509D01*
X183867697Y-142324990D01*
X183474371Y-142717630D01*
X183261243Y-143230900D01*
X183260758Y-143786661D01*
X183472990Y-144300303D01*
X183865630Y-144693629D01*
X184073512Y-144779949D01*
X183867697Y-144864990D01*
X183474371Y-145257630D01*
X183261243Y-145770900D01*
X183260758Y-146326661D01*
X183472990Y-146840303D01*
X183865630Y-147233629D01*
X184378900Y-147446757D01*
X184934661Y-147447242D01*
X185448303Y-147235010D01*
X185841629Y-146842370D01*
X185865824Y-146784103D01*
X186026469Y-146752148D01*
X186273031Y-146587401D01*
X190373000Y-142487432D01*
X190373000Y-151690000D01*
X174135517Y-151690000D01*
X174411629Y-151414370D01*
X174624757Y-150901100D01*
X174625242Y-150345339D01*
X174413010Y-149831697D01*
X174020370Y-149438371D01*
X173812488Y-149352051D01*
X174018303Y-149267010D01*
X174411629Y-148874370D01*
X174624757Y-148361100D01*
X174625242Y-147805339D01*
X174413010Y-147291697D01*
X174020370Y-146898371D01*
X173812488Y-146812051D01*
X174018303Y-146727010D01*
X174411629Y-146334370D01*
X174624757Y-145821100D01*
X174625242Y-145265339D01*
X174413010Y-144751697D01*
X174020370Y-144358371D01*
X173812488Y-144272051D01*
X174018303Y-144187010D01*
X174411629Y-143794370D01*
X174624757Y-143281100D01*
X174625242Y-142725339D01*
X174413010Y-142211697D01*
X174020370Y-141818371D01*
X173828273Y-141738605D01*
X173959143Y-141684397D01*
X174028608Y-141442213D01*
X173228000Y-140641605D01*
X172427392Y-141442213D01*
X172496857Y-141684397D01*
X172637318Y-141734509D01*
X172437697Y-141816990D01*
X172044371Y-142209630D01*
X171831243Y-142722900D01*
X171830758Y-143278661D01*
X172042990Y-143792303D01*
X172435630Y-144185629D01*
X172643512Y-144271949D01*
X172437697Y-144356990D01*
X172044371Y-144749630D01*
X171831243Y-145262900D01*
X171830758Y-145818661D01*
X172042990Y-146332303D01*
X172435630Y-146725629D01*
X172643512Y-146811949D01*
X172437697Y-146896990D01*
X172044371Y-147289630D01*
X171831243Y-147802900D01*
X171830758Y-148358661D01*
X172042990Y-148872303D01*
X172435630Y-149265629D01*
X172643512Y-149351949D01*
X172437697Y-149436990D01*
X172044371Y-149829630D01*
X171831243Y-150342900D01*
X171830758Y-150898661D01*
X172042990Y-151412303D01*
X172320203Y-151690000D01*
X158190000Y-151690000D01*
X158190000Y-140970000D01*
X160731907Y-140970000D01*
X160844946Y-141538285D01*
X161166853Y-142020054D01*
X161496026Y-142240000D01*
X161166853Y-142459946D01*
X160844946Y-142941715D01*
X160731907Y-143510000D01*
X160844946Y-144078285D01*
X161166853Y-144560054D01*
X161208452Y-144587850D01*
X161160683Y-144596838D01*
X160944559Y-144735910D01*
X160799569Y-144948110D01*
X160748560Y-145200000D01*
X160748560Y-146900000D01*
X160792838Y-147135317D01*
X160931910Y-147351441D01*
X161144110Y-147496431D01*
X161396000Y-147547440D01*
X163096000Y-147547440D01*
X163331317Y-147503162D01*
X163547441Y-147364090D01*
X163692431Y-147151890D01*
X163727543Y-146978500D01*
X165830946Y-146978500D01*
X166085630Y-147233629D01*
X166598900Y-147446757D01*
X167154661Y-147447242D01*
X167668303Y-147235010D01*
X168061629Y-146842370D01*
X168274757Y-146329100D01*
X168275242Y-145773339D01*
X168063010Y-145259697D01*
X167670370Y-144866371D01*
X167462488Y-144780051D01*
X167668303Y-144695010D01*
X168061629Y-144302370D01*
X168274757Y-143789100D01*
X168275242Y-143233339D01*
X168063010Y-142719697D01*
X167670370Y-142326371D01*
X167462488Y-142240051D01*
X167668303Y-142155010D01*
X168061629Y-141762370D01*
X168274757Y-141249100D01*
X168275242Y-140693339D01*
X168093837Y-140254302D01*
X171818856Y-140254302D01*
X171846638Y-140809368D01*
X172005603Y-141193143D01*
X172247787Y-141262608D01*
X173048395Y-140462000D01*
X173407605Y-140462000D01*
X174208213Y-141262608D01*
X174450397Y-141193143D01*
X174604106Y-140762302D01*
X183248856Y-140762302D01*
X183276638Y-141317368D01*
X183435603Y-141701143D01*
X183677787Y-141770608D01*
X184478395Y-140970000D01*
X184837605Y-140970000D01*
X185638213Y-141770608D01*
X185880397Y-141701143D01*
X186067144Y-141177698D01*
X186039362Y-140622632D01*
X185880397Y-140238857D01*
X185638213Y-140169392D01*
X184837605Y-140970000D01*
X184478395Y-140970000D01*
X183677787Y-140169392D01*
X183435603Y-140238857D01*
X183248856Y-140762302D01*
X174604106Y-140762302D01*
X174637144Y-140669698D01*
X174609362Y-140114632D01*
X174557650Y-139989787D01*
X183857392Y-139989787D01*
X184658000Y-140790395D01*
X185458608Y-139989787D01*
X185389143Y-139747603D01*
X184865698Y-139560856D01*
X184310632Y-139588638D01*
X183926857Y-139747603D01*
X183857392Y-139989787D01*
X174557650Y-139989787D01*
X174450397Y-139730857D01*
X174208213Y-139661392D01*
X173407605Y-140462000D01*
X173048395Y-140462000D01*
X172247787Y-139661392D01*
X172005603Y-139730857D01*
X171818856Y-140254302D01*
X168093837Y-140254302D01*
X168063010Y-140179697D01*
X167670370Y-139786371D01*
X167157100Y-139573243D01*
X166601339Y-139572758D01*
X166087697Y-139784990D01*
X165694371Y-140177630D01*
X165481243Y-140690900D01*
X165480758Y-141246661D01*
X165692990Y-141760303D01*
X166085630Y-142153629D01*
X166293512Y-142239949D01*
X166087697Y-142324990D01*
X165830739Y-142581500D01*
X163406367Y-142581500D01*
X163325147Y-142459946D01*
X162995974Y-142240000D01*
X163325147Y-142020054D01*
X163647054Y-141538285D01*
X163760093Y-140970000D01*
X163647054Y-140401715D01*
X163325147Y-139919946D01*
X162843378Y-139598039D01*
X162275093Y-139485000D01*
X162216907Y-139485000D01*
X161648622Y-139598039D01*
X161166853Y-139919946D01*
X160844946Y-140401715D01*
X160731907Y-140970000D01*
X158190000Y-140970000D01*
X158190000Y-138198661D01*
X171830758Y-138198661D01*
X172042990Y-138712303D01*
X172435630Y-139105629D01*
X172627727Y-139185395D01*
X172496857Y-139239603D01*
X172427392Y-139481787D01*
X173228000Y-140282395D01*
X174028608Y-139481787D01*
X173959143Y-139239603D01*
X173818682Y-139189491D01*
X174018303Y-139107010D01*
X174411629Y-138714370D01*
X174624757Y-138201100D01*
X174625242Y-137645339D01*
X174413010Y-137131697D01*
X174020370Y-136738371D01*
X173828273Y-136658605D01*
X173959143Y-136604397D01*
X174028608Y-136362213D01*
X173228000Y-135561605D01*
X172427392Y-136362213D01*
X172496857Y-136604397D01*
X172637318Y-136654509D01*
X172437697Y-136736990D01*
X172044371Y-137129630D01*
X171831243Y-137642900D01*
X171830758Y-138198661D01*
X158190000Y-138198661D01*
X158190000Y-135174302D01*
X171818856Y-135174302D01*
X171846638Y-135729368D01*
X172005603Y-136113143D01*
X172247787Y-136182608D01*
X173048395Y-135382000D01*
X173407605Y-135382000D01*
X174208213Y-136182608D01*
X174450397Y-136113143D01*
X174637144Y-135589698D01*
X174609362Y-135034632D01*
X174450397Y-134650857D01*
X174208213Y-134581392D01*
X173407605Y-135382000D01*
X173048395Y-135382000D01*
X172247787Y-134581392D01*
X172005603Y-134650857D01*
X171818856Y-135174302D01*
X158190000Y-135174302D01*
X158190000Y-124490000D01*
X160731907Y-124490000D01*
X160844946Y-125058285D01*
X161166853Y-125540054D01*
X161496026Y-125760000D01*
X161166853Y-125979946D01*
X160844946Y-126461715D01*
X160731907Y-127030000D01*
X160844946Y-127598285D01*
X161166853Y-128080054D01*
X161208452Y-128107850D01*
X161160683Y-128116838D01*
X160944559Y-128255910D01*
X160799569Y-128468110D01*
X160748560Y-128720000D01*
X160748560Y-130420000D01*
X160792838Y-130655317D01*
X160931910Y-130871441D01*
X161144110Y-131016431D01*
X161396000Y-131067440D01*
X163096000Y-131067440D01*
X163331317Y-131023162D01*
X163547441Y-130884090D01*
X163692431Y-130671890D01*
X163733619Y-130468500D01*
X165830946Y-130468500D01*
X166085630Y-130723629D01*
X166598900Y-130936757D01*
X167154661Y-130937242D01*
X167668303Y-130725010D01*
X168061629Y-130332370D01*
X168274757Y-129819100D01*
X168275242Y-129263339D01*
X168063010Y-128749697D01*
X167670370Y-128356371D01*
X167462488Y-128270051D01*
X167668303Y-128185010D01*
X168061629Y-127792370D01*
X168274757Y-127279100D01*
X168275242Y-126723339D01*
X168063010Y-126209697D01*
X167670370Y-125816371D01*
X167462488Y-125730051D01*
X167668303Y-125645010D01*
X168061629Y-125252370D01*
X168274757Y-124739100D01*
X168275242Y-124183339D01*
X168063010Y-123669697D01*
X167670370Y-123276371D01*
X167157100Y-123063243D01*
X166601339Y-123062758D01*
X166087697Y-123274990D01*
X165694371Y-123667630D01*
X165481243Y-124180900D01*
X165480758Y-124736661D01*
X165692990Y-125250303D01*
X166085630Y-125643629D01*
X166293512Y-125729949D01*
X166087697Y-125814990D01*
X165800686Y-126101500D01*
X163406367Y-126101500D01*
X163325147Y-125979946D01*
X162995974Y-125760000D01*
X163325147Y-125540054D01*
X163647054Y-125058285D01*
X163760093Y-124490000D01*
X163647054Y-123921715D01*
X163325147Y-123439946D01*
X162843378Y-123118039D01*
X162275093Y-123005000D01*
X162216907Y-123005000D01*
X161648622Y-123118039D01*
X161166853Y-123439946D01*
X160844946Y-123921715D01*
X160731907Y-124490000D01*
X158190000Y-124490000D01*
X158190000Y-107920000D01*
X160985907Y-107920000D01*
X161098946Y-108488285D01*
X161420853Y-108970054D01*
X161750026Y-109190000D01*
X161420853Y-109409946D01*
X161098946Y-109891715D01*
X160985907Y-110460000D01*
X161098946Y-111028285D01*
X161420853Y-111510054D01*
X161462452Y-111537850D01*
X161414683Y-111546838D01*
X161198559Y-111685910D01*
X161053569Y-111898110D01*
X161002560Y-112150000D01*
X161002560Y-113850000D01*
X161046838Y-114085317D01*
X161185910Y-114301441D01*
X161398110Y-114446431D01*
X161650000Y-114497440D01*
X163350000Y-114497440D01*
X163585317Y-114453162D01*
X163801441Y-114314090D01*
X163946431Y-114101890D01*
X163981543Y-113928500D01*
X165792946Y-113928500D01*
X166047630Y-114183629D01*
X166560900Y-114396757D01*
X167116661Y-114397242D01*
X167630303Y-114185010D01*
X168023629Y-113792370D01*
X168236757Y-113279100D01*
X168237242Y-112723339D01*
X168025010Y-112209697D01*
X167632370Y-111816371D01*
X167424488Y-111730051D01*
X167630303Y-111645010D01*
X168023629Y-111252370D01*
X168236757Y-110739100D01*
X168237242Y-110183339D01*
X168025010Y-109669697D01*
X167632370Y-109276371D01*
X167424488Y-109190051D01*
X167630303Y-109105010D01*
X168023629Y-108712370D01*
X168236757Y-108199100D01*
X168237242Y-107643339D01*
X168025010Y-107129697D01*
X167632370Y-106736371D01*
X167119100Y-106523243D01*
X166563339Y-106522758D01*
X166049697Y-106734990D01*
X165656371Y-107127630D01*
X165443243Y-107640900D01*
X165442758Y-108196661D01*
X165654990Y-108710303D01*
X166047630Y-109103629D01*
X166255512Y-109189949D01*
X166049697Y-109274990D01*
X165792739Y-109531500D01*
X163660367Y-109531500D01*
X163579147Y-109409946D01*
X163249974Y-109190000D01*
X163579147Y-108970054D01*
X163901054Y-108488285D01*
X164014093Y-107920000D01*
X163901054Y-107351715D01*
X163579147Y-106869946D01*
X163097378Y-106548039D01*
X162529093Y-106435000D01*
X162470907Y-106435000D01*
X161902622Y-106548039D01*
X161420853Y-106869946D01*
X161098946Y-107351715D01*
X160985907Y-107920000D01*
X158190000Y-107920000D01*
X158190000Y-106360213D01*
X170419392Y-106360213D01*
X170488857Y-106602397D01*
X171012302Y-106789144D01*
X171567368Y-106761362D01*
X171951143Y-106602397D01*
X172020608Y-106360213D01*
X171220000Y-105559605D01*
X170419392Y-106360213D01*
X158190000Y-106360213D01*
X158190000Y-105172302D01*
X169810856Y-105172302D01*
X169838638Y-105727368D01*
X169997603Y-106111143D01*
X170239787Y-106180608D01*
X171040395Y-105380000D01*
X170239787Y-104579392D01*
X169997603Y-104648857D01*
X169810856Y-105172302D01*
X158190000Y-105172302D01*
X158190000Y-99019671D01*
X170560930Y-99060766D01*
X170560930Y-99060766D01*
G37*
X170560930Y-99060766D02*
X170429697Y-99114990D01*
X170036371Y-99507630D01*
X169823243Y-100020900D01*
X169822758Y-100576661D01*
X170034990Y-101090303D01*
X170427630Y-101483629D01*
X170635512Y-101569949D01*
X170429697Y-101654990D01*
X170036371Y-102047630D01*
X169823243Y-102560900D01*
X169822758Y-103116661D01*
X170034990Y-103630303D01*
X170427630Y-104023629D01*
X170619727Y-104103395D01*
X170488857Y-104157603D01*
X170419392Y-104399787D01*
X171220000Y-105200395D01*
X171234143Y-105186253D01*
X171413748Y-105365858D01*
X171399605Y-105380000D01*
X172200213Y-106180608D01*
X172442397Y-106111143D01*
X172629144Y-105587698D01*
X172615247Y-105310049D01*
X173738000Y-106432802D01*
X173738000Y-121381121D01*
X173507100Y-121285243D01*
X172951339Y-121284758D01*
X172437697Y-121496990D01*
X172044371Y-121889630D01*
X171980000Y-122044653D01*
X171980000Y-116737531D01*
X172010303Y-116725010D01*
X172403629Y-116332370D01*
X172616757Y-115819100D01*
X172617242Y-115263339D01*
X172405010Y-114749697D01*
X172012370Y-114356371D01*
X171804488Y-114270051D01*
X172010303Y-114185010D01*
X172403629Y-113792370D01*
X172616757Y-113279100D01*
X172617242Y-112723339D01*
X172405010Y-112209697D01*
X172012370Y-111816371D01*
X171804488Y-111730051D01*
X172010303Y-111645010D01*
X172403629Y-111252370D01*
X172616757Y-110739100D01*
X172617242Y-110183339D01*
X172405010Y-109669697D01*
X172012370Y-109276371D01*
X171499100Y-109063243D01*
X170943339Y-109062758D01*
X170429697Y-109274990D01*
X170036371Y-109667630D01*
X169823243Y-110180900D01*
X169822758Y-110736661D01*
X170034990Y-111250303D01*
X170427630Y-111643629D01*
X170635512Y-111729949D01*
X170429697Y-111814990D01*
X170036371Y-112207630D01*
X169823243Y-112720900D01*
X169822758Y-113276661D01*
X169836143Y-113309055D01*
X169055598Y-114089600D01*
X168890851Y-114336162D01*
X168832999Y-114627001D01*
X168832999Y-130284629D01*
X168890851Y-130575468D01*
X169055598Y-130822030D01*
X171612969Y-133379401D01*
X171859531Y-133544148D01*
X172019732Y-133576014D01*
X172042990Y-133632303D01*
X172435630Y-134025629D01*
X172627727Y-134105395D01*
X172496857Y-134159603D01*
X172427392Y-134401787D01*
X173228000Y-135202395D01*
X174028608Y-134401787D01*
X173959143Y-134159603D01*
X173818682Y-134109491D01*
X174018303Y-134027010D01*
X174411629Y-133634370D01*
X174624757Y-133121100D01*
X174625242Y-132565339D01*
X174413010Y-132051697D01*
X174020370Y-131658371D01*
X173812488Y-131572051D01*
X174018303Y-131487010D01*
X174411629Y-131094370D01*
X174624757Y-130581100D01*
X174625242Y-130025339D01*
X174413010Y-129511697D01*
X174020370Y-129118371D01*
X173812488Y-129032051D01*
X174018303Y-128947010D01*
X174411629Y-128554370D01*
X174624757Y-128041100D01*
X174625242Y-127485339D01*
X174611857Y-127452945D01*
X176247410Y-125817392D01*
X176412157Y-125570830D01*
X176470009Y-125279991D01*
X176470009Y-124252302D01*
X183248856Y-124252302D01*
X183276638Y-124807368D01*
X183435603Y-125191143D01*
X183677787Y-125260608D01*
X184478395Y-124460000D01*
X184837605Y-124460000D01*
X185638213Y-125260608D01*
X185880397Y-125191143D01*
X186067144Y-124667698D01*
X186039362Y-124112632D01*
X185880397Y-123728857D01*
X185638213Y-123659392D01*
X184837605Y-124460000D01*
X184478395Y-124460000D01*
X183677787Y-123659392D01*
X183435603Y-123728857D01*
X183248856Y-124252302D01*
X176470009Y-124252302D01*
X176470009Y-123479787D01*
X183857392Y-123479787D01*
X184658000Y-124280395D01*
X185458608Y-123479787D01*
X185389143Y-123237603D01*
X184865698Y-123050856D01*
X184310632Y-123078638D01*
X183926857Y-123237603D01*
X183857392Y-123479787D01*
X176470009Y-123479787D01*
X176470009Y-107712302D01*
X183210856Y-107712302D01*
X183238638Y-108267368D01*
X183397603Y-108651143D01*
X183639787Y-108720608D01*
X184440395Y-107920000D01*
X184799605Y-107920000D01*
X185600213Y-108720608D01*
X185842397Y-108651143D01*
X186029144Y-108127698D01*
X186001362Y-107572632D01*
X185842397Y-107188857D01*
X185600213Y-107119392D01*
X184799605Y-107920000D01*
X184440395Y-107920000D01*
X183639787Y-107119392D01*
X183397603Y-107188857D01*
X183210856Y-107712302D01*
X176470009Y-107712302D01*
X176470009Y-106939787D01*
X183819392Y-106939787D01*
X184620000Y-107740395D01*
X185420608Y-106939787D01*
X185351143Y-106697603D01*
X184827698Y-106510856D01*
X184272632Y-106538638D01*
X183888857Y-106697603D01*
X183819392Y-106939787D01*
X176470009Y-106939787D01*
X176470009Y-104790009D01*
X176412157Y-104499170D01*
X176412157Y-104499169D01*
X176247410Y-104252608D01*
X172604183Y-100609381D01*
X172616757Y-100579100D01*
X172617242Y-100023339D01*
X172405010Y-99509697D01*
X172012370Y-99116371D01*
X171889083Y-99065178D01*
X184621999Y-99107475D01*
X184621999Y-104648000D01*
X184679851Y-104938839D01*
X184844598Y-105185401D01*
X188722360Y-109063163D01*
X188209697Y-109274990D01*
X187816371Y-109667630D01*
X187603243Y-110180900D01*
X187602758Y-110736661D01*
X187814990Y-111250303D01*
X188207630Y-111643629D01*
X188415512Y-111729949D01*
X188209697Y-111814990D01*
X187816371Y-112207630D01*
X187603243Y-112720900D01*
X187602758Y-113276661D01*
X187814990Y-113790303D01*
X188207630Y-114183629D01*
X188415512Y-114269949D01*
X188209697Y-114354990D01*
X187816371Y-114747630D01*
X187603243Y-115260900D01*
X187602758Y-115816661D01*
X187814990Y-116330303D01*
X188207630Y-116723629D01*
X188720900Y-116936757D01*
X189276661Y-116937242D01*
X189309055Y-116923857D01*
X190373000Y-117987802D01*
X190373000Y-121922000D01*
X187766802Y-121922000D01*
X183132000Y-117287198D01*
X183132000Y-114485172D01*
X183630758Y-113986414D01*
X183827630Y-114183629D01*
X184340900Y-114396757D01*
X184896661Y-114397242D01*
X185410303Y-114185010D01*
X185803629Y-113792370D01*
X186016757Y-113279100D01*
X186017242Y-112723339D01*
X185805010Y-112209697D01*
X185412370Y-111816371D01*
X185204488Y-111730051D01*
X185410303Y-111645010D01*
X185803629Y-111252370D01*
X186016757Y-110739100D01*
X186017242Y-110183339D01*
X185805010Y-109669697D01*
X185412370Y-109276371D01*
X185220273Y-109196605D01*
X185351143Y-109142397D01*
X185420608Y-108900213D01*
X184620000Y-108099605D01*
X183819392Y-108900213D01*
X183888857Y-109142397D01*
X184029318Y-109192509D01*
X183829697Y-109274990D01*
X183436371Y-109667630D01*
X183223243Y-110180900D01*
X183222758Y-110736661D01*
X183236143Y-110769055D01*
X181326599Y-112678599D01*
X181161852Y-112925161D01*
X181104000Y-113216000D01*
X181104000Y-117730411D01*
X181161852Y-118021250D01*
X181326599Y-118267812D01*
X188818188Y-125759401D01*
X189064750Y-125924148D01*
X189355589Y-125982000D01*
X190373000Y-125982000D01*
X190373000Y-126265262D01*
X190246000Y-126240000D01*
X185855531Y-126240000D01*
X185843010Y-126209697D01*
X185450370Y-125816371D01*
X185258273Y-125736605D01*
X185389143Y-125682397D01*
X185458608Y-125440213D01*
X184658000Y-124639605D01*
X183857392Y-125440213D01*
X183926857Y-125682397D01*
X184067318Y-125732509D01*
X183867697Y-125814990D01*
X183474371Y-126207630D01*
X183261243Y-126720900D01*
X183260758Y-127276661D01*
X183472990Y-127790303D01*
X183865630Y-128183629D01*
X184073512Y-128269949D01*
X183867697Y-128354990D01*
X183474371Y-128747630D01*
X183261243Y-129260900D01*
X183260758Y-129816661D01*
X183472990Y-130330303D01*
X183865630Y-130723629D01*
X184378900Y-130936757D01*
X184934661Y-130937242D01*
X185448303Y-130725010D01*
X185841629Y-130332370D01*
X186054757Y-129819100D01*
X186055242Y-129263339D01*
X185843010Y-128749697D01*
X185450370Y-128356371D01*
X185242488Y-128270051D01*
X185448303Y-128185010D01*
X185841629Y-127792370D01*
X185855070Y-127760000D01*
X189931198Y-127760000D01*
X190373000Y-128201802D01*
X190373000Y-134942198D01*
X189962599Y-135352599D01*
X189797852Y-135599161D01*
X189740000Y-135890000D01*
X189740000Y-140970828D01*
X185647242Y-145063586D01*
X185450370Y-144866371D01*
X185242488Y-144780051D01*
X185448303Y-144695010D01*
X185841629Y-144302370D01*
X186054757Y-143789100D01*
X186055242Y-143233339D01*
X185843010Y-142719697D01*
X185450370Y-142326371D01*
X185258273Y-142246605D01*
X185389143Y-142192397D01*
X185458608Y-141950213D01*
X184658000Y-141149605D01*
X183857392Y-141950213D01*
X183926857Y-142192397D01*
X184067318Y-142242509D01*
X183867697Y-142324990D01*
X183474371Y-142717630D01*
X183261243Y-143230900D01*
X183260758Y-143786661D01*
X183472990Y-144300303D01*
X183865630Y-144693629D01*
X184073512Y-144779949D01*
X183867697Y-144864990D01*
X183474371Y-145257630D01*
X183261243Y-145770900D01*
X183260758Y-146326661D01*
X183472990Y-146840303D01*
X183865630Y-147233629D01*
X184378900Y-147446757D01*
X184934661Y-147447242D01*
X185448303Y-147235010D01*
X185841629Y-146842370D01*
X185865824Y-146784103D01*
X186026469Y-146752148D01*
X186273031Y-146587401D01*
X190373000Y-142487432D01*
X190373000Y-151690000D01*
X174135517Y-151690000D01*
X174411629Y-151414370D01*
X174624757Y-150901100D01*
X174625242Y-150345339D01*
X174413010Y-149831697D01*
X174020370Y-149438371D01*
X173812488Y-149352051D01*
X174018303Y-149267010D01*
X174411629Y-148874370D01*
X174624757Y-148361100D01*
X174625242Y-147805339D01*
X174413010Y-147291697D01*
X174020370Y-146898371D01*
X173812488Y-146812051D01*
X174018303Y-146727010D01*
X174411629Y-146334370D01*
X174624757Y-145821100D01*
X174625242Y-145265339D01*
X174413010Y-144751697D01*
X174020370Y-144358371D01*
X173812488Y-144272051D01*
X174018303Y-144187010D01*
X174411629Y-143794370D01*
X174624757Y-143281100D01*
X174625242Y-142725339D01*
X174413010Y-142211697D01*
X174020370Y-141818371D01*
X173828273Y-141738605D01*
X173959143Y-141684397D01*
X174028608Y-141442213D01*
X173228000Y-140641605D01*
X172427392Y-141442213D01*
X172496857Y-141684397D01*
X172637318Y-141734509D01*
X172437697Y-141816990D01*
X172044371Y-142209630D01*
X171831243Y-142722900D01*
X171830758Y-143278661D01*
X172042990Y-143792303D01*
X172435630Y-144185629D01*
X172643512Y-144271949D01*
X172437697Y-144356990D01*
X172044371Y-144749630D01*
X171831243Y-145262900D01*
X171830758Y-145818661D01*
X172042990Y-146332303D01*
X172435630Y-146725629D01*
X172643512Y-146811949D01*
X172437697Y-146896990D01*
X172044371Y-147289630D01*
X171831243Y-147802900D01*
X171830758Y-148358661D01*
X172042990Y-148872303D01*
X172435630Y-149265629D01*
X172643512Y-149351949D01*
X172437697Y-149436990D01*
X172044371Y-149829630D01*
X171831243Y-150342900D01*
X171830758Y-150898661D01*
X172042990Y-151412303D01*
X172320203Y-151690000D01*
X158190000Y-151690000D01*
X158190000Y-140970000D01*
X160731907Y-140970000D01*
X160844946Y-141538285D01*
X161166853Y-142020054D01*
X161496026Y-142240000D01*
X161166853Y-142459946D01*
X160844946Y-142941715D01*
X160731907Y-143510000D01*
X160844946Y-144078285D01*
X161166853Y-144560054D01*
X161208452Y-144587850D01*
X161160683Y-144596838D01*
X160944559Y-144735910D01*
X160799569Y-144948110D01*
X160748560Y-145200000D01*
X160748560Y-146900000D01*
X160792838Y-147135317D01*
X160931910Y-147351441D01*
X161144110Y-147496431D01*
X161396000Y-147547440D01*
X163096000Y-147547440D01*
X163331317Y-147503162D01*
X163547441Y-147364090D01*
X163692431Y-147151890D01*
X163727543Y-146978500D01*
X165830946Y-146978500D01*
X166085630Y-147233629D01*
X166598900Y-147446757D01*
X167154661Y-147447242D01*
X167668303Y-147235010D01*
X168061629Y-146842370D01*
X168274757Y-146329100D01*
X168275242Y-145773339D01*
X168063010Y-145259697D01*
X167670370Y-144866371D01*
X167462488Y-144780051D01*
X167668303Y-144695010D01*
X168061629Y-144302370D01*
X168274757Y-143789100D01*
X168275242Y-143233339D01*
X168063010Y-142719697D01*
X167670370Y-142326371D01*
X167462488Y-142240051D01*
X167668303Y-142155010D01*
X168061629Y-141762370D01*
X168274757Y-141249100D01*
X168275242Y-140693339D01*
X168093837Y-140254302D01*
X171818856Y-140254302D01*
X171846638Y-140809368D01*
X172005603Y-141193143D01*
X172247787Y-141262608D01*
X173048395Y-140462000D01*
X173407605Y-140462000D01*
X174208213Y-141262608D01*
X174450397Y-141193143D01*
X174604106Y-140762302D01*
X183248856Y-140762302D01*
X183276638Y-141317368D01*
X183435603Y-141701143D01*
X183677787Y-141770608D01*
X184478395Y-140970000D01*
X184837605Y-140970000D01*
X185638213Y-141770608D01*
X185880397Y-141701143D01*
X186067144Y-141177698D01*
X186039362Y-140622632D01*
X185880397Y-140238857D01*
X185638213Y-140169392D01*
X184837605Y-140970000D01*
X184478395Y-140970000D01*
X183677787Y-140169392D01*
X183435603Y-140238857D01*
X183248856Y-140762302D01*
X174604106Y-140762302D01*
X174637144Y-140669698D01*
X174609362Y-140114632D01*
X174557650Y-139989787D01*
X183857392Y-139989787D01*
X184658000Y-140790395D01*
X185458608Y-139989787D01*
X185389143Y-139747603D01*
X184865698Y-139560856D01*
X184310632Y-139588638D01*
X183926857Y-139747603D01*
X183857392Y-139989787D01*
X174557650Y-139989787D01*
X174450397Y-139730857D01*
X174208213Y-139661392D01*
X173407605Y-140462000D01*
X173048395Y-140462000D01*
X172247787Y-139661392D01*
X172005603Y-139730857D01*
X171818856Y-140254302D01*
X168093837Y-140254302D01*
X168063010Y-140179697D01*
X167670370Y-139786371D01*
X167157100Y-139573243D01*
X166601339Y-139572758D01*
X166087697Y-139784990D01*
X165694371Y-140177630D01*
X165481243Y-140690900D01*
X165480758Y-141246661D01*
X165692990Y-141760303D01*
X166085630Y-142153629D01*
X166293512Y-142239949D01*
X166087697Y-142324990D01*
X165830739Y-142581500D01*
X163406367Y-142581500D01*
X163325147Y-142459946D01*
X162995974Y-142240000D01*
X163325147Y-142020054D01*
X163647054Y-141538285D01*
X163760093Y-140970000D01*
X163647054Y-140401715D01*
X163325147Y-139919946D01*
X162843378Y-139598039D01*
X162275093Y-139485000D01*
X162216907Y-139485000D01*
X161648622Y-139598039D01*
X161166853Y-139919946D01*
X160844946Y-140401715D01*
X160731907Y-140970000D01*
X158190000Y-140970000D01*
X158190000Y-138198661D01*
X171830758Y-138198661D01*
X172042990Y-138712303D01*
X172435630Y-139105629D01*
X172627727Y-139185395D01*
X172496857Y-139239603D01*
X172427392Y-139481787D01*
X173228000Y-140282395D01*
X174028608Y-139481787D01*
X173959143Y-139239603D01*
X173818682Y-139189491D01*
X174018303Y-139107010D01*
X174411629Y-138714370D01*
X174624757Y-138201100D01*
X174625242Y-137645339D01*
X174413010Y-137131697D01*
X174020370Y-136738371D01*
X173828273Y-136658605D01*
X173959143Y-136604397D01*
X174028608Y-136362213D01*
X173228000Y-135561605D01*
X172427392Y-136362213D01*
X172496857Y-136604397D01*
X172637318Y-136654509D01*
X172437697Y-136736990D01*
X172044371Y-137129630D01*
X171831243Y-137642900D01*
X171830758Y-138198661D01*
X158190000Y-138198661D01*
X158190000Y-135174302D01*
X171818856Y-135174302D01*
X171846638Y-135729368D01*
X172005603Y-136113143D01*
X172247787Y-136182608D01*
X173048395Y-135382000D01*
X173407605Y-135382000D01*
X174208213Y-136182608D01*
X174450397Y-136113143D01*
X174637144Y-135589698D01*
X174609362Y-135034632D01*
X174450397Y-134650857D01*
X174208213Y-134581392D01*
X173407605Y-135382000D01*
X173048395Y-135382000D01*
X172247787Y-134581392D01*
X172005603Y-134650857D01*
X171818856Y-135174302D01*
X158190000Y-135174302D01*
X158190000Y-124490000D01*
X160731907Y-124490000D01*
X160844946Y-125058285D01*
X161166853Y-125540054D01*
X161496026Y-125760000D01*
X161166853Y-125979946D01*
X160844946Y-126461715D01*
X160731907Y-127030000D01*
X160844946Y-127598285D01*
X161166853Y-128080054D01*
X161208452Y-128107850D01*
X161160683Y-128116838D01*
X160944559Y-128255910D01*
X160799569Y-128468110D01*
X160748560Y-128720000D01*
X160748560Y-130420000D01*
X160792838Y-130655317D01*
X160931910Y-130871441D01*
X161144110Y-131016431D01*
X161396000Y-131067440D01*
X163096000Y-131067440D01*
X163331317Y-131023162D01*
X163547441Y-130884090D01*
X163692431Y-130671890D01*
X163733619Y-130468500D01*
X165830946Y-130468500D01*
X166085630Y-130723629D01*
X166598900Y-130936757D01*
X167154661Y-130937242D01*
X167668303Y-130725010D01*
X168061629Y-130332370D01*
X168274757Y-129819100D01*
X168275242Y-129263339D01*
X168063010Y-128749697D01*
X167670370Y-128356371D01*
X167462488Y-128270051D01*
X167668303Y-128185010D01*
X168061629Y-127792370D01*
X168274757Y-127279100D01*
X168275242Y-126723339D01*
X168063010Y-126209697D01*
X167670370Y-125816371D01*
X167462488Y-125730051D01*
X167668303Y-125645010D01*
X168061629Y-125252370D01*
X168274757Y-124739100D01*
X168275242Y-124183339D01*
X168063010Y-123669697D01*
X167670370Y-123276371D01*
X167157100Y-123063243D01*
X166601339Y-123062758D01*
X166087697Y-123274990D01*
X165694371Y-123667630D01*
X165481243Y-124180900D01*
X165480758Y-124736661D01*
X165692990Y-125250303D01*
X166085630Y-125643629D01*
X166293512Y-125729949D01*
X166087697Y-125814990D01*
X165800686Y-126101500D01*
X163406367Y-126101500D01*
X163325147Y-125979946D01*
X162995974Y-125760000D01*
X163325147Y-125540054D01*
X163647054Y-125058285D01*
X163760093Y-124490000D01*
X163647054Y-123921715D01*
X163325147Y-123439946D01*
X162843378Y-123118039D01*
X162275093Y-123005000D01*
X162216907Y-123005000D01*
X161648622Y-123118039D01*
X161166853Y-123439946D01*
X160844946Y-123921715D01*
X160731907Y-124490000D01*
X158190000Y-124490000D01*
X158190000Y-107920000D01*
X160985907Y-107920000D01*
X161098946Y-108488285D01*
X161420853Y-108970054D01*
X161750026Y-109190000D01*
X161420853Y-109409946D01*
X161098946Y-109891715D01*
X160985907Y-110460000D01*
X161098946Y-111028285D01*
X161420853Y-111510054D01*
X161462452Y-111537850D01*
X161414683Y-111546838D01*
X161198559Y-111685910D01*
X161053569Y-111898110D01*
X161002560Y-112150000D01*
X161002560Y-113850000D01*
X161046838Y-114085317D01*
X161185910Y-114301441D01*
X161398110Y-114446431D01*
X161650000Y-114497440D01*
X163350000Y-114497440D01*
X163585317Y-114453162D01*
X163801441Y-114314090D01*
X163946431Y-114101890D01*
X163981543Y-113928500D01*
X165792946Y-113928500D01*
X166047630Y-114183629D01*
X166560900Y-114396757D01*
X167116661Y-114397242D01*
X167630303Y-114185010D01*
X168023629Y-113792370D01*
X168236757Y-113279100D01*
X168237242Y-112723339D01*
X168025010Y-112209697D01*
X167632370Y-111816371D01*
X167424488Y-111730051D01*
X167630303Y-111645010D01*
X168023629Y-111252370D01*
X168236757Y-110739100D01*
X168237242Y-110183339D01*
X168025010Y-109669697D01*
X167632370Y-109276371D01*
X167424488Y-109190051D01*
X167630303Y-109105010D01*
X168023629Y-108712370D01*
X168236757Y-108199100D01*
X168237242Y-107643339D01*
X168025010Y-107129697D01*
X167632370Y-106736371D01*
X167119100Y-106523243D01*
X166563339Y-106522758D01*
X166049697Y-106734990D01*
X165656371Y-107127630D01*
X165443243Y-107640900D01*
X165442758Y-108196661D01*
X165654990Y-108710303D01*
X166047630Y-109103629D01*
X166255512Y-109189949D01*
X166049697Y-109274990D01*
X165792739Y-109531500D01*
X163660367Y-109531500D01*
X163579147Y-109409946D01*
X163249974Y-109190000D01*
X163579147Y-108970054D01*
X163901054Y-108488285D01*
X164014093Y-107920000D01*
X163901054Y-107351715D01*
X163579147Y-106869946D01*
X163097378Y-106548039D01*
X162529093Y-106435000D01*
X162470907Y-106435000D01*
X161902622Y-106548039D01*
X161420853Y-106869946D01*
X161098946Y-107351715D01*
X160985907Y-107920000D01*
X158190000Y-107920000D01*
X158190000Y-106360213D01*
X170419392Y-106360213D01*
X170488857Y-106602397D01*
X171012302Y-106789144D01*
X171567368Y-106761362D01*
X171951143Y-106602397D01*
X172020608Y-106360213D01*
X171220000Y-105559605D01*
X170419392Y-106360213D01*
X158190000Y-106360213D01*
X158190000Y-105172302D01*
X169810856Y-105172302D01*
X169838638Y-105727368D01*
X169997603Y-106111143D01*
X170239787Y-106180608D01*
X171040395Y-105380000D01*
X170239787Y-104579392D01*
X169997603Y-104648857D01*
X169810856Y-105172302D01*
X158190000Y-105172302D01*
X158190000Y-99019671D01*
X170560930Y-99060766D01*
G36*
X232852511Y-71836729D02*
X232366330Y-72161585D01*
X232041474Y-72647766D01*
X231927400Y-73221255D01*
X231927400Y-73590745D01*
X232041474Y-74164234D01*
X232366330Y-74650415D01*
X232852511Y-74975271D01*
X233426000Y-75089345D01*
X233999489Y-74975271D01*
X234485670Y-74650415D01*
X234692461Y-74340931D01*
X235063964Y-74756732D01*
X235591209Y-75010709D01*
X235606974Y-75013358D01*
X235839000Y-74892217D01*
X235839000Y-73533000D01*
X235819000Y-73533000D01*
X235819000Y-73279000D01*
X235839000Y-73279000D01*
X235839000Y-73259000D01*
X236093000Y-73259000D01*
X236093000Y-73279000D01*
X236113000Y-73279000D01*
X236113000Y-73533000D01*
X236093000Y-73533000D01*
X236093000Y-74892217D01*
X236325026Y-75013358D01*
X236340791Y-75010709D01*
X236868036Y-74756732D01*
X237239539Y-74340931D01*
X237446330Y-74650415D01*
X237932511Y-74975271D01*
X238506000Y-75089345D01*
X239079489Y-74975271D01*
X239565670Y-74650415D01*
X239890526Y-74164234D01*
X240004600Y-73590745D01*
X240004600Y-73221255D01*
X239890526Y-72647766D01*
X239565670Y-72161585D01*
X239079489Y-71836729D01*
X239045660Y-71830000D01*
X253290000Y-71830000D01*
X253290000Y-151690000D01*
X198247000Y-151690000D01*
X198247000Y-150612579D01*
X203488786Y-150612579D01*
X203676408Y-151066657D01*
X204023515Y-151414371D01*
X204477266Y-151602785D01*
X204968579Y-151603214D01*
X205422657Y-151415592D01*
X205770371Y-151068485D01*
X205958785Y-150614734D01*
X205959214Y-150123421D01*
X205771592Y-149669343D01*
X205424485Y-149321629D01*
X204970734Y-149133215D01*
X204479421Y-149132786D01*
X204025343Y-149320408D01*
X203677629Y-149667515D01*
X203489215Y-150121266D01*
X203488786Y-150612579D01*
X198247000Y-150612579D01*
X198247000Y-139885802D01*
X205603785Y-147242587D01*
X205338057Y-147352383D01*
X205074808Y-147615173D01*
X204932162Y-147958701D01*
X204931838Y-148330667D01*
X205073883Y-148674443D01*
X205336673Y-148937692D01*
X205680201Y-149080338D01*
X205727077Y-149080379D01*
X206265963Y-149619265D01*
X206217629Y-149667515D01*
X206029215Y-150121266D01*
X206028786Y-150612579D01*
X206216408Y-151066657D01*
X206563515Y-151414371D01*
X207017266Y-151602785D01*
X207508579Y-151603214D01*
X207962657Y-151415592D01*
X208310371Y-151068485D01*
X208498785Y-150614734D01*
X208499201Y-150138003D01*
X208569139Y-150207941D01*
X208568786Y-150612579D01*
X208756408Y-151066657D01*
X209103515Y-151414371D01*
X209557266Y-151602785D01*
X210048579Y-151603214D01*
X210502657Y-151415592D01*
X210850371Y-151068485D01*
X211038785Y-150614734D01*
X211039201Y-150138003D01*
X211109139Y-150207941D01*
X211108786Y-150612579D01*
X211296408Y-151066657D01*
X211643515Y-151414371D01*
X212097266Y-151602785D01*
X212588579Y-151603214D01*
X213042657Y-151415592D01*
X213390371Y-151068485D01*
X213578785Y-150614734D01*
X213579214Y-150123421D01*
X213391592Y-149669343D01*
X213389752Y-149667500D01*
X213837644Y-149667500D01*
X213837629Y-149667515D01*
X213649215Y-150121266D01*
X213648786Y-150612579D01*
X213836408Y-151066657D01*
X214183515Y-151414371D01*
X214637266Y-151602785D01*
X215128579Y-151603214D01*
X215582657Y-151415592D01*
X215930371Y-151068485D01*
X216118785Y-150614734D01*
X216119214Y-150123421D01*
X215931592Y-149669343D01*
X215929752Y-149667500D01*
X216377644Y-149667500D01*
X216377629Y-149667515D01*
X216189215Y-150121266D01*
X216188786Y-150612579D01*
X216376408Y-151066657D01*
X216723515Y-151414371D01*
X217177266Y-151602785D01*
X217668579Y-151603214D01*
X218122657Y-151415592D01*
X218470371Y-151068485D01*
X218658785Y-150614734D01*
X218659201Y-150138003D01*
X218729139Y-150207941D01*
X218728786Y-150612579D01*
X218916408Y-151066657D01*
X219263515Y-151414371D01*
X219717266Y-151602785D01*
X220208579Y-151603214D01*
X220662657Y-151415592D01*
X221010371Y-151068485D01*
X221198785Y-150614734D01*
X221199214Y-150123421D01*
X221011592Y-149669343D01*
X220664485Y-149321629D01*
X220210734Y-149133215D01*
X219803662Y-149132860D01*
X218405901Y-147735099D01*
X218159339Y-147570352D01*
X217868500Y-147512500D01*
X212976302Y-147512500D01*
X200023000Y-134559198D01*
X200023000Y-130292579D01*
X203488786Y-130292579D01*
X203676408Y-130746657D01*
X204023515Y-131094371D01*
X204477266Y-131282785D01*
X204968579Y-131283214D01*
X205422657Y-131095592D01*
X205770371Y-130748485D01*
X205958785Y-130294734D01*
X205959214Y-129803421D01*
X205771592Y-129349343D01*
X205424485Y-129001629D01*
X204970734Y-128813215D01*
X204479421Y-128812786D01*
X204025343Y-129000408D01*
X203677629Y-129347515D01*
X203489215Y-129801266D01*
X203488786Y-130292579D01*
X200023000Y-130292579D01*
X200023000Y-121341802D01*
X207494399Y-128813201D01*
X207019421Y-128812786D01*
X206565343Y-129000408D01*
X206217629Y-129347515D01*
X206029215Y-129801266D01*
X206028786Y-130292579D01*
X206216408Y-130746657D01*
X206563515Y-131094371D01*
X207017266Y-131282785D01*
X207508579Y-131283214D01*
X207962657Y-131095592D01*
X208310371Y-130748485D01*
X208498785Y-130294734D01*
X208499201Y-129818003D01*
X208569139Y-129887941D01*
X208568786Y-130292579D01*
X208756408Y-130746657D01*
X209103515Y-131094371D01*
X209557266Y-131282785D01*
X210048579Y-131283214D01*
X210502657Y-131095592D01*
X210850371Y-130748485D01*
X211038785Y-130294734D01*
X211039214Y-129803421D01*
X210851592Y-129349343D01*
X210504485Y-129001629D01*
X210050734Y-128813215D01*
X209643662Y-128812860D01*
X207482281Y-126651479D01*
X207792943Y-126523117D01*
X208056192Y-126260327D01*
X208198838Y-125916799D01*
X208199162Y-125544833D01*
X208057117Y-125201057D01*
X207989755Y-125133578D01*
X207966148Y-125014897D01*
X207801401Y-124768335D01*
X201166000Y-118132934D01*
X201166000Y-117602000D01*
X201108148Y-117311161D01*
X200943401Y-117064599D01*
X198247000Y-114368198D01*
X198247000Y-101785167D01*
X207598838Y-101785167D01*
X207740883Y-102128943D01*
X208003673Y-102392192D01*
X208347201Y-102534838D01*
X208394077Y-102534879D01*
X212854000Y-106994802D01*
X212854000Y-128922533D01*
X212590734Y-128813215D01*
X212099421Y-128812786D01*
X211645343Y-129000408D01*
X211297629Y-129347515D01*
X211109215Y-129801266D01*
X211108786Y-130292579D01*
X211296408Y-130746657D01*
X211643515Y-131094371D01*
X212097266Y-131282785D01*
X212588579Y-131283214D01*
X212854000Y-131173544D01*
X212854000Y-140629472D01*
X212911852Y-140920311D01*
X213076599Y-141166873D01*
X221517487Y-149607761D01*
X221457629Y-149667515D01*
X221269215Y-150121266D01*
X221268786Y-150612579D01*
X221456408Y-151066657D01*
X221803515Y-151414371D01*
X222257266Y-151602785D01*
X222748579Y-151603214D01*
X223202657Y-151415592D01*
X223550371Y-151068485D01*
X223738785Y-150614734D01*
X223739214Y-150123421D01*
X223551592Y-149669343D01*
X223229663Y-149346851D01*
X223206148Y-149228633D01*
X223041401Y-148982071D01*
X214374000Y-140314670D01*
X214374000Y-131173467D01*
X214637266Y-131282785D01*
X215128579Y-131283214D01*
X215582657Y-131095592D01*
X215930371Y-130748485D01*
X216118785Y-130294734D01*
X216118786Y-130292579D01*
X216188786Y-130292579D01*
X216376408Y-130746657D01*
X216723515Y-131094371D01*
X217177266Y-131282785D01*
X217668579Y-131283214D01*
X218122657Y-131095592D01*
X218470371Y-130748485D01*
X218658785Y-130294734D01*
X218658786Y-130292579D01*
X218728786Y-130292579D01*
X218916408Y-130746657D01*
X219263515Y-131094371D01*
X219717266Y-131282785D01*
X220208579Y-131283214D01*
X220662657Y-131095592D01*
X221010371Y-130748485D01*
X221198785Y-130294734D01*
X221198786Y-130292579D01*
X221268786Y-130292579D01*
X221456408Y-130746657D01*
X221803515Y-131094371D01*
X222257266Y-131282785D01*
X222748579Y-131283214D01*
X223202657Y-131095592D01*
X223550371Y-130748485D01*
X223738785Y-130294734D01*
X223739214Y-129803421D01*
X223551592Y-129349343D01*
X223204485Y-129001629D01*
X222750734Y-128813215D01*
X222259421Y-128812786D01*
X221805343Y-129000408D01*
X221457629Y-129347515D01*
X221269215Y-129801266D01*
X221268786Y-130292579D01*
X221198786Y-130292579D01*
X221199214Y-129803421D01*
X221011592Y-129349343D01*
X220664485Y-129001629D01*
X220210734Y-128813215D01*
X219719421Y-128812786D01*
X219265343Y-129000408D01*
X218917629Y-129347515D01*
X218729215Y-129801266D01*
X218728786Y-130292579D01*
X218658786Y-130292579D01*
X218659214Y-129803421D01*
X218471592Y-129349343D01*
X218124485Y-129001629D01*
X217670734Y-128813215D01*
X217179421Y-128812786D01*
X216725343Y-129000408D01*
X216377629Y-129347515D01*
X216189215Y-129801266D01*
X216188786Y-130292579D01*
X216118786Y-130292579D01*
X216119214Y-129803421D01*
X215931592Y-129349343D01*
X215584485Y-129001629D01*
X215130734Y-128813215D01*
X214639421Y-128812786D01*
X214374000Y-128922456D01*
X214374000Y-106680000D01*
X214316148Y-106389161D01*
X214151401Y-106142599D01*
X209469122Y-101460320D01*
X209469162Y-101414833D01*
X209327117Y-101071057D01*
X209064327Y-100807808D01*
X208720799Y-100665162D01*
X208348833Y-100664838D01*
X208005057Y-100806883D01*
X207741808Y-101069673D01*
X207599162Y-101413201D01*
X207598838Y-101785167D01*
X198247000Y-101785167D01*
X198247000Y-90494988D01*
X214642186Y-90494988D01*
X232666000Y-108518802D01*
X232666000Y-122654230D01*
X232628213Y-122643392D01*
X231827605Y-123444000D01*
X231841748Y-123458143D01*
X231662143Y-123637748D01*
X231648000Y-123623605D01*
X230847392Y-124424213D01*
X230916857Y-124666397D01*
X231440302Y-124853144D01*
X231717951Y-124839247D01*
X227744059Y-128813139D01*
X227339421Y-128812786D01*
X227242500Y-128852833D01*
X227242500Y-126622598D01*
X229024170Y-124840927D01*
X229384661Y-124841242D01*
X229898303Y-124629010D01*
X230291629Y-124236370D01*
X230371395Y-124044273D01*
X230425603Y-124175143D01*
X230667787Y-124244608D01*
X231468395Y-123444000D01*
X230667787Y-122643392D01*
X230425603Y-122712857D01*
X230375491Y-122853318D01*
X230293010Y-122653697D01*
X230103432Y-122463787D01*
X230847392Y-122463787D01*
X231648000Y-123264395D01*
X232448608Y-122463787D01*
X232379143Y-122221603D01*
X231855698Y-122034856D01*
X231300632Y-122062638D01*
X230916857Y-122221603D01*
X230847392Y-122463787D01*
X230103432Y-122463787D01*
X229900370Y-122260371D01*
X229387100Y-122047243D01*
X228831339Y-122046758D01*
X228317697Y-122258990D01*
X227924371Y-122651630D01*
X227711243Y-123164900D01*
X227710926Y-123527977D01*
X225657451Y-125581451D01*
X225456178Y-125882678D01*
X225456178Y-125882679D01*
X225385499Y-126238000D01*
X225385500Y-126238005D01*
X225385500Y-128852565D01*
X225290734Y-128813215D01*
X224799421Y-128812786D01*
X224345343Y-129000408D01*
X223997629Y-129347515D01*
X223809215Y-129801266D01*
X223808786Y-130292579D01*
X223996408Y-130746657D01*
X224343515Y-131094371D01*
X224797266Y-131282785D01*
X225288579Y-131283214D01*
X225385500Y-131243167D01*
X225385500Y-149097995D01*
X225385499Y-149098000D01*
X225401667Y-149179278D01*
X225290734Y-149133215D01*
X224799421Y-149132786D01*
X224345343Y-149320408D01*
X223997629Y-149667515D01*
X223809215Y-150121266D01*
X223808786Y-150612579D01*
X223996408Y-151066657D01*
X224343515Y-151414371D01*
X224797266Y-151602785D01*
X225288579Y-151603214D01*
X225742657Y-151415592D01*
X226090371Y-151068485D01*
X226278785Y-150614734D01*
X226278993Y-150376091D01*
X226348931Y-150446029D01*
X226348786Y-150612579D01*
X226536408Y-151066657D01*
X226883515Y-151414371D01*
X227337266Y-151602785D01*
X227828579Y-151603214D01*
X228282657Y-151415592D01*
X228630371Y-151068485D01*
X228818785Y-150614734D01*
X228818786Y-150612579D01*
X228888786Y-150612579D01*
X229076408Y-151066657D01*
X229423515Y-151414371D01*
X229877266Y-151602785D01*
X230368579Y-151603214D01*
X230822657Y-151415592D01*
X231170371Y-151068485D01*
X231358785Y-150614734D01*
X231358786Y-150612579D01*
X231428786Y-150612579D01*
X231616408Y-151066657D01*
X231963515Y-151414371D01*
X232417266Y-151602785D01*
X232908579Y-151603214D01*
X233362657Y-151415592D01*
X233710371Y-151068485D01*
X233898785Y-150614734D01*
X233899214Y-150123421D01*
X233711592Y-149669343D01*
X233364485Y-149321629D01*
X232910734Y-149133215D01*
X232419421Y-149132786D01*
X231965343Y-149320408D01*
X231617629Y-149667515D01*
X231429215Y-150121266D01*
X231428786Y-150612579D01*
X231358786Y-150612579D01*
X231359214Y-150123421D01*
X231171592Y-149669343D01*
X230824485Y-149321629D01*
X230370734Y-149133215D01*
X229879421Y-149132786D01*
X229425343Y-149320408D01*
X229077629Y-149667515D01*
X228889215Y-150121266D01*
X228888786Y-150612579D01*
X228818786Y-150612579D01*
X228819214Y-150123421D01*
X228631592Y-149669343D01*
X228284485Y-149321629D01*
X227830734Y-149133215D01*
X227662165Y-149133068D01*
X227242500Y-148713402D01*
X227242500Y-131243435D01*
X227337266Y-131282785D01*
X227828579Y-131283214D01*
X228282657Y-131095592D01*
X228630371Y-130748485D01*
X228818785Y-130294734D01*
X228819140Y-129887662D01*
X228889201Y-129817601D01*
X228888786Y-130292579D01*
X229076408Y-130746657D01*
X229423515Y-131094371D01*
X229877266Y-131282785D01*
X230368579Y-131283214D01*
X230822657Y-131095592D01*
X231170371Y-130748485D01*
X231358785Y-130294734D01*
X231359140Y-129887662D01*
X231429201Y-129817601D01*
X231428786Y-130292579D01*
X231616408Y-130746657D01*
X231963515Y-131094371D01*
X232417266Y-131282785D01*
X232908579Y-131283214D01*
X233362657Y-131095592D01*
X233547837Y-130910735D01*
X234520870Y-130910735D01*
X234570383Y-131136164D01*
X235035036Y-131295807D01*
X235525413Y-131265482D01*
X235837617Y-131136164D01*
X235887130Y-130910735D01*
X235204000Y-130227605D01*
X234520870Y-130910735D01*
X233547837Y-130910735D01*
X233710371Y-130748485D01*
X233898785Y-130294734D01*
X233899140Y-129887662D01*
X233981540Y-129805262D01*
X233956193Y-129879036D01*
X233986518Y-130369413D01*
X234115836Y-130681617D01*
X234341265Y-130731130D01*
X235024395Y-130048000D01*
X235383605Y-130048000D01*
X236066735Y-130731130D01*
X236292164Y-130681617D01*
X236425827Y-130292579D01*
X236508786Y-130292579D01*
X236696408Y-130746657D01*
X237043515Y-131094371D01*
X237497266Y-131282785D01*
X237988579Y-131283214D01*
X238442657Y-131095592D01*
X238790371Y-130748485D01*
X238978785Y-130294734D01*
X238978786Y-130292579D01*
X239048786Y-130292579D01*
X239236408Y-130746657D01*
X239583515Y-131094371D01*
X240037266Y-131282785D01*
X240528579Y-131283214D01*
X240982657Y-131095592D01*
X241330371Y-130748485D01*
X241518785Y-130294734D01*
X241518786Y-130292579D01*
X241588786Y-130292579D01*
X241776408Y-130746657D01*
X242123515Y-131094371D01*
X242577266Y-131282785D01*
X243068579Y-131283214D01*
X243522657Y-131095592D01*
X243870371Y-130748485D01*
X244058785Y-130294734D01*
X244059214Y-129803421D01*
X243871592Y-129349343D01*
X243524485Y-129001629D01*
X243070734Y-128813215D01*
X242579421Y-128812786D01*
X242125343Y-129000408D01*
X241777629Y-129347515D01*
X241589215Y-129801266D01*
X241588786Y-130292579D01*
X241518786Y-130292579D01*
X241519214Y-129803421D01*
X241331592Y-129349343D01*
X240984485Y-129001629D01*
X240530734Y-128813215D01*
X240039421Y-128812786D01*
X239585343Y-129000408D01*
X239237629Y-129347515D01*
X239049215Y-129801266D01*
X239048786Y-130292579D01*
X238978786Y-130292579D01*
X238979214Y-129803421D01*
X238791592Y-129349343D01*
X238444485Y-129001629D01*
X237990734Y-128813215D01*
X237499421Y-128812786D01*
X237045343Y-129000408D01*
X236697629Y-129347515D01*
X236509215Y-129801266D01*
X236508786Y-130292579D01*
X236425827Y-130292579D01*
X236451807Y-130216964D01*
X236421482Y-129726587D01*
X236292164Y-129414383D01*
X236066735Y-129364870D01*
X235383605Y-130048000D01*
X235024395Y-130048000D01*
X235010253Y-130033858D01*
X235189858Y-129854253D01*
X235204000Y-129868395D01*
X235887130Y-129185265D01*
X235837617Y-128959836D01*
X235372964Y-128800193D01*
X234961142Y-128825660D01*
X234979401Y-128807401D01*
X235144148Y-128560839D01*
X235202000Y-128270000D01*
X235202000Y-107924179D01*
X235144148Y-107633340D01*
X234979401Y-107386778D01*
X215890188Y-88297565D01*
X215643626Y-88132818D01*
X215352787Y-88074966D01*
X212208365Y-88074966D01*
X212445961Y-87719378D01*
X212559000Y-87151093D01*
X212559000Y-87092907D01*
X212445961Y-86524622D01*
X212124054Y-86042853D01*
X212002500Y-85961633D01*
X212002500Y-82804000D01*
X211931822Y-82448678D01*
X211730549Y-82147451D01*
X211730546Y-82147449D01*
X209462500Y-79879402D01*
X209462500Y-79646367D01*
X209584054Y-79565147D01*
X209804000Y-79235974D01*
X210023946Y-79565147D01*
X210505715Y-79887054D01*
X211074000Y-80000093D01*
X211642285Y-79887054D01*
X212124054Y-79565147D01*
X212344000Y-79235974D01*
X212563946Y-79565147D01*
X212854678Y-79759407D01*
X212911852Y-80046839D01*
X213076599Y-80293401D01*
X216632599Y-83849401D01*
X216879160Y-84014148D01*
X216927414Y-84023746D01*
X217170000Y-84072000D01*
X233832400Y-84072000D01*
X234123239Y-84014148D01*
X234369801Y-83849401D01*
X235585536Y-82633666D01*
X235966000Y-82709345D01*
X236539489Y-82595271D01*
X237025670Y-82270415D01*
X237236000Y-81955634D01*
X237446330Y-82270415D01*
X237790298Y-82500247D01*
X235581402Y-84709143D01*
X231354362Y-84709143D01*
X231354357Y-84709142D01*
X230999036Y-84779820D01*
X230999034Y-84779821D01*
X230999035Y-84779821D01*
X230697808Y-84981094D01*
X230697806Y-84981097D01*
X229191830Y-86487073D01*
X228831339Y-86486758D01*
X228317697Y-86698990D01*
X227924371Y-87091630D01*
X227711243Y-87604900D01*
X227710758Y-88160661D01*
X227922990Y-88674303D01*
X228315630Y-89067629D01*
X228828900Y-89280757D01*
X229384661Y-89281242D01*
X229898303Y-89069010D01*
X230291629Y-88676370D01*
X230377949Y-88468488D01*
X230462990Y-88674303D01*
X230855630Y-89067629D01*
X231368900Y-89280757D01*
X231924661Y-89281242D01*
X232438303Y-89069010D01*
X232695261Y-88812500D01*
X234832639Y-88812500D01*
X234832644Y-88812501D01*
X235129013Y-88753548D01*
X235187966Y-88741822D01*
X235489193Y-88540549D01*
X243153146Y-80876595D01*
X243153149Y-80876593D01*
X243354422Y-80575366D01*
X243354423Y-80575365D01*
X243425101Y-80220044D01*
X243425100Y-80220039D01*
X243425100Y-77549000D01*
X243354422Y-77193678D01*
X243153149Y-76892451D01*
X242519190Y-76258492D01*
X242544600Y-76130745D01*
X242544600Y-75761255D01*
X242430526Y-75187766D01*
X242105670Y-74701585D01*
X241619489Y-74376729D01*
X241046000Y-74262655D01*
X240472511Y-74376729D01*
X239986330Y-74701585D01*
X239661474Y-75187766D01*
X239547400Y-75761255D01*
X239547400Y-76130745D01*
X239661474Y-76704234D01*
X239986330Y-77190415D01*
X240024621Y-77216000D01*
X239986330Y-77241585D01*
X239661474Y-77727766D01*
X239547400Y-78301255D01*
X239547400Y-78670745D01*
X239661474Y-79244234D01*
X239986330Y-79730415D01*
X240117500Y-79818060D01*
X240117500Y-80173045D01*
X239912468Y-80378077D01*
X239890526Y-80267766D01*
X239565670Y-79781585D01*
X239225017Y-79553968D01*
X239208148Y-79469161D01*
X239043401Y-79222599D01*
X237769401Y-77948599D01*
X237522839Y-77783852D01*
X237232000Y-77726000D01*
X217417301Y-77726000D01*
X217204054Y-77406853D01*
X216855915Y-77174235D01*
X216855915Y-75450446D01*
X217145969Y-75256639D01*
X217467876Y-74774870D01*
X217580915Y-74206585D01*
X217580915Y-74148399D01*
X217467876Y-73580114D01*
X217145969Y-73098345D01*
X216664200Y-72776438D01*
X216095915Y-72663399D01*
X215527630Y-72776438D01*
X215045861Y-73098345D01*
X214825915Y-73427518D01*
X214605969Y-73098345D01*
X214124200Y-72776438D01*
X213555915Y-72663399D01*
X212987630Y-72776438D01*
X212505861Y-73098345D01*
X212285915Y-73427518D01*
X212065969Y-73098345D01*
X211584200Y-72776438D01*
X211015915Y-72663399D01*
X210447630Y-72776438D01*
X209965861Y-73098345D01*
X209745915Y-73427518D01*
X209525969Y-73098345D01*
X209044200Y-72776438D01*
X208475915Y-72663399D01*
X207907630Y-72776438D01*
X207425861Y-73098345D01*
X207396512Y-73142269D01*
X207324242Y-72967794D01*
X207145614Y-72789165D01*
X206912225Y-72692492D01*
X206221665Y-72692492D01*
X206062915Y-72851242D01*
X206062915Y-74050492D01*
X206082915Y-74050492D01*
X206082915Y-74304492D01*
X206062915Y-74304492D01*
X206062915Y-75503742D01*
X206221665Y-75662492D01*
X206912225Y-75662492D01*
X207145614Y-75565819D01*
X207324242Y-75387190D01*
X207396512Y-75212715D01*
X207425861Y-75256639D01*
X207547415Y-75337859D01*
X207547415Y-77364444D01*
X207483946Y-77406853D01*
X207454597Y-77450777D01*
X207382327Y-77276302D01*
X207203699Y-77097673D01*
X206970310Y-77001000D01*
X206279750Y-77001000D01*
X206121000Y-77159750D01*
X206121000Y-78359000D01*
X206141000Y-78359000D01*
X206141000Y-78613000D01*
X206121000Y-78613000D01*
X206121000Y-79812250D01*
X206279750Y-79971000D01*
X206970310Y-79971000D01*
X207203699Y-79874327D01*
X207382327Y-79695698D01*
X207454597Y-79521223D01*
X207483946Y-79565147D01*
X207605500Y-79646367D01*
X207605500Y-80263995D01*
X207605499Y-80264000D01*
X207663909Y-80557643D01*
X207676178Y-80619322D01*
X207753579Y-80735161D01*
X207877451Y-80920549D01*
X210145500Y-83188597D01*
X210145500Y-85961633D01*
X210023946Y-86042853D01*
X209804000Y-86372026D01*
X209584054Y-86042853D01*
X209102285Y-85720946D01*
X208534000Y-85607907D01*
X207965715Y-85720946D01*
X207483946Y-86042853D01*
X207454597Y-86086777D01*
X207382327Y-85912302D01*
X207203699Y-85733673D01*
X206970310Y-85637000D01*
X206279750Y-85637000D01*
X206121000Y-85795750D01*
X206121000Y-86995000D01*
X206141000Y-86995000D01*
X206141000Y-87249000D01*
X206121000Y-87249000D01*
X206121000Y-87269000D01*
X205867000Y-87269000D01*
X205867000Y-87249000D01*
X204667750Y-87249000D01*
X204509000Y-87407750D01*
X204509000Y-88074966D01*
X198247000Y-88074966D01*
X198247000Y-86360000D01*
X198236994Y-86310590D01*
X198208553Y-86268965D01*
X198166159Y-86241685D01*
X198120000Y-86233000D01*
X177223802Y-86233000D01*
X177136493Y-86145691D01*
X204509000Y-86145691D01*
X204509000Y-86836250D01*
X204667750Y-86995000D01*
X205867000Y-86995000D01*
X205867000Y-85795750D01*
X205708250Y-85637000D01*
X205017690Y-85637000D01*
X204784301Y-85733673D01*
X204605673Y-85912302D01*
X204509000Y-86145691D01*
X177136493Y-86145691D01*
X169924000Y-78933198D01*
X169924000Y-78771750D01*
X204509000Y-78771750D01*
X204509000Y-79462309D01*
X204605673Y-79695698D01*
X204784301Y-79874327D01*
X205017690Y-79971000D01*
X205708250Y-79971000D01*
X205867000Y-79812250D01*
X205867000Y-78613000D01*
X204667750Y-78613000D01*
X204509000Y-78771750D01*
X169924000Y-78771750D01*
X169924000Y-77509691D01*
X204509000Y-77509691D01*
X204509000Y-78200250D01*
X204667750Y-78359000D01*
X205867000Y-78359000D01*
X205867000Y-77159750D01*
X205708250Y-77001000D01*
X205017690Y-77001000D01*
X204784301Y-77097673D01*
X204605673Y-77276302D01*
X204509000Y-77509691D01*
X169924000Y-77509691D01*
X169924000Y-76518610D01*
X169866148Y-76227771D01*
X169701401Y-75981209D01*
X168183434Y-74463242D01*
X204450915Y-74463242D01*
X204450915Y-75153801D01*
X204547588Y-75387190D01*
X204726216Y-75565819D01*
X204959605Y-75662492D01*
X205650165Y-75662492D01*
X205808915Y-75503742D01*
X205808915Y-74304492D01*
X204609665Y-74304492D01*
X204450915Y-74463242D01*
X168183434Y-74463242D01*
X168153217Y-74433025D01*
X168201821Y-74361890D01*
X168252830Y-74110000D01*
X168252830Y-73210000D01*
X168251171Y-73201183D01*
X204450915Y-73201183D01*
X204450915Y-73891742D01*
X204609665Y-74050492D01*
X205808915Y-74050492D01*
X205808915Y-72851242D01*
X205650165Y-72692492D01*
X204959605Y-72692492D01*
X204726216Y-72789165D01*
X204547588Y-72967794D01*
X204450915Y-73201183D01*
X168251171Y-73201183D01*
X168208552Y-72974683D01*
X168069480Y-72758559D01*
X167857280Y-72613569D01*
X167605390Y-72562560D01*
X166405390Y-72562560D01*
X166170073Y-72606838D01*
X165953949Y-72745910D01*
X165906256Y-72815711D01*
X165869480Y-72758559D01*
X165657280Y-72613569D01*
X165405390Y-72562560D01*
X164205390Y-72562560D01*
X163970073Y-72606838D01*
X163753949Y-72745910D01*
X163648664Y-72900000D01*
X163460495Y-72900000D01*
X163369480Y-72758559D01*
X163157280Y-72613569D01*
X162905390Y-72562560D01*
X161705390Y-72562560D01*
X161470073Y-72606838D01*
X161253949Y-72745910D01*
X161207421Y-72814006D01*
X161065088Y-72671673D01*
X160831699Y-72575000D01*
X160391140Y-72575000D01*
X160232390Y-72733750D01*
X160232390Y-73533000D01*
X160252390Y-73533000D01*
X160252390Y-73787000D01*
X160232390Y-73787000D01*
X160232390Y-74586250D01*
X160391140Y-74745000D01*
X160831699Y-74745000D01*
X161065088Y-74648327D01*
X161206326Y-74507090D01*
X161241300Y-74561441D01*
X161453500Y-74706431D01*
X161705390Y-74757440D01*
X162905390Y-74757440D01*
X163140707Y-74713162D01*
X163356831Y-74574090D01*
X163462116Y-74420000D01*
X163650285Y-74420000D01*
X163741300Y-74561441D01*
X163953500Y-74706431D01*
X164205390Y-74757440D01*
X165405390Y-74757440D01*
X165640707Y-74713162D01*
X165856831Y-74574090D01*
X165904524Y-74504289D01*
X165941300Y-74561441D01*
X166153500Y-74706431D01*
X166369632Y-74750199D01*
X166467989Y-74897401D01*
X168404000Y-76833412D01*
X168404000Y-78284922D01*
X168253097Y-78254905D01*
X168252830Y-78254638D01*
X168252830Y-77782000D01*
X168208552Y-77546683D01*
X168069480Y-77330559D01*
X167857280Y-77185569D01*
X167605390Y-77134560D01*
X166405390Y-77134560D01*
X166170073Y-77178838D01*
X165953949Y-77317910D01*
X165906256Y-77387711D01*
X165869480Y-77330559D01*
X165657280Y-77185569D01*
X165405390Y-77134560D01*
X164205390Y-77134560D01*
X163970073Y-77178838D01*
X163753949Y-77317910D01*
X163648664Y-77472000D01*
X163460495Y-77472000D01*
X163369480Y-77330559D01*
X163157280Y-77185569D01*
X162905390Y-77134560D01*
X161705390Y-77134560D01*
X161470073Y-77178838D01*
X161253949Y-77317910D01*
X161207421Y-77386006D01*
X161065088Y-77243673D01*
X160831699Y-77147000D01*
X160391140Y-77147000D01*
X160232390Y-77305750D01*
X160232390Y-78105000D01*
X160252390Y-78105000D01*
X160252390Y-78359000D01*
X160232390Y-78359000D01*
X160232390Y-79158250D01*
X160391140Y-79317000D01*
X160831699Y-79317000D01*
X161065088Y-79220327D01*
X161206326Y-79079090D01*
X161241300Y-79133441D01*
X161453500Y-79278431D01*
X161705390Y-79329440D01*
X162905390Y-79329440D01*
X163140707Y-79285162D01*
X163356831Y-79146090D01*
X163462116Y-78992000D01*
X163650285Y-78992000D01*
X163741300Y-79133441D01*
X163953500Y-79278431D01*
X164205390Y-79329440D01*
X165405390Y-79329440D01*
X165640707Y-79285162D01*
X165856831Y-79146090D01*
X165904524Y-79076289D01*
X165941300Y-79133441D01*
X166153500Y-79278431D01*
X166405390Y-79329440D01*
X167178028Y-79329440D01*
X167379989Y-79531401D01*
X167626551Y-79696148D01*
X167812293Y-79733095D01*
X170123198Y-82044000D01*
X168160105Y-82044000D01*
X168069090Y-81902559D01*
X167856890Y-81757569D01*
X167605000Y-81706560D01*
X166405000Y-81706560D01*
X166169683Y-81750838D01*
X165953559Y-81889910D01*
X165905866Y-81959711D01*
X165869090Y-81902559D01*
X165656890Y-81757569D01*
X165405000Y-81706560D01*
X164205000Y-81706560D01*
X163969683Y-81750838D01*
X163753559Y-81889910D01*
X163648274Y-82044000D01*
X163461105Y-82044000D01*
X163370090Y-81902559D01*
X163157890Y-81757569D01*
X162906000Y-81706560D01*
X161706000Y-81706560D01*
X161470683Y-81750838D01*
X161254559Y-81889910D01*
X161208031Y-81958006D01*
X161065698Y-81815673D01*
X160832309Y-81719000D01*
X160391750Y-81719000D01*
X160233000Y-81877750D01*
X160233000Y-82677000D01*
X160253000Y-82677000D01*
X160253000Y-82931000D01*
X160233000Y-82931000D01*
X160233000Y-83730250D01*
X160391750Y-83889000D01*
X160832309Y-83889000D01*
X161065698Y-83792327D01*
X161206936Y-83651090D01*
X161241910Y-83705441D01*
X161454110Y-83850431D01*
X161706000Y-83901440D01*
X162906000Y-83901440D01*
X163141317Y-83857162D01*
X163357441Y-83718090D01*
X163462726Y-83564000D01*
X163649895Y-83564000D01*
X163740910Y-83705441D01*
X163953110Y-83850431D01*
X164205000Y-83901440D01*
X165405000Y-83901440D01*
X165640317Y-83857162D01*
X165856441Y-83718090D01*
X165904134Y-83648289D01*
X165940910Y-83705441D01*
X166153110Y-83850431D01*
X166405000Y-83901440D01*
X167605000Y-83901440D01*
X167840317Y-83857162D01*
X168056441Y-83718090D01*
X168161726Y-83564000D01*
X170831977Y-83564000D01*
X173500977Y-86233000D01*
X158190000Y-86233000D01*
X158190000Y-83089750D01*
X158871000Y-83089750D01*
X158871000Y-83380310D01*
X158967673Y-83613699D01*
X159146302Y-83792327D01*
X159379691Y-83889000D01*
X159820250Y-83889000D01*
X159979000Y-83730250D01*
X159979000Y-82931000D01*
X159029750Y-82931000D01*
X158871000Y-83089750D01*
X158190000Y-83089750D01*
X158190000Y-82227690D01*
X158871000Y-82227690D01*
X158871000Y-82518250D01*
X159029750Y-82677000D01*
X159979000Y-82677000D01*
X159979000Y-81877750D01*
X159820250Y-81719000D01*
X159379691Y-81719000D01*
X159146302Y-81815673D01*
X158967673Y-81994301D01*
X158871000Y-82227690D01*
X158190000Y-82227690D01*
X158190000Y-78517750D01*
X158870390Y-78517750D01*
X158870390Y-78808310D01*
X158967063Y-79041699D01*
X159145692Y-79220327D01*
X159379081Y-79317000D01*
X159819640Y-79317000D01*
X159978390Y-79158250D01*
X159978390Y-78359000D01*
X159029140Y-78359000D01*
X158870390Y-78517750D01*
X158190000Y-78517750D01*
X158190000Y-77655690D01*
X158870390Y-77655690D01*
X158870390Y-77946250D01*
X159029140Y-78105000D01*
X159978390Y-78105000D01*
X159978390Y-77305750D01*
X159819640Y-77147000D01*
X159379081Y-77147000D01*
X159145692Y-77243673D01*
X158967063Y-77422301D01*
X158870390Y-77655690D01*
X158190000Y-77655690D01*
X158190000Y-73945750D01*
X158870390Y-73945750D01*
X158870390Y-74236310D01*
X158967063Y-74469699D01*
X159145692Y-74648327D01*
X159379081Y-74745000D01*
X159819640Y-74745000D01*
X159978390Y-74586250D01*
X159978390Y-73787000D01*
X159029140Y-73787000D01*
X158870390Y-73945750D01*
X158190000Y-73945750D01*
X158190000Y-73083690D01*
X158870390Y-73083690D01*
X158870390Y-73374250D01*
X159029140Y-73533000D01*
X159978390Y-73533000D01*
X159978390Y-72733750D01*
X159819640Y-72575000D01*
X159379081Y-72575000D01*
X159145692Y-72671673D01*
X158967063Y-72850301D01*
X158870390Y-73083690D01*
X158190000Y-73083690D01*
X158190000Y-71830000D01*
X232886340Y-71830000D01*
X232852511Y-71836729D01*
X232852511Y-71836729D01*
G37*
X232852511Y-71836729D02*
X232366330Y-72161585D01*
X232041474Y-72647766D01*
X231927400Y-73221255D01*
X231927400Y-73590745D01*
X232041474Y-74164234D01*
X232366330Y-74650415D01*
X232852511Y-74975271D01*
X233426000Y-75089345D01*
X233999489Y-74975271D01*
X234485670Y-74650415D01*
X234692461Y-74340931D01*
X235063964Y-74756732D01*
X235591209Y-75010709D01*
X235606974Y-75013358D01*
X235839000Y-74892217D01*
X235839000Y-73533000D01*
X235819000Y-73533000D01*
X235819000Y-73279000D01*
X235839000Y-73279000D01*
X235839000Y-73259000D01*
X236093000Y-73259000D01*
X236093000Y-73279000D01*
X236113000Y-73279000D01*
X236113000Y-73533000D01*
X236093000Y-73533000D01*
X236093000Y-74892217D01*
X236325026Y-75013358D01*
X236340791Y-75010709D01*
X236868036Y-74756732D01*
X237239539Y-74340931D01*
X237446330Y-74650415D01*
X237932511Y-74975271D01*
X238506000Y-75089345D01*
X239079489Y-74975271D01*
X239565670Y-74650415D01*
X239890526Y-74164234D01*
X240004600Y-73590745D01*
X240004600Y-73221255D01*
X239890526Y-72647766D01*
X239565670Y-72161585D01*
X239079489Y-71836729D01*
X239045660Y-71830000D01*
X253290000Y-71830000D01*
X253290000Y-151690000D01*
X198247000Y-151690000D01*
X198247000Y-150612579D01*
X203488786Y-150612579D01*
X203676408Y-151066657D01*
X204023515Y-151414371D01*
X204477266Y-151602785D01*
X204968579Y-151603214D01*
X205422657Y-151415592D01*
X205770371Y-151068485D01*
X205958785Y-150614734D01*
X205959214Y-150123421D01*
X205771592Y-149669343D01*
X205424485Y-149321629D01*
X204970734Y-149133215D01*
X204479421Y-149132786D01*
X204025343Y-149320408D01*
X203677629Y-149667515D01*
X203489215Y-150121266D01*
X203488786Y-150612579D01*
X198247000Y-150612579D01*
X198247000Y-139885802D01*
X205603785Y-147242587D01*
X205338057Y-147352383D01*
X205074808Y-147615173D01*
X204932162Y-147958701D01*
X204931838Y-148330667D01*
X205073883Y-148674443D01*
X205336673Y-148937692D01*
X205680201Y-149080338D01*
X205727077Y-149080379D01*
X206265963Y-149619265D01*
X206217629Y-149667515D01*
X206029215Y-150121266D01*
X206028786Y-150612579D01*
X206216408Y-151066657D01*
X206563515Y-151414371D01*
X207017266Y-151602785D01*
X207508579Y-151603214D01*
X207962657Y-151415592D01*
X208310371Y-151068485D01*
X208498785Y-150614734D01*
X208499201Y-150138003D01*
X208569139Y-150207941D01*
X208568786Y-150612579D01*
X208756408Y-151066657D01*
X209103515Y-151414371D01*
X209557266Y-151602785D01*
X210048579Y-151603214D01*
X210502657Y-151415592D01*
X210850371Y-151068485D01*
X211038785Y-150614734D01*
X211039201Y-150138003D01*
X211109139Y-150207941D01*
X211108786Y-150612579D01*
X211296408Y-151066657D01*
X211643515Y-151414371D01*
X212097266Y-151602785D01*
X212588579Y-151603214D01*
X213042657Y-151415592D01*
X213390371Y-151068485D01*
X213578785Y-150614734D01*
X213579214Y-150123421D01*
X213391592Y-149669343D01*
X213389752Y-149667500D01*
X213837644Y-149667500D01*
X213837629Y-149667515D01*
X213649215Y-150121266D01*
X213648786Y-150612579D01*
X213836408Y-151066657D01*
X214183515Y-151414371D01*
X214637266Y-151602785D01*
X215128579Y-151603214D01*
X215582657Y-151415592D01*
X215930371Y-151068485D01*
X216118785Y-150614734D01*
X216119214Y-150123421D01*
X215931592Y-149669343D01*
X215929752Y-149667500D01*
X216377644Y-149667500D01*
X216377629Y-149667515D01*
X216189215Y-150121266D01*
X216188786Y-150612579D01*
X216376408Y-151066657D01*
X216723515Y-151414371D01*
X217177266Y-151602785D01*
X217668579Y-151603214D01*
X218122657Y-151415592D01*
X218470371Y-151068485D01*
X218658785Y-150614734D01*
X218659201Y-150138003D01*
X218729139Y-150207941D01*
X218728786Y-150612579D01*
X218916408Y-151066657D01*
X219263515Y-151414371D01*
X219717266Y-151602785D01*
X220208579Y-151603214D01*
X220662657Y-151415592D01*
X221010371Y-151068485D01*
X221198785Y-150614734D01*
X221199214Y-150123421D01*
X221011592Y-149669343D01*
X220664485Y-149321629D01*
X220210734Y-149133215D01*
X219803662Y-149132860D01*
X218405901Y-147735099D01*
X218159339Y-147570352D01*
X217868500Y-147512500D01*
X212976302Y-147512500D01*
X200023000Y-134559198D01*
X200023000Y-130292579D01*
X203488786Y-130292579D01*
X203676408Y-130746657D01*
X204023515Y-131094371D01*
X204477266Y-131282785D01*
X204968579Y-131283214D01*
X205422657Y-131095592D01*
X205770371Y-130748485D01*
X205958785Y-130294734D01*
X205959214Y-129803421D01*
X205771592Y-129349343D01*
X205424485Y-129001629D01*
X204970734Y-128813215D01*
X204479421Y-128812786D01*
X204025343Y-129000408D01*
X203677629Y-129347515D01*
X203489215Y-129801266D01*
X203488786Y-130292579D01*
X200023000Y-130292579D01*
X200023000Y-121341802D01*
X207494399Y-128813201D01*
X207019421Y-128812786D01*
X206565343Y-129000408D01*
X206217629Y-129347515D01*
X206029215Y-129801266D01*
X206028786Y-130292579D01*
X206216408Y-130746657D01*
X206563515Y-131094371D01*
X207017266Y-131282785D01*
X207508579Y-131283214D01*
X207962657Y-131095592D01*
X208310371Y-130748485D01*
X208498785Y-130294734D01*
X208499201Y-129818003D01*
X208569139Y-129887941D01*
X208568786Y-130292579D01*
X208756408Y-130746657D01*
X209103515Y-131094371D01*
X209557266Y-131282785D01*
X210048579Y-131283214D01*
X210502657Y-131095592D01*
X210850371Y-130748485D01*
X211038785Y-130294734D01*
X211039214Y-129803421D01*
X210851592Y-129349343D01*
X210504485Y-129001629D01*
X210050734Y-128813215D01*
X209643662Y-128812860D01*
X207482281Y-126651479D01*
X207792943Y-126523117D01*
X208056192Y-126260327D01*
X208198838Y-125916799D01*
X208199162Y-125544833D01*
X208057117Y-125201057D01*
X207989755Y-125133578D01*
X207966148Y-125014897D01*
X207801401Y-124768335D01*
X201166000Y-118132934D01*
X201166000Y-117602000D01*
X201108148Y-117311161D01*
X200943401Y-117064599D01*
X198247000Y-114368198D01*
X198247000Y-101785167D01*
X207598838Y-101785167D01*
X207740883Y-102128943D01*
X208003673Y-102392192D01*
X208347201Y-102534838D01*
X208394077Y-102534879D01*
X212854000Y-106994802D01*
X212854000Y-128922533D01*
X212590734Y-128813215D01*
X212099421Y-128812786D01*
X211645343Y-129000408D01*
X211297629Y-129347515D01*
X211109215Y-129801266D01*
X211108786Y-130292579D01*
X211296408Y-130746657D01*
X211643515Y-131094371D01*
X212097266Y-131282785D01*
X212588579Y-131283214D01*
X212854000Y-131173544D01*
X212854000Y-140629472D01*
X212911852Y-140920311D01*
X213076599Y-141166873D01*
X221517487Y-149607761D01*
X221457629Y-149667515D01*
X221269215Y-150121266D01*
X221268786Y-150612579D01*
X221456408Y-151066657D01*
X221803515Y-151414371D01*
X222257266Y-151602785D01*
X222748579Y-151603214D01*
X223202657Y-151415592D01*
X223550371Y-151068485D01*
X223738785Y-150614734D01*
X223739214Y-150123421D01*
X223551592Y-149669343D01*
X223229663Y-149346851D01*
X223206148Y-149228633D01*
X223041401Y-148982071D01*
X214374000Y-140314670D01*
X214374000Y-131173467D01*
X214637266Y-131282785D01*
X215128579Y-131283214D01*
X215582657Y-131095592D01*
X215930371Y-130748485D01*
X216118785Y-130294734D01*
X216118786Y-130292579D01*
X216188786Y-130292579D01*
X216376408Y-130746657D01*
X216723515Y-131094371D01*
X217177266Y-131282785D01*
X217668579Y-131283214D01*
X218122657Y-131095592D01*
X218470371Y-130748485D01*
X218658785Y-130294734D01*
X218658786Y-130292579D01*
X218728786Y-130292579D01*
X218916408Y-130746657D01*
X219263515Y-131094371D01*
X219717266Y-131282785D01*
X220208579Y-131283214D01*
X220662657Y-131095592D01*
X221010371Y-130748485D01*
X221198785Y-130294734D01*
X221198786Y-130292579D01*
X221268786Y-130292579D01*
X221456408Y-130746657D01*
X221803515Y-131094371D01*
X222257266Y-131282785D01*
X222748579Y-131283214D01*
X223202657Y-131095592D01*
X223550371Y-130748485D01*
X223738785Y-130294734D01*
X223739214Y-129803421D01*
X223551592Y-129349343D01*
X223204485Y-129001629D01*
X222750734Y-128813215D01*
X222259421Y-128812786D01*
X221805343Y-129000408D01*
X221457629Y-129347515D01*
X221269215Y-129801266D01*
X221268786Y-130292579D01*
X221198786Y-130292579D01*
X221199214Y-129803421D01*
X221011592Y-129349343D01*
X220664485Y-129001629D01*
X220210734Y-128813215D01*
X219719421Y-128812786D01*
X219265343Y-129000408D01*
X218917629Y-129347515D01*
X218729215Y-129801266D01*
X218728786Y-130292579D01*
X218658786Y-130292579D01*
X218659214Y-129803421D01*
X218471592Y-129349343D01*
X218124485Y-129001629D01*
X217670734Y-128813215D01*
X217179421Y-128812786D01*
X216725343Y-129000408D01*
X216377629Y-129347515D01*
X216189215Y-129801266D01*
X216188786Y-130292579D01*
X216118786Y-130292579D01*
X216119214Y-129803421D01*
X215931592Y-129349343D01*
X215584485Y-129001629D01*
X215130734Y-128813215D01*
X214639421Y-128812786D01*
X214374000Y-128922456D01*
X214374000Y-106680000D01*
X214316148Y-106389161D01*
X214151401Y-106142599D01*
X209469122Y-101460320D01*
X209469162Y-101414833D01*
X209327117Y-101071057D01*
X209064327Y-100807808D01*
X208720799Y-100665162D01*
X208348833Y-100664838D01*
X208005057Y-100806883D01*
X207741808Y-101069673D01*
X207599162Y-101413201D01*
X207598838Y-101785167D01*
X198247000Y-101785167D01*
X198247000Y-90494988D01*
X214642186Y-90494988D01*
X232666000Y-108518802D01*
X232666000Y-122654230D01*
X232628213Y-122643392D01*
X231827605Y-123444000D01*
X231841748Y-123458143D01*
X231662143Y-123637748D01*
X231648000Y-123623605D01*
X230847392Y-124424213D01*
X230916857Y-124666397D01*
X231440302Y-124853144D01*
X231717951Y-124839247D01*
X227744059Y-128813139D01*
X227339421Y-128812786D01*
X227242500Y-128852833D01*
X227242500Y-126622598D01*
X229024170Y-124840927D01*
X229384661Y-124841242D01*
X229898303Y-124629010D01*
X230291629Y-124236370D01*
X230371395Y-124044273D01*
X230425603Y-124175143D01*
X230667787Y-124244608D01*
X231468395Y-123444000D01*
X230667787Y-122643392D01*
X230425603Y-122712857D01*
X230375491Y-122853318D01*
X230293010Y-122653697D01*
X230103432Y-122463787D01*
X230847392Y-122463787D01*
X231648000Y-123264395D01*
X232448608Y-122463787D01*
X232379143Y-122221603D01*
X231855698Y-122034856D01*
X231300632Y-122062638D01*
X230916857Y-122221603D01*
X230847392Y-122463787D01*
X230103432Y-122463787D01*
X229900370Y-122260371D01*
X229387100Y-122047243D01*
X228831339Y-122046758D01*
X228317697Y-122258990D01*
X227924371Y-122651630D01*
X227711243Y-123164900D01*
X227710926Y-123527977D01*
X225657451Y-125581451D01*
X225456178Y-125882678D01*
X225456178Y-125882679D01*
X225385499Y-126238000D01*
X225385500Y-126238005D01*
X225385500Y-128852565D01*
X225290734Y-128813215D01*
X224799421Y-128812786D01*
X224345343Y-129000408D01*
X223997629Y-129347515D01*
X223809215Y-129801266D01*
X223808786Y-130292579D01*
X223996408Y-130746657D01*
X224343515Y-131094371D01*
X224797266Y-131282785D01*
X225288579Y-131283214D01*
X225385500Y-131243167D01*
X225385500Y-149097995D01*
X225385499Y-149098000D01*
X225401667Y-149179278D01*
X225290734Y-149133215D01*
X224799421Y-149132786D01*
X224345343Y-149320408D01*
X223997629Y-149667515D01*
X223809215Y-150121266D01*
X223808786Y-150612579D01*
X223996408Y-151066657D01*
X224343515Y-151414371D01*
X224797266Y-151602785D01*
X225288579Y-151603214D01*
X225742657Y-151415592D01*
X226090371Y-151068485D01*
X226278785Y-150614734D01*
X226278993Y-150376091D01*
X226348931Y-150446029D01*
X226348786Y-150612579D01*
X226536408Y-151066657D01*
X226883515Y-151414371D01*
X227337266Y-151602785D01*
X227828579Y-151603214D01*
X228282657Y-151415592D01*
X228630371Y-151068485D01*
X228818785Y-150614734D01*
X228818786Y-150612579D01*
X228888786Y-150612579D01*
X229076408Y-151066657D01*
X229423515Y-151414371D01*
X229877266Y-151602785D01*
X230368579Y-151603214D01*
X230822657Y-151415592D01*
X231170371Y-151068485D01*
X231358785Y-150614734D01*
X231358786Y-150612579D01*
X231428786Y-150612579D01*
X231616408Y-151066657D01*
X231963515Y-151414371D01*
X232417266Y-151602785D01*
X232908579Y-151603214D01*
X233362657Y-151415592D01*
X233710371Y-151068485D01*
X233898785Y-150614734D01*
X233899214Y-150123421D01*
X233711592Y-149669343D01*
X233364485Y-149321629D01*
X232910734Y-149133215D01*
X232419421Y-149132786D01*
X231965343Y-149320408D01*
X231617629Y-149667515D01*
X231429215Y-150121266D01*
X231428786Y-150612579D01*
X231358786Y-150612579D01*
X231359214Y-150123421D01*
X231171592Y-149669343D01*
X230824485Y-149321629D01*
X230370734Y-149133215D01*
X229879421Y-149132786D01*
X229425343Y-149320408D01*
X229077629Y-149667515D01*
X228889215Y-150121266D01*
X228888786Y-150612579D01*
X228818786Y-150612579D01*
X228819214Y-150123421D01*
X228631592Y-149669343D01*
X228284485Y-149321629D01*
X227830734Y-149133215D01*
X227662165Y-149133068D01*
X227242500Y-148713402D01*
X227242500Y-131243435D01*
X227337266Y-131282785D01*
X227828579Y-131283214D01*
X228282657Y-131095592D01*
X228630371Y-130748485D01*
X228818785Y-130294734D01*
X228819140Y-129887662D01*
X228889201Y-129817601D01*
X228888786Y-130292579D01*
X229076408Y-130746657D01*
X229423515Y-131094371D01*
X229877266Y-131282785D01*
X230368579Y-131283214D01*
X230822657Y-131095592D01*
X231170371Y-130748485D01*
X231358785Y-130294734D01*
X231359140Y-129887662D01*
X231429201Y-129817601D01*
X231428786Y-130292579D01*
X231616408Y-130746657D01*
X231963515Y-131094371D01*
X232417266Y-131282785D01*
X232908579Y-131283214D01*
X233362657Y-131095592D01*
X233547837Y-130910735D01*
X234520870Y-130910735D01*
X234570383Y-131136164D01*
X235035036Y-131295807D01*
X235525413Y-131265482D01*
X235837617Y-131136164D01*
X235887130Y-130910735D01*
X235204000Y-130227605D01*
X234520870Y-130910735D01*
X233547837Y-130910735D01*
X233710371Y-130748485D01*
X233898785Y-130294734D01*
X233899140Y-129887662D01*
X233981540Y-129805262D01*
X233956193Y-129879036D01*
X233986518Y-130369413D01*
X234115836Y-130681617D01*
X234341265Y-130731130D01*
X235024395Y-130048000D01*
X235383605Y-130048000D01*
X236066735Y-130731130D01*
X236292164Y-130681617D01*
X236425827Y-130292579D01*
X236508786Y-130292579D01*
X236696408Y-130746657D01*
X237043515Y-131094371D01*
X237497266Y-131282785D01*
X237988579Y-131283214D01*
X238442657Y-131095592D01*
X238790371Y-130748485D01*
X238978785Y-130294734D01*
X238978786Y-130292579D01*
X239048786Y-130292579D01*
X239236408Y-130746657D01*
X239583515Y-131094371D01*
X240037266Y-131282785D01*
X240528579Y-131283214D01*
X240982657Y-131095592D01*
X241330371Y-130748485D01*
X241518785Y-130294734D01*
X241518786Y-130292579D01*
X241588786Y-130292579D01*
X241776408Y-130746657D01*
X242123515Y-131094371D01*
X242577266Y-131282785D01*
X243068579Y-131283214D01*
X243522657Y-131095592D01*
X243870371Y-130748485D01*
X244058785Y-130294734D01*
X244059214Y-129803421D01*
X243871592Y-129349343D01*
X243524485Y-129001629D01*
X243070734Y-128813215D01*
X242579421Y-128812786D01*
X242125343Y-129000408D01*
X241777629Y-129347515D01*
X241589215Y-129801266D01*
X241588786Y-130292579D01*
X241518786Y-130292579D01*
X241519214Y-129803421D01*
X241331592Y-129349343D01*
X240984485Y-129001629D01*
X240530734Y-128813215D01*
X240039421Y-128812786D01*
X239585343Y-129000408D01*
X239237629Y-129347515D01*
X239049215Y-129801266D01*
X239048786Y-130292579D01*
X238978786Y-130292579D01*
X238979214Y-129803421D01*
X238791592Y-129349343D01*
X238444485Y-129001629D01*
X237990734Y-128813215D01*
X237499421Y-128812786D01*
X237045343Y-129000408D01*
X236697629Y-129347515D01*
X236509215Y-129801266D01*
X236508786Y-130292579D01*
X236425827Y-130292579D01*
X236451807Y-130216964D01*
X236421482Y-129726587D01*
X236292164Y-129414383D01*
X236066735Y-129364870D01*
X235383605Y-130048000D01*
X235024395Y-130048000D01*
X235010253Y-130033858D01*
X235189858Y-129854253D01*
X235204000Y-129868395D01*
X235887130Y-129185265D01*
X235837617Y-128959836D01*
X235372964Y-128800193D01*
X234961142Y-128825660D01*
X234979401Y-128807401D01*
X235144148Y-128560839D01*
X235202000Y-128270000D01*
X235202000Y-107924179D01*
X235144148Y-107633340D01*
X234979401Y-107386778D01*
X215890188Y-88297565D01*
X215643626Y-88132818D01*
X215352787Y-88074966D01*
X212208365Y-88074966D01*
X212445961Y-87719378D01*
X212559000Y-87151093D01*
X212559000Y-87092907D01*
X212445961Y-86524622D01*
X212124054Y-86042853D01*
X212002500Y-85961633D01*
X212002500Y-82804000D01*
X211931822Y-82448678D01*
X211730549Y-82147451D01*
X211730546Y-82147449D01*
X209462500Y-79879402D01*
X209462500Y-79646367D01*
X209584054Y-79565147D01*
X209804000Y-79235974D01*
X210023946Y-79565147D01*
X210505715Y-79887054D01*
X211074000Y-80000093D01*
X211642285Y-79887054D01*
X212124054Y-79565147D01*
X212344000Y-79235974D01*
X212563946Y-79565147D01*
X212854678Y-79759407D01*
X212911852Y-80046839D01*
X213076599Y-80293401D01*
X216632599Y-83849401D01*
X216879160Y-84014148D01*
X216927414Y-84023746D01*
X217170000Y-84072000D01*
X233832400Y-84072000D01*
X234123239Y-84014148D01*
X234369801Y-83849401D01*
X235585536Y-82633666D01*
X235966000Y-82709345D01*
X236539489Y-82595271D01*
X237025670Y-82270415D01*
X237236000Y-81955634D01*
X237446330Y-82270415D01*
X237790298Y-82500247D01*
X235581402Y-84709143D01*
X231354362Y-84709143D01*
X231354357Y-84709142D01*
X230999036Y-84779820D01*
X230999034Y-84779821D01*
X230999035Y-84779821D01*
X230697808Y-84981094D01*
X230697806Y-84981097D01*
X229191830Y-86487073D01*
X228831339Y-86486758D01*
X228317697Y-86698990D01*
X227924371Y-87091630D01*
X227711243Y-87604900D01*
X227710758Y-88160661D01*
X227922990Y-88674303D01*
X228315630Y-89067629D01*
X228828900Y-89280757D01*
X229384661Y-89281242D01*
X229898303Y-89069010D01*
X230291629Y-88676370D01*
X230377949Y-88468488D01*
X230462990Y-88674303D01*
X230855630Y-89067629D01*
X231368900Y-89280757D01*
X231924661Y-89281242D01*
X232438303Y-89069010D01*
X232695261Y-88812500D01*
X234832639Y-88812500D01*
X234832644Y-88812501D01*
X235129013Y-88753548D01*
X235187966Y-88741822D01*
X235489193Y-88540549D01*
X243153146Y-80876595D01*
X243153149Y-80876593D01*
X243354422Y-80575366D01*
X243354423Y-80575365D01*
X243425101Y-80220044D01*
X243425100Y-80220039D01*
X243425100Y-77549000D01*
X243354422Y-77193678D01*
X243153149Y-76892451D01*
X242519190Y-76258492D01*
X242544600Y-76130745D01*
X242544600Y-75761255D01*
X242430526Y-75187766D01*
X242105670Y-74701585D01*
X241619489Y-74376729D01*
X241046000Y-74262655D01*
X240472511Y-74376729D01*
X239986330Y-74701585D01*
X239661474Y-75187766D01*
X239547400Y-75761255D01*
X239547400Y-76130745D01*
X239661474Y-76704234D01*
X239986330Y-77190415D01*
X240024621Y-77216000D01*
X239986330Y-77241585D01*
X239661474Y-77727766D01*
X239547400Y-78301255D01*
X239547400Y-78670745D01*
X239661474Y-79244234D01*
X239986330Y-79730415D01*
X240117500Y-79818060D01*
X240117500Y-80173045D01*
X239912468Y-80378077D01*
X239890526Y-80267766D01*
X239565670Y-79781585D01*
X239225017Y-79553968D01*
X239208148Y-79469161D01*
X239043401Y-79222599D01*
X237769401Y-77948599D01*
X237522839Y-77783852D01*
X237232000Y-77726000D01*
X217417301Y-77726000D01*
X217204054Y-77406853D01*
X216855915Y-77174235D01*
X216855915Y-75450446D01*
X217145969Y-75256639D01*
X217467876Y-74774870D01*
X217580915Y-74206585D01*
X217580915Y-74148399D01*
X217467876Y-73580114D01*
X217145969Y-73098345D01*
X216664200Y-72776438D01*
X216095915Y-72663399D01*
X215527630Y-72776438D01*
X215045861Y-73098345D01*
X214825915Y-73427518D01*
X214605969Y-73098345D01*
X214124200Y-72776438D01*
X213555915Y-72663399D01*
X212987630Y-72776438D01*
X212505861Y-73098345D01*
X212285915Y-73427518D01*
X212065969Y-73098345D01*
X211584200Y-72776438D01*
X211015915Y-72663399D01*
X210447630Y-72776438D01*
X209965861Y-73098345D01*
X209745915Y-73427518D01*
X209525969Y-73098345D01*
X209044200Y-72776438D01*
X208475915Y-72663399D01*
X207907630Y-72776438D01*
X207425861Y-73098345D01*
X207396512Y-73142269D01*
X207324242Y-72967794D01*
X207145614Y-72789165D01*
X206912225Y-72692492D01*
X206221665Y-72692492D01*
X206062915Y-72851242D01*
X206062915Y-74050492D01*
X206082915Y-74050492D01*
X206082915Y-74304492D01*
X206062915Y-74304492D01*
X206062915Y-75503742D01*
X206221665Y-75662492D01*
X206912225Y-75662492D01*
X207145614Y-75565819D01*
X207324242Y-75387190D01*
X207396512Y-75212715D01*
X207425861Y-75256639D01*
X207547415Y-75337859D01*
X207547415Y-77364444D01*
X207483946Y-77406853D01*
X207454597Y-77450777D01*
X207382327Y-77276302D01*
X207203699Y-77097673D01*
X206970310Y-77001000D01*
X206279750Y-77001000D01*
X206121000Y-77159750D01*
X206121000Y-78359000D01*
X206141000Y-78359000D01*
X206141000Y-78613000D01*
X206121000Y-78613000D01*
X206121000Y-79812250D01*
X206279750Y-79971000D01*
X206970310Y-79971000D01*
X207203699Y-79874327D01*
X207382327Y-79695698D01*
X207454597Y-79521223D01*
X207483946Y-79565147D01*
X207605500Y-79646367D01*
X207605500Y-80263995D01*
X207605499Y-80264000D01*
X207663909Y-80557643D01*
X207676178Y-80619322D01*
X207753579Y-80735161D01*
X207877451Y-80920549D01*
X210145500Y-83188597D01*
X210145500Y-85961633D01*
X210023946Y-86042853D01*
X209804000Y-86372026D01*
X209584054Y-86042853D01*
X209102285Y-85720946D01*
X208534000Y-85607907D01*
X207965715Y-85720946D01*
X207483946Y-86042853D01*
X207454597Y-86086777D01*
X207382327Y-85912302D01*
X207203699Y-85733673D01*
X206970310Y-85637000D01*
X206279750Y-85637000D01*
X206121000Y-85795750D01*
X206121000Y-86995000D01*
X206141000Y-86995000D01*
X206141000Y-87249000D01*
X206121000Y-87249000D01*
X206121000Y-87269000D01*
X205867000Y-87269000D01*
X205867000Y-87249000D01*
X204667750Y-87249000D01*
X204509000Y-87407750D01*
X204509000Y-88074966D01*
X198247000Y-88074966D01*
X198247000Y-86360000D01*
X198236994Y-86310590D01*
X198208553Y-86268965D01*
X198166159Y-86241685D01*
X198120000Y-86233000D01*
X177223802Y-86233000D01*
X177136493Y-86145691D01*
X204509000Y-86145691D01*
X204509000Y-86836250D01*
X204667750Y-86995000D01*
X205867000Y-86995000D01*
X205867000Y-85795750D01*
X205708250Y-85637000D01*
X205017690Y-85637000D01*
X204784301Y-85733673D01*
X204605673Y-85912302D01*
X204509000Y-86145691D01*
X177136493Y-86145691D01*
X169924000Y-78933198D01*
X169924000Y-78771750D01*
X204509000Y-78771750D01*
X204509000Y-79462309D01*
X204605673Y-79695698D01*
X204784301Y-79874327D01*
X205017690Y-79971000D01*
X205708250Y-79971000D01*
X205867000Y-79812250D01*
X205867000Y-78613000D01*
X204667750Y-78613000D01*
X204509000Y-78771750D01*
X169924000Y-78771750D01*
X169924000Y-77509691D01*
X204509000Y-77509691D01*
X204509000Y-78200250D01*
X204667750Y-78359000D01*
X205867000Y-78359000D01*
X205867000Y-77159750D01*
X205708250Y-77001000D01*
X205017690Y-77001000D01*
X204784301Y-77097673D01*
X204605673Y-77276302D01*
X204509000Y-77509691D01*
X169924000Y-77509691D01*
X169924000Y-76518610D01*
X169866148Y-76227771D01*
X169701401Y-75981209D01*
X168183434Y-74463242D01*
X204450915Y-74463242D01*
X204450915Y-75153801D01*
X204547588Y-75387190D01*
X204726216Y-75565819D01*
X204959605Y-75662492D01*
X205650165Y-75662492D01*
X205808915Y-75503742D01*
X205808915Y-74304492D01*
X204609665Y-74304492D01*
X204450915Y-74463242D01*
X168183434Y-74463242D01*
X168153217Y-74433025D01*
X168201821Y-74361890D01*
X168252830Y-74110000D01*
X168252830Y-73210000D01*
X168251171Y-73201183D01*
X204450915Y-73201183D01*
X204450915Y-73891742D01*
X204609665Y-74050492D01*
X205808915Y-74050492D01*
X205808915Y-72851242D01*
X205650165Y-72692492D01*
X204959605Y-72692492D01*
X204726216Y-72789165D01*
X204547588Y-72967794D01*
X204450915Y-73201183D01*
X168251171Y-73201183D01*
X168208552Y-72974683D01*
X168069480Y-72758559D01*
X167857280Y-72613569D01*
X167605390Y-72562560D01*
X166405390Y-72562560D01*
X166170073Y-72606838D01*
X165953949Y-72745910D01*
X165906256Y-72815711D01*
X165869480Y-72758559D01*
X165657280Y-72613569D01*
X165405390Y-72562560D01*
X164205390Y-72562560D01*
X163970073Y-72606838D01*
X163753949Y-72745910D01*
X163648664Y-72900000D01*
X163460495Y-72900000D01*
X163369480Y-72758559D01*
X163157280Y-72613569D01*
X162905390Y-72562560D01*
X161705390Y-72562560D01*
X161470073Y-72606838D01*
X161253949Y-72745910D01*
X161207421Y-72814006D01*
X161065088Y-72671673D01*
X160831699Y-72575000D01*
X160391140Y-72575000D01*
X160232390Y-72733750D01*
X160232390Y-73533000D01*
X160252390Y-73533000D01*
X160252390Y-73787000D01*
X160232390Y-73787000D01*
X160232390Y-74586250D01*
X160391140Y-74745000D01*
X160831699Y-74745000D01*
X161065088Y-74648327D01*
X161206326Y-74507090D01*
X161241300Y-74561441D01*
X161453500Y-74706431D01*
X161705390Y-74757440D01*
X162905390Y-74757440D01*
X163140707Y-74713162D01*
X163356831Y-74574090D01*
X163462116Y-74420000D01*
X163650285Y-74420000D01*
X163741300Y-74561441D01*
X163953500Y-74706431D01*
X164205390Y-74757440D01*
X165405390Y-74757440D01*
X165640707Y-74713162D01*
X165856831Y-74574090D01*
X165904524Y-74504289D01*
X165941300Y-74561441D01*
X166153500Y-74706431D01*
X166369632Y-74750199D01*
X166467989Y-74897401D01*
X168404000Y-76833412D01*
X168404000Y-78284922D01*
X168253097Y-78254905D01*
X168252830Y-78254638D01*
X168252830Y-77782000D01*
X168208552Y-77546683D01*
X168069480Y-77330559D01*
X167857280Y-77185569D01*
X167605390Y-77134560D01*
X166405390Y-77134560D01*
X166170073Y-77178838D01*
X165953949Y-77317910D01*
X165906256Y-77387711D01*
X165869480Y-77330559D01*
X165657280Y-77185569D01*
X165405390Y-77134560D01*
X164205390Y-77134560D01*
X163970073Y-77178838D01*
X163753949Y-77317910D01*
X163648664Y-77472000D01*
X163460495Y-77472000D01*
X163369480Y-77330559D01*
X163157280Y-77185569D01*
X162905390Y-77134560D01*
X161705390Y-77134560D01*
X161470073Y-77178838D01*
X161253949Y-77317910D01*
X161207421Y-77386006D01*
X161065088Y-77243673D01*
X160831699Y-77147000D01*
X160391140Y-77147000D01*
X160232390Y-77305750D01*
X160232390Y-78105000D01*
X160252390Y-78105000D01*
X160252390Y-78359000D01*
X160232390Y-78359000D01*
X160232390Y-79158250D01*
X160391140Y-79317000D01*
X160831699Y-79317000D01*
X161065088Y-79220327D01*
X161206326Y-79079090D01*
X161241300Y-79133441D01*
X161453500Y-79278431D01*
X161705390Y-79329440D01*
X162905390Y-79329440D01*
X163140707Y-79285162D01*
X163356831Y-79146090D01*
X163462116Y-78992000D01*
X163650285Y-78992000D01*
X163741300Y-79133441D01*
X163953500Y-79278431D01*
X164205390Y-79329440D01*
X165405390Y-79329440D01*
X165640707Y-79285162D01*
X165856831Y-79146090D01*
X165904524Y-79076289D01*
X165941300Y-79133441D01*
X166153500Y-79278431D01*
X166405390Y-79329440D01*
X167178028Y-79329440D01*
X167379989Y-79531401D01*
X167626551Y-79696148D01*
X167812293Y-79733095D01*
X170123198Y-82044000D01*
X168160105Y-82044000D01*
X168069090Y-81902559D01*
X167856890Y-81757569D01*
X167605000Y-81706560D01*
X166405000Y-81706560D01*
X166169683Y-81750838D01*
X165953559Y-81889910D01*
X165905866Y-81959711D01*
X165869090Y-81902559D01*
X165656890Y-81757569D01*
X165405000Y-81706560D01*
X164205000Y-81706560D01*
X163969683Y-81750838D01*
X163753559Y-81889910D01*
X163648274Y-82044000D01*
X163461105Y-82044000D01*
X163370090Y-81902559D01*
X163157890Y-81757569D01*
X162906000Y-81706560D01*
X161706000Y-81706560D01*
X161470683Y-81750838D01*
X161254559Y-81889910D01*
X161208031Y-81958006D01*
X161065698Y-81815673D01*
X160832309Y-81719000D01*
X160391750Y-81719000D01*
X160233000Y-81877750D01*
X160233000Y-82677000D01*
X160253000Y-82677000D01*
X160253000Y-82931000D01*
X160233000Y-82931000D01*
X160233000Y-83730250D01*
X160391750Y-83889000D01*
X160832309Y-83889000D01*
X161065698Y-83792327D01*
X161206936Y-83651090D01*
X161241910Y-83705441D01*
X161454110Y-83850431D01*
X161706000Y-83901440D01*
X162906000Y-83901440D01*
X163141317Y-83857162D01*
X163357441Y-83718090D01*
X163462726Y-83564000D01*
X163649895Y-83564000D01*
X163740910Y-83705441D01*
X163953110Y-83850431D01*
X164205000Y-83901440D01*
X165405000Y-83901440D01*
X165640317Y-83857162D01*
X165856441Y-83718090D01*
X165904134Y-83648289D01*
X165940910Y-83705441D01*
X166153110Y-83850431D01*
X166405000Y-83901440D01*
X167605000Y-83901440D01*
X167840317Y-83857162D01*
X168056441Y-83718090D01*
X168161726Y-83564000D01*
X170831977Y-83564000D01*
X173500977Y-86233000D01*
X158190000Y-86233000D01*
X158190000Y-83089750D01*
X158871000Y-83089750D01*
X158871000Y-83380310D01*
X158967673Y-83613699D01*
X159146302Y-83792327D01*
X159379691Y-83889000D01*
X159820250Y-83889000D01*
X159979000Y-83730250D01*
X159979000Y-82931000D01*
X159029750Y-82931000D01*
X158871000Y-83089750D01*
X158190000Y-83089750D01*
X158190000Y-82227690D01*
X158871000Y-82227690D01*
X158871000Y-82518250D01*
X159029750Y-82677000D01*
X159979000Y-82677000D01*
X159979000Y-81877750D01*
X159820250Y-81719000D01*
X159379691Y-81719000D01*
X159146302Y-81815673D01*
X158967673Y-81994301D01*
X158871000Y-82227690D01*
X158190000Y-82227690D01*
X158190000Y-78517750D01*
X158870390Y-78517750D01*
X158870390Y-78808310D01*
X158967063Y-79041699D01*
X159145692Y-79220327D01*
X159379081Y-79317000D01*
X159819640Y-79317000D01*
X159978390Y-79158250D01*
X159978390Y-78359000D01*
X159029140Y-78359000D01*
X158870390Y-78517750D01*
X158190000Y-78517750D01*
X158190000Y-77655690D01*
X158870390Y-77655690D01*
X158870390Y-77946250D01*
X159029140Y-78105000D01*
X159978390Y-78105000D01*
X159978390Y-77305750D01*
X159819640Y-77147000D01*
X159379081Y-77147000D01*
X159145692Y-77243673D01*
X158967063Y-77422301D01*
X158870390Y-77655690D01*
X158190000Y-77655690D01*
X158190000Y-73945750D01*
X158870390Y-73945750D01*
X158870390Y-74236310D01*
X158967063Y-74469699D01*
X159145692Y-74648327D01*
X159379081Y-74745000D01*
X159819640Y-74745000D01*
X159978390Y-74586250D01*
X159978390Y-73787000D01*
X159029140Y-73787000D01*
X158870390Y-73945750D01*
X158190000Y-73945750D01*
X158190000Y-73083690D01*
X158870390Y-73083690D01*
X158870390Y-73374250D01*
X159029140Y-73533000D01*
X159978390Y-73533000D01*
X159978390Y-72733750D01*
X159819640Y-72575000D01*
X159379081Y-72575000D01*
X159145692Y-72671673D01*
X158967063Y-72850301D01*
X158870390Y-73083690D01*
X158190000Y-73083690D01*
X158190000Y-71830000D01*
X232886340Y-71830000D01*
X232852511Y-71836729D01*
M02*
