M48
;DRILL file {KiCad 4.0.5} date 03/23/17 18:19:10
;FORMAT={-:-/ absolute / inch / decimal}
FMAT,2
INCH,TZ
T1C0.016
T2C0.030
T3C0.031
T4C0.039
T5C0.040
%
G90
G05
M72
T1
X6.3Y-2.99
X6.3Y-3.17
X8.105Y-5.8325
X8.16Y-4.95
X8.21Y-4.
T2
X6.5685Y-3.5976
X6.5685Y-3.6976
X6.5685Y-3.7976
X6.5685Y-4.2488
X6.5685Y-4.3488
X6.5685Y-4.4488
X6.57Y-4.9
X6.57Y-5.
X6.57Y-5.1
X6.57Y-5.55
X6.57Y-5.65
X6.57Y-5.75
X6.7409Y-3.9488
X6.7409Y-4.0488
X6.7409Y-4.1488
X6.7409Y-4.3488
X6.7409Y-4.4488
X6.7409Y-4.5488
X6.82Y-4.83
X6.82Y-4.93
X6.82Y-5.03
X6.82Y-5.13
X6.82Y-5.23
X6.82Y-5.33
X6.82Y-5.43
X6.82Y-5.53
X6.82Y-5.63
X6.82Y-5.73
X6.82Y-5.83
X6.82Y-5.93
X7.2685Y-3.5976
X7.2685Y-3.6976
X7.2685Y-3.7976
X7.2685Y-4.2488
X7.2685Y-4.3488
X7.2685Y-4.4488
X7.27Y-4.9
X7.27Y-5.
X7.27Y-5.1
X7.27Y-5.55
X7.27Y-5.65
X7.27Y-5.75
X7.4409Y-3.9488
X7.4409Y-4.0488
X7.4409Y-4.1488
X7.4409Y-4.3488
X7.4409Y-4.4488
X7.4409Y-4.5488
X7.62Y-4.83
X7.62Y-4.93
X7.62Y-5.03
X7.62Y-5.13
X7.62Y-5.23
X7.62Y-5.33
X7.62Y-5.43
X7.62Y-5.53
X7.62Y-5.63
X7.62Y-5.73
X7.62Y-5.83
X7.62Y-5.93
X9.02Y-3.46
X9.02Y-4.86
X9.12Y-3.46
X9.12Y-4.86
T3
X8.06Y-5.12
X8.06Y-5.92
X8.16Y-5.12
X8.16Y-5.92
X8.26Y-5.12
X8.26Y-5.92
X8.36Y-5.12
X8.36Y-5.92
X8.46Y-5.12
X8.46Y-5.92
X8.56Y-5.12
X8.56Y-5.92
X8.66Y-5.12
X8.66Y-5.92
X8.76Y-5.12
X8.76Y-5.92
X8.86Y-5.12
X8.86Y-5.92
X8.96Y-5.12
X8.96Y-5.92
X9.06Y-5.12
X9.06Y-5.92
X9.16Y-5.12
X9.16Y-5.92
X9.26Y-5.12
X9.36Y-5.12
X9.46Y-5.12
X9.56Y-5.12
T4
X6.3876Y-4.9012
X6.3876Y-5.0012
X6.3876Y-5.1012
X6.3876Y-5.55
X6.3876Y-5.65
X6.3876Y-5.75
X6.3976Y-3.5976
X6.3976Y-3.6976
X6.3976Y-3.7976
X6.3976Y-4.2488
X6.3976Y-4.3488
X6.3976Y-4.4488
X8.1077Y-2.9204
X8.11Y-3.09
X8.11Y-3.43
X8.2077Y-2.9204
X8.21Y-3.09
X8.21Y-3.43
X8.3077Y-2.9204
X8.31Y-3.09
X8.31Y-3.43
X8.4077Y-2.9204
X8.41Y-3.09
X8.5077Y-2.9204
X8.51Y-3.09
T5
X9.19Y-2.89
X9.19Y-3.19
X9.29Y-2.89
X9.29Y-3.19
X9.39Y-2.89
X9.39Y-3.19
X9.49Y-2.99
X9.49Y-3.09
T0
M30
