G04 #@! TF.FileFunction,Copper,L2,Bot,Signal*
%FSLAX46Y46*%
G04 Gerber Fmt 4.6, Leading zero omitted, Abs format (unit mm)*
G04 Created by KiCad (PCBNEW 4.0.5) date 03/23/17 16:30:41*
%MOMM*%
%LPD*%
G01*
G04 APERTURE LIST*
%ADD10C,0.100000*%
%ADD11C,1.524000*%
%ADD12C,1.200000*%
%ADD13R,1.700000X1.700000*%
%ADD14O,1.700000X1.700000*%
%ADD15O,1.727200X2.032000*%
%ADD16C,0.600000*%
%ADD17C,0.381000*%
%ADD18C,0.250000*%
%ADD19C,0.587000*%
%ADD20C,0.254000*%
G04 APERTURE END LIST*
D10*
D11*
X189000000Y-105380000D03*
X189000000Y-102840000D03*
X189000000Y-100300000D03*
X189000000Y-110460000D03*
X189000000Y-113000000D03*
X189000000Y-115540000D03*
X171220000Y-100300000D03*
X171220000Y-102840000D03*
X171220000Y-105380000D03*
X171220000Y-110460000D03*
X171220000Y-113000000D03*
X171220000Y-115540000D03*
X184620000Y-113000000D03*
X184620000Y-110460000D03*
X184620000Y-107920000D03*
X166840000Y-113000000D03*
X166840000Y-110460000D03*
X166840000Y-107920000D03*
X184658000Y-129540000D03*
X184658000Y-127000000D03*
X184658000Y-124460000D03*
X166878000Y-129540000D03*
X166878000Y-127000000D03*
X166878000Y-124460000D03*
X184658000Y-146050000D03*
X184658000Y-143510000D03*
X184658000Y-140970000D03*
X166878000Y-146050000D03*
X166878000Y-143510000D03*
X166878000Y-140970000D03*
X184620000Y-96460000D03*
X184620000Y-93920000D03*
X184620000Y-91380000D03*
X166840000Y-96460000D03*
X166840000Y-93920000D03*
X166840000Y-91380000D03*
D12*
X242824000Y-130048000D03*
X240284000Y-130048000D03*
X237744000Y-130048000D03*
X235204000Y-130048000D03*
X232664000Y-150368000D03*
X232664000Y-130048000D03*
X230124000Y-150368000D03*
X230124000Y-130048000D03*
X227584000Y-150368000D03*
X227584000Y-130048000D03*
X225044000Y-150368000D03*
X225044000Y-130048000D03*
X222504000Y-150368000D03*
X222504000Y-130048000D03*
X219964000Y-150368000D03*
X219964000Y-130048000D03*
X217424000Y-150368000D03*
X217424000Y-130048000D03*
X214884000Y-150368000D03*
X214884000Y-130048000D03*
X212344000Y-150368000D03*
X212344000Y-130048000D03*
X209804000Y-150368000D03*
X209804000Y-130048000D03*
X207264000Y-150368000D03*
X207264000Y-130048000D03*
X204724000Y-150368000D03*
X204724000Y-130048000D03*
D11*
X229108000Y-87884000D03*
X231648000Y-87884000D03*
X231648000Y-123444000D03*
X229108000Y-123444000D03*
D13*
X205994000Y-78486000D03*
D14*
X208534000Y-78486000D03*
X211074000Y-78486000D03*
X213614000Y-78486000D03*
X216154000Y-78486000D03*
D13*
X205935915Y-74177492D03*
D14*
X208475915Y-74177492D03*
X211015915Y-74177492D03*
X213555915Y-74177492D03*
X216095915Y-74177492D03*
D13*
X205994000Y-87122000D03*
D14*
X208534000Y-87122000D03*
X211074000Y-87122000D03*
D15*
X238506000Y-81026000D03*
X235966000Y-81026000D03*
X233426000Y-81026000D03*
X241046000Y-78486000D03*
X241046000Y-75946000D03*
X238506000Y-73406000D03*
X235966000Y-73406000D03*
X233426000Y-73406000D03*
D13*
X162500000Y-113000000D03*
D14*
X162500000Y-110460000D03*
X162500000Y-107920000D03*
D13*
X162246000Y-129570000D03*
D14*
X162246000Y-127030000D03*
X162246000Y-124490000D03*
D13*
X162246000Y-146050000D03*
D14*
X162246000Y-143510000D03*
X162246000Y-140970000D03*
D13*
X162500000Y-96460000D03*
D14*
X162500000Y-93920000D03*
X162500000Y-91380000D03*
D11*
X173228000Y-122682000D03*
X173228000Y-125222000D03*
X173228000Y-127762000D03*
X173228000Y-130302000D03*
X173228000Y-132842000D03*
X173228000Y-135382000D03*
X173228000Y-137922000D03*
X173228000Y-140462000D03*
X173228000Y-143002000D03*
X173228000Y-145542000D03*
X173228000Y-148082000D03*
X193548000Y-148082000D03*
X193548000Y-145542000D03*
X193548000Y-143002000D03*
X193548000Y-140462000D03*
X193548000Y-137922000D03*
X193548000Y-135382000D03*
X193548000Y-122682000D03*
X193548000Y-125222000D03*
X193548000Y-127762000D03*
X193548000Y-130302000D03*
X193548000Y-132842000D03*
X173228000Y-150622000D03*
X193548000Y-150622000D03*
D16*
X160020000Y-75946000D03*
X160020000Y-80518000D03*
X207264000Y-125730000D03*
X205867000Y-148145500D03*
X208534000Y-101600000D03*
D17*
X167000000Y-110620000D02*
X166840000Y-110460000D01*
D18*
X207264000Y-130048000D02*
X207264000Y-125730000D01*
D19*
X166840000Y-124460000D02*
X168618000Y-122682000D01*
X168618000Y-122682000D02*
X173228000Y-122682000D01*
X164500000Y-137922000D02*
X164500000Y-128500000D01*
X166878000Y-140970000D02*
X164500000Y-138592000D01*
X164500000Y-138592000D02*
X164500000Y-137922000D01*
X171220000Y-108482000D02*
X170658000Y-107920000D01*
X170658000Y-107920000D02*
X166840000Y-107920000D01*
X171220000Y-110460000D02*
X171220000Y-108482000D01*
X164500000Y-128500000D02*
X164500000Y-110260000D01*
X164500000Y-110260000D02*
X166840000Y-107920000D01*
X166840000Y-124460000D02*
X164500000Y-126800000D01*
X164500000Y-126800000D02*
X164500000Y-128500000D01*
D18*
X171220000Y-115540000D02*
X170960000Y-115540000D01*
X184658000Y-143510000D02*
X192786000Y-135382000D01*
X192786000Y-135382000D02*
X193548000Y-135382000D01*
X184658000Y-129540000D02*
X191770000Y-129540000D01*
X191770000Y-129540000D02*
X193548000Y-127762000D01*
D17*
X189000000Y-110460000D02*
X169920000Y-91380000D01*
X169920000Y-91380000D02*
X166840000Y-91380000D01*
D18*
X238506000Y-73406000D02*
X238506000Y-73558400D01*
X238506000Y-73558400D02*
X233387900Y-78676500D01*
X233387900Y-78676500D02*
X222885000Y-78676500D01*
X222885000Y-78676500D02*
X220696000Y-80865500D01*
X220696000Y-80865500D02*
X220696000Y-95466081D01*
X220696000Y-95466081D02*
X220658081Y-95504000D01*
D19*
X220696000Y-110460000D02*
X220696000Y-95504000D01*
X212276081Y-87122000D02*
X220658081Y-95504000D01*
X211074000Y-87122000D02*
X212276081Y-87122000D01*
X220658081Y-95504000D02*
X220696000Y-95504000D01*
X189000000Y-110460000D02*
X220696000Y-110460000D01*
X220696000Y-110460000D02*
X240284000Y-130048000D01*
D18*
X235966000Y-81026000D02*
X235966000Y-82292000D01*
X235966000Y-82292000D02*
X236986000Y-83312000D01*
X236986000Y-83312000D02*
X241046000Y-83312000D01*
X241046000Y-83312000D02*
X245364000Y-87630000D01*
X245364000Y-87630000D02*
X245364000Y-134302500D01*
X245364000Y-134302500D02*
X236093000Y-143573500D01*
X236093000Y-143573500D02*
X210439000Y-143573500D01*
X210439000Y-143573500D02*
X205867000Y-148145500D01*
X238506000Y-81026000D02*
X239619600Y-81026000D01*
X239619600Y-81026000D02*
X245999000Y-87405400D01*
X245999000Y-87405400D02*
X245999000Y-134366000D01*
X245999000Y-134366000D02*
X236341489Y-144023511D01*
X236341489Y-144023511D02*
X211068489Y-144023511D01*
X211068489Y-144023511D02*
X204724000Y-150368000D01*
X208534000Y-101600000D02*
X208534000Y-87122000D01*
D20*
G36*
X232852511Y-71836729D02*
X232366330Y-72161585D01*
X232041474Y-72647766D01*
X231927400Y-73221255D01*
X231927400Y-73590745D01*
X232041474Y-74164234D01*
X232366330Y-74650415D01*
X232852511Y-74975271D01*
X233426000Y-75089345D01*
X233999489Y-74975271D01*
X234485670Y-74650415D01*
X234692461Y-74340931D01*
X235063964Y-74756732D01*
X235591209Y-75010709D01*
X235606974Y-75013358D01*
X235838998Y-74892218D01*
X235838998Y-75057000D01*
X235932598Y-75057000D01*
X233073098Y-77916500D01*
X222885000Y-77916500D01*
X222594161Y-77974352D01*
X222594159Y-77974353D01*
X222594160Y-77974353D01*
X222347599Y-78139099D01*
X220158599Y-80328099D01*
X219993852Y-80574661D01*
X219936000Y-80865500D01*
X219936000Y-93468821D01*
X212932630Y-86465451D01*
X212777804Y-86362000D01*
X212631403Y-86264178D01*
X212572450Y-86252452D01*
X212276081Y-86193499D01*
X212276076Y-86193500D01*
X212224713Y-86193500D01*
X212124054Y-86042853D01*
X211642285Y-85720946D01*
X211074000Y-85607907D01*
X210505715Y-85720946D01*
X210023946Y-86042853D01*
X209804000Y-86372026D01*
X209584054Y-86042853D01*
X209102285Y-85720946D01*
X208534000Y-85607907D01*
X207965715Y-85720946D01*
X207483946Y-86042853D01*
X207454597Y-86086777D01*
X207382327Y-85912302D01*
X207203699Y-85733673D01*
X206970310Y-85637000D01*
X206279750Y-85637000D01*
X206121000Y-85795750D01*
X206121000Y-86995000D01*
X206141000Y-86995000D01*
X206141000Y-87249000D01*
X206121000Y-87249000D01*
X206121000Y-88448250D01*
X206279750Y-88607000D01*
X206970310Y-88607000D01*
X207203699Y-88510327D01*
X207382327Y-88331698D01*
X207454597Y-88157223D01*
X207483946Y-88201147D01*
X207774000Y-88394954D01*
X207774000Y-101037537D01*
X207741808Y-101069673D01*
X207599162Y-101413201D01*
X207598838Y-101785167D01*
X207740883Y-102128943D01*
X208003673Y-102392192D01*
X208347201Y-102534838D01*
X208719167Y-102535162D01*
X209062943Y-102393117D01*
X209326192Y-102130327D01*
X209468838Y-101786799D01*
X209469162Y-101414833D01*
X209327117Y-101071057D01*
X209294000Y-101037882D01*
X209294000Y-88394954D01*
X209584054Y-88201147D01*
X209804000Y-87871974D01*
X210023946Y-88201147D01*
X210505715Y-88523054D01*
X211074000Y-88636093D01*
X211642285Y-88523054D01*
X212074944Y-88233961D01*
X219767500Y-95926517D01*
X219767500Y-109531500D01*
X190047054Y-109531500D01*
X189792370Y-109276371D01*
X189279100Y-109063243D01*
X188770232Y-109062799D01*
X186067647Y-106360213D01*
X188199392Y-106360213D01*
X188268857Y-106602397D01*
X188792302Y-106789144D01*
X189347368Y-106761362D01*
X189731143Y-106602397D01*
X189800608Y-106360213D01*
X189000000Y-105559605D01*
X188199392Y-106360213D01*
X186067647Y-106360213D01*
X184879736Y-105172302D01*
X187590856Y-105172302D01*
X187618638Y-105727368D01*
X187777603Y-106111143D01*
X188019787Y-106180608D01*
X188820395Y-105380000D01*
X189179605Y-105380000D01*
X189980213Y-106180608D01*
X190222397Y-106111143D01*
X190409144Y-105587698D01*
X190381362Y-105032632D01*
X190222397Y-104648857D01*
X189980213Y-104579392D01*
X189179605Y-105380000D01*
X188820395Y-105380000D01*
X188019787Y-104579392D01*
X187777603Y-104648857D01*
X187590856Y-105172302D01*
X184879736Y-105172302D01*
X180284095Y-100576661D01*
X187602758Y-100576661D01*
X187814990Y-101090303D01*
X188207630Y-101483629D01*
X188415512Y-101569949D01*
X188209697Y-101654990D01*
X187816371Y-102047630D01*
X187603243Y-102560900D01*
X187602758Y-103116661D01*
X187814990Y-103630303D01*
X188207630Y-104023629D01*
X188399727Y-104103395D01*
X188268857Y-104157603D01*
X188199392Y-104399787D01*
X189000000Y-105200395D01*
X189800608Y-104399787D01*
X189731143Y-104157603D01*
X189590682Y-104107491D01*
X189790303Y-104025010D01*
X190183629Y-103632370D01*
X190396757Y-103119100D01*
X190397242Y-102563339D01*
X190185010Y-102049697D01*
X189792370Y-101656371D01*
X189584488Y-101570051D01*
X189790303Y-101485010D01*
X190183629Y-101092370D01*
X190396757Y-100579100D01*
X190397242Y-100023339D01*
X190185010Y-99509697D01*
X189792370Y-99116371D01*
X189279100Y-98903243D01*
X188723339Y-98902758D01*
X188209697Y-99114990D01*
X187816371Y-99507630D01*
X187603243Y-100020900D01*
X187602758Y-100576661D01*
X180284095Y-100576661D01*
X173904095Y-94196661D01*
X183222758Y-94196661D01*
X183434990Y-94710303D01*
X183827630Y-95103629D01*
X184035512Y-95189949D01*
X183829697Y-95274990D01*
X183436371Y-95667630D01*
X183223243Y-96180900D01*
X183222758Y-96736661D01*
X183434990Y-97250303D01*
X183827630Y-97643629D01*
X184340900Y-97856757D01*
X184896661Y-97857242D01*
X185410303Y-97645010D01*
X185803629Y-97252370D01*
X186016757Y-96739100D01*
X186017242Y-96183339D01*
X185805010Y-95669697D01*
X185412370Y-95276371D01*
X185204488Y-95190051D01*
X185410303Y-95105010D01*
X185803629Y-94712370D01*
X186016757Y-94199100D01*
X186017242Y-93643339D01*
X185805010Y-93129697D01*
X185412370Y-92736371D01*
X185220273Y-92656605D01*
X185351143Y-92602397D01*
X185420608Y-92360213D01*
X184620000Y-91559605D01*
X183819392Y-92360213D01*
X183888857Y-92602397D01*
X184029318Y-92652509D01*
X183829697Y-92734990D01*
X183436371Y-93127630D01*
X183223243Y-93640900D01*
X183222758Y-94196661D01*
X173904095Y-94196661D01*
X170879736Y-91172302D01*
X183210856Y-91172302D01*
X183238638Y-91727368D01*
X183397603Y-92111143D01*
X183639787Y-92180608D01*
X184440395Y-91380000D01*
X184799605Y-91380000D01*
X185600213Y-92180608D01*
X185842397Y-92111143D01*
X186029144Y-91587698D01*
X186001362Y-91032632D01*
X185842397Y-90648857D01*
X185600213Y-90579392D01*
X184799605Y-91380000D01*
X184440395Y-91380000D01*
X183639787Y-90579392D01*
X183397603Y-90648857D01*
X183210856Y-91172302D01*
X170879736Y-91172302D01*
X170503717Y-90796283D01*
X170235906Y-90617337D01*
X169920000Y-90554500D01*
X167989874Y-90554500D01*
X167835432Y-90399787D01*
X183819392Y-90399787D01*
X184620000Y-91200395D01*
X185420608Y-90399787D01*
X185351143Y-90157603D01*
X184827698Y-89970856D01*
X184272632Y-89998638D01*
X183888857Y-90157603D01*
X183819392Y-90399787D01*
X167835432Y-90399787D01*
X167632370Y-90196371D01*
X167119100Y-89983243D01*
X166563339Y-89982758D01*
X166049697Y-90194990D01*
X165656371Y-90587630D01*
X165443243Y-91100900D01*
X165442758Y-91656661D01*
X165654990Y-92170303D01*
X166047630Y-92563629D01*
X166255512Y-92649949D01*
X166049697Y-92734990D01*
X165656371Y-93127630D01*
X165443243Y-93640900D01*
X165442758Y-94196661D01*
X165654990Y-94710303D01*
X166047630Y-95103629D01*
X166255512Y-95189949D01*
X166049697Y-95274990D01*
X165656371Y-95667630D01*
X165443243Y-96180900D01*
X165442758Y-96736661D01*
X165654990Y-97250303D01*
X166047630Y-97643629D01*
X166560900Y-97856757D01*
X167116661Y-97857242D01*
X167630303Y-97645010D01*
X168023629Y-97252370D01*
X168236757Y-96739100D01*
X168237242Y-96183339D01*
X168025010Y-95669697D01*
X167632370Y-95276371D01*
X167424488Y-95190051D01*
X167630303Y-95105010D01*
X168023629Y-94712370D01*
X168236757Y-94199100D01*
X168237242Y-93643339D01*
X168025010Y-93129697D01*
X167632370Y-92736371D01*
X167424488Y-92650051D01*
X167630303Y-92565010D01*
X167990441Y-92205500D01*
X169578066Y-92205500D01*
X184026316Y-106653749D01*
X183829697Y-106734990D01*
X183436371Y-107127630D01*
X183223243Y-107640900D01*
X183222758Y-108196661D01*
X183434990Y-108710303D01*
X183827630Y-109103629D01*
X184035512Y-109189949D01*
X183829697Y-109274990D01*
X183436371Y-109667630D01*
X183223243Y-110180900D01*
X183222758Y-110736661D01*
X183434990Y-111250303D01*
X183827630Y-111643629D01*
X184035512Y-111729949D01*
X183829697Y-111814990D01*
X183436371Y-112207630D01*
X183223243Y-112720900D01*
X183222758Y-113276661D01*
X183434990Y-113790303D01*
X183827630Y-114183629D01*
X184340900Y-114396757D01*
X184896661Y-114397242D01*
X185410303Y-114185010D01*
X185803629Y-113792370D01*
X186016757Y-113279100D01*
X186017242Y-112723339D01*
X185805010Y-112209697D01*
X185412370Y-111816371D01*
X185204488Y-111730051D01*
X185410303Y-111645010D01*
X185803629Y-111252370D01*
X186016757Y-110739100D01*
X186017242Y-110183339D01*
X185805010Y-109669697D01*
X185412370Y-109276371D01*
X185204488Y-109190051D01*
X185410303Y-109105010D01*
X185803629Y-108712370D01*
X185886166Y-108513599D01*
X187603200Y-110230633D01*
X187602758Y-110736661D01*
X187814990Y-111250303D01*
X188207630Y-111643629D01*
X188415512Y-111729949D01*
X188209697Y-111814990D01*
X187816371Y-112207630D01*
X187603243Y-112720900D01*
X187602758Y-113276661D01*
X187814990Y-113790303D01*
X188207630Y-114183629D01*
X188415512Y-114269949D01*
X188209697Y-114354990D01*
X187816371Y-114747630D01*
X187603243Y-115260900D01*
X187602758Y-115816661D01*
X187814990Y-116330303D01*
X188207630Y-116723629D01*
X188720900Y-116936757D01*
X189276661Y-116937242D01*
X189790303Y-116725010D01*
X190183629Y-116332370D01*
X190396757Y-115819100D01*
X190397242Y-115263339D01*
X190185010Y-114749697D01*
X189792370Y-114356371D01*
X189584488Y-114270051D01*
X189790303Y-114185010D01*
X190183629Y-113792370D01*
X190396757Y-113279100D01*
X190397242Y-112723339D01*
X190185010Y-112209697D01*
X189792370Y-111816371D01*
X189584488Y-111730051D01*
X189790303Y-111645010D01*
X190047261Y-111388500D01*
X220311402Y-111388500D01*
X231077829Y-122154926D01*
X230916857Y-122221603D01*
X230847392Y-122463787D01*
X231648000Y-123264395D01*
X231662143Y-123250253D01*
X231841748Y-123429858D01*
X231827605Y-123444000D01*
X232628213Y-124244608D01*
X232870397Y-124175143D01*
X232930258Y-124007355D01*
X237735895Y-128812992D01*
X237499421Y-128812786D01*
X237045343Y-129000408D01*
X236697629Y-129347515D01*
X236509215Y-129801266D01*
X236508786Y-130292579D01*
X236696408Y-130746657D01*
X237043515Y-131094371D01*
X237497266Y-131282785D01*
X237988579Y-131283214D01*
X238442657Y-131095592D01*
X238790371Y-130748485D01*
X238978785Y-130294734D01*
X238978993Y-130056090D01*
X239048931Y-130126028D01*
X239048786Y-130292579D01*
X239236408Y-130746657D01*
X239583515Y-131094371D01*
X240037266Y-131282785D01*
X240528579Y-131283214D01*
X240982657Y-131095592D01*
X241330371Y-130748485D01*
X241518785Y-130294734D01*
X241518786Y-130292579D01*
X241588786Y-130292579D01*
X241776408Y-130746657D01*
X242123515Y-131094371D01*
X242577266Y-131282785D01*
X243068579Y-131283214D01*
X243522657Y-131095592D01*
X243870371Y-130748485D01*
X244058785Y-130294734D01*
X244059214Y-129803421D01*
X243871592Y-129349343D01*
X243524485Y-129001629D01*
X243070734Y-128813215D01*
X242579421Y-128812786D01*
X242125343Y-129000408D01*
X241777629Y-129347515D01*
X241589215Y-129801266D01*
X241588786Y-130292579D01*
X241518786Y-130292579D01*
X241519214Y-129803421D01*
X241331592Y-129349343D01*
X240984485Y-129001629D01*
X240530734Y-128813215D01*
X240362165Y-128813068D01*
X221624500Y-110075402D01*
X221624500Y-95504000D01*
X221553822Y-95148678D01*
X221456000Y-95002277D01*
X221456000Y-88160661D01*
X227710758Y-88160661D01*
X227922990Y-88674303D01*
X228315630Y-89067629D01*
X228828900Y-89280757D01*
X229384661Y-89281242D01*
X229898303Y-89069010D01*
X230291629Y-88676370D01*
X230377949Y-88468488D01*
X230462990Y-88674303D01*
X230855630Y-89067629D01*
X231368900Y-89280757D01*
X231924661Y-89281242D01*
X232438303Y-89069010D01*
X232831629Y-88676370D01*
X233044757Y-88163100D01*
X233045242Y-87607339D01*
X232833010Y-87093697D01*
X232440370Y-86700371D01*
X231927100Y-86487243D01*
X231371339Y-86486758D01*
X230857697Y-86698990D01*
X230464371Y-87091630D01*
X230378051Y-87299512D01*
X230293010Y-87093697D01*
X229900370Y-86700371D01*
X229387100Y-86487243D01*
X228831339Y-86486758D01*
X228317697Y-86698990D01*
X227924371Y-87091630D01*
X227711243Y-87604900D01*
X227710758Y-88160661D01*
X221456000Y-88160661D01*
X221456000Y-81180302D01*
X223199802Y-79436500D01*
X232954209Y-79436500D01*
X232852511Y-79456729D01*
X232366330Y-79781585D01*
X232041474Y-80267766D01*
X231927400Y-80841255D01*
X231927400Y-81210745D01*
X232041474Y-81784234D01*
X232366330Y-82270415D01*
X232852511Y-82595271D01*
X233426000Y-82709345D01*
X233999489Y-82595271D01*
X234485670Y-82270415D01*
X234696000Y-81955634D01*
X234906330Y-82270415D01*
X235246983Y-82498032D01*
X235263852Y-82582839D01*
X235428599Y-82829401D01*
X236448599Y-83849401D01*
X236695161Y-84014148D01*
X236986000Y-84072000D01*
X240731198Y-84072000D01*
X244604000Y-87944802D01*
X244604000Y-133987698D01*
X235778198Y-142813500D01*
X210439000Y-142813500D01*
X210196414Y-142861754D01*
X210148160Y-142871352D01*
X209901599Y-143036099D01*
X205727320Y-147210378D01*
X205681833Y-147210338D01*
X205338057Y-147352383D01*
X205074808Y-147615173D01*
X204932162Y-147958701D01*
X204931838Y-148330667D01*
X205073883Y-148674443D01*
X205208202Y-148808996D01*
X204884059Y-149133139D01*
X204479421Y-149132786D01*
X204025343Y-149320408D01*
X203677629Y-149667515D01*
X203489215Y-150121266D01*
X203488786Y-150612579D01*
X203676408Y-151066657D01*
X204023515Y-151414371D01*
X204477266Y-151602785D01*
X204968579Y-151603214D01*
X205422657Y-151415592D01*
X205770371Y-151068485D01*
X205958785Y-150614734D01*
X205959140Y-150207662D01*
X206029201Y-150137601D01*
X206028786Y-150612579D01*
X206216408Y-151066657D01*
X206563515Y-151414371D01*
X207017266Y-151602785D01*
X207508579Y-151603214D01*
X207962657Y-151415592D01*
X208310371Y-151068485D01*
X208498785Y-150614734D01*
X208498786Y-150612579D01*
X208568786Y-150612579D01*
X208756408Y-151066657D01*
X209103515Y-151414371D01*
X209557266Y-151602785D01*
X210048579Y-151603214D01*
X210502657Y-151415592D01*
X210850371Y-151068485D01*
X211038785Y-150614734D01*
X211038786Y-150612579D01*
X211108786Y-150612579D01*
X211296408Y-151066657D01*
X211643515Y-151414371D01*
X212097266Y-151602785D01*
X212588579Y-151603214D01*
X213042657Y-151415592D01*
X213390371Y-151068485D01*
X213578785Y-150614734D01*
X213578786Y-150612579D01*
X213648786Y-150612579D01*
X213836408Y-151066657D01*
X214183515Y-151414371D01*
X214637266Y-151602785D01*
X215128579Y-151603214D01*
X215582657Y-151415592D01*
X215930371Y-151068485D01*
X216118785Y-150614734D01*
X216118786Y-150612579D01*
X216188786Y-150612579D01*
X216376408Y-151066657D01*
X216723515Y-151414371D01*
X217177266Y-151602785D01*
X217668579Y-151603214D01*
X218122657Y-151415592D01*
X218470371Y-151068485D01*
X218658785Y-150614734D01*
X218658786Y-150612579D01*
X218728786Y-150612579D01*
X218916408Y-151066657D01*
X219263515Y-151414371D01*
X219717266Y-151602785D01*
X220208579Y-151603214D01*
X220662657Y-151415592D01*
X221010371Y-151068485D01*
X221198785Y-150614734D01*
X221198786Y-150612579D01*
X221268786Y-150612579D01*
X221456408Y-151066657D01*
X221803515Y-151414371D01*
X222257266Y-151602785D01*
X222748579Y-151603214D01*
X223202657Y-151415592D01*
X223550371Y-151068485D01*
X223738785Y-150614734D01*
X223738786Y-150612579D01*
X223808786Y-150612579D01*
X223996408Y-151066657D01*
X224343515Y-151414371D01*
X224797266Y-151602785D01*
X225288579Y-151603214D01*
X225742657Y-151415592D01*
X226090371Y-151068485D01*
X226278785Y-150614734D01*
X226278786Y-150612579D01*
X226348786Y-150612579D01*
X226536408Y-151066657D01*
X226883515Y-151414371D01*
X227337266Y-151602785D01*
X227828579Y-151603214D01*
X228282657Y-151415592D01*
X228630371Y-151068485D01*
X228818785Y-150614734D01*
X228818786Y-150612579D01*
X228888786Y-150612579D01*
X229076408Y-151066657D01*
X229423515Y-151414371D01*
X229877266Y-151602785D01*
X230368579Y-151603214D01*
X230822657Y-151415592D01*
X231170371Y-151068485D01*
X231358785Y-150614734D01*
X231358786Y-150612579D01*
X231428786Y-150612579D01*
X231616408Y-151066657D01*
X231963515Y-151414371D01*
X232417266Y-151602785D01*
X232908579Y-151603214D01*
X233362657Y-151415592D01*
X233710371Y-151068485D01*
X233898785Y-150614734D01*
X233899214Y-150123421D01*
X233711592Y-149669343D01*
X233364485Y-149321629D01*
X232910734Y-149133215D01*
X232419421Y-149132786D01*
X231965343Y-149320408D01*
X231617629Y-149667515D01*
X231429215Y-150121266D01*
X231428786Y-150612579D01*
X231358786Y-150612579D01*
X231359214Y-150123421D01*
X231171592Y-149669343D01*
X230824485Y-149321629D01*
X230370734Y-149133215D01*
X229879421Y-149132786D01*
X229425343Y-149320408D01*
X229077629Y-149667515D01*
X228889215Y-150121266D01*
X228888786Y-150612579D01*
X228818786Y-150612579D01*
X228819214Y-150123421D01*
X228631592Y-149669343D01*
X228284485Y-149321629D01*
X227830734Y-149133215D01*
X227339421Y-149132786D01*
X226885343Y-149320408D01*
X226537629Y-149667515D01*
X226349215Y-150121266D01*
X226348786Y-150612579D01*
X226278786Y-150612579D01*
X226279214Y-150123421D01*
X226091592Y-149669343D01*
X225744485Y-149321629D01*
X225290734Y-149133215D01*
X224799421Y-149132786D01*
X224345343Y-149320408D01*
X223997629Y-149667515D01*
X223809215Y-150121266D01*
X223808786Y-150612579D01*
X223738786Y-150612579D01*
X223739214Y-150123421D01*
X223551592Y-149669343D01*
X223204485Y-149321629D01*
X222750734Y-149133215D01*
X222259421Y-149132786D01*
X221805343Y-149320408D01*
X221457629Y-149667515D01*
X221269215Y-150121266D01*
X221268786Y-150612579D01*
X221198786Y-150612579D01*
X221199214Y-150123421D01*
X221011592Y-149669343D01*
X220664485Y-149321629D01*
X220210734Y-149133215D01*
X219719421Y-149132786D01*
X219265343Y-149320408D01*
X218917629Y-149667515D01*
X218729215Y-150121266D01*
X218728786Y-150612579D01*
X218658786Y-150612579D01*
X218659214Y-150123421D01*
X218471592Y-149669343D01*
X218124485Y-149321629D01*
X217670734Y-149133215D01*
X217179421Y-149132786D01*
X216725343Y-149320408D01*
X216377629Y-149667515D01*
X216189215Y-150121266D01*
X216188786Y-150612579D01*
X216118786Y-150612579D01*
X216119214Y-150123421D01*
X215931592Y-149669343D01*
X215584485Y-149321629D01*
X215130734Y-149133215D01*
X214639421Y-149132786D01*
X214185343Y-149320408D01*
X213837629Y-149667515D01*
X213649215Y-150121266D01*
X213648786Y-150612579D01*
X213578786Y-150612579D01*
X213579214Y-150123421D01*
X213391592Y-149669343D01*
X213044485Y-149321629D01*
X212590734Y-149133215D01*
X212099421Y-149132786D01*
X211645343Y-149320408D01*
X211297629Y-149667515D01*
X211109215Y-150121266D01*
X211108786Y-150612579D01*
X211038786Y-150612579D01*
X211039214Y-150123421D01*
X210851592Y-149669343D01*
X210504485Y-149321629D01*
X210050734Y-149133215D01*
X209559421Y-149132786D01*
X209105343Y-149320408D01*
X208757629Y-149667515D01*
X208569215Y-150121266D01*
X208568786Y-150612579D01*
X208498786Y-150612579D01*
X208499214Y-150123421D01*
X208311592Y-149669343D01*
X207964485Y-149321629D01*
X207510734Y-149133215D01*
X207034003Y-149132799D01*
X211383291Y-144783511D01*
X236341489Y-144783511D01*
X236632328Y-144725659D01*
X236878890Y-144560912D01*
X246536401Y-134903401D01*
X246701148Y-134656839D01*
X246759000Y-134366000D01*
X246759000Y-87405400D01*
X246701148Y-87114561D01*
X246536401Y-86867999D01*
X240157001Y-80488599D01*
X239910439Y-80323852D01*
X239901321Y-80322038D01*
X239890526Y-80267766D01*
X239565670Y-79781585D01*
X239079489Y-79456729D01*
X238506000Y-79342655D01*
X237932511Y-79456729D01*
X237446330Y-79781585D01*
X237236000Y-80096366D01*
X237025670Y-79781585D01*
X236539489Y-79456729D01*
X235966000Y-79342655D01*
X235392511Y-79456729D01*
X234906330Y-79781585D01*
X234696000Y-80096366D01*
X234485670Y-79781585D01*
X233999489Y-79456729D01*
X233642844Y-79385788D01*
X233678739Y-79378648D01*
X233925301Y-79213901D01*
X237377947Y-75761255D01*
X239547400Y-75761255D01*
X239547400Y-76130745D01*
X239661474Y-76704234D01*
X239986330Y-77190415D01*
X240024621Y-77216000D01*
X239986330Y-77241585D01*
X239661474Y-77727766D01*
X239547400Y-78301255D01*
X239547400Y-78670745D01*
X239661474Y-79244234D01*
X239986330Y-79730415D01*
X240472511Y-80055271D01*
X241046000Y-80169345D01*
X241619489Y-80055271D01*
X242105670Y-79730415D01*
X242430526Y-79244234D01*
X242544600Y-78670745D01*
X242544600Y-78301255D01*
X242430526Y-77727766D01*
X242105670Y-77241585D01*
X242067379Y-77216000D01*
X242105670Y-77190415D01*
X242430526Y-76704234D01*
X242544600Y-76130745D01*
X242544600Y-75761255D01*
X242430526Y-75187766D01*
X242105670Y-74701585D01*
X241619489Y-74376729D01*
X241046000Y-74262655D01*
X240472511Y-74376729D01*
X239986330Y-74701585D01*
X239661474Y-75187766D01*
X239547400Y-75761255D01*
X237377947Y-75761255D01*
X238125536Y-75013666D01*
X238506000Y-75089345D01*
X239079489Y-74975271D01*
X239565670Y-74650415D01*
X239890526Y-74164234D01*
X240004600Y-73590745D01*
X240004600Y-73221255D01*
X239890526Y-72647766D01*
X239565670Y-72161585D01*
X239079489Y-71836729D01*
X239045660Y-71830000D01*
X253290000Y-71830000D01*
X253290000Y-151690000D01*
X194455517Y-151690000D01*
X194731629Y-151414370D01*
X194944757Y-150901100D01*
X194945242Y-150345339D01*
X194733010Y-149831697D01*
X194340370Y-149438371D01*
X194132488Y-149352051D01*
X194338303Y-149267010D01*
X194731629Y-148874370D01*
X194944757Y-148361100D01*
X194945242Y-147805339D01*
X194733010Y-147291697D01*
X194340370Y-146898371D01*
X194132488Y-146812051D01*
X194338303Y-146727010D01*
X194731629Y-146334370D01*
X194944757Y-145821100D01*
X194945242Y-145265339D01*
X194733010Y-144751697D01*
X194340370Y-144358371D01*
X194132488Y-144272051D01*
X194338303Y-144187010D01*
X194731629Y-143794370D01*
X194944757Y-143281100D01*
X194945242Y-142725339D01*
X194733010Y-142211697D01*
X194340370Y-141818371D01*
X194132488Y-141732051D01*
X194338303Y-141647010D01*
X194731629Y-141254370D01*
X194944757Y-140741100D01*
X194945242Y-140185339D01*
X194733010Y-139671697D01*
X194340370Y-139278371D01*
X194132488Y-139192051D01*
X194338303Y-139107010D01*
X194731629Y-138714370D01*
X194944757Y-138201100D01*
X194945242Y-137645339D01*
X194733010Y-137131697D01*
X194340370Y-136738371D01*
X194132488Y-136652051D01*
X194338303Y-136567010D01*
X194731629Y-136174370D01*
X194944757Y-135661100D01*
X194945242Y-135105339D01*
X194733010Y-134591697D01*
X194340370Y-134198371D01*
X194132488Y-134112051D01*
X194338303Y-134027010D01*
X194731629Y-133634370D01*
X194944757Y-133121100D01*
X194945242Y-132565339D01*
X194733010Y-132051697D01*
X194340370Y-131658371D01*
X194132488Y-131572051D01*
X194338303Y-131487010D01*
X194731629Y-131094370D01*
X194944757Y-130581100D01*
X194945008Y-130292579D01*
X203488786Y-130292579D01*
X203676408Y-130746657D01*
X204023515Y-131094371D01*
X204477266Y-131282785D01*
X204968579Y-131283214D01*
X205422657Y-131095592D01*
X205770371Y-130748485D01*
X205958785Y-130294734D01*
X205958786Y-130292579D01*
X206028786Y-130292579D01*
X206216408Y-130746657D01*
X206563515Y-131094371D01*
X207017266Y-131282785D01*
X207508579Y-131283214D01*
X207962657Y-131095592D01*
X208310371Y-130748485D01*
X208498785Y-130294734D01*
X208498786Y-130292579D01*
X208568786Y-130292579D01*
X208756408Y-130746657D01*
X209103515Y-131094371D01*
X209557266Y-131282785D01*
X210048579Y-131283214D01*
X210502657Y-131095592D01*
X210850371Y-130748485D01*
X211038785Y-130294734D01*
X211038786Y-130292579D01*
X211108786Y-130292579D01*
X211296408Y-130746657D01*
X211643515Y-131094371D01*
X212097266Y-131282785D01*
X212588579Y-131283214D01*
X213042657Y-131095592D01*
X213390371Y-130748485D01*
X213578785Y-130294734D01*
X213578786Y-130292579D01*
X213648786Y-130292579D01*
X213836408Y-130746657D01*
X214183515Y-131094371D01*
X214637266Y-131282785D01*
X215128579Y-131283214D01*
X215582657Y-131095592D01*
X215930371Y-130748485D01*
X216118785Y-130294734D01*
X216118786Y-130292579D01*
X216188786Y-130292579D01*
X216376408Y-130746657D01*
X216723515Y-131094371D01*
X217177266Y-131282785D01*
X217668579Y-131283214D01*
X218122657Y-131095592D01*
X218470371Y-130748485D01*
X218658785Y-130294734D01*
X218658786Y-130292579D01*
X218728786Y-130292579D01*
X218916408Y-130746657D01*
X219263515Y-131094371D01*
X219717266Y-131282785D01*
X220208579Y-131283214D01*
X220662657Y-131095592D01*
X221010371Y-130748485D01*
X221198785Y-130294734D01*
X221198786Y-130292579D01*
X221268786Y-130292579D01*
X221456408Y-130746657D01*
X221803515Y-131094371D01*
X222257266Y-131282785D01*
X222748579Y-131283214D01*
X223202657Y-131095592D01*
X223550371Y-130748485D01*
X223738785Y-130294734D01*
X223738786Y-130292579D01*
X223808786Y-130292579D01*
X223996408Y-130746657D01*
X224343515Y-131094371D01*
X224797266Y-131282785D01*
X225288579Y-131283214D01*
X225742657Y-131095592D01*
X226090371Y-130748485D01*
X226278785Y-130294734D01*
X226278786Y-130292579D01*
X226348786Y-130292579D01*
X226536408Y-130746657D01*
X226883515Y-131094371D01*
X227337266Y-131282785D01*
X227828579Y-131283214D01*
X228282657Y-131095592D01*
X228630371Y-130748485D01*
X228818785Y-130294734D01*
X228818786Y-130292579D01*
X228888786Y-130292579D01*
X229076408Y-130746657D01*
X229423515Y-131094371D01*
X229877266Y-131282785D01*
X230368579Y-131283214D01*
X230822657Y-131095592D01*
X231170371Y-130748485D01*
X231358785Y-130294734D01*
X231358786Y-130292579D01*
X231428786Y-130292579D01*
X231616408Y-130746657D01*
X231963515Y-131094371D01*
X232417266Y-131282785D01*
X232908579Y-131283214D01*
X233362657Y-131095592D01*
X233547837Y-130910735D01*
X234520870Y-130910735D01*
X234570383Y-131136164D01*
X235035036Y-131295807D01*
X235525413Y-131265482D01*
X235837617Y-131136164D01*
X235887130Y-130910735D01*
X235204000Y-130227605D01*
X234520870Y-130910735D01*
X233547837Y-130910735D01*
X233710371Y-130748485D01*
X233898785Y-130294734D01*
X233899147Y-129879036D01*
X233956193Y-129879036D01*
X233986518Y-130369413D01*
X234115836Y-130681617D01*
X234341265Y-130731130D01*
X235024395Y-130048000D01*
X235383605Y-130048000D01*
X236066735Y-130731130D01*
X236292164Y-130681617D01*
X236451807Y-130216964D01*
X236421482Y-129726587D01*
X236292164Y-129414383D01*
X236066735Y-129364870D01*
X235383605Y-130048000D01*
X235024395Y-130048000D01*
X234341265Y-129364870D01*
X234115836Y-129414383D01*
X233956193Y-129879036D01*
X233899147Y-129879036D01*
X233899214Y-129803421D01*
X233711592Y-129349343D01*
X233547801Y-129185265D01*
X234520870Y-129185265D01*
X235204000Y-129868395D01*
X235887130Y-129185265D01*
X235837617Y-128959836D01*
X235372964Y-128800193D01*
X234882587Y-128830518D01*
X234570383Y-128959836D01*
X234520870Y-129185265D01*
X233547801Y-129185265D01*
X233364485Y-129001629D01*
X232910734Y-128813215D01*
X232419421Y-128812786D01*
X231965343Y-129000408D01*
X231617629Y-129347515D01*
X231429215Y-129801266D01*
X231428786Y-130292579D01*
X231358786Y-130292579D01*
X231359214Y-129803421D01*
X231171592Y-129349343D01*
X230824485Y-129001629D01*
X230370734Y-128813215D01*
X229879421Y-128812786D01*
X229425343Y-129000408D01*
X229077629Y-129347515D01*
X228889215Y-129801266D01*
X228888786Y-130292579D01*
X228818786Y-130292579D01*
X228819214Y-129803421D01*
X228631592Y-129349343D01*
X228284485Y-129001629D01*
X227830734Y-128813215D01*
X227339421Y-128812786D01*
X226885343Y-129000408D01*
X226537629Y-129347515D01*
X226349215Y-129801266D01*
X226348786Y-130292579D01*
X226278786Y-130292579D01*
X226279214Y-129803421D01*
X226091592Y-129349343D01*
X225744485Y-129001629D01*
X225290734Y-128813215D01*
X224799421Y-128812786D01*
X224345343Y-129000408D01*
X223997629Y-129347515D01*
X223809215Y-129801266D01*
X223808786Y-130292579D01*
X223738786Y-130292579D01*
X223739214Y-129803421D01*
X223551592Y-129349343D01*
X223204485Y-129001629D01*
X222750734Y-128813215D01*
X222259421Y-128812786D01*
X221805343Y-129000408D01*
X221457629Y-129347515D01*
X221269215Y-129801266D01*
X221268786Y-130292579D01*
X221198786Y-130292579D01*
X221199214Y-129803421D01*
X221011592Y-129349343D01*
X220664485Y-129001629D01*
X220210734Y-128813215D01*
X219719421Y-128812786D01*
X219265343Y-129000408D01*
X218917629Y-129347515D01*
X218729215Y-129801266D01*
X218728786Y-130292579D01*
X218658786Y-130292579D01*
X218659214Y-129803421D01*
X218471592Y-129349343D01*
X218124485Y-129001629D01*
X217670734Y-128813215D01*
X217179421Y-128812786D01*
X216725343Y-129000408D01*
X216377629Y-129347515D01*
X216189215Y-129801266D01*
X216188786Y-130292579D01*
X216118786Y-130292579D01*
X216119214Y-129803421D01*
X215931592Y-129349343D01*
X215584485Y-129001629D01*
X215130734Y-128813215D01*
X214639421Y-128812786D01*
X214185343Y-129000408D01*
X213837629Y-129347515D01*
X213649215Y-129801266D01*
X213648786Y-130292579D01*
X213578786Y-130292579D01*
X213579214Y-129803421D01*
X213391592Y-129349343D01*
X213044485Y-129001629D01*
X212590734Y-128813215D01*
X212099421Y-128812786D01*
X211645343Y-129000408D01*
X211297629Y-129347515D01*
X211109215Y-129801266D01*
X211108786Y-130292579D01*
X211038786Y-130292579D01*
X211039214Y-129803421D01*
X210851592Y-129349343D01*
X210504485Y-129001629D01*
X210050734Y-128813215D01*
X209559421Y-128812786D01*
X209105343Y-129000408D01*
X208757629Y-129347515D01*
X208569215Y-129801266D01*
X208568786Y-130292579D01*
X208498786Y-130292579D01*
X208499214Y-129803421D01*
X208311592Y-129349343D01*
X208024000Y-129061248D01*
X208024000Y-126292463D01*
X208056192Y-126260327D01*
X208198838Y-125916799D01*
X208199162Y-125544833D01*
X208057117Y-125201057D01*
X207794327Y-124937808D01*
X207450799Y-124795162D01*
X207078833Y-124794838D01*
X206735057Y-124936883D01*
X206471808Y-125199673D01*
X206329162Y-125543201D01*
X206328838Y-125915167D01*
X206470883Y-126258943D01*
X206504000Y-126292118D01*
X206504000Y-129061644D01*
X206217629Y-129347515D01*
X206029215Y-129801266D01*
X206028786Y-130292579D01*
X205958786Y-130292579D01*
X205959214Y-129803421D01*
X205771592Y-129349343D01*
X205424485Y-129001629D01*
X204970734Y-128813215D01*
X204479421Y-128812786D01*
X204025343Y-129000408D01*
X203677629Y-129347515D01*
X203489215Y-129801266D01*
X203488786Y-130292579D01*
X194945008Y-130292579D01*
X194945242Y-130025339D01*
X194733010Y-129511697D01*
X194340370Y-129118371D01*
X194132488Y-129032051D01*
X194338303Y-128947010D01*
X194731629Y-128554370D01*
X194944757Y-128041100D01*
X194945242Y-127485339D01*
X194733010Y-126971697D01*
X194340370Y-126578371D01*
X194132488Y-126492051D01*
X194338303Y-126407010D01*
X194731629Y-126014370D01*
X194944757Y-125501100D01*
X194945242Y-124945339D01*
X194733010Y-124431697D01*
X194340370Y-124038371D01*
X194132488Y-123952051D01*
X194338303Y-123867010D01*
X194484907Y-123720661D01*
X227710758Y-123720661D01*
X227922990Y-124234303D01*
X228315630Y-124627629D01*
X228828900Y-124840757D01*
X229384661Y-124841242D01*
X229898303Y-124629010D01*
X230103457Y-124424213D01*
X230847392Y-124424213D01*
X230916857Y-124666397D01*
X231440302Y-124853144D01*
X231995368Y-124825362D01*
X232379143Y-124666397D01*
X232448608Y-124424213D01*
X231648000Y-123623605D01*
X230847392Y-124424213D01*
X230103457Y-124424213D01*
X230291629Y-124236370D01*
X230371395Y-124044273D01*
X230425603Y-124175143D01*
X230667787Y-124244608D01*
X231468395Y-123444000D01*
X230667787Y-122643392D01*
X230425603Y-122712857D01*
X230375491Y-122853318D01*
X230293010Y-122653697D01*
X229900370Y-122260371D01*
X229387100Y-122047243D01*
X228831339Y-122046758D01*
X228317697Y-122258990D01*
X227924371Y-122651630D01*
X227711243Y-123164900D01*
X227710758Y-123720661D01*
X194484907Y-123720661D01*
X194731629Y-123474370D01*
X194944757Y-122961100D01*
X194945242Y-122405339D01*
X194733010Y-121891697D01*
X194340370Y-121498371D01*
X193827100Y-121285243D01*
X193271339Y-121284758D01*
X192757697Y-121496990D01*
X192364371Y-121889630D01*
X192151243Y-122402900D01*
X192150758Y-122958661D01*
X192362990Y-123472303D01*
X192755630Y-123865629D01*
X192963512Y-123951949D01*
X192757697Y-124036990D01*
X192364371Y-124429630D01*
X192151243Y-124942900D01*
X192150758Y-125498661D01*
X192362990Y-126012303D01*
X192755630Y-126405629D01*
X192963512Y-126491949D01*
X192757697Y-126576990D01*
X192364371Y-126969630D01*
X192151243Y-127482900D01*
X192150758Y-128038661D01*
X192164143Y-128071055D01*
X191455198Y-128780000D01*
X185855531Y-128780000D01*
X185843010Y-128749697D01*
X185450370Y-128356371D01*
X185242488Y-128270051D01*
X185448303Y-128185010D01*
X185841629Y-127792370D01*
X186054757Y-127279100D01*
X186055242Y-126723339D01*
X185843010Y-126209697D01*
X185450370Y-125816371D01*
X185242488Y-125730051D01*
X185448303Y-125645010D01*
X185841629Y-125252370D01*
X186054757Y-124739100D01*
X186055242Y-124183339D01*
X185843010Y-123669697D01*
X185450370Y-123276371D01*
X184937100Y-123063243D01*
X184381339Y-123062758D01*
X183867697Y-123274990D01*
X183474371Y-123667630D01*
X183261243Y-124180900D01*
X183260758Y-124736661D01*
X183472990Y-125250303D01*
X183865630Y-125643629D01*
X184073512Y-125729949D01*
X183867697Y-125814990D01*
X183474371Y-126207630D01*
X183261243Y-126720900D01*
X183260758Y-127276661D01*
X183472990Y-127790303D01*
X183865630Y-128183629D01*
X184073512Y-128269949D01*
X183867697Y-128354990D01*
X183474371Y-128747630D01*
X183261243Y-129260900D01*
X183260758Y-129816661D01*
X183472990Y-130330303D01*
X183865630Y-130723629D01*
X184378900Y-130936757D01*
X184934661Y-130937242D01*
X185448303Y-130725010D01*
X185841629Y-130332370D01*
X185855070Y-130300000D01*
X191770000Y-130300000D01*
X192060839Y-130242148D01*
X192151104Y-130181835D01*
X192150758Y-130578661D01*
X192362990Y-131092303D01*
X192755630Y-131485629D01*
X192963512Y-131571949D01*
X192757697Y-131656990D01*
X192364371Y-132049630D01*
X192151243Y-132562900D01*
X192150758Y-133118661D01*
X192362990Y-133632303D01*
X192755630Y-134025629D01*
X192963512Y-134111949D01*
X192757697Y-134196990D01*
X192364371Y-134589630D01*
X192262300Y-134835444D01*
X192248599Y-134844599D01*
X186054941Y-141038257D01*
X186055242Y-140693339D01*
X185843010Y-140179697D01*
X185450370Y-139786371D01*
X184937100Y-139573243D01*
X184381339Y-139572758D01*
X183867697Y-139784990D01*
X183474371Y-140177630D01*
X183261243Y-140690900D01*
X183260758Y-141246661D01*
X183472990Y-141760303D01*
X183865630Y-142153629D01*
X184073512Y-142239949D01*
X183867697Y-142324990D01*
X183474371Y-142717630D01*
X183261243Y-143230900D01*
X183260758Y-143786661D01*
X183472990Y-144300303D01*
X183865630Y-144693629D01*
X184073512Y-144779949D01*
X183867697Y-144864990D01*
X183474371Y-145257630D01*
X183261243Y-145770900D01*
X183260758Y-146326661D01*
X183472990Y-146840303D01*
X183865630Y-147233629D01*
X184378900Y-147446757D01*
X184934661Y-147447242D01*
X185448303Y-147235010D01*
X185841629Y-146842370D01*
X186054757Y-146329100D01*
X186055242Y-145773339D01*
X185843010Y-145259697D01*
X185450370Y-144866371D01*
X185242488Y-144780051D01*
X185448303Y-144695010D01*
X185841629Y-144302370D01*
X186054757Y-143789100D01*
X186055242Y-143233339D01*
X186041857Y-143200945D01*
X192716436Y-136526366D01*
X192755630Y-136565629D01*
X192963512Y-136651949D01*
X192757697Y-136736990D01*
X192364371Y-137129630D01*
X192151243Y-137642900D01*
X192150758Y-138198661D01*
X192362990Y-138712303D01*
X192755630Y-139105629D01*
X192963512Y-139191949D01*
X192757697Y-139276990D01*
X192364371Y-139669630D01*
X192151243Y-140182900D01*
X192150758Y-140738661D01*
X192362990Y-141252303D01*
X192755630Y-141645629D01*
X192963512Y-141731949D01*
X192757697Y-141816990D01*
X192364371Y-142209630D01*
X192151243Y-142722900D01*
X192150758Y-143278661D01*
X192362990Y-143792303D01*
X192755630Y-144185629D01*
X192963512Y-144271949D01*
X192757697Y-144356990D01*
X192364371Y-144749630D01*
X192151243Y-145262900D01*
X192150758Y-145818661D01*
X192362990Y-146332303D01*
X192755630Y-146725629D01*
X192963512Y-146811949D01*
X192757697Y-146896990D01*
X192364371Y-147289630D01*
X192151243Y-147802900D01*
X192150758Y-148358661D01*
X192362990Y-148872303D01*
X192755630Y-149265629D01*
X192963512Y-149351949D01*
X192757697Y-149436990D01*
X192364371Y-149829630D01*
X192151243Y-150342900D01*
X192150758Y-150898661D01*
X192362990Y-151412303D01*
X192640203Y-151690000D01*
X174135517Y-151690000D01*
X174411629Y-151414370D01*
X174624757Y-150901100D01*
X174625242Y-150345339D01*
X174413010Y-149831697D01*
X174020370Y-149438371D01*
X173812488Y-149352051D01*
X174018303Y-149267010D01*
X174411629Y-148874370D01*
X174624757Y-148361100D01*
X174625242Y-147805339D01*
X174413010Y-147291697D01*
X174020370Y-146898371D01*
X173812488Y-146812051D01*
X174018303Y-146727010D01*
X174411629Y-146334370D01*
X174624757Y-145821100D01*
X174625242Y-145265339D01*
X174413010Y-144751697D01*
X174020370Y-144358371D01*
X173812488Y-144272051D01*
X174018303Y-144187010D01*
X174411629Y-143794370D01*
X174624757Y-143281100D01*
X174625242Y-142725339D01*
X174413010Y-142211697D01*
X174020370Y-141818371D01*
X173812488Y-141732051D01*
X174018303Y-141647010D01*
X174411629Y-141254370D01*
X174624757Y-140741100D01*
X174625242Y-140185339D01*
X174413010Y-139671697D01*
X174020370Y-139278371D01*
X173812488Y-139192051D01*
X174018303Y-139107010D01*
X174411629Y-138714370D01*
X174624757Y-138201100D01*
X174625242Y-137645339D01*
X174413010Y-137131697D01*
X174020370Y-136738371D01*
X173812488Y-136652051D01*
X174018303Y-136567010D01*
X174411629Y-136174370D01*
X174624757Y-135661100D01*
X174625242Y-135105339D01*
X174413010Y-134591697D01*
X174020370Y-134198371D01*
X173812488Y-134112051D01*
X174018303Y-134027010D01*
X174411629Y-133634370D01*
X174624757Y-133121100D01*
X174625242Y-132565339D01*
X174413010Y-132051697D01*
X174020370Y-131658371D01*
X173812488Y-131572051D01*
X174018303Y-131487010D01*
X174411629Y-131094370D01*
X174624757Y-130581100D01*
X174625242Y-130025339D01*
X174413010Y-129511697D01*
X174020370Y-129118371D01*
X173812488Y-129032051D01*
X174018303Y-128947010D01*
X174411629Y-128554370D01*
X174624757Y-128041100D01*
X174625242Y-127485339D01*
X174413010Y-126971697D01*
X174020370Y-126578371D01*
X173812488Y-126492051D01*
X174018303Y-126407010D01*
X174411629Y-126014370D01*
X174624757Y-125501100D01*
X174625242Y-124945339D01*
X174413010Y-124431697D01*
X174020370Y-124038371D01*
X173812488Y-123952051D01*
X174018303Y-123867010D01*
X174411629Y-123474370D01*
X174624757Y-122961100D01*
X174625242Y-122405339D01*
X174413010Y-121891697D01*
X174020370Y-121498371D01*
X173507100Y-121285243D01*
X172951339Y-121284758D01*
X172437697Y-121496990D01*
X172180739Y-121753500D01*
X168618005Y-121753500D01*
X168618000Y-121753499D01*
X168262679Y-121824177D01*
X168262677Y-121824178D01*
X168262678Y-121824178D01*
X167961451Y-122025451D01*
X167961449Y-122025454D01*
X166923863Y-123063039D01*
X166601339Y-123062758D01*
X166087697Y-123274990D01*
X165694371Y-123667630D01*
X165481243Y-124180900D01*
X165480959Y-124505943D01*
X165428500Y-124558403D01*
X165428500Y-110644598D01*
X165442851Y-110630247D01*
X165442758Y-110736661D01*
X165654990Y-111250303D01*
X166047630Y-111643629D01*
X166255512Y-111729949D01*
X166049697Y-111814990D01*
X165656371Y-112207630D01*
X165443243Y-112720900D01*
X165442758Y-113276661D01*
X165654990Y-113790303D01*
X166047630Y-114183629D01*
X166560900Y-114396757D01*
X167116661Y-114397242D01*
X167630303Y-114185010D01*
X168023629Y-113792370D01*
X168236757Y-113279100D01*
X168237242Y-112723339D01*
X168025010Y-112209697D01*
X167632370Y-111816371D01*
X167424488Y-111730051D01*
X167630303Y-111645010D01*
X168023629Y-111252370D01*
X168236757Y-110739100D01*
X168237242Y-110183339D01*
X168025010Y-109669697D01*
X167632370Y-109276371D01*
X167424488Y-109190051D01*
X167630303Y-109105010D01*
X167887261Y-108848500D01*
X170273402Y-108848500D01*
X170291500Y-108866598D01*
X170291500Y-109412946D01*
X170036371Y-109667630D01*
X169823243Y-110180900D01*
X169822758Y-110736661D01*
X170034990Y-111250303D01*
X170427630Y-111643629D01*
X170635512Y-111729949D01*
X170429697Y-111814990D01*
X170036371Y-112207630D01*
X169823243Y-112720900D01*
X169822758Y-113276661D01*
X170034990Y-113790303D01*
X170427630Y-114183629D01*
X170635512Y-114269949D01*
X170429697Y-114354990D01*
X170036371Y-114747630D01*
X169823243Y-115260900D01*
X169822758Y-115816661D01*
X170034990Y-116330303D01*
X170427630Y-116723629D01*
X170940900Y-116936757D01*
X171496661Y-116937242D01*
X172010303Y-116725010D01*
X172403629Y-116332370D01*
X172616757Y-115819100D01*
X172617242Y-115263339D01*
X172405010Y-114749697D01*
X172012370Y-114356371D01*
X171804488Y-114270051D01*
X172010303Y-114185010D01*
X172403629Y-113792370D01*
X172616757Y-113279100D01*
X172617242Y-112723339D01*
X172405010Y-112209697D01*
X172012370Y-111816371D01*
X171804488Y-111730051D01*
X172010303Y-111645010D01*
X172403629Y-111252370D01*
X172616757Y-110739100D01*
X172617242Y-110183339D01*
X172405010Y-109669697D01*
X172148500Y-109412739D01*
X172148500Y-108482000D01*
X172077822Y-108126678D01*
X171876549Y-107825451D01*
X171314549Y-107263451D01*
X171013322Y-107062178D01*
X170954369Y-107050452D01*
X170658000Y-106991499D01*
X170657995Y-106991500D01*
X167887054Y-106991500D01*
X167632370Y-106736371D01*
X167119100Y-106523243D01*
X166563339Y-106522758D01*
X166049697Y-106734990D01*
X165656371Y-107127630D01*
X165443243Y-107640900D01*
X165442926Y-108003977D01*
X163843451Y-109603451D01*
X163775947Y-109704478D01*
X163579147Y-109409946D01*
X163249974Y-109190000D01*
X163579147Y-108970054D01*
X163901054Y-108488285D01*
X164014093Y-107920000D01*
X163901054Y-107351715D01*
X163579147Y-106869946D01*
X163097378Y-106548039D01*
X162529093Y-106435000D01*
X162470907Y-106435000D01*
X161902622Y-106548039D01*
X161420853Y-106869946D01*
X161098946Y-107351715D01*
X160985907Y-107920000D01*
X161098946Y-108488285D01*
X161420853Y-108970054D01*
X161750026Y-109190000D01*
X161420853Y-109409946D01*
X161098946Y-109891715D01*
X160985907Y-110460000D01*
X161098946Y-111028285D01*
X161420853Y-111510054D01*
X161462452Y-111537850D01*
X161414683Y-111546838D01*
X161198559Y-111685910D01*
X161053569Y-111898110D01*
X161002560Y-112150000D01*
X161002560Y-113850000D01*
X161046838Y-114085317D01*
X161185910Y-114301441D01*
X161398110Y-114446431D01*
X161650000Y-114497440D01*
X163350000Y-114497440D01*
X163571500Y-114455762D01*
X163571500Y-123808640D01*
X163325147Y-123439946D01*
X162843378Y-123118039D01*
X162275093Y-123005000D01*
X162216907Y-123005000D01*
X161648622Y-123118039D01*
X161166853Y-123439946D01*
X160844946Y-123921715D01*
X160731907Y-124490000D01*
X160844946Y-125058285D01*
X161166853Y-125540054D01*
X161496026Y-125760000D01*
X161166853Y-125979946D01*
X160844946Y-126461715D01*
X160731907Y-127030000D01*
X160844946Y-127598285D01*
X161166853Y-128080054D01*
X161208452Y-128107850D01*
X161160683Y-128116838D01*
X160944559Y-128255910D01*
X160799569Y-128468110D01*
X160748560Y-128720000D01*
X160748560Y-130420000D01*
X160792838Y-130655317D01*
X160931910Y-130871441D01*
X161144110Y-131016431D01*
X161396000Y-131067440D01*
X163096000Y-131067440D01*
X163331317Y-131023162D01*
X163547441Y-130884090D01*
X163571500Y-130848878D01*
X163571500Y-138591995D01*
X163571499Y-138592000D01*
X163608860Y-138779822D01*
X163642178Y-138947322D01*
X163747955Y-139105629D01*
X163843451Y-139248549D01*
X165481073Y-140886171D01*
X165480758Y-141246661D01*
X165692990Y-141760303D01*
X166085630Y-142153629D01*
X166293512Y-142239949D01*
X166087697Y-142324990D01*
X165694371Y-142717630D01*
X165481243Y-143230900D01*
X165480758Y-143786661D01*
X165692990Y-144300303D01*
X166085630Y-144693629D01*
X166293512Y-144779949D01*
X166087697Y-144864990D01*
X165694371Y-145257630D01*
X165481243Y-145770900D01*
X165480758Y-146326661D01*
X165692990Y-146840303D01*
X166085630Y-147233629D01*
X166598900Y-147446757D01*
X167154661Y-147447242D01*
X167668303Y-147235010D01*
X168061629Y-146842370D01*
X168274757Y-146329100D01*
X168275242Y-145773339D01*
X168063010Y-145259697D01*
X167670370Y-144866371D01*
X167462488Y-144780051D01*
X167668303Y-144695010D01*
X168061629Y-144302370D01*
X168274757Y-143789100D01*
X168275242Y-143233339D01*
X168063010Y-142719697D01*
X167670370Y-142326371D01*
X167462488Y-142240051D01*
X167668303Y-142155010D01*
X168061629Y-141762370D01*
X168274757Y-141249100D01*
X168275242Y-140693339D01*
X168063010Y-140179697D01*
X167670370Y-139786371D01*
X167157100Y-139573243D01*
X166794024Y-139572926D01*
X165428500Y-138207402D01*
X165428500Y-127184598D01*
X165480884Y-127132214D01*
X165480758Y-127276661D01*
X165692990Y-127790303D01*
X166085630Y-128183629D01*
X166293512Y-128269949D01*
X166087697Y-128354990D01*
X165694371Y-128747630D01*
X165481243Y-129260900D01*
X165480758Y-129816661D01*
X165692990Y-130330303D01*
X166085630Y-130723629D01*
X166598900Y-130936757D01*
X167154661Y-130937242D01*
X167668303Y-130725010D01*
X168061629Y-130332370D01*
X168274757Y-129819100D01*
X168275242Y-129263339D01*
X168063010Y-128749697D01*
X167670370Y-128356371D01*
X167462488Y-128270051D01*
X167668303Y-128185010D01*
X168061629Y-127792370D01*
X168274757Y-127279100D01*
X168275242Y-126723339D01*
X168063010Y-126209697D01*
X167670370Y-125816371D01*
X167462488Y-125730051D01*
X167668303Y-125645010D01*
X168061629Y-125252370D01*
X168274757Y-124739100D01*
X168275107Y-124337991D01*
X169002597Y-123610500D01*
X172180946Y-123610500D01*
X172435630Y-123865629D01*
X172643512Y-123951949D01*
X172437697Y-124036990D01*
X172044371Y-124429630D01*
X171831243Y-124942900D01*
X171830758Y-125498661D01*
X172042990Y-126012303D01*
X172435630Y-126405629D01*
X172643512Y-126491949D01*
X172437697Y-126576990D01*
X172044371Y-126969630D01*
X171831243Y-127482900D01*
X171830758Y-128038661D01*
X172042990Y-128552303D01*
X172435630Y-128945629D01*
X172643512Y-129031949D01*
X172437697Y-129116990D01*
X172044371Y-129509630D01*
X171831243Y-130022900D01*
X171830758Y-130578661D01*
X172042990Y-131092303D01*
X172435630Y-131485629D01*
X172643512Y-131571949D01*
X172437697Y-131656990D01*
X172044371Y-132049630D01*
X171831243Y-132562900D01*
X171830758Y-133118661D01*
X172042990Y-133632303D01*
X172435630Y-134025629D01*
X172643512Y-134111949D01*
X172437697Y-134196990D01*
X172044371Y-134589630D01*
X171831243Y-135102900D01*
X171830758Y-135658661D01*
X172042990Y-136172303D01*
X172435630Y-136565629D01*
X172643512Y-136651949D01*
X172437697Y-136736990D01*
X172044371Y-137129630D01*
X171831243Y-137642900D01*
X171830758Y-138198661D01*
X172042990Y-138712303D01*
X172435630Y-139105629D01*
X172643512Y-139191949D01*
X172437697Y-139276990D01*
X172044371Y-139669630D01*
X171831243Y-140182900D01*
X171830758Y-140738661D01*
X172042990Y-141252303D01*
X172435630Y-141645629D01*
X172643512Y-141731949D01*
X172437697Y-141816990D01*
X172044371Y-142209630D01*
X171831243Y-142722900D01*
X171830758Y-143278661D01*
X172042990Y-143792303D01*
X172435630Y-144185629D01*
X172643512Y-144271949D01*
X172437697Y-144356990D01*
X172044371Y-144749630D01*
X171831243Y-145262900D01*
X171830758Y-145818661D01*
X172042990Y-146332303D01*
X172435630Y-146725629D01*
X172643512Y-146811949D01*
X172437697Y-146896990D01*
X172044371Y-147289630D01*
X171831243Y-147802900D01*
X171830758Y-148358661D01*
X172042990Y-148872303D01*
X172435630Y-149265629D01*
X172643512Y-149351949D01*
X172437697Y-149436990D01*
X172044371Y-149829630D01*
X171831243Y-150342900D01*
X171830758Y-150898661D01*
X172042990Y-151412303D01*
X172320203Y-151690000D01*
X158190000Y-151690000D01*
X158190000Y-140970000D01*
X160731907Y-140970000D01*
X160844946Y-141538285D01*
X161166853Y-142020054D01*
X161496026Y-142240000D01*
X161166853Y-142459946D01*
X160844946Y-142941715D01*
X160731907Y-143510000D01*
X160844946Y-144078285D01*
X161166853Y-144560054D01*
X161208452Y-144587850D01*
X161160683Y-144596838D01*
X160944559Y-144735910D01*
X160799569Y-144948110D01*
X160748560Y-145200000D01*
X160748560Y-146900000D01*
X160792838Y-147135317D01*
X160931910Y-147351441D01*
X161144110Y-147496431D01*
X161396000Y-147547440D01*
X163096000Y-147547440D01*
X163331317Y-147503162D01*
X163547441Y-147364090D01*
X163692431Y-147151890D01*
X163743440Y-146900000D01*
X163743440Y-145200000D01*
X163699162Y-144964683D01*
X163560090Y-144748559D01*
X163347890Y-144603569D01*
X163280459Y-144589914D01*
X163325147Y-144560054D01*
X163647054Y-144078285D01*
X163760093Y-143510000D01*
X163647054Y-142941715D01*
X163325147Y-142459946D01*
X162995974Y-142240000D01*
X163325147Y-142020054D01*
X163647054Y-141538285D01*
X163760093Y-140970000D01*
X163647054Y-140401715D01*
X163325147Y-139919946D01*
X162843378Y-139598039D01*
X162275093Y-139485000D01*
X162216907Y-139485000D01*
X161648622Y-139598039D01*
X161166853Y-139919946D01*
X160844946Y-140401715D01*
X160731907Y-140970000D01*
X158190000Y-140970000D01*
X158190000Y-100576661D01*
X169822758Y-100576661D01*
X170034990Y-101090303D01*
X170427630Y-101483629D01*
X170635512Y-101569949D01*
X170429697Y-101654990D01*
X170036371Y-102047630D01*
X169823243Y-102560900D01*
X169822758Y-103116661D01*
X170034990Y-103630303D01*
X170427630Y-104023629D01*
X170635512Y-104109949D01*
X170429697Y-104194990D01*
X170036371Y-104587630D01*
X169823243Y-105100900D01*
X169822758Y-105656661D01*
X170034990Y-106170303D01*
X170427630Y-106563629D01*
X170940900Y-106776757D01*
X171496661Y-106777242D01*
X172010303Y-106565010D01*
X172403629Y-106172370D01*
X172616757Y-105659100D01*
X172617242Y-105103339D01*
X172405010Y-104589697D01*
X172012370Y-104196371D01*
X171804488Y-104110051D01*
X172010303Y-104025010D01*
X172403629Y-103632370D01*
X172616757Y-103119100D01*
X172617242Y-102563339D01*
X172405010Y-102049697D01*
X172012370Y-101656371D01*
X171804488Y-101570051D01*
X172010303Y-101485010D01*
X172403629Y-101092370D01*
X172616757Y-100579100D01*
X172617242Y-100023339D01*
X172405010Y-99509697D01*
X172012370Y-99116371D01*
X171499100Y-98903243D01*
X170943339Y-98902758D01*
X170429697Y-99114990D01*
X170036371Y-99507630D01*
X169823243Y-100020900D01*
X169822758Y-100576661D01*
X158190000Y-100576661D01*
X158190000Y-91380000D01*
X160985907Y-91380000D01*
X161098946Y-91948285D01*
X161420853Y-92430054D01*
X161750026Y-92650000D01*
X161420853Y-92869946D01*
X161098946Y-93351715D01*
X160985907Y-93920000D01*
X161098946Y-94488285D01*
X161420853Y-94970054D01*
X161462452Y-94997850D01*
X161414683Y-95006838D01*
X161198559Y-95145910D01*
X161053569Y-95358110D01*
X161002560Y-95610000D01*
X161002560Y-97310000D01*
X161046838Y-97545317D01*
X161185910Y-97761441D01*
X161398110Y-97906431D01*
X161650000Y-97957440D01*
X163350000Y-97957440D01*
X163585317Y-97913162D01*
X163801441Y-97774090D01*
X163946431Y-97561890D01*
X163997440Y-97310000D01*
X163997440Y-95610000D01*
X163953162Y-95374683D01*
X163814090Y-95158559D01*
X163601890Y-95013569D01*
X163534459Y-94999914D01*
X163579147Y-94970054D01*
X163901054Y-94488285D01*
X164014093Y-93920000D01*
X163901054Y-93351715D01*
X163579147Y-92869946D01*
X163249974Y-92650000D01*
X163579147Y-92430054D01*
X163901054Y-91948285D01*
X164014093Y-91380000D01*
X163901054Y-90811715D01*
X163579147Y-90329946D01*
X163097378Y-90008039D01*
X162529093Y-89895000D01*
X162470907Y-89895000D01*
X161902622Y-90008039D01*
X161420853Y-90329946D01*
X161098946Y-90811715D01*
X160985907Y-91380000D01*
X158190000Y-91380000D01*
X158190000Y-87407750D01*
X204509000Y-87407750D01*
X204509000Y-88098309D01*
X204605673Y-88331698D01*
X204784301Y-88510327D01*
X205017690Y-88607000D01*
X205708250Y-88607000D01*
X205867000Y-88448250D01*
X205867000Y-87249000D01*
X204667750Y-87249000D01*
X204509000Y-87407750D01*
X158190000Y-87407750D01*
X158190000Y-86145691D01*
X204509000Y-86145691D01*
X204509000Y-86836250D01*
X204667750Y-86995000D01*
X205867000Y-86995000D01*
X205867000Y-85795750D01*
X205708250Y-85637000D01*
X205017690Y-85637000D01*
X204784301Y-85733673D01*
X204605673Y-85912302D01*
X204509000Y-86145691D01*
X158190000Y-86145691D01*
X158190000Y-78771750D01*
X204509000Y-78771750D01*
X204509000Y-79462309D01*
X204605673Y-79695698D01*
X204784301Y-79874327D01*
X205017690Y-79971000D01*
X205708250Y-79971000D01*
X205867000Y-79812250D01*
X205867000Y-78613000D01*
X204667750Y-78613000D01*
X204509000Y-78771750D01*
X158190000Y-78771750D01*
X158190000Y-77509691D01*
X204509000Y-77509691D01*
X204509000Y-78200250D01*
X204667750Y-78359000D01*
X205867000Y-78359000D01*
X205867000Y-77159750D01*
X206121000Y-77159750D01*
X206121000Y-78359000D01*
X206141000Y-78359000D01*
X206141000Y-78613000D01*
X206121000Y-78613000D01*
X206121000Y-79812250D01*
X206279750Y-79971000D01*
X206970310Y-79971000D01*
X207203699Y-79874327D01*
X207382327Y-79695698D01*
X207454597Y-79521223D01*
X207483946Y-79565147D01*
X207965715Y-79887054D01*
X208534000Y-80000093D01*
X209102285Y-79887054D01*
X209584054Y-79565147D01*
X209804000Y-79235974D01*
X210023946Y-79565147D01*
X210505715Y-79887054D01*
X211074000Y-80000093D01*
X211642285Y-79887054D01*
X212124054Y-79565147D01*
X212344000Y-79235974D01*
X212563946Y-79565147D01*
X213045715Y-79887054D01*
X213614000Y-80000093D01*
X214182285Y-79887054D01*
X214664054Y-79565147D01*
X214884000Y-79235974D01*
X215103946Y-79565147D01*
X215585715Y-79887054D01*
X216154000Y-80000093D01*
X216722285Y-79887054D01*
X217204054Y-79565147D01*
X217525961Y-79083378D01*
X217639000Y-78515093D01*
X217639000Y-78456907D01*
X217525961Y-77888622D01*
X217204054Y-77406853D01*
X216722285Y-77084946D01*
X216154000Y-76971907D01*
X215585715Y-77084946D01*
X215103946Y-77406853D01*
X214884000Y-77736026D01*
X214664054Y-77406853D01*
X214182285Y-77084946D01*
X213614000Y-76971907D01*
X213045715Y-77084946D01*
X212563946Y-77406853D01*
X212344000Y-77736026D01*
X212124054Y-77406853D01*
X211642285Y-77084946D01*
X211074000Y-76971907D01*
X210505715Y-77084946D01*
X210023946Y-77406853D01*
X209804000Y-77736026D01*
X209584054Y-77406853D01*
X209102285Y-77084946D01*
X208534000Y-76971907D01*
X207965715Y-77084946D01*
X207483946Y-77406853D01*
X207454597Y-77450777D01*
X207382327Y-77276302D01*
X207203699Y-77097673D01*
X206970310Y-77001000D01*
X206279750Y-77001000D01*
X206121000Y-77159750D01*
X205867000Y-77159750D01*
X205708250Y-77001000D01*
X205017690Y-77001000D01*
X204784301Y-77097673D01*
X204605673Y-77276302D01*
X204509000Y-77509691D01*
X158190000Y-77509691D01*
X158190000Y-74463242D01*
X204450915Y-74463242D01*
X204450915Y-75153801D01*
X204547588Y-75387190D01*
X204726216Y-75565819D01*
X204959605Y-75662492D01*
X205650165Y-75662492D01*
X205808915Y-75503742D01*
X205808915Y-74304492D01*
X204609665Y-74304492D01*
X204450915Y-74463242D01*
X158190000Y-74463242D01*
X158190000Y-73201183D01*
X204450915Y-73201183D01*
X204450915Y-73891742D01*
X204609665Y-74050492D01*
X205808915Y-74050492D01*
X205808915Y-72851242D01*
X206062915Y-72851242D01*
X206062915Y-74050492D01*
X206082915Y-74050492D01*
X206082915Y-74304492D01*
X206062915Y-74304492D01*
X206062915Y-75503742D01*
X206221665Y-75662492D01*
X206912225Y-75662492D01*
X207145614Y-75565819D01*
X207324242Y-75387190D01*
X207396512Y-75212715D01*
X207425861Y-75256639D01*
X207907630Y-75578546D01*
X208475915Y-75691585D01*
X209044200Y-75578546D01*
X209525969Y-75256639D01*
X209745915Y-74927466D01*
X209965861Y-75256639D01*
X210447630Y-75578546D01*
X211015915Y-75691585D01*
X211584200Y-75578546D01*
X212065969Y-75256639D01*
X212285915Y-74927466D01*
X212505861Y-75256639D01*
X212987630Y-75578546D01*
X213555915Y-75691585D01*
X214124200Y-75578546D01*
X214605969Y-75256639D01*
X214825915Y-74927466D01*
X215045861Y-75256639D01*
X215527630Y-75578546D01*
X216095915Y-75691585D01*
X216664200Y-75578546D01*
X217145969Y-75256639D01*
X217467876Y-74774870D01*
X217580915Y-74206585D01*
X217580915Y-74148399D01*
X217467876Y-73580114D01*
X217145969Y-73098345D01*
X216664200Y-72776438D01*
X216095915Y-72663399D01*
X215527630Y-72776438D01*
X215045861Y-73098345D01*
X214825915Y-73427518D01*
X214605969Y-73098345D01*
X214124200Y-72776438D01*
X213555915Y-72663399D01*
X212987630Y-72776438D01*
X212505861Y-73098345D01*
X212285915Y-73427518D01*
X212065969Y-73098345D01*
X211584200Y-72776438D01*
X211015915Y-72663399D01*
X210447630Y-72776438D01*
X209965861Y-73098345D01*
X209745915Y-73427518D01*
X209525969Y-73098345D01*
X209044200Y-72776438D01*
X208475915Y-72663399D01*
X207907630Y-72776438D01*
X207425861Y-73098345D01*
X207396512Y-73142269D01*
X207324242Y-72967794D01*
X207145614Y-72789165D01*
X206912225Y-72692492D01*
X206221665Y-72692492D01*
X206062915Y-72851242D01*
X205808915Y-72851242D01*
X205650165Y-72692492D01*
X204959605Y-72692492D01*
X204726216Y-72789165D01*
X204547588Y-72967794D01*
X204450915Y-73201183D01*
X158190000Y-73201183D01*
X158190000Y-71830000D01*
X232886340Y-71830000D01*
X232852511Y-71836729D01*
X232852511Y-71836729D01*
G37*
X232852511Y-71836729D02*
X232366330Y-72161585D01*
X232041474Y-72647766D01*
X231927400Y-73221255D01*
X231927400Y-73590745D01*
X232041474Y-74164234D01*
X232366330Y-74650415D01*
X232852511Y-74975271D01*
X233426000Y-75089345D01*
X233999489Y-74975271D01*
X234485670Y-74650415D01*
X234692461Y-74340931D01*
X235063964Y-74756732D01*
X235591209Y-75010709D01*
X235606974Y-75013358D01*
X235838998Y-74892218D01*
X235838998Y-75057000D01*
X235932598Y-75057000D01*
X233073098Y-77916500D01*
X222885000Y-77916500D01*
X222594161Y-77974352D01*
X222594159Y-77974353D01*
X222594160Y-77974353D01*
X222347599Y-78139099D01*
X220158599Y-80328099D01*
X219993852Y-80574661D01*
X219936000Y-80865500D01*
X219936000Y-93468821D01*
X212932630Y-86465451D01*
X212777804Y-86362000D01*
X212631403Y-86264178D01*
X212572450Y-86252452D01*
X212276081Y-86193499D01*
X212276076Y-86193500D01*
X212224713Y-86193500D01*
X212124054Y-86042853D01*
X211642285Y-85720946D01*
X211074000Y-85607907D01*
X210505715Y-85720946D01*
X210023946Y-86042853D01*
X209804000Y-86372026D01*
X209584054Y-86042853D01*
X209102285Y-85720946D01*
X208534000Y-85607907D01*
X207965715Y-85720946D01*
X207483946Y-86042853D01*
X207454597Y-86086777D01*
X207382327Y-85912302D01*
X207203699Y-85733673D01*
X206970310Y-85637000D01*
X206279750Y-85637000D01*
X206121000Y-85795750D01*
X206121000Y-86995000D01*
X206141000Y-86995000D01*
X206141000Y-87249000D01*
X206121000Y-87249000D01*
X206121000Y-88448250D01*
X206279750Y-88607000D01*
X206970310Y-88607000D01*
X207203699Y-88510327D01*
X207382327Y-88331698D01*
X207454597Y-88157223D01*
X207483946Y-88201147D01*
X207774000Y-88394954D01*
X207774000Y-101037537D01*
X207741808Y-101069673D01*
X207599162Y-101413201D01*
X207598838Y-101785167D01*
X207740883Y-102128943D01*
X208003673Y-102392192D01*
X208347201Y-102534838D01*
X208719167Y-102535162D01*
X209062943Y-102393117D01*
X209326192Y-102130327D01*
X209468838Y-101786799D01*
X209469162Y-101414833D01*
X209327117Y-101071057D01*
X209294000Y-101037882D01*
X209294000Y-88394954D01*
X209584054Y-88201147D01*
X209804000Y-87871974D01*
X210023946Y-88201147D01*
X210505715Y-88523054D01*
X211074000Y-88636093D01*
X211642285Y-88523054D01*
X212074944Y-88233961D01*
X219767500Y-95926517D01*
X219767500Y-109531500D01*
X190047054Y-109531500D01*
X189792370Y-109276371D01*
X189279100Y-109063243D01*
X188770232Y-109062799D01*
X186067647Y-106360213D01*
X188199392Y-106360213D01*
X188268857Y-106602397D01*
X188792302Y-106789144D01*
X189347368Y-106761362D01*
X189731143Y-106602397D01*
X189800608Y-106360213D01*
X189000000Y-105559605D01*
X188199392Y-106360213D01*
X186067647Y-106360213D01*
X184879736Y-105172302D01*
X187590856Y-105172302D01*
X187618638Y-105727368D01*
X187777603Y-106111143D01*
X188019787Y-106180608D01*
X188820395Y-105380000D01*
X189179605Y-105380000D01*
X189980213Y-106180608D01*
X190222397Y-106111143D01*
X190409144Y-105587698D01*
X190381362Y-105032632D01*
X190222397Y-104648857D01*
X189980213Y-104579392D01*
X189179605Y-105380000D01*
X188820395Y-105380000D01*
X188019787Y-104579392D01*
X187777603Y-104648857D01*
X187590856Y-105172302D01*
X184879736Y-105172302D01*
X180284095Y-100576661D01*
X187602758Y-100576661D01*
X187814990Y-101090303D01*
X188207630Y-101483629D01*
X188415512Y-101569949D01*
X188209697Y-101654990D01*
X187816371Y-102047630D01*
X187603243Y-102560900D01*
X187602758Y-103116661D01*
X187814990Y-103630303D01*
X188207630Y-104023629D01*
X188399727Y-104103395D01*
X188268857Y-104157603D01*
X188199392Y-104399787D01*
X189000000Y-105200395D01*
X189800608Y-104399787D01*
X189731143Y-104157603D01*
X189590682Y-104107491D01*
X189790303Y-104025010D01*
X190183629Y-103632370D01*
X190396757Y-103119100D01*
X190397242Y-102563339D01*
X190185010Y-102049697D01*
X189792370Y-101656371D01*
X189584488Y-101570051D01*
X189790303Y-101485010D01*
X190183629Y-101092370D01*
X190396757Y-100579100D01*
X190397242Y-100023339D01*
X190185010Y-99509697D01*
X189792370Y-99116371D01*
X189279100Y-98903243D01*
X188723339Y-98902758D01*
X188209697Y-99114990D01*
X187816371Y-99507630D01*
X187603243Y-100020900D01*
X187602758Y-100576661D01*
X180284095Y-100576661D01*
X173904095Y-94196661D01*
X183222758Y-94196661D01*
X183434990Y-94710303D01*
X183827630Y-95103629D01*
X184035512Y-95189949D01*
X183829697Y-95274990D01*
X183436371Y-95667630D01*
X183223243Y-96180900D01*
X183222758Y-96736661D01*
X183434990Y-97250303D01*
X183827630Y-97643629D01*
X184340900Y-97856757D01*
X184896661Y-97857242D01*
X185410303Y-97645010D01*
X185803629Y-97252370D01*
X186016757Y-96739100D01*
X186017242Y-96183339D01*
X185805010Y-95669697D01*
X185412370Y-95276371D01*
X185204488Y-95190051D01*
X185410303Y-95105010D01*
X185803629Y-94712370D01*
X186016757Y-94199100D01*
X186017242Y-93643339D01*
X185805010Y-93129697D01*
X185412370Y-92736371D01*
X185220273Y-92656605D01*
X185351143Y-92602397D01*
X185420608Y-92360213D01*
X184620000Y-91559605D01*
X183819392Y-92360213D01*
X183888857Y-92602397D01*
X184029318Y-92652509D01*
X183829697Y-92734990D01*
X183436371Y-93127630D01*
X183223243Y-93640900D01*
X183222758Y-94196661D01*
X173904095Y-94196661D01*
X170879736Y-91172302D01*
X183210856Y-91172302D01*
X183238638Y-91727368D01*
X183397603Y-92111143D01*
X183639787Y-92180608D01*
X184440395Y-91380000D01*
X184799605Y-91380000D01*
X185600213Y-92180608D01*
X185842397Y-92111143D01*
X186029144Y-91587698D01*
X186001362Y-91032632D01*
X185842397Y-90648857D01*
X185600213Y-90579392D01*
X184799605Y-91380000D01*
X184440395Y-91380000D01*
X183639787Y-90579392D01*
X183397603Y-90648857D01*
X183210856Y-91172302D01*
X170879736Y-91172302D01*
X170503717Y-90796283D01*
X170235906Y-90617337D01*
X169920000Y-90554500D01*
X167989874Y-90554500D01*
X167835432Y-90399787D01*
X183819392Y-90399787D01*
X184620000Y-91200395D01*
X185420608Y-90399787D01*
X185351143Y-90157603D01*
X184827698Y-89970856D01*
X184272632Y-89998638D01*
X183888857Y-90157603D01*
X183819392Y-90399787D01*
X167835432Y-90399787D01*
X167632370Y-90196371D01*
X167119100Y-89983243D01*
X166563339Y-89982758D01*
X166049697Y-90194990D01*
X165656371Y-90587630D01*
X165443243Y-91100900D01*
X165442758Y-91656661D01*
X165654990Y-92170303D01*
X166047630Y-92563629D01*
X166255512Y-92649949D01*
X166049697Y-92734990D01*
X165656371Y-93127630D01*
X165443243Y-93640900D01*
X165442758Y-94196661D01*
X165654990Y-94710303D01*
X166047630Y-95103629D01*
X166255512Y-95189949D01*
X166049697Y-95274990D01*
X165656371Y-95667630D01*
X165443243Y-96180900D01*
X165442758Y-96736661D01*
X165654990Y-97250303D01*
X166047630Y-97643629D01*
X166560900Y-97856757D01*
X167116661Y-97857242D01*
X167630303Y-97645010D01*
X168023629Y-97252370D01*
X168236757Y-96739100D01*
X168237242Y-96183339D01*
X168025010Y-95669697D01*
X167632370Y-95276371D01*
X167424488Y-95190051D01*
X167630303Y-95105010D01*
X168023629Y-94712370D01*
X168236757Y-94199100D01*
X168237242Y-93643339D01*
X168025010Y-93129697D01*
X167632370Y-92736371D01*
X167424488Y-92650051D01*
X167630303Y-92565010D01*
X167990441Y-92205500D01*
X169578066Y-92205500D01*
X184026316Y-106653749D01*
X183829697Y-106734990D01*
X183436371Y-107127630D01*
X183223243Y-107640900D01*
X183222758Y-108196661D01*
X183434990Y-108710303D01*
X183827630Y-109103629D01*
X184035512Y-109189949D01*
X183829697Y-109274990D01*
X183436371Y-109667630D01*
X183223243Y-110180900D01*
X183222758Y-110736661D01*
X183434990Y-111250303D01*
X183827630Y-111643629D01*
X184035512Y-111729949D01*
X183829697Y-111814990D01*
X183436371Y-112207630D01*
X183223243Y-112720900D01*
X183222758Y-113276661D01*
X183434990Y-113790303D01*
X183827630Y-114183629D01*
X184340900Y-114396757D01*
X184896661Y-114397242D01*
X185410303Y-114185010D01*
X185803629Y-113792370D01*
X186016757Y-113279100D01*
X186017242Y-112723339D01*
X185805010Y-112209697D01*
X185412370Y-111816371D01*
X185204488Y-111730051D01*
X185410303Y-111645010D01*
X185803629Y-111252370D01*
X186016757Y-110739100D01*
X186017242Y-110183339D01*
X185805010Y-109669697D01*
X185412370Y-109276371D01*
X185204488Y-109190051D01*
X185410303Y-109105010D01*
X185803629Y-108712370D01*
X185886166Y-108513599D01*
X187603200Y-110230633D01*
X187602758Y-110736661D01*
X187814990Y-111250303D01*
X188207630Y-111643629D01*
X188415512Y-111729949D01*
X188209697Y-111814990D01*
X187816371Y-112207630D01*
X187603243Y-112720900D01*
X187602758Y-113276661D01*
X187814990Y-113790303D01*
X188207630Y-114183629D01*
X188415512Y-114269949D01*
X188209697Y-114354990D01*
X187816371Y-114747630D01*
X187603243Y-115260900D01*
X187602758Y-115816661D01*
X187814990Y-116330303D01*
X188207630Y-116723629D01*
X188720900Y-116936757D01*
X189276661Y-116937242D01*
X189790303Y-116725010D01*
X190183629Y-116332370D01*
X190396757Y-115819100D01*
X190397242Y-115263339D01*
X190185010Y-114749697D01*
X189792370Y-114356371D01*
X189584488Y-114270051D01*
X189790303Y-114185010D01*
X190183629Y-113792370D01*
X190396757Y-113279100D01*
X190397242Y-112723339D01*
X190185010Y-112209697D01*
X189792370Y-111816371D01*
X189584488Y-111730051D01*
X189790303Y-111645010D01*
X190047261Y-111388500D01*
X220311402Y-111388500D01*
X231077829Y-122154926D01*
X230916857Y-122221603D01*
X230847392Y-122463787D01*
X231648000Y-123264395D01*
X231662143Y-123250253D01*
X231841748Y-123429858D01*
X231827605Y-123444000D01*
X232628213Y-124244608D01*
X232870397Y-124175143D01*
X232930258Y-124007355D01*
X237735895Y-128812992D01*
X237499421Y-128812786D01*
X237045343Y-129000408D01*
X236697629Y-129347515D01*
X236509215Y-129801266D01*
X236508786Y-130292579D01*
X236696408Y-130746657D01*
X237043515Y-131094371D01*
X237497266Y-131282785D01*
X237988579Y-131283214D01*
X238442657Y-131095592D01*
X238790371Y-130748485D01*
X238978785Y-130294734D01*
X238978993Y-130056090D01*
X239048931Y-130126028D01*
X239048786Y-130292579D01*
X239236408Y-130746657D01*
X239583515Y-131094371D01*
X240037266Y-131282785D01*
X240528579Y-131283214D01*
X240982657Y-131095592D01*
X241330371Y-130748485D01*
X241518785Y-130294734D01*
X241518786Y-130292579D01*
X241588786Y-130292579D01*
X241776408Y-130746657D01*
X242123515Y-131094371D01*
X242577266Y-131282785D01*
X243068579Y-131283214D01*
X243522657Y-131095592D01*
X243870371Y-130748485D01*
X244058785Y-130294734D01*
X244059214Y-129803421D01*
X243871592Y-129349343D01*
X243524485Y-129001629D01*
X243070734Y-128813215D01*
X242579421Y-128812786D01*
X242125343Y-129000408D01*
X241777629Y-129347515D01*
X241589215Y-129801266D01*
X241588786Y-130292579D01*
X241518786Y-130292579D01*
X241519214Y-129803421D01*
X241331592Y-129349343D01*
X240984485Y-129001629D01*
X240530734Y-128813215D01*
X240362165Y-128813068D01*
X221624500Y-110075402D01*
X221624500Y-95504000D01*
X221553822Y-95148678D01*
X221456000Y-95002277D01*
X221456000Y-88160661D01*
X227710758Y-88160661D01*
X227922990Y-88674303D01*
X228315630Y-89067629D01*
X228828900Y-89280757D01*
X229384661Y-89281242D01*
X229898303Y-89069010D01*
X230291629Y-88676370D01*
X230377949Y-88468488D01*
X230462990Y-88674303D01*
X230855630Y-89067629D01*
X231368900Y-89280757D01*
X231924661Y-89281242D01*
X232438303Y-89069010D01*
X232831629Y-88676370D01*
X233044757Y-88163100D01*
X233045242Y-87607339D01*
X232833010Y-87093697D01*
X232440370Y-86700371D01*
X231927100Y-86487243D01*
X231371339Y-86486758D01*
X230857697Y-86698990D01*
X230464371Y-87091630D01*
X230378051Y-87299512D01*
X230293010Y-87093697D01*
X229900370Y-86700371D01*
X229387100Y-86487243D01*
X228831339Y-86486758D01*
X228317697Y-86698990D01*
X227924371Y-87091630D01*
X227711243Y-87604900D01*
X227710758Y-88160661D01*
X221456000Y-88160661D01*
X221456000Y-81180302D01*
X223199802Y-79436500D01*
X232954209Y-79436500D01*
X232852511Y-79456729D01*
X232366330Y-79781585D01*
X232041474Y-80267766D01*
X231927400Y-80841255D01*
X231927400Y-81210745D01*
X232041474Y-81784234D01*
X232366330Y-82270415D01*
X232852511Y-82595271D01*
X233426000Y-82709345D01*
X233999489Y-82595271D01*
X234485670Y-82270415D01*
X234696000Y-81955634D01*
X234906330Y-82270415D01*
X235246983Y-82498032D01*
X235263852Y-82582839D01*
X235428599Y-82829401D01*
X236448599Y-83849401D01*
X236695161Y-84014148D01*
X236986000Y-84072000D01*
X240731198Y-84072000D01*
X244604000Y-87944802D01*
X244604000Y-133987698D01*
X235778198Y-142813500D01*
X210439000Y-142813500D01*
X210196414Y-142861754D01*
X210148160Y-142871352D01*
X209901599Y-143036099D01*
X205727320Y-147210378D01*
X205681833Y-147210338D01*
X205338057Y-147352383D01*
X205074808Y-147615173D01*
X204932162Y-147958701D01*
X204931838Y-148330667D01*
X205073883Y-148674443D01*
X205208202Y-148808996D01*
X204884059Y-149133139D01*
X204479421Y-149132786D01*
X204025343Y-149320408D01*
X203677629Y-149667515D01*
X203489215Y-150121266D01*
X203488786Y-150612579D01*
X203676408Y-151066657D01*
X204023515Y-151414371D01*
X204477266Y-151602785D01*
X204968579Y-151603214D01*
X205422657Y-151415592D01*
X205770371Y-151068485D01*
X205958785Y-150614734D01*
X205959140Y-150207662D01*
X206029201Y-150137601D01*
X206028786Y-150612579D01*
X206216408Y-151066657D01*
X206563515Y-151414371D01*
X207017266Y-151602785D01*
X207508579Y-151603214D01*
X207962657Y-151415592D01*
X208310371Y-151068485D01*
X208498785Y-150614734D01*
X208498786Y-150612579D01*
X208568786Y-150612579D01*
X208756408Y-151066657D01*
X209103515Y-151414371D01*
X209557266Y-151602785D01*
X210048579Y-151603214D01*
X210502657Y-151415592D01*
X210850371Y-151068485D01*
X211038785Y-150614734D01*
X211038786Y-150612579D01*
X211108786Y-150612579D01*
X211296408Y-151066657D01*
X211643515Y-151414371D01*
X212097266Y-151602785D01*
X212588579Y-151603214D01*
X213042657Y-151415592D01*
X213390371Y-151068485D01*
X213578785Y-150614734D01*
X213578786Y-150612579D01*
X213648786Y-150612579D01*
X213836408Y-151066657D01*
X214183515Y-151414371D01*
X214637266Y-151602785D01*
X215128579Y-151603214D01*
X215582657Y-151415592D01*
X215930371Y-151068485D01*
X216118785Y-150614734D01*
X216118786Y-150612579D01*
X216188786Y-150612579D01*
X216376408Y-151066657D01*
X216723515Y-151414371D01*
X217177266Y-151602785D01*
X217668579Y-151603214D01*
X218122657Y-151415592D01*
X218470371Y-151068485D01*
X218658785Y-150614734D01*
X218658786Y-150612579D01*
X218728786Y-150612579D01*
X218916408Y-151066657D01*
X219263515Y-151414371D01*
X219717266Y-151602785D01*
X220208579Y-151603214D01*
X220662657Y-151415592D01*
X221010371Y-151068485D01*
X221198785Y-150614734D01*
X221198786Y-150612579D01*
X221268786Y-150612579D01*
X221456408Y-151066657D01*
X221803515Y-151414371D01*
X222257266Y-151602785D01*
X222748579Y-151603214D01*
X223202657Y-151415592D01*
X223550371Y-151068485D01*
X223738785Y-150614734D01*
X223738786Y-150612579D01*
X223808786Y-150612579D01*
X223996408Y-151066657D01*
X224343515Y-151414371D01*
X224797266Y-151602785D01*
X225288579Y-151603214D01*
X225742657Y-151415592D01*
X226090371Y-151068485D01*
X226278785Y-150614734D01*
X226278786Y-150612579D01*
X226348786Y-150612579D01*
X226536408Y-151066657D01*
X226883515Y-151414371D01*
X227337266Y-151602785D01*
X227828579Y-151603214D01*
X228282657Y-151415592D01*
X228630371Y-151068485D01*
X228818785Y-150614734D01*
X228818786Y-150612579D01*
X228888786Y-150612579D01*
X229076408Y-151066657D01*
X229423515Y-151414371D01*
X229877266Y-151602785D01*
X230368579Y-151603214D01*
X230822657Y-151415592D01*
X231170371Y-151068485D01*
X231358785Y-150614734D01*
X231358786Y-150612579D01*
X231428786Y-150612579D01*
X231616408Y-151066657D01*
X231963515Y-151414371D01*
X232417266Y-151602785D01*
X232908579Y-151603214D01*
X233362657Y-151415592D01*
X233710371Y-151068485D01*
X233898785Y-150614734D01*
X233899214Y-150123421D01*
X233711592Y-149669343D01*
X233364485Y-149321629D01*
X232910734Y-149133215D01*
X232419421Y-149132786D01*
X231965343Y-149320408D01*
X231617629Y-149667515D01*
X231429215Y-150121266D01*
X231428786Y-150612579D01*
X231358786Y-150612579D01*
X231359214Y-150123421D01*
X231171592Y-149669343D01*
X230824485Y-149321629D01*
X230370734Y-149133215D01*
X229879421Y-149132786D01*
X229425343Y-149320408D01*
X229077629Y-149667515D01*
X228889215Y-150121266D01*
X228888786Y-150612579D01*
X228818786Y-150612579D01*
X228819214Y-150123421D01*
X228631592Y-149669343D01*
X228284485Y-149321629D01*
X227830734Y-149133215D01*
X227339421Y-149132786D01*
X226885343Y-149320408D01*
X226537629Y-149667515D01*
X226349215Y-150121266D01*
X226348786Y-150612579D01*
X226278786Y-150612579D01*
X226279214Y-150123421D01*
X226091592Y-149669343D01*
X225744485Y-149321629D01*
X225290734Y-149133215D01*
X224799421Y-149132786D01*
X224345343Y-149320408D01*
X223997629Y-149667515D01*
X223809215Y-150121266D01*
X223808786Y-150612579D01*
X223738786Y-150612579D01*
X223739214Y-150123421D01*
X223551592Y-149669343D01*
X223204485Y-149321629D01*
X222750734Y-149133215D01*
X222259421Y-149132786D01*
X221805343Y-149320408D01*
X221457629Y-149667515D01*
X221269215Y-150121266D01*
X221268786Y-150612579D01*
X221198786Y-150612579D01*
X221199214Y-150123421D01*
X221011592Y-149669343D01*
X220664485Y-149321629D01*
X220210734Y-149133215D01*
X219719421Y-149132786D01*
X219265343Y-149320408D01*
X218917629Y-149667515D01*
X218729215Y-150121266D01*
X218728786Y-150612579D01*
X218658786Y-150612579D01*
X218659214Y-150123421D01*
X218471592Y-149669343D01*
X218124485Y-149321629D01*
X217670734Y-149133215D01*
X217179421Y-149132786D01*
X216725343Y-149320408D01*
X216377629Y-149667515D01*
X216189215Y-150121266D01*
X216188786Y-150612579D01*
X216118786Y-150612579D01*
X216119214Y-150123421D01*
X215931592Y-149669343D01*
X215584485Y-149321629D01*
X215130734Y-149133215D01*
X214639421Y-149132786D01*
X214185343Y-149320408D01*
X213837629Y-149667515D01*
X213649215Y-150121266D01*
X213648786Y-150612579D01*
X213578786Y-150612579D01*
X213579214Y-150123421D01*
X213391592Y-149669343D01*
X213044485Y-149321629D01*
X212590734Y-149133215D01*
X212099421Y-149132786D01*
X211645343Y-149320408D01*
X211297629Y-149667515D01*
X211109215Y-150121266D01*
X211108786Y-150612579D01*
X211038786Y-150612579D01*
X211039214Y-150123421D01*
X210851592Y-149669343D01*
X210504485Y-149321629D01*
X210050734Y-149133215D01*
X209559421Y-149132786D01*
X209105343Y-149320408D01*
X208757629Y-149667515D01*
X208569215Y-150121266D01*
X208568786Y-150612579D01*
X208498786Y-150612579D01*
X208499214Y-150123421D01*
X208311592Y-149669343D01*
X207964485Y-149321629D01*
X207510734Y-149133215D01*
X207034003Y-149132799D01*
X211383291Y-144783511D01*
X236341489Y-144783511D01*
X236632328Y-144725659D01*
X236878890Y-144560912D01*
X246536401Y-134903401D01*
X246701148Y-134656839D01*
X246759000Y-134366000D01*
X246759000Y-87405400D01*
X246701148Y-87114561D01*
X246536401Y-86867999D01*
X240157001Y-80488599D01*
X239910439Y-80323852D01*
X239901321Y-80322038D01*
X239890526Y-80267766D01*
X239565670Y-79781585D01*
X239079489Y-79456729D01*
X238506000Y-79342655D01*
X237932511Y-79456729D01*
X237446330Y-79781585D01*
X237236000Y-80096366D01*
X237025670Y-79781585D01*
X236539489Y-79456729D01*
X235966000Y-79342655D01*
X235392511Y-79456729D01*
X234906330Y-79781585D01*
X234696000Y-80096366D01*
X234485670Y-79781585D01*
X233999489Y-79456729D01*
X233642844Y-79385788D01*
X233678739Y-79378648D01*
X233925301Y-79213901D01*
X237377947Y-75761255D01*
X239547400Y-75761255D01*
X239547400Y-76130745D01*
X239661474Y-76704234D01*
X239986330Y-77190415D01*
X240024621Y-77216000D01*
X239986330Y-77241585D01*
X239661474Y-77727766D01*
X239547400Y-78301255D01*
X239547400Y-78670745D01*
X239661474Y-79244234D01*
X239986330Y-79730415D01*
X240472511Y-80055271D01*
X241046000Y-80169345D01*
X241619489Y-80055271D01*
X242105670Y-79730415D01*
X242430526Y-79244234D01*
X242544600Y-78670745D01*
X242544600Y-78301255D01*
X242430526Y-77727766D01*
X242105670Y-77241585D01*
X242067379Y-77216000D01*
X242105670Y-77190415D01*
X242430526Y-76704234D01*
X242544600Y-76130745D01*
X242544600Y-75761255D01*
X242430526Y-75187766D01*
X242105670Y-74701585D01*
X241619489Y-74376729D01*
X241046000Y-74262655D01*
X240472511Y-74376729D01*
X239986330Y-74701585D01*
X239661474Y-75187766D01*
X239547400Y-75761255D01*
X237377947Y-75761255D01*
X238125536Y-75013666D01*
X238506000Y-75089345D01*
X239079489Y-74975271D01*
X239565670Y-74650415D01*
X239890526Y-74164234D01*
X240004600Y-73590745D01*
X240004600Y-73221255D01*
X239890526Y-72647766D01*
X239565670Y-72161585D01*
X239079489Y-71836729D01*
X239045660Y-71830000D01*
X253290000Y-71830000D01*
X253290000Y-151690000D01*
X194455517Y-151690000D01*
X194731629Y-151414370D01*
X194944757Y-150901100D01*
X194945242Y-150345339D01*
X194733010Y-149831697D01*
X194340370Y-149438371D01*
X194132488Y-149352051D01*
X194338303Y-149267010D01*
X194731629Y-148874370D01*
X194944757Y-148361100D01*
X194945242Y-147805339D01*
X194733010Y-147291697D01*
X194340370Y-146898371D01*
X194132488Y-146812051D01*
X194338303Y-146727010D01*
X194731629Y-146334370D01*
X194944757Y-145821100D01*
X194945242Y-145265339D01*
X194733010Y-144751697D01*
X194340370Y-144358371D01*
X194132488Y-144272051D01*
X194338303Y-144187010D01*
X194731629Y-143794370D01*
X194944757Y-143281100D01*
X194945242Y-142725339D01*
X194733010Y-142211697D01*
X194340370Y-141818371D01*
X194132488Y-141732051D01*
X194338303Y-141647010D01*
X194731629Y-141254370D01*
X194944757Y-140741100D01*
X194945242Y-140185339D01*
X194733010Y-139671697D01*
X194340370Y-139278371D01*
X194132488Y-139192051D01*
X194338303Y-139107010D01*
X194731629Y-138714370D01*
X194944757Y-138201100D01*
X194945242Y-137645339D01*
X194733010Y-137131697D01*
X194340370Y-136738371D01*
X194132488Y-136652051D01*
X194338303Y-136567010D01*
X194731629Y-136174370D01*
X194944757Y-135661100D01*
X194945242Y-135105339D01*
X194733010Y-134591697D01*
X194340370Y-134198371D01*
X194132488Y-134112051D01*
X194338303Y-134027010D01*
X194731629Y-133634370D01*
X194944757Y-133121100D01*
X194945242Y-132565339D01*
X194733010Y-132051697D01*
X194340370Y-131658371D01*
X194132488Y-131572051D01*
X194338303Y-131487010D01*
X194731629Y-131094370D01*
X194944757Y-130581100D01*
X194945008Y-130292579D01*
X203488786Y-130292579D01*
X203676408Y-130746657D01*
X204023515Y-131094371D01*
X204477266Y-131282785D01*
X204968579Y-131283214D01*
X205422657Y-131095592D01*
X205770371Y-130748485D01*
X205958785Y-130294734D01*
X205958786Y-130292579D01*
X206028786Y-130292579D01*
X206216408Y-130746657D01*
X206563515Y-131094371D01*
X207017266Y-131282785D01*
X207508579Y-131283214D01*
X207962657Y-131095592D01*
X208310371Y-130748485D01*
X208498785Y-130294734D01*
X208498786Y-130292579D01*
X208568786Y-130292579D01*
X208756408Y-130746657D01*
X209103515Y-131094371D01*
X209557266Y-131282785D01*
X210048579Y-131283214D01*
X210502657Y-131095592D01*
X210850371Y-130748485D01*
X211038785Y-130294734D01*
X211038786Y-130292579D01*
X211108786Y-130292579D01*
X211296408Y-130746657D01*
X211643515Y-131094371D01*
X212097266Y-131282785D01*
X212588579Y-131283214D01*
X213042657Y-131095592D01*
X213390371Y-130748485D01*
X213578785Y-130294734D01*
X213578786Y-130292579D01*
X213648786Y-130292579D01*
X213836408Y-130746657D01*
X214183515Y-131094371D01*
X214637266Y-131282785D01*
X215128579Y-131283214D01*
X215582657Y-131095592D01*
X215930371Y-130748485D01*
X216118785Y-130294734D01*
X216118786Y-130292579D01*
X216188786Y-130292579D01*
X216376408Y-130746657D01*
X216723515Y-131094371D01*
X217177266Y-131282785D01*
X217668579Y-131283214D01*
X218122657Y-131095592D01*
X218470371Y-130748485D01*
X218658785Y-130294734D01*
X218658786Y-130292579D01*
X218728786Y-130292579D01*
X218916408Y-130746657D01*
X219263515Y-131094371D01*
X219717266Y-131282785D01*
X220208579Y-131283214D01*
X220662657Y-131095592D01*
X221010371Y-130748485D01*
X221198785Y-130294734D01*
X221198786Y-130292579D01*
X221268786Y-130292579D01*
X221456408Y-130746657D01*
X221803515Y-131094371D01*
X222257266Y-131282785D01*
X222748579Y-131283214D01*
X223202657Y-131095592D01*
X223550371Y-130748485D01*
X223738785Y-130294734D01*
X223738786Y-130292579D01*
X223808786Y-130292579D01*
X223996408Y-130746657D01*
X224343515Y-131094371D01*
X224797266Y-131282785D01*
X225288579Y-131283214D01*
X225742657Y-131095592D01*
X226090371Y-130748485D01*
X226278785Y-130294734D01*
X226278786Y-130292579D01*
X226348786Y-130292579D01*
X226536408Y-130746657D01*
X226883515Y-131094371D01*
X227337266Y-131282785D01*
X227828579Y-131283214D01*
X228282657Y-131095592D01*
X228630371Y-130748485D01*
X228818785Y-130294734D01*
X228818786Y-130292579D01*
X228888786Y-130292579D01*
X229076408Y-130746657D01*
X229423515Y-131094371D01*
X229877266Y-131282785D01*
X230368579Y-131283214D01*
X230822657Y-131095592D01*
X231170371Y-130748485D01*
X231358785Y-130294734D01*
X231358786Y-130292579D01*
X231428786Y-130292579D01*
X231616408Y-130746657D01*
X231963515Y-131094371D01*
X232417266Y-131282785D01*
X232908579Y-131283214D01*
X233362657Y-131095592D01*
X233547837Y-130910735D01*
X234520870Y-130910735D01*
X234570383Y-131136164D01*
X235035036Y-131295807D01*
X235525413Y-131265482D01*
X235837617Y-131136164D01*
X235887130Y-130910735D01*
X235204000Y-130227605D01*
X234520870Y-130910735D01*
X233547837Y-130910735D01*
X233710371Y-130748485D01*
X233898785Y-130294734D01*
X233899147Y-129879036D01*
X233956193Y-129879036D01*
X233986518Y-130369413D01*
X234115836Y-130681617D01*
X234341265Y-130731130D01*
X235024395Y-130048000D01*
X235383605Y-130048000D01*
X236066735Y-130731130D01*
X236292164Y-130681617D01*
X236451807Y-130216964D01*
X236421482Y-129726587D01*
X236292164Y-129414383D01*
X236066735Y-129364870D01*
X235383605Y-130048000D01*
X235024395Y-130048000D01*
X234341265Y-129364870D01*
X234115836Y-129414383D01*
X233956193Y-129879036D01*
X233899147Y-129879036D01*
X233899214Y-129803421D01*
X233711592Y-129349343D01*
X233547801Y-129185265D01*
X234520870Y-129185265D01*
X235204000Y-129868395D01*
X235887130Y-129185265D01*
X235837617Y-128959836D01*
X235372964Y-128800193D01*
X234882587Y-128830518D01*
X234570383Y-128959836D01*
X234520870Y-129185265D01*
X233547801Y-129185265D01*
X233364485Y-129001629D01*
X232910734Y-128813215D01*
X232419421Y-128812786D01*
X231965343Y-129000408D01*
X231617629Y-129347515D01*
X231429215Y-129801266D01*
X231428786Y-130292579D01*
X231358786Y-130292579D01*
X231359214Y-129803421D01*
X231171592Y-129349343D01*
X230824485Y-129001629D01*
X230370734Y-128813215D01*
X229879421Y-128812786D01*
X229425343Y-129000408D01*
X229077629Y-129347515D01*
X228889215Y-129801266D01*
X228888786Y-130292579D01*
X228818786Y-130292579D01*
X228819214Y-129803421D01*
X228631592Y-129349343D01*
X228284485Y-129001629D01*
X227830734Y-128813215D01*
X227339421Y-128812786D01*
X226885343Y-129000408D01*
X226537629Y-129347515D01*
X226349215Y-129801266D01*
X226348786Y-130292579D01*
X226278786Y-130292579D01*
X226279214Y-129803421D01*
X226091592Y-129349343D01*
X225744485Y-129001629D01*
X225290734Y-128813215D01*
X224799421Y-128812786D01*
X224345343Y-129000408D01*
X223997629Y-129347515D01*
X223809215Y-129801266D01*
X223808786Y-130292579D01*
X223738786Y-130292579D01*
X223739214Y-129803421D01*
X223551592Y-129349343D01*
X223204485Y-129001629D01*
X222750734Y-128813215D01*
X222259421Y-128812786D01*
X221805343Y-129000408D01*
X221457629Y-129347515D01*
X221269215Y-129801266D01*
X221268786Y-130292579D01*
X221198786Y-130292579D01*
X221199214Y-129803421D01*
X221011592Y-129349343D01*
X220664485Y-129001629D01*
X220210734Y-128813215D01*
X219719421Y-128812786D01*
X219265343Y-129000408D01*
X218917629Y-129347515D01*
X218729215Y-129801266D01*
X218728786Y-130292579D01*
X218658786Y-130292579D01*
X218659214Y-129803421D01*
X218471592Y-129349343D01*
X218124485Y-129001629D01*
X217670734Y-128813215D01*
X217179421Y-128812786D01*
X216725343Y-129000408D01*
X216377629Y-129347515D01*
X216189215Y-129801266D01*
X216188786Y-130292579D01*
X216118786Y-130292579D01*
X216119214Y-129803421D01*
X215931592Y-129349343D01*
X215584485Y-129001629D01*
X215130734Y-128813215D01*
X214639421Y-128812786D01*
X214185343Y-129000408D01*
X213837629Y-129347515D01*
X213649215Y-129801266D01*
X213648786Y-130292579D01*
X213578786Y-130292579D01*
X213579214Y-129803421D01*
X213391592Y-129349343D01*
X213044485Y-129001629D01*
X212590734Y-128813215D01*
X212099421Y-128812786D01*
X211645343Y-129000408D01*
X211297629Y-129347515D01*
X211109215Y-129801266D01*
X211108786Y-130292579D01*
X211038786Y-130292579D01*
X211039214Y-129803421D01*
X210851592Y-129349343D01*
X210504485Y-129001629D01*
X210050734Y-128813215D01*
X209559421Y-128812786D01*
X209105343Y-129000408D01*
X208757629Y-129347515D01*
X208569215Y-129801266D01*
X208568786Y-130292579D01*
X208498786Y-130292579D01*
X208499214Y-129803421D01*
X208311592Y-129349343D01*
X208024000Y-129061248D01*
X208024000Y-126292463D01*
X208056192Y-126260327D01*
X208198838Y-125916799D01*
X208199162Y-125544833D01*
X208057117Y-125201057D01*
X207794327Y-124937808D01*
X207450799Y-124795162D01*
X207078833Y-124794838D01*
X206735057Y-124936883D01*
X206471808Y-125199673D01*
X206329162Y-125543201D01*
X206328838Y-125915167D01*
X206470883Y-126258943D01*
X206504000Y-126292118D01*
X206504000Y-129061644D01*
X206217629Y-129347515D01*
X206029215Y-129801266D01*
X206028786Y-130292579D01*
X205958786Y-130292579D01*
X205959214Y-129803421D01*
X205771592Y-129349343D01*
X205424485Y-129001629D01*
X204970734Y-128813215D01*
X204479421Y-128812786D01*
X204025343Y-129000408D01*
X203677629Y-129347515D01*
X203489215Y-129801266D01*
X203488786Y-130292579D01*
X194945008Y-130292579D01*
X194945242Y-130025339D01*
X194733010Y-129511697D01*
X194340370Y-129118371D01*
X194132488Y-129032051D01*
X194338303Y-128947010D01*
X194731629Y-128554370D01*
X194944757Y-128041100D01*
X194945242Y-127485339D01*
X194733010Y-126971697D01*
X194340370Y-126578371D01*
X194132488Y-126492051D01*
X194338303Y-126407010D01*
X194731629Y-126014370D01*
X194944757Y-125501100D01*
X194945242Y-124945339D01*
X194733010Y-124431697D01*
X194340370Y-124038371D01*
X194132488Y-123952051D01*
X194338303Y-123867010D01*
X194484907Y-123720661D01*
X227710758Y-123720661D01*
X227922990Y-124234303D01*
X228315630Y-124627629D01*
X228828900Y-124840757D01*
X229384661Y-124841242D01*
X229898303Y-124629010D01*
X230103457Y-124424213D01*
X230847392Y-124424213D01*
X230916857Y-124666397D01*
X231440302Y-124853144D01*
X231995368Y-124825362D01*
X232379143Y-124666397D01*
X232448608Y-124424213D01*
X231648000Y-123623605D01*
X230847392Y-124424213D01*
X230103457Y-124424213D01*
X230291629Y-124236370D01*
X230371395Y-124044273D01*
X230425603Y-124175143D01*
X230667787Y-124244608D01*
X231468395Y-123444000D01*
X230667787Y-122643392D01*
X230425603Y-122712857D01*
X230375491Y-122853318D01*
X230293010Y-122653697D01*
X229900370Y-122260371D01*
X229387100Y-122047243D01*
X228831339Y-122046758D01*
X228317697Y-122258990D01*
X227924371Y-122651630D01*
X227711243Y-123164900D01*
X227710758Y-123720661D01*
X194484907Y-123720661D01*
X194731629Y-123474370D01*
X194944757Y-122961100D01*
X194945242Y-122405339D01*
X194733010Y-121891697D01*
X194340370Y-121498371D01*
X193827100Y-121285243D01*
X193271339Y-121284758D01*
X192757697Y-121496990D01*
X192364371Y-121889630D01*
X192151243Y-122402900D01*
X192150758Y-122958661D01*
X192362990Y-123472303D01*
X192755630Y-123865629D01*
X192963512Y-123951949D01*
X192757697Y-124036990D01*
X192364371Y-124429630D01*
X192151243Y-124942900D01*
X192150758Y-125498661D01*
X192362990Y-126012303D01*
X192755630Y-126405629D01*
X192963512Y-126491949D01*
X192757697Y-126576990D01*
X192364371Y-126969630D01*
X192151243Y-127482900D01*
X192150758Y-128038661D01*
X192164143Y-128071055D01*
X191455198Y-128780000D01*
X185855531Y-128780000D01*
X185843010Y-128749697D01*
X185450370Y-128356371D01*
X185242488Y-128270051D01*
X185448303Y-128185010D01*
X185841629Y-127792370D01*
X186054757Y-127279100D01*
X186055242Y-126723339D01*
X185843010Y-126209697D01*
X185450370Y-125816371D01*
X185242488Y-125730051D01*
X185448303Y-125645010D01*
X185841629Y-125252370D01*
X186054757Y-124739100D01*
X186055242Y-124183339D01*
X185843010Y-123669697D01*
X185450370Y-123276371D01*
X184937100Y-123063243D01*
X184381339Y-123062758D01*
X183867697Y-123274990D01*
X183474371Y-123667630D01*
X183261243Y-124180900D01*
X183260758Y-124736661D01*
X183472990Y-125250303D01*
X183865630Y-125643629D01*
X184073512Y-125729949D01*
X183867697Y-125814990D01*
X183474371Y-126207630D01*
X183261243Y-126720900D01*
X183260758Y-127276661D01*
X183472990Y-127790303D01*
X183865630Y-128183629D01*
X184073512Y-128269949D01*
X183867697Y-128354990D01*
X183474371Y-128747630D01*
X183261243Y-129260900D01*
X183260758Y-129816661D01*
X183472990Y-130330303D01*
X183865630Y-130723629D01*
X184378900Y-130936757D01*
X184934661Y-130937242D01*
X185448303Y-130725010D01*
X185841629Y-130332370D01*
X185855070Y-130300000D01*
X191770000Y-130300000D01*
X192060839Y-130242148D01*
X192151104Y-130181835D01*
X192150758Y-130578661D01*
X192362990Y-131092303D01*
X192755630Y-131485629D01*
X192963512Y-131571949D01*
X192757697Y-131656990D01*
X192364371Y-132049630D01*
X192151243Y-132562900D01*
X192150758Y-133118661D01*
X192362990Y-133632303D01*
X192755630Y-134025629D01*
X192963512Y-134111949D01*
X192757697Y-134196990D01*
X192364371Y-134589630D01*
X192262300Y-134835444D01*
X192248599Y-134844599D01*
X186054941Y-141038257D01*
X186055242Y-140693339D01*
X185843010Y-140179697D01*
X185450370Y-139786371D01*
X184937100Y-139573243D01*
X184381339Y-139572758D01*
X183867697Y-139784990D01*
X183474371Y-140177630D01*
X183261243Y-140690900D01*
X183260758Y-141246661D01*
X183472990Y-141760303D01*
X183865630Y-142153629D01*
X184073512Y-142239949D01*
X183867697Y-142324990D01*
X183474371Y-142717630D01*
X183261243Y-143230900D01*
X183260758Y-143786661D01*
X183472990Y-144300303D01*
X183865630Y-144693629D01*
X184073512Y-144779949D01*
X183867697Y-144864990D01*
X183474371Y-145257630D01*
X183261243Y-145770900D01*
X183260758Y-146326661D01*
X183472990Y-146840303D01*
X183865630Y-147233629D01*
X184378900Y-147446757D01*
X184934661Y-147447242D01*
X185448303Y-147235010D01*
X185841629Y-146842370D01*
X186054757Y-146329100D01*
X186055242Y-145773339D01*
X185843010Y-145259697D01*
X185450370Y-144866371D01*
X185242488Y-144780051D01*
X185448303Y-144695010D01*
X185841629Y-144302370D01*
X186054757Y-143789100D01*
X186055242Y-143233339D01*
X186041857Y-143200945D01*
X192716436Y-136526366D01*
X192755630Y-136565629D01*
X192963512Y-136651949D01*
X192757697Y-136736990D01*
X192364371Y-137129630D01*
X192151243Y-137642900D01*
X192150758Y-138198661D01*
X192362990Y-138712303D01*
X192755630Y-139105629D01*
X192963512Y-139191949D01*
X192757697Y-139276990D01*
X192364371Y-139669630D01*
X192151243Y-140182900D01*
X192150758Y-140738661D01*
X192362990Y-141252303D01*
X192755630Y-141645629D01*
X192963512Y-141731949D01*
X192757697Y-141816990D01*
X192364371Y-142209630D01*
X192151243Y-142722900D01*
X192150758Y-143278661D01*
X192362990Y-143792303D01*
X192755630Y-144185629D01*
X192963512Y-144271949D01*
X192757697Y-144356990D01*
X192364371Y-144749630D01*
X192151243Y-145262900D01*
X192150758Y-145818661D01*
X192362990Y-146332303D01*
X192755630Y-146725629D01*
X192963512Y-146811949D01*
X192757697Y-146896990D01*
X192364371Y-147289630D01*
X192151243Y-147802900D01*
X192150758Y-148358661D01*
X192362990Y-148872303D01*
X192755630Y-149265629D01*
X192963512Y-149351949D01*
X192757697Y-149436990D01*
X192364371Y-149829630D01*
X192151243Y-150342900D01*
X192150758Y-150898661D01*
X192362990Y-151412303D01*
X192640203Y-151690000D01*
X174135517Y-151690000D01*
X174411629Y-151414370D01*
X174624757Y-150901100D01*
X174625242Y-150345339D01*
X174413010Y-149831697D01*
X174020370Y-149438371D01*
X173812488Y-149352051D01*
X174018303Y-149267010D01*
X174411629Y-148874370D01*
X174624757Y-148361100D01*
X174625242Y-147805339D01*
X174413010Y-147291697D01*
X174020370Y-146898371D01*
X173812488Y-146812051D01*
X174018303Y-146727010D01*
X174411629Y-146334370D01*
X174624757Y-145821100D01*
X174625242Y-145265339D01*
X174413010Y-144751697D01*
X174020370Y-144358371D01*
X173812488Y-144272051D01*
X174018303Y-144187010D01*
X174411629Y-143794370D01*
X174624757Y-143281100D01*
X174625242Y-142725339D01*
X174413010Y-142211697D01*
X174020370Y-141818371D01*
X173812488Y-141732051D01*
X174018303Y-141647010D01*
X174411629Y-141254370D01*
X174624757Y-140741100D01*
X174625242Y-140185339D01*
X174413010Y-139671697D01*
X174020370Y-139278371D01*
X173812488Y-139192051D01*
X174018303Y-139107010D01*
X174411629Y-138714370D01*
X174624757Y-138201100D01*
X174625242Y-137645339D01*
X174413010Y-137131697D01*
X174020370Y-136738371D01*
X173812488Y-136652051D01*
X174018303Y-136567010D01*
X174411629Y-136174370D01*
X174624757Y-135661100D01*
X174625242Y-135105339D01*
X174413010Y-134591697D01*
X174020370Y-134198371D01*
X173812488Y-134112051D01*
X174018303Y-134027010D01*
X174411629Y-133634370D01*
X174624757Y-133121100D01*
X174625242Y-132565339D01*
X174413010Y-132051697D01*
X174020370Y-131658371D01*
X173812488Y-131572051D01*
X174018303Y-131487010D01*
X174411629Y-131094370D01*
X174624757Y-130581100D01*
X174625242Y-130025339D01*
X174413010Y-129511697D01*
X174020370Y-129118371D01*
X173812488Y-129032051D01*
X174018303Y-128947010D01*
X174411629Y-128554370D01*
X174624757Y-128041100D01*
X174625242Y-127485339D01*
X174413010Y-126971697D01*
X174020370Y-126578371D01*
X173812488Y-126492051D01*
X174018303Y-126407010D01*
X174411629Y-126014370D01*
X174624757Y-125501100D01*
X174625242Y-124945339D01*
X174413010Y-124431697D01*
X174020370Y-124038371D01*
X173812488Y-123952051D01*
X174018303Y-123867010D01*
X174411629Y-123474370D01*
X174624757Y-122961100D01*
X174625242Y-122405339D01*
X174413010Y-121891697D01*
X174020370Y-121498371D01*
X173507100Y-121285243D01*
X172951339Y-121284758D01*
X172437697Y-121496990D01*
X172180739Y-121753500D01*
X168618005Y-121753500D01*
X168618000Y-121753499D01*
X168262679Y-121824177D01*
X168262677Y-121824178D01*
X168262678Y-121824178D01*
X167961451Y-122025451D01*
X167961449Y-122025454D01*
X166923863Y-123063039D01*
X166601339Y-123062758D01*
X166087697Y-123274990D01*
X165694371Y-123667630D01*
X165481243Y-124180900D01*
X165480959Y-124505943D01*
X165428500Y-124558403D01*
X165428500Y-110644598D01*
X165442851Y-110630247D01*
X165442758Y-110736661D01*
X165654990Y-111250303D01*
X166047630Y-111643629D01*
X166255512Y-111729949D01*
X166049697Y-111814990D01*
X165656371Y-112207630D01*
X165443243Y-112720900D01*
X165442758Y-113276661D01*
X165654990Y-113790303D01*
X166047630Y-114183629D01*
X166560900Y-114396757D01*
X167116661Y-114397242D01*
X167630303Y-114185010D01*
X168023629Y-113792370D01*
X168236757Y-113279100D01*
X168237242Y-112723339D01*
X168025010Y-112209697D01*
X167632370Y-111816371D01*
X167424488Y-111730051D01*
X167630303Y-111645010D01*
X168023629Y-111252370D01*
X168236757Y-110739100D01*
X168237242Y-110183339D01*
X168025010Y-109669697D01*
X167632370Y-109276371D01*
X167424488Y-109190051D01*
X167630303Y-109105010D01*
X167887261Y-108848500D01*
X170273402Y-108848500D01*
X170291500Y-108866598D01*
X170291500Y-109412946D01*
X170036371Y-109667630D01*
X169823243Y-110180900D01*
X169822758Y-110736661D01*
X170034990Y-111250303D01*
X170427630Y-111643629D01*
X170635512Y-111729949D01*
X170429697Y-111814990D01*
X170036371Y-112207630D01*
X169823243Y-112720900D01*
X169822758Y-113276661D01*
X170034990Y-113790303D01*
X170427630Y-114183629D01*
X170635512Y-114269949D01*
X170429697Y-114354990D01*
X170036371Y-114747630D01*
X169823243Y-115260900D01*
X169822758Y-115816661D01*
X170034990Y-116330303D01*
X170427630Y-116723629D01*
X170940900Y-116936757D01*
X171496661Y-116937242D01*
X172010303Y-116725010D01*
X172403629Y-116332370D01*
X172616757Y-115819100D01*
X172617242Y-115263339D01*
X172405010Y-114749697D01*
X172012370Y-114356371D01*
X171804488Y-114270051D01*
X172010303Y-114185010D01*
X172403629Y-113792370D01*
X172616757Y-113279100D01*
X172617242Y-112723339D01*
X172405010Y-112209697D01*
X172012370Y-111816371D01*
X171804488Y-111730051D01*
X172010303Y-111645010D01*
X172403629Y-111252370D01*
X172616757Y-110739100D01*
X172617242Y-110183339D01*
X172405010Y-109669697D01*
X172148500Y-109412739D01*
X172148500Y-108482000D01*
X172077822Y-108126678D01*
X171876549Y-107825451D01*
X171314549Y-107263451D01*
X171013322Y-107062178D01*
X170954369Y-107050452D01*
X170658000Y-106991499D01*
X170657995Y-106991500D01*
X167887054Y-106991500D01*
X167632370Y-106736371D01*
X167119100Y-106523243D01*
X166563339Y-106522758D01*
X166049697Y-106734990D01*
X165656371Y-107127630D01*
X165443243Y-107640900D01*
X165442926Y-108003977D01*
X163843451Y-109603451D01*
X163775947Y-109704478D01*
X163579147Y-109409946D01*
X163249974Y-109190000D01*
X163579147Y-108970054D01*
X163901054Y-108488285D01*
X164014093Y-107920000D01*
X163901054Y-107351715D01*
X163579147Y-106869946D01*
X163097378Y-106548039D01*
X162529093Y-106435000D01*
X162470907Y-106435000D01*
X161902622Y-106548039D01*
X161420853Y-106869946D01*
X161098946Y-107351715D01*
X160985907Y-107920000D01*
X161098946Y-108488285D01*
X161420853Y-108970054D01*
X161750026Y-109190000D01*
X161420853Y-109409946D01*
X161098946Y-109891715D01*
X160985907Y-110460000D01*
X161098946Y-111028285D01*
X161420853Y-111510054D01*
X161462452Y-111537850D01*
X161414683Y-111546838D01*
X161198559Y-111685910D01*
X161053569Y-111898110D01*
X161002560Y-112150000D01*
X161002560Y-113850000D01*
X161046838Y-114085317D01*
X161185910Y-114301441D01*
X161398110Y-114446431D01*
X161650000Y-114497440D01*
X163350000Y-114497440D01*
X163571500Y-114455762D01*
X163571500Y-123808640D01*
X163325147Y-123439946D01*
X162843378Y-123118039D01*
X162275093Y-123005000D01*
X162216907Y-123005000D01*
X161648622Y-123118039D01*
X161166853Y-123439946D01*
X160844946Y-123921715D01*
X160731907Y-124490000D01*
X160844946Y-125058285D01*
X161166853Y-125540054D01*
X161496026Y-125760000D01*
X161166853Y-125979946D01*
X160844946Y-126461715D01*
X160731907Y-127030000D01*
X160844946Y-127598285D01*
X161166853Y-128080054D01*
X161208452Y-128107850D01*
X161160683Y-128116838D01*
X160944559Y-128255910D01*
X160799569Y-128468110D01*
X160748560Y-128720000D01*
X160748560Y-130420000D01*
X160792838Y-130655317D01*
X160931910Y-130871441D01*
X161144110Y-131016431D01*
X161396000Y-131067440D01*
X163096000Y-131067440D01*
X163331317Y-131023162D01*
X163547441Y-130884090D01*
X163571500Y-130848878D01*
X163571500Y-138591995D01*
X163571499Y-138592000D01*
X163608860Y-138779822D01*
X163642178Y-138947322D01*
X163747955Y-139105629D01*
X163843451Y-139248549D01*
X165481073Y-140886171D01*
X165480758Y-141246661D01*
X165692990Y-141760303D01*
X166085630Y-142153629D01*
X166293512Y-142239949D01*
X166087697Y-142324990D01*
X165694371Y-142717630D01*
X165481243Y-143230900D01*
X165480758Y-143786661D01*
X165692990Y-144300303D01*
X166085630Y-144693629D01*
X166293512Y-144779949D01*
X166087697Y-144864990D01*
X165694371Y-145257630D01*
X165481243Y-145770900D01*
X165480758Y-146326661D01*
X165692990Y-146840303D01*
X166085630Y-147233629D01*
X166598900Y-147446757D01*
X167154661Y-147447242D01*
X167668303Y-147235010D01*
X168061629Y-146842370D01*
X168274757Y-146329100D01*
X168275242Y-145773339D01*
X168063010Y-145259697D01*
X167670370Y-144866371D01*
X167462488Y-144780051D01*
X167668303Y-144695010D01*
X168061629Y-144302370D01*
X168274757Y-143789100D01*
X168275242Y-143233339D01*
X168063010Y-142719697D01*
X167670370Y-142326371D01*
X167462488Y-142240051D01*
X167668303Y-142155010D01*
X168061629Y-141762370D01*
X168274757Y-141249100D01*
X168275242Y-140693339D01*
X168063010Y-140179697D01*
X167670370Y-139786371D01*
X167157100Y-139573243D01*
X166794024Y-139572926D01*
X165428500Y-138207402D01*
X165428500Y-127184598D01*
X165480884Y-127132214D01*
X165480758Y-127276661D01*
X165692990Y-127790303D01*
X166085630Y-128183629D01*
X166293512Y-128269949D01*
X166087697Y-128354990D01*
X165694371Y-128747630D01*
X165481243Y-129260900D01*
X165480758Y-129816661D01*
X165692990Y-130330303D01*
X166085630Y-130723629D01*
X166598900Y-130936757D01*
X167154661Y-130937242D01*
X167668303Y-130725010D01*
X168061629Y-130332370D01*
X168274757Y-129819100D01*
X168275242Y-129263339D01*
X168063010Y-128749697D01*
X167670370Y-128356371D01*
X167462488Y-128270051D01*
X167668303Y-128185010D01*
X168061629Y-127792370D01*
X168274757Y-127279100D01*
X168275242Y-126723339D01*
X168063010Y-126209697D01*
X167670370Y-125816371D01*
X167462488Y-125730051D01*
X167668303Y-125645010D01*
X168061629Y-125252370D01*
X168274757Y-124739100D01*
X168275107Y-124337991D01*
X169002597Y-123610500D01*
X172180946Y-123610500D01*
X172435630Y-123865629D01*
X172643512Y-123951949D01*
X172437697Y-124036990D01*
X172044371Y-124429630D01*
X171831243Y-124942900D01*
X171830758Y-125498661D01*
X172042990Y-126012303D01*
X172435630Y-126405629D01*
X172643512Y-126491949D01*
X172437697Y-126576990D01*
X172044371Y-126969630D01*
X171831243Y-127482900D01*
X171830758Y-128038661D01*
X172042990Y-128552303D01*
X172435630Y-128945629D01*
X172643512Y-129031949D01*
X172437697Y-129116990D01*
X172044371Y-129509630D01*
X171831243Y-130022900D01*
X171830758Y-130578661D01*
X172042990Y-131092303D01*
X172435630Y-131485629D01*
X172643512Y-131571949D01*
X172437697Y-131656990D01*
X172044371Y-132049630D01*
X171831243Y-132562900D01*
X171830758Y-133118661D01*
X172042990Y-133632303D01*
X172435630Y-134025629D01*
X172643512Y-134111949D01*
X172437697Y-134196990D01*
X172044371Y-134589630D01*
X171831243Y-135102900D01*
X171830758Y-135658661D01*
X172042990Y-136172303D01*
X172435630Y-136565629D01*
X172643512Y-136651949D01*
X172437697Y-136736990D01*
X172044371Y-137129630D01*
X171831243Y-137642900D01*
X171830758Y-138198661D01*
X172042990Y-138712303D01*
X172435630Y-139105629D01*
X172643512Y-139191949D01*
X172437697Y-139276990D01*
X172044371Y-139669630D01*
X171831243Y-140182900D01*
X171830758Y-140738661D01*
X172042990Y-141252303D01*
X172435630Y-141645629D01*
X172643512Y-141731949D01*
X172437697Y-141816990D01*
X172044371Y-142209630D01*
X171831243Y-142722900D01*
X171830758Y-143278661D01*
X172042990Y-143792303D01*
X172435630Y-144185629D01*
X172643512Y-144271949D01*
X172437697Y-144356990D01*
X172044371Y-144749630D01*
X171831243Y-145262900D01*
X171830758Y-145818661D01*
X172042990Y-146332303D01*
X172435630Y-146725629D01*
X172643512Y-146811949D01*
X172437697Y-146896990D01*
X172044371Y-147289630D01*
X171831243Y-147802900D01*
X171830758Y-148358661D01*
X172042990Y-148872303D01*
X172435630Y-149265629D01*
X172643512Y-149351949D01*
X172437697Y-149436990D01*
X172044371Y-149829630D01*
X171831243Y-150342900D01*
X171830758Y-150898661D01*
X172042990Y-151412303D01*
X172320203Y-151690000D01*
X158190000Y-151690000D01*
X158190000Y-140970000D01*
X160731907Y-140970000D01*
X160844946Y-141538285D01*
X161166853Y-142020054D01*
X161496026Y-142240000D01*
X161166853Y-142459946D01*
X160844946Y-142941715D01*
X160731907Y-143510000D01*
X160844946Y-144078285D01*
X161166853Y-144560054D01*
X161208452Y-144587850D01*
X161160683Y-144596838D01*
X160944559Y-144735910D01*
X160799569Y-144948110D01*
X160748560Y-145200000D01*
X160748560Y-146900000D01*
X160792838Y-147135317D01*
X160931910Y-147351441D01*
X161144110Y-147496431D01*
X161396000Y-147547440D01*
X163096000Y-147547440D01*
X163331317Y-147503162D01*
X163547441Y-147364090D01*
X163692431Y-147151890D01*
X163743440Y-146900000D01*
X163743440Y-145200000D01*
X163699162Y-144964683D01*
X163560090Y-144748559D01*
X163347890Y-144603569D01*
X163280459Y-144589914D01*
X163325147Y-144560054D01*
X163647054Y-144078285D01*
X163760093Y-143510000D01*
X163647054Y-142941715D01*
X163325147Y-142459946D01*
X162995974Y-142240000D01*
X163325147Y-142020054D01*
X163647054Y-141538285D01*
X163760093Y-140970000D01*
X163647054Y-140401715D01*
X163325147Y-139919946D01*
X162843378Y-139598039D01*
X162275093Y-139485000D01*
X162216907Y-139485000D01*
X161648622Y-139598039D01*
X161166853Y-139919946D01*
X160844946Y-140401715D01*
X160731907Y-140970000D01*
X158190000Y-140970000D01*
X158190000Y-100576661D01*
X169822758Y-100576661D01*
X170034990Y-101090303D01*
X170427630Y-101483629D01*
X170635512Y-101569949D01*
X170429697Y-101654990D01*
X170036371Y-102047630D01*
X169823243Y-102560900D01*
X169822758Y-103116661D01*
X170034990Y-103630303D01*
X170427630Y-104023629D01*
X170635512Y-104109949D01*
X170429697Y-104194990D01*
X170036371Y-104587630D01*
X169823243Y-105100900D01*
X169822758Y-105656661D01*
X170034990Y-106170303D01*
X170427630Y-106563629D01*
X170940900Y-106776757D01*
X171496661Y-106777242D01*
X172010303Y-106565010D01*
X172403629Y-106172370D01*
X172616757Y-105659100D01*
X172617242Y-105103339D01*
X172405010Y-104589697D01*
X172012370Y-104196371D01*
X171804488Y-104110051D01*
X172010303Y-104025010D01*
X172403629Y-103632370D01*
X172616757Y-103119100D01*
X172617242Y-102563339D01*
X172405010Y-102049697D01*
X172012370Y-101656371D01*
X171804488Y-101570051D01*
X172010303Y-101485010D01*
X172403629Y-101092370D01*
X172616757Y-100579100D01*
X172617242Y-100023339D01*
X172405010Y-99509697D01*
X172012370Y-99116371D01*
X171499100Y-98903243D01*
X170943339Y-98902758D01*
X170429697Y-99114990D01*
X170036371Y-99507630D01*
X169823243Y-100020900D01*
X169822758Y-100576661D01*
X158190000Y-100576661D01*
X158190000Y-91380000D01*
X160985907Y-91380000D01*
X161098946Y-91948285D01*
X161420853Y-92430054D01*
X161750026Y-92650000D01*
X161420853Y-92869946D01*
X161098946Y-93351715D01*
X160985907Y-93920000D01*
X161098946Y-94488285D01*
X161420853Y-94970054D01*
X161462452Y-94997850D01*
X161414683Y-95006838D01*
X161198559Y-95145910D01*
X161053569Y-95358110D01*
X161002560Y-95610000D01*
X161002560Y-97310000D01*
X161046838Y-97545317D01*
X161185910Y-97761441D01*
X161398110Y-97906431D01*
X161650000Y-97957440D01*
X163350000Y-97957440D01*
X163585317Y-97913162D01*
X163801441Y-97774090D01*
X163946431Y-97561890D01*
X163997440Y-97310000D01*
X163997440Y-95610000D01*
X163953162Y-95374683D01*
X163814090Y-95158559D01*
X163601890Y-95013569D01*
X163534459Y-94999914D01*
X163579147Y-94970054D01*
X163901054Y-94488285D01*
X164014093Y-93920000D01*
X163901054Y-93351715D01*
X163579147Y-92869946D01*
X163249974Y-92650000D01*
X163579147Y-92430054D01*
X163901054Y-91948285D01*
X164014093Y-91380000D01*
X163901054Y-90811715D01*
X163579147Y-90329946D01*
X163097378Y-90008039D01*
X162529093Y-89895000D01*
X162470907Y-89895000D01*
X161902622Y-90008039D01*
X161420853Y-90329946D01*
X161098946Y-90811715D01*
X160985907Y-91380000D01*
X158190000Y-91380000D01*
X158190000Y-87407750D01*
X204509000Y-87407750D01*
X204509000Y-88098309D01*
X204605673Y-88331698D01*
X204784301Y-88510327D01*
X205017690Y-88607000D01*
X205708250Y-88607000D01*
X205867000Y-88448250D01*
X205867000Y-87249000D01*
X204667750Y-87249000D01*
X204509000Y-87407750D01*
X158190000Y-87407750D01*
X158190000Y-86145691D01*
X204509000Y-86145691D01*
X204509000Y-86836250D01*
X204667750Y-86995000D01*
X205867000Y-86995000D01*
X205867000Y-85795750D01*
X205708250Y-85637000D01*
X205017690Y-85637000D01*
X204784301Y-85733673D01*
X204605673Y-85912302D01*
X204509000Y-86145691D01*
X158190000Y-86145691D01*
X158190000Y-78771750D01*
X204509000Y-78771750D01*
X204509000Y-79462309D01*
X204605673Y-79695698D01*
X204784301Y-79874327D01*
X205017690Y-79971000D01*
X205708250Y-79971000D01*
X205867000Y-79812250D01*
X205867000Y-78613000D01*
X204667750Y-78613000D01*
X204509000Y-78771750D01*
X158190000Y-78771750D01*
X158190000Y-77509691D01*
X204509000Y-77509691D01*
X204509000Y-78200250D01*
X204667750Y-78359000D01*
X205867000Y-78359000D01*
X205867000Y-77159750D01*
X206121000Y-77159750D01*
X206121000Y-78359000D01*
X206141000Y-78359000D01*
X206141000Y-78613000D01*
X206121000Y-78613000D01*
X206121000Y-79812250D01*
X206279750Y-79971000D01*
X206970310Y-79971000D01*
X207203699Y-79874327D01*
X207382327Y-79695698D01*
X207454597Y-79521223D01*
X207483946Y-79565147D01*
X207965715Y-79887054D01*
X208534000Y-80000093D01*
X209102285Y-79887054D01*
X209584054Y-79565147D01*
X209804000Y-79235974D01*
X210023946Y-79565147D01*
X210505715Y-79887054D01*
X211074000Y-80000093D01*
X211642285Y-79887054D01*
X212124054Y-79565147D01*
X212344000Y-79235974D01*
X212563946Y-79565147D01*
X213045715Y-79887054D01*
X213614000Y-80000093D01*
X214182285Y-79887054D01*
X214664054Y-79565147D01*
X214884000Y-79235974D01*
X215103946Y-79565147D01*
X215585715Y-79887054D01*
X216154000Y-80000093D01*
X216722285Y-79887054D01*
X217204054Y-79565147D01*
X217525961Y-79083378D01*
X217639000Y-78515093D01*
X217639000Y-78456907D01*
X217525961Y-77888622D01*
X217204054Y-77406853D01*
X216722285Y-77084946D01*
X216154000Y-76971907D01*
X215585715Y-77084946D01*
X215103946Y-77406853D01*
X214884000Y-77736026D01*
X214664054Y-77406853D01*
X214182285Y-77084946D01*
X213614000Y-76971907D01*
X213045715Y-77084946D01*
X212563946Y-77406853D01*
X212344000Y-77736026D01*
X212124054Y-77406853D01*
X211642285Y-77084946D01*
X211074000Y-76971907D01*
X210505715Y-77084946D01*
X210023946Y-77406853D01*
X209804000Y-77736026D01*
X209584054Y-77406853D01*
X209102285Y-77084946D01*
X208534000Y-76971907D01*
X207965715Y-77084946D01*
X207483946Y-77406853D01*
X207454597Y-77450777D01*
X207382327Y-77276302D01*
X207203699Y-77097673D01*
X206970310Y-77001000D01*
X206279750Y-77001000D01*
X206121000Y-77159750D01*
X205867000Y-77159750D01*
X205708250Y-77001000D01*
X205017690Y-77001000D01*
X204784301Y-77097673D01*
X204605673Y-77276302D01*
X204509000Y-77509691D01*
X158190000Y-77509691D01*
X158190000Y-74463242D01*
X204450915Y-74463242D01*
X204450915Y-75153801D01*
X204547588Y-75387190D01*
X204726216Y-75565819D01*
X204959605Y-75662492D01*
X205650165Y-75662492D01*
X205808915Y-75503742D01*
X205808915Y-74304492D01*
X204609665Y-74304492D01*
X204450915Y-74463242D01*
X158190000Y-74463242D01*
X158190000Y-73201183D01*
X204450915Y-73201183D01*
X204450915Y-73891742D01*
X204609665Y-74050492D01*
X205808915Y-74050492D01*
X205808915Y-72851242D01*
X206062915Y-72851242D01*
X206062915Y-74050492D01*
X206082915Y-74050492D01*
X206082915Y-74304492D01*
X206062915Y-74304492D01*
X206062915Y-75503742D01*
X206221665Y-75662492D01*
X206912225Y-75662492D01*
X207145614Y-75565819D01*
X207324242Y-75387190D01*
X207396512Y-75212715D01*
X207425861Y-75256639D01*
X207907630Y-75578546D01*
X208475915Y-75691585D01*
X209044200Y-75578546D01*
X209525969Y-75256639D01*
X209745915Y-74927466D01*
X209965861Y-75256639D01*
X210447630Y-75578546D01*
X211015915Y-75691585D01*
X211584200Y-75578546D01*
X212065969Y-75256639D01*
X212285915Y-74927466D01*
X212505861Y-75256639D01*
X212987630Y-75578546D01*
X213555915Y-75691585D01*
X214124200Y-75578546D01*
X214605969Y-75256639D01*
X214825915Y-74927466D01*
X215045861Y-75256639D01*
X215527630Y-75578546D01*
X216095915Y-75691585D01*
X216664200Y-75578546D01*
X217145969Y-75256639D01*
X217467876Y-74774870D01*
X217580915Y-74206585D01*
X217580915Y-74148399D01*
X217467876Y-73580114D01*
X217145969Y-73098345D01*
X216664200Y-72776438D01*
X216095915Y-72663399D01*
X215527630Y-72776438D01*
X215045861Y-73098345D01*
X214825915Y-73427518D01*
X214605969Y-73098345D01*
X214124200Y-72776438D01*
X213555915Y-72663399D01*
X212987630Y-72776438D01*
X212505861Y-73098345D01*
X212285915Y-73427518D01*
X212065969Y-73098345D01*
X211584200Y-72776438D01*
X211015915Y-72663399D01*
X210447630Y-72776438D01*
X209965861Y-73098345D01*
X209745915Y-73427518D01*
X209525969Y-73098345D01*
X209044200Y-72776438D01*
X208475915Y-72663399D01*
X207907630Y-72776438D01*
X207425861Y-73098345D01*
X207396512Y-73142269D01*
X207324242Y-72967794D01*
X207145614Y-72789165D01*
X206912225Y-72692492D01*
X206221665Y-72692492D01*
X206062915Y-72851242D01*
X205808915Y-72851242D01*
X205650165Y-72692492D01*
X204959605Y-72692492D01*
X204726216Y-72789165D01*
X204547588Y-72967794D01*
X204450915Y-73201183D01*
X158190000Y-73201183D01*
X158190000Y-71830000D01*
X232886340Y-71830000D01*
X232852511Y-71836729D01*
G36*
X236093000Y-73279000D02*
X236113000Y-73279000D01*
X236113000Y-73533000D01*
X236093000Y-73533000D01*
X236093000Y-73553000D01*
X235839000Y-73553000D01*
X235839000Y-73533000D01*
X235819000Y-73533000D01*
X235819000Y-73279000D01*
X235839000Y-73279000D01*
X235839000Y-73259000D01*
X236093000Y-73259000D01*
X236093000Y-73279000D01*
X236093000Y-73279000D01*
G37*
X236093000Y-73279000D02*
X236113000Y-73279000D01*
X236113000Y-73533000D01*
X236093000Y-73533000D01*
X236093000Y-73553000D01*
X235839000Y-73553000D01*
X235839000Y-73533000D01*
X235819000Y-73533000D01*
X235819000Y-73279000D01*
X235839000Y-73279000D01*
X235839000Y-73259000D01*
X236093000Y-73259000D01*
X236093000Y-73279000D01*
M02*
