M48
;DRILL file {KiCad 4.0.4-stable} date Tuesday, January 24, 2017 'PMt' 03:04:47 PM
;FORMAT={-:-/ absolute / inch / decimal}
FMAT,2
INCH,TZ
T1C0.031
T2C0.039
T3C0.040
%
G90
G05
M72
T1
X3.75Y-1.3
X4.05Y-1.3
X4.45Y-1.3
X4.75Y-1.3
T2
X3.8Y-1.8
X3.9Y-1.8
X4.Y-1.8
X4.5Y-1.8
X4.6Y-1.8
X4.7Y-1.8
T3
X3.3Y-1.5
X3.3Y-1.6
X3.3Y-1.7
X3.3Y-1.8
X3.3Y-2.5
X3.3Y-3.3
X3.4Y-2.5
X3.4Y-3.3
X3.5Y-2.2
X3.5Y-2.5
X3.5Y-3.3
X3.6Y-2.2
X3.6Y-2.5
X3.6Y-3.3
X3.7Y-2.2
X3.7Y-2.5
X3.7Y-3.3
X3.7Y-3.9
X3.7Y-4.
X3.8Y-2.2
X3.8Y-2.5
X3.8Y-3.3
X3.8Y-3.8
X3.8Y-4.1
X3.9Y-2.5
X3.9Y-3.3
X3.9Y-3.8
X3.9Y-4.1
X4.Y-2.5
X4.Y-3.3
X4.Y-3.8
X4.Y-4.1
X4.1Y-2.5
X4.1Y-3.3
X4.2Y-2.5
X4.2Y-3.3
X4.3Y-2.5
X4.3Y-3.3
X4.4Y-2.5
X4.4Y-3.3
X4.5Y-2.5
X4.6Y-2.5
X4.7Y-2.5
X4.8Y-2.5
X5.2Y-2.1
X5.3Y-2.1
X5.4Y-2.1
X5.5Y-2.1
X6.9Y-1.5
X6.9Y-2.9
X7.Y-1.5
X7.Y-2.9
T0
M30
