G04 #@! TF.FileFunction,Copper,L2,Bot,Signal*
%FSLAX46Y46*%
G04 Gerber Fmt 4.6, Leading zero omitted, Abs format (unit mm)*
G04 Created by KiCad (PCBNEW 4.0.5) date 03/13/17 09:40:11*
%MOMM*%
%LPD*%
G01*
G04 APERTURE LIST*
%ADD10C,0.100000*%
%ADD11O,2.032000X1.727200*%
%ADD12R,1.700000X1.200000*%
%ADD13O,1.700000X1.200000*%
%ADD14C,1.200000*%
%ADD15C,1.524000*%
%ADD16R,1.700000X1.700000*%
%ADD17O,1.700000X1.700000*%
%ADD18C,1.600000*%
%ADD19O,1.600000X1.600000*%
%ADD20C,0.600000*%
%ADD21C,0.800000*%
%ADD22C,0.250000*%
%ADD23C,0.203000*%
%ADD24C,0.254000*%
G04 APERTURE END LIST*
D10*
D11*
X59620000Y-64920000D03*
X59620000Y-67460000D03*
X59620000Y-70000000D03*
X57080000Y-62380000D03*
X54540000Y-62380000D03*
X52000000Y-64920000D03*
X52000000Y-67460000D03*
X52000000Y-70000000D03*
D12*
X53000000Y-145500000D03*
D13*
X53000000Y-143500000D03*
X53000000Y-141500000D03*
X53000000Y-139500000D03*
D14*
X82670000Y-141240000D03*
X82670000Y-138700000D03*
X82670000Y-136160000D03*
X82670000Y-133620000D03*
X62350000Y-131080000D03*
X82670000Y-131080000D03*
X62350000Y-128540000D03*
X82670000Y-128540000D03*
X62350000Y-126000000D03*
X82670000Y-126000000D03*
X62350000Y-123460000D03*
X82670000Y-123460000D03*
X62350000Y-120920000D03*
X82670000Y-120920000D03*
X62350000Y-118380000D03*
X82670000Y-118380000D03*
X62350000Y-115840000D03*
X82670000Y-115840000D03*
X62350000Y-113300000D03*
X82670000Y-113300000D03*
X62350000Y-110760000D03*
X82670000Y-110760000D03*
X62350000Y-108220000D03*
X82670000Y-108220000D03*
X62350000Y-105680000D03*
X82670000Y-105680000D03*
X62350000Y-103140000D03*
X82670000Y-103140000D03*
D15*
X65000000Y-74660000D03*
X65000000Y-72120000D03*
X100560000Y-72120000D03*
X100560000Y-74660000D03*
D14*
X109160000Y-141250000D03*
X109160000Y-138710000D03*
X109160000Y-136170000D03*
X109160000Y-133630000D03*
X88840000Y-131090000D03*
X109160000Y-131090000D03*
X88840000Y-128550000D03*
X109160000Y-128550000D03*
X88840000Y-126010000D03*
X109160000Y-126010000D03*
X88840000Y-123470000D03*
X109160000Y-123470000D03*
X88840000Y-120930000D03*
X109160000Y-120930000D03*
X88840000Y-118390000D03*
X109160000Y-118390000D03*
X88840000Y-115850000D03*
X109160000Y-115850000D03*
X88840000Y-113310000D03*
X109160000Y-113310000D03*
X88840000Y-110770000D03*
X109160000Y-110770000D03*
X88840000Y-108230000D03*
X109160000Y-108230000D03*
X88840000Y-105690000D03*
X109160000Y-105690000D03*
X88840000Y-103150000D03*
X109160000Y-103150000D03*
D16*
X109000000Y-54420000D03*
D17*
X109000000Y-56960000D03*
X109000000Y-59500000D03*
X109000000Y-62040000D03*
X109000000Y-64580000D03*
D18*
X85750000Y-136620000D03*
D19*
X85750000Y-129000000D03*
D14*
X55500000Y-125250000D03*
X55500000Y-127790000D03*
X55500000Y-130330000D03*
X55500000Y-132870000D03*
D15*
X55540000Y-84500000D03*
X55540000Y-87040000D03*
X55540000Y-89580000D03*
X55540000Y-97200000D03*
X55540000Y-94660000D03*
X55540000Y-92120000D03*
X55540000Y-102280000D03*
X55540000Y-104820000D03*
X55540000Y-107360000D03*
X55540000Y-112440000D03*
X55540000Y-114980000D03*
X103800000Y-84500000D03*
X103800000Y-87040000D03*
X103800000Y-89580000D03*
X103800000Y-92120000D03*
X103800000Y-94660000D03*
X103800000Y-97200000D03*
X103800000Y-99740000D03*
X103800000Y-102280000D03*
X103800000Y-106344000D03*
X103800000Y-108884000D03*
X103800000Y-111424000D03*
X103800000Y-113964000D03*
X103800000Y-116504000D03*
X103800000Y-119044000D03*
X103800000Y-121584000D03*
X103800000Y-124124000D03*
X55540000Y-109900000D03*
X103800000Y-126664000D03*
X103800000Y-129204000D03*
X55540000Y-117520000D03*
X55540000Y-120060000D03*
D16*
X109000000Y-81750000D03*
D17*
X109000000Y-79210000D03*
X109000000Y-76670000D03*
D16*
X57000000Y-53000000D03*
D17*
X59540000Y-53000000D03*
D20*
X77910000Y-100750000D03*
X76500000Y-100750000D03*
X106000000Y-70000000D03*
X82323762Y-98500000D03*
X96699990Y-112392040D03*
X95600000Y-113800000D03*
X84250000Y-114500000D03*
D21*
X57072400Y-62380000D02*
X56920000Y-62380000D01*
X82638002Y-100750000D02*
X76500000Y-100750000D01*
X85750000Y-103861998D02*
X82638002Y-100750000D01*
X85750000Y-122920000D02*
X85750000Y-103861998D01*
X88840000Y-126010000D02*
X85750000Y-122920000D01*
X50750000Y-140900000D02*
X50750000Y-130000000D01*
X50750000Y-130000000D02*
X51149990Y-129600010D01*
X53000000Y-141500000D02*
X51350000Y-141500000D01*
X51350000Y-141500000D02*
X50750000Y-140900000D01*
X51149990Y-129600010D02*
X55500000Y-125250000D01*
D22*
X62350000Y-118380000D02*
X57799999Y-122930001D01*
X57799999Y-122930001D02*
X57799999Y-142450001D01*
X57799999Y-142450001D02*
X54750000Y-145500000D01*
X54750000Y-145500000D02*
X53000000Y-145500000D01*
X53250000Y-145500000D02*
X53000000Y-145500000D01*
X53000000Y-143500000D02*
X55250000Y-143500000D01*
X55250000Y-143500000D02*
X56949988Y-141800012D01*
X56949988Y-121240012D02*
X56949988Y-141800012D01*
X62350000Y-115840000D02*
X56949988Y-121240012D01*
X99625011Y-129750000D02*
X99625011Y-109976004D01*
X108000000Y-132250000D02*
X102125011Y-132250000D01*
X102125011Y-132250000D02*
X99625011Y-129750000D01*
X109160000Y-131090000D02*
X108000000Y-132250000D01*
X99625011Y-109976004D02*
X86849007Y-97200000D01*
X86849007Y-97200000D02*
X56617630Y-97200000D01*
X56617630Y-97200000D02*
X55540000Y-97200000D01*
X102750000Y-131250000D02*
X106460000Y-131250000D01*
X106460000Y-131250000D02*
X109160000Y-128550000D01*
X100475022Y-128975022D02*
X102750000Y-131250000D01*
X100475022Y-127750000D02*
X100475022Y-109623918D01*
X100475022Y-127750000D02*
X100475022Y-128975022D01*
X85511104Y-94660000D02*
X56617630Y-94660000D01*
X56617630Y-94660000D02*
X55540000Y-94660000D01*
X100475022Y-109623918D02*
X85511104Y-94660000D01*
D21*
X82323762Y-98500000D02*
X59320000Y-98500000D01*
X82323762Y-98500000D02*
X86558002Y-98500000D01*
X86558002Y-98500000D02*
X98500000Y-110441998D01*
X98500000Y-110441998D02*
X98500000Y-133675604D01*
X98500000Y-133675604D02*
X103534396Y-138710000D01*
X103534396Y-138710000D02*
X109160000Y-138710000D01*
D22*
X109000000Y-73000000D02*
X106000000Y-70000000D01*
X109000000Y-76670000D02*
X109000000Y-73000000D01*
D23*
X109000000Y-76500000D02*
X109000000Y-76670000D01*
D21*
X55540000Y-102280000D02*
X57302001Y-104042001D01*
X57302001Y-110677999D02*
X56301999Y-111678001D01*
X57302001Y-104042001D02*
X57302001Y-110677999D01*
X56301999Y-111678001D02*
X55540000Y-112440000D01*
D22*
X109160000Y-138710000D02*
X110485001Y-137384999D01*
X110485001Y-137384999D02*
X110485001Y-124795001D01*
X110485001Y-124795001D02*
X109759999Y-124069999D01*
X109759999Y-124069999D02*
X109160000Y-123470000D01*
D21*
X55540000Y-102280000D02*
X59320000Y-98500000D01*
D22*
X55462370Y-112440000D02*
X55052999Y-112030629D01*
X96699990Y-111967776D02*
X96699990Y-112392040D01*
X88840000Y-103150000D02*
X96699990Y-111009990D01*
X96699990Y-111009990D02*
X96699990Y-111967776D01*
X88840000Y-105690000D02*
X95600000Y-112450000D01*
X95600000Y-112450000D02*
X95600000Y-113800000D01*
X84250000Y-108250000D02*
X84250000Y-114500000D01*
X82670000Y-105680000D02*
X84250000Y-107260000D01*
X84250000Y-107260000D02*
X84250000Y-108250000D01*
D24*
G36*
X111594800Y-149594800D02*
X50405200Y-149594800D01*
X50405200Y-141724754D01*
X50765223Y-142084777D01*
X51033521Y-142264048D01*
X51350000Y-142327000D01*
X52149643Y-142327000D01*
X52331966Y-142448824D01*
X52589244Y-142500000D01*
X52331966Y-142551176D01*
X51998783Y-142773801D01*
X51776158Y-143106984D01*
X51697982Y-143500000D01*
X51776158Y-143893016D01*
X51998783Y-144226199D01*
X52331966Y-144448824D01*
X52411453Y-144464635D01*
X52150000Y-144464635D01*
X51991763Y-144494409D01*
X51846433Y-144587927D01*
X51748936Y-144730619D01*
X51714635Y-144900000D01*
X51714635Y-146100000D01*
X51744409Y-146258237D01*
X51837927Y-146403567D01*
X51980619Y-146501064D01*
X52150000Y-146535365D01*
X53850000Y-146535365D01*
X54008237Y-146505591D01*
X54153567Y-146412073D01*
X54251064Y-146269381D01*
X54285365Y-146100000D01*
X54285365Y-146052000D01*
X54750000Y-146052000D01*
X54961242Y-146009982D01*
X55140323Y-145890323D01*
X58190322Y-142840324D01*
X58309981Y-142661243D01*
X58351999Y-142450001D01*
X58351999Y-141443387D01*
X81642822Y-141443387D01*
X81798844Y-141820989D01*
X82087492Y-142110140D01*
X82464821Y-142266821D01*
X82873387Y-142267178D01*
X83250989Y-142111156D01*
X83540140Y-141822508D01*
X83693412Y-141453387D01*
X108132822Y-141453387D01*
X108288844Y-141830989D01*
X108577492Y-142120140D01*
X108954821Y-142276821D01*
X109363387Y-142277178D01*
X109740989Y-142121156D01*
X110030140Y-141832508D01*
X110186821Y-141455179D01*
X110187178Y-141046613D01*
X110031156Y-140669011D01*
X109742508Y-140379860D01*
X109365179Y-140223179D01*
X108956613Y-140222822D01*
X108579011Y-140378844D01*
X108289860Y-140667492D01*
X108133179Y-141044821D01*
X108132822Y-141453387D01*
X83693412Y-141453387D01*
X83696821Y-141445179D01*
X83697178Y-141036613D01*
X83541156Y-140659011D01*
X83252508Y-140369860D01*
X82875179Y-140213179D01*
X82466613Y-140212822D01*
X82089011Y-140368844D01*
X81799860Y-140657492D01*
X81643179Y-141034821D01*
X81642822Y-141443387D01*
X58351999Y-141443387D01*
X58351999Y-138903387D01*
X81642822Y-138903387D01*
X81798844Y-139280989D01*
X82087492Y-139570140D01*
X82464821Y-139726821D01*
X82873387Y-139727178D01*
X83250989Y-139571156D01*
X83540140Y-139282508D01*
X83696821Y-138905179D01*
X83697178Y-138496613D01*
X83541156Y-138119011D01*
X83252508Y-137829860D01*
X82875179Y-137673179D01*
X82466613Y-137672822D01*
X82089011Y-137828844D01*
X81799860Y-138117492D01*
X81643179Y-138494821D01*
X81642822Y-138903387D01*
X58351999Y-138903387D01*
X58351999Y-137627745D01*
X84921861Y-137627745D01*
X84995995Y-137873864D01*
X85533223Y-138066965D01*
X86103454Y-138039778D01*
X86504005Y-137873864D01*
X86578139Y-137627745D01*
X85750000Y-136799605D01*
X84921861Y-137627745D01*
X58351999Y-137627745D01*
X58351999Y-136363387D01*
X81642822Y-136363387D01*
X81798844Y-136740989D01*
X82087492Y-137030140D01*
X82464821Y-137186821D01*
X82873387Y-137187178D01*
X83250989Y-137031156D01*
X83540140Y-136742508D01*
X83681023Y-136403223D01*
X84303035Y-136403223D01*
X84330222Y-136973454D01*
X84496136Y-137374005D01*
X84742255Y-137448139D01*
X85570395Y-136620000D01*
X85929605Y-136620000D01*
X86757745Y-137448139D01*
X87003864Y-137374005D01*
X87196965Y-136836777D01*
X87169778Y-136266546D01*
X87003864Y-135865995D01*
X86757745Y-135791861D01*
X85929605Y-136620000D01*
X85570395Y-136620000D01*
X84742255Y-135791861D01*
X84496136Y-135865995D01*
X84303035Y-136403223D01*
X83681023Y-136403223D01*
X83696821Y-136365179D01*
X83697178Y-135956613D01*
X83554893Y-135612255D01*
X84921861Y-135612255D01*
X85750000Y-136440395D01*
X86578139Y-135612255D01*
X86504005Y-135366136D01*
X85966777Y-135173035D01*
X85396546Y-135200222D01*
X84995995Y-135366136D01*
X84921861Y-135612255D01*
X83554893Y-135612255D01*
X83541156Y-135579011D01*
X83252508Y-135289860D01*
X82875179Y-135133179D01*
X82466613Y-135132822D01*
X82089011Y-135288844D01*
X81799860Y-135577492D01*
X81643179Y-135954821D01*
X81642822Y-136363387D01*
X58351999Y-136363387D01*
X58351999Y-134482735D01*
X81986870Y-134482735D01*
X82036383Y-134708164D01*
X82501036Y-134867807D01*
X82991413Y-134837482D01*
X83303617Y-134708164D01*
X83353130Y-134482735D01*
X82670000Y-133799605D01*
X81986870Y-134482735D01*
X58351999Y-134482735D01*
X58351999Y-133451036D01*
X81422193Y-133451036D01*
X81452518Y-133941413D01*
X81581836Y-134253617D01*
X81807265Y-134303130D01*
X82490395Y-133620000D01*
X82849605Y-133620000D01*
X83532735Y-134303130D01*
X83758164Y-134253617D01*
X83917807Y-133788964D01*
X83887482Y-133298587D01*
X83758164Y-132986383D01*
X83532735Y-132936870D01*
X82849605Y-133620000D01*
X82490395Y-133620000D01*
X81807265Y-132936870D01*
X81581836Y-132986383D01*
X81422193Y-133451036D01*
X58351999Y-133451036D01*
X58351999Y-132757265D01*
X81986870Y-132757265D01*
X82670000Y-133440395D01*
X83353130Y-132757265D01*
X83303617Y-132531836D01*
X82838964Y-132372193D01*
X82348587Y-132402518D01*
X82036383Y-132531836D01*
X81986870Y-132757265D01*
X58351999Y-132757265D01*
X58351999Y-131283387D01*
X61322822Y-131283387D01*
X61478844Y-131660989D01*
X61767492Y-131950140D01*
X62144821Y-132106821D01*
X62553387Y-132107178D01*
X62930989Y-131951156D01*
X63220140Y-131662508D01*
X63376821Y-131285179D01*
X63376822Y-131283387D01*
X81642822Y-131283387D01*
X81798844Y-131660989D01*
X82087492Y-131950140D01*
X82464821Y-132106821D01*
X82873387Y-132107178D01*
X83250989Y-131951156D01*
X83540140Y-131662508D01*
X83693412Y-131293387D01*
X87812822Y-131293387D01*
X87968844Y-131670989D01*
X88257492Y-131960140D01*
X88634821Y-132116821D01*
X89043387Y-132117178D01*
X89420989Y-131961156D01*
X89710140Y-131672508D01*
X89866821Y-131295179D01*
X89867178Y-130886613D01*
X89711156Y-130509011D01*
X89422508Y-130219860D01*
X89045179Y-130063179D01*
X88636613Y-130062822D01*
X88259011Y-130218844D01*
X87969860Y-130507492D01*
X87813179Y-130884821D01*
X87812822Y-131293387D01*
X83693412Y-131293387D01*
X83696821Y-131285179D01*
X83697178Y-130876613D01*
X83541156Y-130499011D01*
X83252508Y-130209860D01*
X82875179Y-130053179D01*
X82466613Y-130052822D01*
X82089011Y-130208844D01*
X81799860Y-130497492D01*
X81643179Y-130874821D01*
X81642822Y-131283387D01*
X63376822Y-131283387D01*
X63377178Y-130876613D01*
X63221156Y-130499011D01*
X62932508Y-130209860D01*
X62555179Y-130053179D01*
X62146613Y-130052822D01*
X61769011Y-130208844D01*
X61479860Y-130497492D01*
X61323179Y-130874821D01*
X61322822Y-131283387D01*
X58351999Y-131283387D01*
X58351999Y-128743387D01*
X61322822Y-128743387D01*
X61478844Y-129120989D01*
X61767492Y-129410140D01*
X62144821Y-129566821D01*
X62553387Y-129567178D01*
X62930989Y-129411156D01*
X63220140Y-129122508D01*
X63376821Y-128745179D01*
X63376822Y-128743387D01*
X81642822Y-128743387D01*
X81798844Y-129120989D01*
X82087492Y-129410140D01*
X82464821Y-129566821D01*
X82873387Y-129567178D01*
X83250989Y-129411156D01*
X83540140Y-129122508D01*
X83600991Y-128975962D01*
X84523000Y-128975962D01*
X84523000Y-129024038D01*
X84616400Y-129493591D01*
X84882380Y-129891658D01*
X85280447Y-130157638D01*
X85750000Y-130251038D01*
X86219553Y-130157638D01*
X86617620Y-129891658D01*
X86883600Y-129493591D01*
X86977000Y-129024038D01*
X86977000Y-128975962D01*
X86932728Y-128753387D01*
X87812822Y-128753387D01*
X87968844Y-129130989D01*
X88257492Y-129420140D01*
X88634821Y-129576821D01*
X89043387Y-129577178D01*
X89420989Y-129421156D01*
X89710140Y-129132508D01*
X89866821Y-128755179D01*
X89867178Y-128346613D01*
X89711156Y-127969011D01*
X89422508Y-127679860D01*
X89045179Y-127523179D01*
X88636613Y-127522822D01*
X88259011Y-127678844D01*
X87969860Y-127967492D01*
X87813179Y-128344821D01*
X87812822Y-128753387D01*
X86932728Y-128753387D01*
X86883600Y-128506409D01*
X86617620Y-128108342D01*
X86219553Y-127842362D01*
X85750000Y-127748962D01*
X85280447Y-127842362D01*
X84882380Y-128108342D01*
X84616400Y-128506409D01*
X84523000Y-128975962D01*
X83600991Y-128975962D01*
X83696821Y-128745179D01*
X83697178Y-128336613D01*
X83541156Y-127959011D01*
X83252508Y-127669860D01*
X82875179Y-127513179D01*
X82466613Y-127512822D01*
X82089011Y-127668844D01*
X81799860Y-127957492D01*
X81643179Y-128334821D01*
X81642822Y-128743387D01*
X63376822Y-128743387D01*
X63377178Y-128336613D01*
X63221156Y-127959011D01*
X62932508Y-127669860D01*
X62555179Y-127513179D01*
X62146613Y-127512822D01*
X61769011Y-127668844D01*
X61479860Y-127957492D01*
X61323179Y-128334821D01*
X61322822Y-128743387D01*
X58351999Y-128743387D01*
X58351999Y-126203387D01*
X61322822Y-126203387D01*
X61478844Y-126580989D01*
X61767492Y-126870140D01*
X62144821Y-127026821D01*
X62553387Y-127027178D01*
X62930989Y-126871156D01*
X63220140Y-126582508D01*
X63376821Y-126205179D01*
X63376822Y-126203387D01*
X81642822Y-126203387D01*
X81798844Y-126580989D01*
X82087492Y-126870140D01*
X82464821Y-127026821D01*
X82873387Y-127027178D01*
X83250989Y-126871156D01*
X83540140Y-126582508D01*
X83696821Y-126205179D01*
X83697178Y-125796613D01*
X83541156Y-125419011D01*
X83252508Y-125129860D01*
X82875179Y-124973179D01*
X82466613Y-124972822D01*
X82089011Y-125128844D01*
X81799860Y-125417492D01*
X81643179Y-125794821D01*
X81642822Y-126203387D01*
X63376822Y-126203387D01*
X63377178Y-125796613D01*
X63221156Y-125419011D01*
X62932508Y-125129860D01*
X62555179Y-124973179D01*
X62146613Y-124972822D01*
X61769011Y-125128844D01*
X61479860Y-125417492D01*
X61323179Y-125794821D01*
X61322822Y-126203387D01*
X58351999Y-126203387D01*
X58351999Y-123663387D01*
X61322822Y-123663387D01*
X61478844Y-124040989D01*
X61767492Y-124330140D01*
X62144821Y-124486821D01*
X62553387Y-124487178D01*
X62930989Y-124331156D01*
X63220140Y-124042508D01*
X63376821Y-123665179D01*
X63376822Y-123663387D01*
X81642822Y-123663387D01*
X81798844Y-124040989D01*
X82087492Y-124330140D01*
X82464821Y-124486821D01*
X82873387Y-124487178D01*
X83250989Y-124331156D01*
X83540140Y-124042508D01*
X83696821Y-123665179D01*
X83697178Y-123256613D01*
X83541156Y-122879011D01*
X83252508Y-122589860D01*
X82875179Y-122433179D01*
X82466613Y-122432822D01*
X82089011Y-122588844D01*
X81799860Y-122877492D01*
X81643179Y-123254821D01*
X81642822Y-123663387D01*
X63376822Y-123663387D01*
X63377178Y-123256613D01*
X63221156Y-122879011D01*
X62932508Y-122589860D01*
X62555179Y-122433179D01*
X62146613Y-122432822D01*
X61769011Y-122588844D01*
X61479860Y-122877492D01*
X61323179Y-123254821D01*
X61322822Y-123663387D01*
X58351999Y-123663387D01*
X58351999Y-123158647D01*
X60387259Y-121123387D01*
X61322822Y-121123387D01*
X61478844Y-121500989D01*
X61767492Y-121790140D01*
X62144821Y-121946821D01*
X62553387Y-121947178D01*
X62930989Y-121791156D01*
X63220140Y-121502508D01*
X63376821Y-121125179D01*
X63376822Y-121123387D01*
X81642822Y-121123387D01*
X81798844Y-121500989D01*
X82087492Y-121790140D01*
X82464821Y-121946821D01*
X82873387Y-121947178D01*
X83250989Y-121791156D01*
X83540140Y-121502508D01*
X83696821Y-121125179D01*
X83697178Y-120716613D01*
X83541156Y-120339011D01*
X83252508Y-120049860D01*
X82875179Y-119893179D01*
X82466613Y-119892822D01*
X82089011Y-120048844D01*
X81799860Y-120337492D01*
X81643179Y-120714821D01*
X81642822Y-121123387D01*
X63376822Y-121123387D01*
X63377178Y-120716613D01*
X63221156Y-120339011D01*
X62932508Y-120049860D01*
X62555179Y-119893179D01*
X62146613Y-119892822D01*
X61769011Y-120048844D01*
X61479860Y-120337492D01*
X61323179Y-120714821D01*
X61322822Y-121123387D01*
X60387259Y-121123387D01*
X62115853Y-119394793D01*
X62144821Y-119406821D01*
X62553387Y-119407178D01*
X62930989Y-119251156D01*
X63220140Y-118962508D01*
X63376821Y-118585179D01*
X63376822Y-118583387D01*
X81642822Y-118583387D01*
X81798844Y-118960989D01*
X82087492Y-119250140D01*
X82464821Y-119406821D01*
X82873387Y-119407178D01*
X83250989Y-119251156D01*
X83540140Y-118962508D01*
X83696821Y-118585179D01*
X83697178Y-118176613D01*
X83541156Y-117799011D01*
X83252508Y-117509860D01*
X82875179Y-117353179D01*
X82466613Y-117352822D01*
X82089011Y-117508844D01*
X81799860Y-117797492D01*
X81643179Y-118174821D01*
X81642822Y-118583387D01*
X63376822Y-118583387D01*
X63377178Y-118176613D01*
X63221156Y-117799011D01*
X62932508Y-117509860D01*
X62555179Y-117353179D01*
X62146613Y-117352822D01*
X61769011Y-117508844D01*
X61479860Y-117797492D01*
X61323179Y-118174821D01*
X61322822Y-118583387D01*
X61335437Y-118613917D01*
X57501988Y-122447366D01*
X57501988Y-121468658D01*
X62115853Y-116854793D01*
X62144821Y-116866821D01*
X62553387Y-116867178D01*
X62930989Y-116711156D01*
X63220140Y-116422508D01*
X63376821Y-116045179D01*
X63376822Y-116043387D01*
X81642822Y-116043387D01*
X81798844Y-116420989D01*
X82087492Y-116710140D01*
X82464821Y-116866821D01*
X82873387Y-116867178D01*
X83250989Y-116711156D01*
X83540140Y-116422508D01*
X83696821Y-116045179D01*
X83697178Y-115636613D01*
X83541156Y-115259011D01*
X83252508Y-114969860D01*
X82875179Y-114813179D01*
X82466613Y-114812822D01*
X82089011Y-114968844D01*
X81799860Y-115257492D01*
X81643179Y-115634821D01*
X81642822Y-116043387D01*
X63376822Y-116043387D01*
X63377178Y-115636613D01*
X63221156Y-115259011D01*
X62932508Y-114969860D01*
X62555179Y-114813179D01*
X62146613Y-114812822D01*
X61769011Y-114968844D01*
X61479860Y-115257492D01*
X61323179Y-115634821D01*
X61322822Y-116043387D01*
X61335437Y-116073917D01*
X56559665Y-120849689D01*
X56440006Y-121028770D01*
X56440006Y-121028771D01*
X56397988Y-121240012D01*
X56397988Y-124733949D01*
X56371156Y-124669011D01*
X56082508Y-124379860D01*
X55705179Y-124223179D01*
X55296613Y-124222822D01*
X54919011Y-124378844D01*
X54629860Y-124667492D01*
X54473179Y-125044821D01*
X54473124Y-125107322D01*
X50565215Y-129015231D01*
X50565212Y-129015233D01*
X50405200Y-129175245D01*
X50405200Y-120295469D01*
X54350794Y-120295469D01*
X54531427Y-120732635D01*
X54865606Y-121067397D01*
X55302456Y-121248793D01*
X55775469Y-121249206D01*
X56212635Y-121068573D01*
X56547397Y-120734394D01*
X56728793Y-120297544D01*
X56729206Y-119824531D01*
X56548573Y-119387365D01*
X56214394Y-119052603D01*
X55777544Y-118871207D01*
X55304531Y-118870794D01*
X54867365Y-119051427D01*
X54532603Y-119385606D01*
X54351207Y-119822456D01*
X54350794Y-120295469D01*
X50405200Y-120295469D01*
X50405200Y-117755469D01*
X54350794Y-117755469D01*
X54531427Y-118192635D01*
X54865606Y-118527397D01*
X55302456Y-118708793D01*
X55775469Y-118709206D01*
X56212635Y-118528573D01*
X56547397Y-118194394D01*
X56728793Y-117757544D01*
X56729206Y-117284531D01*
X56548573Y-116847365D01*
X56214394Y-116512603D01*
X55777544Y-116331207D01*
X55304531Y-116330794D01*
X54867365Y-116511427D01*
X54532603Y-116845606D01*
X54351207Y-117282456D01*
X54350794Y-117755469D01*
X50405200Y-117755469D01*
X50405200Y-115215469D01*
X54350794Y-115215469D01*
X54531427Y-115652635D01*
X54865606Y-115987397D01*
X55302456Y-116168793D01*
X55775469Y-116169206D01*
X56212635Y-115988573D01*
X56547397Y-115654394D01*
X56728793Y-115217544D01*
X56729206Y-114744531D01*
X56548573Y-114307365D01*
X56214394Y-113972603D01*
X55777544Y-113791207D01*
X55304531Y-113790794D01*
X54867365Y-113971427D01*
X54532603Y-114305606D01*
X54351207Y-114742456D01*
X54350794Y-115215469D01*
X50405200Y-115215469D01*
X50405200Y-107152302D01*
X54130856Y-107152302D01*
X54158638Y-107707368D01*
X54317603Y-108091143D01*
X54559787Y-108160608D01*
X55360395Y-107360000D01*
X54559787Y-106559392D01*
X54317603Y-106628857D01*
X54130856Y-107152302D01*
X50405200Y-107152302D01*
X50405200Y-104612302D01*
X54130856Y-104612302D01*
X54158638Y-105167368D01*
X54317603Y-105551143D01*
X54559787Y-105620608D01*
X55360395Y-104820000D01*
X54559787Y-104019392D01*
X54317603Y-104088857D01*
X54130856Y-104612302D01*
X50405200Y-104612302D01*
X50405200Y-94895469D01*
X54350794Y-94895469D01*
X54531427Y-95332635D01*
X54865606Y-95667397D01*
X55302456Y-95848793D01*
X55775469Y-95849206D01*
X56212635Y-95668573D01*
X56547397Y-95334394D01*
X56598219Y-95212000D01*
X85282458Y-95212000D01*
X86718458Y-96648000D01*
X56598418Y-96648000D01*
X56548573Y-96527365D01*
X56214394Y-96192603D01*
X55777544Y-96011207D01*
X55304531Y-96010794D01*
X54867365Y-96191427D01*
X54532603Y-96525606D01*
X54351207Y-96962456D01*
X54350794Y-97435469D01*
X54531427Y-97872635D01*
X54865606Y-98207397D01*
X55302456Y-98388793D01*
X55775469Y-98389206D01*
X56212635Y-98208573D01*
X56547397Y-97874394D01*
X56598219Y-97752000D01*
X58979503Y-97752000D01*
X58735223Y-97915223D01*
X55559429Y-101091017D01*
X55304531Y-101090794D01*
X54867365Y-101271427D01*
X54532603Y-101605606D01*
X54351207Y-102042456D01*
X54350794Y-102515469D01*
X54531427Y-102952635D01*
X54865606Y-103287397D01*
X55225833Y-103436976D01*
X55192632Y-103438638D01*
X54808857Y-103597603D01*
X54739392Y-103839787D01*
X55540000Y-104640395D01*
X55554143Y-104626253D01*
X55733748Y-104805858D01*
X55719605Y-104820000D01*
X55733748Y-104834143D01*
X55554143Y-105013748D01*
X55540000Y-104999605D01*
X54739392Y-105800213D01*
X54808857Y-106042397D01*
X54932344Y-106086453D01*
X54808857Y-106137603D01*
X54739392Y-106379787D01*
X55540000Y-107180395D01*
X55554143Y-107166253D01*
X55733748Y-107345858D01*
X55719605Y-107360000D01*
X55733748Y-107374143D01*
X55554143Y-107553748D01*
X55540000Y-107539605D01*
X54739392Y-108340213D01*
X54808857Y-108582397D01*
X55241615Y-108736790D01*
X54867365Y-108891427D01*
X54532603Y-109225606D01*
X54351207Y-109662456D01*
X54350794Y-110135469D01*
X54531427Y-110572635D01*
X54865606Y-110907397D01*
X55302456Y-111088793D01*
X55721287Y-111089159D01*
X55717224Y-111093222D01*
X55717221Y-111093224D01*
X55559429Y-111251017D01*
X55304531Y-111250794D01*
X54867365Y-111431427D01*
X54532603Y-111765606D01*
X54351207Y-112202456D01*
X54350794Y-112675469D01*
X54531427Y-113112635D01*
X54865606Y-113447397D01*
X55302456Y-113628793D01*
X55775469Y-113629206D01*
X56079974Y-113503387D01*
X61322822Y-113503387D01*
X61478844Y-113880989D01*
X61767492Y-114170140D01*
X62144821Y-114326821D01*
X62553387Y-114327178D01*
X62930989Y-114171156D01*
X63220140Y-113882508D01*
X63376821Y-113505179D01*
X63376822Y-113503387D01*
X81642822Y-113503387D01*
X81798844Y-113880989D01*
X82087492Y-114170140D01*
X82464821Y-114326821D01*
X82873387Y-114327178D01*
X83250989Y-114171156D01*
X83540140Y-113882508D01*
X83696821Y-113505179D01*
X83697178Y-113096613D01*
X83541156Y-112719011D01*
X83252508Y-112429860D01*
X82875179Y-112273179D01*
X82466613Y-112272822D01*
X82089011Y-112428844D01*
X81799860Y-112717492D01*
X81643179Y-113094821D01*
X81642822Y-113503387D01*
X63376822Y-113503387D01*
X63377178Y-113096613D01*
X63221156Y-112719011D01*
X62932508Y-112429860D01*
X62555179Y-112273179D01*
X62146613Y-112272822D01*
X61769011Y-112428844D01*
X61479860Y-112717492D01*
X61323179Y-113094821D01*
X61322822Y-113503387D01*
X56079974Y-113503387D01*
X56212635Y-113448573D01*
X56547397Y-113114394D01*
X56728793Y-112677544D01*
X56729017Y-112420537D01*
X56886776Y-112262779D01*
X56886778Y-112262776D01*
X57886778Y-111262777D01*
X58066049Y-110994478D01*
X58072233Y-110963387D01*
X61322822Y-110963387D01*
X61478844Y-111340989D01*
X61767492Y-111630140D01*
X62144821Y-111786821D01*
X62553387Y-111787178D01*
X62930989Y-111631156D01*
X63220140Y-111342508D01*
X63376821Y-110965179D01*
X63376822Y-110963387D01*
X81642822Y-110963387D01*
X81798844Y-111340989D01*
X82087492Y-111630140D01*
X82464821Y-111786821D01*
X82873387Y-111787178D01*
X83250989Y-111631156D01*
X83540140Y-111342508D01*
X83696821Y-110965179D01*
X83697178Y-110556613D01*
X83541156Y-110179011D01*
X83252508Y-109889860D01*
X82875179Y-109733179D01*
X82466613Y-109732822D01*
X82089011Y-109888844D01*
X81799860Y-110177492D01*
X81643179Y-110554821D01*
X81642822Y-110963387D01*
X63376822Y-110963387D01*
X63377178Y-110556613D01*
X63221156Y-110179011D01*
X62932508Y-109889860D01*
X62555179Y-109733179D01*
X62146613Y-109732822D01*
X61769011Y-109888844D01*
X61479860Y-110177492D01*
X61323179Y-110554821D01*
X61322822Y-110963387D01*
X58072233Y-110963387D01*
X58129001Y-110677999D01*
X58129001Y-108423387D01*
X61322822Y-108423387D01*
X61478844Y-108800989D01*
X61767492Y-109090140D01*
X62144821Y-109246821D01*
X62553387Y-109247178D01*
X62930989Y-109091156D01*
X63220140Y-108802508D01*
X63376821Y-108425179D01*
X63376822Y-108423387D01*
X81642822Y-108423387D01*
X81798844Y-108800989D01*
X82087492Y-109090140D01*
X82464821Y-109246821D01*
X82873387Y-109247178D01*
X83250989Y-109091156D01*
X83540140Y-108802508D01*
X83696821Y-108425179D01*
X83697178Y-108016613D01*
X83541156Y-107639011D01*
X83252508Y-107349860D01*
X82875179Y-107193179D01*
X82466613Y-107192822D01*
X82089011Y-107348844D01*
X81799860Y-107637492D01*
X81643179Y-108014821D01*
X81642822Y-108423387D01*
X63376822Y-108423387D01*
X63377178Y-108016613D01*
X63221156Y-107639011D01*
X62932508Y-107349860D01*
X62555179Y-107193179D01*
X62146613Y-107192822D01*
X61769011Y-107348844D01*
X61479860Y-107637492D01*
X61323179Y-108014821D01*
X61322822Y-108423387D01*
X58129001Y-108423387D01*
X58129001Y-105883387D01*
X61322822Y-105883387D01*
X61478844Y-106260989D01*
X61767492Y-106550140D01*
X62144821Y-106706821D01*
X62553387Y-106707178D01*
X62930989Y-106551156D01*
X63220140Y-106262508D01*
X63376821Y-105885179D01*
X63377178Y-105476613D01*
X63221156Y-105099011D01*
X62932508Y-104809860D01*
X62555179Y-104653179D01*
X62146613Y-104652822D01*
X61769011Y-104808844D01*
X61479860Y-105097492D01*
X61323179Y-105474821D01*
X61322822Y-105883387D01*
X58129001Y-105883387D01*
X58129001Y-104042001D01*
X58066049Y-103725522D01*
X58063020Y-103720989D01*
X57886779Y-103457224D01*
X57772942Y-103343387D01*
X61322822Y-103343387D01*
X61478844Y-103720989D01*
X61767492Y-104010140D01*
X62144821Y-104166821D01*
X62553387Y-104167178D01*
X62930989Y-104011156D01*
X63220140Y-103722508D01*
X63376821Y-103345179D01*
X63377178Y-102936613D01*
X63221156Y-102559011D01*
X62932508Y-102269860D01*
X62555179Y-102113179D01*
X62146613Y-102112822D01*
X61769011Y-102268844D01*
X61479860Y-102557492D01*
X61323179Y-102934821D01*
X61322822Y-103343387D01*
X57772942Y-103343387D01*
X56728983Y-102299429D01*
X56729017Y-102260537D01*
X58239554Y-100750000D01*
X75673000Y-100750000D01*
X75735952Y-101066479D01*
X75915223Y-101334777D01*
X76183521Y-101514048D01*
X76500000Y-101577000D01*
X82295448Y-101577000D01*
X82831589Y-102113141D01*
X82466613Y-102112822D01*
X82089011Y-102268844D01*
X81799860Y-102557492D01*
X81643179Y-102934821D01*
X81642822Y-103343387D01*
X81798844Y-103720989D01*
X82087492Y-104010140D01*
X82464821Y-104166821D01*
X82873387Y-104167178D01*
X83250989Y-104011156D01*
X83540140Y-103722508D01*
X83696821Y-103345179D01*
X83697141Y-102978693D01*
X84923000Y-104204552D01*
X84923000Y-114225030D01*
X84866680Y-114088725D01*
X84802000Y-114023932D01*
X84802000Y-107260000D01*
X84759982Y-107048759D01*
X84640323Y-106869677D01*
X83684793Y-105914147D01*
X83696821Y-105885179D01*
X83697178Y-105476613D01*
X83541156Y-105099011D01*
X83252508Y-104809860D01*
X82875179Y-104653179D01*
X82466613Y-104652822D01*
X82089011Y-104808844D01*
X81799860Y-105097492D01*
X81643179Y-105474821D01*
X81642822Y-105883387D01*
X81798844Y-106260989D01*
X82087492Y-106550140D01*
X82464821Y-106706821D01*
X82873387Y-106707178D01*
X82903917Y-106694563D01*
X83698000Y-107488646D01*
X83698000Y-114023800D01*
X83634039Y-114087650D01*
X83523126Y-114354756D01*
X83522874Y-114643975D01*
X83633320Y-114911275D01*
X83837650Y-115115961D01*
X84104756Y-115226874D01*
X84393975Y-115227126D01*
X84661275Y-115116680D01*
X84865961Y-114912350D01*
X84923000Y-114774986D01*
X84923000Y-122920000D01*
X84985952Y-123236479D01*
X85165223Y-123504777D01*
X87812875Y-126152429D01*
X87812822Y-126213387D01*
X87968844Y-126590989D01*
X88257492Y-126880140D01*
X88634821Y-127036821D01*
X89043387Y-127037178D01*
X89420989Y-126881156D01*
X89710140Y-126592508D01*
X89866821Y-126215179D01*
X89867178Y-125806613D01*
X89711156Y-125429011D01*
X89422508Y-125139860D01*
X89045179Y-124983179D01*
X88982678Y-124983124D01*
X88398065Y-124398511D01*
X88634821Y-124496821D01*
X89043387Y-124497178D01*
X89420989Y-124341156D01*
X89710140Y-124052508D01*
X89866821Y-123675179D01*
X89867178Y-123266613D01*
X89711156Y-122889011D01*
X89422508Y-122599860D01*
X89045179Y-122443179D01*
X88636613Y-122442822D01*
X88259011Y-122598844D01*
X87969860Y-122887492D01*
X87813179Y-123264821D01*
X87812822Y-123673387D01*
X87911317Y-123911763D01*
X86577000Y-122577446D01*
X86577000Y-121133387D01*
X87812822Y-121133387D01*
X87968844Y-121510989D01*
X88257492Y-121800140D01*
X88634821Y-121956821D01*
X89043387Y-121957178D01*
X89420989Y-121801156D01*
X89710140Y-121512508D01*
X89866821Y-121135179D01*
X89867178Y-120726613D01*
X89711156Y-120349011D01*
X89422508Y-120059860D01*
X89045179Y-119903179D01*
X88636613Y-119902822D01*
X88259011Y-120058844D01*
X87969860Y-120347492D01*
X87813179Y-120724821D01*
X87812822Y-121133387D01*
X86577000Y-121133387D01*
X86577000Y-118593387D01*
X87812822Y-118593387D01*
X87968844Y-118970989D01*
X88257492Y-119260140D01*
X88634821Y-119416821D01*
X89043387Y-119417178D01*
X89420989Y-119261156D01*
X89710140Y-118972508D01*
X89866821Y-118595179D01*
X89867178Y-118186613D01*
X89711156Y-117809011D01*
X89422508Y-117519860D01*
X89045179Y-117363179D01*
X88636613Y-117362822D01*
X88259011Y-117518844D01*
X87969860Y-117807492D01*
X87813179Y-118184821D01*
X87812822Y-118593387D01*
X86577000Y-118593387D01*
X86577000Y-116053387D01*
X87812822Y-116053387D01*
X87968844Y-116430989D01*
X88257492Y-116720140D01*
X88634821Y-116876821D01*
X89043387Y-116877178D01*
X89420989Y-116721156D01*
X89710140Y-116432508D01*
X89866821Y-116055179D01*
X89867178Y-115646613D01*
X89711156Y-115269011D01*
X89422508Y-114979860D01*
X89045179Y-114823179D01*
X88636613Y-114822822D01*
X88259011Y-114978844D01*
X87969860Y-115267492D01*
X87813179Y-115644821D01*
X87812822Y-116053387D01*
X86577000Y-116053387D01*
X86577000Y-113513387D01*
X87812822Y-113513387D01*
X87968844Y-113890989D01*
X88257492Y-114180140D01*
X88634821Y-114336821D01*
X89043387Y-114337178D01*
X89420989Y-114181156D01*
X89710140Y-113892508D01*
X89866821Y-113515179D01*
X89867178Y-113106613D01*
X89711156Y-112729011D01*
X89422508Y-112439860D01*
X89045179Y-112283179D01*
X88636613Y-112282822D01*
X88259011Y-112438844D01*
X87969860Y-112727492D01*
X87813179Y-113104821D01*
X87812822Y-113513387D01*
X86577000Y-113513387D01*
X86577000Y-110973387D01*
X87812822Y-110973387D01*
X87968844Y-111350989D01*
X88257492Y-111640140D01*
X88634821Y-111796821D01*
X89043387Y-111797178D01*
X89420989Y-111641156D01*
X89710140Y-111352508D01*
X89866821Y-110975179D01*
X89867178Y-110566613D01*
X89711156Y-110189011D01*
X89422508Y-109899860D01*
X89045179Y-109743179D01*
X88636613Y-109742822D01*
X88259011Y-109898844D01*
X87969860Y-110187492D01*
X87813179Y-110564821D01*
X87812822Y-110973387D01*
X86577000Y-110973387D01*
X86577000Y-108433387D01*
X87812822Y-108433387D01*
X87968844Y-108810989D01*
X88257492Y-109100140D01*
X88634821Y-109256821D01*
X89043387Y-109257178D01*
X89420989Y-109101156D01*
X89710140Y-108812508D01*
X89866821Y-108435179D01*
X89867178Y-108026613D01*
X89711156Y-107649011D01*
X89422508Y-107359860D01*
X89045179Y-107203179D01*
X88636613Y-107202822D01*
X88259011Y-107358844D01*
X87969860Y-107647492D01*
X87813179Y-108024821D01*
X87812822Y-108433387D01*
X86577000Y-108433387D01*
X86577000Y-103861998D01*
X86514048Y-103545519D01*
X86334777Y-103277221D01*
X83222779Y-100165223D01*
X82954481Y-99985952D01*
X82638002Y-99923000D01*
X76500000Y-99923000D01*
X76183521Y-99985952D01*
X75915223Y-100165223D01*
X75735952Y-100433521D01*
X75673000Y-100750000D01*
X58239554Y-100750000D01*
X59662554Y-99327000D01*
X86215448Y-99327000D01*
X89011597Y-102123150D01*
X88636613Y-102122822D01*
X88259011Y-102278844D01*
X87969860Y-102567492D01*
X87813179Y-102944821D01*
X87812822Y-103353387D01*
X87968844Y-103730989D01*
X88257492Y-104020140D01*
X88634821Y-104176821D01*
X89043387Y-104177178D01*
X89073917Y-104164563D01*
X96147990Y-111238636D01*
X96147990Y-111915840D01*
X96084029Y-111979690D01*
X96027631Y-112115511D01*
X95990323Y-112059677D01*
X89854793Y-105924147D01*
X89866821Y-105895179D01*
X89867178Y-105486613D01*
X89711156Y-105109011D01*
X89422508Y-104819860D01*
X89045179Y-104663179D01*
X88636613Y-104662822D01*
X88259011Y-104818844D01*
X87969860Y-105107492D01*
X87813179Y-105484821D01*
X87812822Y-105893387D01*
X87968844Y-106270989D01*
X88257492Y-106560140D01*
X88634821Y-106716821D01*
X89043387Y-106717178D01*
X89073917Y-106704563D01*
X95048000Y-112678646D01*
X95048000Y-113323800D01*
X94984039Y-113387650D01*
X94873126Y-113654756D01*
X94872874Y-113943975D01*
X94983320Y-114211275D01*
X95187650Y-114415961D01*
X95454756Y-114526874D01*
X95743975Y-114527126D01*
X96011275Y-114416680D01*
X96215961Y-114212350D01*
X96326874Y-113945244D01*
X96327126Y-113656025D01*
X96216680Y-113388725D01*
X96152000Y-113323932D01*
X96152000Y-112872125D01*
X96287640Y-113008001D01*
X96554746Y-113118914D01*
X96843965Y-113119166D01*
X97111265Y-113008720D01*
X97315951Y-112804390D01*
X97426864Y-112537284D01*
X97427116Y-112248065D01*
X97316670Y-111980765D01*
X97251990Y-111915972D01*
X97251990Y-111009990D01*
X97209972Y-110798749D01*
X97090313Y-110619667D01*
X89854793Y-103384147D01*
X89866821Y-103355179D01*
X89867150Y-102978702D01*
X97673000Y-110784553D01*
X97673000Y-133675604D01*
X97735952Y-133992083D01*
X97915223Y-134260381D01*
X102949619Y-139294777D01*
X103217917Y-139474048D01*
X103534396Y-139537000D01*
X108534427Y-139537000D01*
X108577492Y-139580140D01*
X108954821Y-139736821D01*
X109363387Y-139737178D01*
X109740989Y-139581156D01*
X110030140Y-139292508D01*
X110186821Y-138915179D01*
X110187178Y-138506613D01*
X110174563Y-138476083D01*
X110875324Y-137775322D01*
X110936892Y-137683179D01*
X110994983Y-137596240D01*
X111037001Y-137384999D01*
X111037001Y-124795001D01*
X110994983Y-124583760D01*
X110994983Y-124583759D01*
X110875324Y-124404678D01*
X110174793Y-123704147D01*
X110186821Y-123675179D01*
X110187178Y-123266613D01*
X110031156Y-122889011D01*
X109742508Y-122599860D01*
X109365179Y-122443179D01*
X108956613Y-122442822D01*
X108579011Y-122598844D01*
X108289860Y-122887492D01*
X108133179Y-123264821D01*
X108132822Y-123673387D01*
X108288844Y-124050989D01*
X108577492Y-124340140D01*
X108954821Y-124496821D01*
X109363387Y-124497178D01*
X109393917Y-124484563D01*
X109933001Y-125023647D01*
X109933001Y-125330685D01*
X109742508Y-125139860D01*
X109365179Y-124983179D01*
X108956613Y-124982822D01*
X108579011Y-125138844D01*
X108289860Y-125427492D01*
X108133179Y-125804821D01*
X108132822Y-126213387D01*
X108288844Y-126590989D01*
X108577492Y-126880140D01*
X108954821Y-127036821D01*
X109363387Y-127037178D01*
X109740989Y-126881156D01*
X109933001Y-126689478D01*
X109933001Y-127870685D01*
X109742508Y-127679860D01*
X109365179Y-127523179D01*
X108956613Y-127522822D01*
X108579011Y-127678844D01*
X108289860Y-127967492D01*
X108133179Y-128344821D01*
X108132822Y-128753387D01*
X108145437Y-128783917D01*
X106231354Y-130698000D01*
X102978646Y-130698000D01*
X101720115Y-129439469D01*
X102610794Y-129439469D01*
X102791427Y-129876635D01*
X103125606Y-130211397D01*
X103562456Y-130392793D01*
X104035469Y-130393206D01*
X104472635Y-130212573D01*
X104807397Y-129878394D01*
X104988793Y-129441544D01*
X104989206Y-128968531D01*
X104808573Y-128531365D01*
X104474394Y-128196603D01*
X104037544Y-128015207D01*
X103564531Y-128014794D01*
X103127365Y-128195427D01*
X102792603Y-128529606D01*
X102611207Y-128966456D01*
X102610794Y-129439469D01*
X101720115Y-129439469D01*
X101027022Y-128746376D01*
X101027022Y-126899469D01*
X102610794Y-126899469D01*
X102791427Y-127336635D01*
X103125606Y-127671397D01*
X103562456Y-127852793D01*
X104035469Y-127853206D01*
X104472635Y-127672573D01*
X104807397Y-127338394D01*
X104988793Y-126901544D01*
X104989206Y-126428531D01*
X104808573Y-125991365D01*
X104474394Y-125656603D01*
X104037544Y-125475207D01*
X103564531Y-125474794D01*
X103127365Y-125655427D01*
X102792603Y-125989606D01*
X102611207Y-126426456D01*
X102610794Y-126899469D01*
X101027022Y-126899469D01*
X101027022Y-124359469D01*
X102610794Y-124359469D01*
X102791427Y-124796635D01*
X103125606Y-125131397D01*
X103562456Y-125312793D01*
X104035469Y-125313206D01*
X104472635Y-125132573D01*
X104807397Y-124798394D01*
X104988793Y-124361544D01*
X104989206Y-123888531D01*
X104808573Y-123451365D01*
X104474394Y-123116603D01*
X104037544Y-122935207D01*
X103564531Y-122934794D01*
X103127365Y-123115427D01*
X102792603Y-123449606D01*
X102611207Y-123886456D01*
X102610794Y-124359469D01*
X101027022Y-124359469D01*
X101027022Y-121819469D01*
X102610794Y-121819469D01*
X102791427Y-122256635D01*
X103125606Y-122591397D01*
X103562456Y-122772793D01*
X104035469Y-122773206D01*
X104472635Y-122592573D01*
X104807397Y-122258394D01*
X104988793Y-121821544D01*
X104989206Y-121348531D01*
X104900311Y-121133387D01*
X108132822Y-121133387D01*
X108288844Y-121510989D01*
X108577492Y-121800140D01*
X108954821Y-121956821D01*
X109363387Y-121957178D01*
X109740989Y-121801156D01*
X110030140Y-121512508D01*
X110186821Y-121135179D01*
X110187178Y-120726613D01*
X110031156Y-120349011D01*
X109742508Y-120059860D01*
X109365179Y-119903179D01*
X108956613Y-119902822D01*
X108579011Y-120058844D01*
X108289860Y-120347492D01*
X108133179Y-120724821D01*
X108132822Y-121133387D01*
X104900311Y-121133387D01*
X104808573Y-120911365D01*
X104474394Y-120576603D01*
X104037544Y-120395207D01*
X103564531Y-120394794D01*
X103127365Y-120575427D01*
X102792603Y-120909606D01*
X102611207Y-121346456D01*
X102610794Y-121819469D01*
X101027022Y-121819469D01*
X101027022Y-119279469D01*
X102610794Y-119279469D01*
X102791427Y-119716635D01*
X103125606Y-120051397D01*
X103562456Y-120232793D01*
X104035469Y-120233206D01*
X104472635Y-120052573D01*
X104807397Y-119718394D01*
X104988793Y-119281544D01*
X104989206Y-118808531D01*
X104900311Y-118593387D01*
X108132822Y-118593387D01*
X108288844Y-118970989D01*
X108577492Y-119260140D01*
X108954821Y-119416821D01*
X109363387Y-119417178D01*
X109740989Y-119261156D01*
X110030140Y-118972508D01*
X110186821Y-118595179D01*
X110187178Y-118186613D01*
X110031156Y-117809011D01*
X109742508Y-117519860D01*
X109365179Y-117363179D01*
X108956613Y-117362822D01*
X108579011Y-117518844D01*
X108289860Y-117807492D01*
X108133179Y-118184821D01*
X108132822Y-118593387D01*
X104900311Y-118593387D01*
X104808573Y-118371365D01*
X104474394Y-118036603D01*
X104037544Y-117855207D01*
X103564531Y-117854794D01*
X103127365Y-118035427D01*
X102792603Y-118369606D01*
X102611207Y-118806456D01*
X102610794Y-119279469D01*
X101027022Y-119279469D01*
X101027022Y-116739469D01*
X102610794Y-116739469D01*
X102791427Y-117176635D01*
X103125606Y-117511397D01*
X103562456Y-117692793D01*
X104035469Y-117693206D01*
X104472635Y-117512573D01*
X104807397Y-117178394D01*
X104988793Y-116741544D01*
X104989206Y-116268531D01*
X104900311Y-116053387D01*
X108132822Y-116053387D01*
X108288844Y-116430989D01*
X108577492Y-116720140D01*
X108954821Y-116876821D01*
X109363387Y-116877178D01*
X109740989Y-116721156D01*
X110030140Y-116432508D01*
X110186821Y-116055179D01*
X110187178Y-115646613D01*
X110031156Y-115269011D01*
X109742508Y-114979860D01*
X109365179Y-114823179D01*
X108956613Y-114822822D01*
X108579011Y-114978844D01*
X108289860Y-115267492D01*
X108133179Y-115644821D01*
X108132822Y-116053387D01*
X104900311Y-116053387D01*
X104808573Y-115831365D01*
X104474394Y-115496603D01*
X104037544Y-115315207D01*
X103564531Y-115314794D01*
X103127365Y-115495427D01*
X102792603Y-115829606D01*
X102611207Y-116266456D01*
X102610794Y-116739469D01*
X101027022Y-116739469D01*
X101027022Y-114199469D01*
X102610794Y-114199469D01*
X102791427Y-114636635D01*
X103125606Y-114971397D01*
X103562456Y-115152793D01*
X104035469Y-115153206D01*
X104472635Y-114972573D01*
X104807397Y-114638394D01*
X104988793Y-114201544D01*
X104989206Y-113728531D01*
X104900311Y-113513387D01*
X108132822Y-113513387D01*
X108288844Y-113890989D01*
X108577492Y-114180140D01*
X108954821Y-114336821D01*
X109363387Y-114337178D01*
X109740989Y-114181156D01*
X110030140Y-113892508D01*
X110186821Y-113515179D01*
X110187178Y-113106613D01*
X110031156Y-112729011D01*
X109742508Y-112439860D01*
X109365179Y-112283179D01*
X108956613Y-112282822D01*
X108579011Y-112438844D01*
X108289860Y-112727492D01*
X108133179Y-113104821D01*
X108132822Y-113513387D01*
X104900311Y-113513387D01*
X104808573Y-113291365D01*
X104474394Y-112956603D01*
X104037544Y-112775207D01*
X103564531Y-112774794D01*
X103127365Y-112955427D01*
X102792603Y-113289606D01*
X102611207Y-113726456D01*
X102610794Y-114199469D01*
X101027022Y-114199469D01*
X101027022Y-111659469D01*
X102610794Y-111659469D01*
X102791427Y-112096635D01*
X103125606Y-112431397D01*
X103562456Y-112612793D01*
X104035469Y-112613206D01*
X104472635Y-112432573D01*
X104807397Y-112098394D01*
X104988793Y-111661544D01*
X104989206Y-111188531D01*
X104900311Y-110973387D01*
X108132822Y-110973387D01*
X108288844Y-111350989D01*
X108577492Y-111640140D01*
X108954821Y-111796821D01*
X109363387Y-111797178D01*
X109740989Y-111641156D01*
X110030140Y-111352508D01*
X110186821Y-110975179D01*
X110187178Y-110566613D01*
X110031156Y-110189011D01*
X109742508Y-109899860D01*
X109365179Y-109743179D01*
X108956613Y-109742822D01*
X108579011Y-109898844D01*
X108289860Y-110187492D01*
X108133179Y-110564821D01*
X108132822Y-110973387D01*
X104900311Y-110973387D01*
X104808573Y-110751365D01*
X104474394Y-110416603D01*
X104037544Y-110235207D01*
X103564531Y-110234794D01*
X103127365Y-110415427D01*
X102792603Y-110749606D01*
X102611207Y-111186456D01*
X102610794Y-111659469D01*
X101027022Y-111659469D01*
X101027022Y-109623918D01*
X100985004Y-109412677D01*
X100985004Y-109412676D01*
X100865345Y-109233595D01*
X100751219Y-109119469D01*
X102610794Y-109119469D01*
X102791427Y-109556635D01*
X103125606Y-109891397D01*
X103562456Y-110072793D01*
X104035469Y-110073206D01*
X104472635Y-109892573D01*
X104807397Y-109558394D01*
X104988793Y-109121544D01*
X104989206Y-108648531D01*
X104900311Y-108433387D01*
X108132822Y-108433387D01*
X108288844Y-108810989D01*
X108577492Y-109100140D01*
X108954821Y-109256821D01*
X109363387Y-109257178D01*
X109740989Y-109101156D01*
X110030140Y-108812508D01*
X110186821Y-108435179D01*
X110187178Y-108026613D01*
X110031156Y-107649011D01*
X109742508Y-107359860D01*
X109365179Y-107203179D01*
X108956613Y-107202822D01*
X108579011Y-107358844D01*
X108289860Y-107647492D01*
X108133179Y-108024821D01*
X108132822Y-108433387D01*
X104900311Y-108433387D01*
X104808573Y-108211365D01*
X104474394Y-107876603D01*
X104037544Y-107695207D01*
X103564531Y-107694794D01*
X103127365Y-107875427D01*
X102792603Y-108209606D01*
X102611207Y-108646456D01*
X102610794Y-109119469D01*
X100751219Y-109119469D01*
X98211219Y-106579469D01*
X102610794Y-106579469D01*
X102791427Y-107016635D01*
X103125606Y-107351397D01*
X103562456Y-107532793D01*
X104035469Y-107533206D01*
X104472635Y-107352573D01*
X104807397Y-107018394D01*
X104988793Y-106581544D01*
X104989206Y-106108531D01*
X104900311Y-105893387D01*
X108132822Y-105893387D01*
X108288844Y-106270989D01*
X108577492Y-106560140D01*
X108954821Y-106716821D01*
X109363387Y-106717178D01*
X109740989Y-106561156D01*
X110030140Y-106272508D01*
X110186821Y-105895179D01*
X110187178Y-105486613D01*
X110031156Y-105109011D01*
X109742508Y-104819860D01*
X109365179Y-104663179D01*
X108956613Y-104662822D01*
X108579011Y-104818844D01*
X108289860Y-105107492D01*
X108133179Y-105484821D01*
X108132822Y-105893387D01*
X104900311Y-105893387D01*
X104808573Y-105671365D01*
X104474394Y-105336603D01*
X104037544Y-105155207D01*
X103564531Y-105154794D01*
X103127365Y-105335427D01*
X102792603Y-105669606D01*
X102611207Y-106106456D01*
X102610794Y-106579469D01*
X98211219Y-106579469D01*
X94147219Y-102515469D01*
X102610794Y-102515469D01*
X102791427Y-102952635D01*
X103125606Y-103287397D01*
X103562456Y-103468793D01*
X104035469Y-103469206D01*
X104315772Y-103353387D01*
X108132822Y-103353387D01*
X108288844Y-103730989D01*
X108577492Y-104020140D01*
X108954821Y-104176821D01*
X109363387Y-104177178D01*
X109740989Y-104021156D01*
X110030140Y-103732508D01*
X110186821Y-103355179D01*
X110187178Y-102946613D01*
X110031156Y-102569011D01*
X109742508Y-102279860D01*
X109365179Y-102123179D01*
X108956613Y-102122822D01*
X108579011Y-102278844D01*
X108289860Y-102567492D01*
X108133179Y-102944821D01*
X108132822Y-103353387D01*
X104315772Y-103353387D01*
X104472635Y-103288573D01*
X104807397Y-102954394D01*
X104988793Y-102517544D01*
X104989206Y-102044531D01*
X104808573Y-101607365D01*
X104474394Y-101272603D01*
X104037544Y-101091207D01*
X103564531Y-101090794D01*
X103127365Y-101271427D01*
X102792603Y-101605606D01*
X102611207Y-102042456D01*
X102610794Y-102515469D01*
X94147219Y-102515469D01*
X91607219Y-99975469D01*
X102610794Y-99975469D01*
X102791427Y-100412635D01*
X103125606Y-100747397D01*
X103562456Y-100928793D01*
X104035469Y-100929206D01*
X104472635Y-100748573D01*
X104807397Y-100414394D01*
X104988793Y-99977544D01*
X104989206Y-99504531D01*
X104808573Y-99067365D01*
X104474394Y-98732603D01*
X104037544Y-98551207D01*
X103564531Y-98550794D01*
X103127365Y-98731427D01*
X102792603Y-99065606D01*
X102611207Y-99502456D01*
X102610794Y-99975469D01*
X91607219Y-99975469D01*
X89067219Y-97435469D01*
X102610794Y-97435469D01*
X102791427Y-97872635D01*
X103125606Y-98207397D01*
X103562456Y-98388793D01*
X104035469Y-98389206D01*
X104472635Y-98208573D01*
X104807397Y-97874394D01*
X104988793Y-97437544D01*
X104989206Y-96964531D01*
X104808573Y-96527365D01*
X104474394Y-96192603D01*
X104037544Y-96011207D01*
X103564531Y-96010794D01*
X103127365Y-96191427D01*
X102792603Y-96525606D01*
X102611207Y-96962456D01*
X102610794Y-97435469D01*
X89067219Y-97435469D01*
X86527219Y-94895469D01*
X102610794Y-94895469D01*
X102791427Y-95332635D01*
X103125606Y-95667397D01*
X103562456Y-95848793D01*
X104035469Y-95849206D01*
X104472635Y-95668573D01*
X104807397Y-95334394D01*
X104988793Y-94897544D01*
X104989206Y-94424531D01*
X104808573Y-93987365D01*
X104474394Y-93652603D01*
X104037544Y-93471207D01*
X103564531Y-93470794D01*
X103127365Y-93651427D01*
X102792603Y-93985606D01*
X102611207Y-94422456D01*
X102610794Y-94895469D01*
X86527219Y-94895469D01*
X85901427Y-94269677D01*
X85722346Y-94150018D01*
X85511104Y-94108000D01*
X56598418Y-94108000D01*
X56548573Y-93987365D01*
X56214394Y-93652603D01*
X55777544Y-93471207D01*
X55304531Y-93470794D01*
X54867365Y-93651427D01*
X54532603Y-93985606D01*
X54351207Y-94422456D01*
X54350794Y-94895469D01*
X50405200Y-94895469D01*
X50405200Y-92355469D01*
X54350794Y-92355469D01*
X54531427Y-92792635D01*
X54865606Y-93127397D01*
X55302456Y-93308793D01*
X55775469Y-93309206D01*
X56212635Y-93128573D01*
X56547397Y-92794394D01*
X56728793Y-92357544D01*
X56728794Y-92355469D01*
X102610794Y-92355469D01*
X102791427Y-92792635D01*
X103125606Y-93127397D01*
X103562456Y-93308793D01*
X104035469Y-93309206D01*
X104472635Y-93128573D01*
X104807397Y-92794394D01*
X104988793Y-92357544D01*
X104989206Y-91884531D01*
X104808573Y-91447365D01*
X104474394Y-91112603D01*
X104037544Y-90931207D01*
X103564531Y-90930794D01*
X103127365Y-91111427D01*
X102792603Y-91445606D01*
X102611207Y-91882456D01*
X102610794Y-92355469D01*
X56728794Y-92355469D01*
X56729206Y-91884531D01*
X56548573Y-91447365D01*
X56214394Y-91112603D01*
X55777544Y-90931207D01*
X55304531Y-90930794D01*
X54867365Y-91111427D01*
X54532603Y-91445606D01*
X54351207Y-91882456D01*
X54350794Y-92355469D01*
X50405200Y-92355469D01*
X50405200Y-89815469D01*
X54350794Y-89815469D01*
X54531427Y-90252635D01*
X54865606Y-90587397D01*
X55302456Y-90768793D01*
X55775469Y-90769206D01*
X56212635Y-90588573D01*
X56547397Y-90254394D01*
X56728793Y-89817544D01*
X56728794Y-89815469D01*
X102610794Y-89815469D01*
X102791427Y-90252635D01*
X103125606Y-90587397D01*
X103562456Y-90768793D01*
X104035469Y-90769206D01*
X104472635Y-90588573D01*
X104807397Y-90254394D01*
X104988793Y-89817544D01*
X104989206Y-89344531D01*
X104808573Y-88907365D01*
X104474394Y-88572603D01*
X104037544Y-88391207D01*
X103564531Y-88390794D01*
X103127365Y-88571427D01*
X102792603Y-88905606D01*
X102611207Y-89342456D01*
X102610794Y-89815469D01*
X56728794Y-89815469D01*
X56729206Y-89344531D01*
X56548573Y-88907365D01*
X56214394Y-88572603D01*
X55777544Y-88391207D01*
X55304531Y-88390794D01*
X54867365Y-88571427D01*
X54532603Y-88905606D01*
X54351207Y-89342456D01*
X54350794Y-89815469D01*
X50405200Y-89815469D01*
X50405200Y-87275469D01*
X54350794Y-87275469D01*
X54531427Y-87712635D01*
X54865606Y-88047397D01*
X55302456Y-88228793D01*
X55775469Y-88229206D01*
X56212635Y-88048573D01*
X56547397Y-87714394D01*
X56728793Y-87277544D01*
X56728794Y-87275469D01*
X102610794Y-87275469D01*
X102791427Y-87712635D01*
X103125606Y-88047397D01*
X103562456Y-88228793D01*
X104035469Y-88229206D01*
X104472635Y-88048573D01*
X104807397Y-87714394D01*
X104988793Y-87277544D01*
X104989206Y-86804531D01*
X104808573Y-86367365D01*
X104474394Y-86032603D01*
X104037544Y-85851207D01*
X103564531Y-85850794D01*
X103127365Y-86031427D01*
X102792603Y-86365606D01*
X102611207Y-86802456D01*
X102610794Y-87275469D01*
X56728794Y-87275469D01*
X56729206Y-86804531D01*
X56548573Y-86367365D01*
X56214394Y-86032603D01*
X55777544Y-85851207D01*
X55304531Y-85850794D01*
X54867365Y-86031427D01*
X54532603Y-86365606D01*
X54351207Y-86802456D01*
X54350794Y-87275469D01*
X50405200Y-87275469D01*
X50405200Y-84735469D01*
X54350794Y-84735469D01*
X54531427Y-85172635D01*
X54865606Y-85507397D01*
X55302456Y-85688793D01*
X55775469Y-85689206D01*
X56212635Y-85508573D01*
X56547397Y-85174394D01*
X56728793Y-84737544D01*
X56728794Y-84735469D01*
X102610794Y-84735469D01*
X102791427Y-85172635D01*
X103125606Y-85507397D01*
X103562456Y-85688793D01*
X104035469Y-85689206D01*
X104472635Y-85508573D01*
X104807397Y-85174394D01*
X104988793Y-84737544D01*
X104989206Y-84264531D01*
X104808573Y-83827365D01*
X104474394Y-83492603D01*
X104037544Y-83311207D01*
X103564531Y-83310794D01*
X103127365Y-83491427D01*
X102792603Y-83825606D01*
X102611207Y-84262456D01*
X102610794Y-84735469D01*
X56728794Y-84735469D01*
X56729206Y-84264531D01*
X56548573Y-83827365D01*
X56214394Y-83492603D01*
X55777544Y-83311207D01*
X55304531Y-83310794D01*
X54867365Y-83491427D01*
X54532603Y-83825606D01*
X54351207Y-84262456D01*
X54350794Y-84735469D01*
X50405200Y-84735469D01*
X50405200Y-82035750D01*
X107515000Y-82035750D01*
X107515000Y-82726310D01*
X107611673Y-82959699D01*
X107790302Y-83138327D01*
X108023691Y-83235000D01*
X108714250Y-83235000D01*
X108873000Y-83076250D01*
X108873000Y-81877000D01*
X109127000Y-81877000D01*
X109127000Y-83076250D01*
X109285750Y-83235000D01*
X109976309Y-83235000D01*
X110209698Y-83138327D01*
X110388327Y-82959699D01*
X110485000Y-82726310D01*
X110485000Y-82035750D01*
X110326250Y-81877000D01*
X109127000Y-81877000D01*
X108873000Y-81877000D01*
X107673750Y-81877000D01*
X107515000Y-82035750D01*
X50405200Y-82035750D01*
X50405200Y-74895469D01*
X63810794Y-74895469D01*
X63991427Y-75332635D01*
X64325606Y-75667397D01*
X64762456Y-75848793D01*
X65235469Y-75849206D01*
X65672635Y-75668573D01*
X66007397Y-75334394D01*
X66188793Y-74897544D01*
X66188794Y-74895469D01*
X99370794Y-74895469D01*
X99551427Y-75332635D01*
X99885606Y-75667397D01*
X100322456Y-75848793D01*
X100795469Y-75849206D01*
X101232635Y-75668573D01*
X101567397Y-75334394D01*
X101748793Y-74897544D01*
X101749206Y-74424531D01*
X101568573Y-73987365D01*
X101234394Y-73652603D01*
X100874167Y-73503024D01*
X100907368Y-73501362D01*
X101291143Y-73342397D01*
X101360608Y-73100213D01*
X100560000Y-72299605D01*
X99759392Y-73100213D01*
X99828857Y-73342397D01*
X100261615Y-73496790D01*
X99887365Y-73651427D01*
X99552603Y-73985606D01*
X99371207Y-74422456D01*
X99370794Y-74895469D01*
X66188794Y-74895469D01*
X66189206Y-74424531D01*
X66008573Y-73987365D01*
X65674394Y-73652603D01*
X65237544Y-73471207D01*
X64764531Y-73470794D01*
X64327365Y-73651427D01*
X63992603Y-73985606D01*
X63811207Y-74422456D01*
X63810794Y-74895469D01*
X50405200Y-74895469D01*
X50405200Y-72355469D01*
X63810794Y-72355469D01*
X63991427Y-72792635D01*
X64325606Y-73127397D01*
X64762456Y-73308793D01*
X65235469Y-73309206D01*
X65672635Y-73128573D01*
X66007397Y-72794394D01*
X66188793Y-72357544D01*
X66189181Y-71912302D01*
X99150856Y-71912302D01*
X99178638Y-72467368D01*
X99337603Y-72851143D01*
X99579787Y-72920608D01*
X100380395Y-72120000D01*
X100739605Y-72120000D01*
X101540213Y-72920608D01*
X101782397Y-72851143D01*
X101969144Y-72327698D01*
X101941362Y-71772632D01*
X101782397Y-71388857D01*
X101540213Y-71319392D01*
X100739605Y-72120000D01*
X100380395Y-72120000D01*
X99579787Y-71319392D01*
X99337603Y-71388857D01*
X99150856Y-71912302D01*
X66189181Y-71912302D01*
X66189206Y-71884531D01*
X66008573Y-71447365D01*
X65701531Y-71139787D01*
X99759392Y-71139787D01*
X100560000Y-71940395D01*
X101360608Y-71139787D01*
X101291143Y-70897603D01*
X100767698Y-70710856D01*
X100212632Y-70738638D01*
X99828857Y-70897603D01*
X99759392Y-71139787D01*
X65701531Y-71139787D01*
X65674394Y-71112603D01*
X65237544Y-70931207D01*
X64764531Y-70930794D01*
X64327365Y-71111427D01*
X63992603Y-71445606D01*
X63811207Y-71882456D01*
X63810794Y-72355469D01*
X50405200Y-72355469D01*
X50405200Y-67855362D01*
X50649268Y-68362036D01*
X51085680Y-68751954D01*
X51297757Y-68826138D01*
X50906738Y-69087408D01*
X50626971Y-69506109D01*
X50528730Y-70000000D01*
X50626971Y-70493891D01*
X50906738Y-70912592D01*
X51325439Y-71192359D01*
X51819330Y-71290600D01*
X52180670Y-71290600D01*
X52674561Y-71192359D01*
X53093262Y-70912592D01*
X53373029Y-70493891D01*
X53471270Y-70000000D01*
X53373029Y-69506109D01*
X53093262Y-69087408D01*
X52702243Y-68826138D01*
X52914320Y-68751954D01*
X53350732Y-68362036D01*
X53604709Y-67834791D01*
X53607358Y-67819026D01*
X53486217Y-67587000D01*
X52127000Y-67587000D01*
X52127000Y-67607000D01*
X51873000Y-67607000D01*
X51873000Y-67587000D01*
X51853000Y-67587000D01*
X51853000Y-67333000D01*
X51873000Y-67333000D01*
X51873000Y-67313000D01*
X52127000Y-67313000D01*
X52127000Y-67333000D01*
X53486217Y-67333000D01*
X53607358Y-67100974D01*
X53604709Y-67085209D01*
X53350732Y-66557964D01*
X52914320Y-66168046D01*
X52702243Y-66093862D01*
X53093262Y-65832592D01*
X53373029Y-65413891D01*
X53471270Y-64920000D01*
X58148730Y-64920000D01*
X58246971Y-65413891D01*
X58526738Y-65832592D01*
X58945439Y-66112359D01*
X59335767Y-66190000D01*
X58945439Y-66267641D01*
X58526738Y-66547408D01*
X58246971Y-66966109D01*
X58148730Y-67460000D01*
X58246971Y-67953891D01*
X58526738Y-68372592D01*
X58945439Y-68652359D01*
X59335767Y-68730000D01*
X58945439Y-68807641D01*
X58526738Y-69087408D01*
X58246971Y-69506109D01*
X58148730Y-70000000D01*
X58246971Y-70493891D01*
X58526738Y-70912592D01*
X58945439Y-71192359D01*
X59439330Y-71290600D01*
X59800670Y-71290600D01*
X60294561Y-71192359D01*
X60713262Y-70912592D01*
X60993029Y-70493891D01*
X61062631Y-70143975D01*
X105272874Y-70143975D01*
X105383320Y-70411275D01*
X105587650Y-70615961D01*
X105854756Y-70726874D01*
X105946308Y-70726954D01*
X108448000Y-73228646D01*
X108448000Y-75515794D01*
X108072007Y-75767025D01*
X107795188Y-76181313D01*
X107697982Y-76670000D01*
X107795188Y-77158687D01*
X108072007Y-77572975D01*
X108486295Y-77849794D01*
X108939791Y-77940000D01*
X108486295Y-78030206D01*
X108072007Y-78307025D01*
X107795188Y-78721313D01*
X107697982Y-79210000D01*
X107795188Y-79698687D01*
X108072007Y-80112975D01*
X108299528Y-80265000D01*
X108023691Y-80265000D01*
X107790302Y-80361673D01*
X107611673Y-80540301D01*
X107515000Y-80773690D01*
X107515000Y-81464250D01*
X107673750Y-81623000D01*
X108873000Y-81623000D01*
X108873000Y-81603000D01*
X109127000Y-81603000D01*
X109127000Y-81623000D01*
X110326250Y-81623000D01*
X110485000Y-81464250D01*
X110485000Y-80773690D01*
X110388327Y-80540301D01*
X110209698Y-80361673D01*
X109976309Y-80265000D01*
X109700472Y-80265000D01*
X109927993Y-80112975D01*
X110204812Y-79698687D01*
X110302018Y-79210000D01*
X110204812Y-78721313D01*
X109927993Y-78307025D01*
X109513705Y-78030206D01*
X109060209Y-77940000D01*
X109513705Y-77849794D01*
X109927993Y-77572975D01*
X110204812Y-77158687D01*
X110302018Y-76670000D01*
X110204812Y-76181313D01*
X109927993Y-75767025D01*
X109552000Y-75515794D01*
X109552000Y-73000000D01*
X109509982Y-72788759D01*
X109509982Y-72788758D01*
X109390323Y-72609677D01*
X106727047Y-69946401D01*
X106727126Y-69856025D01*
X106616680Y-69588725D01*
X106412350Y-69384039D01*
X106145244Y-69273126D01*
X105856025Y-69272874D01*
X105588725Y-69383320D01*
X105384039Y-69587650D01*
X105273126Y-69854756D01*
X105272874Y-70143975D01*
X61062631Y-70143975D01*
X61091270Y-70000000D01*
X60993029Y-69506109D01*
X60713262Y-69087408D01*
X60294561Y-68807641D01*
X59904233Y-68730000D01*
X60294561Y-68652359D01*
X60713262Y-68372592D01*
X60993029Y-67953891D01*
X61091270Y-67460000D01*
X60993029Y-66966109D01*
X60713262Y-66547408D01*
X60294561Y-66267641D01*
X59904233Y-66190000D01*
X60294561Y-66112359D01*
X60713262Y-65832592D01*
X60993029Y-65413891D01*
X61091270Y-64920000D01*
X60993029Y-64426109D01*
X60713262Y-64007408D01*
X60294561Y-63727641D01*
X59800670Y-63629400D01*
X59439330Y-63629400D01*
X58945439Y-63727641D01*
X58526738Y-64007408D01*
X58246971Y-64426109D01*
X58148730Y-64920000D01*
X53471270Y-64920000D01*
X53373029Y-64426109D01*
X53093262Y-64007408D01*
X52674561Y-63727641D01*
X52180670Y-63629400D01*
X51819330Y-63629400D01*
X51325439Y-63727641D01*
X50906738Y-64007408D01*
X50626971Y-64426109D01*
X50528730Y-64920000D01*
X50626971Y-65413891D01*
X50906738Y-65832592D01*
X51297757Y-66093862D01*
X51085680Y-66168046D01*
X50649268Y-66557964D01*
X50405200Y-67064638D01*
X50405200Y-62380000D01*
X53068730Y-62380000D01*
X53166971Y-62873891D01*
X53446738Y-63292592D01*
X53865439Y-63572359D01*
X54359330Y-63670600D01*
X54720670Y-63670600D01*
X55214561Y-63572359D01*
X55633262Y-63292592D01*
X55810000Y-63028085D01*
X55986738Y-63292592D01*
X56405439Y-63572359D01*
X56899330Y-63670600D01*
X57260670Y-63670600D01*
X57754561Y-63572359D01*
X58173262Y-63292592D01*
X58453029Y-62873891D01*
X58551270Y-62380000D01*
X58453029Y-61886109D01*
X58173262Y-61467408D01*
X57754561Y-61187641D01*
X57260670Y-61089400D01*
X56899330Y-61089400D01*
X56405439Y-61187641D01*
X55986738Y-61467408D01*
X55810000Y-61731915D01*
X55633262Y-61467408D01*
X55214561Y-61187641D01*
X54720670Y-61089400D01*
X54359330Y-61089400D01*
X53865439Y-61187641D01*
X53446738Y-61467408D01*
X53166971Y-61886109D01*
X53068730Y-62380000D01*
X50405200Y-62380000D01*
X50405200Y-57316890D01*
X107558524Y-57316890D01*
X107728355Y-57726924D01*
X108118642Y-58155183D01*
X108479583Y-58324691D01*
X108072007Y-58597025D01*
X107795188Y-59011313D01*
X107697982Y-59500000D01*
X107795188Y-59988687D01*
X108072007Y-60402975D01*
X108486295Y-60679794D01*
X108939791Y-60770000D01*
X108486295Y-60860206D01*
X108072007Y-61137025D01*
X107795188Y-61551313D01*
X107697982Y-62040000D01*
X107795188Y-62528687D01*
X108072007Y-62942975D01*
X108486295Y-63219794D01*
X108939791Y-63310000D01*
X108486295Y-63400206D01*
X108072007Y-63677025D01*
X107795188Y-64091313D01*
X107697982Y-64580000D01*
X107795188Y-65068687D01*
X108072007Y-65482975D01*
X108486295Y-65759794D01*
X108974982Y-65857000D01*
X109025018Y-65857000D01*
X109513705Y-65759794D01*
X109927993Y-65482975D01*
X110204812Y-65068687D01*
X110302018Y-64580000D01*
X110204812Y-64091313D01*
X109927993Y-63677025D01*
X109513705Y-63400206D01*
X109060209Y-63310000D01*
X109513705Y-63219794D01*
X109927993Y-62942975D01*
X110204812Y-62528687D01*
X110302018Y-62040000D01*
X110204812Y-61551313D01*
X109927993Y-61137025D01*
X109513705Y-60860206D01*
X109060209Y-60770000D01*
X109513705Y-60679794D01*
X109927993Y-60402975D01*
X110204812Y-59988687D01*
X110302018Y-59500000D01*
X110204812Y-59011313D01*
X109927993Y-58597025D01*
X109520417Y-58324691D01*
X109881358Y-58155183D01*
X110271645Y-57726924D01*
X110441476Y-57316890D01*
X110320155Y-57087000D01*
X109127000Y-57087000D01*
X109127000Y-57107000D01*
X108873000Y-57107000D01*
X108873000Y-57087000D01*
X107679845Y-57087000D01*
X107558524Y-57316890D01*
X50405200Y-57316890D01*
X50405200Y-56603110D01*
X107558524Y-56603110D01*
X107679845Y-56833000D01*
X108873000Y-56833000D01*
X108873000Y-56813000D01*
X109127000Y-56813000D01*
X109127000Y-56833000D01*
X110320155Y-56833000D01*
X110441476Y-56603110D01*
X110271645Y-56193076D01*
X109881358Y-55764817D01*
X109754764Y-55705365D01*
X109850000Y-55705365D01*
X110008237Y-55675591D01*
X110153567Y-55582073D01*
X110251064Y-55439381D01*
X110285365Y-55270000D01*
X110285365Y-53570000D01*
X110255591Y-53411763D01*
X110162073Y-53266433D01*
X110019381Y-53168936D01*
X109850000Y-53134635D01*
X108150000Y-53134635D01*
X107991763Y-53164409D01*
X107846433Y-53257927D01*
X107748936Y-53400619D01*
X107714635Y-53570000D01*
X107714635Y-55270000D01*
X107744409Y-55428237D01*
X107837927Y-55573567D01*
X107980619Y-55671064D01*
X108150000Y-55705365D01*
X108245236Y-55705365D01*
X108118642Y-55764817D01*
X107728355Y-56193076D01*
X107558524Y-56603110D01*
X50405200Y-56603110D01*
X50405200Y-52150000D01*
X55714635Y-52150000D01*
X55714635Y-53850000D01*
X55744409Y-54008237D01*
X55837927Y-54153567D01*
X55980619Y-54251064D01*
X56150000Y-54285365D01*
X57850000Y-54285365D01*
X58008237Y-54255591D01*
X58153567Y-54162073D01*
X58251064Y-54019381D01*
X58285365Y-53850000D01*
X58285365Y-53137454D01*
X58360206Y-53513705D01*
X58637025Y-53927993D01*
X59051313Y-54204812D01*
X59540000Y-54302018D01*
X60028687Y-54204812D01*
X60442975Y-53927993D01*
X60719794Y-53513705D01*
X60817000Y-53025018D01*
X60817000Y-52974982D01*
X60719794Y-52486295D01*
X60442975Y-52072007D01*
X60028687Y-51795188D01*
X59540000Y-51697982D01*
X59051313Y-51795188D01*
X58637025Y-52072007D01*
X58360206Y-52486295D01*
X58285365Y-52862546D01*
X58285365Y-52150000D01*
X58255591Y-51991763D01*
X58162073Y-51846433D01*
X58019381Y-51748936D01*
X57850000Y-51714635D01*
X56150000Y-51714635D01*
X55991763Y-51744409D01*
X55846433Y-51837927D01*
X55748936Y-51980619D01*
X55714635Y-52150000D01*
X50405200Y-52150000D01*
X50405200Y-50405200D01*
X111594800Y-50405200D01*
X111594800Y-149594800D01*
X111594800Y-149594800D01*
G37*
X111594800Y-149594800D02*
X50405200Y-149594800D01*
X50405200Y-141724754D01*
X50765223Y-142084777D01*
X51033521Y-142264048D01*
X51350000Y-142327000D01*
X52149643Y-142327000D01*
X52331966Y-142448824D01*
X52589244Y-142500000D01*
X52331966Y-142551176D01*
X51998783Y-142773801D01*
X51776158Y-143106984D01*
X51697982Y-143500000D01*
X51776158Y-143893016D01*
X51998783Y-144226199D01*
X52331966Y-144448824D01*
X52411453Y-144464635D01*
X52150000Y-144464635D01*
X51991763Y-144494409D01*
X51846433Y-144587927D01*
X51748936Y-144730619D01*
X51714635Y-144900000D01*
X51714635Y-146100000D01*
X51744409Y-146258237D01*
X51837927Y-146403567D01*
X51980619Y-146501064D01*
X52150000Y-146535365D01*
X53850000Y-146535365D01*
X54008237Y-146505591D01*
X54153567Y-146412073D01*
X54251064Y-146269381D01*
X54285365Y-146100000D01*
X54285365Y-146052000D01*
X54750000Y-146052000D01*
X54961242Y-146009982D01*
X55140323Y-145890323D01*
X58190322Y-142840324D01*
X58309981Y-142661243D01*
X58351999Y-142450001D01*
X58351999Y-141443387D01*
X81642822Y-141443387D01*
X81798844Y-141820989D01*
X82087492Y-142110140D01*
X82464821Y-142266821D01*
X82873387Y-142267178D01*
X83250989Y-142111156D01*
X83540140Y-141822508D01*
X83693412Y-141453387D01*
X108132822Y-141453387D01*
X108288844Y-141830989D01*
X108577492Y-142120140D01*
X108954821Y-142276821D01*
X109363387Y-142277178D01*
X109740989Y-142121156D01*
X110030140Y-141832508D01*
X110186821Y-141455179D01*
X110187178Y-141046613D01*
X110031156Y-140669011D01*
X109742508Y-140379860D01*
X109365179Y-140223179D01*
X108956613Y-140222822D01*
X108579011Y-140378844D01*
X108289860Y-140667492D01*
X108133179Y-141044821D01*
X108132822Y-141453387D01*
X83693412Y-141453387D01*
X83696821Y-141445179D01*
X83697178Y-141036613D01*
X83541156Y-140659011D01*
X83252508Y-140369860D01*
X82875179Y-140213179D01*
X82466613Y-140212822D01*
X82089011Y-140368844D01*
X81799860Y-140657492D01*
X81643179Y-141034821D01*
X81642822Y-141443387D01*
X58351999Y-141443387D01*
X58351999Y-138903387D01*
X81642822Y-138903387D01*
X81798844Y-139280989D01*
X82087492Y-139570140D01*
X82464821Y-139726821D01*
X82873387Y-139727178D01*
X83250989Y-139571156D01*
X83540140Y-139282508D01*
X83696821Y-138905179D01*
X83697178Y-138496613D01*
X83541156Y-138119011D01*
X83252508Y-137829860D01*
X82875179Y-137673179D01*
X82466613Y-137672822D01*
X82089011Y-137828844D01*
X81799860Y-138117492D01*
X81643179Y-138494821D01*
X81642822Y-138903387D01*
X58351999Y-138903387D01*
X58351999Y-137627745D01*
X84921861Y-137627745D01*
X84995995Y-137873864D01*
X85533223Y-138066965D01*
X86103454Y-138039778D01*
X86504005Y-137873864D01*
X86578139Y-137627745D01*
X85750000Y-136799605D01*
X84921861Y-137627745D01*
X58351999Y-137627745D01*
X58351999Y-136363387D01*
X81642822Y-136363387D01*
X81798844Y-136740989D01*
X82087492Y-137030140D01*
X82464821Y-137186821D01*
X82873387Y-137187178D01*
X83250989Y-137031156D01*
X83540140Y-136742508D01*
X83681023Y-136403223D01*
X84303035Y-136403223D01*
X84330222Y-136973454D01*
X84496136Y-137374005D01*
X84742255Y-137448139D01*
X85570395Y-136620000D01*
X85929605Y-136620000D01*
X86757745Y-137448139D01*
X87003864Y-137374005D01*
X87196965Y-136836777D01*
X87169778Y-136266546D01*
X87003864Y-135865995D01*
X86757745Y-135791861D01*
X85929605Y-136620000D01*
X85570395Y-136620000D01*
X84742255Y-135791861D01*
X84496136Y-135865995D01*
X84303035Y-136403223D01*
X83681023Y-136403223D01*
X83696821Y-136365179D01*
X83697178Y-135956613D01*
X83554893Y-135612255D01*
X84921861Y-135612255D01*
X85750000Y-136440395D01*
X86578139Y-135612255D01*
X86504005Y-135366136D01*
X85966777Y-135173035D01*
X85396546Y-135200222D01*
X84995995Y-135366136D01*
X84921861Y-135612255D01*
X83554893Y-135612255D01*
X83541156Y-135579011D01*
X83252508Y-135289860D01*
X82875179Y-135133179D01*
X82466613Y-135132822D01*
X82089011Y-135288844D01*
X81799860Y-135577492D01*
X81643179Y-135954821D01*
X81642822Y-136363387D01*
X58351999Y-136363387D01*
X58351999Y-134482735D01*
X81986870Y-134482735D01*
X82036383Y-134708164D01*
X82501036Y-134867807D01*
X82991413Y-134837482D01*
X83303617Y-134708164D01*
X83353130Y-134482735D01*
X82670000Y-133799605D01*
X81986870Y-134482735D01*
X58351999Y-134482735D01*
X58351999Y-133451036D01*
X81422193Y-133451036D01*
X81452518Y-133941413D01*
X81581836Y-134253617D01*
X81807265Y-134303130D01*
X82490395Y-133620000D01*
X82849605Y-133620000D01*
X83532735Y-134303130D01*
X83758164Y-134253617D01*
X83917807Y-133788964D01*
X83887482Y-133298587D01*
X83758164Y-132986383D01*
X83532735Y-132936870D01*
X82849605Y-133620000D01*
X82490395Y-133620000D01*
X81807265Y-132936870D01*
X81581836Y-132986383D01*
X81422193Y-133451036D01*
X58351999Y-133451036D01*
X58351999Y-132757265D01*
X81986870Y-132757265D01*
X82670000Y-133440395D01*
X83353130Y-132757265D01*
X83303617Y-132531836D01*
X82838964Y-132372193D01*
X82348587Y-132402518D01*
X82036383Y-132531836D01*
X81986870Y-132757265D01*
X58351999Y-132757265D01*
X58351999Y-131283387D01*
X61322822Y-131283387D01*
X61478844Y-131660989D01*
X61767492Y-131950140D01*
X62144821Y-132106821D01*
X62553387Y-132107178D01*
X62930989Y-131951156D01*
X63220140Y-131662508D01*
X63376821Y-131285179D01*
X63376822Y-131283387D01*
X81642822Y-131283387D01*
X81798844Y-131660989D01*
X82087492Y-131950140D01*
X82464821Y-132106821D01*
X82873387Y-132107178D01*
X83250989Y-131951156D01*
X83540140Y-131662508D01*
X83693412Y-131293387D01*
X87812822Y-131293387D01*
X87968844Y-131670989D01*
X88257492Y-131960140D01*
X88634821Y-132116821D01*
X89043387Y-132117178D01*
X89420989Y-131961156D01*
X89710140Y-131672508D01*
X89866821Y-131295179D01*
X89867178Y-130886613D01*
X89711156Y-130509011D01*
X89422508Y-130219860D01*
X89045179Y-130063179D01*
X88636613Y-130062822D01*
X88259011Y-130218844D01*
X87969860Y-130507492D01*
X87813179Y-130884821D01*
X87812822Y-131293387D01*
X83693412Y-131293387D01*
X83696821Y-131285179D01*
X83697178Y-130876613D01*
X83541156Y-130499011D01*
X83252508Y-130209860D01*
X82875179Y-130053179D01*
X82466613Y-130052822D01*
X82089011Y-130208844D01*
X81799860Y-130497492D01*
X81643179Y-130874821D01*
X81642822Y-131283387D01*
X63376822Y-131283387D01*
X63377178Y-130876613D01*
X63221156Y-130499011D01*
X62932508Y-130209860D01*
X62555179Y-130053179D01*
X62146613Y-130052822D01*
X61769011Y-130208844D01*
X61479860Y-130497492D01*
X61323179Y-130874821D01*
X61322822Y-131283387D01*
X58351999Y-131283387D01*
X58351999Y-128743387D01*
X61322822Y-128743387D01*
X61478844Y-129120989D01*
X61767492Y-129410140D01*
X62144821Y-129566821D01*
X62553387Y-129567178D01*
X62930989Y-129411156D01*
X63220140Y-129122508D01*
X63376821Y-128745179D01*
X63376822Y-128743387D01*
X81642822Y-128743387D01*
X81798844Y-129120989D01*
X82087492Y-129410140D01*
X82464821Y-129566821D01*
X82873387Y-129567178D01*
X83250989Y-129411156D01*
X83540140Y-129122508D01*
X83600991Y-128975962D01*
X84523000Y-128975962D01*
X84523000Y-129024038D01*
X84616400Y-129493591D01*
X84882380Y-129891658D01*
X85280447Y-130157638D01*
X85750000Y-130251038D01*
X86219553Y-130157638D01*
X86617620Y-129891658D01*
X86883600Y-129493591D01*
X86977000Y-129024038D01*
X86977000Y-128975962D01*
X86932728Y-128753387D01*
X87812822Y-128753387D01*
X87968844Y-129130989D01*
X88257492Y-129420140D01*
X88634821Y-129576821D01*
X89043387Y-129577178D01*
X89420989Y-129421156D01*
X89710140Y-129132508D01*
X89866821Y-128755179D01*
X89867178Y-128346613D01*
X89711156Y-127969011D01*
X89422508Y-127679860D01*
X89045179Y-127523179D01*
X88636613Y-127522822D01*
X88259011Y-127678844D01*
X87969860Y-127967492D01*
X87813179Y-128344821D01*
X87812822Y-128753387D01*
X86932728Y-128753387D01*
X86883600Y-128506409D01*
X86617620Y-128108342D01*
X86219553Y-127842362D01*
X85750000Y-127748962D01*
X85280447Y-127842362D01*
X84882380Y-128108342D01*
X84616400Y-128506409D01*
X84523000Y-128975962D01*
X83600991Y-128975962D01*
X83696821Y-128745179D01*
X83697178Y-128336613D01*
X83541156Y-127959011D01*
X83252508Y-127669860D01*
X82875179Y-127513179D01*
X82466613Y-127512822D01*
X82089011Y-127668844D01*
X81799860Y-127957492D01*
X81643179Y-128334821D01*
X81642822Y-128743387D01*
X63376822Y-128743387D01*
X63377178Y-128336613D01*
X63221156Y-127959011D01*
X62932508Y-127669860D01*
X62555179Y-127513179D01*
X62146613Y-127512822D01*
X61769011Y-127668844D01*
X61479860Y-127957492D01*
X61323179Y-128334821D01*
X61322822Y-128743387D01*
X58351999Y-128743387D01*
X58351999Y-126203387D01*
X61322822Y-126203387D01*
X61478844Y-126580989D01*
X61767492Y-126870140D01*
X62144821Y-127026821D01*
X62553387Y-127027178D01*
X62930989Y-126871156D01*
X63220140Y-126582508D01*
X63376821Y-126205179D01*
X63376822Y-126203387D01*
X81642822Y-126203387D01*
X81798844Y-126580989D01*
X82087492Y-126870140D01*
X82464821Y-127026821D01*
X82873387Y-127027178D01*
X83250989Y-126871156D01*
X83540140Y-126582508D01*
X83696821Y-126205179D01*
X83697178Y-125796613D01*
X83541156Y-125419011D01*
X83252508Y-125129860D01*
X82875179Y-124973179D01*
X82466613Y-124972822D01*
X82089011Y-125128844D01*
X81799860Y-125417492D01*
X81643179Y-125794821D01*
X81642822Y-126203387D01*
X63376822Y-126203387D01*
X63377178Y-125796613D01*
X63221156Y-125419011D01*
X62932508Y-125129860D01*
X62555179Y-124973179D01*
X62146613Y-124972822D01*
X61769011Y-125128844D01*
X61479860Y-125417492D01*
X61323179Y-125794821D01*
X61322822Y-126203387D01*
X58351999Y-126203387D01*
X58351999Y-123663387D01*
X61322822Y-123663387D01*
X61478844Y-124040989D01*
X61767492Y-124330140D01*
X62144821Y-124486821D01*
X62553387Y-124487178D01*
X62930989Y-124331156D01*
X63220140Y-124042508D01*
X63376821Y-123665179D01*
X63376822Y-123663387D01*
X81642822Y-123663387D01*
X81798844Y-124040989D01*
X82087492Y-124330140D01*
X82464821Y-124486821D01*
X82873387Y-124487178D01*
X83250989Y-124331156D01*
X83540140Y-124042508D01*
X83696821Y-123665179D01*
X83697178Y-123256613D01*
X83541156Y-122879011D01*
X83252508Y-122589860D01*
X82875179Y-122433179D01*
X82466613Y-122432822D01*
X82089011Y-122588844D01*
X81799860Y-122877492D01*
X81643179Y-123254821D01*
X81642822Y-123663387D01*
X63376822Y-123663387D01*
X63377178Y-123256613D01*
X63221156Y-122879011D01*
X62932508Y-122589860D01*
X62555179Y-122433179D01*
X62146613Y-122432822D01*
X61769011Y-122588844D01*
X61479860Y-122877492D01*
X61323179Y-123254821D01*
X61322822Y-123663387D01*
X58351999Y-123663387D01*
X58351999Y-123158647D01*
X60387259Y-121123387D01*
X61322822Y-121123387D01*
X61478844Y-121500989D01*
X61767492Y-121790140D01*
X62144821Y-121946821D01*
X62553387Y-121947178D01*
X62930989Y-121791156D01*
X63220140Y-121502508D01*
X63376821Y-121125179D01*
X63376822Y-121123387D01*
X81642822Y-121123387D01*
X81798844Y-121500989D01*
X82087492Y-121790140D01*
X82464821Y-121946821D01*
X82873387Y-121947178D01*
X83250989Y-121791156D01*
X83540140Y-121502508D01*
X83696821Y-121125179D01*
X83697178Y-120716613D01*
X83541156Y-120339011D01*
X83252508Y-120049860D01*
X82875179Y-119893179D01*
X82466613Y-119892822D01*
X82089011Y-120048844D01*
X81799860Y-120337492D01*
X81643179Y-120714821D01*
X81642822Y-121123387D01*
X63376822Y-121123387D01*
X63377178Y-120716613D01*
X63221156Y-120339011D01*
X62932508Y-120049860D01*
X62555179Y-119893179D01*
X62146613Y-119892822D01*
X61769011Y-120048844D01*
X61479860Y-120337492D01*
X61323179Y-120714821D01*
X61322822Y-121123387D01*
X60387259Y-121123387D01*
X62115853Y-119394793D01*
X62144821Y-119406821D01*
X62553387Y-119407178D01*
X62930989Y-119251156D01*
X63220140Y-118962508D01*
X63376821Y-118585179D01*
X63376822Y-118583387D01*
X81642822Y-118583387D01*
X81798844Y-118960989D01*
X82087492Y-119250140D01*
X82464821Y-119406821D01*
X82873387Y-119407178D01*
X83250989Y-119251156D01*
X83540140Y-118962508D01*
X83696821Y-118585179D01*
X83697178Y-118176613D01*
X83541156Y-117799011D01*
X83252508Y-117509860D01*
X82875179Y-117353179D01*
X82466613Y-117352822D01*
X82089011Y-117508844D01*
X81799860Y-117797492D01*
X81643179Y-118174821D01*
X81642822Y-118583387D01*
X63376822Y-118583387D01*
X63377178Y-118176613D01*
X63221156Y-117799011D01*
X62932508Y-117509860D01*
X62555179Y-117353179D01*
X62146613Y-117352822D01*
X61769011Y-117508844D01*
X61479860Y-117797492D01*
X61323179Y-118174821D01*
X61322822Y-118583387D01*
X61335437Y-118613917D01*
X57501988Y-122447366D01*
X57501988Y-121468658D01*
X62115853Y-116854793D01*
X62144821Y-116866821D01*
X62553387Y-116867178D01*
X62930989Y-116711156D01*
X63220140Y-116422508D01*
X63376821Y-116045179D01*
X63376822Y-116043387D01*
X81642822Y-116043387D01*
X81798844Y-116420989D01*
X82087492Y-116710140D01*
X82464821Y-116866821D01*
X82873387Y-116867178D01*
X83250989Y-116711156D01*
X83540140Y-116422508D01*
X83696821Y-116045179D01*
X83697178Y-115636613D01*
X83541156Y-115259011D01*
X83252508Y-114969860D01*
X82875179Y-114813179D01*
X82466613Y-114812822D01*
X82089011Y-114968844D01*
X81799860Y-115257492D01*
X81643179Y-115634821D01*
X81642822Y-116043387D01*
X63376822Y-116043387D01*
X63377178Y-115636613D01*
X63221156Y-115259011D01*
X62932508Y-114969860D01*
X62555179Y-114813179D01*
X62146613Y-114812822D01*
X61769011Y-114968844D01*
X61479860Y-115257492D01*
X61323179Y-115634821D01*
X61322822Y-116043387D01*
X61335437Y-116073917D01*
X56559665Y-120849689D01*
X56440006Y-121028770D01*
X56440006Y-121028771D01*
X56397988Y-121240012D01*
X56397988Y-124733949D01*
X56371156Y-124669011D01*
X56082508Y-124379860D01*
X55705179Y-124223179D01*
X55296613Y-124222822D01*
X54919011Y-124378844D01*
X54629860Y-124667492D01*
X54473179Y-125044821D01*
X54473124Y-125107322D01*
X50565215Y-129015231D01*
X50565212Y-129015233D01*
X50405200Y-129175245D01*
X50405200Y-120295469D01*
X54350794Y-120295469D01*
X54531427Y-120732635D01*
X54865606Y-121067397D01*
X55302456Y-121248793D01*
X55775469Y-121249206D01*
X56212635Y-121068573D01*
X56547397Y-120734394D01*
X56728793Y-120297544D01*
X56729206Y-119824531D01*
X56548573Y-119387365D01*
X56214394Y-119052603D01*
X55777544Y-118871207D01*
X55304531Y-118870794D01*
X54867365Y-119051427D01*
X54532603Y-119385606D01*
X54351207Y-119822456D01*
X54350794Y-120295469D01*
X50405200Y-120295469D01*
X50405200Y-117755469D01*
X54350794Y-117755469D01*
X54531427Y-118192635D01*
X54865606Y-118527397D01*
X55302456Y-118708793D01*
X55775469Y-118709206D01*
X56212635Y-118528573D01*
X56547397Y-118194394D01*
X56728793Y-117757544D01*
X56729206Y-117284531D01*
X56548573Y-116847365D01*
X56214394Y-116512603D01*
X55777544Y-116331207D01*
X55304531Y-116330794D01*
X54867365Y-116511427D01*
X54532603Y-116845606D01*
X54351207Y-117282456D01*
X54350794Y-117755469D01*
X50405200Y-117755469D01*
X50405200Y-115215469D01*
X54350794Y-115215469D01*
X54531427Y-115652635D01*
X54865606Y-115987397D01*
X55302456Y-116168793D01*
X55775469Y-116169206D01*
X56212635Y-115988573D01*
X56547397Y-115654394D01*
X56728793Y-115217544D01*
X56729206Y-114744531D01*
X56548573Y-114307365D01*
X56214394Y-113972603D01*
X55777544Y-113791207D01*
X55304531Y-113790794D01*
X54867365Y-113971427D01*
X54532603Y-114305606D01*
X54351207Y-114742456D01*
X54350794Y-115215469D01*
X50405200Y-115215469D01*
X50405200Y-107152302D01*
X54130856Y-107152302D01*
X54158638Y-107707368D01*
X54317603Y-108091143D01*
X54559787Y-108160608D01*
X55360395Y-107360000D01*
X54559787Y-106559392D01*
X54317603Y-106628857D01*
X54130856Y-107152302D01*
X50405200Y-107152302D01*
X50405200Y-104612302D01*
X54130856Y-104612302D01*
X54158638Y-105167368D01*
X54317603Y-105551143D01*
X54559787Y-105620608D01*
X55360395Y-104820000D01*
X54559787Y-104019392D01*
X54317603Y-104088857D01*
X54130856Y-104612302D01*
X50405200Y-104612302D01*
X50405200Y-94895469D01*
X54350794Y-94895469D01*
X54531427Y-95332635D01*
X54865606Y-95667397D01*
X55302456Y-95848793D01*
X55775469Y-95849206D01*
X56212635Y-95668573D01*
X56547397Y-95334394D01*
X56598219Y-95212000D01*
X85282458Y-95212000D01*
X86718458Y-96648000D01*
X56598418Y-96648000D01*
X56548573Y-96527365D01*
X56214394Y-96192603D01*
X55777544Y-96011207D01*
X55304531Y-96010794D01*
X54867365Y-96191427D01*
X54532603Y-96525606D01*
X54351207Y-96962456D01*
X54350794Y-97435469D01*
X54531427Y-97872635D01*
X54865606Y-98207397D01*
X55302456Y-98388793D01*
X55775469Y-98389206D01*
X56212635Y-98208573D01*
X56547397Y-97874394D01*
X56598219Y-97752000D01*
X58979503Y-97752000D01*
X58735223Y-97915223D01*
X55559429Y-101091017D01*
X55304531Y-101090794D01*
X54867365Y-101271427D01*
X54532603Y-101605606D01*
X54351207Y-102042456D01*
X54350794Y-102515469D01*
X54531427Y-102952635D01*
X54865606Y-103287397D01*
X55225833Y-103436976D01*
X55192632Y-103438638D01*
X54808857Y-103597603D01*
X54739392Y-103839787D01*
X55540000Y-104640395D01*
X55554143Y-104626253D01*
X55733748Y-104805858D01*
X55719605Y-104820000D01*
X55733748Y-104834143D01*
X55554143Y-105013748D01*
X55540000Y-104999605D01*
X54739392Y-105800213D01*
X54808857Y-106042397D01*
X54932344Y-106086453D01*
X54808857Y-106137603D01*
X54739392Y-106379787D01*
X55540000Y-107180395D01*
X55554143Y-107166253D01*
X55733748Y-107345858D01*
X55719605Y-107360000D01*
X55733748Y-107374143D01*
X55554143Y-107553748D01*
X55540000Y-107539605D01*
X54739392Y-108340213D01*
X54808857Y-108582397D01*
X55241615Y-108736790D01*
X54867365Y-108891427D01*
X54532603Y-109225606D01*
X54351207Y-109662456D01*
X54350794Y-110135469D01*
X54531427Y-110572635D01*
X54865606Y-110907397D01*
X55302456Y-111088793D01*
X55721287Y-111089159D01*
X55717224Y-111093222D01*
X55717221Y-111093224D01*
X55559429Y-111251017D01*
X55304531Y-111250794D01*
X54867365Y-111431427D01*
X54532603Y-111765606D01*
X54351207Y-112202456D01*
X54350794Y-112675469D01*
X54531427Y-113112635D01*
X54865606Y-113447397D01*
X55302456Y-113628793D01*
X55775469Y-113629206D01*
X56079974Y-113503387D01*
X61322822Y-113503387D01*
X61478844Y-113880989D01*
X61767492Y-114170140D01*
X62144821Y-114326821D01*
X62553387Y-114327178D01*
X62930989Y-114171156D01*
X63220140Y-113882508D01*
X63376821Y-113505179D01*
X63376822Y-113503387D01*
X81642822Y-113503387D01*
X81798844Y-113880989D01*
X82087492Y-114170140D01*
X82464821Y-114326821D01*
X82873387Y-114327178D01*
X83250989Y-114171156D01*
X83540140Y-113882508D01*
X83696821Y-113505179D01*
X83697178Y-113096613D01*
X83541156Y-112719011D01*
X83252508Y-112429860D01*
X82875179Y-112273179D01*
X82466613Y-112272822D01*
X82089011Y-112428844D01*
X81799860Y-112717492D01*
X81643179Y-113094821D01*
X81642822Y-113503387D01*
X63376822Y-113503387D01*
X63377178Y-113096613D01*
X63221156Y-112719011D01*
X62932508Y-112429860D01*
X62555179Y-112273179D01*
X62146613Y-112272822D01*
X61769011Y-112428844D01*
X61479860Y-112717492D01*
X61323179Y-113094821D01*
X61322822Y-113503387D01*
X56079974Y-113503387D01*
X56212635Y-113448573D01*
X56547397Y-113114394D01*
X56728793Y-112677544D01*
X56729017Y-112420537D01*
X56886776Y-112262779D01*
X56886778Y-112262776D01*
X57886778Y-111262777D01*
X58066049Y-110994478D01*
X58072233Y-110963387D01*
X61322822Y-110963387D01*
X61478844Y-111340989D01*
X61767492Y-111630140D01*
X62144821Y-111786821D01*
X62553387Y-111787178D01*
X62930989Y-111631156D01*
X63220140Y-111342508D01*
X63376821Y-110965179D01*
X63376822Y-110963387D01*
X81642822Y-110963387D01*
X81798844Y-111340989D01*
X82087492Y-111630140D01*
X82464821Y-111786821D01*
X82873387Y-111787178D01*
X83250989Y-111631156D01*
X83540140Y-111342508D01*
X83696821Y-110965179D01*
X83697178Y-110556613D01*
X83541156Y-110179011D01*
X83252508Y-109889860D01*
X82875179Y-109733179D01*
X82466613Y-109732822D01*
X82089011Y-109888844D01*
X81799860Y-110177492D01*
X81643179Y-110554821D01*
X81642822Y-110963387D01*
X63376822Y-110963387D01*
X63377178Y-110556613D01*
X63221156Y-110179011D01*
X62932508Y-109889860D01*
X62555179Y-109733179D01*
X62146613Y-109732822D01*
X61769011Y-109888844D01*
X61479860Y-110177492D01*
X61323179Y-110554821D01*
X61322822Y-110963387D01*
X58072233Y-110963387D01*
X58129001Y-110677999D01*
X58129001Y-108423387D01*
X61322822Y-108423387D01*
X61478844Y-108800989D01*
X61767492Y-109090140D01*
X62144821Y-109246821D01*
X62553387Y-109247178D01*
X62930989Y-109091156D01*
X63220140Y-108802508D01*
X63376821Y-108425179D01*
X63376822Y-108423387D01*
X81642822Y-108423387D01*
X81798844Y-108800989D01*
X82087492Y-109090140D01*
X82464821Y-109246821D01*
X82873387Y-109247178D01*
X83250989Y-109091156D01*
X83540140Y-108802508D01*
X83696821Y-108425179D01*
X83697178Y-108016613D01*
X83541156Y-107639011D01*
X83252508Y-107349860D01*
X82875179Y-107193179D01*
X82466613Y-107192822D01*
X82089011Y-107348844D01*
X81799860Y-107637492D01*
X81643179Y-108014821D01*
X81642822Y-108423387D01*
X63376822Y-108423387D01*
X63377178Y-108016613D01*
X63221156Y-107639011D01*
X62932508Y-107349860D01*
X62555179Y-107193179D01*
X62146613Y-107192822D01*
X61769011Y-107348844D01*
X61479860Y-107637492D01*
X61323179Y-108014821D01*
X61322822Y-108423387D01*
X58129001Y-108423387D01*
X58129001Y-105883387D01*
X61322822Y-105883387D01*
X61478844Y-106260989D01*
X61767492Y-106550140D01*
X62144821Y-106706821D01*
X62553387Y-106707178D01*
X62930989Y-106551156D01*
X63220140Y-106262508D01*
X63376821Y-105885179D01*
X63377178Y-105476613D01*
X63221156Y-105099011D01*
X62932508Y-104809860D01*
X62555179Y-104653179D01*
X62146613Y-104652822D01*
X61769011Y-104808844D01*
X61479860Y-105097492D01*
X61323179Y-105474821D01*
X61322822Y-105883387D01*
X58129001Y-105883387D01*
X58129001Y-104042001D01*
X58066049Y-103725522D01*
X58063020Y-103720989D01*
X57886779Y-103457224D01*
X57772942Y-103343387D01*
X61322822Y-103343387D01*
X61478844Y-103720989D01*
X61767492Y-104010140D01*
X62144821Y-104166821D01*
X62553387Y-104167178D01*
X62930989Y-104011156D01*
X63220140Y-103722508D01*
X63376821Y-103345179D01*
X63377178Y-102936613D01*
X63221156Y-102559011D01*
X62932508Y-102269860D01*
X62555179Y-102113179D01*
X62146613Y-102112822D01*
X61769011Y-102268844D01*
X61479860Y-102557492D01*
X61323179Y-102934821D01*
X61322822Y-103343387D01*
X57772942Y-103343387D01*
X56728983Y-102299429D01*
X56729017Y-102260537D01*
X58239554Y-100750000D01*
X75673000Y-100750000D01*
X75735952Y-101066479D01*
X75915223Y-101334777D01*
X76183521Y-101514048D01*
X76500000Y-101577000D01*
X82295448Y-101577000D01*
X82831589Y-102113141D01*
X82466613Y-102112822D01*
X82089011Y-102268844D01*
X81799860Y-102557492D01*
X81643179Y-102934821D01*
X81642822Y-103343387D01*
X81798844Y-103720989D01*
X82087492Y-104010140D01*
X82464821Y-104166821D01*
X82873387Y-104167178D01*
X83250989Y-104011156D01*
X83540140Y-103722508D01*
X83696821Y-103345179D01*
X83697141Y-102978693D01*
X84923000Y-104204552D01*
X84923000Y-114225030D01*
X84866680Y-114088725D01*
X84802000Y-114023932D01*
X84802000Y-107260000D01*
X84759982Y-107048759D01*
X84640323Y-106869677D01*
X83684793Y-105914147D01*
X83696821Y-105885179D01*
X83697178Y-105476613D01*
X83541156Y-105099011D01*
X83252508Y-104809860D01*
X82875179Y-104653179D01*
X82466613Y-104652822D01*
X82089011Y-104808844D01*
X81799860Y-105097492D01*
X81643179Y-105474821D01*
X81642822Y-105883387D01*
X81798844Y-106260989D01*
X82087492Y-106550140D01*
X82464821Y-106706821D01*
X82873387Y-106707178D01*
X82903917Y-106694563D01*
X83698000Y-107488646D01*
X83698000Y-114023800D01*
X83634039Y-114087650D01*
X83523126Y-114354756D01*
X83522874Y-114643975D01*
X83633320Y-114911275D01*
X83837650Y-115115961D01*
X84104756Y-115226874D01*
X84393975Y-115227126D01*
X84661275Y-115116680D01*
X84865961Y-114912350D01*
X84923000Y-114774986D01*
X84923000Y-122920000D01*
X84985952Y-123236479D01*
X85165223Y-123504777D01*
X87812875Y-126152429D01*
X87812822Y-126213387D01*
X87968844Y-126590989D01*
X88257492Y-126880140D01*
X88634821Y-127036821D01*
X89043387Y-127037178D01*
X89420989Y-126881156D01*
X89710140Y-126592508D01*
X89866821Y-126215179D01*
X89867178Y-125806613D01*
X89711156Y-125429011D01*
X89422508Y-125139860D01*
X89045179Y-124983179D01*
X88982678Y-124983124D01*
X88398065Y-124398511D01*
X88634821Y-124496821D01*
X89043387Y-124497178D01*
X89420989Y-124341156D01*
X89710140Y-124052508D01*
X89866821Y-123675179D01*
X89867178Y-123266613D01*
X89711156Y-122889011D01*
X89422508Y-122599860D01*
X89045179Y-122443179D01*
X88636613Y-122442822D01*
X88259011Y-122598844D01*
X87969860Y-122887492D01*
X87813179Y-123264821D01*
X87812822Y-123673387D01*
X87911317Y-123911763D01*
X86577000Y-122577446D01*
X86577000Y-121133387D01*
X87812822Y-121133387D01*
X87968844Y-121510989D01*
X88257492Y-121800140D01*
X88634821Y-121956821D01*
X89043387Y-121957178D01*
X89420989Y-121801156D01*
X89710140Y-121512508D01*
X89866821Y-121135179D01*
X89867178Y-120726613D01*
X89711156Y-120349011D01*
X89422508Y-120059860D01*
X89045179Y-119903179D01*
X88636613Y-119902822D01*
X88259011Y-120058844D01*
X87969860Y-120347492D01*
X87813179Y-120724821D01*
X87812822Y-121133387D01*
X86577000Y-121133387D01*
X86577000Y-118593387D01*
X87812822Y-118593387D01*
X87968844Y-118970989D01*
X88257492Y-119260140D01*
X88634821Y-119416821D01*
X89043387Y-119417178D01*
X89420989Y-119261156D01*
X89710140Y-118972508D01*
X89866821Y-118595179D01*
X89867178Y-118186613D01*
X89711156Y-117809011D01*
X89422508Y-117519860D01*
X89045179Y-117363179D01*
X88636613Y-117362822D01*
X88259011Y-117518844D01*
X87969860Y-117807492D01*
X87813179Y-118184821D01*
X87812822Y-118593387D01*
X86577000Y-118593387D01*
X86577000Y-116053387D01*
X87812822Y-116053387D01*
X87968844Y-116430989D01*
X88257492Y-116720140D01*
X88634821Y-116876821D01*
X89043387Y-116877178D01*
X89420989Y-116721156D01*
X89710140Y-116432508D01*
X89866821Y-116055179D01*
X89867178Y-115646613D01*
X89711156Y-115269011D01*
X89422508Y-114979860D01*
X89045179Y-114823179D01*
X88636613Y-114822822D01*
X88259011Y-114978844D01*
X87969860Y-115267492D01*
X87813179Y-115644821D01*
X87812822Y-116053387D01*
X86577000Y-116053387D01*
X86577000Y-113513387D01*
X87812822Y-113513387D01*
X87968844Y-113890989D01*
X88257492Y-114180140D01*
X88634821Y-114336821D01*
X89043387Y-114337178D01*
X89420989Y-114181156D01*
X89710140Y-113892508D01*
X89866821Y-113515179D01*
X89867178Y-113106613D01*
X89711156Y-112729011D01*
X89422508Y-112439860D01*
X89045179Y-112283179D01*
X88636613Y-112282822D01*
X88259011Y-112438844D01*
X87969860Y-112727492D01*
X87813179Y-113104821D01*
X87812822Y-113513387D01*
X86577000Y-113513387D01*
X86577000Y-110973387D01*
X87812822Y-110973387D01*
X87968844Y-111350989D01*
X88257492Y-111640140D01*
X88634821Y-111796821D01*
X89043387Y-111797178D01*
X89420989Y-111641156D01*
X89710140Y-111352508D01*
X89866821Y-110975179D01*
X89867178Y-110566613D01*
X89711156Y-110189011D01*
X89422508Y-109899860D01*
X89045179Y-109743179D01*
X88636613Y-109742822D01*
X88259011Y-109898844D01*
X87969860Y-110187492D01*
X87813179Y-110564821D01*
X87812822Y-110973387D01*
X86577000Y-110973387D01*
X86577000Y-108433387D01*
X87812822Y-108433387D01*
X87968844Y-108810989D01*
X88257492Y-109100140D01*
X88634821Y-109256821D01*
X89043387Y-109257178D01*
X89420989Y-109101156D01*
X89710140Y-108812508D01*
X89866821Y-108435179D01*
X89867178Y-108026613D01*
X89711156Y-107649011D01*
X89422508Y-107359860D01*
X89045179Y-107203179D01*
X88636613Y-107202822D01*
X88259011Y-107358844D01*
X87969860Y-107647492D01*
X87813179Y-108024821D01*
X87812822Y-108433387D01*
X86577000Y-108433387D01*
X86577000Y-103861998D01*
X86514048Y-103545519D01*
X86334777Y-103277221D01*
X83222779Y-100165223D01*
X82954481Y-99985952D01*
X82638002Y-99923000D01*
X76500000Y-99923000D01*
X76183521Y-99985952D01*
X75915223Y-100165223D01*
X75735952Y-100433521D01*
X75673000Y-100750000D01*
X58239554Y-100750000D01*
X59662554Y-99327000D01*
X86215448Y-99327000D01*
X89011597Y-102123150D01*
X88636613Y-102122822D01*
X88259011Y-102278844D01*
X87969860Y-102567492D01*
X87813179Y-102944821D01*
X87812822Y-103353387D01*
X87968844Y-103730989D01*
X88257492Y-104020140D01*
X88634821Y-104176821D01*
X89043387Y-104177178D01*
X89073917Y-104164563D01*
X96147990Y-111238636D01*
X96147990Y-111915840D01*
X96084029Y-111979690D01*
X96027631Y-112115511D01*
X95990323Y-112059677D01*
X89854793Y-105924147D01*
X89866821Y-105895179D01*
X89867178Y-105486613D01*
X89711156Y-105109011D01*
X89422508Y-104819860D01*
X89045179Y-104663179D01*
X88636613Y-104662822D01*
X88259011Y-104818844D01*
X87969860Y-105107492D01*
X87813179Y-105484821D01*
X87812822Y-105893387D01*
X87968844Y-106270989D01*
X88257492Y-106560140D01*
X88634821Y-106716821D01*
X89043387Y-106717178D01*
X89073917Y-106704563D01*
X95048000Y-112678646D01*
X95048000Y-113323800D01*
X94984039Y-113387650D01*
X94873126Y-113654756D01*
X94872874Y-113943975D01*
X94983320Y-114211275D01*
X95187650Y-114415961D01*
X95454756Y-114526874D01*
X95743975Y-114527126D01*
X96011275Y-114416680D01*
X96215961Y-114212350D01*
X96326874Y-113945244D01*
X96327126Y-113656025D01*
X96216680Y-113388725D01*
X96152000Y-113323932D01*
X96152000Y-112872125D01*
X96287640Y-113008001D01*
X96554746Y-113118914D01*
X96843965Y-113119166D01*
X97111265Y-113008720D01*
X97315951Y-112804390D01*
X97426864Y-112537284D01*
X97427116Y-112248065D01*
X97316670Y-111980765D01*
X97251990Y-111915972D01*
X97251990Y-111009990D01*
X97209972Y-110798749D01*
X97090313Y-110619667D01*
X89854793Y-103384147D01*
X89866821Y-103355179D01*
X89867150Y-102978702D01*
X97673000Y-110784553D01*
X97673000Y-133675604D01*
X97735952Y-133992083D01*
X97915223Y-134260381D01*
X102949619Y-139294777D01*
X103217917Y-139474048D01*
X103534396Y-139537000D01*
X108534427Y-139537000D01*
X108577492Y-139580140D01*
X108954821Y-139736821D01*
X109363387Y-139737178D01*
X109740989Y-139581156D01*
X110030140Y-139292508D01*
X110186821Y-138915179D01*
X110187178Y-138506613D01*
X110174563Y-138476083D01*
X110875324Y-137775322D01*
X110936892Y-137683179D01*
X110994983Y-137596240D01*
X111037001Y-137384999D01*
X111037001Y-124795001D01*
X110994983Y-124583760D01*
X110994983Y-124583759D01*
X110875324Y-124404678D01*
X110174793Y-123704147D01*
X110186821Y-123675179D01*
X110187178Y-123266613D01*
X110031156Y-122889011D01*
X109742508Y-122599860D01*
X109365179Y-122443179D01*
X108956613Y-122442822D01*
X108579011Y-122598844D01*
X108289860Y-122887492D01*
X108133179Y-123264821D01*
X108132822Y-123673387D01*
X108288844Y-124050989D01*
X108577492Y-124340140D01*
X108954821Y-124496821D01*
X109363387Y-124497178D01*
X109393917Y-124484563D01*
X109933001Y-125023647D01*
X109933001Y-125330685D01*
X109742508Y-125139860D01*
X109365179Y-124983179D01*
X108956613Y-124982822D01*
X108579011Y-125138844D01*
X108289860Y-125427492D01*
X108133179Y-125804821D01*
X108132822Y-126213387D01*
X108288844Y-126590989D01*
X108577492Y-126880140D01*
X108954821Y-127036821D01*
X109363387Y-127037178D01*
X109740989Y-126881156D01*
X109933001Y-126689478D01*
X109933001Y-127870685D01*
X109742508Y-127679860D01*
X109365179Y-127523179D01*
X108956613Y-127522822D01*
X108579011Y-127678844D01*
X108289860Y-127967492D01*
X108133179Y-128344821D01*
X108132822Y-128753387D01*
X108145437Y-128783917D01*
X106231354Y-130698000D01*
X102978646Y-130698000D01*
X101720115Y-129439469D01*
X102610794Y-129439469D01*
X102791427Y-129876635D01*
X103125606Y-130211397D01*
X103562456Y-130392793D01*
X104035469Y-130393206D01*
X104472635Y-130212573D01*
X104807397Y-129878394D01*
X104988793Y-129441544D01*
X104989206Y-128968531D01*
X104808573Y-128531365D01*
X104474394Y-128196603D01*
X104037544Y-128015207D01*
X103564531Y-128014794D01*
X103127365Y-128195427D01*
X102792603Y-128529606D01*
X102611207Y-128966456D01*
X102610794Y-129439469D01*
X101720115Y-129439469D01*
X101027022Y-128746376D01*
X101027022Y-126899469D01*
X102610794Y-126899469D01*
X102791427Y-127336635D01*
X103125606Y-127671397D01*
X103562456Y-127852793D01*
X104035469Y-127853206D01*
X104472635Y-127672573D01*
X104807397Y-127338394D01*
X104988793Y-126901544D01*
X104989206Y-126428531D01*
X104808573Y-125991365D01*
X104474394Y-125656603D01*
X104037544Y-125475207D01*
X103564531Y-125474794D01*
X103127365Y-125655427D01*
X102792603Y-125989606D01*
X102611207Y-126426456D01*
X102610794Y-126899469D01*
X101027022Y-126899469D01*
X101027022Y-124359469D01*
X102610794Y-124359469D01*
X102791427Y-124796635D01*
X103125606Y-125131397D01*
X103562456Y-125312793D01*
X104035469Y-125313206D01*
X104472635Y-125132573D01*
X104807397Y-124798394D01*
X104988793Y-124361544D01*
X104989206Y-123888531D01*
X104808573Y-123451365D01*
X104474394Y-123116603D01*
X104037544Y-122935207D01*
X103564531Y-122934794D01*
X103127365Y-123115427D01*
X102792603Y-123449606D01*
X102611207Y-123886456D01*
X102610794Y-124359469D01*
X101027022Y-124359469D01*
X101027022Y-121819469D01*
X102610794Y-121819469D01*
X102791427Y-122256635D01*
X103125606Y-122591397D01*
X103562456Y-122772793D01*
X104035469Y-122773206D01*
X104472635Y-122592573D01*
X104807397Y-122258394D01*
X104988793Y-121821544D01*
X104989206Y-121348531D01*
X104900311Y-121133387D01*
X108132822Y-121133387D01*
X108288844Y-121510989D01*
X108577492Y-121800140D01*
X108954821Y-121956821D01*
X109363387Y-121957178D01*
X109740989Y-121801156D01*
X110030140Y-121512508D01*
X110186821Y-121135179D01*
X110187178Y-120726613D01*
X110031156Y-120349011D01*
X109742508Y-120059860D01*
X109365179Y-119903179D01*
X108956613Y-119902822D01*
X108579011Y-120058844D01*
X108289860Y-120347492D01*
X108133179Y-120724821D01*
X108132822Y-121133387D01*
X104900311Y-121133387D01*
X104808573Y-120911365D01*
X104474394Y-120576603D01*
X104037544Y-120395207D01*
X103564531Y-120394794D01*
X103127365Y-120575427D01*
X102792603Y-120909606D01*
X102611207Y-121346456D01*
X102610794Y-121819469D01*
X101027022Y-121819469D01*
X101027022Y-119279469D01*
X102610794Y-119279469D01*
X102791427Y-119716635D01*
X103125606Y-120051397D01*
X103562456Y-120232793D01*
X104035469Y-120233206D01*
X104472635Y-120052573D01*
X104807397Y-119718394D01*
X104988793Y-119281544D01*
X104989206Y-118808531D01*
X104900311Y-118593387D01*
X108132822Y-118593387D01*
X108288844Y-118970989D01*
X108577492Y-119260140D01*
X108954821Y-119416821D01*
X109363387Y-119417178D01*
X109740989Y-119261156D01*
X110030140Y-118972508D01*
X110186821Y-118595179D01*
X110187178Y-118186613D01*
X110031156Y-117809011D01*
X109742508Y-117519860D01*
X109365179Y-117363179D01*
X108956613Y-117362822D01*
X108579011Y-117518844D01*
X108289860Y-117807492D01*
X108133179Y-118184821D01*
X108132822Y-118593387D01*
X104900311Y-118593387D01*
X104808573Y-118371365D01*
X104474394Y-118036603D01*
X104037544Y-117855207D01*
X103564531Y-117854794D01*
X103127365Y-118035427D01*
X102792603Y-118369606D01*
X102611207Y-118806456D01*
X102610794Y-119279469D01*
X101027022Y-119279469D01*
X101027022Y-116739469D01*
X102610794Y-116739469D01*
X102791427Y-117176635D01*
X103125606Y-117511397D01*
X103562456Y-117692793D01*
X104035469Y-117693206D01*
X104472635Y-117512573D01*
X104807397Y-117178394D01*
X104988793Y-116741544D01*
X104989206Y-116268531D01*
X104900311Y-116053387D01*
X108132822Y-116053387D01*
X108288844Y-116430989D01*
X108577492Y-116720140D01*
X108954821Y-116876821D01*
X109363387Y-116877178D01*
X109740989Y-116721156D01*
X110030140Y-116432508D01*
X110186821Y-116055179D01*
X110187178Y-115646613D01*
X110031156Y-115269011D01*
X109742508Y-114979860D01*
X109365179Y-114823179D01*
X108956613Y-114822822D01*
X108579011Y-114978844D01*
X108289860Y-115267492D01*
X108133179Y-115644821D01*
X108132822Y-116053387D01*
X104900311Y-116053387D01*
X104808573Y-115831365D01*
X104474394Y-115496603D01*
X104037544Y-115315207D01*
X103564531Y-115314794D01*
X103127365Y-115495427D01*
X102792603Y-115829606D01*
X102611207Y-116266456D01*
X102610794Y-116739469D01*
X101027022Y-116739469D01*
X101027022Y-114199469D01*
X102610794Y-114199469D01*
X102791427Y-114636635D01*
X103125606Y-114971397D01*
X103562456Y-115152793D01*
X104035469Y-115153206D01*
X104472635Y-114972573D01*
X104807397Y-114638394D01*
X104988793Y-114201544D01*
X104989206Y-113728531D01*
X104900311Y-113513387D01*
X108132822Y-113513387D01*
X108288844Y-113890989D01*
X108577492Y-114180140D01*
X108954821Y-114336821D01*
X109363387Y-114337178D01*
X109740989Y-114181156D01*
X110030140Y-113892508D01*
X110186821Y-113515179D01*
X110187178Y-113106613D01*
X110031156Y-112729011D01*
X109742508Y-112439860D01*
X109365179Y-112283179D01*
X108956613Y-112282822D01*
X108579011Y-112438844D01*
X108289860Y-112727492D01*
X108133179Y-113104821D01*
X108132822Y-113513387D01*
X104900311Y-113513387D01*
X104808573Y-113291365D01*
X104474394Y-112956603D01*
X104037544Y-112775207D01*
X103564531Y-112774794D01*
X103127365Y-112955427D01*
X102792603Y-113289606D01*
X102611207Y-113726456D01*
X102610794Y-114199469D01*
X101027022Y-114199469D01*
X101027022Y-111659469D01*
X102610794Y-111659469D01*
X102791427Y-112096635D01*
X103125606Y-112431397D01*
X103562456Y-112612793D01*
X104035469Y-112613206D01*
X104472635Y-112432573D01*
X104807397Y-112098394D01*
X104988793Y-111661544D01*
X104989206Y-111188531D01*
X104900311Y-110973387D01*
X108132822Y-110973387D01*
X108288844Y-111350989D01*
X108577492Y-111640140D01*
X108954821Y-111796821D01*
X109363387Y-111797178D01*
X109740989Y-111641156D01*
X110030140Y-111352508D01*
X110186821Y-110975179D01*
X110187178Y-110566613D01*
X110031156Y-110189011D01*
X109742508Y-109899860D01*
X109365179Y-109743179D01*
X108956613Y-109742822D01*
X108579011Y-109898844D01*
X108289860Y-110187492D01*
X108133179Y-110564821D01*
X108132822Y-110973387D01*
X104900311Y-110973387D01*
X104808573Y-110751365D01*
X104474394Y-110416603D01*
X104037544Y-110235207D01*
X103564531Y-110234794D01*
X103127365Y-110415427D01*
X102792603Y-110749606D01*
X102611207Y-111186456D01*
X102610794Y-111659469D01*
X101027022Y-111659469D01*
X101027022Y-109623918D01*
X100985004Y-109412677D01*
X100985004Y-109412676D01*
X100865345Y-109233595D01*
X100751219Y-109119469D01*
X102610794Y-109119469D01*
X102791427Y-109556635D01*
X103125606Y-109891397D01*
X103562456Y-110072793D01*
X104035469Y-110073206D01*
X104472635Y-109892573D01*
X104807397Y-109558394D01*
X104988793Y-109121544D01*
X104989206Y-108648531D01*
X104900311Y-108433387D01*
X108132822Y-108433387D01*
X108288844Y-108810989D01*
X108577492Y-109100140D01*
X108954821Y-109256821D01*
X109363387Y-109257178D01*
X109740989Y-109101156D01*
X110030140Y-108812508D01*
X110186821Y-108435179D01*
X110187178Y-108026613D01*
X110031156Y-107649011D01*
X109742508Y-107359860D01*
X109365179Y-107203179D01*
X108956613Y-107202822D01*
X108579011Y-107358844D01*
X108289860Y-107647492D01*
X108133179Y-108024821D01*
X108132822Y-108433387D01*
X104900311Y-108433387D01*
X104808573Y-108211365D01*
X104474394Y-107876603D01*
X104037544Y-107695207D01*
X103564531Y-107694794D01*
X103127365Y-107875427D01*
X102792603Y-108209606D01*
X102611207Y-108646456D01*
X102610794Y-109119469D01*
X100751219Y-109119469D01*
X98211219Y-106579469D01*
X102610794Y-106579469D01*
X102791427Y-107016635D01*
X103125606Y-107351397D01*
X103562456Y-107532793D01*
X104035469Y-107533206D01*
X104472635Y-107352573D01*
X104807397Y-107018394D01*
X104988793Y-106581544D01*
X104989206Y-106108531D01*
X104900311Y-105893387D01*
X108132822Y-105893387D01*
X108288844Y-106270989D01*
X108577492Y-106560140D01*
X108954821Y-106716821D01*
X109363387Y-106717178D01*
X109740989Y-106561156D01*
X110030140Y-106272508D01*
X110186821Y-105895179D01*
X110187178Y-105486613D01*
X110031156Y-105109011D01*
X109742508Y-104819860D01*
X109365179Y-104663179D01*
X108956613Y-104662822D01*
X108579011Y-104818844D01*
X108289860Y-105107492D01*
X108133179Y-105484821D01*
X108132822Y-105893387D01*
X104900311Y-105893387D01*
X104808573Y-105671365D01*
X104474394Y-105336603D01*
X104037544Y-105155207D01*
X103564531Y-105154794D01*
X103127365Y-105335427D01*
X102792603Y-105669606D01*
X102611207Y-106106456D01*
X102610794Y-106579469D01*
X98211219Y-106579469D01*
X94147219Y-102515469D01*
X102610794Y-102515469D01*
X102791427Y-102952635D01*
X103125606Y-103287397D01*
X103562456Y-103468793D01*
X104035469Y-103469206D01*
X104315772Y-103353387D01*
X108132822Y-103353387D01*
X108288844Y-103730989D01*
X108577492Y-104020140D01*
X108954821Y-104176821D01*
X109363387Y-104177178D01*
X109740989Y-104021156D01*
X110030140Y-103732508D01*
X110186821Y-103355179D01*
X110187178Y-102946613D01*
X110031156Y-102569011D01*
X109742508Y-102279860D01*
X109365179Y-102123179D01*
X108956613Y-102122822D01*
X108579011Y-102278844D01*
X108289860Y-102567492D01*
X108133179Y-102944821D01*
X108132822Y-103353387D01*
X104315772Y-103353387D01*
X104472635Y-103288573D01*
X104807397Y-102954394D01*
X104988793Y-102517544D01*
X104989206Y-102044531D01*
X104808573Y-101607365D01*
X104474394Y-101272603D01*
X104037544Y-101091207D01*
X103564531Y-101090794D01*
X103127365Y-101271427D01*
X102792603Y-101605606D01*
X102611207Y-102042456D01*
X102610794Y-102515469D01*
X94147219Y-102515469D01*
X91607219Y-99975469D01*
X102610794Y-99975469D01*
X102791427Y-100412635D01*
X103125606Y-100747397D01*
X103562456Y-100928793D01*
X104035469Y-100929206D01*
X104472635Y-100748573D01*
X104807397Y-100414394D01*
X104988793Y-99977544D01*
X104989206Y-99504531D01*
X104808573Y-99067365D01*
X104474394Y-98732603D01*
X104037544Y-98551207D01*
X103564531Y-98550794D01*
X103127365Y-98731427D01*
X102792603Y-99065606D01*
X102611207Y-99502456D01*
X102610794Y-99975469D01*
X91607219Y-99975469D01*
X89067219Y-97435469D01*
X102610794Y-97435469D01*
X102791427Y-97872635D01*
X103125606Y-98207397D01*
X103562456Y-98388793D01*
X104035469Y-98389206D01*
X104472635Y-98208573D01*
X104807397Y-97874394D01*
X104988793Y-97437544D01*
X104989206Y-96964531D01*
X104808573Y-96527365D01*
X104474394Y-96192603D01*
X104037544Y-96011207D01*
X103564531Y-96010794D01*
X103127365Y-96191427D01*
X102792603Y-96525606D01*
X102611207Y-96962456D01*
X102610794Y-97435469D01*
X89067219Y-97435469D01*
X86527219Y-94895469D01*
X102610794Y-94895469D01*
X102791427Y-95332635D01*
X103125606Y-95667397D01*
X103562456Y-95848793D01*
X104035469Y-95849206D01*
X104472635Y-95668573D01*
X104807397Y-95334394D01*
X104988793Y-94897544D01*
X104989206Y-94424531D01*
X104808573Y-93987365D01*
X104474394Y-93652603D01*
X104037544Y-93471207D01*
X103564531Y-93470794D01*
X103127365Y-93651427D01*
X102792603Y-93985606D01*
X102611207Y-94422456D01*
X102610794Y-94895469D01*
X86527219Y-94895469D01*
X85901427Y-94269677D01*
X85722346Y-94150018D01*
X85511104Y-94108000D01*
X56598418Y-94108000D01*
X56548573Y-93987365D01*
X56214394Y-93652603D01*
X55777544Y-93471207D01*
X55304531Y-93470794D01*
X54867365Y-93651427D01*
X54532603Y-93985606D01*
X54351207Y-94422456D01*
X54350794Y-94895469D01*
X50405200Y-94895469D01*
X50405200Y-92355469D01*
X54350794Y-92355469D01*
X54531427Y-92792635D01*
X54865606Y-93127397D01*
X55302456Y-93308793D01*
X55775469Y-93309206D01*
X56212635Y-93128573D01*
X56547397Y-92794394D01*
X56728793Y-92357544D01*
X56728794Y-92355469D01*
X102610794Y-92355469D01*
X102791427Y-92792635D01*
X103125606Y-93127397D01*
X103562456Y-93308793D01*
X104035469Y-93309206D01*
X104472635Y-93128573D01*
X104807397Y-92794394D01*
X104988793Y-92357544D01*
X104989206Y-91884531D01*
X104808573Y-91447365D01*
X104474394Y-91112603D01*
X104037544Y-90931207D01*
X103564531Y-90930794D01*
X103127365Y-91111427D01*
X102792603Y-91445606D01*
X102611207Y-91882456D01*
X102610794Y-92355469D01*
X56728794Y-92355469D01*
X56729206Y-91884531D01*
X56548573Y-91447365D01*
X56214394Y-91112603D01*
X55777544Y-90931207D01*
X55304531Y-90930794D01*
X54867365Y-91111427D01*
X54532603Y-91445606D01*
X54351207Y-91882456D01*
X54350794Y-92355469D01*
X50405200Y-92355469D01*
X50405200Y-89815469D01*
X54350794Y-89815469D01*
X54531427Y-90252635D01*
X54865606Y-90587397D01*
X55302456Y-90768793D01*
X55775469Y-90769206D01*
X56212635Y-90588573D01*
X56547397Y-90254394D01*
X56728793Y-89817544D01*
X56728794Y-89815469D01*
X102610794Y-89815469D01*
X102791427Y-90252635D01*
X103125606Y-90587397D01*
X103562456Y-90768793D01*
X104035469Y-90769206D01*
X104472635Y-90588573D01*
X104807397Y-90254394D01*
X104988793Y-89817544D01*
X104989206Y-89344531D01*
X104808573Y-88907365D01*
X104474394Y-88572603D01*
X104037544Y-88391207D01*
X103564531Y-88390794D01*
X103127365Y-88571427D01*
X102792603Y-88905606D01*
X102611207Y-89342456D01*
X102610794Y-89815469D01*
X56728794Y-89815469D01*
X56729206Y-89344531D01*
X56548573Y-88907365D01*
X56214394Y-88572603D01*
X55777544Y-88391207D01*
X55304531Y-88390794D01*
X54867365Y-88571427D01*
X54532603Y-88905606D01*
X54351207Y-89342456D01*
X54350794Y-89815469D01*
X50405200Y-89815469D01*
X50405200Y-87275469D01*
X54350794Y-87275469D01*
X54531427Y-87712635D01*
X54865606Y-88047397D01*
X55302456Y-88228793D01*
X55775469Y-88229206D01*
X56212635Y-88048573D01*
X56547397Y-87714394D01*
X56728793Y-87277544D01*
X56728794Y-87275469D01*
X102610794Y-87275469D01*
X102791427Y-87712635D01*
X103125606Y-88047397D01*
X103562456Y-88228793D01*
X104035469Y-88229206D01*
X104472635Y-88048573D01*
X104807397Y-87714394D01*
X104988793Y-87277544D01*
X104989206Y-86804531D01*
X104808573Y-86367365D01*
X104474394Y-86032603D01*
X104037544Y-85851207D01*
X103564531Y-85850794D01*
X103127365Y-86031427D01*
X102792603Y-86365606D01*
X102611207Y-86802456D01*
X102610794Y-87275469D01*
X56728794Y-87275469D01*
X56729206Y-86804531D01*
X56548573Y-86367365D01*
X56214394Y-86032603D01*
X55777544Y-85851207D01*
X55304531Y-85850794D01*
X54867365Y-86031427D01*
X54532603Y-86365606D01*
X54351207Y-86802456D01*
X54350794Y-87275469D01*
X50405200Y-87275469D01*
X50405200Y-84735469D01*
X54350794Y-84735469D01*
X54531427Y-85172635D01*
X54865606Y-85507397D01*
X55302456Y-85688793D01*
X55775469Y-85689206D01*
X56212635Y-85508573D01*
X56547397Y-85174394D01*
X56728793Y-84737544D01*
X56728794Y-84735469D01*
X102610794Y-84735469D01*
X102791427Y-85172635D01*
X103125606Y-85507397D01*
X103562456Y-85688793D01*
X104035469Y-85689206D01*
X104472635Y-85508573D01*
X104807397Y-85174394D01*
X104988793Y-84737544D01*
X104989206Y-84264531D01*
X104808573Y-83827365D01*
X104474394Y-83492603D01*
X104037544Y-83311207D01*
X103564531Y-83310794D01*
X103127365Y-83491427D01*
X102792603Y-83825606D01*
X102611207Y-84262456D01*
X102610794Y-84735469D01*
X56728794Y-84735469D01*
X56729206Y-84264531D01*
X56548573Y-83827365D01*
X56214394Y-83492603D01*
X55777544Y-83311207D01*
X55304531Y-83310794D01*
X54867365Y-83491427D01*
X54532603Y-83825606D01*
X54351207Y-84262456D01*
X54350794Y-84735469D01*
X50405200Y-84735469D01*
X50405200Y-82035750D01*
X107515000Y-82035750D01*
X107515000Y-82726310D01*
X107611673Y-82959699D01*
X107790302Y-83138327D01*
X108023691Y-83235000D01*
X108714250Y-83235000D01*
X108873000Y-83076250D01*
X108873000Y-81877000D01*
X109127000Y-81877000D01*
X109127000Y-83076250D01*
X109285750Y-83235000D01*
X109976309Y-83235000D01*
X110209698Y-83138327D01*
X110388327Y-82959699D01*
X110485000Y-82726310D01*
X110485000Y-82035750D01*
X110326250Y-81877000D01*
X109127000Y-81877000D01*
X108873000Y-81877000D01*
X107673750Y-81877000D01*
X107515000Y-82035750D01*
X50405200Y-82035750D01*
X50405200Y-74895469D01*
X63810794Y-74895469D01*
X63991427Y-75332635D01*
X64325606Y-75667397D01*
X64762456Y-75848793D01*
X65235469Y-75849206D01*
X65672635Y-75668573D01*
X66007397Y-75334394D01*
X66188793Y-74897544D01*
X66188794Y-74895469D01*
X99370794Y-74895469D01*
X99551427Y-75332635D01*
X99885606Y-75667397D01*
X100322456Y-75848793D01*
X100795469Y-75849206D01*
X101232635Y-75668573D01*
X101567397Y-75334394D01*
X101748793Y-74897544D01*
X101749206Y-74424531D01*
X101568573Y-73987365D01*
X101234394Y-73652603D01*
X100874167Y-73503024D01*
X100907368Y-73501362D01*
X101291143Y-73342397D01*
X101360608Y-73100213D01*
X100560000Y-72299605D01*
X99759392Y-73100213D01*
X99828857Y-73342397D01*
X100261615Y-73496790D01*
X99887365Y-73651427D01*
X99552603Y-73985606D01*
X99371207Y-74422456D01*
X99370794Y-74895469D01*
X66188794Y-74895469D01*
X66189206Y-74424531D01*
X66008573Y-73987365D01*
X65674394Y-73652603D01*
X65237544Y-73471207D01*
X64764531Y-73470794D01*
X64327365Y-73651427D01*
X63992603Y-73985606D01*
X63811207Y-74422456D01*
X63810794Y-74895469D01*
X50405200Y-74895469D01*
X50405200Y-72355469D01*
X63810794Y-72355469D01*
X63991427Y-72792635D01*
X64325606Y-73127397D01*
X64762456Y-73308793D01*
X65235469Y-73309206D01*
X65672635Y-73128573D01*
X66007397Y-72794394D01*
X66188793Y-72357544D01*
X66189181Y-71912302D01*
X99150856Y-71912302D01*
X99178638Y-72467368D01*
X99337603Y-72851143D01*
X99579787Y-72920608D01*
X100380395Y-72120000D01*
X100739605Y-72120000D01*
X101540213Y-72920608D01*
X101782397Y-72851143D01*
X101969144Y-72327698D01*
X101941362Y-71772632D01*
X101782397Y-71388857D01*
X101540213Y-71319392D01*
X100739605Y-72120000D01*
X100380395Y-72120000D01*
X99579787Y-71319392D01*
X99337603Y-71388857D01*
X99150856Y-71912302D01*
X66189181Y-71912302D01*
X66189206Y-71884531D01*
X66008573Y-71447365D01*
X65701531Y-71139787D01*
X99759392Y-71139787D01*
X100560000Y-71940395D01*
X101360608Y-71139787D01*
X101291143Y-70897603D01*
X100767698Y-70710856D01*
X100212632Y-70738638D01*
X99828857Y-70897603D01*
X99759392Y-71139787D01*
X65701531Y-71139787D01*
X65674394Y-71112603D01*
X65237544Y-70931207D01*
X64764531Y-70930794D01*
X64327365Y-71111427D01*
X63992603Y-71445606D01*
X63811207Y-71882456D01*
X63810794Y-72355469D01*
X50405200Y-72355469D01*
X50405200Y-67855362D01*
X50649268Y-68362036D01*
X51085680Y-68751954D01*
X51297757Y-68826138D01*
X50906738Y-69087408D01*
X50626971Y-69506109D01*
X50528730Y-70000000D01*
X50626971Y-70493891D01*
X50906738Y-70912592D01*
X51325439Y-71192359D01*
X51819330Y-71290600D01*
X52180670Y-71290600D01*
X52674561Y-71192359D01*
X53093262Y-70912592D01*
X53373029Y-70493891D01*
X53471270Y-70000000D01*
X53373029Y-69506109D01*
X53093262Y-69087408D01*
X52702243Y-68826138D01*
X52914320Y-68751954D01*
X53350732Y-68362036D01*
X53604709Y-67834791D01*
X53607358Y-67819026D01*
X53486217Y-67587000D01*
X52127000Y-67587000D01*
X52127000Y-67607000D01*
X51873000Y-67607000D01*
X51873000Y-67587000D01*
X51853000Y-67587000D01*
X51853000Y-67333000D01*
X51873000Y-67333000D01*
X51873000Y-67313000D01*
X52127000Y-67313000D01*
X52127000Y-67333000D01*
X53486217Y-67333000D01*
X53607358Y-67100974D01*
X53604709Y-67085209D01*
X53350732Y-66557964D01*
X52914320Y-66168046D01*
X52702243Y-66093862D01*
X53093262Y-65832592D01*
X53373029Y-65413891D01*
X53471270Y-64920000D01*
X58148730Y-64920000D01*
X58246971Y-65413891D01*
X58526738Y-65832592D01*
X58945439Y-66112359D01*
X59335767Y-66190000D01*
X58945439Y-66267641D01*
X58526738Y-66547408D01*
X58246971Y-66966109D01*
X58148730Y-67460000D01*
X58246971Y-67953891D01*
X58526738Y-68372592D01*
X58945439Y-68652359D01*
X59335767Y-68730000D01*
X58945439Y-68807641D01*
X58526738Y-69087408D01*
X58246971Y-69506109D01*
X58148730Y-70000000D01*
X58246971Y-70493891D01*
X58526738Y-70912592D01*
X58945439Y-71192359D01*
X59439330Y-71290600D01*
X59800670Y-71290600D01*
X60294561Y-71192359D01*
X60713262Y-70912592D01*
X60993029Y-70493891D01*
X61062631Y-70143975D01*
X105272874Y-70143975D01*
X105383320Y-70411275D01*
X105587650Y-70615961D01*
X105854756Y-70726874D01*
X105946308Y-70726954D01*
X108448000Y-73228646D01*
X108448000Y-75515794D01*
X108072007Y-75767025D01*
X107795188Y-76181313D01*
X107697982Y-76670000D01*
X107795188Y-77158687D01*
X108072007Y-77572975D01*
X108486295Y-77849794D01*
X108939791Y-77940000D01*
X108486295Y-78030206D01*
X108072007Y-78307025D01*
X107795188Y-78721313D01*
X107697982Y-79210000D01*
X107795188Y-79698687D01*
X108072007Y-80112975D01*
X108299528Y-80265000D01*
X108023691Y-80265000D01*
X107790302Y-80361673D01*
X107611673Y-80540301D01*
X107515000Y-80773690D01*
X107515000Y-81464250D01*
X107673750Y-81623000D01*
X108873000Y-81623000D01*
X108873000Y-81603000D01*
X109127000Y-81603000D01*
X109127000Y-81623000D01*
X110326250Y-81623000D01*
X110485000Y-81464250D01*
X110485000Y-80773690D01*
X110388327Y-80540301D01*
X110209698Y-80361673D01*
X109976309Y-80265000D01*
X109700472Y-80265000D01*
X109927993Y-80112975D01*
X110204812Y-79698687D01*
X110302018Y-79210000D01*
X110204812Y-78721313D01*
X109927993Y-78307025D01*
X109513705Y-78030206D01*
X109060209Y-77940000D01*
X109513705Y-77849794D01*
X109927993Y-77572975D01*
X110204812Y-77158687D01*
X110302018Y-76670000D01*
X110204812Y-76181313D01*
X109927993Y-75767025D01*
X109552000Y-75515794D01*
X109552000Y-73000000D01*
X109509982Y-72788759D01*
X109509982Y-72788758D01*
X109390323Y-72609677D01*
X106727047Y-69946401D01*
X106727126Y-69856025D01*
X106616680Y-69588725D01*
X106412350Y-69384039D01*
X106145244Y-69273126D01*
X105856025Y-69272874D01*
X105588725Y-69383320D01*
X105384039Y-69587650D01*
X105273126Y-69854756D01*
X105272874Y-70143975D01*
X61062631Y-70143975D01*
X61091270Y-70000000D01*
X60993029Y-69506109D01*
X60713262Y-69087408D01*
X60294561Y-68807641D01*
X59904233Y-68730000D01*
X60294561Y-68652359D01*
X60713262Y-68372592D01*
X60993029Y-67953891D01*
X61091270Y-67460000D01*
X60993029Y-66966109D01*
X60713262Y-66547408D01*
X60294561Y-66267641D01*
X59904233Y-66190000D01*
X60294561Y-66112359D01*
X60713262Y-65832592D01*
X60993029Y-65413891D01*
X61091270Y-64920000D01*
X60993029Y-64426109D01*
X60713262Y-64007408D01*
X60294561Y-63727641D01*
X59800670Y-63629400D01*
X59439330Y-63629400D01*
X58945439Y-63727641D01*
X58526738Y-64007408D01*
X58246971Y-64426109D01*
X58148730Y-64920000D01*
X53471270Y-64920000D01*
X53373029Y-64426109D01*
X53093262Y-64007408D01*
X52674561Y-63727641D01*
X52180670Y-63629400D01*
X51819330Y-63629400D01*
X51325439Y-63727641D01*
X50906738Y-64007408D01*
X50626971Y-64426109D01*
X50528730Y-64920000D01*
X50626971Y-65413891D01*
X50906738Y-65832592D01*
X51297757Y-66093862D01*
X51085680Y-66168046D01*
X50649268Y-66557964D01*
X50405200Y-67064638D01*
X50405200Y-62380000D01*
X53068730Y-62380000D01*
X53166971Y-62873891D01*
X53446738Y-63292592D01*
X53865439Y-63572359D01*
X54359330Y-63670600D01*
X54720670Y-63670600D01*
X55214561Y-63572359D01*
X55633262Y-63292592D01*
X55810000Y-63028085D01*
X55986738Y-63292592D01*
X56405439Y-63572359D01*
X56899330Y-63670600D01*
X57260670Y-63670600D01*
X57754561Y-63572359D01*
X58173262Y-63292592D01*
X58453029Y-62873891D01*
X58551270Y-62380000D01*
X58453029Y-61886109D01*
X58173262Y-61467408D01*
X57754561Y-61187641D01*
X57260670Y-61089400D01*
X56899330Y-61089400D01*
X56405439Y-61187641D01*
X55986738Y-61467408D01*
X55810000Y-61731915D01*
X55633262Y-61467408D01*
X55214561Y-61187641D01*
X54720670Y-61089400D01*
X54359330Y-61089400D01*
X53865439Y-61187641D01*
X53446738Y-61467408D01*
X53166971Y-61886109D01*
X53068730Y-62380000D01*
X50405200Y-62380000D01*
X50405200Y-57316890D01*
X107558524Y-57316890D01*
X107728355Y-57726924D01*
X108118642Y-58155183D01*
X108479583Y-58324691D01*
X108072007Y-58597025D01*
X107795188Y-59011313D01*
X107697982Y-59500000D01*
X107795188Y-59988687D01*
X108072007Y-60402975D01*
X108486295Y-60679794D01*
X108939791Y-60770000D01*
X108486295Y-60860206D01*
X108072007Y-61137025D01*
X107795188Y-61551313D01*
X107697982Y-62040000D01*
X107795188Y-62528687D01*
X108072007Y-62942975D01*
X108486295Y-63219794D01*
X108939791Y-63310000D01*
X108486295Y-63400206D01*
X108072007Y-63677025D01*
X107795188Y-64091313D01*
X107697982Y-64580000D01*
X107795188Y-65068687D01*
X108072007Y-65482975D01*
X108486295Y-65759794D01*
X108974982Y-65857000D01*
X109025018Y-65857000D01*
X109513705Y-65759794D01*
X109927993Y-65482975D01*
X110204812Y-65068687D01*
X110302018Y-64580000D01*
X110204812Y-64091313D01*
X109927993Y-63677025D01*
X109513705Y-63400206D01*
X109060209Y-63310000D01*
X109513705Y-63219794D01*
X109927993Y-62942975D01*
X110204812Y-62528687D01*
X110302018Y-62040000D01*
X110204812Y-61551313D01*
X109927993Y-61137025D01*
X109513705Y-60860206D01*
X109060209Y-60770000D01*
X109513705Y-60679794D01*
X109927993Y-60402975D01*
X110204812Y-59988687D01*
X110302018Y-59500000D01*
X110204812Y-59011313D01*
X109927993Y-58597025D01*
X109520417Y-58324691D01*
X109881358Y-58155183D01*
X110271645Y-57726924D01*
X110441476Y-57316890D01*
X110320155Y-57087000D01*
X109127000Y-57087000D01*
X109127000Y-57107000D01*
X108873000Y-57107000D01*
X108873000Y-57087000D01*
X107679845Y-57087000D01*
X107558524Y-57316890D01*
X50405200Y-57316890D01*
X50405200Y-56603110D01*
X107558524Y-56603110D01*
X107679845Y-56833000D01*
X108873000Y-56833000D01*
X108873000Y-56813000D01*
X109127000Y-56813000D01*
X109127000Y-56833000D01*
X110320155Y-56833000D01*
X110441476Y-56603110D01*
X110271645Y-56193076D01*
X109881358Y-55764817D01*
X109754764Y-55705365D01*
X109850000Y-55705365D01*
X110008237Y-55675591D01*
X110153567Y-55582073D01*
X110251064Y-55439381D01*
X110285365Y-55270000D01*
X110285365Y-53570000D01*
X110255591Y-53411763D01*
X110162073Y-53266433D01*
X110019381Y-53168936D01*
X109850000Y-53134635D01*
X108150000Y-53134635D01*
X107991763Y-53164409D01*
X107846433Y-53257927D01*
X107748936Y-53400619D01*
X107714635Y-53570000D01*
X107714635Y-55270000D01*
X107744409Y-55428237D01*
X107837927Y-55573567D01*
X107980619Y-55671064D01*
X108150000Y-55705365D01*
X108245236Y-55705365D01*
X108118642Y-55764817D01*
X107728355Y-56193076D01*
X107558524Y-56603110D01*
X50405200Y-56603110D01*
X50405200Y-52150000D01*
X55714635Y-52150000D01*
X55714635Y-53850000D01*
X55744409Y-54008237D01*
X55837927Y-54153567D01*
X55980619Y-54251064D01*
X56150000Y-54285365D01*
X57850000Y-54285365D01*
X58008237Y-54255591D01*
X58153567Y-54162073D01*
X58251064Y-54019381D01*
X58285365Y-53850000D01*
X58285365Y-53137454D01*
X58360206Y-53513705D01*
X58637025Y-53927993D01*
X59051313Y-54204812D01*
X59540000Y-54302018D01*
X60028687Y-54204812D01*
X60442975Y-53927993D01*
X60719794Y-53513705D01*
X60817000Y-53025018D01*
X60817000Y-52974982D01*
X60719794Y-52486295D01*
X60442975Y-52072007D01*
X60028687Y-51795188D01*
X59540000Y-51697982D01*
X59051313Y-51795188D01*
X58637025Y-52072007D01*
X58360206Y-52486295D01*
X58285365Y-52862546D01*
X58285365Y-52150000D01*
X58255591Y-51991763D01*
X58162073Y-51846433D01*
X58019381Y-51748936D01*
X57850000Y-51714635D01*
X56150000Y-51714635D01*
X55991763Y-51744409D01*
X55846433Y-51837927D01*
X55748936Y-51980619D01*
X55714635Y-52150000D01*
X50405200Y-52150000D01*
X50405200Y-50405200D01*
X111594800Y-50405200D01*
X111594800Y-149594800D01*
G36*
X101734688Y-132640323D02*
X101913769Y-132759982D01*
X102125011Y-132802000D01*
X108000000Y-132802000D01*
X108211242Y-132759982D01*
X108390323Y-132640323D01*
X108925853Y-132104793D01*
X108954821Y-132116821D01*
X109363387Y-132117178D01*
X109740989Y-131961156D01*
X109933001Y-131769478D01*
X109933001Y-132677391D01*
X109843129Y-132767263D01*
X109793617Y-132541836D01*
X109328964Y-132382193D01*
X108838587Y-132412518D01*
X108526383Y-132541836D01*
X108476870Y-132767265D01*
X109160000Y-133450395D01*
X109174143Y-133436253D01*
X109353748Y-133615858D01*
X109339605Y-133630000D01*
X109353748Y-133644143D01*
X109174143Y-133823748D01*
X109160000Y-133809605D01*
X108476870Y-134492735D01*
X108526383Y-134718164D01*
X108991036Y-134877807D01*
X109481413Y-134847482D01*
X109793617Y-134718164D01*
X109843129Y-134492737D01*
X109933001Y-134582609D01*
X109933001Y-135490685D01*
X109742508Y-135299860D01*
X109365179Y-135143179D01*
X108956613Y-135142822D01*
X108579011Y-135298844D01*
X108289860Y-135587492D01*
X108133179Y-135964821D01*
X108132822Y-136373387D01*
X108288844Y-136750989D01*
X108577492Y-137040140D01*
X108954821Y-137196821D01*
X109363387Y-137197178D01*
X109740989Y-137041156D01*
X109933001Y-136849478D01*
X109933001Y-137156353D01*
X109394147Y-137695207D01*
X109365179Y-137683179D01*
X108956613Y-137682822D01*
X108579011Y-137838844D01*
X108534778Y-137883000D01*
X103876950Y-137883000D01*
X99454986Y-133461036D01*
X107912193Y-133461036D01*
X107942518Y-133951413D01*
X108071836Y-134263617D01*
X108297265Y-134313130D01*
X108980395Y-133630000D01*
X108297265Y-132946870D01*
X108071836Y-132996383D01*
X107912193Y-133461036D01*
X99454986Y-133461036D01*
X99327000Y-133333050D01*
X99327000Y-130232635D01*
X101734688Y-132640323D01*
X101734688Y-132640323D01*
G37*
X101734688Y-132640323D02*
X101913769Y-132759982D01*
X102125011Y-132802000D01*
X108000000Y-132802000D01*
X108211242Y-132759982D01*
X108390323Y-132640323D01*
X108925853Y-132104793D01*
X108954821Y-132116821D01*
X109363387Y-132117178D01*
X109740989Y-131961156D01*
X109933001Y-131769478D01*
X109933001Y-132677391D01*
X109843129Y-132767263D01*
X109793617Y-132541836D01*
X109328964Y-132382193D01*
X108838587Y-132412518D01*
X108526383Y-132541836D01*
X108476870Y-132767265D01*
X109160000Y-133450395D01*
X109174143Y-133436253D01*
X109353748Y-133615858D01*
X109339605Y-133630000D01*
X109353748Y-133644143D01*
X109174143Y-133823748D01*
X109160000Y-133809605D01*
X108476870Y-134492735D01*
X108526383Y-134718164D01*
X108991036Y-134877807D01*
X109481413Y-134847482D01*
X109793617Y-134718164D01*
X109843129Y-134492737D01*
X109933001Y-134582609D01*
X109933001Y-135490685D01*
X109742508Y-135299860D01*
X109365179Y-135143179D01*
X108956613Y-135142822D01*
X108579011Y-135298844D01*
X108289860Y-135587492D01*
X108133179Y-135964821D01*
X108132822Y-136373387D01*
X108288844Y-136750989D01*
X108577492Y-137040140D01*
X108954821Y-137196821D01*
X109363387Y-137197178D01*
X109740989Y-137041156D01*
X109933001Y-136849478D01*
X109933001Y-137156353D01*
X109394147Y-137695207D01*
X109365179Y-137683179D01*
X108956613Y-137682822D01*
X108579011Y-137838844D01*
X108534778Y-137883000D01*
X103876950Y-137883000D01*
X99454986Y-133461036D01*
X107912193Y-133461036D01*
X107942518Y-133951413D01*
X108071836Y-134263617D01*
X108297265Y-134313130D01*
X108980395Y-133630000D01*
X108297265Y-132946870D01*
X108071836Y-132996383D01*
X107912193Y-133461036D01*
X99454986Y-133461036D01*
X99327000Y-133333050D01*
X99327000Y-130232635D01*
X101734688Y-132640323D01*
G36*
X56397988Y-127114613D02*
X56362735Y-127106870D01*
X55679605Y-127790000D01*
X56362735Y-128473130D01*
X56397988Y-128465387D01*
X56397988Y-129813949D01*
X56371156Y-129749011D01*
X56082508Y-129459860D01*
X55705179Y-129303179D01*
X55296613Y-129302822D01*
X54919011Y-129458844D01*
X54629860Y-129747492D01*
X54473179Y-130124821D01*
X54472822Y-130533387D01*
X54628844Y-130910989D01*
X54917492Y-131200140D01*
X55294821Y-131356821D01*
X55703387Y-131357178D01*
X56080989Y-131201156D01*
X56370140Y-130912508D01*
X56397988Y-130845443D01*
X56397988Y-132353949D01*
X56371156Y-132289011D01*
X56082508Y-131999860D01*
X55705179Y-131843179D01*
X55296613Y-131842822D01*
X54919011Y-131998844D01*
X54629860Y-132287492D01*
X54473179Y-132664821D01*
X54472822Y-133073387D01*
X54628844Y-133450989D01*
X54917492Y-133740140D01*
X55294821Y-133896821D01*
X55703387Y-133897178D01*
X56080989Y-133741156D01*
X56370140Y-133452508D01*
X56397988Y-133385443D01*
X56397988Y-141571366D01*
X55021354Y-142948000D01*
X54117613Y-142948000D01*
X54001217Y-142773801D01*
X53668034Y-142551176D01*
X53410756Y-142500000D01*
X53668034Y-142448824D01*
X54001217Y-142226199D01*
X54223842Y-141893016D01*
X54302018Y-141500000D01*
X54223842Y-141106984D01*
X54001217Y-140773801D01*
X53780242Y-140626151D01*
X53793701Y-140622647D01*
X54181933Y-140329125D01*
X54428286Y-139909376D01*
X54443462Y-139817609D01*
X54318731Y-139627000D01*
X53127000Y-139627000D01*
X53127000Y-139647000D01*
X52873000Y-139647000D01*
X52873000Y-139627000D01*
X52853000Y-139627000D01*
X52853000Y-139373000D01*
X52873000Y-139373000D01*
X52873000Y-138417453D01*
X53127000Y-138417453D01*
X53127000Y-139373000D01*
X54318731Y-139373000D01*
X54443462Y-139182391D01*
X54428286Y-139090624D01*
X54181933Y-138670875D01*
X53793701Y-138377353D01*
X53322696Y-138254744D01*
X53127000Y-138417453D01*
X52873000Y-138417453D01*
X52677304Y-138254744D01*
X52206299Y-138377353D01*
X51818067Y-138670875D01*
X51577000Y-139081617D01*
X51577000Y-130342555D01*
X51734767Y-130184788D01*
X51734769Y-130184785D01*
X53266819Y-128652735D01*
X54816870Y-128652735D01*
X54866383Y-128878164D01*
X55331036Y-129037807D01*
X55821413Y-129007482D01*
X56133617Y-128878164D01*
X56183130Y-128652735D01*
X55500000Y-127969605D01*
X54816870Y-128652735D01*
X53266819Y-128652735D01*
X54254891Y-127664663D01*
X54282518Y-128111413D01*
X54411836Y-128423617D01*
X54637265Y-128473130D01*
X55320395Y-127790000D01*
X55306253Y-127775858D01*
X55485858Y-127596253D01*
X55500000Y-127610395D01*
X56183130Y-126927265D01*
X56133617Y-126701836D01*
X55668964Y-126542193D01*
X55358140Y-126561414D01*
X55642429Y-126277125D01*
X55703387Y-126277178D01*
X56080989Y-126121156D01*
X56370140Y-125832508D01*
X56397988Y-125765443D01*
X56397988Y-127114613D01*
X56397988Y-127114613D01*
G37*
X56397988Y-127114613D02*
X56362735Y-127106870D01*
X55679605Y-127790000D01*
X56362735Y-128473130D01*
X56397988Y-128465387D01*
X56397988Y-129813949D01*
X56371156Y-129749011D01*
X56082508Y-129459860D01*
X55705179Y-129303179D01*
X55296613Y-129302822D01*
X54919011Y-129458844D01*
X54629860Y-129747492D01*
X54473179Y-130124821D01*
X54472822Y-130533387D01*
X54628844Y-130910989D01*
X54917492Y-131200140D01*
X55294821Y-131356821D01*
X55703387Y-131357178D01*
X56080989Y-131201156D01*
X56370140Y-130912508D01*
X56397988Y-130845443D01*
X56397988Y-132353949D01*
X56371156Y-132289011D01*
X56082508Y-131999860D01*
X55705179Y-131843179D01*
X55296613Y-131842822D01*
X54919011Y-131998844D01*
X54629860Y-132287492D01*
X54473179Y-132664821D01*
X54472822Y-133073387D01*
X54628844Y-133450989D01*
X54917492Y-133740140D01*
X55294821Y-133896821D01*
X55703387Y-133897178D01*
X56080989Y-133741156D01*
X56370140Y-133452508D01*
X56397988Y-133385443D01*
X56397988Y-141571366D01*
X55021354Y-142948000D01*
X54117613Y-142948000D01*
X54001217Y-142773801D01*
X53668034Y-142551176D01*
X53410756Y-142500000D01*
X53668034Y-142448824D01*
X54001217Y-142226199D01*
X54223842Y-141893016D01*
X54302018Y-141500000D01*
X54223842Y-141106984D01*
X54001217Y-140773801D01*
X53780242Y-140626151D01*
X53793701Y-140622647D01*
X54181933Y-140329125D01*
X54428286Y-139909376D01*
X54443462Y-139817609D01*
X54318731Y-139627000D01*
X53127000Y-139627000D01*
X53127000Y-139647000D01*
X52873000Y-139647000D01*
X52873000Y-139627000D01*
X52853000Y-139627000D01*
X52853000Y-139373000D01*
X52873000Y-139373000D01*
X52873000Y-138417453D01*
X53127000Y-138417453D01*
X53127000Y-139373000D01*
X54318731Y-139373000D01*
X54443462Y-139182391D01*
X54428286Y-139090624D01*
X54181933Y-138670875D01*
X53793701Y-138377353D01*
X53322696Y-138254744D01*
X53127000Y-138417453D01*
X52873000Y-138417453D01*
X52677304Y-138254744D01*
X52206299Y-138377353D01*
X51818067Y-138670875D01*
X51577000Y-139081617D01*
X51577000Y-130342555D01*
X51734767Y-130184788D01*
X51734769Y-130184785D01*
X53266819Y-128652735D01*
X54816870Y-128652735D01*
X54866383Y-128878164D01*
X55331036Y-129037807D01*
X55821413Y-129007482D01*
X56133617Y-128878164D01*
X56183130Y-128652735D01*
X55500000Y-127969605D01*
X54816870Y-128652735D01*
X53266819Y-128652735D01*
X54254891Y-127664663D01*
X54282518Y-128111413D01*
X54411836Y-128423617D01*
X54637265Y-128473130D01*
X55320395Y-127790000D01*
X55306253Y-127775858D01*
X55485858Y-127596253D01*
X55500000Y-127610395D01*
X56183130Y-126927265D01*
X56133617Y-126701836D01*
X55668964Y-126542193D01*
X55358140Y-126561414D01*
X55642429Y-126277125D01*
X55703387Y-126277178D01*
X56080989Y-126121156D01*
X56370140Y-125832508D01*
X56397988Y-125765443D01*
X56397988Y-127114613D01*
M02*
