G04 #@! TF.FileFunction,Soldermask,Top*
%FSLAX46Y46*%
G04 Gerber Fmt 4.6, Leading zero omitted, Abs format (unit mm)*
G04 Created by KiCad (PCBNEW 4.0.5) date 03/13/17 09:40:11*
%MOMM*%
%LPD*%
G01*
G04 APERTURE LIST*
%ADD10C,0.100000*%
%ADD11O,2.432000X2.127200*%
%ADD12R,2.100000X1.600000*%
%ADD13O,2.100000X1.600000*%
%ADD14C,1.600000*%
%ADD15C,1.924000*%
%ADD16R,2.100000X2.100000*%
%ADD17O,2.100000X2.100000*%
%ADD18C,2.000000*%
%ADD19O,2.000000X2.000000*%
%ADD20R,1.300000X1.600000*%
G04 APERTURE END LIST*
D10*
D11*
X59620000Y-64920000D03*
X59620000Y-67460000D03*
X59620000Y-70000000D03*
X57080000Y-62380000D03*
X54540000Y-62380000D03*
X52000000Y-64920000D03*
X52000000Y-67460000D03*
X52000000Y-70000000D03*
D12*
X53000000Y-145500000D03*
D13*
X53000000Y-143500000D03*
X53000000Y-141500000D03*
X53000000Y-139500000D03*
D14*
X82670000Y-141240000D03*
X82670000Y-138700000D03*
X82670000Y-136160000D03*
X82670000Y-133620000D03*
X62350000Y-131080000D03*
X82670000Y-131080000D03*
X62350000Y-128540000D03*
X82670000Y-128540000D03*
X62350000Y-126000000D03*
X82670000Y-126000000D03*
X62350000Y-123460000D03*
X82670000Y-123460000D03*
X62350000Y-120920000D03*
X82670000Y-120920000D03*
X62350000Y-118380000D03*
X82670000Y-118380000D03*
X62350000Y-115840000D03*
X82670000Y-115840000D03*
X62350000Y-113300000D03*
X82670000Y-113300000D03*
X62350000Y-110760000D03*
X82670000Y-110760000D03*
X62350000Y-108220000D03*
X82670000Y-108220000D03*
X62350000Y-105680000D03*
X82670000Y-105680000D03*
X62350000Y-103140000D03*
X82670000Y-103140000D03*
D15*
X65000000Y-74660000D03*
X65000000Y-72120000D03*
X100560000Y-72120000D03*
X100560000Y-74660000D03*
D14*
X109160000Y-141250000D03*
X109160000Y-138710000D03*
X109160000Y-136170000D03*
X109160000Y-133630000D03*
X88840000Y-131090000D03*
X109160000Y-131090000D03*
X88840000Y-128550000D03*
X109160000Y-128550000D03*
X88840000Y-126010000D03*
X109160000Y-126010000D03*
X88840000Y-123470000D03*
X109160000Y-123470000D03*
X88840000Y-120930000D03*
X109160000Y-120930000D03*
X88840000Y-118390000D03*
X109160000Y-118390000D03*
X88840000Y-115850000D03*
X109160000Y-115850000D03*
X88840000Y-113310000D03*
X109160000Y-113310000D03*
X88840000Y-110770000D03*
X109160000Y-110770000D03*
X88840000Y-108230000D03*
X109160000Y-108230000D03*
X88840000Y-105690000D03*
X109160000Y-105690000D03*
X88840000Y-103150000D03*
X109160000Y-103150000D03*
D16*
X109000000Y-54420000D03*
D17*
X109000000Y-56960000D03*
X109000000Y-59500000D03*
X109000000Y-62040000D03*
X109000000Y-64580000D03*
D18*
X85750000Y-136620000D03*
D19*
X85750000Y-129000000D03*
D14*
X55500000Y-125250000D03*
X55500000Y-127790000D03*
X55500000Y-130330000D03*
X55500000Y-132870000D03*
D15*
X55540000Y-84500000D03*
X55540000Y-87040000D03*
X55540000Y-89580000D03*
X55540000Y-97200000D03*
X55540000Y-94660000D03*
X55540000Y-92120000D03*
X55540000Y-102280000D03*
X55540000Y-104820000D03*
X55540000Y-107360000D03*
X55540000Y-112440000D03*
X55540000Y-114980000D03*
X103800000Y-84500000D03*
X103800000Y-87040000D03*
X103800000Y-89580000D03*
X103800000Y-92120000D03*
X103800000Y-94660000D03*
X103800000Y-97200000D03*
X103800000Y-99740000D03*
X103800000Y-102280000D03*
X103800000Y-106344000D03*
X103800000Y-108884000D03*
X103800000Y-111424000D03*
X103800000Y-113964000D03*
X103800000Y-116504000D03*
X103800000Y-119044000D03*
X103800000Y-121584000D03*
X103800000Y-124124000D03*
X55540000Y-109900000D03*
X103800000Y-126664000D03*
X103800000Y-129204000D03*
X55540000Y-117520000D03*
X55540000Y-120060000D03*
D16*
X109000000Y-81750000D03*
D17*
X109000000Y-79210000D03*
X109000000Y-76670000D03*
D20*
X51500000Y-93100000D03*
X51500000Y-95300000D03*
X51514580Y-101811994D03*
X51514580Y-104011994D03*
X51541598Y-110703572D03*
X51541598Y-112903572D03*
X51500000Y-99650000D03*
X51500000Y-97450000D03*
X51514580Y-108411994D03*
X51514580Y-106211994D03*
X51541598Y-117553572D03*
X51541598Y-115353572D03*
D16*
X57000000Y-53000000D03*
D17*
X59540000Y-53000000D03*
M02*
