G04 #@! TF.FileFunction,Copper,L2,Bot,Signal*
%FSLAX46Y46*%
G04 Gerber Fmt 4.6, Leading zero omitted, Abs format (unit mm)*
G04 Created by KiCad (PCBNEW 4.0.4-stable) date Thursday, January 26, 2017 'PMt' 04:02:48 PM*
%MOMM*%
%LPD*%
G01*
G04 APERTURE LIST*
%ADD10C,0.100000*%
%ADD11R,2.032000X2.032000*%
%ADD12O,2.032000X2.032000*%
%ADD13R,1.727200X2.032000*%
%ADD14O,1.727200X2.032000*%
%ADD15R,2.032000X1.727200*%
%ADD16O,2.032000X1.727200*%
%ADD17O,2.499360X1.501140*%
%ADD18C,1.600000*%
%ADD19O,1.600000X1.600000*%
%ADD20R,1.700000X1.200000*%
%ADD21O,1.700000X1.200000*%
%ADD22R,1.200000X1.700000*%
%ADD23O,1.200000X1.700000*%
%ADD24C,1.200000*%
%ADD25C,0.800000*%
G04 APERTURE END LIST*
D10*
D11*
X154940000Y-26670000D03*
D12*
X152400000Y-26670000D03*
D11*
X154940000Y-62230000D03*
D12*
X152400000Y-62230000D03*
D13*
X132080000Y-53340000D03*
D14*
X134620000Y-53340000D03*
X137160000Y-53340000D03*
X139700000Y-53340000D03*
D13*
X83820000Y-83820000D03*
D14*
X86360000Y-83820000D03*
X88900000Y-83820000D03*
X91440000Y-83820000D03*
X93980000Y-83820000D03*
X96520000Y-83820000D03*
X99060000Y-83820000D03*
X101600000Y-83820000D03*
X104140000Y-83820000D03*
X106680000Y-83820000D03*
X109220000Y-83820000D03*
X111760000Y-83820000D03*
D13*
X121920000Y-63500000D03*
D14*
X119380000Y-63500000D03*
X116840000Y-63500000D03*
X114300000Y-63500000D03*
X111760000Y-63500000D03*
X109220000Y-63500000D03*
X106680000Y-63500000D03*
X104140000Y-63500000D03*
X101600000Y-63500000D03*
X99060000Y-63500000D03*
X96520000Y-63500000D03*
X93980000Y-63500000D03*
X91440000Y-63500000D03*
X88900000Y-63500000D03*
X86360000Y-63500000D03*
X83820000Y-63500000D03*
D15*
X83820000Y-45720000D03*
D16*
X83820000Y-43180000D03*
X83820000Y-40640000D03*
X83820000Y-38100000D03*
D13*
X86360000Y-58420000D03*
D14*
X88900000Y-58420000D03*
X91440000Y-58420000D03*
X93980000Y-58420000D03*
D17*
X106680000Y-36830000D03*
X106680000Y-39370000D03*
X106680000Y-34290000D03*
X106680000Y-49530000D03*
X106680000Y-52070000D03*
X106680000Y-46990000D03*
D18*
X116840000Y-33020000D03*
D19*
X116840000Y-40640000D03*
D18*
X116840000Y-53340000D03*
D19*
X116840000Y-45720000D03*
D20*
X90170000Y-41370000D03*
D21*
X90170000Y-39370000D03*
X90170000Y-37370000D03*
X90170000Y-35370000D03*
D22*
X91250000Y-50800000D03*
D23*
X93250000Y-50800000D03*
X95250000Y-50800000D03*
X97250000Y-50800000D03*
D14*
X95250000Y-90170000D03*
X97790000Y-90170000D03*
X100330000Y-90170000D03*
X92710000Y-92710000D03*
X92710000Y-95250000D03*
X95250000Y-97790000D03*
X97790000Y-97790000D03*
X100330000Y-97790000D03*
D24*
X100330000Y-34290000D03*
X100330000Y-40640000D03*
D25*
X154940000Y-26670000D02*
X154940000Y-24854000D01*
X121920000Y-101600000D02*
X88900000Y-101600000D01*
X88900000Y-101600000D02*
X88900000Y-95250000D01*
X88900000Y-95250000D02*
X92710000Y-95250000D01*
X154940000Y-24854000D02*
X153670000Y-23584000D01*
X148590000Y-48260000D02*
X158750000Y-58420000D01*
X158750000Y-64770000D02*
X121920000Y-101600000D01*
X153670000Y-23584000D02*
X150406000Y-23584000D01*
X148590000Y-25400000D02*
X148590000Y-48260000D01*
X150406000Y-23584000D02*
X148590000Y-25400000D01*
X158750000Y-58420000D02*
X158750000Y-64770000D01*
X152400000Y-26670000D02*
X149990010Y-29079990D01*
X149990010Y-47680098D02*
X160150009Y-57840097D01*
X149990010Y-29079990D02*
X149990010Y-47680098D01*
X123059990Y-103000010D02*
X87760010Y-103000010D01*
X160150009Y-57840097D02*
X160150009Y-65909991D01*
X160150009Y-65909991D02*
X123059990Y-103000010D01*
X87760010Y-103000010D02*
X87499990Y-102739990D01*
X87630000Y-92710000D02*
X92710000Y-92710000D01*
X87499990Y-102739990D02*
X87499990Y-92840010D01*
X87499990Y-92840010D02*
X87630000Y-92710000D01*
X134620000Y-58420000D02*
X140446001Y-64246001D01*
X140446001Y-64246001D02*
X154739999Y-64246001D01*
X154739999Y-64246001D02*
X154940000Y-64046000D01*
X154940000Y-64046000D02*
X154940000Y-62230000D01*
X124460000Y-59690000D02*
X117862058Y-59690000D01*
X117862058Y-59690000D02*
X114976390Y-62575668D01*
X114976390Y-62575668D02*
X114976390Y-62823610D01*
X114976390Y-62823610D02*
X114300000Y-63500000D01*
X124460000Y-59690000D02*
X124460000Y-60960000D01*
X124460000Y-58420000D02*
X124460000Y-59690000D01*
X124460000Y-60960000D02*
X124460000Y-78740000D01*
X124460000Y-33020000D02*
X124460000Y-58420000D01*
X134620000Y-58420000D02*
X124460000Y-58420000D01*
X100330000Y-34290000D02*
X106680000Y-34290000D01*
X100330000Y-45720000D02*
X100330000Y-40640000D01*
X103360320Y-45720000D02*
X100330000Y-45720000D01*
X106680000Y-46990000D02*
X104630320Y-46990000D01*
X104630320Y-46990000D02*
X103360320Y-45720000D01*
X106680000Y-46990000D02*
X115570000Y-46990000D01*
X115570000Y-46990000D02*
X116840000Y-45720000D01*
X116840000Y-33020000D02*
X124460000Y-33020000D01*
X97790000Y-100199990D02*
X97790000Y-97790000D01*
X124460000Y-78740000D02*
X103000010Y-100199990D01*
X103000010Y-100199990D02*
X97790000Y-100199990D01*
X106680000Y-34290000D02*
X115570000Y-34290000D01*
X115570000Y-34290000D02*
X116840000Y-33020000D01*
X134620000Y-53340000D02*
X134620000Y-58420000D01*
X114300000Y-63252058D02*
X114300000Y-63500000D01*
X134620000Y-55156000D02*
X134620000Y-53340000D01*
X137160000Y-53340000D02*
X137836390Y-52663610D01*
X141493990Y-51323990D02*
X151384001Y-61214001D01*
X137836390Y-52663610D02*
X137836390Y-52415668D01*
X137836390Y-52415668D02*
X138928068Y-51323990D01*
X138928068Y-51323990D02*
X141493990Y-51323990D01*
X151384001Y-61214001D02*
X152400000Y-62230000D01*
X83820000Y-40640000D02*
X84496390Y-39963610D01*
X84496390Y-39963610D02*
X84744332Y-39963610D01*
X84744332Y-39963610D02*
X87337942Y-37370000D01*
X87337942Y-37370000D02*
X90170000Y-37370000D01*
X95250000Y-50800000D02*
X95250000Y-40800000D01*
X95250000Y-40800000D02*
X91820000Y-37370000D01*
X91820000Y-37370000D02*
X90170000Y-37370000D01*
X106680000Y-83820000D02*
X106680000Y-81280000D01*
X106680000Y-81280000D02*
X104140000Y-78740000D01*
X81956390Y-64424332D02*
X81956390Y-53933610D01*
X104140000Y-78740000D02*
X96520000Y-78740000D01*
X83048068Y-65516010D02*
X81956390Y-64424332D01*
X96520000Y-78740000D02*
X83296010Y-65516010D01*
X83296010Y-65516010D02*
X83048068Y-65516010D01*
X81956390Y-53933610D02*
X88900000Y-46990000D01*
X88900000Y-46990000D02*
X93090000Y-46990000D01*
X95250000Y-49150000D02*
X95250000Y-50800000D01*
X93090000Y-46990000D02*
X95250000Y-49150000D01*
X95250000Y-52450000D02*
X95250000Y-50800000D01*
X91440000Y-58420000D02*
X91440000Y-56260000D01*
X91440000Y-56260000D02*
X95250000Y-52450000D01*
X78740000Y-35560000D02*
X78740000Y-37376000D01*
X82004000Y-40640000D02*
X83820000Y-40640000D01*
X78740000Y-37376000D02*
X82004000Y-40640000D01*
X81280000Y-33020000D02*
X78740000Y-35560000D01*
X86112058Y-33020000D02*
X81280000Y-33020000D01*
X124460000Y-27940000D02*
X91192058Y-27940000D01*
X91192058Y-27940000D02*
X86112058Y-33020000D01*
X132080000Y-35560000D02*
X124460000Y-27940000D01*
X132080000Y-53340000D02*
X132080000Y-35560000D01*
X132080000Y-53340000D02*
X132080000Y-51524000D01*
X83820000Y-83820000D02*
X83820000Y-85636000D01*
X83820000Y-85636000D02*
X88354000Y-90170000D01*
X88354000Y-90170000D02*
X93586400Y-90170000D01*
X93586400Y-90170000D02*
X95250000Y-90170000D01*
X86360000Y-83820000D02*
X86360000Y-85636000D01*
X97790000Y-88354000D02*
X97790000Y-90170000D01*
X86360000Y-85636000D02*
X88877990Y-88153990D01*
X88877990Y-88153990D02*
X97589990Y-88153990D01*
X97589990Y-88153990D02*
X97790000Y-88354000D01*
X83820000Y-43180000D02*
X84710000Y-43180000D01*
X88520000Y-39370000D02*
X90170000Y-39370000D01*
X84710000Y-43180000D02*
X88520000Y-39370000D01*
X78479978Y-66503978D02*
X79040065Y-66503978D01*
X79040065Y-66503978D02*
X93816087Y-81280000D01*
X93816087Y-81280000D02*
X94227942Y-81280000D01*
X94227942Y-81280000D02*
X96520000Y-83572058D01*
X96520000Y-83572058D02*
X96520000Y-83820000D01*
X78479978Y-66503978D02*
X78479978Y-46704022D01*
X78479978Y-46704022D02*
X82004000Y-43180000D01*
X82004000Y-43180000D02*
X83820000Y-43180000D01*
X83820000Y-45720000D02*
X87220000Y-45720000D01*
X87220000Y-45720000D02*
X90170000Y-42770000D01*
X90170000Y-42770000D02*
X90170000Y-41370000D01*
X79879990Y-65363990D02*
X80851932Y-65363990D01*
X80851932Y-65363990D02*
X99060000Y-83572058D01*
X99060000Y-83572058D02*
X99060000Y-83820000D01*
X83820000Y-47383600D02*
X83820000Y-45720000D01*
X79879990Y-65363990D02*
X79879990Y-51323610D01*
X79879990Y-51323610D02*
X83820000Y-47383600D01*
X95250000Y-97790000D02*
X95250000Y-95250000D01*
X119380000Y-81527942D02*
X119380000Y-65316000D01*
X119380000Y-65316000D02*
X119380000Y-63500000D01*
X95250000Y-95250000D02*
X105657942Y-95250000D01*
X105657942Y-95250000D02*
X119380000Y-81527942D01*
X116840000Y-40640000D02*
X119380000Y-43180000D01*
X119380000Y-43180000D02*
X119380000Y-55880000D01*
X119380000Y-55880000D02*
X115570000Y-59690000D01*
X115570000Y-59690000D02*
X101600000Y-59690000D01*
X101600000Y-59690000D02*
X101600000Y-60960000D01*
X101600000Y-60960000D02*
X101600000Y-63500000D01*
X106680000Y-39370000D02*
X115570000Y-39370000D01*
X115570000Y-39370000D02*
X116840000Y-40640000D01*
X99060000Y-57150000D02*
X99060000Y-63500000D01*
X115570000Y-57150000D02*
X99060000Y-57150000D01*
X116840000Y-55880000D02*
X115570000Y-57150000D01*
X116840000Y-53340000D02*
X116840000Y-55880000D01*
X106680000Y-52070000D02*
X115570000Y-52070000D01*
X115570000Y-52070000D02*
X116840000Y-53340000D01*
X88900000Y-58420000D02*
X88900000Y-56400002D01*
X88900000Y-56400002D02*
X93250000Y-52050002D01*
X93250000Y-52050002D02*
X93250000Y-50800000D01*
X88900000Y-63500000D02*
X88900000Y-58420000D01*
X86360000Y-58420000D02*
X86360000Y-54290000D01*
X86360000Y-54290000D02*
X89850000Y-50800000D01*
X89850000Y-50800000D02*
X91250000Y-50800000D01*
X86360000Y-63500000D02*
X86360000Y-58420000D01*
X96330000Y-35370000D02*
X97790000Y-36830000D01*
X97790000Y-36830000D02*
X106680000Y-36830000D01*
X90170000Y-35370000D02*
X96330000Y-35370000D01*
X83820000Y-38100000D02*
X83820000Y-36436400D01*
X83820000Y-36436400D02*
X84886400Y-35370000D01*
X84886400Y-35370000D02*
X88520000Y-35370000D01*
X88520000Y-35370000D02*
X90170000Y-35370000D01*
X97250000Y-50800000D02*
X98650000Y-50800000D01*
X98650000Y-50800000D02*
X99920000Y-49530000D01*
X99920000Y-49530000D02*
X104630320Y-49530000D01*
X104630320Y-49530000D02*
X106680000Y-49530000D01*
X93980000Y-58420000D02*
X93980000Y-56604000D01*
X93980000Y-56604000D02*
X97250000Y-53334000D01*
X97250000Y-53334000D02*
X97250000Y-52450000D01*
X97250000Y-52450000D02*
X97250000Y-50800000D01*
M02*
