G04 #@! TF.FileFunction,Copper,L1,Top,Signal*
%FSLAX46Y46*%
G04 Gerber Fmt 4.6, Leading zero omitted, Abs format (unit mm)*
G04 Created by KiCad (PCBNEW 4.0.4-stable) date Tuesday, January 24, 2017 'PMt' 02:36:16 PM*
%MOMM*%
%LPD*%
G01*
G04 APERTURE LIST*
%ADD10C,0.100000*%
%ADD11R,2.032000X2.032000*%
%ADD12O,2.032000X2.032000*%
%ADD13R,1.727200X2.032000*%
%ADD14O,1.727200X2.032000*%
%ADD15R,2.032000X1.727200*%
%ADD16O,2.032000X1.727200*%
%ADD17O,1.501140X2.499360*%
%ADD18C,1.600000*%
%ADD19O,1.600000X1.600000*%
%ADD20C,0.800000*%
G04 APERTURE END LIST*
D10*
D11*
X177800000Y-35560000D03*
D12*
X175260000Y-35560000D03*
D11*
X177800000Y-73660000D03*
D12*
X175260000Y-73660000D03*
D13*
X132080000Y-53340000D03*
D14*
X134620000Y-53340000D03*
X137160000Y-53340000D03*
X139700000Y-53340000D03*
D13*
X83820000Y-86360000D03*
D14*
X86360000Y-86360000D03*
X88900000Y-86360000D03*
X91440000Y-86360000D03*
X93980000Y-86360000D03*
X96520000Y-86360000D03*
X99060000Y-86360000D03*
X101600000Y-86360000D03*
X104140000Y-86360000D03*
X106680000Y-86360000D03*
X109220000Y-86360000D03*
X111760000Y-86360000D03*
D13*
X121920000Y-63500000D03*
D14*
X119380000Y-63500000D03*
X116840000Y-63500000D03*
X114300000Y-63500000D03*
X111760000Y-63500000D03*
X109220000Y-63500000D03*
X106680000Y-63500000D03*
X104140000Y-63500000D03*
X101600000Y-63500000D03*
X99060000Y-63500000D03*
X96520000Y-63500000D03*
X93980000Y-63500000D03*
X91440000Y-63500000D03*
X88900000Y-63500000D03*
X86360000Y-63500000D03*
X83820000Y-63500000D03*
D15*
X83820000Y-45720000D03*
D16*
X83820000Y-43180000D03*
X83820000Y-40640000D03*
X83820000Y-38100000D03*
D13*
X88900000Y-55880000D03*
D14*
X91440000Y-55880000D03*
X93980000Y-55880000D03*
X96520000Y-55880000D03*
D17*
X99060000Y-45720000D03*
X96520000Y-45720000D03*
X101600000Y-45720000D03*
X116840000Y-45720000D03*
X114300000Y-45720000D03*
X119380000Y-45720000D03*
D18*
X102870000Y-33020000D03*
D19*
X95250000Y-33020000D03*
D18*
X113030000Y-33020000D03*
D19*
X120650000Y-33020000D03*
D14*
X96520000Y-96520000D03*
X99060000Y-96520000D03*
X101600000Y-96520000D03*
X93980000Y-99060000D03*
X93980000Y-101600000D03*
X96520000Y-104140000D03*
X99060000Y-104140000D03*
X101600000Y-104140000D03*
D20*
X177076000Y-33020000D02*
X177800000Y-33744000D01*
X177800000Y-33744000D02*
X177800000Y-35560000D01*
X180340000Y-76200000D02*
X180340000Y-71120000D01*
X180340000Y-71120000D02*
X172720000Y-63500000D01*
X172720000Y-63500000D02*
X172720000Y-33020000D01*
X172720000Y-33020000D02*
X177076000Y-33020000D01*
X156079989Y-100460011D02*
X180340000Y-76200000D01*
X98480097Y-100460011D02*
X156079989Y-100460011D01*
X97080086Y-99060000D02*
X98480097Y-100460011D01*
X93980000Y-99060000D02*
X97080086Y-99060000D01*
X175260000Y-36996840D02*
X175260000Y-35560000D01*
X93980000Y-101600000D02*
X95643600Y-101600000D01*
X95643600Y-101600000D02*
X95903621Y-101860021D01*
X95903621Y-101860021D02*
X157219979Y-101860021D01*
X157219979Y-101860021D02*
X182880000Y-76200000D01*
X182880000Y-76200000D02*
X182880000Y-71120000D01*
X182880000Y-71120000D02*
X175260000Y-63500000D01*
X175260000Y-63500000D02*
X175260000Y-36996840D01*
X120650000Y-44450000D02*
X120650000Y-33020000D01*
X119380000Y-45720000D02*
X120650000Y-44450000D01*
X116840000Y-43180000D02*
X117339110Y-43180000D01*
X117339110Y-43180000D02*
X119380000Y-45220890D01*
X119380000Y-45220890D02*
X119380000Y-45720000D01*
X116840000Y-30480000D02*
X116840000Y-43180000D01*
X105410000Y-30480000D02*
X116840000Y-30480000D01*
X102870000Y-33020000D02*
X105410000Y-30480000D01*
X102870000Y-44450000D02*
X102870000Y-33020000D01*
X101600000Y-45720000D02*
X102870000Y-44450000D01*
X119380000Y-45720000D02*
X120930570Y-45720000D01*
X120930570Y-45720000D02*
X130566571Y-55356001D01*
X130566571Y-55356001D02*
X134419999Y-55356001D01*
X134419999Y-55356001D02*
X134620000Y-55156000D01*
X134620000Y-55156000D02*
X134620000Y-53340000D01*
X116840000Y-60960000D02*
X115024000Y-60960000D01*
X115024000Y-60960000D02*
X114300000Y-61684000D01*
X114300000Y-61684000D02*
X114300000Y-63500000D01*
X119380000Y-58420000D02*
X116840000Y-60960000D01*
X119380000Y-45720000D02*
X119380000Y-58420000D01*
X177800000Y-73660000D02*
X177800000Y-71844000D01*
X177800000Y-71844000D02*
X156756000Y-50800000D01*
X156756000Y-50800000D02*
X135344000Y-50800000D01*
X135344000Y-50800000D02*
X134620000Y-51524000D01*
X134620000Y-51524000D02*
X134620000Y-53340000D01*
X99060000Y-96520000D02*
X99060000Y-98336000D01*
X99060000Y-98336000D02*
X99784000Y-99060000D01*
X99784000Y-99060000D02*
X154940000Y-99060000D01*
X154940000Y-99060000D02*
X177800000Y-76200000D01*
X177800000Y-76200000D02*
X177800000Y-73660000D01*
X137160000Y-53340000D02*
X137160000Y-55156000D01*
X137160000Y-55156000D02*
X155664000Y-73660000D01*
X155664000Y-73660000D02*
X173823160Y-73660000D01*
X173823160Y-73660000D02*
X175260000Y-73660000D01*
X81280000Y-40640000D02*
X83820000Y-40640000D01*
X78740000Y-38100000D02*
X81280000Y-40640000D01*
X78740000Y-35560000D02*
X78740000Y-38100000D01*
X81280000Y-33020000D02*
X78740000Y-35560000D01*
X86360000Y-33020000D02*
X81280000Y-33020000D01*
X91440000Y-27940000D02*
X86360000Y-33020000D01*
X124460000Y-27940000D02*
X91440000Y-27940000D01*
X132080000Y-35560000D02*
X124460000Y-27940000D01*
X132080000Y-53340000D02*
X132080000Y-35560000D01*
X93256000Y-53340000D02*
X93980000Y-54064000D01*
X105956000Y-83820000D02*
X101352058Y-83820000D01*
X101352058Y-83820000D02*
X81540022Y-64007964D01*
X81540022Y-64007964D02*
X81540022Y-56329892D01*
X81540022Y-56329892D02*
X84529914Y-53340000D01*
X84529914Y-53340000D02*
X93256000Y-53340000D01*
X106680000Y-84544000D02*
X105956000Y-83820000D01*
X106680000Y-86360000D02*
X106680000Y-84544000D01*
X93980000Y-54064000D02*
X93980000Y-55880000D01*
X88176000Y-43180000D02*
X88176000Y-48260000D01*
X89992000Y-50076000D02*
X88176000Y-48260000D01*
X89992000Y-50076000D02*
X93980000Y-54064000D01*
X83820000Y-40640000D02*
X85636000Y-40640000D01*
X85636000Y-40640000D02*
X88176000Y-43180000D01*
X96520000Y-104140000D02*
X93732058Y-104140000D01*
X93732058Y-104140000D02*
X83820000Y-94227942D01*
X83820000Y-94227942D02*
X83820000Y-86360000D01*
X99060000Y-106680000D02*
X99060000Y-104140000D01*
X93980000Y-106680000D02*
X99060000Y-106680000D01*
X81280000Y-93980000D02*
X93980000Y-106680000D01*
X81280000Y-83820000D02*
X81280000Y-93980000D01*
X86360000Y-83820000D02*
X81280000Y-83820000D01*
X86360000Y-86360000D02*
X86360000Y-83820000D01*
X96520000Y-86360000D02*
X96520000Y-82947770D01*
X78740000Y-65167770D02*
X78740000Y-46990000D01*
X96520000Y-82947770D02*
X78740000Y-65167770D01*
X78740000Y-46990000D02*
X82550000Y-43180000D01*
X82550000Y-43180000D02*
X83820000Y-43180000D01*
X83820000Y-47383600D02*
X80140011Y-51063589D01*
X99060000Y-84544000D02*
X99060000Y-86360000D01*
X99060000Y-83507856D02*
X99060000Y-84544000D01*
X80140011Y-64587867D02*
X99060000Y-83507856D01*
X80140011Y-51063589D02*
X80140011Y-64587867D01*
X83820000Y-45720000D02*
X83820000Y-47383600D01*
X119380000Y-63500000D02*
X119380000Y-81527942D01*
X101600000Y-88900000D02*
X96520000Y-93980000D01*
X119380000Y-81527942D02*
X112007942Y-88900000D01*
X112007942Y-88900000D02*
X101600000Y-88900000D01*
X96520000Y-93980000D02*
X96520000Y-96520000D01*
X88900000Y-63500000D02*
X88900000Y-59559602D01*
X88900000Y-59559602D02*
X91440000Y-57019602D01*
X91440000Y-57019602D02*
X91440000Y-55880000D01*
X86360000Y-63500000D02*
X86360000Y-56756400D01*
X87236400Y-55880000D02*
X88900000Y-55880000D01*
X86360000Y-56756400D02*
X87236400Y-55880000D01*
X95250000Y-48260000D02*
X97019110Y-48260000D01*
X97019110Y-48260000D02*
X99060000Y-46219110D01*
X99060000Y-46219110D02*
X99060000Y-45720000D01*
X86360000Y-39370000D02*
X95250000Y-48260000D01*
X86360000Y-38100000D02*
X86360000Y-39370000D01*
X83820000Y-38100000D02*
X86360000Y-38100000D01*
X96520000Y-55880000D02*
X107179110Y-55880000D01*
X107179110Y-55880000D02*
X116840000Y-46219110D01*
X116840000Y-46219110D02*
X116840000Y-45720000D01*
X95250000Y-44450000D02*
X95250000Y-33020000D01*
X96520000Y-45720000D02*
X95250000Y-44450000D01*
X113030000Y-33020000D02*
X113030000Y-44450000D01*
X113030000Y-44450000D02*
X114300000Y-45720000D01*
M02*
