M48
;DRILL file {KiCad 4.0.5} date Friday, January 27, 2017 'PMt' 02:56:05 PM
;FORMAT={-:-/ absolute / inch / decimal}
FMAT,2
INCH,TZ
T1C0.028
T2C0.031
T3C0.039
T4C0.039
T5C0.040
%
G90
G05
M72
T1
X3.5925Y-1.7638
X3.5925Y-1.8425
X3.5925Y-1.9213
X3.5925Y-2.
X3.6Y-1.0925
X3.6Y-1.1713
X3.6Y-1.25
X3.6Y-1.3287
T2
X4.6Y-1.3
X4.6Y-1.6
X4.6Y-1.8
X4.6Y-2.1
T3
X3.95Y-1.35
X3.95Y-1.6
T4
X4.2Y-1.35
X4.2Y-1.45
X4.2Y-1.55
X4.2Y-1.85
X4.2Y-1.95
X4.2Y-2.05
T5
X3.3Y-1.2
X3.3Y-1.3
X3.3Y-1.4
X3.3Y-1.5
X3.3Y-2.5
X3.3Y-3.3
X3.4Y-2.3
X3.4Y-2.5
X3.4Y-3.3
X3.5Y-2.3
X3.5Y-2.5
X3.5Y-3.3
X3.6Y-2.3
X3.6Y-2.5
X3.6Y-3.3
X3.65Y-3.65
X3.65Y-3.75
X3.7Y-2.3
X3.7Y-2.5
X3.7Y-3.3
X3.75Y-3.55
X3.75Y-3.85
X3.8Y-2.5
X3.8Y-3.3
X3.85Y-3.55
X3.85Y-3.85
X3.9Y-2.5
X3.9Y-3.3
X3.95Y-3.55
X3.95Y-3.85
X4.Y-2.5
X4.Y-3.3
X4.1Y-2.5
X4.1Y-3.3
X4.2Y-2.5
X4.2Y-3.3
X4.3Y-2.5
X4.3Y-3.3
X4.4Y-2.5
X4.4Y-3.3
X4.5Y-2.5
X4.6Y-2.5
X4.7Y-2.5
X4.8Y-2.5
X5.2Y-2.1
X5.3Y-2.1
X5.4Y-2.1
X5.5Y-2.1
X6.Y-1.05
X6.Y-2.45
X6.1Y-1.05
X6.1Y-2.45
T0
M30
