M48
;DRILL file {KiCad 4.0.4-stable} date Wednesday, January 25, 2017 'PMt' 04:55:36 PM
;FORMAT={-:-/ absolute / inch / decimal}
FMAT,2
INCH,TZ
T1C0.028
T2C0.031
T3C0.039
T4C0.040
%
G90
G05
M72
T1
X3.55Y-1.3925
X3.55Y-1.4713
X3.55Y-1.55
X3.55Y-1.6287
X3.5925Y-2.
X3.6713Y-2.
X3.75Y-2.
X3.8287Y-2.
T2
X3.9Y-1.3
X4.2Y-1.3
X4.45Y-1.3
X4.75Y-1.3
T3
X3.95Y-1.7
X4.05Y-1.7
X4.15Y-1.7
X4.5Y-1.7
X4.6Y-1.7
X4.7Y-1.7
T4
X3.3Y-1.5
X3.3Y-1.6
X3.3Y-1.7
X3.3Y-1.8
X3.3Y-2.5
X3.3Y-3.3
X3.4Y-2.3
X3.4Y-2.5
X3.4Y-3.3
X3.5Y-2.3
X3.5Y-2.5
X3.5Y-3.3
X3.6Y-2.3
X3.6Y-2.5
X3.6Y-3.3
X3.65Y-3.65
X3.65Y-3.75
X3.7Y-2.3
X3.7Y-2.5
X3.7Y-3.3
X3.75Y-3.55
X3.75Y-3.85
X3.8Y-2.5
X3.8Y-3.3
X3.85Y-3.55
X3.85Y-3.85
X3.9Y-2.5
X3.9Y-3.3
X3.95Y-3.55
X3.95Y-3.85
X4.Y-2.5
X4.Y-3.3
X4.1Y-2.5
X4.1Y-3.3
X4.2Y-2.5
X4.2Y-3.3
X4.3Y-2.5
X4.3Y-3.3
X4.4Y-2.5
X4.4Y-3.3
X4.5Y-2.5
X4.6Y-2.5
X4.7Y-2.5
X4.8Y-2.5
X5.2Y-2.1
X5.3Y-2.1
X5.4Y-2.1
X5.5Y-2.1
X6.Y-1.2
X6.Y-2.6
X6.1Y-1.2
X6.1Y-2.6
T0
M30
