G04 #@! TF.FileFunction,Copper,L2,Bot,Signal*
%FSLAX46Y46*%
G04 Gerber Fmt 4.6, Leading zero omitted, Abs format (unit mm)*
G04 Created by KiCad (PCBNEW 4.0.4-stable) date Wednesday, January 25, 2017 'PMt' 04:49:09 PM*
%MOMM*%
%LPD*%
G01*
G04 APERTURE LIST*
%ADD10C,0.100000*%
%ADD11R,2.032000X2.032000*%
%ADD12O,2.032000X2.032000*%
%ADD13R,1.727200X2.032000*%
%ADD14O,1.727200X2.032000*%
%ADD15R,2.032000X1.727200*%
%ADD16O,2.032000X1.727200*%
%ADD17O,1.501140X2.499360*%
%ADD18C,1.600000*%
%ADD19O,1.600000X1.600000*%
%ADD20R,1.700000X1.200000*%
%ADD21O,1.700000X1.200000*%
%ADD22R,1.200000X1.700000*%
%ADD23O,1.200000X1.700000*%
%ADD24C,0.800000*%
G04 APERTURE END LIST*
D10*
D11*
X154940000Y-30480000D03*
D12*
X152400000Y-30480000D03*
D11*
X154940000Y-66040000D03*
D12*
X152400000Y-66040000D03*
D13*
X132080000Y-53340000D03*
D14*
X134620000Y-53340000D03*
X137160000Y-53340000D03*
X139700000Y-53340000D03*
D13*
X83820000Y-83820000D03*
D14*
X86360000Y-83820000D03*
X88900000Y-83820000D03*
X91440000Y-83820000D03*
X93980000Y-83820000D03*
X96520000Y-83820000D03*
X99060000Y-83820000D03*
X101600000Y-83820000D03*
X104140000Y-83820000D03*
X106680000Y-83820000D03*
X109220000Y-83820000D03*
X111760000Y-83820000D03*
D13*
X121920000Y-63500000D03*
D14*
X119380000Y-63500000D03*
X116840000Y-63500000D03*
X114300000Y-63500000D03*
X111760000Y-63500000D03*
X109220000Y-63500000D03*
X106680000Y-63500000D03*
X104140000Y-63500000D03*
X101600000Y-63500000D03*
X99060000Y-63500000D03*
X96520000Y-63500000D03*
X93980000Y-63500000D03*
X91440000Y-63500000D03*
X88900000Y-63500000D03*
X86360000Y-63500000D03*
X83820000Y-63500000D03*
D15*
X83820000Y-45720000D03*
D16*
X83820000Y-43180000D03*
X83820000Y-40640000D03*
X83820000Y-38100000D03*
D13*
X86360000Y-58420000D03*
D14*
X88900000Y-58420000D03*
X91440000Y-58420000D03*
X93980000Y-58420000D03*
D17*
X102870000Y-43180000D03*
X100330000Y-43180000D03*
X105410000Y-43180000D03*
X116840000Y-43180000D03*
X114300000Y-43180000D03*
X119380000Y-43180000D03*
D18*
X106680000Y-33020000D03*
D19*
X99060000Y-33020000D03*
D18*
X113030000Y-33020000D03*
D19*
X120650000Y-33020000D03*
D20*
X90170000Y-41370000D03*
D21*
X90170000Y-39370000D03*
X90170000Y-37370000D03*
X90170000Y-35370000D03*
D22*
X91250000Y-50800000D03*
D23*
X93250000Y-50800000D03*
X95250000Y-50800000D03*
X97250000Y-50800000D03*
D14*
X95250000Y-90170000D03*
X97790000Y-90170000D03*
X100330000Y-90170000D03*
X92710000Y-92710000D03*
X92710000Y-95250000D03*
X95250000Y-97790000D03*
X97790000Y-97790000D03*
X100330000Y-97790000D03*
D24*
X92710000Y-95250000D02*
X90170000Y-97790000D01*
X147320000Y-35560000D02*
X147320000Y-30480000D01*
X90170000Y-97790000D02*
X90170000Y-101600000D01*
X154940000Y-27940000D02*
X154940000Y-30480000D01*
X90170000Y-101600000D02*
X154940000Y-101600000D01*
X154940000Y-101600000D02*
X158750000Y-97790000D01*
X158750000Y-97790000D02*
X158750000Y-46990000D01*
X147320000Y-30480000D02*
X149860000Y-27940000D01*
X158750000Y-46990000D02*
X147320000Y-35560000D01*
X149860000Y-27940000D02*
X154940000Y-27940000D01*
X92710000Y-92710000D02*
X91046400Y-92710000D01*
X91046400Y-92710000D02*
X87630000Y-96126400D01*
X87630000Y-96126400D02*
X87630000Y-104140000D01*
X87630000Y-104140000D02*
X156210000Y-104140000D01*
X161290000Y-99060000D02*
X161290000Y-45720000D01*
X156210000Y-104140000D02*
X161290000Y-99060000D01*
X161290000Y-45720000D02*
X152400000Y-36830000D01*
X152400000Y-36830000D02*
X152400000Y-30480000D01*
X124460000Y-78740000D02*
X124460000Y-58420000D01*
X103000010Y-100199990D02*
X124460000Y-78740000D01*
X97790000Y-100199990D02*
X103000010Y-100199990D01*
X97790000Y-97790000D02*
X97790000Y-100199990D01*
X134620000Y-53340000D02*
X134620000Y-51524000D01*
X134620000Y-51524000D02*
X134820010Y-51323990D01*
X134820010Y-51323990D02*
X142039990Y-51323990D01*
X142039990Y-51323990D02*
X154940000Y-64224000D01*
X154940000Y-64224000D02*
X154940000Y-66040000D01*
X106680000Y-41910000D02*
X105410000Y-43180000D01*
X106680000Y-33020000D02*
X106680000Y-41910000D01*
X109220000Y-30480000D02*
X106680000Y-33020000D01*
X118110000Y-30480000D02*
X109220000Y-30480000D01*
X134620000Y-58420000D02*
X118916018Y-58420000D01*
X118916018Y-58420000D02*
X118240009Y-57743991D01*
X134620000Y-53340000D02*
X134620000Y-58420000D01*
X118110000Y-30480000D02*
X120650000Y-33020000D01*
X114300000Y-63500000D02*
X114300000Y-61684000D01*
X114300000Y-61684000D02*
X118240009Y-57743991D01*
X118240009Y-57743991D02*
X118240009Y-44754794D01*
X118240009Y-44754794D02*
X119380000Y-43614803D01*
X119380000Y-43614803D02*
X119380000Y-43180000D01*
X119380000Y-42680890D02*
X119380000Y-43180000D01*
X120650000Y-33020000D02*
X120650000Y-41910000D01*
X120650000Y-41910000D02*
X119380000Y-43180000D01*
X114300000Y-63252058D02*
X114300000Y-63500000D01*
X134620000Y-55156000D02*
X134620000Y-53340000D01*
X137160000Y-53340000D02*
X137160000Y-55156000D01*
X137160000Y-55156000D02*
X148044000Y-66040000D01*
X148044000Y-66040000D02*
X150963160Y-66040000D01*
X150963160Y-66040000D02*
X152400000Y-66040000D01*
X83820000Y-40640000D02*
X84496390Y-39963610D01*
X84496390Y-39963610D02*
X84744332Y-39963610D01*
X84744332Y-39963610D02*
X87337942Y-37370000D01*
X87337942Y-37370000D02*
X90170000Y-37370000D01*
X95250000Y-50800000D02*
X95250000Y-40800000D01*
X95250000Y-40800000D02*
X91820000Y-37370000D01*
X91820000Y-37370000D02*
X90170000Y-37370000D01*
X106680000Y-83820000D02*
X106680000Y-81280000D01*
X106680000Y-81280000D02*
X104140000Y-78740000D01*
X81956390Y-64424332D02*
X81956390Y-53933610D01*
X104140000Y-78740000D02*
X96520000Y-78740000D01*
X83048068Y-65516010D02*
X81956390Y-64424332D01*
X96520000Y-78740000D02*
X83296010Y-65516010D01*
X83296010Y-65516010D02*
X83048068Y-65516010D01*
X81956390Y-53933610D02*
X88900000Y-46990000D01*
X88900000Y-46990000D02*
X93090000Y-46990000D01*
X95250000Y-49150000D02*
X95250000Y-50800000D01*
X93090000Y-46990000D02*
X95250000Y-49150000D01*
X95250000Y-52450000D02*
X95250000Y-50800000D01*
X91440000Y-58420000D02*
X91440000Y-56260000D01*
X91440000Y-56260000D02*
X95250000Y-52450000D01*
X78740000Y-35560000D02*
X78740000Y-37376000D01*
X82004000Y-40640000D02*
X83820000Y-40640000D01*
X78740000Y-37376000D02*
X82004000Y-40640000D01*
X81280000Y-33020000D02*
X78740000Y-35560000D01*
X86112058Y-33020000D02*
X81280000Y-33020000D01*
X124460000Y-27940000D02*
X91192058Y-27940000D01*
X91192058Y-27940000D02*
X86112058Y-33020000D01*
X132080000Y-35560000D02*
X124460000Y-27940000D01*
X132080000Y-53340000D02*
X132080000Y-35560000D01*
X132080000Y-53340000D02*
X132080000Y-51524000D01*
X83820000Y-83820000D02*
X83820000Y-85636000D01*
X83820000Y-85636000D02*
X88354000Y-90170000D01*
X88354000Y-90170000D02*
X93586400Y-90170000D01*
X93586400Y-90170000D02*
X95250000Y-90170000D01*
X86360000Y-83820000D02*
X86360000Y-85636000D01*
X97790000Y-88354000D02*
X97790000Y-90170000D01*
X86360000Y-85636000D02*
X88877990Y-88153990D01*
X88877990Y-88153990D02*
X97589990Y-88153990D01*
X97589990Y-88153990D02*
X97790000Y-88354000D01*
X83820000Y-43180000D02*
X84710000Y-43180000D01*
X88520000Y-39370000D02*
X90170000Y-39370000D01*
X84710000Y-43180000D02*
X88520000Y-39370000D01*
X78479978Y-66503978D02*
X79040065Y-66503978D01*
X79040065Y-66503978D02*
X93816087Y-81280000D01*
X93816087Y-81280000D02*
X94227942Y-81280000D01*
X94227942Y-81280000D02*
X96520000Y-83572058D01*
X96520000Y-83572058D02*
X96520000Y-83820000D01*
X78479978Y-66503978D02*
X78479978Y-46704022D01*
X78479978Y-46704022D02*
X82004000Y-43180000D01*
X82004000Y-43180000D02*
X83820000Y-43180000D01*
X83820000Y-45720000D02*
X87220000Y-45720000D01*
X87220000Y-45720000D02*
X90170000Y-42770000D01*
X90170000Y-42770000D02*
X90170000Y-41370000D01*
X79879990Y-65363990D02*
X80851932Y-65363990D01*
X80851932Y-65363990D02*
X99060000Y-83572058D01*
X99060000Y-83572058D02*
X99060000Y-83820000D01*
X83820000Y-47383600D02*
X83820000Y-45720000D01*
X79879990Y-65363990D02*
X79879990Y-51323610D01*
X79879990Y-51323610D02*
X83820000Y-47383600D01*
X95250000Y-97790000D02*
X95250000Y-95250000D01*
X119380000Y-81527942D02*
X119380000Y-65316000D01*
X119380000Y-65316000D02*
X119380000Y-63500000D01*
X95250000Y-95250000D02*
X105657942Y-95250000D01*
X105657942Y-95250000D02*
X119380000Y-81527942D01*
X88900000Y-58420000D02*
X88900000Y-56400002D01*
X88900000Y-56400002D02*
X93250000Y-52050002D01*
X93250000Y-52050002D02*
X93250000Y-50800000D01*
X88900000Y-63500000D02*
X88900000Y-58420000D01*
X86360000Y-58420000D02*
X86360000Y-54290000D01*
X86360000Y-54290000D02*
X89850000Y-50800000D01*
X89850000Y-50800000D02*
X91250000Y-50800000D01*
X86360000Y-63500000D02*
X86360000Y-58420000D01*
X90170000Y-35370000D02*
X96330000Y-35370000D01*
X96330000Y-35370000D02*
X96650010Y-35690010D01*
X96650010Y-35690010D02*
X96650010Y-45720000D01*
X102870000Y-45720000D02*
X102870000Y-43180000D01*
X96650010Y-45720000D02*
X102870000Y-45720000D01*
X83820000Y-38100000D02*
X83820000Y-36436400D01*
X83820000Y-36436400D02*
X84886400Y-35370000D01*
X84886400Y-35370000D02*
X88520000Y-35370000D01*
X88520000Y-35370000D02*
X90170000Y-35370000D01*
X93980000Y-58420000D02*
X93980000Y-56604000D01*
X93980000Y-56604000D02*
X97250000Y-53334000D01*
X97250000Y-53334000D02*
X97250000Y-52450000D01*
X97250000Y-52450000D02*
X97250000Y-50800000D01*
X93980000Y-58420000D02*
X104639110Y-58420000D01*
X104639110Y-58420000D02*
X116840000Y-46219110D01*
X116840000Y-46219110D02*
X116840000Y-43180000D01*
X99060000Y-41910000D02*
X100330000Y-43180000D01*
X99060000Y-33020000D02*
X99060000Y-41910000D01*
X113030000Y-41910000D02*
X113030000Y-33020000D01*
X114300000Y-43180000D02*
X113030000Y-41910000D01*
M02*
