M48
;DRILL file {KiCad 4.0.5} date 03/27/17 13:56:36
;FORMAT={-:-/ absolute / inch / decimal}
FMAT,2
INCH,TZ
T1C0.016
T2C0.030
T3C0.031
T4C0.039
T5C0.040
%
G90
G05
M72
T1
X8.38Y-4.5
T2
X9.02Y-3.46
X9.02Y-4.86
X9.12Y-3.46
X9.12Y-4.86
T3
X7.66Y-3.09
X7.66Y-3.19
X7.66Y-3.29
X7.66Y-3.39
X7.66Y-3.49
X7.66Y-3.59
X7.66Y-3.69
X7.66Y-3.79
X7.66Y-3.89
X7.66Y-3.99
X7.66Y-4.09
X7.66Y-4.19
X7.66Y-4.29
X7.66Y-4.39
X7.66Y-4.49
X7.66Y-4.59
X8.46Y-3.49
X8.46Y-3.59
X8.46Y-3.69
X8.46Y-3.79
X8.46Y-3.89
X8.46Y-3.99
X8.46Y-4.09
X8.46Y-4.19
X8.46Y-4.29
X8.46Y-4.39
X8.46Y-4.49
X8.46Y-4.59
T4
X7.2878Y-3.7518
X7.2878Y-3.8518
X7.2878Y-3.9518
X7.2917Y-4.4355
X7.2917Y-4.5355
X7.2917Y-4.6355
X7.2917Y-4.7355
X7.2917Y-4.8355
T5
X9.19Y-2.89
X9.19Y-3.19
X9.29Y-2.89
X9.29Y-3.19
X9.39Y-2.89
X9.39Y-3.19
X9.49Y-2.99
X9.49Y-3.09
T0
M30
