G04 #@! TF.FileFunction,Legend,Top*
%FSLAX46Y46*%
G04 Gerber Fmt 4.6, Leading zero omitted, Abs format (unit mm)*
G04 Created by KiCad (PCBNEW 4.0.5) date 03/27/17 13:56:34*
%MOMM*%
%LPD*%
G01*
G04 APERTURE LIST*
%ADD10C,0.100000*%
%ADD11C,0.300000*%
%ADD12C,0.150000*%
%ADD13C,0.120000*%
G04 APERTURE END LIST*
D10*
D11*
X187265714Y-98441849D02*
X187480000Y-98513277D01*
X187837143Y-98513277D01*
X187980000Y-98441849D01*
X188051429Y-98370420D01*
X188122857Y-98227563D01*
X188122857Y-98084706D01*
X188051429Y-97941849D01*
X187980000Y-97870420D01*
X187837143Y-97798992D01*
X187551429Y-97727563D01*
X187408571Y-97656135D01*
X187337143Y-97584706D01*
X187265714Y-97441849D01*
X187265714Y-97298992D01*
X187337143Y-97156135D01*
X187408571Y-97084706D01*
X187551429Y-97013277D01*
X187908571Y-97013277D01*
X188122857Y-97084706D01*
X188765714Y-98513277D02*
X188765714Y-97013277D01*
X189622857Y-98513277D01*
X189622857Y-97013277D01*
X191194286Y-98513277D02*
X190694286Y-97798992D01*
X190337143Y-98513277D02*
X190337143Y-97013277D01*
X190908571Y-97013277D01*
X191051429Y-97084706D01*
X191122857Y-97156135D01*
X191194286Y-97298992D01*
X191194286Y-97513277D01*
X191122857Y-97656135D01*
X191051429Y-97727563D01*
X190908571Y-97798992D01*
X190337143Y-97798992D01*
X187372858Y-99762571D02*
X188301429Y-99762571D01*
X187801429Y-100334000D01*
X188015715Y-100334000D01*
X188158572Y-100405429D01*
X188230001Y-100476857D01*
X188301429Y-100619714D01*
X188301429Y-100976857D01*
X188230001Y-101119714D01*
X188158572Y-101191143D01*
X188015715Y-101262571D01*
X187587143Y-101262571D01*
X187444286Y-101191143D01*
X187372858Y-101119714D01*
X188730000Y-99762571D02*
X189230000Y-101262571D01*
X189730000Y-99762571D01*
X190087143Y-99762571D02*
X191015714Y-99762571D01*
X190515714Y-100334000D01*
X190730000Y-100334000D01*
X190872857Y-100405429D01*
X190944286Y-100476857D01*
X191015714Y-100619714D01*
X191015714Y-100976857D01*
X190944286Y-101119714D01*
X190872857Y-101191143D01*
X190730000Y-101262571D01*
X190301428Y-101262571D01*
X190158571Y-101191143D01*
X190087143Y-101119714D01*
X187662572Y-113268183D02*
X187876858Y-113339611D01*
X188234001Y-113339611D01*
X188376858Y-113268183D01*
X188448287Y-113196754D01*
X188519715Y-113053897D01*
X188519715Y-112911040D01*
X188448287Y-112768183D01*
X188376858Y-112696754D01*
X188234001Y-112625326D01*
X187948287Y-112553897D01*
X187805429Y-112482469D01*
X187734001Y-112411040D01*
X187662572Y-112268183D01*
X187662572Y-112125326D01*
X187734001Y-111982469D01*
X187805429Y-111911040D01*
X187948287Y-111839611D01*
X188305429Y-111839611D01*
X188519715Y-111911040D01*
X189162572Y-113339611D02*
X189162572Y-111839611D01*
X189519715Y-111839611D01*
X189734000Y-111911040D01*
X189876858Y-112053897D01*
X189948286Y-112196754D01*
X190019715Y-112482469D01*
X190019715Y-112696754D01*
X189948286Y-112982469D01*
X189876858Y-113125326D01*
X189734000Y-113268183D01*
X189519715Y-113339611D01*
X189162572Y-113339611D01*
X190591143Y-112911040D02*
X191305429Y-112911040D01*
X190448286Y-113339611D02*
X190948286Y-111839611D01*
X191448286Y-113339611D01*
X187698286Y-115808183D02*
X187912572Y-115879611D01*
X188269715Y-115879611D01*
X188412572Y-115808183D01*
X188484001Y-115736754D01*
X188555429Y-115593897D01*
X188555429Y-115451040D01*
X188484001Y-115308183D01*
X188412572Y-115236754D01*
X188269715Y-115165326D01*
X187984001Y-115093897D01*
X187841143Y-115022469D01*
X187769715Y-114951040D01*
X187698286Y-114808183D01*
X187698286Y-114665326D01*
X187769715Y-114522469D01*
X187841143Y-114451040D01*
X187984001Y-114379611D01*
X188341143Y-114379611D01*
X188555429Y-114451040D01*
X190055429Y-115736754D02*
X189984000Y-115808183D01*
X189769714Y-115879611D01*
X189626857Y-115879611D01*
X189412572Y-115808183D01*
X189269714Y-115665326D01*
X189198286Y-115522469D01*
X189126857Y-115236754D01*
X189126857Y-115022469D01*
X189198286Y-114736754D01*
X189269714Y-114593897D01*
X189412572Y-114451040D01*
X189626857Y-114379611D01*
X189769714Y-114379611D01*
X189984000Y-114451040D01*
X190055429Y-114522469D01*
X191412572Y-115879611D02*
X190698286Y-115879611D01*
X190698286Y-114379611D01*
X187670764Y-119459611D02*
X188599335Y-119459611D01*
X188099335Y-120031040D01*
X188313621Y-120031040D01*
X188456478Y-120102469D01*
X188527907Y-120173897D01*
X188599335Y-120316754D01*
X188599335Y-120673897D01*
X188527907Y-120816754D01*
X188456478Y-120888183D01*
X188313621Y-120959611D01*
X187885049Y-120959611D01*
X187742192Y-120888183D01*
X187670764Y-120816754D01*
X189027906Y-119459611D02*
X189527906Y-120959611D01*
X190027906Y-119459611D01*
X190385049Y-119459611D02*
X191313620Y-119459611D01*
X190813620Y-120031040D01*
X191027906Y-120031040D01*
X191170763Y-120102469D01*
X191242192Y-120173897D01*
X191313620Y-120316754D01*
X191313620Y-120673897D01*
X191242192Y-120816754D01*
X191170763Y-120888183D01*
X191027906Y-120959611D01*
X190599334Y-120959611D01*
X190456477Y-120888183D01*
X190385049Y-120816754D01*
X188030961Y-94246000D02*
X187888104Y-94174571D01*
X187673818Y-94174571D01*
X187459533Y-94246000D01*
X187316675Y-94388857D01*
X187245247Y-94531714D01*
X187173818Y-94817429D01*
X187173818Y-95031714D01*
X187245247Y-95317429D01*
X187316675Y-95460286D01*
X187459533Y-95603143D01*
X187673818Y-95674571D01*
X187816675Y-95674571D01*
X188030961Y-95603143D01*
X188102390Y-95531714D01*
X188102390Y-95031714D01*
X187816675Y-95031714D01*
X188745247Y-95674571D02*
X188745247Y-94174571D01*
X189602390Y-95674571D01*
X189602390Y-94174571D01*
X190316676Y-95674571D02*
X190316676Y-94174571D01*
X190673819Y-94174571D01*
X190888104Y-94246000D01*
X191030962Y-94388857D01*
X191102390Y-94531714D01*
X191173819Y-94817429D01*
X191173819Y-95031714D01*
X191102390Y-95317429D01*
X191030962Y-95460286D01*
X190888104Y-95603143D01*
X190673819Y-95674571D01*
X190316676Y-95674571D01*
X188385049Y-122071040D02*
X188242192Y-121999611D01*
X188027906Y-121999611D01*
X187813621Y-122071040D01*
X187670763Y-122213897D01*
X187599335Y-122356754D01*
X187527906Y-122642469D01*
X187527906Y-122856754D01*
X187599335Y-123142469D01*
X187670763Y-123285326D01*
X187813621Y-123428183D01*
X188027906Y-123499611D01*
X188170763Y-123499611D01*
X188385049Y-123428183D01*
X188456478Y-123356754D01*
X188456478Y-122856754D01*
X188170763Y-122856754D01*
X189099335Y-123499611D02*
X189099335Y-121999611D01*
X189956478Y-123499611D01*
X189956478Y-121999611D01*
X190670764Y-123499611D02*
X190670764Y-121999611D01*
X191027907Y-121999611D01*
X191242192Y-122071040D01*
X191385050Y-122213897D01*
X191456478Y-122356754D01*
X191527907Y-122642469D01*
X191527907Y-122856754D01*
X191456478Y-123142469D01*
X191385050Y-123285326D01*
X191242192Y-123428183D01*
X191027907Y-123499611D01*
X190670764Y-123499611D01*
X189594856Y-73727429D02*
X189237713Y-72727429D01*
X188880571Y-73727429D01*
X188023428Y-74227429D02*
X187880571Y-74227429D01*
X187737714Y-74156000D01*
X187666285Y-74084571D01*
X187594856Y-73941714D01*
X187523428Y-73656000D01*
X187523428Y-73298857D01*
X187594856Y-73013143D01*
X187666285Y-72870286D01*
X187737714Y-72798857D01*
X187880571Y-72727429D01*
X188023428Y-72727429D01*
X188166285Y-72798857D01*
X188237714Y-72870286D01*
X188309142Y-73013143D01*
X188380571Y-73298857D01*
X188380571Y-73656000D01*
X188309142Y-73941714D01*
X188237714Y-74084571D01*
X188166285Y-74156000D01*
X188023428Y-74227429D01*
X186880571Y-72870286D02*
X186809143Y-72798857D01*
X186880571Y-72727429D01*
X186952000Y-72798857D01*
X186880571Y-72870286D01*
X186880571Y-72727429D01*
X185380571Y-72727429D02*
X186237714Y-72727429D01*
X185809142Y-72727429D02*
X185809142Y-74227429D01*
X185951999Y-74013143D01*
X186094857Y-73870286D01*
X186237714Y-73798857D01*
D12*
X193464000Y-72306000D02*
X193464000Y-122936000D01*
X215984000Y-122936000D02*
X215984000Y-72306000D01*
X193464000Y-122936000D02*
X215984000Y-122936000D01*
X215984000Y-72306000D02*
X208477333Y-72306000D01*
X208477333Y-72306000D02*
X208477333Y-72756000D01*
X208477333Y-72756000D02*
X200970667Y-72756000D01*
X200970667Y-72756000D02*
X200970667Y-72306000D01*
X200970667Y-72306000D02*
X193464000Y-72306000D01*
D13*
X186089390Y-79420000D02*
X185089390Y-79420000D01*
X185089390Y-78060000D02*
X186089390Y-78060000D01*
X186089390Y-83992000D02*
X185089390Y-83992000D01*
X185089390Y-82632000D02*
X186089390Y-82632000D01*
X186090000Y-88564000D02*
X185090000Y-88564000D01*
X185090000Y-87204000D02*
X186090000Y-87204000D01*
X189789390Y-78060000D02*
X190789390Y-78060000D01*
X190789390Y-79420000D02*
X189789390Y-79420000D01*
X189789390Y-82632000D02*
X190789390Y-82632000D01*
X190789390Y-83992000D02*
X189789390Y-83992000D01*
X189789000Y-87204000D02*
X190789000Y-87204000D01*
X190789000Y-88564000D02*
X189789000Y-88564000D01*
D12*
X217678000Y-92964000D02*
X225298000Y-92964000D01*
X217678000Y-100584000D02*
X217678000Y-92964000D01*
X225298000Y-100584000D02*
X217678000Y-100584000D01*
X225298000Y-92964000D02*
X225298000Y-100584000D01*
X225298000Y-110744000D02*
X225298000Y-118364000D01*
X217678000Y-110744000D02*
X225298000Y-110744000D01*
X217678000Y-118364000D02*
X217678000Y-110744000D01*
X225298000Y-118364000D02*
X217678000Y-118364000D01*
X239268000Y-110744000D02*
X239268000Y-118364000D01*
X257048000Y-110744000D02*
X239268000Y-110744000D01*
X257048000Y-118364000D02*
X257048000Y-110744000D01*
X239268000Y-118364000D02*
X257048000Y-118364000D01*
X221488000Y-125984000D02*
X221488000Y-85344000D01*
X253238000Y-125984000D02*
X221488000Y-125984000D01*
X253238000Y-85344000D02*
X253238000Y-125984000D01*
X221488000Y-85344000D02*
X253238000Y-85344000D01*
D13*
X186539906Y-121551040D02*
X186539906Y-111331040D01*
X186539906Y-111331040D02*
X183879906Y-111331040D01*
X183879906Y-111331040D02*
X183879906Y-121551040D01*
X183879906Y-121551040D02*
X186539906Y-121551040D01*
X186539906Y-122821040D02*
X186539906Y-124151040D01*
X186539906Y-124151040D02*
X185209906Y-124151040D01*
X183779818Y-96564706D02*
X183779818Y-101704706D01*
X183779818Y-101704706D02*
X186439818Y-101704706D01*
X186439818Y-101704706D02*
X186439818Y-96564706D01*
X186439818Y-96564706D02*
X183779818Y-96564706D01*
X183779818Y-95294706D02*
X183779818Y-93964706D01*
X183779818Y-93964706D02*
X185109818Y-93964706D01*
D12*
X253238000Y-71882000D02*
X253238000Y-82550000D01*
X228346000Y-71882000D02*
X253238000Y-71882000D01*
X228346000Y-82550000D02*
X228346000Y-71882000D01*
X253238000Y-82550000D02*
X228346000Y-82550000D01*
X184851295Y-77742381D02*
X184851295Y-76742381D01*
X185089390Y-76742381D01*
X185232248Y-76790000D01*
X185327486Y-76885238D01*
X185375105Y-76980476D01*
X185422724Y-77170952D01*
X185422724Y-77313810D01*
X185375105Y-77504286D01*
X185327486Y-77599524D01*
X185232248Y-77694762D01*
X185089390Y-77742381D01*
X184851295Y-77742381D01*
X186375105Y-77742381D02*
X185803676Y-77742381D01*
X186089390Y-77742381D02*
X186089390Y-76742381D01*
X185994152Y-76885238D01*
X185898914Y-76980476D01*
X185803676Y-77028095D01*
X184851295Y-82314381D02*
X184851295Y-81314381D01*
X185089390Y-81314381D01*
X185232248Y-81362000D01*
X185327486Y-81457238D01*
X185375105Y-81552476D01*
X185422724Y-81742952D01*
X185422724Y-81885810D01*
X185375105Y-82076286D01*
X185327486Y-82171524D01*
X185232248Y-82266762D01*
X185089390Y-82314381D01*
X184851295Y-82314381D01*
X185803676Y-81409619D02*
X185851295Y-81362000D01*
X185946533Y-81314381D01*
X186184629Y-81314381D01*
X186279867Y-81362000D01*
X186327486Y-81409619D01*
X186375105Y-81504857D01*
X186375105Y-81600095D01*
X186327486Y-81742952D01*
X185756057Y-82314381D01*
X186375105Y-82314381D01*
X184851905Y-86886381D02*
X184851905Y-85886381D01*
X185090000Y-85886381D01*
X185232858Y-85934000D01*
X185328096Y-86029238D01*
X185375715Y-86124476D01*
X185423334Y-86314952D01*
X185423334Y-86457810D01*
X185375715Y-86648286D01*
X185328096Y-86743524D01*
X185232858Y-86838762D01*
X185090000Y-86886381D01*
X184851905Y-86886381D01*
X185756667Y-85886381D02*
X186375715Y-85886381D01*
X186042381Y-86267333D01*
X186185239Y-86267333D01*
X186280477Y-86314952D01*
X186328096Y-86362571D01*
X186375715Y-86457810D01*
X186375715Y-86695905D01*
X186328096Y-86791143D01*
X186280477Y-86838762D01*
X186185239Y-86886381D01*
X185899524Y-86886381D01*
X185804286Y-86838762D01*
X185756667Y-86791143D01*
M02*
