G04 #@! TF.FileFunction,Copper,L2,Bot,Signal*
%FSLAX46Y46*%
G04 Gerber Fmt 4.6, Leading zero omitted, Abs format (unit mm)*
G04 Created by KiCad (PCBNEW 4.0.5) date 03/27/17 13:56:34*
%MOMM*%
%LPD*%
G01*
G04 APERTURE LIST*
%ADD10C,0.100000*%
%ADD11C,1.200000*%
%ADD12C,1.524000*%
%ADD13R,1.700000X1.700000*%
%ADD14O,1.700000X1.700000*%
%ADD15O,1.727200X2.032000*%
%ADD16C,0.600000*%
%ADD17C,0.250000*%
G04 APERTURE END LIST*
D10*
D11*
X194564000Y-78486000D03*
X194564000Y-81026000D03*
X194564000Y-83566000D03*
X194564000Y-86106000D03*
X214884000Y-88646000D03*
X194564000Y-88646000D03*
X214884000Y-91186000D03*
X194564000Y-91186000D03*
X214884000Y-93726000D03*
X194564000Y-93726000D03*
X214884000Y-96266000D03*
X194564000Y-96266000D03*
X214884000Y-98806000D03*
X194564000Y-98806000D03*
X214884000Y-101346000D03*
X194564000Y-101346000D03*
X214884000Y-103886000D03*
X194564000Y-103886000D03*
X214884000Y-106426000D03*
X194564000Y-106426000D03*
X214884000Y-108966000D03*
X194564000Y-108966000D03*
X214884000Y-111506000D03*
X194564000Y-111506000D03*
X214884000Y-114046000D03*
X194564000Y-114046000D03*
X214884000Y-116586000D03*
X194564000Y-116586000D03*
D12*
X229108000Y-87884000D03*
X231648000Y-87884000D03*
X231648000Y-123444000D03*
X229108000Y-123444000D03*
D13*
X185209906Y-122821040D03*
D14*
X185209906Y-120281040D03*
X185209906Y-117741040D03*
X185209906Y-115201040D03*
X185209906Y-112661040D03*
D13*
X185109818Y-95294706D03*
D14*
X185109818Y-97834706D03*
X185109818Y-100374706D03*
D15*
X238506000Y-81026000D03*
X235966000Y-81026000D03*
X233426000Y-81026000D03*
X241046000Y-78486000D03*
X241046000Y-75946000D03*
X238506000Y-73406000D03*
X235966000Y-73406000D03*
X233426000Y-73406000D03*
D16*
X212852000Y-114300000D03*
D17*
X214884000Y-114046000D02*
X235966000Y-92964000D01*
X235966000Y-92964000D02*
X235966000Y-81026000D01*
X185209906Y-115201040D02*
X213728960Y-115201040D01*
X213728960Y-115201040D02*
X214884000Y-114046000D01*
X214884000Y-116586000D02*
X238506000Y-92964000D01*
X238506000Y-92964000D02*
X238506000Y-81026000D01*
X185209906Y-112661040D02*
X211213040Y-112661040D01*
X211213040Y-112661040D02*
X212852000Y-114300000D01*
M02*
